# Blender 4.5.14 LTS
# www.blender.org
mtllib fatman.mtl
o fatman
v 0.191371 0.000000 0.782876
v -0.191370 -0.000001 0.782877
v 0.191371 -0.241922 0.744559
v -0.191370 -0.241923 0.744560
v 0.191371 -0.460164 0.633360
v -0.191370 -0.460164 0.633360
v 0.191371 -0.633361 0.460162
v -0.191370 -0.633362 0.460162
v 0.191371 -0.744559 0.241921
v -0.191370 -0.744560 0.241921
v 0.191371 -0.782876 -0.000001
v -0.191371 -0.782878 -0.000001
v 0.191370 -0.744559 -0.241923
v -0.191371 -0.744560 -0.241923
v 0.191370 -0.633360 -0.460164
v -0.191371 -0.633361 -0.460164
v 0.191370 -0.460163 -0.633361
v -0.191371 -0.460163 -0.633361
v 0.191370 -0.241921 -0.744561
v -0.191371 -0.241922 -0.744560
v 0.191370 0.000001 -0.782877
v -0.191371 -0.000000 -0.782876
v 0.191370 0.241923 -0.744560
v -0.191371 0.241923 -0.744559
v 0.191370 0.460164 -0.633361
v -0.191371 0.460163 -0.633360
v 0.191370 0.633362 -0.460164
v -0.191371 0.633360 -0.460163
v 0.191370 0.744560 -0.241921
v -0.191371 0.744560 -0.241921
v 0.191371 0.782876 0.000000
v -0.191371 0.782876 0.000001
v 0.191371 0.744560 0.241922
v -0.191370 0.744558 0.241923
v 0.191371 0.633360 0.460164
v -0.191370 0.633359 0.460164
v 0.191371 0.460162 0.633360
v -0.191370 0.460161 0.633361
v 0.191371 0.241921 0.744559
v -0.191370 0.241920 0.744560
v 0.562299 -0.000001 0.697154
v 0.562299 -0.215434 0.663033
v 0.562299 -0.409779 0.564009
v 0.562299 -0.564012 0.409776
v 0.562299 -0.663036 0.215431
v 0.562298 -0.697156 -0.000002
v 0.562298 -0.663036 -0.215435
v 0.562298 -0.564011 -0.409780
v 0.562298 -0.409778 -0.564013
v 0.562298 -0.215433 -0.663036
v 0.562298 -0.000000 -0.697158
v 0.562298 0.215433 -0.663036
v 0.562298 0.409778 -0.564013
v 0.562298 0.564011 -0.409779
v 0.562298 0.663033 -0.215434
v 0.562298 0.697155 -0.000001
v 0.562299 0.663033 0.215432
v 0.562299 0.564009 0.409777
v 0.562299 0.409776 0.564010
v 0.562299 0.215431 0.663033
v 0.840841 0.000001 0.560160
v 0.840841 -0.173099 0.532744
v 0.840841 -0.329254 0.453179
v 0.840841 -0.453179 0.329254
v 0.840841 -0.532744 0.173098
v 0.840841 -0.560161 -0.000001
v 0.840840 -0.532744 -0.173100
v 0.840840 -0.453178 -0.329255
v 0.840840 -0.329253 -0.453181
v 0.840840 -0.173098 -0.532746
v 0.840840 0.000002 -0.560162
v 0.840840 0.173101 -0.532746
v 0.840840 0.329255 -0.453181
v 0.840840 0.453182 -0.329255
v 0.840840 0.532747 -0.173100
v 0.840841 0.560163 0.000000
v 0.840841 0.532747 0.173099
v 0.840841 0.453181 0.329254
v 0.840841 0.329254 0.453180
v 0.840841 0.173099 0.532744
v 1.095168 -0.000001 0.379139
v 1.095168 -0.117162 0.360582
v 1.095168 -0.222854 0.306730
v 1.095168 -0.306732 0.222852
v 1.095168 -0.360584 0.117159
v 1.095168 -0.379140 -0.000001
v 1.095168 -0.360584 -0.117162
v 1.095167 -0.306731 -0.222854
v 1.095167 -0.222853 -0.306732
v 1.095167 -0.117161 -0.360585
v 1.095167 -0.000000 -0.379141
v 1.095167 0.117161 -0.360585
v 1.095167 0.222853 -0.306732
v 1.095167 0.306731 -0.222854
v 1.095168 0.360584 -0.117162
v 1.095168 0.379140 -0.000001
v 1.095168 0.360584 0.117160
v 1.095168 0.306730 0.222852
v 1.095168 0.222852 0.306730
v 1.095168 0.117159 0.360583
v 1.205703 0.000000 0.268155
v 1.205703 -0.082865 0.255031
v 1.205703 -0.157619 0.216941
v 1.205703 -0.216945 0.157616
v 1.205703 -0.255035 0.082862
v 1.205703 -0.268158 -0.000004
v 1.205703 -0.255035 -0.082870
v 1.205703 -0.216945 -0.157624
v 1.205702 -0.157619 -0.216950
v 1.205702 -0.082865 -0.255039
v 1.205702 0.000000 -0.268163
v 1.205702 0.082867 -0.255039
v 1.205702 0.157621 -0.216949
v 1.205703 0.216946 -0.157624
v 1.205703 0.255036 -0.082870
v 1.205703 0.268160 -0.000004
v 1.205703 0.255036 0.082862
v 1.205703 0.216946 0.157616
v 1.205703 0.157620 0.216942
v 1.205703 0.082865 0.255031
v 1.258767 -0.000003 0.117573
v 1.258767 -0.036335 0.111819
v 1.258767 -0.069111 0.095118
v 1.258767 -0.095123 0.069107
v 1.258767 -0.111823 0.036331
v 1.258767 -0.117577 -0.000002
v 1.258767 -0.111823 -0.036335
v 1.258767 -0.095123 -0.069111
v 1.258767 -0.069111 -0.095123
v 1.258767 -0.036335 -0.111823
v 1.258767 -0.000002 -0.117577
v 1.258767 0.036331 -0.111823
v 1.258767 0.069107 -0.095123
v 1.258767 0.095119 -0.069111
v 1.258767 0.111818 -0.036335
v 1.258767 0.117573 -0.000002
v 1.258767 0.111818 0.036331
v 1.258767 0.095119 0.069107
v 1.258767 0.069107 0.095118
v 1.258767 0.036331 0.111819
v -1.073293 -0.162346 0.499643
v -1.073293 -0.000002 0.525355
v -1.073293 -0.308798 0.425021
v -1.073293 -0.425024 0.308796
v -1.073294 -0.499644 0.162343
v -1.073294 -0.525357 -0.000001
v -1.073294 -0.499644 -0.162345
v -1.073294 -0.425023 -0.308797
v -1.073294 -0.308797 -0.425023
v -1.073294 -0.162344 -0.499644
v -1.073294 -0.000000 -0.525357
v -1.073294 0.162344 -0.499644
v -1.073294 0.308795 -0.425023
v -1.073294 0.425022 -0.308797
v -1.073294 0.499642 -0.162344
v -1.073294 0.525355 -0.000000
v -1.073294 0.499642 0.162344
v -1.073293 0.425020 0.308796
v -1.073293 0.308794 0.425022
v -1.073293 0.162342 0.499643
v -1.837034 -0.060502 0.186207
v -1.837034 -0.000000 0.195790
v -1.837034 -0.115083 0.158397
v -1.837034 -0.158398 0.115082
v -1.837034 -0.186207 0.060502
v -1.837034 -0.195790 -0.000001
v -1.837034 -0.186207 -0.060503
v -1.837034 -0.158397 -0.115083
v -1.837034 -0.115082 -0.158398
v -1.837035 -0.060502 -0.186208
v -1.837035 0.060503 -0.186208
v -1.837035 -0.000000 -0.195791
v -1.837034 0.115083 -0.158398
v -1.837034 0.158398 -0.115083
v -1.837034 0.186208 -0.060503
v -1.837034 0.195791 0.000000
v -1.837034 0.186208 0.060502
v -1.837034 0.158397 0.115082
v -1.837034 0.115082 0.158397
v -1.837034 0.060503 0.186207
v -1.327010 0.307321 -0.228771
v -1.327010 0.379074 -0.055544
v -1.350927 0.432420 -0.077641
v -1.557979 0.218933 -0.192160
v -1.581897 0.272280 -0.214257
v -1.557979 0.290686 -0.018932
v -1.581897 0.344033 -0.041029
v -1.327010 0.355157 -0.113286
v -1.327010 0.331239 -0.171029
v -1.350927 0.408504 -0.135383
v -1.557979 0.242850 -0.134417
v -1.557979 0.266768 -0.076675
v -1.581897 0.320114 -0.098772
v -1.581897 0.296198 -0.156514
v -1.500237 0.312783 -0.028085
v -1.524155 0.366130 -0.050182
v -1.500237 0.241030 -0.201313
v -1.524155 0.294377 -0.223410
v -1.524155 0.342213 -0.107925
v -1.524155 0.318295 -0.165667
v -1.500237 0.288864 -0.085828
v -1.500237 0.264948 -0.143570
v -1.548072 0.419477 -0.072279
v -1.605814 0.397380 -0.063126
v -1.605814 0.349545 -0.178611
v -1.605815 0.325627 -0.236354
v -1.548072 0.347724 -0.245507
v -1.350927 0.360667 -0.250868
v -1.350927 0.384585 -0.193126
v -1.605814 0.373461 -0.120869
v -1.548072 0.395560 -0.130022
v -1.548072 0.371642 -0.187764
v -1.327008 0.379074 0.055543
v -1.327008 0.307320 0.228770
v -1.350926 0.360667 0.250867
v -1.557979 0.290686 0.018931
v -1.581897 0.344033 0.041028
v -1.557978 0.218932 0.192158
v -1.581896 0.272279 0.214256
v -1.327008 0.331239 0.171028
v -1.327008 0.355157 0.113285
v -1.350926 0.384585 0.193125
v -1.557979 0.266768 0.076674
v -1.557979 0.242850 0.134416
v -1.581897 0.296198 0.156513
v -1.581897 0.320114 0.098771
v -1.500236 0.241029 0.201311
v -1.524153 0.294376 0.223408
v -1.500237 0.312783 0.028084
v -1.524153 0.366130 0.050181
v -1.524153 0.318295 0.165666
v -1.524153 0.342213 0.107924
v -1.500237 0.264948 0.143569
v -1.500237 0.288864 0.085826
v -1.548071 0.347723 0.245506
v -1.605814 0.325626 0.236353
v -1.605814 0.373461 0.120868
v -1.605814 0.397380 0.063125
v -1.548072 0.419477 0.072278
v -1.350927 0.432420 0.077640
v -1.350927 0.408504 0.135382
v -1.605814 0.349545 0.178610
v -1.548071 0.371642 0.187763
v -1.548072 0.395560 0.130021
v -1.327008 0.228770 0.307320
v -1.327008 0.055543 0.379073
v -1.350926 0.077641 0.432420
v -1.557978 0.192159 0.218932
v -1.581896 0.214257 0.272279
v -1.557978 0.018931 0.290685
v -1.581896 0.041028 0.344032
v -1.327008 0.113285 0.355156
v -1.327008 0.171028 0.331238
v -1.350926 0.135383 0.408503
v -1.557978 0.134417 0.242850
v -1.557978 0.076674 0.266767
v -1.581896 0.098771 0.320114
v -1.581896 0.156513 0.296197
v -1.500236 0.028084 0.312782
v -1.524153 0.050181 0.366129
v -1.500236 0.201312 0.241029
v -1.524153 0.223409 0.294376
v -1.524153 0.107924 0.342211
v -1.524153 0.165666 0.318294
v -1.500236 0.085826 0.288864
v -1.500236 0.143570 0.264947
v -1.548071 0.072278 0.419476
v -1.605813 0.063125 0.397379
v -1.605813 0.178610 0.349544
v -1.605813 0.236353 0.325626
v -1.548071 0.245506 0.347723
v -1.350926 0.250867 0.360667
v -1.350926 0.193125 0.384585
v -1.605813 0.120868 0.373461
v -1.548071 0.130021 0.395559
v -1.548071 0.187763 0.371641
v -1.327008 -0.055544 0.379073
v -1.327008 -0.228771 0.307320
v -1.350926 -0.250868 0.360667
v -1.557978 -0.018932 0.290685
v -1.581896 -0.041029 0.344032
v -1.557978 -0.192159 0.218932
v -1.581896 -0.214257 0.272279
v -1.327008 -0.171029 0.331238
v -1.327008 -0.113286 0.355156
v -1.350926 -0.193126 0.384585
v -1.557978 -0.076675 0.266767
v -1.557978 -0.134417 0.242850
v -1.581896 -0.156514 0.296197
v -1.581896 -0.098772 0.320114
v -1.500236 -0.201312 0.241029
v -1.524153 -0.223409 0.294376
v -1.500236 -0.028085 0.312782
v -1.524153 -0.050182 0.366129
v -1.524153 -0.165667 0.318294
v -1.524153 -0.107925 0.342211
v -1.500236 -0.143569 0.264947
v -1.500236 -0.085827 0.288864
v -1.548071 -0.245507 0.347723
v -1.605813 -0.236354 0.325626
v -1.605813 -0.120869 0.373461
v -1.605813 -0.063126 0.397379
v -1.548071 -0.072279 0.419476
v -1.350926 -0.077641 0.432420
v -1.350926 -0.135383 0.408503
v -1.605813 -0.178611 0.349544
v -1.548071 -0.187764 0.371641
v -1.548071 -0.130022 0.395559
v -1.327008 -0.307321 0.228770
v -1.327008 -0.379074 0.055543
v -1.350927 -0.432422 0.077640
v -1.557978 -0.218933 0.192158
v -1.581896 -0.272280 0.214255
v -1.557979 -0.290686 0.018931
v -1.581897 -0.344032 0.041028
v -1.327008 -0.355156 0.113285
v -1.327008 -0.331239 0.171028
v -1.350927 -0.408504 0.135382
v -1.557979 -0.242850 0.134416
v -1.557979 -0.266768 0.076673
v -1.581897 -0.320116 0.098771
v -1.581897 -0.296198 0.156513
v -1.500236 -0.312782 0.028084
v -1.524153 -0.366129 0.050181
v -1.500235 -0.241030 0.201311
v -1.524153 -0.294377 0.223408
v -1.524153 -0.342212 0.107923
v -1.524153 -0.318294 0.165666
v -1.500236 -0.288866 0.085826
v -1.500236 -0.264948 0.143569
v -1.548072 -0.419477 0.072278
v -1.605814 -0.397379 0.063125
v -1.605814 -0.349544 0.178610
v -1.605813 -0.325627 0.236353
v -1.548071 -0.347724 0.245505
v -1.350926 -0.360668 0.250867
v -1.350926 -0.384585 0.193125
v -1.605814 -0.373462 0.120868
v -1.548072 -0.395559 0.130021
v -1.548071 -0.371641 0.187763
v -1.327008 -0.379074 -0.055544
v -1.327009 -0.307321 -0.228771
v -1.350927 -0.360668 -0.250868
v -1.557979 -0.290686 -0.018932
v -1.581895 -0.344032 -0.041029
v -1.557979 -0.218932 -0.192160
v -1.581896 -0.272279 -0.214257
v -1.327008 -0.331239 -0.171029
v -1.327008 -0.355156 -0.113287
v -1.350927 -0.384585 -0.193126
v -1.557979 -0.266768 -0.076675
v -1.557979 -0.242850 -0.134417
v -1.581895 -0.296198 -0.156514
v -1.581895 -0.320116 -0.098772
v -1.500236 -0.241029 -0.201313
v -1.524154 -0.294376 -0.223410
v -1.500236 -0.312782 -0.028085
v -1.524153 -0.366129 -0.050182
v -1.524153 -0.318294 -0.165667
v -1.524153 -0.342212 -0.107925
v -1.500236 -0.264948 -0.143570
v -1.500236 -0.288866 -0.085828
v -1.548072 -0.347723 -0.245507
v -1.605814 -0.325626 -0.236354
v -1.605814 -0.373462 -0.120869
v -1.605814 -0.397379 -0.063126
v -1.548072 -0.419477 -0.072279
v -1.350927 -0.432422 -0.077641
v -1.350927 -0.408504 -0.135384
v -1.605814 -0.349544 -0.178612
v -1.548072 -0.371641 -0.187764
v -1.548072 -0.395559 -0.130022
v -1.327009 -0.228770 -0.307322
v -1.327009 -0.055543 -0.379075
v -1.350926 -0.077640 -0.432422
v -1.557979 -0.192159 -0.218933
v -1.581896 -0.214257 -0.272280
v -1.557979 -0.018931 -0.290686
v -1.581896 -0.041028 -0.344033
v -1.327009 -0.113285 -0.355157
v -1.327009 -0.171028 -0.331239
v -1.350926 -0.135383 -0.408504
v -1.557979 -0.134417 -0.242851
v -1.557979 -0.076674 -0.266769
v -1.581896 -0.098771 -0.320116
v -1.581896 -0.156513 -0.296198
v -1.500236 -0.028084 -0.312783
v -1.524154 -0.050181 -0.366131
v -1.500236 -0.201312 -0.241030
v -1.524154 -0.223409 -0.294377
v -1.524154 -0.107924 -0.342213
v -1.524154 -0.165666 -0.318295
v -1.500236 -0.085827 -0.288866
v -1.500236 -0.143569 -0.264948
v -1.548072 -0.072278 -0.419478
v -1.605814 -0.063125 -0.397381
v -1.605814 -0.178610 -0.349545
v -1.605814 -0.236353 -0.325627
v -1.548072 -0.245506 -0.347724
v -1.350926 -0.250867 -0.360669
v -1.350926 -0.193125 -0.384586
v -1.605814 -0.120868 -0.373463
v -1.548072 -0.130021 -0.395560
v -1.548072 -0.187763 -0.371642
v -1.327009 0.055544 -0.379075
v -1.327009 0.228771 -0.307322
v -1.350926 0.250868 -0.360669
v -1.557979 0.018932 -0.290686
v -1.581896 0.041029 -0.344033
v -1.557979 0.192160 -0.218933
v -1.581896 0.214257 -0.272280
v -1.327009 0.171029 -0.331239
v -1.327009 0.113286 -0.355157
v -1.350926 0.193126 -0.384587
v -1.557979 0.076675 -0.266769
v -1.557979 0.134417 -0.242851
v -1.581896 0.156514 -0.296198
v -1.581896 0.098772 -0.320116
v -1.500236 0.201312 -0.241030
v -1.524154 0.223410 -0.294377
v -1.500236 0.028085 -0.312783
v -1.524154 0.050182 -0.366131
v -1.524154 0.165667 -0.318295
v -1.524154 0.107925 -0.342213
v -1.500236 0.143570 -0.264948
v -1.500236 0.085827 -0.288866
v -1.548072 0.245507 -0.347725
v -1.605814 0.236354 -0.325627
v -1.605814 0.120869 -0.373463
v -1.605814 0.063126 -0.397381
v -1.548071 0.072279 -0.419478
v -1.350926 0.077641 -0.432422
v -1.350926 0.135383 -0.408504
v -1.605814 0.178611 -0.349545
v -1.548071 0.187764 -0.371642
v -1.548071 0.130022 -0.395560
v 0.223280 0.557316 -0.469267
v 0.223280 0.468927 -0.557655
v 0.223279 0.601510 -0.513461
v 0.223279 0.513122 -0.601849
v -0.026720 0.557316 -0.469266
v -0.026720 0.468927 -0.557655
v -0.026720 0.601510 -0.513460
v -0.026720 0.513122 -0.601848
v 0.190323 0.554898 -0.554900
v 0.004222 0.554898 -0.554899
v 0.190323 0.642916 -0.642918
v 0.004222 0.642916 -0.642917
v 0.223279 -0.466856 -0.554908
v 0.223279 -0.555245 -0.466519
v 0.223279 -0.511051 -0.599102
v 0.223279 -0.599439 -0.510713
v -0.026721 -0.466857 -0.554908
v -0.026721 -0.555245 -0.466519
v -0.026721 -0.511051 -0.599102
v -0.026721 -0.599439 -0.510714
v 0.190323 -0.552489 -0.552490
v 0.004221 -0.552489 -0.552490
v 0.190323 -0.640507 -0.640508
v 0.004221 -0.640507 -0.640508
v 0.223280 -0.552498 0.469265
v 0.223280 -0.464110 0.557653
v 0.223279 -0.596693 0.513459
v 0.223279 -0.508304 0.601847
v -0.026720 -0.552499 0.469265
v -0.026720 -0.464110 0.557653
v -0.026720 -0.596693 0.513459
v -0.026720 -0.508305 0.601847
v 0.190323 -0.550081 0.554897
v 0.004222 -0.550081 0.554897
v 0.190323 -0.638099 0.642915
v 0.004222 -0.638099 0.642915
v 0.223279 0.471675 0.554906
v 0.223279 0.560062 0.466517
v 0.223279 0.515868 0.599100
v 0.223279 0.604256 0.510711
v -0.026720 0.471675 0.554907
v -0.026720 0.560062 0.466518
v -0.026720 0.515868 0.599101
v -0.026720 0.604256 0.510713
v 0.190323 0.557307 0.552488
v 0.004222 0.557307 0.552489
v 0.190323 0.645325 0.640506
v 0.004222 0.645324 0.640507
v 1.114825 0.362501 -0.300002
v 0.864825 0.362501 -0.300002
v 1.114825 0.344195 -0.255808
v 0.864825 0.344195 -0.255808
v 1.114825 0.300001 -0.237502
v 0.864825 0.300001 -0.237502
v 1.114825 0.255806 -0.255808
v 0.864825 0.255806 -0.255808
v 1.114825 0.237501 -0.300002
v 0.864825 0.237501 -0.300002
v 1.114825 0.255806 -0.344196
v 0.864825 0.255806 -0.344196
v 1.114825 0.300001 -0.362502
v 0.864825 0.300001 -0.362502
v 1.114825 0.344195 -0.344196
v 0.864825 0.344195 -0.344196
v 1.114824 -0.297593 -0.360092
v 0.864824 -0.297593 -0.360092
v 1.114824 -0.253399 -0.341786
v 0.864824 -0.253399 -0.341786
v 1.114824 -0.235093 -0.297592
v 0.864824 -0.235093 -0.297592
v 1.114824 -0.253399 -0.253398
v 0.864824 -0.253399 -0.253398
v 1.114824 -0.297593 -0.235092
v 0.864824 -0.297593 -0.235092
v 1.114824 -0.341787 -0.253398
v 0.864824 -0.341787 -0.253398
v 1.114824 -0.360093 -0.297592
v 0.864824 -0.360093 -0.297592
v 1.114824 -0.341787 -0.341786
v 0.864824 -0.341787 -0.341786
v 1.114825 -0.357684 0.300002
v 0.864825 -0.357684 0.300001
v 1.114825 -0.339378 0.255807
v 0.864825 -0.339378 0.255807
v 1.114825 -0.295184 0.237502
v 0.864825 -0.295184 0.237501
v 1.114825 -0.250990 0.255807
v 0.864825 -0.250990 0.255807
v 1.114825 -0.232684 0.300002
v 0.864825 -0.232684 0.300001
v 1.114825 -0.250990 0.344196
v 0.864825 -0.250990 0.344196
v 1.114825 -0.295184 0.362502
v 0.864825 -0.295184 0.362501
v 1.114825 -0.339378 0.344196
v 0.864825 -0.339378 0.344196
v 1.114824 0.302410 0.360092
v 0.864824 0.302410 0.360091
v 1.114824 0.258216 0.341786
v 0.864824 0.258216 0.341786
v 1.114824 0.239910 0.297592
v 0.864824 0.239910 0.297591
v 1.114824 0.258216 0.253397
v 0.864824 0.258216 0.253397
v 1.114824 0.302410 0.235092
v 0.864824 0.302410 0.235091
v 1.114824 0.346604 0.253397
v 0.864824 0.346604 0.253397
v 1.114824 0.364910 0.297592
v 0.864824 0.364910 0.297591
v 1.114824 0.346604 0.341786
v 0.864824 0.346604 0.341786
v 0.068619 0.776410 -0.031247
v 0.068619 0.838910 -0.031247
v 0.068620 0.776410 0.031253
v 0.068620 0.838910 0.031253
v 0.006119 0.776410 -0.031247
v 0.006119 0.838910 -0.031247
v 0.006120 0.776410 0.031253
v 0.006120 0.838910 0.031253
v 0.131119 0.776410 -0.031247
v 0.131119 0.807660 -0.031247
v 0.131120 0.807660 0.031253
v 0.131120 0.776410 0.031253
v -0.056380 0.776410 0.031253
v -0.056380 0.807660 0.031253
v -0.056381 0.807660 -0.031247
v -0.056381 0.776410 -0.031247
v 0.068619 0.610223 -0.480226
v 0.068619 0.660786 -0.516963
v 0.068619 0.646959 -0.429662
v 0.068619 0.697523 -0.466398
v 0.006119 0.610223 -0.480226
v 0.006119 0.660786 -0.516962
v 0.006119 0.646959 -0.429662
v 0.006119 0.697523 -0.466398
v 0.131119 0.610223 -0.480227
v 0.131119 0.635505 -0.498594
v 0.131119 0.672241 -0.448031
v 0.131119 0.646959 -0.429662
v -0.056381 0.646959 -0.429662
v -0.056381 0.672241 -0.448030
v -0.056381 0.635505 -0.498594
v -0.056381 0.610223 -0.480226
v 0.068619 0.211871 -0.745776
v 0.068619 0.231185 -0.805217
v 0.068619 0.271312 -0.726462
v 0.068619 0.290626 -0.785903
v 0.006119 0.211871 -0.745776
v 0.006119 0.231185 -0.805217
v 0.006119 0.271312 -0.726462
v 0.006119 0.290626 -0.785903
v 0.131119 0.211871 -0.745776
v 0.131119 0.221528 -0.775496
v 0.131119 0.280969 -0.756183
v 0.131119 0.271312 -0.726462
v -0.056381 0.271312 -0.726461
v -0.056381 0.280969 -0.756182
v -0.056381 0.221528 -0.775495
v -0.056381 0.211871 -0.745775
v 0.068619 -0.266488 -0.726464
v 0.068619 -0.285801 -0.785905
v 0.068619 -0.207047 -0.745778
v 0.068619 -0.226360 -0.805219
v 0.006119 -0.266488 -0.726464
v 0.006119 -0.285801 -0.785905
v 0.006119 -0.207047 -0.745778
v 0.006119 -0.226360 -0.805219
v 0.131119 -0.266488 -0.726464
v 0.131119 -0.276144 -0.756185
v 0.131119 -0.216703 -0.775498
v 0.131119 -0.207047 -0.745778
v -0.056381 -0.207047 -0.745778
v -0.056381 -0.216703 -0.775498
v -0.056381 -0.276144 -0.756185
v -0.056381 -0.266488 -0.726464
v 0.068619 -0.642137 -0.429668
v 0.068619 -0.692701 -0.466405
v 0.068619 -0.605401 -0.480232
v 0.068619 -0.655964 -0.516969
v 0.006119 -0.642137 -0.429668
v 0.006119 -0.692701 -0.466405
v 0.006119 -0.605401 -0.480232
v 0.006119 -0.655964 -0.516969
v 0.131119 -0.642137 -0.429668
v 0.131119 -0.667419 -0.448037
v 0.131119 -0.630682 -0.498600
v 0.131119 -0.605401 -0.480232
v -0.056381 -0.605401 -0.480232
v -0.056381 -0.630682 -0.498600
v -0.056381 -0.667419 -0.448037
v -0.056381 -0.642137 -0.429669
v 0.068620 -0.771592 0.031246
v 0.068620 -0.834092 0.031245
v 0.068619 -0.771592 -0.031254
v 0.068619 -0.834092 -0.031255
v 0.006120 -0.771592 0.031246
v 0.006120 -0.834092 0.031245
v 0.006119 -0.771592 -0.031254
v 0.006119 -0.834092 -0.031255
v 0.131120 -0.771592 0.031246
v 0.131120 -0.802842 0.031245
v 0.131119 -0.802842 -0.031254
v 0.131119 -0.771592 -0.031254
v -0.056381 -0.771592 -0.031254
v -0.056381 -0.802842 -0.031254
v -0.056380 -0.802842 0.031245
v -0.056380 -0.771592 0.031245
v 0.068620 -0.605406 0.480224
v 0.068620 -0.655969 0.516961
v 0.068620 -0.642142 0.429661
v 0.068620 -0.692706 0.466397
v 0.006120 -0.605406 0.480224
v 0.006120 -0.655969 0.516961
v 0.006120 -0.642142 0.429661
v 0.006120 -0.692706 0.466397
v 0.131120 -0.605406 0.480224
v 0.131120 -0.630688 0.498593
v 0.131120 -0.667424 0.448029
v 0.131120 -0.642142 0.429661
v -0.056380 -0.642142 0.429661
v -0.056380 -0.667424 0.448029
v -0.056380 -0.630688 0.498593
v -0.056380 -0.605406 0.480224
v 0.068620 -0.207054 0.745773
v 0.068620 -0.226368 0.805214
v 0.068620 -0.266495 0.726460
v 0.068620 -0.285809 0.785901
v 0.006120 -0.207054 0.745773
v 0.006120 -0.226368 0.805214
v 0.006120 -0.266495 0.726460
v 0.006120 -0.285809 0.785901
v 0.131120 -0.207054 0.745773
v 0.131120 -0.216711 0.775494
v 0.131120 -0.276152 0.756180
v 0.131120 -0.266495 0.726460
v -0.056380 -0.266495 0.726460
v -0.056380 -0.276152 0.756180
v -0.056380 -0.216711 0.775494
v -0.056380 -0.207054 0.745773
v 0.068620 0.271306 0.726462
v 0.068620 0.290618 0.785903
v 0.068620 0.211864 0.745775
v 0.068620 0.231177 0.805216
v 0.006120 0.271306 0.726462
v 0.006120 0.290618 0.785903
v 0.006120 0.211864 0.745775
v 0.006120 0.231177 0.805216
v 0.131120 0.271306 0.726462
v 0.131120 0.280961 0.756183
v 0.131120 0.221520 0.775496
v 0.131120 0.211864 0.745775
v -0.056380 0.211864 0.745776
v -0.056380 0.221520 0.775497
v -0.056380 0.280961 0.756184
v -0.056380 0.271306 0.726463
v 0.068620 0.646954 0.429667
v 0.068620 0.697518 0.466404
v 0.068620 0.610217 0.480231
v 0.068620 0.660781 0.516967
v 0.006120 0.646954 0.429667
v 0.006120 0.697518 0.466404
v 0.006120 0.610217 0.480231
v 0.006120 0.660781 0.516968
v 0.131120 0.646954 0.429666
v 0.131120 0.672237 0.448035
v 0.131120 0.635499 0.498598
v 0.131120 0.610218 0.480230
v -0.056380 0.610217 0.480231
v -0.056380 0.635499 0.498599
v -0.056380 0.672237 0.448036
v -0.056380 0.646954 0.429667
v -1.781940 -0.230995 -0.230288
v -1.781940 0.232180 -0.230288
v -1.781939 -0.230995 0.232887
v -1.781939 0.232180 0.232887
v -1.822826 -0.274248 -0.276657
v -1.822826 0.279066 -0.276657
v -1.822825 -0.274249 0.276657
v -1.822825 0.279065 0.276657
v -1.517867 0.736111 0.733703
v -1.517867 -0.731295 0.733703
v -1.517868 -0.731294 -0.733703
v -1.517868 0.736112 -0.733703
v -1.456725 -0.731295 0.733703
v -1.456726 -0.731294 -0.733703
v -1.456726 0.736112 -0.733703
v -1.456725 0.736111 0.733703
v -1.956972 -0.690934 -0.015625
v -1.831972 -0.190934 -0.015625
v -1.456972 -0.690934 -0.015625
v -1.456972 -0.190934 -0.015625
v -1.956972 -0.690934 0.015625
v -1.831972 -0.190934 0.015625
v -1.456972 -0.690934 0.015625
v -1.456972 -0.190934 0.015625
v -1.956972 0.015625 -0.690935
v -1.831972 0.015625 -0.190935
v -1.456972 0.015625 -0.690935
v -1.456972 0.015625 -0.190935
v -1.956972 -0.015625 -0.690935
v -1.831972 -0.015625 -0.190935
v -1.456972 -0.015625 -0.690935
v -1.456972 -0.015625 -0.190935
v -1.956972 0.690935 0.015624
v -1.831972 0.190934 0.015624
v -1.456972 0.690935 0.015624
v -1.456972 0.190934 0.015624
v -1.956972 0.690935 -0.015626
v -1.831972 0.190934 -0.015626
v -1.456972 0.690935 -0.015626
v -1.456972 0.190934 -0.015626
v -1.956971 -0.015625 0.690934
v -1.831971 -0.015625 0.190934
v -1.456971 -0.015625 0.690934
v -1.456971 -0.015625 0.190934
v -1.956971 0.015625 0.690934
v -1.831971 0.015625 0.190934
v -1.456971 0.015625 0.690934
v -1.456971 0.015625 0.190934
v -1.433385 -0.685091 -0.687500
v -1.433385 0.689909 -0.687500
v -1.433384 -0.685092 0.687500
v -1.433384 0.689908 0.687500
v -1.995885 -0.685091 -0.687500
v -1.995885 0.689909 -0.687500
v -1.995884 -0.685092 0.687500
v -1.995884 0.689908 0.687500
v -1.995884 0.752408 0.750000
v -1.995884 -0.747592 0.750000
v -1.995885 -0.747591 -0.750000
v -1.995885 0.752409 -0.750000
v -1.433384 -0.747592 0.750000
v -1.433385 -0.747591 -0.750000
v -1.433385 0.752409 -0.750000
v -1.433384 0.752408 0.750000
v -1.955544 -0.716549 -0.740684
v -1.832033 -0.120185 -0.144320
v -1.461500 -0.716549 -0.740684
v -1.461499 -0.120185 -0.144320
v -1.955544 -0.738383 -0.718850
v -1.832033 -0.142019 -0.122486
v -1.461500 -0.738383 -0.718850
v -1.461499 -0.142019 -0.122486
v -1.955544 0.740683 -0.716550
v -1.832033 0.144319 -0.120186
v -1.461500 0.740684 -0.716550
v -1.461499 0.144319 -0.120186
v -1.955544 0.718850 -0.738384
v -1.832033 0.122486 -0.142020
v -1.461500 0.718850 -0.738384
v -1.461499 0.122486 -0.142020
v -1.955543 0.716549 0.740683
v -1.832031 0.120185 0.144319
v -1.461499 0.716549 0.740683
v -1.461499 0.120185 0.144319
v -1.955543 0.738382 0.718849
v -1.832031 0.142019 0.122485
v -1.461499 0.738382 0.718849
v -1.461499 0.142019 0.122485
v -1.955542 -0.740684 0.716548
v -1.832031 -0.144319 0.120185
v -1.461499 -0.740684 0.716548
v -1.461499 -0.144319 0.120185
v -1.955542 -0.718850 0.738382
v -1.832031 -0.122486 0.142019
v -1.461499 -0.718850 0.738382
v -1.461499 -0.122486 0.142019
vn -1.0000 -0.0000 -0.0000
vn 0.9239 0.3535 -0.1464
vn -0.0000 0.3827 0.9239
vn -0.9239 -0.3536 0.1464
vn -0.0000 -0.3827 -0.9239
vn 0.3827 -0.8536 0.3536
vn -0.3827 0.8536 -0.3536
vn -0.0709 0.9216 -0.3817
vn -0.3827 0.8536 -0.3535
vn 0.9239 0.3536 0.1464
vn 0.9239 0.3536 0.1465
vn -0.0000 -0.3827 0.9239
vn -0.9239 -0.3536 -0.1464
vn -0.0000 0.3827 -0.9239
vn 0.3827 -0.8536 -0.3535
vn 0.3827 -0.8536 -0.3536
vn -0.3827 0.8536 0.3536
vn -0.0709 0.9216 0.3817
vn -0.3827 0.8536 0.3535
vn -0.3827 0.8535 0.3536
vn 0.9239 0.1464 0.3536
vn -0.0000 -0.9239 0.3827
vn -0.9239 -0.1464 -0.3536
vn -0.0000 0.9239 -0.3827
vn 0.3827 -0.3536 -0.8536
vn -0.9239 -0.1464 -0.3535
vn -0.3827 0.3536 0.8536
vn -0.3827 0.3535 0.8536
vn 0.9239 0.1465 0.3536
vn 0.3827 -0.3535 -0.8536
vn -0.0709 0.3817 0.9216
vn 0.9239 -0.1465 0.3536
vn -0.0000 -0.9239 -0.3827
vn -0.9239 0.1464 -0.3536
vn -0.0000 0.9239 0.3827
vn 0.3827 0.3535 -0.8536
vn 0.3827 0.3536 -0.8536
vn -0.9239 0.1464 -0.3535
vn -0.3827 -0.3536 0.8536
vn -0.3827 -0.3535 0.8536
vn 0.9239 -0.1464 0.3536
vn -0.0709 -0.3817 0.9216
vn -0.3827 -0.3536 0.8535
vn 0.9239 -0.3536 0.1464
vn 0.9239 -0.3536 0.1465
vn -0.9239 0.3536 -0.1464
vn -0.9239 0.3536 -0.1465
vn 0.3827 0.8536 -0.3536
vn -0.9239 0.3535 -0.1464
vn -0.3827 -0.8536 0.3536
vn 0.3827 0.8536 -0.3535
vn -0.0709 -0.9216 0.3817
vn -0.3827 -0.8536 0.3535
vn 0.9239 -0.3536 -0.1464
vn -0.9239 0.3536 0.1464
vn -0.9239 0.3535 0.1464
vn 0.3827 0.8536 0.3536
vn 0.3827 0.8536 0.3535
vn -0.3827 -0.8536 -0.3536
vn 0.9239 -0.3536 -0.1465
vn -0.0709 -0.9216 -0.3817
vn -0.3827 -0.8536 -0.3535
vn 0.9239 -0.1464 -0.3535
vn -0.9239 0.1464 0.3536
vn -0.9239 0.1464 0.3535
vn 0.3827 0.3536 0.8536
vn -0.9239 0.1465 0.3536
vn -0.3827 -0.3536 -0.8536
vn 0.3827 0.3535 0.8536
vn 0.3827 0.3536 0.8535
vn 0.9239 -0.1465 -0.3536
vn -0.0709 -0.3817 -0.9216
vn 0.9239 0.1464 -0.3535
vn -0.9239 -0.1464 0.3536
vn -0.9239 -0.1464 0.3535
vn 0.3827 -0.3536 0.8536
vn 0.3827 -0.3535 0.8536
vn -0.3827 0.3536 -0.8536
vn -0.3827 0.3535 -0.8536
vn -0.0709 0.3817 -0.9216
vn -0.3827 0.3536 -0.8535
vn 1.0000 -0.0000 -0.0000
vn -0.0000 0.7071 -0.7071
vn -0.0000 0.7071 0.7071
vn -0.0000 -0.7071 -0.7071
vn -0.0000 -0.7071 0.7071
vn -0.0000 -0.0000 1.0000
vn -0.0000 -0.0000 -1.0000
vn -0.0000 1.0000 -0.0000
vn 0.4472 0.8944 -0.0000
vn -0.4472 0.8944 -0.0000
vn -0.0000 0.5878 0.8090
vn -0.0000 -0.5878 -0.8090
vn -0.0000 0.8090 -0.5878
vn 0.4472 0.7236 -0.5257
vn -0.4472 0.7236 -0.5257
vn -0.0000 0.9511 0.3090
vn -0.0000 -0.9511 -0.3090
vn -0.0000 0.3090 -0.9511
vn 0.4472 0.2764 -0.8507
vn -0.4472 0.2764 -0.8507
vn -0.0000 0.9511 -0.3090
vn -0.0000 -0.9511 0.3090
vn -0.0000 -0.3090 -0.9511
vn 0.4472 -0.2764 -0.8507
vn 0.4472 -0.2764 -0.8506
vn -0.4472 -0.2764 -0.8507
vn -0.4472 -0.2764 -0.8506
vn -0.0000 0.5878 -0.8090
vn -0.0000 -0.5878 0.8090
vn -0.0000 -0.8090 -0.5878
vn 0.4472 -0.7236 -0.5257
vn -0.4472 -0.7236 -0.5257
vn -0.0000 -1.0000 -0.0000
vn 0.4472 -0.8944 -0.0000
vn -0.4472 -0.8944 -0.0000
vn -0.0000 -0.8090 0.5878
vn 0.4472 -0.7236 0.5257
vn -0.4472 -0.7236 0.5257
vn -0.0000 -0.3090 0.9511
vn 0.4472 -0.2764 0.8507
vn -0.4472 -0.2764 0.8507
vn -0.0000 0.3090 0.9511
vn 0.4472 0.2764 0.8507
vn -0.4472 0.2764 0.8507
vn -0.0000 0.8090 0.5878
vn 0.4472 0.7236 0.5257
vn -0.4472 0.7236 0.5257
vn -0.7501 -0.0000 0.6614
vn -0.8318 -0.0000 0.5550
vn -0.8318 -0.5550 -0.0000
vn -0.8318 0.5550 -0.0000
vn -0.8318 -0.0000 -0.5550
vn 0.8384 0.5450 -0.0000
vn 0.8400 -0.0000 0.5426
vn 0.8402 -0.5422 -0.0000
vn 0.8387 -0.0000 -0.5446
vn -0.7308 -0.0000 -0.6826
vn -0.7537 -0.6572 -0.0000
vn -0.7267 0.6869 -0.0000
vn -0.9701 0.2425 -0.0000
vn -0.9701 -0.0000 0.2425
vn -0.9701 -0.2425 -0.0000
vn -0.9701 -0.0000 -0.2425
vn -0.9894 0.1025 0.1025
vn -0.9894 -0.1025 0.1025
vn -0.9894 -0.1025 -0.1025
vn -0.9894 0.1025 -0.1025
vn 0.9239 0.3536 -0.1464
vn 0.3827 -0.8536 0.3535
vn -0.9239 0.3536 0.1465
vn -0.3827 -0.8535 -0.3536
vn -0.1396 -0.0000 0.9902
vn 0.1121 -0.3071 0.9451
vn 0.1121 -0.0000 0.9937
vn -0.1396 -0.3060 0.9417
vn 0.1121 -0.5841 0.8039
vn -0.1396 -0.5820 0.8011
vn 0.1121 -0.8039 0.5841
vn -0.1396 -0.8011 0.5820
vn 0.1121 -0.9451 0.3071
vn -0.1396 -0.9417 0.3060
vn 0.1121 -0.9937 -0.0000
vn -0.1396 -0.9902 -0.0000
vn 0.1121 -0.9451 -0.3071
vn -0.1396 -0.8011 -0.5820
vn 0.1121 -0.8039 -0.5841
vn -0.1396 -0.5820 -0.8011
vn 0.1121 -0.5841 -0.8039
vn -0.1396 -0.3060 -0.9417
vn 0.1121 -0.3071 -0.9451
vn 0.1121 -0.0000 -0.9937
vn -0.1396 0.3060 -0.9417
vn 0.1121 0.3071 -0.9451
vn -0.1396 0.5820 -0.8011
vn 0.1121 0.5841 -0.8039
vn -0.1396 0.8011 -0.5820
vn 0.1121 0.8039 -0.5841
vn -0.1396 0.9417 -0.3060
vn 0.1121 0.9451 -0.3071
vn -0.1396 0.9902 -0.0000
vn 0.1121 0.9937 -0.0000
vn 0.1121 0.9451 0.3071
vn -0.1396 0.9417 0.3060
vn 0.1121 0.8039 0.5841
vn -0.1396 0.8011 0.5820
vn 0.1121 0.5841 0.8039
vn -0.1396 0.5820 0.8011
vn 0.1121 0.3071 0.9451
vn -0.1396 0.3060 0.9417
vn 0.3319 -0.9433 -0.0000
vn 0.5088 -0.8188 -0.2660
vn 0.5088 -0.8609 -0.0000
vn 0.3319 0.9433 -0.0000
vn 0.3319 0.8971 -0.2915
vn 0.3319 0.2915 0.8971
vn 0.3319 -0.5545 0.7632
vn 0.3319 -0.5545 -0.7632
vn 0.3319 -0.7632 -0.5545
vn 0.3319 -0.0000 0.9433
vn 0.3319 0.7632 -0.5545
vn 0.3319 0.5545 -0.7632
vn 0.3319 0.7632 0.5545
vn 0.3319 0.2915 -0.8971
vn 0.3319 -0.0000 -0.9433
vn 0.3319 0.8971 0.2915
vn 0.3319 -0.7632 0.5545
vn 0.3319 -0.2915 -0.8971
vn 0.3319 0.5545 0.7632
vn 0.3319 -0.2915 0.8971
vn 0.3319 -0.8971 -0.2915
vn 0.3319 -0.8971 0.2915
vn 0.5088 -0.5060 -0.6965
vn 0.6424 -0.2368 -0.7289
vn 0.6424 -0.4505 -0.6200
vn 0.5088 0.6965 -0.5060
vn 0.5088 0.8188 -0.2660
vn 0.5088 -0.6965 -0.5060
vn 0.5088 -0.2660 0.8188
vn 0.5088 -0.0000 0.8609
vn 0.5088 0.8609 -0.0000
vn 0.5088 -0.5060 0.6965
vn 0.5088 0.6965 0.5060
vn 0.5088 0.8188 0.2660
vn 0.5088 -0.6965 0.5060
vn 0.5088 0.5060 0.6965
vn 0.5088 -0.0000 -0.8609
vn 0.5088 -0.8188 0.2660
vn 0.5088 0.2660 0.8188
vn 0.5088 0.2660 -0.8188
vn 0.5088 0.5060 -0.6965
vn 0.6424 -0.7289 0.2368
vn 0.8368 -0.4430 0.3218
vn 0.6424 -0.6200 0.4505
vn 0.6424 -0.2368 0.7289
vn 0.6424 0.7289 0.2368
vn 0.6424 -0.4505 0.6200
vn 0.6424 0.6200 0.4505
vn 0.6424 0.2368 -0.7289
vn 0.6424 -0.0000 -0.7664
vn 0.6424 0.4505 0.6200
vn 0.6424 0.4505 -0.6200
vn 0.6424 0.2368 0.7289
vn 0.6424 0.6200 -0.4505
vn 0.6424 -0.7664 -0.0000
vn 0.6424 0.7289 -0.2368
vn 0.6424 -0.6200 -0.4505
vn 0.6424 -0.7289 -0.2368
vn 0.6424 0.7664 -0.0000
vn 0.6424 -0.0000 0.7664
vn 0.8368 0.5207 -0.1692
vn 0.9828 0.1496 -0.1087
vn 0.8368 0.4430 -0.3218
vn 0.8368 0.1692 0.5207
vn 0.8368 0.3218 0.4430
vn 0.8368 0.3218 -0.4430
vn 0.8368 0.1692 -0.5207
vn 0.8368 -0.5207 0.1692
vn 0.8368 -0.0000 0.5475
vn 0.8368 -0.5475 -0.0000
vn 0.5088 -0.2660 -0.8188
vn 0.8368 -0.5207 -0.1692
vn 0.8368 0.5475 -0.0000
vn 0.8368 -0.4430 -0.3218
vn 0.8368 -0.1692 0.5207
vn 0.8368 0.5207 0.1692
vn 0.8368 -0.3218 -0.4430
vn 0.8368 0.4430 0.3218
vn 0.8368 -0.3218 0.4430
vn 0.8368 -0.0000 -0.5475
vn 0.9828 -0.0000 0.1849
vn 0.9828 -0.1758 0.0571
vn 0.9828 -0.1087 -0.1496
vn 0.9828 -0.1496 -0.1087
vn 0.9828 -0.1758 -0.0571
vn 0.9828 0.1758 -0.0571
vn 0.9828 0.1849 -0.0000
vn 0.9828 -0.0571 -0.1758
vn 0.9828 -0.0571 0.1758
vn 0.9828 0.1758 0.0571
vn 0.8368 -0.1692 -0.5207
vn 0.9828 -0.1087 0.1496
vn 0.9828 0.1496 0.1087
vn 0.9828 0.0571 -0.1758
vn 0.9828 -0.0000 -0.1849
vn 0.9828 -0.1496 0.1087
vn 0.9828 0.1087 0.1496
vn 0.9828 0.1087 -0.1496
vn 0.9828 -0.1849 -0.0000
vn 0.9828 0.0571 0.1758
vn -0.3370 -0.8954 -0.2909
vn -0.8106 -0.4737 -0.3442
vn -0.3370 -0.7617 -0.5534
vn -0.3370 -0.5534 0.7617
vn -0.3370 -0.7617 0.5534
vn -0.3370 0.5534 0.7617
vn -0.1396 -0.0000 -0.9902
vn -0.3370 0.2909 -0.8954
vn -0.3370 -0.8954 0.2909
vn -0.3370 0.2909 0.8954
vn -0.3370 0.5534 -0.7617
vn -0.3370 -0.9415 -0.0000
vn -0.3370 -0.0000 0.9415
vn -0.3370 0.7617 -0.5534
vn -0.1396 -0.9417 -0.3060
vn -0.3370 0.8954 -0.2909
vn -0.3370 0.9415 -0.0000
vn -0.3370 -0.5534 -0.7617
vn -0.3370 -0.2909 0.8954
vn -0.3370 0.8954 0.2909
vn -0.3370 -0.2909 -0.8954
vn -0.3370 0.7617 0.5534
vn -0.8106 0.5569 -0.1809
vn -0.8107 0.5855 -0.0000
vn -0.8106 -0.3442 -0.4737
vn -0.8106 -0.1809 0.5569
vn -0.8106 0.5569 0.1809
vn -0.8106 -0.1809 -0.5569
vn -0.8106 -0.3442 0.4737
vn -0.8106 0.4737 0.3442
vn -0.8106 -0.4737 0.3442
vn -0.8106 0.3442 0.4737
vn -0.8106 -0.0000 -0.5855
vn -0.8106 0.1809 -0.5569
vn -0.8106 -0.5569 0.1809
vn -0.8106 0.1809 0.5569
vn -0.8106 0.3442 -0.4737
vn -0.8107 -0.5855 -0.0000
vn -0.8106 -0.0000 0.5856
vn -0.8106 0.4737 -0.3442
vn -0.8106 -0.5569 -0.1809
vn -0.3370 -0.0000 -0.9415
vn 0.6302 0.5490 0.5490
vn 0.6302 0.7764 -0.0000
vn 0.6303 -0.0000 0.7764
vn 0.6302 -0.5490 0.5490
vn 0.6303 -0.7764 -0.0000
vn 0.6303 -0.5490 -0.5490
vn 0.6302 -0.0000 -0.7764
vn 0.6302 0.5490 -0.5490
vn 0.6302 -0.7764 -0.0000
vn 0.6302 -0.5490 -0.5490
vn 0.6303 -0.0000 -0.7764
vn 0.6303 0.5490 -0.5490
vn 0.6303 0.5490 0.5490
vn 0.6302 -0.0000 0.7764
vn 0.6303 -0.5490 0.5490
vt 0.976196 0.917688
vt 0.975816 0.964891
vt 0.937496 0.955715
vt 0.058140 0.268908
vt 0.069767 0.277311
vt 0.058140 0.277311
vt 0.116279 0.310924
vt 0.104651 0.319328
vt 0.104651 0.310924
vt 0.081395 0.319328
vt 0.069767 0.310924
vt 0.081395 0.310924
vt 0.058140 0.319328
vt 0.023256 0.310924
vt 0.058140 0.310924
vt 0.046512 0.302521
vt 0.034884 0.310924
vt 0.034884 0.302521
vt 0.093023 0.327731
vt 0.093023 0.319328
vt 0.023256 0.319328
vt 0.058140 0.327731
vt 0.081395 0.277311
vt 0.093023 0.252101
vt 0.093023 0.277311
vt 0.058140 0.302521
vt 0.069767 0.302521
vt 0.093023 0.310924
vt 0.034884 0.277311
vt 0.046512 0.268908
vt 0.046512 0.277311
vt 0.081395 0.285714
vt 0.069767 0.327731
vt 0.069767 0.319328
vt 0.151163 0.310924
vt 0.116279 0.319328
vt 0.104651 0.302521
vt 0.093023 0.302521
vt 0.081395 0.302521
vt 0.081395 0.327731
vt 0.081395 0.252101
vt 0.104651 0.327731
vt 0.151163 0.319328
vt 0.116279 0.327731
vt 0.104651 0.277311
vt 0.046512 0.310924
vt 0.069767 0.268908
vt 0.034884 0.268908
vt 0.093023 0.285714
vt 0.151163 0.521008
vt 0.162791 0.504202
vt 0.162791 0.521008
vt 0.209302 0.521008
vt 0.209302 0.504202
vt 0.220930 0.521008
vt 0.209302 0.529412
vt 0.162791 0.529412
vt 0.209302 0.495798
vt 0.220930 0.512605
vt 0.255814 0.529412
vt 0.220930 0.529412
vt 0.255814 0.512605
vt 0.022779 0.504231
vt 0.019494 0.509962
vt 0.003632 0.498499
vt 0.019494 0.498499
vt 0.003632 0.509963
vt 0.019494 0.509963
vt 0.003632 0.509962
vt 0.116279 0.521008
vt 0.127907 0.529412
vt 0.116279 0.529412
vt 0.127907 0.504202
vt 0.116279 0.512605
vt 0.116279 0.504202
vt 0.127907 0.512605
vt 0.127907 0.521008
vt 0.104651 0.512605
vt 0.093023 0.521008
vt 0.093023 0.512605
vt 0.104651 0.521008
vt 0.139535 0.512605
vt 0.151163 0.512605
vt 0.139535 0.521008
vt 0.883721 0.277311
vt 0.872093 0.201681
vt 0.883721 0.201681
vt 0.348837 0.075630
vt 0.534884 0.000000
vt 0.453488 0.075630
vt 0.883721 0.394958
vt 0.988372 0.529412
vt 0.883721 0.470588
vt 0.186047 0.084034
vt -0.000000 0.159664
vt 0.081395 0.084034
vt 0.988372 0.336134
vt 0.872093 0.394958
vt 0.767442 0.529412
vt 0.767442 0.336134
vt 0.767442 0.142857
vt 0.081395 0.075630
vt 0.267442 0.000000
vt 0.186047 0.075630
vt 0.453488 0.084034
vt 0.267442 0.159664
vt 0.348837 0.084034
vt 0.732558 0.529412
vt 0.662791 0.462185
vt 0.755814 0.462185
vt 0.662791 0.529412
vt 0.651163 0.462185
vt 0.581395 0.529412
vt 0.558140 0.462185
vt 0.767442 0.462185
vt 0.267442 0.252101
vt 0.011628 0.327731
vt 0.011628 0.252101
vt 0.279070 0.168067
vt -0.000000 0.243697
vt 0.000000 0.168067
vt 0.546512 0.420168
vt 0.290698 0.495798
vt 0.290698 0.420168
vt 0.000000 0.411765
vt 0.279070 0.336134
vt 0.279070 0.411765
vt 0.558140 0.411765
vt 0.558140 0.336134
vt 0.558140 0.243697
vt 0.279070 0.243697
vt 0.290698 0.252101
vt 0.546512 0.252101
vt 0.011628 0.420168
vt 0.267442 0.420168
vt 0.558140 0.327731
vt 0.279070 0.327731
vt -0.000000 0.336134
vt -0.000000 0.327731
vt 0.558140 0.159664
vt 0.279070 0.159664
vt 0.290698 0.327731
vt 0.011628 0.495798
vt 0.732558 0.462185
vt 0.662791 0.344538
vt 0.755814 0.344538
vt 0.651163 0.344538
vt 0.581395 0.462185
vt 0.558140 0.344538
vt 0.767442 0.344538
vt 0.932675 0.948776
vt 0.937731 0.926542
vt 0.931056 0.941101
vt 0.932798 0.933439
vt 0.945372 0.921083
vt 0.954973 0.917599
vt 0.965594 0.916429
vt 0.985740 0.921253
vt 0.993293 0.926775
vt 0.998114 0.933714
vt 0.999733 0.941389
vt 0.997991 0.949051
vt 0.993058 0.955948
vt 0.985417 0.961407
vt 0.965195 0.966061
vt 0.954593 0.964802
vt 0.945049 0.961237
vt 0.151163 0.504202
vt 0.220930 0.504202
vt 0.162791 0.495798
vt 0.011563 0.512337
vt 0.000346 0.504231
vt 0.011563 0.496125
vt 0.104651 0.504202
vt 0.104651 0.529412
vt 0.139535 0.529412
vt 0.139535 0.504202
vt 0.872093 0.277311
vt 0.988372 0.142857
vt 0.872093 0.470588
vt -0.000000 -0.000000
vt 0.534884 0.159664
vt 0.651163 0.529412
vt 0.755814 0.529412
vt 0.267442 0.327731
vt 0.546512 0.495798
vt 0.558140 0.168067
vt 0.546512 0.327731
vt 0.267442 0.495798
vt 0.697674 0.764706
vt 0.744186 0.815126
vt 0.697674 0.815126
vt 0.744186 0.764706
vt 0.790698 0.815126
vt 0.790698 0.764706
vt 0.837209 0.815126
vt 0.837209 0.764706
vt 0.883721 0.815126
vt 0.883721 0.764706
vt 0.930233 0.815126
vt -0.000000 0.764706
vt 0.046512 0.815126
vt -0.000000 0.815126
vt 0.093023 0.764706
vt 0.093023 0.815126
vt 0.139535 0.764706
vt 0.139535 0.815126
vt 0.186047 0.764706
vt 0.186047 0.815126
vt 0.232558 0.815126
vt 0.279070 0.764706
vt 0.279070 0.815126
vt 0.325581 0.764706
vt 0.325581 0.815126
vt 0.372093 0.764706
vt 0.372093 0.815126
vt 0.418605 0.764706
vt 0.418605 0.815126
vt 0.465116 0.764706
vt 0.465116 0.815126
vt 0.511628 0.815126
vt 0.511628 0.764706
vt 0.558140 0.815126
vt 0.558140 0.764706
vt 0.604651 0.815126
vt 0.604651 0.764706
vt 0.651163 0.815126
vt 0.651163 0.764706
vt 0.000000 0.865546
vt 0.040698 0.907563
vt 0.005814 0.907563
vt 0.465116 0.865546
vt 0.418605 0.865546
vt 0.651163 0.865546
vt 0.790698 0.865546
vt 0.139535 0.865546
vt 0.093023 0.865546
vt 0.697674 0.865546
vt 0.372093 0.865546
vt 0.325581 0.865546
vt 0.558140 0.865546
vt 0.279070 0.865546
vt 0.232558 0.865546
vt 0.511628 0.865546
vt 0.837209 0.865546
vt 0.186047 0.865546
vt 0.604651 0.865546
vt 0.744186 0.865546
vt 0.046512 0.865546
vt 0.883721 0.865546
vt 0.145349 0.907563
vt 0.174419 0.949580
vt 0.151163 0.949580
vt 0.377907 0.907563
vt 0.052326 0.907563
vt 0.424419 0.907563
vt 0.098837 0.907563
vt 0.738372 0.907563
vt 0.703488 0.907563
vt 0.470930 0.907563
vt 0.784884 0.907563
vt 0.750000 0.907563
vt 0.552326 0.907563
vt 0.517442 0.907563
vt 0.831395 0.907563
vt 0.796512 0.907563
vt 0.598837 0.907563
vt 0.563954 0.907563
vt 0.238372 0.907563
vt 0.877907 0.907563
vt 0.843023 0.907563
vt 0.645349 0.907563
vt 0.610465 0.907563
vt 0.284884 0.907563
vt 0.924419 0.907563
vt 0.889535 0.907563
vt 0.691860 0.907563
vt 0.656977 0.907563
vt 0.331395 0.907563
vt 0.872093 0.949580
vt 0.848837 0.974790
vt 0.848837 0.949580
vt 0.755814 0.949580
vt 0.523256 0.949580
vt 0.802326 0.949580
vt 0.569767 0.949580
vt 0.267442 0.949580
vt 0.244186 0.949580
vt 0.616279 0.949580
vt 0.313953 0.949580
vt 0.290698 0.949580
vt 0.895349 0.949580
vt 0.662791 0.949580
vt 0.360465 0.949580
vt 0.337209 0.949580
vt 0.011628 0.949580
vt 0.406977 0.949580
vt 0.383721 0.949580
vt 0.081395 0.949580
vt 0.058140 0.949580
vt 0.453488 0.949580
vt 0.430233 0.949580
vt 0.127907 0.949580
vt 0.104651 0.949580
vt 0.709302 0.949580
vt 0.500000 0.949580
vt 0.476744 0.949580
vt 0.406977 0.974790
vt 0.389535 1.000000
vt 0.383721 0.974790
vt 0.639535 0.974790
vt 0.616279 0.974790
vt 0.313953 0.974790
vt 0.290698 0.974790
vt 0.918605 0.949580
vt 0.895349 0.974790
vt 0.686047 0.974790
vt 0.662791 0.974790
vt 0.360465 0.974790
vt 0.337209 0.974790
vt 0.034884 0.949580
vt 0.011628 0.974790
vt 0.191860 0.907563
vt 0.226744 0.907563
vt 0.058140 0.974790
vt 0.453488 0.974790
vt 0.430233 0.974790
vt 0.104651 0.974790
vt 0.732558 0.974790
vt 0.709302 0.974790
vt 0.500000 0.974790
vt 0.476744 0.974790
vt 0.151163 0.974790
vt 0.779070 0.949580
vt 0.755814 0.974790
vt 0.546512 0.974790
vt 0.523256 0.974790
vt 0.220930 0.949580
vt 0.197674 0.949580
vt 0.825581 0.949580
vt 0.802326 0.974790
vt 0.593023 0.974790
vt 0.569767 0.974790
vt 0.244186 0.974790
vt 0.976593 0.983280
vt 0.960655 0.999134
vt 0.934866 0.993078
vt 0.075581 1.000000
vt 0.063953 1.000000
vt 0.436047 1.000000
vt 0.122093 1.000000
vt 0.110465 1.000000
vt 0.715116 1.000000
vt 0.482558 1.000000
vt 0.168605 1.000000
vt 0.156977 1.000000
vt 0.779070 0.974790
vt 0.761628 1.000000
vt 0.529070 1.000000
vt 0.197674 0.974790
vt 0.825581 0.974790
vt 0.808140 1.000000
vt 0.575581 1.000000
vt 0.261628 1.000000
vt 0.250000 1.000000
vt 0.866279 1.000000
vt 0.854651 1.000000
vt 0.622093 1.000000
vt 0.308140 1.000000
vt 0.296512 1.000000
vt 0.912791 1.000000
vt 0.901163 1.000000
vt 0.668605 1.000000
vt 0.354651 1.000000
vt 0.343023 1.000000
vt 0.029070 1.000000
vt 0.017442 1.000000
vt 0.215116 1.000000
vt 0.220930 0.974790
vt 0.052326 0.638655
vt 0.075581 0.529412
vt 0.087209 0.638655
vt 0.796512 0.638655
vt 0.831395 0.638655
vt 0.598837 0.638655
vt 0.232558 0.764706
vt 0.273256 0.638655
vt 0.843023 0.638655
vt 0.877907 0.638655
vt 0.645349 0.638655
vt 0.319767 0.638655
vt 0.930233 0.764706
vt 0.889535 0.638655
vt 0.924419 0.638655
vt 0.656977 0.638655
vt 0.691860 0.638655
vt 0.366279 0.638655
vt 0.046512 0.764706
vt 0.005814 0.638655
vt 0.040698 0.638655
vt 0.412791 0.638655
vt 0.459302 0.638655
vt 0.133721 0.638655
vt 0.703488 0.638655
vt 0.738372 0.638655
vt 0.505814 0.638655
vt 0.145349 0.638655
vt 0.180233 0.638655
vt 0.750000 0.638655
vt 0.784884 0.638655
vt 0.563953 0.638655
vt 0.436047 0.529412
vt 0.447674 0.529412
vt 0.098837 0.638655
vt 0.122093 0.529412
vt 0.726744 0.529412
vt 0.470930 0.638655
vt 0.494186 0.529412
vt 0.168605 0.529412
vt 0.773256 0.529412
vt 0.517442 0.638655
vt 0.540698 0.529412
vt 0.552326 0.638655
vt 0.819767 0.529412
vt 0.587209 0.529412
vt 0.250000 0.529412
vt 0.261628 0.529412
vt 0.866279 0.529412
vt 0.610465 0.638655
vt 0.633721 0.529412
vt 0.296512 0.529412
vt 0.308140 0.529412
vt 0.912791 0.529412
vt 0.680233 0.529412
vt 0.331395 0.638655
vt 0.354651 0.529412
vt 0.017442 0.529412
vt 0.029070 0.529412
vt 0.389535 0.529412
vt 0.401163 0.529412
vt 0.226744 0.638655
vt 0.191860 0.638655
vt 0.203488 0.529412
vt 0.215116 0.529412
vt 0.046512 0.529412
vt 0.034884 0.512605
vt 0.046512 0.512605
vt 0.034884 0.529412
vt 0.023256 0.512605
vt 0.023256 0.529412
vt 0.011628 0.512605
vt 0.011628 0.529412
vt 0.000000 0.512605
vt 0.081395 0.529412
vt 0.081395 0.512605
vt 0.069767 0.512605
vt 0.069767 0.529412
vt 0.058140 0.512605
vt 0.058140 0.529412
vt 0.093023 0.529412
vt 0.000000 0.529412
vt 0.930233 0.865546
vt 0.180233 0.907563
vt 0.412791 0.907563
vt 0.087209 0.907563
vt 0.459302 0.907563
vt 0.133721 0.907563
vt 0.505814 0.907563
vt 0.273256 0.907563
vt 0.319767 0.907563
vt 0.366279 0.907563
vt 0.872093 0.974790
vt 0.546512 0.949580
vt 0.593023 0.949580
vt 0.639535 0.949580
vt 0.686047 0.949580
vt 0.732558 0.949580
vt 0.401163 1.000000
vt 0.918605 0.974790
vt 0.034884 0.974790
vt 0.081395 0.974790
vt 0.127907 0.974790
vt 0.174419 0.974790
vt 0.267442 0.974790
vt 0.931590 0.988431
vt 0.930461 0.983280
vt 0.931590 0.978129
vt 0.934866 0.973482
vt 0.939969 0.969794
vt 0.946399 0.967426
vt 0.953527 0.966610
vt 0.960655 0.967426
vt 0.967085 0.969794
vt 0.972188 0.973482
vt 0.975464 0.978129
vt 0.975464 0.988431
vt 0.972188 0.993078
vt 0.967085 0.996766
vt 0.953527 0.999950
vt 0.946399 0.999134
vt 0.939969 0.996766
vt 0.447674 1.000000
vt 0.726744 1.000000
vt 0.494186 1.000000
vt 0.773256 1.000000
vt 0.540698 1.000000
vt 0.819767 1.000000
vt 0.587209 1.000000
vt 0.633721 1.000000
vt 0.680233 1.000000
vt 0.203488 1.000000
vt 0.063953 0.529412
vt 0.238372 0.638655
vt 0.284884 0.638655
vt 0.377907 0.638655
vt 0.424419 0.638655
vt 0.110465 0.529412
vt 0.715116 0.529412
vt 0.482558 0.529412
vt 0.156977 0.529412
vt 0.761628 0.529412
vt 0.529070 0.529412
vt 0.808140 0.529412
vt 0.575581 0.529412
vt 0.854651 0.529412
vt 0.622093 0.529412
vt 0.901163 0.529412
vt 0.668605 0.529412
vt 0.343023 0.529412
s 1
usemtl fatman
f 175/1/1 167/2/1 163/3/1
f 190/4/2 182/5/2 188/6/2
f 195/7/3 187/8/3 186/9/3
f 194/10/4 184/11/4 191/12/4
f 198/13/5 181/14/5 197/15/5
f 202/16/6 184/17/6 197/18/6
f 187/8/4 210/19/4 193/20/4
f 208/21/5 198/13/5 207/22/5
f 199/23/7 209/24/7 200/25/7
f 186/11/6 201/26/6 195/27/6
f 192/15/6 202/16/6 201/26/6
f 187/8/4 192/28/4 186/9/4
f 193/20/4 191/12/4 192/28/4
f 181/29/2 209/30/2 189/31/2
f 189/31/2 190/4/2 188/6/2
f 201/26/6 189/31/6 188/6/6
f 195/27/6 188/6/6 182/5/6
f 200/25/2 211/32/2 199/23/2
f 198/13/5 206/33/5 207/22/5
f 202/16/6 181/29/6 189/31/6
f 185/34/5 197/15/5 184/11/5
f 182/35/3 196/36/3 195/7/3
f 209/25/8 207/37/8 212/38/8
f 183/5/8 211/39/8 203/27/8
f 211/39/9 205/28/7 210/12/9
f 203/27/9 210/12/9 204/11/7
f 212/38/7 206/9/7 205/28/7
f 185/34/4 205/40/4 206/33/4
f 190/41/5 199/23/5 211/5/5
f 196/36/3 204/42/3 187/8/3
f 196/36/3 183/43/3 203/44/3
f 194/10/4 210/19/4 205/40/4
f 200/25/3 209/24/3 212/45/3
f 222/4/10 214/5/11 220/6/10
f 227/7/12 219/8/12 218/9/12
f 226/10/13 216/11/13 223/12/13
f 230/13/14 213/14/14 229/15/14
f 234/16/15 216/17/16 229/18/16
f 219/8/13 242/19/13 225/20/13
f 240/21/14 230/13/14 239/22/14
f 222/41/17 232/25/17 231/23/17
f 218/11/16 233/26/16 227/27/16
f 233/26/16 223/46/15 234/16/15
f 218/9/13 225/20/13 224/28/13
f 225/20/13 223/12/13 224/28/13
f 213/29/10 241/30/10 221/31/10
f 241/30/10 220/6/10 221/31/10
f 233/26/16 221/31/15 220/6/16
f 227/27/16 220/6/16 214/5/16
f 232/25/10 243/32/10 231/23/11
f 217/34/14 239/22/14 230/13/14
f 234/16/15 213/29/15 221/31/15
f 217/34/14 229/15/14 216/11/14
f 214/35/12 228/36/12 227/7/12
f 241/25/18 239/37/18 244/38/18
f 215/5/18 243/39/18 235/27/18
f 243/39/17 237/28/17 242/12/19
f 236/11/17 243/39/17 242/12/19
f 244/38/20 238/9/19 237/28/17
f 226/10/13 238/33/13 217/34/13
f 222/41/14 231/23/14 243/5/14
f 219/8/12 235/44/12 236/42/12
f 228/36/12 215/43/12 235/44/12
f 225/20/13 237/40/13 226/10/13
f 232/25/12 241/24/12 244/45/12
f 252/6/21 247/47/21 246/5/21
f 259/7/22 251/8/22 250/9/22
f 258/10/23 248/11/23 255/12/23
f 262/13/24 245/14/24 261/15/24
f 266/16/25 248/17/25 261/18/25
f 251/8/23 274/19/26 257/20/23
f 272/21/24 262/13/24 271/22/24
f 254/41/27 264/25/28 263/23/28
f 259/27/25 256/15/25 265/26/25
f 256/15/25 266/16/25 265/26/25
f 250/9/23 257/20/23 256/28/23
f 256/28/23 258/10/23 255/12/23
f 272/48/29 253/31/21 245/29/29
f 273/30/21 252/6/21 253/31/21
f 265/26/25 253/31/25 252/6/25
f 259/27/25 252/6/25 246/5/30
f 263/23/21 276/49/21 275/32/21
f 262/13/24 270/33/24 271/22/24
f 266/16/25 245/29/25 253/31/25
f 249/34/24 261/15/24 248/11/24
f 246/35/22 260/36/22 259/7/22
f 276/38/31 272/45/31 271/37/31
f 247/5/31 275/39/31 267/27/31
f 275/39/28 269/28/27 274/12/28
f 267/27/28 274/12/28 268/11/27
f 269/28/27 271/37/27 270/9/27
f 249/34/26 269/40/26 270/33/26
f 254/41/24 263/23/24 275/5/24
f 260/36/22 268/42/22 251/8/22
f 260/36/22 247/43/22 267/44/22
f 257/20/23 269/40/26 258/10/23
f 264/25/22 273/24/22 276/45/22
f 284/6/32 279/47/32 278/5/32
f 291/7/33 283/8/33 282/9/33
f 290/10/34 280/11/34 287/12/34
f 294/13/35 277/14/35 293/15/35
f 298/16/36 280/17/37 293/18/37
f 289/20/34 300/42/38 306/19/38
f 304/21/35 294/13/35 303/22/35
f 286/41/39 296/25/40 295/23/40
f 291/27/37 288/15/37 297/26/37
f 288/15/37 298/16/36 297/26/37
f 283/8/34 288/28/34 282/9/34
f 289/20/34 287/12/34 288/28/34
f 304/48/41 285/31/41 277/29/41
f 305/30/41 284/6/32 285/31/41
f 297/26/37 285/31/36 284/6/37
f 291/27/37 284/6/37 278/5/37
f 296/25/41 307/32/41 295/23/41
f 294/13/35 302/33/35 303/22/35
f 298/16/36 277/29/36 285/31/36
f 281/34/35 293/15/35 280/11/35
f 278/35/33 292/36/33 291/7/33
f 305/25/42 303/37/42 308/38/42
f 299/27/42 286/23/42 307/39/42
f 307/39/39 301/28/43 306/12/39
f 299/27/39 306/12/39 300/11/39
f 308/38/43 302/9/40 301/28/43
f 281/34/34 301/40/38 302/33/38
f 286/41/35 295/23/35 307/5/35
f 292/36/33 300/42/33 283/8/33
f 292/36/33 279/43/33 299/44/33
f 289/20/34 301/40/38 290/10/34
f 296/25/33 305/24/33 308/45/33
f 316/6/44 311/47/45 310/5/45
f 323/7/5 315/8/5 314/9/5
f 322/10/46 312/11/47 319/12/46
f 326/13/3 309/14/3 325/15/3
f 330/16/48 312/17/48 325/18/48
f 315/8/46 338/19/49 321/20/49
f 336/21/3 326/13/3 335/22/3
f 318/41/50 328/25/50 327/23/50
f 314/11/51 329/26/48 323/27/51
f 329/26/48 319/46/48 330/16/48
f 315/8/46 320/28/46 314/9/46
f 320/28/46 322/10/46 319/12/46
f 336/48/45 317/31/44 309/29/45
f 317/31/44 318/4/44 316/6/44
f 329/26/48 317/31/48 316/6/48
f 310/5/48 329/26/48 316/6/48
f 328/25/44 339/32/44 327/23/44
f 326/13/3 334/33/3 335/22/3
f 317/31/48 325/18/48 309/29/48
f 313/34/3 325/15/3 312/11/3
f 310/35/5 324/36/5 323/7/5
f 337/25/52 335/37/52 340/38/52
f 311/5/52 339/39/52 331/27/52
f 339/39/50 333/28/50 338/12/50
f 331/27/53 338/12/50 332/11/53
f 340/38/50 334/9/50 333/28/50
f 313/34/46 333/40/49 334/33/49
f 318/41/3 327/23/3 339/5/3
f 324/36/5 332/42/5 315/8/5
f 324/36/5 311/43/5 331/44/5
f 321/20/49 333/40/49 322/10/46
f 328/25/5 337/24/5 340/45/5
f 348/6/54 343/47/54 342/5/54
f 355/7/14 347/8/14 346/9/14
f 354/10/55 344/11/56 351/12/56
f 358/13/12 341/14/12 357/15/12
f 362/16/57 344/17/58 357/18/58
f 347/8/55 370/19/55 353/20/55
f 368/21/12 358/13/12 367/22/12
f 359/23/59 369/24/59 360/25/59
f 346/11/57 361/26/57 355/27/57
f 352/15/57 362/16/57 361/26/57
f 346/9/56 353/20/55 352/28/56
f 352/28/56 354/10/55 351/12/56
f 368/48/54 349/31/60 341/29/54
f 369/30/60 348/6/54 349/31/60
f 348/6/57 362/16/57 349/31/57
f 355/27/57 348/6/57 342/5/58
f 360/25/60 371/32/60 359/23/60
f 358/13/12 366/33/12 367/22/12
f 362/16/57 341/29/57 349/31/57
f 345/34/12 357/15/12 344/11/12
f 342/35/14 356/36/14 355/7/14
f 369/25/61 367/37/61 372/38/61
f 343/5/61 371/39/61 363/27/61
f 371/39/59 365/28/62 370/12/59
f 363/27/59 370/12/59 364/11/59
f 372/38/59 366/9/62 365/28/62
f 345/34/55 365/40/55 366/33/55
f 350/41/12 359/23/12 371/5/12
f 356/36/14 364/42/14 347/8/14
f 356/36/14 343/43/14 363/44/14
f 353/20/55 365/40/55 354/10/55
f 360/25/14 369/24/14 372/45/14
f 380/6/63 375/47/63 374/5/63
f 387/7/24 379/8/24 378/9/24
f 386/10/64 376/11/65 383/12/65
f 390/13/22 373/14/22 389/15/22
f 394/16/66 376/17/66 389/18/66
f 385/20/64 396/42/64 402/19/67
f 400/21/22 390/13/22 399/22/22
f 391/23/68 401/24/68 392/25/68
f 387/27/69 384/15/66 393/26/66
f 384/15/66 394/16/66 393/26/66
f 378/9/65 385/20/64 384/28/65
f 385/20/64 383/12/65 384/28/65
f 373/29/63 401/30/63 381/31/63
f 381/31/63 382/4/63 380/6/63
f 393/26/66 381/31/66 380/6/66
f 387/27/69 380/6/66 374/5/70
f 392/25/71 403/32/71 391/23/71
f 390/13/22 398/33/22 399/22/22
f 381/31/66 389/18/66 373/29/69
f 377/34/22 389/15/22 376/11/22
f 374/35/24 388/36/24 387/7/24
f 404/38/72 400/45/72 399/37/72
f 375/5/72 403/39/72 395/27/72
f 403/39/68 397/28/68 402/12/68
f 395/27/68 402/12/68 396/11/68
f 404/38/68 398/9/68 397/28/68
f 377/34/64 397/40/64 398/33/64
f 382/41/22 391/23/22 403/5/22
f 388/36/24 396/42/24 379/8/24
f 388/36/24 375/43/24 395/44/24
f 385/20/64 397/40/64 386/10/64
f 392/25/24 401/24/24 404/45/24
f 412/6/73 407/47/73 406/5/73
f 419/7/35 411/8/35 410/9/35
f 418/10/74 408/11/75 415/12/75
f 422/13/33 405/14/33 421/15/33
f 426/16/76 408/17/77 421/18/77
f 411/8/74 434/19/74 417/20/74
f 432/21/33 422/13/33 431/22/33
f 423/23/78 433/24/79 424/25/78
f 410/11/76 425/26/76 419/27/76
f 416/15/76 426/16/76 425/26/76
f 411/8/74 416/28/75 410/9/75
f 417/20/74 415/12/75 416/28/75
f 432/48/73 413/31/73 405/29/73
f 413/31/73 414/4/73 412/6/73
f 425/26/76 413/31/76 412/6/76
f 419/27/76 412/6/76 406/5/77
f 423/23/73 436/49/73 435/32/73
f 422/13/33 430/33/33 431/22/33
f 426/16/76 405/29/76 413/31/76
f 409/34/33 421/15/33 408/11/33
f 406/35/35 420/36/35 419/7/35
f 436/38/80 432/45/80 431/37/80
f 407/5/80 435/39/80 427/27/80
f 435/39/79 429/28/78 434/12/78
f 427/27/79 434/12/78 428/11/81
f 436/38/78 430/9/78 429/28/78
f 418/10/74 430/33/74 409/34/74
f 414/41/33 423/23/33 435/5/33
f 420/36/35 428/42/35 411/8/35
f 420/36/35 407/43/35 427/44/35
f 417/20/74 429/40/74 418/10/74
f 424/25/35 433/24/35 436/45/35
f 437/50/82 440/51/82 439/52/82
f 440/51/83 443/53/83 439/52/83
f 444/54/1 441/55/1 443/53/1
f 439/52/84 441/56/84 437/57/84
f 440/51/85 442/58/85 444/54/85
f 445/59/85 448/60/85 447/61/85
f 449/50/82 452/51/82 451/52/82
f 452/51/85 455/53/85 451/52/85
f 456/54/1 453/55/1 455/53/1
f 451/52/83 453/56/83 449/57/83
f 452/51/86 454/58/86 456/54/86
f 458/62/86 459/61/86 457/59/86
f 461/50/82 464/51/82 463/52/82
f 464/51/86 467/53/86 463/52/86
f 468/54/1 465/55/1 467/53/1
f 463/52/85 465/56/85 461/57/85
f 464/51/84 466/58/84 468/54/84
f 470/62/84 471/61/84 469/59/84
f 473/50/82 476/51/82 475/52/82
f 475/52/84 480/54/84 479/53/84
f 480/54/1 477/55/1 479/53/1
f 475/52/86 477/56/86 473/57/86
f 476/51/83 478/58/83 480/54/83
f 482/62/83 483/61/83 481/59/83
f 497/63/82 499/64/82 491/65/82
f 515/66/82 503/64/82 507/67/82
f 531/65/82 519/66/82 523/68/82
f 547/69/82 535/65/82 539/66/82
f 552/70/87 555/71/87 551/72/87
f 553/73/88 550/74/88 549/75/88
f 552/70/89 554/76/89 556/77/89
f 558/78/82 560/79/82 557/80/82
f 558/78/88 549/75/88 550/74/88
f 559/81/90 550/74/90 552/70/90
f 551/72/87 559/81/87 552/70/87
f 561/50/1 563/82/1 564/83/1
f 562/84/87 555/71/87 556/77/87
f 554/76/91 562/84/91 556/77/91
f 553/73/88 563/82/88 554/76/88
f 568/70/92 571/71/92 567/72/92
f 570/76/93 565/75/93 569/73/93
f 572/77/94 566/74/94 570/76/94
f 574/78/82 576/79/82 573/80/82
f 574/78/93 565/75/93 566/74/93
f 575/81/95 566/74/95 568/70/95
f 567/72/92 575/81/92 568/70/92
f 577/50/1 579/82/1 580/83/1
f 578/84/92 571/71/92 572/77/92
f 570/76/96 578/84/96 572/77/96
f 569/73/93 579/82/93 570/76/93
f 584/70/97 587/71/97 583/72/97
f 586/76/98 581/75/98 585/73/98
f 584/70/99 586/76/99 588/77/99
f 590/78/82 592/79/82 589/80/82
f 590/78/98 581/75/98 582/74/98
f 591/81/100 582/74/100 584/70/100
f 583/72/97 591/81/97 584/70/97
f 593/50/1 595/82/1 596/83/1
f 594/84/97 587/71/97 588/77/97
f 586/76/101 594/84/101 588/77/101
f 585/73/98 595/82/98 586/76/98
f 600/70/102 603/71/102 599/72/102
f 601/73/103 598/74/103 597/75/103
f 600/70/104 602/76/104 604/77/104
f 606/78/82 608/79/82 605/80/82
f 606/78/103 597/75/103 598/74/103
f 607/81/105 598/74/105 600/70/106
f 599/72/102 607/81/102 600/70/102
f 610/84/1 612/83/1 609/50/1
f 610/84/102 603/71/102 604/77/102
f 602/76/107 610/84/107 604/77/108
f 601/73/103 611/82/103 602/76/103
f 616/70/109 619/71/109 615/72/109
f 618/76/110 613/75/110 617/73/110
f 620/77/111 614/74/111 618/76/111
f 621/80/82 623/81/82 624/79/82
f 622/78/110 613/75/110 614/74/110
f 623/81/112 614/74/112 616/70/112
f 615/72/109 623/81/109 616/70/109
f 626/84/1 628/83/1 625/50/1
f 626/84/109 619/71/109 620/77/109
f 618/76/113 626/84/113 620/77/113
f 617/73/110 627/82/110 618/76/110
f 632/70/88 635/71/88 631/72/88
f 633/73/87 630/74/87 629/75/87
f 632/70/114 634/76/114 636/77/114
f 638/78/82 640/79/82 637/80/82
f 638/78/87 629/75/87 630/74/87
f 639/81/115 630/74/115 632/70/115
f 631/72/88 639/81/88 632/70/88
f 642/84/1 644/83/1 641/50/1
f 642/84/88 635/71/88 636/77/88
f 634/76/116 642/84/116 636/77/116
f 633/73/87 643/82/87 634/76/87
f 648/70/93 651/71/93 647/72/93
f 650/76/92 645/75/92 649/73/92
f 648/70/117 650/76/117 652/77/117
f 653/80/82 655/81/82 656/79/82
f 654/78/92 645/75/92 646/74/92
f 655/81/118 646/74/118 648/70/118
f 647/72/93 655/81/93 648/70/93
f 658/84/1 660/83/1 657/50/1
f 658/84/93 651/71/93 652/77/93
f 650/76/119 658/84/119 652/77/119
f 649/73/92 659/82/92 650/76/92
f 664/70/98 667/71/98 663/72/98
f 666/76/97 661/75/97 665/73/97
f 664/70/120 666/76/120 668/77/120
f 669/80/82 671/81/82 672/79/82
f 670/78/97 661/75/97 662/74/97
f 671/81/121 662/74/121 664/70/121
f 663/72/98 671/81/98 664/70/98
f 674/84/1 676/83/1 673/50/1
f 674/84/98 667/71/98 668/77/98
f 666/76/122 674/84/122 668/77/122
f 665/73/97 675/82/97 666/76/97
f 680/70/103 683/71/103 679/72/103
f 682/76/102 677/75/102 681/73/102
f 684/77/123 678/74/123 682/76/123
f 685/80/82 687/81/82 688/79/82
f 686/78/102 677/75/102 678/74/102
f 687/81/124 678/74/124 680/70/124
f 679/72/103 687/81/103 680/70/103
f 690/84/1 692/83/1 689/50/1
f 690/84/103 683/71/103 684/77/103
f 682/76/125 690/84/125 684/77/125
f 681/73/102 691/82/102 682/76/102
f 696/70/110 699/71/110 695/72/110
f 697/73/109 694/74/109 693/75/109
f 696/70/126 698/76/126 700/77/126
f 701/80/82 703/81/82 704/79/82
f 702/78/109 693/75/109 694/74/109
f 703/81/127 694/74/127 696/70/127
f 695/72/110 703/81/110 696/70/110
f 706/84/1 708/83/1 705/50/1
f 706/84/110 699/71/110 700/77/110
f 698/76/128 706/84/128 700/77/128
f 697/73/109 707/82/109 698/76/109
f 713/85/129 710/86/129 714/87/129
f 715/88/130 717/89/130 716/90/130
f 713/91/131 718/92/131 715/93/131
f 716/94/132 720/95/132 714/96/132
f 714/87/133 719/97/133 713/85/133
f 709/98/134 721/99/134 722/100/134
f 710/86/135 722/100/135 723/101/135
f 710/102/136 724/103/136 712/104/136
f 712/105/137 721/106/137 711/107/137
f 715/88/138 712/105/138 711/107/138
f 716/94/139 710/102/139 712/104/139
f 715/93/140 709/98/140 713/91/140
f 726/108/88 727/109/88 725/110/88
f 728/111/82 731/112/82 727/109/82
f 731/112/87 730/113/87 729/114/87
f 730/99/141 725/110/141 729/115/141
f 734/108/89 735/109/89 733/110/89
f 736/111/82 739/112/82 735/109/82
f 739/112/114 738/113/114 737/114/114
f 738/99/142 733/110/142 737/115/142
f 742/108/87 743/109/87 741/110/87
f 744/111/82 747/112/82 743/109/82
f 747/112/88 746/113/88 745/114/88
f 746/99/143 741/110/143 745/115/143
f 750/108/114 751/109/114 749/110/114
f 752/111/82 755/112/82 751/109/82
f 755/112/89 754/113/89 753/114/89
f 754/99/144 749/110/144 753/115/144
f 764/116/88 759/117/88 763/118/88
f 772/119/87 766/120/87 769/121/87
f 763/122/89 757/123/89 761/124/89
f 768/125/88 770/126/88 767/127/88
f 766/128/114 770/126/114 769/129/114
f 772/119/89 768/130/89 765/131/89
f 763/118/1 765/131/1 764/116/1
f 761/124/1 766/128/1 763/122/1
f 764/132/1 768/130/1 762/133/1
f 762/134/1 767/127/1 761/135/1
f 759/136/82 770/126/82 757/137/82
f 757/137/82 771/138/82 758/139/82
f 758/140/82 772/119/82 760/141/82
f 760/141/82 769/121/82 759/95/82
f 762/133/114 760/142/114 764/132/114
f 761/135/87 758/143/87 762/134/87
f 774/144/83 775/145/83 773/146/83
f 775/145/82 780/112/82 779/147/82
f 779/147/86 778/148/86 777/149/86
f 778/115/145 773/146/145 777/150/145
f 782/144/84 783/145/84 781/146/84
f 783/145/82 788/112/82 787/147/82
f 787/147/85 786/148/85 785/149/85
f 786/115/146 781/146/146 785/150/146
f 790/144/86 791/145/86 789/146/86
f 792/109/82 795/147/82 791/145/82
f 795/147/83 794/148/83 793/149/83
f 793/150/147 790/110/147 789/146/147
f 798/144/85 799/145/85 797/146/85
f 800/109/82 803/147/82 799/145/82
f 803/147/84 802/148/84 801/149/84
f 801/150/148 798/110/148 797/146/148
f 163/3/1 161/151/1 179/152/1
f 161/151/1 162/153/1 179/152/1
f 162/153/1 180/154/1 179/152/1
f 179/152/1 178/155/1 177/156/1
f 177/156/1 176/157/1 175/1/1
f 175/1/1 174/158/1 173/159/1
f 173/159/1 171/160/1 175/1/1
f 171/160/1 172/161/1 175/1/1
f 172/161/1 170/162/1 169/163/1
f 169/163/1 168/164/1 167/2/1
f 167/2/1 166/165/1 163/3/1
f 166/165/1 165/166/1 163/3/1
f 165/166/1 164/167/1 163/3/1
f 179/152/1 177/156/1 163/3/1
f 177/156/1 175/1/1 163/3/1
f 172/161/1 169/163/1 175/1/1
f 169/163/1 167/2/1 175/1/1
f 190/4/2 183/47/149 182/5/2
f 195/7/3 196/36/3 187/8/3
f 194/10/4 185/34/4 184/11/4
f 198/13/5 208/21/5 181/14/5
f 202/16/6 191/46/150 184/17/6
f 187/8/4 204/42/4 210/19/4
f 199/23/7 190/41/7 209/24/7
f 186/11/6 192/15/6 201/26/6
f 192/15/6 191/46/150 202/16/6
f 187/8/4 193/20/4 192/28/4
f 193/20/4 194/10/4 191/12/4
f 181/29/2 208/48/2 209/30/2
f 189/31/2 209/30/2 190/4/2
f 201/26/6 202/16/6 189/31/6
f 195/27/6 201/26/6 188/6/6
f 200/25/2 212/49/2 211/32/2
f 198/13/5 185/34/5 206/33/5
f 202/16/6 197/18/6 181/29/6
f 185/34/5 198/13/5 197/15/5
f 182/35/3 183/43/3 196/36/3
f 209/25/8 208/45/8 207/37/8
f 183/5/8 190/23/8 211/39/8
f 211/39/9 212/38/7 205/28/7
f 203/27/9 211/39/9 210/12/9
f 212/38/7 207/37/7 206/9/7
f 185/34/4 194/10/4 205/40/4
f 196/36/3 203/44/3 204/42/3
f 194/10/4 193/20/4 210/19/4
f 222/4/10 215/47/11 214/5/11
f 227/7/12 228/36/12 219/8/12
f 226/10/13 217/34/13 216/11/13
f 230/13/14 240/21/14 213/14/14
f 234/16/15 223/46/15 216/17/16
f 219/8/13 236/42/13 242/19/13
f 222/41/17 241/24/17 232/25/17
f 218/11/16 224/15/16 233/26/16
f 233/26/16 224/15/16 223/46/15
f 218/9/13 219/8/13 225/20/13
f 225/20/13 226/10/13 223/12/13
f 213/29/10 240/48/10 241/30/10
f 241/30/10 222/4/10 220/6/10
f 233/26/16 234/16/15 221/31/15
f 227/27/16 233/26/16 220/6/16
f 232/25/10 244/49/10 243/32/10
f 217/34/14 238/33/14 239/22/14
f 234/16/15 229/18/16 213/29/15
f 217/34/14 230/13/14 229/15/14
f 214/35/12 215/43/12 228/36/12
f 241/25/18 240/45/18 239/37/18
f 215/5/18 222/23/18 243/39/18
f 243/39/17 244/38/20 237/28/17
f 236/11/17 235/27/17 243/39/17
f 244/38/20 239/37/19 238/9/19
f 226/10/13 237/40/13 238/33/13
f 219/8/12 228/36/12 235/44/12
f 225/20/13 242/19/13 237/40/13
f 252/6/21 254/4/21 247/47/21
f 259/7/22 260/36/22 251/8/22
f 258/10/23 249/34/26 248/11/23
f 262/13/24 272/21/24 245/14/24
f 266/16/25 255/46/25 248/17/25
f 251/8/23 268/42/26 274/19/26
f 254/41/27 273/24/27 264/25/28
f 259/27/25 250/11/25 256/15/25
f 256/15/25 255/46/25 266/16/25
f 250/9/23 251/8/23 257/20/23
f 256/28/23 257/20/23 258/10/23
f 272/48/29 273/30/21 253/31/21
f 273/30/21 254/4/21 252/6/21
f 265/26/25 266/16/25 253/31/25
f 259/27/25 265/26/25 252/6/25
f 263/23/21 264/25/21 276/49/21
f 262/13/24 249/34/24 270/33/24
f 266/16/25 261/18/25 245/29/25
f 249/34/24 262/13/24 261/15/24
f 246/35/22 247/43/22 260/36/22
f 276/38/31 273/25/31 272/45/31
f 247/5/31 254/23/31 275/39/31
f 275/39/28 276/38/27 269/28/27
f 267/27/28 275/39/28 274/12/28
f 269/28/27 276/38/27 271/37/27
f 249/34/26 258/10/23 269/40/26
f 260/36/22 267/44/22 268/42/22
f 257/20/23 274/19/26 269/40/26
f 284/6/32 286/4/41 279/47/32
f 291/7/33 292/36/33 283/8/33
f 290/10/34 281/34/34 280/11/34
f 294/13/35 304/21/35 277/14/35
f 298/16/36 287/46/36 280/17/37
f 289/20/34 283/8/34 300/42/38
f 286/41/39 305/24/39 296/25/40
f 291/27/37 282/11/37 288/15/37
f 288/15/37 287/46/36 298/16/36
f 283/8/34 289/20/34 288/28/34
f 289/20/34 290/10/34 287/12/34
f 304/48/41 305/30/41 285/31/41
f 305/30/41 286/4/41 284/6/32
f 297/26/37 298/16/36 285/31/36
f 291/27/37 297/26/37 284/6/37
f 296/25/41 308/49/41 307/32/41
f 294/13/35 281/34/35 302/33/35
f 298/16/36 293/18/37 277/29/36
f 281/34/35 294/13/35 293/15/35
f 278/35/33 279/43/33 292/36/33
f 305/25/42 304/45/42 303/37/42
f 299/27/42 279/5/42 286/23/42
f 307/39/39 308/38/43 301/28/43
f 299/27/39 307/39/39 306/12/39
f 308/38/43 303/37/40 302/9/40
f 281/34/34 290/10/34 301/40/38
f 292/36/33 299/44/33 300/42/33
f 289/20/34 306/19/38 301/40/38
f 316/6/44 318/4/44 311/47/45
f 323/7/5 324/36/5 315/8/5
f 322/10/46 313/34/46 312/11/47
f 326/13/3 336/21/3 309/14/3
f 330/16/48 319/46/48 312/17/48
f 315/8/46 332/42/49 338/19/49
f 318/41/50 337/24/50 328/25/50
f 314/11/51 320/15/48 329/26/48
f 329/26/48 320/15/48 319/46/48
f 315/8/46 321/20/49 320/28/46
f 320/28/46 321/20/49 322/10/46
f 336/48/45 337/30/44 317/31/44
f 317/31/44 337/30/44 318/4/44
f 329/26/48 330/16/48 317/31/48
f 310/5/48 323/27/51 329/26/48
f 328/25/44 340/49/45 339/32/44
f 326/13/3 313/34/3 334/33/3
f 317/31/48 330/16/48 325/18/48
f 313/34/3 326/13/3 325/15/3
f 310/35/5 311/43/5 324/36/5
f 337/25/52 336/45/52 335/37/52
f 311/5/52 318/23/52 339/39/52
f 339/39/50 340/38/50 333/28/50
f 331/27/53 339/39/50 338/12/50
f 340/38/50 335/37/50 334/9/50
f 313/34/46 322/10/46 333/40/49
f 324/36/5 331/44/5 332/42/5
f 321/20/49 338/19/49 333/40/49
f 348/6/54 350/4/54 343/47/54
f 355/7/14 356/36/14 347/8/14
f 354/10/55 345/34/55 344/11/56
f 358/13/12 368/21/12 341/14/12
f 362/16/57 351/46/57 344/17/58
f 347/8/55 364/42/151 370/19/55
f 359/23/59 350/41/59 369/24/59
f 346/11/57 352/15/57 361/26/57
f 352/15/57 351/46/57 362/16/57
f 346/9/56 347/8/55 353/20/55
f 352/28/56 353/20/55 354/10/55
f 368/48/54 369/30/60 349/31/60
f 369/30/60 350/4/54 348/6/54
f 348/6/57 361/26/57 362/16/57
f 355/27/57 361/26/57 348/6/57
f 360/25/60 372/49/60 371/32/60
f 358/13/12 345/34/12 366/33/12
f 362/16/57 357/18/58 341/29/57
f 345/34/12 358/13/12 357/15/12
f 342/35/14 343/43/14 356/36/14
f 369/25/61 368/45/61 367/37/61
f 343/5/61 350/23/61 371/39/61
f 371/39/59 372/38/59 365/28/62
f 363/27/59 371/39/59 370/12/59
f 372/38/59 367/37/152 366/9/62
f 345/34/55 354/10/55 365/40/55
f 356/36/14 363/44/14 364/42/14
f 353/20/55 370/19/55 365/40/55
f 380/6/63 382/4/63 375/47/63
f 387/7/24 388/36/24 379/8/24
f 386/10/64 377/34/64 376/11/65
f 390/13/22 400/21/22 373/14/22
f 394/16/66 383/46/66 376/17/66
f 385/20/64 379/8/64 396/42/64
f 391/23/68 382/41/68 401/24/68
f 387/27/69 378/11/69 384/15/66
f 384/15/66 383/46/66 394/16/66
f 378/9/65 379/8/64 385/20/64
f 385/20/64 386/10/64 383/12/65
f 373/29/63 400/48/63 401/30/63
f 381/31/63 401/30/63 382/4/63
f 393/26/66 394/16/66 381/31/66
f 387/27/69 393/26/66 380/6/66
f 392/25/71 404/49/71 403/32/71
f 390/13/22 377/34/22 398/33/22
f 381/31/66 394/16/66 389/18/66
f 377/34/22 390/13/22 389/15/22
f 374/35/24 375/43/24 388/36/24
f 404/38/72 401/25/72 400/45/72
f 375/5/72 382/23/72 403/39/72
f 403/39/68 404/38/68 397/28/68
f 395/27/68 403/39/68 402/12/68
f 404/38/68 399/37/68 398/9/68
f 377/34/64 386/10/64 397/40/64
f 388/36/24 395/44/24 396/42/24
f 385/20/64 402/19/67 397/40/64
f 412/6/73 414/4/73 407/47/73
f 419/7/35 420/36/35 411/8/35
f 418/10/74 409/34/74 408/11/75
f 422/13/33 432/21/33 405/14/33
f 426/16/76 415/46/76 408/17/77
f 411/8/74 428/42/74 434/19/74
f 423/23/78 414/41/79 433/24/79
f 410/11/76 416/15/76 425/26/76
f 416/15/76 415/46/76 426/16/76
f 411/8/74 417/20/74 416/28/75
f 417/20/74 418/10/74 415/12/75
f 432/48/73 433/30/73 413/31/73
f 413/31/73 433/30/73 414/4/73
f 425/26/76 426/16/76 413/31/76
f 419/27/76 425/26/76 412/6/76
f 423/23/73 424/25/73 436/49/73
f 422/13/33 409/34/33 430/33/33
f 426/16/76 421/18/77 405/29/76
f 409/34/33 422/13/33 421/15/33
f 406/35/35 407/43/35 420/36/35
f 436/38/80 433/25/80 432/45/80
f 407/5/80 414/23/80 435/39/80
f 435/39/79 436/38/78 429/28/78
f 427/27/79 435/39/79 434/12/78
f 436/38/78 431/37/78 430/9/78
f 418/10/74 429/40/74 430/33/74
f 420/36/35 427/44/35 428/42/35
f 417/20/74 434/19/74 429/40/74
f 437/50/82 438/168/82 440/51/82
f 440/51/83 444/54/83 443/53/83
f 444/54/1 442/169/1 441/55/1
f 439/52/84 443/53/84 441/56/84
f 440/51/85 438/170/85 442/58/85
f 445/59/85 446/62/85 448/60/85
f 449/50/82 450/168/82 452/51/82
f 452/51/85 456/54/85 455/53/85
f 456/54/1 454/169/1 453/55/1
f 451/52/83 455/53/83 453/56/83
f 452/51/86 450/170/86 454/58/86
f 458/62/86 460/60/86 459/61/86
f 461/50/82 462/168/82 464/51/82
f 464/51/86 468/54/86 467/53/86
f 468/54/1 466/169/1 465/55/1
f 463/52/85 467/53/85 465/56/85
f 464/51/84 462/170/84 466/58/84
f 470/62/84 472/60/84 471/61/84
f 473/50/82 474/168/82 476/51/82
f 475/52/84 476/51/84 480/54/84
f 480/54/1 478/169/1 477/55/1
f 475/52/86 479/53/86 477/56/86
f 476/51/83 474/170/83 478/58/83
f 482/62/83 484/60/83 483/61/83
f 499/64/82 485/171/82 491/65/82
f 485/171/82 487/67/82 491/65/82
f 487/67/82 489/172/82 491/65/82
f 491/65/82 493/173/82 495/66/82
f 495/66/82 497/63/82 491/65/82
f 515/66/82 501/63/82 503/64/82
f 503/64/82 505/171/82 507/67/82
f 507/67/82 509/172/82 511/65/82
f 511/65/82 513/173/82 507/67/82
f 513/173/82 515/66/82 507/67/82
f 531/65/82 517/173/82 519/66/82
f 519/66/82 521/63/82 523/68/82
f 523/68/82 525/171/82 527/69/82
f 527/69/82 529/172/82 523/68/82
f 529/172/82 531/65/82 523/68/82
f 547/69/82 533/172/82 535/65/82
f 535/65/82 537/173/82 539/66/82
f 539/66/82 541/63/82 547/69/82
f 541/63/82 543/68/82 547/69/82
f 543/68/82 545/171/82 547/69/82
f 552/70/87 556/77/87 555/71/87
f 553/73/88 554/76/88 550/74/88
f 552/70/89 550/74/89 554/76/89
f 558/78/82 559/81/82 560/79/82
f 558/78/88 557/174/88 549/75/88
f 559/81/90 558/78/90 550/74/90
f 551/72/87 560/175/87 559/81/87
f 561/50/1 562/84/1 563/82/1
f 562/84/87 561/176/87 555/71/87
f 554/76/91 563/82/91 562/84/91
f 553/73/88 564/177/88 563/82/88
f 568/70/92 572/77/92 571/71/92
f 570/76/93 566/74/93 565/75/93
f 572/77/94 568/70/94 566/74/94
f 574/78/82 575/81/82 576/79/82
f 574/78/93 573/174/93 565/75/93
f 575/81/95 574/78/95 566/74/95
f 567/72/92 576/175/92 575/81/92
f 577/50/1 578/84/1 579/82/1
f 578/84/92 577/176/92 571/71/92
f 570/76/96 579/82/96 578/84/96
f 569/73/93 580/177/93 579/82/93
f 584/70/97 588/77/97 587/71/97
f 586/76/98 582/74/98 581/75/98
f 584/70/99 582/74/99 586/76/99
f 590/78/82 591/81/82 592/79/82
f 590/78/98 589/174/98 581/75/98
f 591/81/100 590/78/100 582/74/100
f 583/72/97 592/175/97 591/81/97
f 593/50/1 594/84/1 595/82/1
f 594/84/97 593/176/97 587/71/97
f 586/76/101 595/82/101 594/84/101
f 585/73/98 596/177/98 595/82/98
f 600/70/102 604/77/102 603/71/102
f 601/73/103 602/76/103 598/74/103
f 600/70/104 598/74/104 602/76/104
f 606/78/82 607/81/82 608/79/82
f 606/78/103 605/174/103 597/75/103
f 607/81/105 606/78/105 598/74/105
f 599/72/102 608/175/102 607/81/102
f 610/84/1 611/82/1 612/83/1
f 610/84/102 609/176/102 603/71/102
f 602/76/107 611/82/107 610/84/107
f 601/73/103 612/177/103 611/82/103
f 616/70/109 620/77/109 619/71/109
f 618/76/110 614/74/110 613/75/110
f 620/77/111 616/70/111 614/74/111
f 621/80/82 622/78/82 623/81/82
f 622/78/110 621/174/110 613/75/110
f 623/81/112 622/78/112 614/74/112
f 615/72/109 624/175/109 623/81/109
f 626/84/1 627/82/1 628/83/1
f 626/84/109 625/176/109 619/71/109
f 618/76/113 627/82/113 626/84/113
f 617/73/110 628/177/110 627/82/110
f 632/70/88 636/77/88 635/71/88
f 633/73/87 634/76/87 630/74/87
f 632/70/114 630/74/114 634/76/114
f 638/78/82 639/81/82 640/79/82
f 638/78/87 637/174/87 629/75/87
f 639/81/115 638/78/115 630/74/115
f 631/72/88 640/175/88 639/81/88
f 642/84/1 643/82/1 644/83/1
f 642/84/88 641/176/88 635/71/88
f 634/76/116 643/82/116 642/84/116
f 633/73/87 644/177/87 643/82/87
f 648/70/93 652/77/93 651/71/93
f 650/76/92 646/74/92 645/75/92
f 648/70/117 646/74/117 650/76/117
f 653/80/82 654/78/82 655/81/82
f 654/78/92 653/174/92 645/75/92
f 655/81/118 654/78/118 646/74/118
f 647/72/93 656/175/93 655/81/93
f 658/84/1 659/82/1 660/83/1
f 658/84/93 657/176/93 651/71/93
f 650/76/119 659/82/119 658/84/119
f 649/73/92 660/177/92 659/82/92
f 664/70/98 668/77/98 667/71/98
f 666/76/97 662/74/97 661/75/97
f 664/70/120 662/74/120 666/76/120
f 669/80/82 670/78/82 671/81/82
f 670/78/97 669/174/97 661/75/97
f 671/81/121 670/78/121 662/74/121
f 663/72/98 672/175/98 671/81/98
f 674/84/1 675/82/1 676/83/1
f 674/84/98 673/176/98 667/71/98
f 666/76/122 675/82/122 674/84/122
f 665/73/97 676/177/97 675/82/97
f 680/70/103 684/77/103 683/71/103
f 682/76/102 678/74/102 677/75/102
f 684/77/123 680/70/123 678/74/123
f 685/80/82 686/78/82 687/81/82
f 686/78/102 685/174/102 677/75/102
f 687/81/124 686/78/124 678/74/124
f 679/72/103 688/175/103 687/81/103
f 690/84/1 691/82/1 692/83/1
f 690/84/103 689/176/103 683/71/103
f 682/76/125 691/82/125 690/84/125
f 681/73/102 692/177/102 691/82/102
f 696/70/110 700/77/110 699/71/110
f 697/73/109 698/76/109 694/74/109
f 696/70/126 694/74/126 698/76/126
f 701/80/82 702/78/82 703/81/82
f 702/78/109 701/174/109 693/75/109
f 703/81/127 702/78/127 694/74/127
f 695/72/110 704/175/110 703/81/110
f 706/84/1 707/82/1 708/83/1
f 706/84/110 705/176/110 699/71/110
f 698/76/128 707/82/128 706/84/128
f 697/73/109 708/177/109 707/82/109
f 713/85/129 709/178/129 710/86/129
f 715/88/130 718/103/130 717/89/130
f 713/91/131 719/97/131 718/92/131
f 716/94/132 717/106/132 720/95/132
f 714/87/133 720/179/133 719/97/133
f 709/98/134 711/180/134 721/99/134
f 710/86/135 709/178/135 722/100/135
f 710/102/136 723/181/136 724/103/136
f 712/105/137 724/182/137 721/106/137
f 715/88/138 716/90/138 712/105/138
f 716/94/139 714/96/139 710/102/139
f 715/93/140 711/180/140 709/98/140
f 726/108/88 728/111/88 727/109/88
f 728/111/82 732/183/82 731/112/82
f 731/112/87 732/183/87 730/113/87
f 730/99/141 726/184/141 725/110/141
f 734/108/89 736/111/89 735/109/89
f 736/111/82 740/183/82 739/112/82
f 739/112/114 740/183/114 738/113/114
f 738/99/142 734/184/142 733/110/142
f 742/108/87 744/111/87 743/109/87
f 744/111/82 748/183/82 747/112/82
f 747/112/88 748/183/88 746/113/88
f 746/99/143 742/184/143 741/110/143
f 750/108/114 752/111/114 751/109/114
f 752/111/82 756/183/82 755/112/82
f 755/112/89 756/183/89 754/113/89
f 754/99/144 750/184/144 749/110/144
f 764/116/88 760/185/88 759/117/88
f 772/119/87 765/131/87 766/120/87
f 763/122/89 759/186/89 757/123/89
f 768/125/88 771/138/88 770/126/88
f 766/128/114 767/127/114 770/126/114
f 772/119/89 771/187/89 768/130/89
f 763/118/1 766/120/1 765/131/1
f 761/124/1 767/127/1 766/128/1
f 764/132/1 765/131/1 768/130/1
f 762/134/1 768/125/1 767/127/1
f 759/136/82 769/129/82 770/126/82
f 757/137/82 770/126/82 771/138/82
f 758/140/82 771/187/82 772/119/82
f 760/141/82 772/119/82 769/121/82
f 762/133/114 758/188/114 760/142/114
f 761/135/87 757/189/87 758/143/87
f 774/144/83 776/109/83 775/145/83
f 775/145/82 776/109/82 780/112/82
f 779/147/86 780/112/86 778/148/86
f 778/115/145 774/110/145 773/146/145
f 782/144/84 784/109/84 783/145/84
f 783/145/82 784/109/82 788/112/82
f 787/147/85 788/112/85 786/148/85
f 786/115/146 782/110/146 781/146/146
f 790/144/86 792/109/86 791/145/86
f 792/109/82 796/112/82 795/147/82
f 795/147/83 796/112/83 794/148/83
f 793/150/147 794/115/147 790/110/147
f 798/144/85 800/109/85 799/145/85
f 800/109/82 804/112/82 803/147/82
f 803/147/84 804/112/84 802/148/84
f 801/150/148 802/115/148 798/110/148
f 2/190/153 3/191/154 1/192/155
f 4/193/156 5/194/157 3/191/154
f 6/195/158 7/196/159 5/194/157
f 8/197/160 9/198/161 7/196/159
f 10/199/162 11/200/163 9/198/161
f 12/201/164 13/202/165 11/203/163
f 13/202/165 16/204/166 15/205/167
f 15/205/167 18/206/168 17/207/169
f 17/207/169 20/208/170 19/209/171
f 21/210/172 24/211/173 23/212/174
f 23/212/174 26/213/175 25/214/176
f 25/214/176 28/215/177 27/216/178
f 27/216/178 30/217/179 29/218/180
f 29/218/180 32/219/181 31/220/182
f 32/219/181 33/221/183 31/220/182
f 34/222/184 35/223/185 33/221/183
f 36/224/186 37/225/187 35/223/185
f 38/226/188 39/227/189 37/225/187
f 40/228/190 1/192/155 39/227/189
f 46/229/191 67/230/192 66/231/193
f 29/218/180 56/232/194 55/233/195
f 1/192/155 60/234/196 39/227/189
f 7/196/159 43/235/197 5/194/157
f 15/205/167 49/236/198 48/237/199
f 3/191/154 41/238/200 1/192/155
f 25/214/176 54/239/201 53/240/202
f 37/225/187 58/241/203 35/223/185
f 13/202/165 46/229/191 11/203/163
f 21/210/172 52/242/204 51/243/205
f 31/220/182 57/244/206 56/232/194
f 9/198/161 44/245/207 7/196/159
f 17/207/169 50/246/208 49/236/198
f 27/216/178 55/233/195 54/239/201
f 39/227/189 59/247/209 37/225/187
f 5/194/157 42/248/210 3/191/154
f 15/205/167 47/249/211 13/202/165
f 23/212/174 53/240/202 52/242/204
f 33/221/183 58/241/203 57/244/206
f 11/200/163 45/250/212 9/198/161
f 69/251/213 90/252/214 89/253/215
f 55/233/195 74/254/216 54/239/201
f 48/237/199 67/255/192 47/249/211
f 56/232/194 75/256/217 55/233/195
f 49/236/198 68/257/218 48/237/199
f 41/238/200 62/258/219 61/259/220
f 57/244/206 76/260/221 56/232/194
f 50/246/208 69/251/213 49/236/198
f 42/248/210 63/261/222 62/262/219
f 57/244/206 78/263/223 77/264/224
f 43/235/197 64/265/225 63/266/222
f 58/241/203 79/267/226 78/268/223
f 52/242/204 71/269/227 51/243/205
f 44/245/207 65/270/228 64/271/225
f 59/247/209 80/272/229 79/273/226
f 53/240/202 72/274/230 52/242/204
f 45/250/212 66/275/193 65/276/228
f 60/234/196 61/277/220 80/278/229
f 54/239/201 73/279/231 53/240/202
f 85/280/232 104/281/233 84/282/234
f 63/261/222 82/283/235 62/262/219
f 78/263/223 97/284/236 77/264/224
f 64/265/225 83/285/237 63/266/222
f 79/267/226 98/286/238 78/268/223
f 71/269/227 92/287/239 91/288/240
f 65/270/228 84/282/234 64/271/225
f 80/272/229 99/289/241 79/273/226
f 72/274/230 93/290/242 92/291/239
f 66/275/193 85/292/232 65/276/228
f 61/277/220 100/293/243 80/278/229
f 73/279/231 94/294/244 93/295/242
f 67/230/192 86/296/245 66/231/193
f 51/243/205 19/209/171 21/210/172
f 74/254/216 95/297/246 94/298/244
f 67/255/192 88/299/247 87/300/248
f 75/256/217 96/301/249 95/302/246
f 68/257/218 89/303/215 88/304/247
f 62/258/219 81/305/250 61/259/220
f 76/260/221 97/306/236 96/307/249
f 115/308/251 134/309/252 114/310/253
f 99/289/241 120/311/254 119/312/255
f 92/291/239 113/313/256 112/314/257
f 86/315/245 105/316/258 85/292/232
f 100/293/243 101/317/259 120/318/254
f 93/295/242 114/319/253 113/320/256
f 87/321/248 106/322/260 86/296/245
f 70/323/261 51/243/205 71/324/227
f 94/298/244 115/308/251 114/310/253
f 88/299/247 107/325/262 87/300/248
f 95/302/246 116/326/263 115/327/251
f 89/303/215 108/328/264 88/304/247
f 81/305/250 102/329/265 101/330/259
f 96/307/249 117/331/266 116/332/263
f 90/252/214 109/333/267 89/253/215
f 83/334/237 102/335/265 82/283/235
f 97/284/236 118/336/268 117/337/266
f 70/323/261 91/338/240 90/339/214
f 84/340/234 103/341/269 83/285/237
f 98/286/238 119/342/255 118/343/268
f 92/287/239 111/344/270 91/288/240
f 121/345/271 125/346/272 129/347/273
f 107/325/262 128/348/274 127/349/275
f 116/326/263 135/350/276 115/327/251
f 108/328/264 129/351/273 128/352/274
f 102/329/265 121/353/271 101/330/259
f 117/331/266 136/354/277 116/332/263
f 109/333/267 130/355/278 129/356/273
f 103/357/269 122/358/279 102/335/265
f 118/336/268 137/359/280 117/337/266
f 91/338/240 110/360/281 90/339/214
f 104/361/233 123/362/282 103/341/269
f 119/342/255 138/363/283 118/343/268
f 111/344/270 132/364/284 131/365/285
f 104/281/233 125/366/272 124/367/286
f 120/311/254 139/368/287 119/312/255
f 112/314/257 133/369/288 132/370/284
f 105/316/258 126/371/289 125/372/272
f 101/317/259 140/373/290 120/318/254
f 113/320/256 134/374/252 133/375/288
f 106/322/260 127/376/275 126/377/289
f 131/378/285 110/360/281 111/379/270
f 147/380/291 168/381/292 148/382/293
f 8/197/160 143/383/294 144/384/295
f 36/224/186 159/385/296 38/226/188
f 22/386/297 152/387/298 24/211/173
f 10/199/162 144/388/295 145/389/299
f 38/226/188 160/390/300 40/228/190
f 24/211/173 153/391/301 26/213/175
f 12/392/164 145/393/299 146/394/302
f 2/190/153 160/395/300 142/396/303
f 26/213/175 154/397/304 28/215/177
f 14/398/305 146/399/302 147/400/291
f 28/215/177 155/401/306 30/217/179
f 16/204/166 147/380/291 148/382/293
f 30/217/179 156/402/307 32/219/181
f 16/204/166 149/403/308 18/206/168
f 4/193/156 142/404/303 141/405/309
f 32/219/181 157/406/310 34/222/184
f 20/208/170 149/407/308 150/408/311
f 6/195/158 141/409/309 143/410/294
f 34/222/184 158/411/312 36/224/186
f 156/402/307 175/412/313 176/413/314
f 148/414/293 169/415/315 149/403/308
f 142/404/303 161/416/316 141/405/309
f 156/417/307 177/418/317 157/406/310
f 149/407/308 170/419/318 150/408/311
f 141/409/309 163/420/319 143/410/294
f 157/421/310 178/422/320 158/423/312
f 143/383/294 164/424/321 144/384/295
f 158/411/312 179/425/322 159/385/296
f 152/387/298 172/426/323 171/427/324
f 144/388/295 165/428/325 145/389/299
f 159/429/296 180/430/326 160/390/300
f 153/391/301 171/431/324 173/432/327
f 145/393/299 166/433/328 146/394/302
f 160/395/300 162/434/329 142/396/303
f 153/435/301 174/436/330 154/397/304
f 147/400/291 166/437/328 167/438/331
f 155/401/306 174/439/330 175/440/313
f 19/209/171 22/386/297 21/210/172
f 151/441/332 20/208/170 150/442/311
f 151/441/332 170/443/318 172/444/323
f 486/445/89 487/446/333 485/447/334
f 488/448/84 489/449/335 487/446/333
f 490/450/87 491/451/336 489/449/335
f 492/452/86 493/453/337 491/451/336
f 493/80/337 496/454/85 495/455/338
f 496/454/85 497/456/339 495/455/338
f 498/457/88 499/458/340 497/456/339
f 500/459/83 485/447/334 499/458/340
f 502/445/88 503/446/340 501/447/339
f 504/448/83 505/449/334 503/446/340
f 506/450/89 507/451/333 505/449/334
f 508/452/84 509/453/335 507/451/333
f 510/460/87 511/455/336 509/80/335
f 512/454/86 513/456/341 511/455/336
f 514/457/114 515/458/342 513/456/341
f 516/459/85 501/447/339 515/458/342
f 518/445/114 519/446/338 517/447/341
f 519/446/338 522/450/88 521/449/343
f 522/450/88 523/451/344 521/449/343
f 523/451/344 526/461/89 525/453/334
f 525/80/334 528/454/84 527/455/345
f 528/454/84 529/456/346 527/455/345
f 530/457/87 531/458/336 529/456/346
f 532/459/86 517/447/341 531/458/336
f 533/447/335 536/448/86 535/446/347
f 536/448/86 537/449/341 535/446/347
f 538/450/114 539/451/338 537/449/341
f 539/451/338 542/461/88 541/453/343
f 542/460/88 543/455/344 541/80/343
f 544/454/83 545/456/334 543/455/344
f 546/457/89 547/458/333 545/456/334
f 548/459/84 533/447/335 547/458/333
f 2/190/153 4/193/156 3/191/154
f 4/193/156 6/195/158 5/194/157
f 6/195/158 8/197/160 7/196/159
f 8/197/160 10/199/162 9/198/161
f 10/199/162 12/392/164 11/200/163
f 12/201/164 14/398/305 13/202/165
f 13/202/165 14/398/305 16/204/166
f 15/205/167 16/204/166 18/206/168
f 17/207/169 18/206/168 20/208/170
f 21/210/172 22/386/297 24/211/173
f 23/212/174 24/211/173 26/213/175
f 25/214/176 26/213/175 28/215/177
f 27/216/178 28/215/177 30/217/179
f 29/218/180 30/217/179 32/219/181
f 32/219/181 34/222/184 33/221/183
f 34/222/184 36/224/186 35/223/185
f 36/224/186 38/226/188 37/225/187
f 38/226/188 40/228/190 39/227/189
f 40/228/190 2/190/153 1/192/155
f 46/229/191 47/249/211 67/230/192
f 29/218/180 31/220/182 56/232/194
f 1/192/155 41/238/200 60/234/196
f 7/196/159 44/245/207 43/235/197
f 15/205/167 17/207/169 49/236/198
f 3/191/154 42/248/210 41/238/200
f 25/214/176 27/216/178 54/239/201
f 37/225/187 59/247/209 58/241/203
f 13/202/165 47/249/211 46/229/191
f 21/210/172 23/212/174 52/242/204
f 31/220/182 33/221/183 57/244/206
f 9/198/161 45/250/212 44/245/207
f 17/207/169 19/209/171 50/246/208
f 27/216/178 29/218/180 55/233/195
f 39/227/189 60/234/196 59/247/209
f 5/194/157 43/235/197 42/248/210
f 15/205/167 48/237/199 47/249/211
f 23/212/174 25/214/176 53/240/202
f 33/221/183 35/223/185 58/241/203
f 11/200/163 46/462/191 45/250/212
f 69/251/213 70/463/261 90/252/214
f 55/233/195 75/464/217 74/254/216
f 48/237/199 68/465/218 67/255/192
f 56/232/194 76/466/221 75/256/217
f 49/236/198 69/467/213 68/257/218
f 41/238/200 42/248/210 62/258/219
f 57/244/206 77/468/224 76/260/221
f 50/246/208 70/463/261 69/251/213
f 42/248/210 43/235/197 63/261/222
f 57/244/206 58/241/203 78/263/223
f 43/235/197 44/245/207 64/265/225
f 58/241/203 59/247/209 79/267/226
f 52/242/204 72/469/230 71/269/227
f 44/245/207 45/250/212 65/270/228
f 59/247/209 60/234/196 80/272/229
f 53/240/202 73/470/231 72/274/230
f 45/250/212 46/462/191 66/275/193
f 60/234/196 41/238/200 61/277/220
f 54/239/201 74/471/216 73/279/231
f 85/280/232 105/472/258 104/281/233
f 63/261/222 83/334/237 82/283/235
f 78/263/223 98/473/238 97/284/236
f 64/265/225 84/340/234 83/285/237
f 79/267/226 99/474/241 98/286/238
f 71/269/227 72/469/230 92/287/239
f 65/270/228 85/280/232 84/282/234
f 80/272/229 100/475/243 99/289/241
f 72/274/230 73/470/231 93/290/242
f 66/275/193 86/315/245 85/292/232
f 61/277/220 81/476/250 100/293/243
f 73/279/231 74/471/216 94/294/244
f 67/230/192 87/321/248 86/296/245
f 51/243/205 50/246/208 19/209/171
f 74/254/216 75/464/217 95/297/246
f 67/255/192 68/465/218 88/299/247
f 75/256/217 76/466/221 96/301/249
f 68/257/218 69/467/213 89/303/215
f 62/258/219 82/477/235 81/305/250
f 76/260/221 77/468/224 97/306/236
f 115/308/251 135/478/276 134/309/252
f 99/289/241 100/475/243 120/311/254
f 92/291/239 93/290/242 113/313/256
f 86/315/245 106/479/260 105/316/258
f 100/293/243 81/476/250 101/317/259
f 93/295/242 94/294/244 114/319/253
f 87/321/248 107/480/262 106/322/260
f 70/323/261 50/246/208 51/243/205
f 94/298/244 95/297/246 115/308/251
f 88/299/247 108/481/264 107/325/262
f 95/302/246 96/301/249 116/326/263
f 89/303/215 109/482/267 108/328/264
f 81/305/250 82/477/235 102/329/265
f 96/307/249 97/306/236 117/331/266
f 90/252/214 110/483/281 109/333/267
f 83/334/237 103/357/269 102/335/265
f 97/284/236 98/473/238 118/336/268
f 70/323/261 71/324/227 91/338/240
f 84/340/234 104/361/233 103/341/269
f 98/286/238 99/474/241 119/342/255
f 92/287/239 112/484/257 111/344/270
f 129/347/273 130/485/278 131/486/285
f 131/486/285 132/487/284 129/347/273
f 132/487/284 133/488/288 129/347/273
f 133/488/288 134/489/252 135/490/276
f 135/490/276 136/491/277 137/492/280
f 137/492/280 138/493/283 139/494/287
f 139/494/287 140/495/290 137/492/280
f 140/495/290 121/345/271 137/492/280
f 121/345/271 122/496/279 123/497/282
f 123/497/282 124/498/286 121/345/271
f 124/498/286 125/346/272 121/345/271
f 125/346/272 126/499/289 127/500/275
f 127/500/275 128/501/274 125/346/272
f 128/501/274 129/347/273 125/346/272
f 133/488/288 135/490/276 129/347/273
f 135/490/276 137/492/280 129/347/273
f 137/492/280 121/345/271 129/347/273
f 107/325/262 108/481/264 128/348/274
f 116/326/263 136/502/277 135/350/276
f 108/328/264 109/482/267 129/351/273
f 102/329/265 122/503/279 121/353/271
f 117/331/266 137/504/280 136/354/277
f 109/333/267 110/483/281 130/355/278
f 103/357/269 123/505/282 122/358/279
f 118/336/268 138/506/283 137/359/280
f 91/338/240 111/379/270 110/360/281
f 104/361/233 124/507/286 123/362/282
f 119/342/255 139/508/287 138/363/283
f 111/344/270 112/484/257 132/364/284
f 104/281/233 105/472/258 125/366/272
f 120/311/254 140/509/290 139/368/287
f 112/314/257 113/313/256 133/369/288
f 105/316/258 106/479/260 126/371/289
f 101/317/259 121/510/271 140/373/290
f 113/320/256 114/319/253 134/374/252
f 106/322/260 107/480/262 127/376/275
f 131/378/285 130/511/278 110/360/281
f 147/380/291 167/512/331 168/381/292
f 8/197/160 6/195/158 143/383/294
f 36/224/186 158/423/312 159/385/296
f 22/386/297 151/513/332 152/387/298
f 10/199/162 8/197/160 144/388/295
f 38/226/188 159/429/296 160/390/300
f 24/211/173 152/514/298 153/391/301
f 12/392/164 10/199/162 145/393/299
f 2/190/153 40/228/190 160/395/300
f 26/213/175 153/435/301 154/397/304
f 14/398/305 12/201/164 146/399/302
f 28/215/177 154/515/304 155/401/306
f 16/204/166 14/398/305 147/380/291
f 30/217/179 155/516/306 156/402/307
f 16/204/166 148/414/293 149/403/308
f 4/193/156 2/190/153 142/404/303
f 32/219/181 156/417/307 157/406/310
f 20/208/170 18/206/168 149/407/308
f 6/195/158 4/193/156 141/409/309
f 34/222/184 157/421/310 158/411/312
f 156/402/307 155/516/306 175/412/313
f 148/414/293 168/517/292 169/415/315
f 142/404/303 162/518/329 161/416/316
f 156/417/307 176/519/314 177/418/317
f 149/407/308 169/520/315 170/419/318
f 141/409/309 161/521/316 163/420/319
f 157/421/310 177/522/317 178/422/320
f 143/383/294 163/523/319 164/424/321
f 158/411/312 178/524/320 179/425/322
f 152/387/298 151/513/332 172/426/323
f 144/388/295 164/525/321 165/428/325
f 159/429/296 179/526/322 180/430/326
f 153/391/301 152/514/298 171/431/324
f 145/393/299 165/527/325 166/433/328
f 160/395/300 180/528/326 162/434/329
f 153/435/301 173/529/327 174/436/330
f 147/400/291 146/399/302 166/437/328
f 155/401/306 154/515/304 174/439/330
f 19/209/171 20/208/170 22/386/297
f 151/441/332 22/386/297 20/208/170
f 151/441/332 150/442/311 170/443/318
f 486/445/89 488/448/84 487/446/333
f 488/448/84 490/450/87 489/449/335
f 490/450/87 492/452/86 491/451/336
f 492/452/86 494/461/114 493/453/337
f 493/80/337 494/460/114 496/454/85
f 496/454/85 498/457/88 497/456/339
f 498/457/88 500/459/83 499/458/340
f 500/459/83 486/445/89 485/447/334
f 502/445/88 504/448/83 503/446/340
f 504/448/83 506/450/89 505/449/334
f 506/450/89 508/452/84 507/451/333
f 508/452/84 510/461/87 509/453/335
f 510/460/87 512/454/86 511/455/336
f 512/454/86 514/457/114 513/456/341
f 514/457/114 516/459/85 515/458/342
f 516/459/85 502/445/88 501/447/339
f 518/445/114 520/448/85 519/446/338
f 519/446/338 520/448/85 522/450/88
f 522/450/88 524/452/83 523/451/344
f 523/451/344 524/452/83 526/461/89
f 525/80/334 526/460/89 528/454/84
f 528/454/84 530/457/87 529/456/346
f 530/457/87 532/459/86 531/458/336
f 532/459/86 518/445/114 517/447/341
f 533/447/335 534/445/87 536/448/86
f 536/448/86 538/450/114 537/449/341
f 538/450/114 540/452/85 539/451/338
f 539/451/338 540/452/85 542/461/88
f 542/460/88 544/454/83 543/455/344
f 544/454/83 546/457/89 545/456/334
f 546/457/89 548/459/84 547/458/333
f 548/459/84 534/445/87 533/447/335
