# Blender 4.5.14 LTS
# www.blender.org
mtllib lilboy.mtl
o lilboy
v -0.800937 -0.422500 0.108750
v -0.800937 -0.422500 -0.108750
v 0.775938 -0.422500 -0.108750
v 0.775938 -0.422500 0.108750
v -0.800937 -0.277500 0.108750
v -0.800937 -0.277500 -0.108750
v 0.775938 -0.277500 -0.108750
v 0.775938 -0.277500 0.108750
v -0.812500 -0.000001 -0.350000
v -0.812500 -0.133940 -0.323358
v -0.812500 -0.247488 -0.247487
v -0.812500 -0.323358 -0.133939
v -0.812500 -0.350001 0.000000
v -0.812500 -0.323358 0.133939
v -0.812500 -0.247488 0.247487
v -0.812500 -0.133940 0.323358
v -0.812500 -0.000001 0.350000
v -0.812500 0.133939 0.323358
v -0.812500 0.247487 0.247487
v -0.812500 0.323357 0.133939
v -0.812500 0.349999 -0.000000
v -0.812500 0.323357 -0.133939
v -0.812500 0.247487 -0.247487
v -0.812500 0.133938 -0.323358
v -2.212500 -0.000001 -0.150000
v -2.212500 -0.057403 -0.138582
v -2.212500 -0.106067 -0.106066
v -2.212500 -0.138583 -0.057403
v -2.212500 -0.150001 0.000000
v -2.212500 -0.138583 0.057403
v -2.212500 -0.106067 0.106066
v -2.212500 -0.057403 0.138582
v -2.212500 -0.000001 0.150000
v -2.212500 0.057402 0.138582
v -2.212500 0.106065 0.106066
v -2.212500 0.138581 0.057403
v -2.212500 0.149999 -0.000000
v -2.212500 0.138581 -0.057403
v -2.212500 0.106065 -0.106066
v -2.212500 0.057402 -0.138582
v -2.212500 -0.325000 -0.325000
v -1.512500 -0.325000 -0.325000
v -2.212500 -0.425000 0.425000
v -1.512500 -0.425000 0.425000
v -2.212500 0.425000 0.425000
v -1.512500 0.425000 0.425000
v -2.212500 -0.425000 -0.425000
v -1.512500 -0.425000 -0.425000
v -2.212500 0.425000 -0.425000
v -1.512500 0.425000 -0.425000
v -2.212500 0.325000 -0.000000
v -1.512500 0.325000 -0.000000
v -2.212500 -0.325000 0.000000
v -1.512500 -0.325000 0.000000
v -1.512500 0.000000 0.325000
v -2.212500 0.000000 0.325000
v -1.512500 0.000000 -0.325000
v -2.212500 0.000000 -0.325000
v -1.512500 0.000000 -0.150000
v -1.512500 -0.057402 -0.138582
v -1.512500 -0.106066 -0.106066
v -1.512500 -0.138582 -0.057403
v -1.512500 -0.150000 0.000000
v -1.512500 -0.138582 0.057403
v -1.512500 -0.106066 0.106066
v -1.512500 -0.057402 0.138582
v -1.512500 0.000000 0.150000
v -1.512500 0.057403 0.138582
v -1.512500 0.106066 0.106066
v -1.512500 0.138582 0.057403
v -1.512500 0.150000 -0.000000
v -1.512500 0.138582 -0.057403
v -1.512500 0.106066 -0.106066
v -1.512500 0.057403 -0.138582
v 0.987500 0.000000 -0.175000
v 0.987500 0.066970 -0.161679
v 0.987500 0.123744 -0.123744
v 0.987500 0.161679 -0.066970
v 0.987500 0.175000 -0.000000
v 0.987500 0.161679 0.066970
v 0.987500 0.123744 0.123744
v 0.987500 0.066970 0.161679
v 0.987500 0.000000 0.175000
v 0.987500 -0.066969 0.161679
v 0.987500 -0.123744 0.123744
v 0.987500 -0.161679 0.066970
v 0.987500 -0.175000 0.000000
v 0.987500 -0.161679 -0.066970
v 0.987500 -0.123744 -0.123744
v 0.987500 -0.066969 -0.161679
v 0.812500 0.000001 -0.350000
v 0.812500 -0.133938 -0.323358
v 0.812500 -0.247487 -0.247487
v 0.812500 -0.323357 -0.133939
v 0.812500 -0.349999 0.000000
v 0.812500 -0.323357 0.133939
v 0.812500 -0.247487 0.247487
v 0.812500 -0.133938 0.323358
v 0.812500 0.000001 0.350000
v 0.812500 0.133940 0.323358
v 0.812500 0.247488 0.247487
v 0.812500 0.323359 0.133939
v 0.812500 0.350001 -0.000000
v 0.812500 0.323359 -0.133939
v 0.812500 0.247488 -0.247487
v 0.812500 0.133940 -0.323358
v 0.262500 -0.388909 0.388909
v 0.512500 -0.388909 0.388909
v 0.262500 -0.212132 0.212132
v 0.512500 -0.212132 0.212132
v 0.262500 0.212132 -0.212132
v 0.512500 0.212132 -0.212132
v 0.262500 0.388909 -0.388909
v 0.512500 0.388909 -0.388909
v 0.262500 -0.388909 -0.388909
v 0.512500 -0.388909 -0.388909
v 0.262500 -0.212132 -0.212132
v 0.512500 -0.212132 -0.212132
v 0.262500 0.212132 0.212132
v 0.512500 0.212132 0.212132
v 0.262500 0.388909 0.388909
v 0.512500 0.388909 0.388909
v -2.212500 -0.000001 -0.150000
v -1.512500 0.000000 -0.325000
v -2.212500 0.000000 -0.325000
v -1.512500 0.000000 -0.150000
v -2.212500 -0.150001 0.000000
v -2.212500 -0.325000 0.000000
v -1.512500 -0.325000 0.000000
v -1.512500 -0.150000 0.000000
v -2.212500 -0.000001 0.150000
v -1.512500 0.000000 0.325000
v -2.212500 0.000000 0.325000
v -1.512500 0.000000 0.150000
v -2.212500 0.149999 -0.000000
v -2.212500 0.325000 -0.000000
v -1.512500 0.325000 -0.000000
v -1.512500 0.150000 -0.000000
v -2.212500 0.106065 -0.106066
v -1.512500 0.106066 -0.106066
v -2.212500 0.325000 -0.325000
v -1.512500 0.325000 -0.325000
v -2.212500 0.106065 0.106066
v -1.512500 0.106066 0.106066
v -2.212500 0.325000 0.325000
v -1.512500 0.325000 0.325000
v -2.212500 -0.106067 0.106066
v -1.512500 -0.106066 0.106066
v -2.212500 -0.325000 0.325000
v -1.512500 -0.325000 0.325000
v -2.212500 -0.106067 -0.106066
v -2.212500 -0.325000 -0.325000
v -1.512500 -0.325000 -0.325000
v -1.512500 -0.106066 -0.106066
v -2.212500 0.325000 -0.325000
v -1.512500 0.325000 -0.325000
v -2.212500 0.325000 0.325000
v -1.512500 0.325000 0.325000
v -2.212500 -0.325000 0.325000
v -1.512500 -0.325000 0.325000
v 0.262500 -0.388909 0.388909
v 0.512500 -0.388909 0.388909
v 0.262500 -0.212132 0.212132
v 0.512500 -0.212132 0.212132
v 0.262500 0.212132 -0.212132
v 0.512500 0.212132 -0.212132
v 0.262500 0.388909 -0.388909
v 0.512500 0.388909 -0.388909
v 0.262500 -0.388909 -0.388909
v 0.512500 -0.388909 -0.388909
v 0.262500 -0.212132 -0.212132
v 0.512500 -0.212132 -0.212132
v 0.262500 0.212132 0.212132
v 0.512500 0.212132 0.212132
v 0.262500 0.388909 0.388909
v 0.512500 0.388909 0.388909
v -2.212500 -0.000001 -0.150000
v -1.512500 0.000000 -0.325000
v -2.212500 0.000000 -0.325000
v -1.512500 0.000000 -0.150000
v -2.212500 -0.150001 0.000000
v -2.212500 -0.325000 0.000000
v -1.512500 -0.325000 0.000000
v -1.512500 -0.150000 0.000000
v -2.212500 -0.000001 0.150000
v -1.512500 0.000000 0.325000
v -2.212500 0.000000 0.325000
v -1.512500 0.000000 0.150000
v -2.212500 0.149999 -0.000000
v -2.212500 0.325000 -0.000000
v -1.512500 0.325000 -0.000000
v -1.512500 0.150000 -0.000000
v -2.212500 0.106065 -0.106066
v -1.512500 0.106066 -0.106066
v -2.212500 0.325000 -0.325000
v -1.512500 0.325000 -0.325000
v -2.212500 0.106065 0.106066
v -1.512500 0.106066 0.106066
v -2.212500 0.325000 0.325000
v -1.512500 0.325000 0.325000
v -2.212500 -0.106067 0.106066
v -1.512500 -0.106066 0.106066
v -2.212500 -0.325000 0.325000
v -1.512500 -0.325000 0.325000
v -2.212500 -0.106067 -0.106066
v -2.212500 -0.325000 -0.325000
v -1.512500 -0.325000 -0.325000
v -1.512500 -0.106066 -0.106066
vn -1.0000 -0.0000 -0.0000
vn -0.0000 -0.0000 -1.0000
vn 1.0000 -0.0000 -0.0000
vn -0.0000 -0.0000 1.0000
vn -0.0000 -1.0000 -0.0000
vn -0.0000 1.0000 -0.0000
vn -0.1411 -0.0000 -0.9900
vn -0.1411 -0.3789 -0.9146
vn -0.0000 -0.3827 -0.9239
vn -0.1411 -0.7000 -0.7000
vn -0.0000 -0.7071 -0.7071
vn -0.1411 -0.9146 -0.3789
vn -0.0000 -0.9239 -0.3827
vn -0.1411 -0.9900 -0.0000
vn -0.1411 -0.9146 0.3789
vn -0.0000 -0.9239 0.3827
vn -0.1411 -0.7000 0.7000
vn -0.0000 -0.7071 0.7071
vn -0.1411 -0.3789 0.9146
vn -0.1411 -0.0000 0.9900
vn -0.1411 0.3789 0.9146
vn -0.0000 0.3827 0.9239
vn -0.1411 0.7000 0.7000
vn -0.0000 0.7071 0.7071
vn -0.1411 0.9146 0.3789
vn -0.1411 0.9900 -0.0000
vn -0.1411 0.9146 -0.3789
vn -0.0000 0.9239 -0.3827
vn -0.1411 0.7000 -0.7000
vn -0.0000 0.7071 -0.7071
vn -0.1411 0.3789 -0.9146
vn -0.0000 0.3827 -0.9239
vn -0.1364 0.9152 0.3791
vn -0.1364 0.9907 -0.0000
vn -0.1364 0.7005 0.7005
vn -0.1364 0.3791 0.9152
vn -0.1364 -0.0000 0.9907
vn -0.1364 -0.3791 0.9152
vn -0.1364 -0.7005 0.7005
vn -0.1364 -0.9152 0.3791
vn -0.1364 -0.9152 -0.3791
vn -0.1364 -0.9907 -0.0000
vn -0.1364 -0.7005 -0.7005
vn -0.1364 -0.3791 -0.9152
vn -0.1364 -0.0000 -0.9907
vn -0.1364 0.3791 -0.9152
vn -0.1364 0.7005 -0.7005
vn -0.1364 0.9152 -0.3791
vn 0.9066 -0.0000 0.4220
vn 0.9066 -0.4220 -0.0000
vn 0.9066 -0.0000 -0.4220
vn 0.9066 0.4220 -0.0000
vn 0.3668 0.9303 -0.0000
vn 0.3668 0.8595 0.3560
vn 0.9066 0.3899 -0.1615
vn 0.3668 0.8595 -0.3560
vn 0.9066 0.2984 -0.2984
vn 0.3668 0.6578 -0.6578
vn 0.9066 0.1615 -0.3899
vn 0.3668 0.3560 -0.8595
vn 0.3668 -0.0000 -0.9303
vn 0.9066 -0.1615 -0.3899
vn 0.3668 -0.3560 -0.8595
vn 0.9066 -0.2984 -0.2984
vn 0.3668 -0.6578 -0.6578
vn 0.9066 -0.3899 -0.1615
vn 0.3668 -0.8595 -0.3560
vn 0.3668 -0.9303 -0.0000
vn 0.9066 -0.3899 0.1615
vn 0.3668 -0.8595 0.3560
vn 0.9066 -0.2984 0.2984
vn 0.3668 -0.6578 0.6578
vn 0.9066 -0.1615 0.3899
vn 0.3668 -0.3560 0.8595
vn 0.3668 -0.0000 0.9303
vn 0.9066 0.1615 0.3899
vn 0.3668 0.3560 0.8595
vn 0.9066 0.2984 0.2984
vn 0.3668 0.6578 0.6578
vn 0.9066 0.3899 0.1615
vn -0.0000 -0.3827 0.9239
vn -0.0000 0.9239 0.3827
vt 0.630435 0.607143
vt 0.652174 0.607143
vt 0.652174 0.678571
vt 0.913043 0.571429
vt 0.913043 0.607143
vt 0.934783 0.678571
vt 0.913043 0.678571
vt 0.652174 0.714286
vt 0.622155 0.607621
vt 0.608405 0.664969
vt 0.573497 0.642379
vt 0.130435 0.857143
vt -0.000000 0.857143
vt -0.000000 0.750000
vt 0.282609 0.500000
vt 0.282609 0.250000
vt 0.413043 0.250000
vt 0.282609 0.750000
vt 0.413043 0.750000
vt 0.413043 1.000000
vt 0.130435 0.107143
vt 0.000000 0.107143
vt 0.000000 0.000000
vt 0.543478 0.214286
vt 0.543478 0.232143
vt 0.413043 0.232143
vt 0.543478 0.250000
vt 0.543478 0.267857
vt 0.413043 0.267857
vt 0.543478 0.285714
vt 0.413043 0.285714
vt 0.543478 -0.000000
vt 0.543478 0.017857
vt 0.413043 0.017857
vt 0.543478 0.035714
vt 0.413043 0.035714
vt 0.543478 0.053571
vt 0.543478 0.071429
vt 0.413043 0.071429
vt 0.543478 0.089286
vt 0.413043 0.089286
vt 0.543478 0.107143
vt 0.413043 0.107143
vt 0.543478 0.125000
vt 0.543478 0.142857
vt 0.413043 0.142857
vt 0.543478 0.160714
vt 0.413043 0.160714
vt 0.543478 0.178571
vt 0.413043 0.178571
vt 0.543478 0.196429
vt 0.413043 0.214286
vt 0.413043 0.196429
vt 0.673913 0.250000
vt 0.673913 0.285714
vt 0.673913 0.214286
vt 0.673913 0.178571
vt 0.673913 0.142857
vt 0.673913 0.107143
vt 0.673913 0.071429
vt 0.673913 0.035714
vt 0.673913 0.535714
vt 0.673913 0.571429
vt 0.543478 0.571429
vt 0.673913 0.500000
vt 0.543478 0.535714
vt 0.673913 0.464286
vt 0.543478 0.500000
vt 0.673913 0.428571
vt 0.543478 0.464286
vt 0.673913 0.392857
vt 0.543478 0.428571
vt 0.673913 0.357143
vt 0.543478 0.392857
vt 0.673913 0.321429
vt 0.543478 0.357143
vt 0.543478 0.321429
vt 0.282609 -0.000000
vt 0.413043 -0.000000
vt 0.937764 0.625000
vt 0.967391 0.576327
vt 0.997018 0.625000
vt 0.478261 0.285714
vt 0.413043 0.392857
vt 1.000000 0.285714
vt 0.956522 0.285714
vt 0.956522 0.250000
vt 1.000000 0.303571
vt 1.000000 0.321429
vt 0.956522 0.321429
vt 1.000000 0.357143
vt 0.956522 0.357143
vt 1.000000 0.375000
vt 1.000000 0.392857
vt 0.956522 0.392857
vt 1.000000 0.410714
vt 1.000000 0.428571
vt 0.956522 0.428571
vt 1.000000 0.446429
vt 1.000000 0.464286
vt 0.956522 0.464286
vt 1.000000 0.500000
vt 0.956522 0.500000
vt 1.000000 0.517857
vt 1.000000 0.535714
vt 0.956522 0.535714
vt 1.000000 0.571429
vt 0.956522 0.571429
vt 1.000000 0.035714
vt 0.956522 0.035714
vt 0.956522 0.000000
vt 1.000000 0.071429
vt 0.956522 0.071429
vt 1.000000 0.107143
vt 0.956522 0.107143
vt 1.000000 0.142857
vt 0.956522 0.142857
vt 1.000000 0.178571
vt 0.956522 0.178571
vt 1.000000 0.214286
vt 0.956522 0.214286
vt 1.000000 0.250000
vt 0.478261 0.392857
vt 0.141304 0.500000
vt 0.271739 0.500000
vt 0.271739 0.607143
vt 0.141304 0.607143
vt 0.130435 0.214286
vt 0.000000 0.214286
vt 0.000000 0.321429
vt 0.130435 0.428571
vt 0.000000 0.428571
vt 0.130435 0.535714
vt 0.130435 0.642857
vt -0.000000 0.642857
vt 0.130435 0.750000
vt 0.206522 0.214286
vt 0.260870 0.214286
vt 0.260870 0.125000
vt 0.260870 0.035714
vt 0.152174 0.125000
vt 0.152174 0.214286
vt 0.130435 0.250000
vt 0.206522 0.035714
vt 0.206522 0.285714
vt 0.152174 0.285714
vt 0.152174 0.375000
vt 0.152174 0.464286
vt 0.130435 0.500000
vt 0.206522 0.464286
vt 0.260870 0.375000
vt 0.630435 0.678571
vt 0.652174 0.571429
vt 0.934783 0.607143
vt 0.913043 0.714286
vt 0.571301 0.625761
vt 0.573143 0.609026
vt 0.578743 0.594724
vt 0.587248 0.585031
vt 0.597363 0.581423
vt 0.607549 0.584449
vt 0.616255 0.593649
vt 0.624351 0.624239
vt 0.622509 0.640974
vt 0.616910 0.655276
vt 0.598289 0.668577
vt 0.588103 0.665551
vt 0.579397 0.656351
vt 0.413043 0.500000
vt 0.282609 1.000000
vt 0.130435 0.000000
vt 0.413043 0.053571
vt 0.413043 0.125000
vt 0.673913 -0.000000
vt 0.543478 0.553571
vt 0.543478 0.517857
vt 0.543478 0.482143
vt 0.543478 0.446429
vt 0.543478 0.410714
vt 0.543478 0.375000
vt 0.543478 0.339286
vt 0.543478 0.303571
vt 0.994763 0.643627
vt 0.988341 0.659417
vt 0.978729 0.669968
vt 0.967391 0.673673
vt 0.956053 0.669968
vt 0.946442 0.659417
vt 0.940019 0.643626
vt 0.940019 0.606374
vt 0.946442 0.590583
vt 0.956053 0.580032
vt 0.978729 0.580032
vt 0.988341 0.590583
vt 0.994763 0.606374
vt 1.000000 0.267857
vt 1.000000 0.339286
vt 1.000000 0.482143
vt 1.000000 0.553571
vt 1.000000 0.017857
vt 1.000000 0.053571
vt 1.000000 0.089286
vt 1.000000 0.125000
vt 1.000000 0.160714
vt 1.000000 0.196429
vt 1.000000 0.232143
vt 0.130435 0.321429
vt -0.000000 0.535714
vt 0.152174 0.035714
vt 0.260870 0.285714
vt 0.260870 0.464286
s 1
usemtl lilboy
f 6/1/1 2/2/1 1/3/1
f 7/4/2 3/5/2 2/2/2
f 8/6/3 4/7/3 3/5/3
f 5/8/4 1/3/4 4/7/4
f 2/2/5 3/5/5 4/7/5
f 32/9/1 36/10/1 40/11/1
f 42/12/6 41/13/6 53/14/6
f 45/15/4 43/16/4 44/17/4
f 49/18/2 50/19/2 48/20/2
f 50/19/6 49/18/6 45/15/6
f 57/21/4 58/22/4 41/23/4
f 59/24/7 60/25/8 26/26/9
f 60/25/8 61/27/10 27/17/11
f 61/27/10 62/28/12 28/29/13
f 62/28/12 63/30/14 29/31/5
f 63/32/14 64/33/15 30/34/16
f 30/34/16 64/33/15 65/35/17
f 31/36/18 65/35/17 66/37/19
f 66/37/19 67/38/20 33/39/4
f 67/38/20 68/40/21 34/41/22
f 34/41/22 68/40/21 69/42/23
f 35/43/24 69/42/23 70/44/25
f 70/44/25 71/45/26 37/46/6
f 71/45/26 72/47/27 38/48/28
f 72/47/27 73/49/29 39/50/30
f 74/51/31 59/24/7 25/52/2
f 73/49/29 74/51/31 40/53/32
f 70/28/25 20/54/33 21/55/34
f 19/56/35 20/54/33 70/27/25
f 19/56/35 69/24/23 68/51/21
f 18/57/36 68/49/21 67/47/20
f 17/58/37 67/45/20 66/44/19
f 16/59/38 66/42/19 65/40/17
f 15/60/39 65/38/17 64/37/15
f 14/61/40 64/35/15 63/33/14
f 12/62/41 13/63/42 63/64/14
f 11/65/43 12/62/41 62/66/12
f 10/67/44 11/65/43 61/68/10
f 9/69/45 10/67/44 60/70/8
f 24/71/46 9/69/45 59/72/7
f 23/73/47 24/71/46 74/74/31
f 22/75/48 23/73/47 73/76/29
f 21/55/34 22/75/48 72/77/27
f 47/78/5 48/79/5 44/17/5
f 83/80/49 87/81/50 75/82/51
f 163/83/24 162/84/24 164/31/24
f 79/85/52 103/86/53 102/87/54
f 79/88/52 78/89/55 104/90/56
f 77/91/57 105/92/58 104/90/56
f 77/93/57 76/94/59 106/95/60
f 76/96/59 75/97/51 91/98/61
f 75/99/51 90/100/62 92/101/63
f 89/102/64 93/103/65 92/101/63
f 89/104/64 88/105/66 94/106/67
f 87/107/50 95/108/68 94/106/67
f 86/109/69 96/110/70 95/111/68
f 85/112/71 97/113/72 96/110/70
f 84/114/73 98/115/74 97/113/72
f 83/116/49 99/117/75 98/115/74
f 82/118/76 100/119/77 99/117/75
f 81/120/78 101/121/79 100/119/77
f 80/122/80 102/87/54 101/121/79
f 99/117/75 100/119/77 18/57/36
f 98/115/74 99/117/75 17/58/37
f 97/113/72 98/115/74 16/59/38
f 96/110/70 97/113/72 15/60/39
f 95/111/68 96/110/70 14/61/40
f 13/63/42 12/62/41 94/106/67
f 103/86/53 104/90/56 22/75/48
f 104/90/56 105/92/58 23/73/47
f 105/92/58 106/95/60 24/71/46
f 106/95/60 91/98/61 9/69/45
f 91/98/61 92/101/63 10/67/44
f 93/103/65 94/106/67 12/62/41
f 92/101/63 93/103/65 11/65/43
f 100/119/77 101/121/79 19/56/35
f 101/121/79 102/87/54 20/54/33
f 102/87/54 103/86/53 21/55/34
f 108/84/24 110/31/24 109/83/24
f 112/83/24 114/123/24 113/84/24
f 116/84/30 117/83/30 118/31/30
f 120/83/30 121/84/30 122/123/30
f 123/124/6 126/125/6 124/126/6
f 127/125/4 128/126/4 129/127/4
f 133/126/6 132/127/6 134/124/6
f 138/125/4 137/126/4 136/127/4
f 141/126/24 140/124/24 142/127/24
f 145/126/30 146/127/30 144/124/30
f 147/125/24 149/126/24 150/127/24
f 151/125/30 153/127/30 152/126/30
f 124/125/24 128/127/24 129/126/24
f 133/125/30 129/127/30 128/126/30
f 136/126/30 137/127/30 124/124/30
f 133/124/24 132/125/24 137/126/24
f 57/21/4 156/128/4 155/129/4
f 51/130/5 155/129/5 156/128/5
f 158/131/5 157/132/5 51/130/5
f 157/132/2 158/131/2 55/133/2
f 55/133/2 160/134/2 159/135/2
f 159/135/6 160/134/6 54/136/6
f 51/137/1 157/138/1 45/16/1
f 56/139/1 159/140/1 43/78/1
f 58/141/1 155/142/1 49/143/1
f 43/78/1 159/140/1 53/144/1
f 54/145/3 160/146/3 44/143/3
f 55/147/3 158/148/3 46/149/3
f 46/149/3 52/150/3 50/15/3
f 50/15/3 57/151/3 48/16/3
f 167/84/24 166/83/24 168/123/24
f 169/123/30 171/83/30 172/31/30
f 175/84/30 176/123/30 174/83/30
f 178/126/6 177/124/6 180/125/6
f 181/125/2 184/124/2 183/127/2
f 188/124/6 187/126/6 186/127/6
f 190/127/2 191/126/2 192/125/2
f 194/124/24 196/127/24 195/126/24
f 198/124/30 199/126/30 200/127/30
f 201/125/24 204/127/24 202/124/24
f 205/125/30 208/124/30 207/127/30
f 182/127/24 183/126/24 178/125/24
f 183/127/30 182/126/30 187/125/30
f 178/124/30 190/126/30 191/127/30
f 190/127/24 186/125/24 191/126/24
f 5/152/1 6/1/1 1/3/1
f 6/153/2 7/4/2 2/2/2
f 7/154/3 8/6/3 3/5/3
f 8/155/4 5/8/4 4/7/4
f 1/3/5 2/2/5 4/7/5
f 40/11/1 25/156/1 26/157/1
f 26/157/1 27/158/1 28/159/1
f 28/159/1 29/160/1 30/161/1
f 30/161/1 31/162/1 28/159/1
f 32/9/1 33/163/1 36/10/1
f 34/164/1 35/165/1 36/10/1
f 36/10/1 37/166/1 40/11/1
f 38/167/1 39/168/1 40/11/1
f 40/11/1 26/157/1 32/9/1
f 28/159/1 31/162/1 32/9/1
f 33/163/1 34/164/1 36/10/1
f 37/166/1 38/167/1 40/11/1
f 26/157/1 28/159/1 32/9/1
f 54/136/6 42/12/6 53/14/6
f 46/169/4 45/15/4 44/17/4
f 47/170/2 49/18/2 48/20/2
f 46/169/6 50/19/6 45/15/6
f 42/171/4 57/21/4 41/23/4
f 25/52/2 59/24/7 26/26/9
f 26/26/9 60/25/8 27/17/11
f 27/17/11 61/27/10 28/29/13
f 28/29/13 62/28/12 29/31/5
f 29/79/5 63/32/14 30/34/16
f 31/36/18 30/34/16 65/35/17
f 32/172/81 31/36/18 66/37/19
f 32/172/81 66/37/19 33/39/4
f 33/39/4 67/38/20 34/41/22
f 35/43/24 34/41/22 69/42/23
f 36/173/82 35/43/24 70/44/25
f 36/173/82 70/44/25 37/46/6
f 37/46/6 71/45/26 38/48/28
f 38/48/28 72/47/27 39/50/30
f 40/53/32 74/51/31 25/52/2
f 39/50/30 73/49/29 40/53/32
f 71/30/26 70/28/25 21/55/34
f 69/25/23 19/56/35 70/27/25
f 18/57/36 19/56/35 68/51/21
f 17/58/37 18/57/36 67/47/20
f 16/59/38 17/58/37 66/44/19
f 15/60/39 16/59/38 65/40/17
f 14/61/40 15/60/39 64/37/15
f 13/174/42 14/61/40 63/33/14
f 62/175/12 12/62/41 63/64/14
f 61/176/10 11/65/43 62/66/12
f 60/177/8 10/67/44 61/68/10
f 59/178/7 9/69/45 60/70/8
f 74/179/31 24/71/46 59/72/7
f 73/180/29 23/73/47 74/74/31
f 72/181/27 22/75/48 73/76/29
f 71/182/26 21/55/34 72/77/27
f 43/16/5 47/78/5 44/17/5
f 75/82/51 76/183/59 77/184/57
f 77/184/57 78/185/55 79/186/52
f 79/186/52 80/187/80 81/188/78
f 81/188/78 82/189/76 83/80/49
f 83/80/49 84/190/73 87/81/50
f 85/191/71 86/192/69 87/81/50
f 87/81/50 88/193/66 89/194/64
f 89/194/64 90/195/62 87/81/50
f 75/82/51 77/184/57 79/186/52
f 79/186/52 81/188/78 83/80/49
f 84/190/73 85/191/71 87/81/50
f 87/81/50 90/195/62 75/82/51
f 75/82/51 79/186/52 83/80/49
f 161/123/24 162/84/24 163/83/24
f 80/196/80 79/85/52 102/87/54
f 103/86/53 79/88/52 104/90/56
f 78/197/55 77/91/57 104/90/56
f 105/92/58 77/93/57 106/95/60
f 106/95/60 76/96/59 91/98/61
f 91/98/61 75/99/51 92/101/63
f 90/198/62 89/102/64 92/101/63
f 93/103/65 89/104/64 94/106/67
f 88/199/66 87/107/50 94/106/67
f 87/200/50 86/109/69 95/111/68
f 86/201/69 85/112/71 96/110/70
f 85/202/71 84/114/73 97/113/72
f 84/203/73 83/116/49 98/115/74
f 83/204/49 82/118/76 99/117/75
f 82/205/76 81/120/78 100/119/77
f 81/206/78 80/122/80 101/121/79
f 17/58/37 99/117/75 18/57/36
f 16/59/38 98/115/74 17/58/37
f 15/60/39 97/113/72 16/59/38
f 14/61/40 96/110/70 15/60/39
f 13/174/42 95/111/68 14/61/40
f 95/108/68 13/63/42 94/106/67
f 21/55/34 103/86/53 22/75/48
f 22/75/48 104/90/56 23/73/47
f 23/73/47 105/92/58 24/71/46
f 24/71/46 106/95/60 9/69/45
f 9/69/45 91/98/61 10/67/44
f 11/65/43 93/103/65 12/62/41
f 10/67/44 92/101/63 11/65/43
f 18/57/36 100/119/77 19/56/35
f 19/56/35 101/121/79 20/54/33
f 20/54/33 102/87/54 21/55/34
f 107/123/24 108/84/24 109/83/24
f 111/31/24 112/83/24 113/84/24
f 115/123/30 117/83/30 116/84/30
f 119/31/30 121/84/30 120/83/30
f 125/127/6 123/124/6 124/126/6
f 130/124/4 127/125/4 129/127/4
f 131/125/6 133/126/6 134/124/6
f 135/124/4 138/125/4 136/127/4
f 139/125/24 140/124/24 141/126/24
f 143/125/30 145/126/30 144/124/30
f 148/124/24 147/125/24 150/127/24
f 154/124/30 153/127/30 151/125/30
f 125/124/24 128/127/24 124/125/24
f 132/124/30 129/127/30 133/125/30
f 125/125/30 136/126/30 124/124/30
f 136/127/24 133/124/24 137/126/24
f 58/22/4 57/21/4 155/129/4
f 52/207/5 51/130/5 156/128/5
f 52/207/5 158/131/5 51/130/5
f 56/208/2 157/132/2 55/133/2
f 56/208/2 55/133/2 159/135/2
f 53/14/6 159/135/6 54/136/6
f 45/16/1 49/143/1 51/137/1
f 155/142/1 51/137/1 49/143/1
f 43/78/1 45/16/1 56/139/1
f 157/138/1 56/139/1 45/16/1
f 49/143/1 47/171/1 58/141/1
f 41/209/1 58/141/1 47/171/1
f 53/144/1 41/209/1 47/171/1
f 47/171/1 43/78/1 53/144/1
f 44/143/3 48/16/3 54/145/3
f 42/210/3 54/145/3 48/16/3
f 46/149/3 44/143/3 55/147/3
f 160/146/3 55/147/3 44/143/3
f 156/211/3 50/15/3 52/150/3
f 46/149/3 158/148/3 52/150/3
f 42/210/3 48/16/3 57/151/3
f 50/15/3 156/211/3 57/151/3
f 165/31/24 166/83/24 167/84/24
f 170/84/30 169/123/30 172/31/30
f 173/31/30 175/84/30 174/83/30
f 179/127/6 177/124/6 178/126/6
f 182/126/2 181/125/2 183/127/2
f 185/125/6 187/126/6 188/124/6
f 189/124/2 190/127/2 192/125/2
f 193/125/24 194/124/24 195/126/24
f 197/125/30 199/126/30 198/124/30
f 203/126/24 204/127/24 201/125/24
f 206/126/30 205/125/30 207/127/30
f 179/124/24 182/127/24 178/125/24
f 186/124/30 183/127/30 187/125/30
f 179/125/30 190/126/30 178/124/30
f 187/124/24 186/125/24 190/127/24
