# Blender 4.5.9 LTS
# www.blender.org
mtllib pigeon.mtl
o head.001
v 0.062500 0.593750 0.031250
v 0.062500 0.593750 -0.093750
v 0.062500 0.406250 0.031250
v 0.062500 0.406250 -0.093750
v -0.062500 0.593750 -0.093750
v -0.062500 0.593750 0.031250
v -0.062500 0.406250 -0.093750
v -0.062500 0.406250 0.031250
v -0.062500 0.593750 -0.093750
v 0.062500 0.593750 -0.093750
v -0.062500 0.593750 0.031250
v 0.062500 0.593750 0.031250
v -0.062500 0.406250 0.031250
v 0.062500 0.406250 0.031250
v -0.062500 0.406250 -0.093750
v 0.062500 0.406250 -0.093750
v -0.062500 0.593750 0.031250
v 0.062500 0.593750 0.031250
v -0.062500 0.406250 0.031250
v 0.062500 0.406250 0.031250
v 0.062500 0.593750 -0.093750
v -0.062500 0.593750 -0.093750
v 0.062500 0.406250 -0.093750
v -0.062500 0.406250 -0.093750
vn 1.0000 -0.0000 -0.0000
vn -1.0000 -0.0000 -0.0000
vn -0.0000 1.0000 -0.0000
vn -0.0000 -1.0000 -0.0000
vn -0.0000 -0.0000 1.0000
vn -0.0000 -0.0000 -1.0000
vt 0.062988 0.125488
vt 0.062988 0.218262
vt 0.124512 0.125488
vt 0.124512 0.218262
vt 0.187988 0.125488
vt 0.187988 0.218262
vt 0.249512 0.125488
vt 0.249512 0.218262
vt 0.187012 0.124512
vt 0.187012 0.062988
vt 0.125488 0.124512
vt 0.125488 0.062988
vt 0.249512 0.062988
vt 0.249512 0.124512
vt 0.187988 0.062988
vt 0.187988 0.124512
vt 0.250488 0.125488
vt 0.250488 0.218262
vt 0.312012 0.125488
vt 0.312012 0.218262
vt 0.125488 0.125488
vt 0.125488 0.218262
vt 0.187012 0.125488
vt 0.187012 0.218262
s 0
usemtl Material_0
f 1/1/1 3/2/1 2/3/1
f 3/2/1 4/4/1 2/3/1
f 5/5/2 7/6/2 6/7/2
f 7/6/2 8/8/2 6/7/2
f 9/9/3 11/10/3 10/11/3
f 11/10/3 12/12/3 10/11/3
f 13/13/4 15/14/4 14/15/4
f 15/14/4 16/16/4 14/15/4
f 17/17/5 19/18/5 18/19/5
f 19/18/5 20/20/5 18/19/5
f 21/21/6 23/22/6 22/23/6
f 23/22/6 24/24/6 22/23/6
o head.002
v 0.031250 0.593750 -0.093750
v 0.031250 0.593750 -0.156250
v 0.031250 0.468750 -0.093750
v 0.031250 0.468750 -0.156250
v -0.031250 0.593750 -0.156250
v -0.031250 0.593750 -0.093750
v -0.031250 0.468750 -0.156250
v -0.031250 0.468750 -0.093750
v -0.031250 0.593750 -0.156250
v 0.031250 0.593750 -0.156250
v -0.031250 0.593750 -0.093750
v 0.031250 0.593750 -0.093750
v -0.031250 0.468750 -0.093750
v 0.031250 0.468750 -0.093750
v -0.031250 0.468750 -0.156250
v 0.031250 0.468750 -0.156250
v -0.031250 0.593750 -0.093750
v 0.031250 0.593750 -0.093750
v -0.031250 0.468750 -0.093750
v 0.031250 0.468750 -0.093750
v 0.031250 0.593750 -0.156250
v -0.031250 0.593750 -0.156250
v 0.031250 0.468750 -0.156250
v -0.031250 0.468750 -0.156250
vn 1.0000 -0.0000 -0.0000
vn -1.0000 -0.0000 -0.0000
vn -0.0000 1.0000 -0.0000
vn -0.0000 -1.0000 -0.0000
vn -0.0000 -0.0000 1.0000
vn -0.0000 -0.0000 -1.0000
vt 0.344238 0.250488
vt 0.344238 0.312012
vt 0.374512 0.250488
vt 0.374512 0.312012
vt 0.406738 0.250488
vt 0.406738 0.312012
vt 0.437012 0.250488
vt 0.437012 0.312012
vt 0.405762 0.249512
vt 0.405762 0.219238
vt 0.375488 0.249512
vt 0.375488 0.219238
vt 0.437012 0.219238
vt 0.437012 0.249512
vt 0.406738 0.219238
vt 0.406738 0.249512
vt 0.437988 0.250488
vt 0.437988 0.312012
vt 0.468262 0.250488
vt 0.468262 0.312012
vt 0.375488 0.250488
vt 0.375488 0.312012
vt 0.405762 0.250488
vt 0.405762 0.312012
s 0
usemtl Material_0
f 25/25/7 27/26/7 26/27/7
f 27/26/7 28/28/7 26/27/7
f 29/29/8 31/30/8 30/31/8
f 31/30/8 32/32/8 30/31/8
f 33/33/9 35/34/9 34/35/9
f 35/34/9 36/36/9 34/35/9
f 37/37/10 39/38/10 38/39/10
f 39/38/10 40/40/10 38/39/10
f 41/41/11 43/42/11 42/43/11
f 43/42/11 44/44/11 42/43/11
f 45/45/12 47/46/12 46/47/12
f 47/46/12 48/48/12 46/47/12
o head.003
v 0.030625 0.546250 -0.153750
v 0.030625 0.546250 -0.215000
v 0.030625 0.485000 -0.153750
v 0.030625 0.485000 -0.215000
v -0.030625 0.546250 -0.215000
v -0.030625 0.546250 -0.153750
v -0.030625 0.485000 -0.215000
v -0.030625 0.485000 -0.153750
v -0.030625 0.546250 -0.215000
v 0.030625 0.546250 -0.215000
v -0.030625 0.546250 -0.153750
v 0.030625 0.546250 -0.153750
v -0.030625 0.485000 -0.153750
v 0.030625 0.485000 -0.153750
v -0.030625 0.485000 -0.215000
v 0.030625 0.485000 -0.215000
v -0.030625 0.546250 -0.153750
v 0.030625 0.546250 -0.153750
v -0.030625 0.485000 -0.153750
v 0.030625 0.485000 -0.153750
v 0.030625 0.546250 -0.215000
v -0.030625 0.546250 -0.215000
v 0.030625 0.485000 -0.215000
v -0.030625 0.485000 -0.215000
vn 1.0000 -0.0000 -0.0000
vn -1.0000 -0.0000 -0.0000
vn -0.0000 1.0000 -0.0000
vn -0.0000 -1.0000 -0.0000
vn -0.0000 -0.0000 1.0000
vn -0.0000 -0.0000 -1.0000
vt 0.500488 0.250488
vt 0.500488 0.280762
vt 0.530762 0.250488
vt 0.530762 0.280762
vt 0.562988 0.250488
vt 0.562988 0.280762
vt 0.593262 0.250488
vt 0.593262 0.280762
vt 0.562012 0.249512
vt 0.562012 0.219238
vt 0.531738 0.249512
vt 0.531738 0.219238
vt 0.593262 0.219238
vt 0.593262 0.249512
vt 0.562988 0.219238
vt 0.562988 0.249512
vt 0.594238 0.250488
vt 0.594238 0.280762
vt 0.624512 0.250488
vt 0.624512 0.280762
vt 0.531738 0.250488
vt 0.531738 0.280762
vt 0.562012 0.250488
vt 0.562012 0.280762
s 0
usemtl Material_0
f 49/49/13 51/50/13 50/51/13
f 51/50/13 52/52/13 50/51/13
f 53/53/14 55/54/14 54/55/14
f 55/54/14 56/56/14 54/55/14
f 57/57/15 59/58/15 58/59/15
f 59/58/15 60/60/15 58/59/15
f 61/61/16 63/62/16 62/63/16
f 63/62/16 64/64/16 62/63/16
f 65/65/17 67/66/17 66/67/17
f 67/66/17 68/68/17 66/67/17
f 69/69/18 71/70/18 70/71/18
f 71/70/18 72/72/18 70/71/18
o body.001
v 0.093750 0.483180 -0.034781
v 0.093750 0.396602 -0.201095
v 0.093750 0.150551 0.138375
v 0.093750 0.063973 -0.027940
v -0.093750 0.396602 -0.201095
v -0.093750 0.483180 -0.034781
v -0.093750 0.063973 -0.027940
v -0.093750 0.150551 0.138375
v -0.093750 0.396602 -0.201095
v 0.093750 0.396602 -0.201095
v -0.093750 0.483180 -0.034781
v 0.093750 0.483180 -0.034781
v -0.093750 0.150551 0.138375
v 0.093750 0.150551 0.138375
v -0.093750 0.063973 -0.027940
v 0.093750 0.063973 -0.027940
v -0.093750 0.483180 -0.034781
v 0.093750 0.483180 -0.034781
v -0.093750 0.150551 0.138375
v 0.093750 0.150551 0.138375
v 0.093750 0.396602 -0.201095
v -0.093750 0.396602 -0.201095
v 0.093750 0.063973 -0.027940
v -0.093750 0.063973 -0.027940
vn 1.0000 -0.0000 -0.0000
vn -1.0000 -0.0000 -0.0000
vn -0.0000 0.8870 -0.4617
vn -0.0000 -0.8870 0.4617
vn -0.0000 0.4617 0.8870
vn -0.0000 -0.4617 -0.8870
vt 0.062988 0.344238
vt 0.062988 0.530762
vt 0.155762 0.344238
vt 0.155762 0.530762
vt 0.250488 0.344238
vt 0.250488 0.530762
vt 0.343262 0.344238
vt 0.343262 0.530762
vt 0.249512 0.343262
vt 0.249512 0.250488
vt 0.156738 0.343262
vt 0.156738 0.250488
vt 0.343262 0.250488
vt 0.343262 0.343262
vt 0.250488 0.250488
vt 0.250488 0.343262
vt 0.344238 0.344238
vt 0.344238 0.530762
vt 0.437012 0.344238
vt 0.437012 0.530762
vt 0.156738 0.344238
vt 0.156738 0.530762
vt 0.249512 0.344238
vt 0.249512 0.530762
s 0
usemtl Material_0
f 73/73/19 75/74/19 74/75/19
f 75/74/19 76/76/19 74/75/19
f 77/77/20 79/78/20 78/79/20
f 79/78/20 80/80/20 78/79/20
f 81/81/21 83/82/21 82/83/21
f 83/82/21 84/84/21 82/83/21
f 85/85/22 87/86/22 86/87/22
f 87/86/22 88/88/22 86/87/22
f 89/89/23 91/90/23 90/91/23
f 91/90/23 92/92/23 90/91/23
f 93/93/24 95/94/24 94/95/24
f 95/94/24 96/96/24 94/95/24
o left_wing_rotation.001
v -0.125000 0.339363 -0.162181
v -0.125000 0.466036 -0.023941
v -0.125000 0.108964 0.048941
v -0.125000 0.235637 0.187181
v -0.062500 0.466036 -0.023941
v -0.062500 0.339363 -0.162181
v -0.062500 0.235637 0.187181
v -0.062500 0.108964 0.048941
v -0.062500 0.466036 -0.023941
v -0.125000 0.466036 -0.023941
v -0.062500 0.339363 -0.162181
v -0.125000 0.339363 -0.162181
v -0.062500 0.108964 0.048941
v -0.125000 0.108964 0.048941
v -0.062500 0.235637 0.187181
v -0.125000 0.235637 0.187181
v -0.062500 0.339363 -0.162181
v -0.125000 0.339363 -0.162181
v -0.062500 0.108964 0.048941
v -0.125000 0.108964 0.048941
v -0.125000 0.466036 -0.023941
v -0.062500 0.466036 -0.023941
v -0.125000 0.235637 0.187181
v -0.062500 0.235637 0.187181
vn -1.0000 -0.0000 -0.0000
vn 1.0000 -0.0000 -0.0000
vn -0.0000 0.7373 -0.6756
vn -0.0000 -0.7373 0.6756
vn -0.0000 -0.6756 -0.7373
vn -0.0000 0.6756 0.7373
vt 0.594238 0.344238
vt 0.594238 0.499512
vt 0.687012 0.344238
vt 0.687012 0.499512
vt 0.719238 0.344238
vt 0.719238 0.499512
vt 0.812012 0.344238
vt 0.812012 0.499512
vt 0.718262 0.343262
vt 0.718262 0.250488
vt 0.687988 0.343262
vt 0.687988 0.250488
vt 0.749512 0.250488
vt 0.749512 0.343262
vt 0.719238 0.250488
vt 0.719238 0.343262
vt 0.812988 0.344238
vt 0.812988 0.499512
vt 0.843262 0.344238
vt 0.843262 0.499512
vt 0.687988 0.344238
vt 0.687988 0.499512
vt 0.718262 0.344238
vt 0.718262 0.499512
s 0
usemtl Material_0
f 97/97/25 99/98/25 98/99/25
f 99/98/25 100/100/25 98/99/25
f 101/101/26 103/102/26 102/103/26
f 103/102/26 104/104/26 102/103/26
f 105/105/27 107/106/27 106/107/27
f 107/106/27 108/108/27 106/107/27
f 109/109/28 111/110/28 110/111/28
f 111/110/28 112/112/28 110/111/28
f 113/113/29 115/114/29 114/115/29
f 115/114/29 116/116/29 114/115/29
f 117/117/30 119/118/30 118/119/30
f 119/118/30 120/120/30 118/119/30
o right_wing_rotation.001
v 0.069389 0.339518 -0.163228
v 0.063824 0.466050 -0.024971
v 0.061225 0.108903 0.047500
v 0.055660 0.235435 0.185757
v 0.126275 0.466097 -0.022500
v 0.131840 0.339565 -0.160757
v 0.118111 0.235482 0.188228
v 0.123676 0.108950 0.049971
v 0.126275 0.466097 -0.022500
v 0.063824 0.466050 -0.024971
v 0.131840 0.339565 -0.160757
v 0.069389 0.339518 -0.163228
v 0.123676 0.108950 0.049971
v 0.061225 0.108903 0.047500
v 0.118111 0.235482 0.188228
v 0.055660 0.235435 0.185757
v 0.131840 0.339565 -0.160757
v 0.069389 0.339518 -0.163228
v 0.123676 0.108950 0.049971
v 0.061225 0.108903 0.047500
v 0.063824 0.466050 -0.024971
v 0.126275 0.466097 -0.022500
v 0.055660 0.235435 0.185757
v 0.118111 0.235482 0.188228
vn -0.9992 -0.0008 -0.0395
vn 0.9992 0.0008 0.0395
vn 0.0261 0.7380 -0.6743
vn -0.0261 -0.7380 0.6743
vn 0.0297 -0.6748 -0.7374
vn -0.0297 0.6748 0.7374
vt 0.594238 0.344238
vt 0.594238 0.499512
vt 0.687012 0.344238
vt 0.687012 0.499512
vt 0.719238 0.344238
vt 0.719238 0.499512
vt 0.812012 0.344238
vt 0.812012 0.499512
vt 0.718262 0.343262
vt 0.718262 0.250488
vt 0.687988 0.343262
vt 0.687988 0.250488
vt 0.749512 0.250488
vt 0.749512 0.343262
vt 0.719238 0.250488
vt 0.719238 0.343262
vt 0.812988 0.344238
vt 0.812988 0.499512
vt 0.843262 0.344238
vt 0.843262 0.499512
vt 0.687988 0.344238
vt 0.687988 0.499512
vt 0.718262 0.344238
vt 0.718262 0.499512
s 0
usemtl Material_0
f 121/121/31 123/122/31 122/123/31
f 123/122/31 124/124/31 122/123/31
f 125/125/32 127/126/32 126/127/32
f 127/126/32 128/128/32 126/127/32
f 129/129/33 131/130/33 130/131/33
f 131/130/33 132/132/33 130/131/33
f 133/133/34 135/134/34 134/135/34
f 135/134/34 136/136/34 134/135/34
f 137/137/35 139/138/35 138/139/35
f 139/138/35 140/140/35 138/139/35
f 141/141/36 143/142/36 142/143/36
f 143/142/36 144/144/36 142/143/36
o left_leg.001
v 0.093750 0.125000 -0.031250
v 0.093750 0.125000 -0.093750
v 0.093750 0.000000 -0.031250
v 0.093750 0.000000 -0.093750
v 0.031250 0.125000 -0.093750
v 0.031250 0.125000 -0.031250
v 0.031250 0.000000 -0.093750
v 0.031250 0.000000 -0.031250
v 0.031250 0.125000 -0.093750
v 0.093750 0.125000 -0.093750
v 0.031250 0.125000 -0.031250
v 0.093750 0.125000 -0.031250
v 0.031250 0.000000 -0.031250
v 0.093750 0.000000 -0.031250
v 0.031250 0.000000 -0.093750
v 0.093750 0.000000 -0.093750
v 0.031250 0.125000 -0.031250
v 0.093750 0.125000 -0.031250
v 0.031250 0.000000 -0.031250
v 0.093750 0.000000 -0.031250
v 0.093750 0.125000 -0.093750
v 0.031250 0.125000 -0.093750
v 0.093750 0.000000 -0.093750
v 0.031250 0.000000 -0.093750
vn 1.0000 -0.0000 -0.0000
vn -1.0000 -0.0000 -0.0000
vn -0.0000 1.0000 -0.0000
vn -0.0000 -1.0000 -0.0000
vn -0.0000 -0.0000 1.0000
vn -0.0000 -0.0000 -1.0000
vt 0.437988 0.594238
vt 0.437988 0.655762
vt 0.468262 0.594238
vt 0.468262 0.655762
vt 0.500488 0.594238
vt 0.500488 0.655762
vt 0.530762 0.594238
vt 0.530762 0.655762
vt 0.499512 0.593262
vt 0.499512 0.562988
vt 0.469238 0.593262
vt 0.469238 0.562988
vt 0.530762 0.562988
vt 0.530762 0.593262
vt 0.500488 0.562988
vt 0.500488 0.593262
vt 0.531738 0.594238
vt 0.531738 0.655762
vt 0.562012 0.594238
vt 0.562012 0.655762
vt 0.469238 0.594238
vt 0.469238 0.655762
vt 0.499512 0.594238
vt 0.499512 0.655762
s 0
usemtl Material_0
f 145/145/37 147/146/37 146/147/37
f 147/146/37 148/148/37 146/147/37
f 149/149/38 151/150/38 150/151/38
f 151/150/38 152/152/38 150/151/38
f 153/153/39 155/154/39 154/155/39
f 155/154/39 156/156/39 154/155/39
f 157/157/40 159/158/40 158/159/40
f 159/158/40 160/160/40 158/159/40
f 161/161/41 163/162/41 162/163/41
f 163/162/41 164/164/41 162/163/41
f 165/165/42 167/166/42 166/167/42
f 167/166/42 168/168/42 166/167/42
o right_leg.001
v -0.031250 0.125000 -0.031250
v -0.031250 0.125000 -0.093750
v -0.031250 0.000000 -0.031250
v -0.031250 0.000000 -0.093750
v -0.093750 0.125000 -0.093750
v -0.093750 0.125000 -0.031250
v -0.093750 0.000000 -0.093750
v -0.093750 0.000000 -0.031250
v -0.093750 0.125000 -0.093750
v -0.031250 0.125000 -0.093750
v -0.093750 0.125000 -0.031250
v -0.031250 0.125000 -0.031250
v -0.093750 0.000000 -0.031250
v -0.031250 0.000000 -0.031250
v -0.093750 0.000000 -0.093750
v -0.031250 0.000000 -0.093750
v -0.093750 0.125000 -0.031250
v -0.031250 0.125000 -0.031250
v -0.093750 0.000000 -0.031250
v -0.031250 0.000000 -0.031250
v -0.031250 0.125000 -0.093750
v -0.093750 0.125000 -0.093750
v -0.031250 0.000000 -0.093750
v -0.093750 0.000000 -0.093750
vn 1.0000 -0.0000 -0.0000
vn -1.0000 -0.0000 -0.0000
vn -0.0000 1.0000 -0.0000
vn -0.0000 -1.0000 -0.0000
vn -0.0000 -0.0000 1.0000
vn -0.0000 -0.0000 -1.0000
vt 0.437988 0.594238
vt 0.437988 0.655762
vt 0.468262 0.594238
vt 0.468262 0.655762
vt 0.500488 0.594238
vt 0.500488 0.655762
vt 0.530762 0.594238
vt 0.530762 0.655762
vt 0.499512 0.593262
vt 0.499512 0.562988
vt 0.469238 0.593262
vt 0.469238 0.562988
vt 0.530762 0.562988
vt 0.530762 0.593262
vt 0.500488 0.562988
vt 0.500488 0.593262
vt 0.531738 0.594238
vt 0.531738 0.655762
vt 0.562012 0.594238
vt 0.562012 0.655762
vt 0.469238 0.594238
vt 0.469238 0.655762
vt 0.499512 0.594238
vt 0.499512 0.655762
s 0
usemtl Material_0
f 169/169/43 171/170/43 170/171/43
f 171/170/43 172/172/43 170/171/43
f 173/173/44 175/174/44 174/175/44
f 175/174/44 176/176/44 174/175/44
f 177/177/45 179/178/45 178/179/45
f 179/178/45 180/180/45 178/179/45
f 181/181/46 183/182/46 182/183/46
f 183/182/46 184/184/46 182/183/46
f 185/185/47 187/186/47 186/187/47
f 187/186/47 188/188/47 186/187/47
f 189/189/48 191/190/48 190/191/48
f 191/190/48 192/192/48 190/191/48
o tail.001
v 0.093750 0.221424 0.027122
v 0.093750 0.173546 -0.013052
v 0.093750 0.060727 0.218633
v 0.093750 0.012850 0.178459
v -0.093750 0.173546 -0.013052
v -0.093750 0.221424 0.027122
v -0.093750 0.012850 0.178459
v -0.093750 0.060727 0.218633
v -0.093750 0.173546 -0.013052
v 0.093750 0.173546 -0.013052
v -0.093750 0.221424 0.027122
v 0.093750 0.221424 0.027122
v -0.093750 0.060727 0.218633
v 0.093750 0.060727 0.218633
v -0.093750 0.012850 0.178459
v 0.093750 0.012850 0.178459
v -0.093750 0.221424 0.027122
v 0.093750 0.221424 0.027122
v -0.093750 0.060727 0.218633
v 0.093750 0.060727 0.218633
v 0.093750 0.173546 -0.013052
v -0.093750 0.173546 -0.013052
v 0.093750 0.012850 0.178459
v -0.093750 0.012850 0.178459
vn 1.0000 -0.0000 -0.0000
vn -1.0000 -0.0000 -0.0000
vn -0.0000 0.6428 -0.7660
vn -0.0000 -0.6428 0.7660
vn -0.0000 0.7660 0.6428
vn -0.0000 -0.7660 -0.6428
vt 0.687988 0.062988
vt 0.687988 0.187012
vt 0.718262 0.062988
vt 0.718262 0.187012
vt 0.812988 0.062988
vt 0.812988 0.187012
vt 0.843262 0.062988
vt 0.843262 0.187012
vt 0.812012 0.062012
vt 0.812012 0.031738
vt 0.719238 0.062012
vt 0.719238 0.031738
vt 0.905762 0.031738
vt 0.905762 0.062012
vt 0.812988 0.031738
vt 0.812988 0.062012
vt 0.844238 0.062988
vt 0.844238 0.187012
vt 0.937012 0.062988
vt 0.937012 0.187012
vt 0.719238 0.062988
vt 0.719238 0.187012
vt 0.812012 0.062988
vt 0.812012 0.187012
s 0
usemtl Material_0
f 193/193/49 195/194/49 194/195/49
f 195/194/49 196/196/49 194/195/49
f 197/197/50 199/198/50 198/199/50
f 199/198/50 200/200/50 198/199/50
f 201/201/51 203/202/51 202/203/51
f 203/202/51 204/204/51 202/203/51
f 205/205/52 207/206/52 206/207/52
f 207/206/52 208/208/52 206/207/52
f 209/209/53 211/210/53 210/211/53
f 211/210/53 212/212/53 210/211/53
f 213/213/54 215/214/54 214/215/54
f 215/214/54 216/216/54 214/215/54
