# Blender 4.5.14 LTS
# www.blender.org
mtllib blyat.mtl
o Text.001
v -0.150000 1.000000 -1.029868
v -0.150000 1.000000 -1.122558
v -0.150000 0.147292 -1.122558
v -0.150000 0.147292 -1.289783
v -0.150000 0.127982 -1.390715
v -0.150000 0.070051 -1.459397
v -0.150000 -0.021080 -1.504548
v -0.150000 -0.139991 -1.534887
v -0.150000 -0.274825 -1.552088
v -0.150000 -0.413723 -1.557821
v -0.150000 -0.629863 -1.543966
v -0.150000 -0.817546 -1.502398
v -0.150000 -0.947636 -1.423085
v -0.150000 -0.991000 -1.295995
v -0.150000 -0.991000 -1.029868
v -0.150000 -0.767407 -1.122558
v -0.150000 -0.767407 -1.292172
v -0.150000 -0.741490 -1.377397
v -0.150000 -0.663741 -1.426669
v -0.150000 -0.549404 -1.450140
v -0.150000 -0.413723 -1.457964
v -0.150000 -0.303451 -1.452290
v -0.150000 -0.211134 -1.435269
v -0.150000 -0.142532 -1.408812
v -0.150000 -0.103403 -1.374829
v -0.150000 -0.085109 -1.323945
v -0.150000 -0.079011 -1.246783
v -0.150000 -0.079011 -1.122558
v -0.150000 -1.000000 -0.607027
v -0.150000 0.765566 -0.607027
v -0.150000 0.765566 -0.376256
v -0.150000 1.000000 -0.376256
v -0.150000 1.000000 -0.931444
v -0.150000 0.765566 -0.931444
v -0.150000 0.765566 -0.699718
v -0.150000 -1.000000 -0.699718
v -0.150000 -1.000000 -0.276399
v -0.150000 1.000000 -0.276399
v -0.150000 1.000000 0.034162
v -0.150000 0.986618 0.116580
v -0.150000 0.946473 0.176542
v -0.150000 0.872450 0.220379
v -0.150000 0.757435 0.254421
v -0.150000 0.614810 0.276280
v -0.150000 0.453547 0.283566
v -0.150000 0.258750 0.271502
v -0.150000 0.097153 0.235310
v -0.150000 -0.021419 0.173914
v -0.150000 -0.087142 0.086240
v -0.150000 -0.136942 0.118610
v -0.150000 -0.186065 0.142141
v -0.150000 -0.304976 0.181678
v -0.150000 -0.459311 0.219065
v -0.150000 -1.000000 0.340900
v -0.150000 -1.000000 0.224320
v -0.150000 -0.586692 0.131630
v -0.150000 -0.428821 0.094602
v -0.150000 -0.303960 0.064740
v -0.150000 -0.223330 0.039835
v -0.150000 -0.171159 0.017678
v -0.150000 -0.138975 -0.003285
v -0.150000 -0.118310 -0.024606
v -0.150000 -0.111195 -0.045390
v -0.150000 -0.108824 -0.076207
v -0.150000 -0.108824 -0.183709
v -0.150000 -1.000000 -0.183709
v -0.150000 0.118835 -0.183709
v -0.150000 0.118835 0.015528
v -0.150000 0.128151 0.072146
v -0.150000 0.156100 0.114908
v -0.150000 0.204545 0.146441
v -0.150000 0.275350 0.169375
v -0.150000 0.360891 0.183350
v -0.150000 0.453547 0.188009
v -0.150000 0.586353 0.178991
v -0.150000 0.689680 0.151936
v -0.150000 0.757774 0.105412
v -0.150000 0.780472 0.037984
v -0.150000 0.780472 -0.183709
v -0.150000 1.000000 0.868854
v -0.150000 1.000000 0.430246
v -0.150000 -1.000000 0.430246
v -0.150000 -1.000000 0.522937
v -0.150000 0.765566 0.522937
v -0.150000 0.765566 0.776163
v -0.150000 -0.261951 0.776163
v -0.150000 -0.540957 0.778731
v -0.150000 -0.687984 0.786436
v -0.150000 -0.816889 0.802382
v -0.150000 -0.913610 0.829675
v -0.150000 -0.974081 0.867062
v -0.150000 -0.994239 0.913288
v -0.150000 -0.986108 0.946972
v -0.150000 -0.961716 0.986867
v -0.150000 -0.728637 0.971100
v -0.150000 -0.748964 0.949838
v -0.150000 -0.755739 0.931921
v -0.150000 -0.738970 0.904329
v -0.150000 -0.688661 0.884621
v -0.150000 -0.576018 0.872796
v -0.150000 -0.411882 0.868854
v -0.150000 1.000000 1.557821
v -0.150000 1.000000 1.103447
v -0.150000 0.765566 1.103447
v -0.150000 0.765566 1.465131
v -0.150000 0.148647 1.465131
v -0.150000 0.148647 1.297906
v -0.150000 0.136112 1.214711
v -0.150000 0.098508 1.150509
v -0.150000 0.026179 1.101237
v -0.150000 -0.090530 1.062835
v -0.150000 -0.240778 1.038109
v -0.150000 -0.422723 1.029868
v -0.150000 -0.568228 1.035780
v -0.150000 -0.703909 1.053518
v -0.150000 -0.822650 1.082962
v -0.150000 -0.917338 1.123991
v -0.150000 -0.979335 1.187298
v -0.150000 -1.000000 1.283572
v -0.150000 -1.000000 1.557821
v -0.150000 -0.776407 1.465131
v -0.150000 -0.776407 1.279750
v -0.150000 -0.754725 1.214114
v -0.150000 -0.689680 1.167231
v -0.150000 -0.581271 1.139102
v -0.150000 -0.429499 1.129725
v -0.150000 -0.307347 1.135100
v -0.150000 -0.214522 1.151225
v -0.150000 -0.145751 1.176906
v -0.150000 -0.104758 1.210948
v -0.150000 -0.084432 1.262669
v -0.150000 -0.077656 1.341384
v -0.150000 -0.077656 1.465131
v 0.150000 1.000000 -1.029868
v 0.150000 1.000000 -1.122558
v 0.150000 0.147292 -1.122558
v 0.150000 0.147292 -1.289783
v 0.150000 0.127982 -1.390715
v 0.150000 0.070051 -1.459397
v 0.150000 -0.021080 -1.504548
v 0.150000 -0.139991 -1.534887
v 0.150000 -0.274825 -1.552088
v 0.150000 -0.413723 -1.557821
v 0.150000 -0.629863 -1.543966
v 0.150000 -0.817546 -1.502398
v 0.150000 -0.947636 -1.423085
v 0.150000 -0.991000 -1.295995
v 0.150000 -0.991000 -1.029868
v 0.150000 -0.767407 -1.122558
v 0.150000 -0.767407 -1.292172
v 0.150000 -0.741490 -1.377397
v 0.150000 -0.663741 -1.426669
v 0.150000 -0.549404 -1.450140
v 0.150000 -0.413723 -1.457964
v 0.150000 -0.303451 -1.452290
v 0.150000 -0.211134 -1.435269
v 0.150000 -0.142532 -1.408812
v 0.150000 -0.103403 -1.374829
v 0.150000 -0.085109 -1.323945
v 0.150000 -0.079011 -1.246783
v 0.150000 -0.079011 -1.122558
v 0.150000 -1.000000 -0.607027
v 0.150000 0.765566 -0.607027
v 0.150000 0.765566 -0.376256
v 0.150000 1.000000 -0.376256
v 0.150000 1.000000 -0.931444
v 0.150000 0.765566 -0.931444
v 0.150000 0.765566 -0.699718
v 0.150000 -1.000000 -0.699718
v 0.150000 -1.000000 -0.276399
v 0.150000 1.000000 -0.276399
v 0.150000 1.000000 0.034162
v 0.150000 0.986618 0.116580
v 0.150000 0.946473 0.176542
v 0.150000 0.872450 0.220379
v 0.150000 0.757435 0.254421
v 0.150000 0.614810 0.276280
v 0.150000 0.453547 0.283566
v 0.150000 0.258750 0.271502
v 0.150000 0.097153 0.235310
v 0.150000 -0.021419 0.173914
v 0.150000 -0.087142 0.086240
v 0.150000 -0.136942 0.118610
v 0.150000 -0.186065 0.142141
v 0.150000 -0.304976 0.181678
v 0.150000 -0.459311 0.219065
v 0.150000 -1.000000 0.340900
v 0.150000 -1.000000 0.224320
v 0.150000 -0.586692 0.131630
v 0.150000 -0.428821 0.094602
v 0.150000 -0.303960 0.064740
v 0.150000 -0.223330 0.039835
v 0.150000 -0.171159 0.017678
v 0.150000 -0.138975 -0.003285
v 0.150000 -0.118310 -0.024606
v 0.150000 -0.111195 -0.045390
v 0.150000 -0.108824 -0.076207
v 0.150000 -0.108824 -0.183709
v 0.150000 -1.000000 -0.183709
v 0.150000 0.118835 -0.183709
v 0.150000 0.118835 0.015528
v 0.150000 0.128151 0.072146
v 0.150000 0.156100 0.114908
v 0.150000 0.204545 0.146441
v 0.150000 0.275350 0.169375
v 0.150000 0.360891 0.183350
v 0.150000 0.453547 0.188009
v 0.150000 0.586353 0.178991
v 0.150000 0.689680 0.151936
v 0.150000 0.757774 0.105412
v 0.150000 0.780472 0.037984
v 0.150000 0.780472 -0.183709
v 0.150000 1.000000 0.868854
v 0.150000 1.000000 0.430246
v 0.150000 -1.000000 0.430246
v 0.150000 -1.000000 0.522937
v 0.150000 0.765566 0.522937
v 0.150000 0.765566 0.776163
v 0.150000 -0.261951 0.776163
v 0.150000 -0.540957 0.778731
v 0.150000 -0.687984 0.786436
v 0.150000 -0.816889 0.802382
v 0.150000 -0.913610 0.829675
v 0.150000 -0.974081 0.867062
v 0.150000 -0.994239 0.913288
v 0.150000 -0.986108 0.946972
v 0.150000 -0.961716 0.986867
v 0.150000 -0.728637 0.971100
v 0.150000 -0.748964 0.949838
v 0.150000 -0.755739 0.931921
v 0.150000 -0.738970 0.904329
v 0.150000 -0.688661 0.884621
v 0.150000 -0.576018 0.872796
v 0.150000 -0.411882 0.868854
v 0.150000 1.000000 1.557821
v 0.150000 1.000000 1.103447
v 0.150000 0.765566 1.103447
v 0.150000 0.765566 1.465131
v 0.150000 0.148647 1.465131
v 0.150000 0.148647 1.297906
v 0.150000 0.136112 1.214711
v 0.150000 0.098508 1.150509
v 0.150000 0.026179 1.101237
v 0.150000 -0.090530 1.062835
v 0.150000 -0.240778 1.038109
v 0.150000 -0.422723 1.029868
v 0.150000 -0.568228 1.035780
v 0.150000 -0.703909 1.053518
v 0.150000 -0.822650 1.082962
v 0.150000 -0.917338 1.123991
v 0.150000 -0.979335 1.187298
v 0.150000 -1.000000 1.283572
v 0.150000 -1.000000 1.557821
v 0.150000 -0.776407 1.465131
v 0.150000 -0.776407 1.279750
v 0.150000 -0.754725 1.214114
v 0.150000 -0.689680 1.167231
v 0.150000 -0.581271 1.139102
v 0.150000 -0.429499 1.129725
v 0.150000 -0.307347 1.135100
v 0.150000 -0.214522 1.151225
v 0.150000 -0.145751 1.176906
v 0.150000 -0.104758 1.210948
v 0.150000 -0.084432 1.262669
v 0.150000 -0.077656 1.341384
v 0.150000 -0.077656 1.465131
vn -1.0000 -0.0000 -0.0000
vn 1.0000 -0.0000 -0.0000
vn -0.0000 -0.0086 -1.0000
vn -0.0000 -0.1533 -0.9882
vn -0.0000 1.0000 -0.0000
vn -0.0000 0.9867 0.1624
vn -0.0000 -0.0082 1.0000
vn -0.0000 -0.1355 0.9908
vn -0.0000 -1.0000 -0.0000
vn -0.0000 0.7433 0.6690
vn -0.0000 0.9887 0.1499
vn -0.0000 -0.2236 -0.9747
vn -0.0000 -0.2305 -0.9731
vn -0.0000 -0.0000 -1.0000
vn -0.0000 0.2276 0.9738
vn -0.0000 0.2198 0.9755
vn -0.0000 -0.5353 -0.8447
vn -0.0000 -0.3123 -0.9500
vn -0.0000 0.1038 -0.9946
vn -0.0000 -0.2188 -0.9758
vn -0.0000 -0.8625 -0.5061
vn -0.0000 -0.0000 1.0000
vn -0.0000 0.2290 -0.9734
vn -0.0000 0.0120 0.9999
vn -0.0000 -0.9943 -0.1066
vn -0.0000 -0.7264 -0.6873
vn -0.0000 -0.3435 -0.9392
vn -0.0000 0.4121 -0.9111
vn -0.0000 0.9972 -0.0751
vn -0.0000 -0.9859 -0.1676
vn -0.0000 -0.3232 0.9463
vn -0.0000 0.9391 -0.3438
vn -0.0000 0.6820 -0.7313
vn -0.0000 0.7052 -0.7090
vn -0.0000 0.9955 -0.0951
vn -0.0000 0.9265 -0.3763
vn -0.0000 0.4216 -0.9068
vn -0.0000 -0.9991 0.0430
vn -0.0000 0.8905 -0.4549
vn -0.0000 0.9966 -0.0819
vn -0.0000 -0.0046 -1.0000
vn -0.0000 0.5859 -0.8104
vn -0.0000 0.2315 -0.9728
vn -0.0000 0.3349 -0.9423
vn -0.0000 -0.0307 -0.9995
vn -0.0000 -0.9992 0.0395
vn -0.0000 -0.9726 0.2323
vn -0.0000 0.0636 0.9980
vn -0.0000 -0.6114 0.7913
vn -0.0000 -0.9769 0.2137
vn -0.0000 -0.7871 0.6168
vn -0.0000 0.9967 0.0809
vn -0.0000 0.9244 0.3815
vn -0.0000 -0.8001 0.5998
vn -0.0000 -0.0869 -0.9962
vn -0.0000 0.1044 0.9945
vn -0.0000 0.1834 -0.9830
vn -0.0000 0.5450 0.8384
vn -0.0000 0.4854 0.8743
vn -0.0000 0.1017 -0.9948
vn -0.0000 -0.4746 0.8802
vn -0.0000 -0.1918 -0.9814
vn -0.0000 -0.8031 0.5959
vn -0.0000 -0.9788 -0.2047
vn -0.0000 -0.9993 -0.0384
vn -0.0000 -0.2519 0.9678
vn -0.0000 0.3648 0.9311
vn -0.0000 0.5683 0.8228
vn -0.0000 0.6570 0.7539
vn -0.0000 -0.4876 0.8731
vn -0.0000 -0.1050 0.9945
vn -0.0000 0.0675 0.9977
vn -0.0000 0.3830 0.9238
vn -0.0000 0.8344 -0.5512
vn -0.0000 0.7228 -0.6910
vn -0.0000 0.0830 -0.9966
vn -0.0000 0.0023 -1.0000
vn -0.0000 0.2132 0.9770
vn -0.0000 0.9938 0.1108
vn -0.0000 -0.2619 0.9651
vn -0.0000 -0.8391 -0.5440
vn -0.0000 0.0087 1.0000
vn -0.0000 -0.1135 0.9935
vn -0.0000 -0.6272 -0.7789
vn -0.0000 -0.9862 -0.1654
vn -0.0000 0.3700 0.9290
vn -0.0000 -0.0841 -0.9965
vn -0.0000 0.1490 0.9888
vn -0.0000 -0.7549 -0.6559
vn -0.0000 -0.0112 -0.9999
vn -0.0000 -0.3814 -0.9244
vn -0.0000 0.0030 1.0000
vn -0.0000 -0.4624 -0.8867
vn -0.0000 -0.1822 -0.9833
vn -0.0000 -0.7111 -0.7031
vn -0.0000 0.1256 0.9921
vn -0.0000 -0.3404 -0.9403
vn -0.0000 0.3890 0.9212
vn -0.0000 -0.3833 -0.9236
vn -0.0000 -0.8532 0.5216
vn -0.0000 -0.9205 0.3908
vn -0.0000 0.2737 0.9618
vn -0.0000 0.0966 0.9953
vn -0.0000 0.7686 0.6397
vn -0.0000 -0.9954 -0.0955
vn -0.0000 -0.1356 -0.9908
vn -0.0000 0.2011 0.9796
vn -0.0000 -0.2628 -0.9649
vn -0.0000 0.5353 0.8447
vt 0.171241 0.457435
vt 0.171241 0.685124
vt 0.141177 0.685124
vt 0.141177 0.587609
vt 0.141177 0.561729
vt 0.086938 0.587609
vt 0.054200 0.585401
vt 0.031924 0.578776
vt 0.017279 0.568354
vt 0.100885 0.561729
vt 0.075857 0.561032
vt 0.007439 0.554756
vt 0.141177 0.483005
vt 0.059353 0.558940
vt 0.048331 0.554465
vt 0.001860 0.539336
vt 0.039750 0.546620
vt 0.034229 0.536063
vt 0.000000 0.523452
vt 0.032389 0.523452
vt 0.034926 0.507936
vt 0.004494 0.498735
vt 0.042539 0.494860
vt 0.017976 0.477271
vt 0.058520 0.485969
vt 0.086163 0.483005
vt 0.043701 0.462394
vt 0.084923 0.457435
vt 0.938435 0.000000
vt 0.965244 0.000000
vt 0.965244 0.180074
vt 0.938435 0.180074
vt 0.530838 0.460010
vt 0.530838 0.457435
vt 0.530838 0.463629
vt 0.321977 0.685124
vt 0.321977 0.887032
vt 0.291913 0.887032
vt 0.530838 0.461044
vt 0.291913 0.685124
vt 0.127462 0.227187
vt 0.100730 0.228718
vt 0.000000 0.228718
vt 0.030064 0.203613
vt 0.000000 0.000000
vt 0.146910 0.222596
vt 0.161129 0.214131
vt 0.172170 0.200978
vt 0.101969 0.203613
vt 0.123839 0.201017
vt 0.030064 0.127949
vt 0.138929 0.193230
vt 0.179260 0.184668
vt 0.147705 0.181413
vt 0.181623 0.166226
vt 0.150630 0.166226
vt 0.177710 0.143949
vt 0.149119 0.155630
vt 0.144586 0.145848
vt 0.137147 0.137750
vt 0.165972 0.125469
vt 0.126919 0.132210
vt 0.113050 0.129014
vt 0.094686 0.127949
vt 0.030064 0.101914
vt 0.146058 0.111909
vt 0.117621 0.104393
vt 0.128120 0.098698
vt 0.074927 0.101643
vt 0.064932 0.101914
vt 0.030064 0.000000
vt 0.081669 0.100829
vt 0.088584 0.098466
vt 0.135753 0.093081
vt 0.095383 0.094785
vt 0.102570 0.088819
vt 0.148576 0.079482
vt 0.110648 0.079598
vt 0.120333 0.065319
vt 0.160703 0.061833
vt 0.132343 0.047265
vt 0.200220 0.000000
vt 0.162407 0.000000
vt 0.142261 0.295974
vt 0.142261 0.457435
vt 0.112197 0.430626
vt 0.000000 0.457435
vt 0.030064 0.430626
vt 0.000000 0.228718
vt 0.112197 0.313120
vt 0.030064 0.228718
vt 0.113030 0.281213
vt 0.143540 0.277204
vt 0.115529 0.264400
vt 0.147375 0.264322
vt 0.120701 0.249658
vt 0.153768 0.258569
vt 0.180539 0.233096
vt 0.175425 0.259750
vt 0.168528 0.257426
vt 0.162717 0.256651
vt 0.129554 0.238597
vt 0.141680 0.231682
vt 0.167599 0.230306
vt 0.156673 0.229377
vt 0.532318 0.228718
vt 0.532318 0.457435
vt 0.502254 0.430626
vt 0.384942 0.457435
vt 0.384942 0.430626
vt 0.502254 0.360076
vt 0.502254 0.334196
vt 0.448015 0.360076
vt 0.421031 0.358642
vt 0.400207 0.354342
vt 0.384226 0.346070
vt 0.462117 0.334196
vt 0.371770 0.332724
vt 0.502254 0.254288
vt 0.436586 0.333421
vt 0.419810 0.331097
vt 0.363750 0.315542
vt 0.408769 0.326409
vt 0.400439 0.318544
vt 0.395209 0.307929
vt 0.361077 0.294734
vt 0.393466 0.293960
vt 0.362995 0.278095
vt 0.396507 0.276603
vt 0.368748 0.262578
vt 0.405631 0.264206
vt 0.420837 0.256767
vt 0.378298 0.248999
vt 0.442126 0.254288
vt 0.391606 0.238171
vt 0.412139 0.231081
vt 0.443366 0.228718
vt 0.171240 0.457435
vt 0.201304 0.685124
vt 0.171240 0.685124
vt 0.201304 0.587609
vt 0.201304 0.561729
vt 0.255543 0.587609
vt 0.288281 0.585401
vt 0.310557 0.578776
vt 0.325202 0.568354
vt 0.241596 0.561729
vt 0.266624 0.561032
vt 0.335042 0.554756
vt 0.201304 0.483005
vt 0.283128 0.558940
vt 0.294150 0.554465
vt 0.340621 0.539336
vt 0.302731 0.546620
vt 0.308252 0.536063
vt 0.342481 0.523452
vt 0.310092 0.523452
vt 0.307555 0.507936
vt 0.337987 0.498735
vt 0.299942 0.494860
vt 0.324505 0.477271
vt 0.283961 0.485969
vt 0.256318 0.483005
vt 0.298780 0.462394
vt 0.257558 0.457435
vt 0.951105 0.911134
vt 0.977914 0.731061
vt 0.977914 0.911134
vt 0.951105 0.731061
vt 0.530838 0.460010
vt 0.530838 0.463629
vt 0.530838 0.457435
vt 0.921041 0.731061
vt 0.951105 0.932969
vt 0.921041 0.932969
vt 0.530838 0.461044
vt 0.951105 0.731061
vt 0.272977 0.227187
vt 0.400439 0.228718
vt 0.299710 0.228718
vt 0.370375 0.203613
vt 0.400439 0.000000
vt 0.253529 0.222596
vt 0.239310 0.214131
vt 0.228269 0.200978
vt 0.298470 0.203613
vt 0.276600 0.201017
vt 0.370375 0.127949
vt 0.261510 0.193230
vt 0.221179 0.184668
vt 0.252735 0.181413
vt 0.218816 0.166226
vt 0.249810 0.166226
vt 0.222729 0.143949
vt 0.251321 0.155630
vt 0.255853 0.145848
vt 0.263292 0.137750
vt 0.234468 0.125469
vt 0.273520 0.132210
vt 0.287389 0.129014
vt 0.305753 0.127949
vt 0.370375 0.101914
vt 0.254381 0.111909
vt 0.282818 0.104393
vt 0.272319 0.098698
vt 0.325512 0.101643
vt 0.335507 0.101914
vt 0.370375 0.000000
vt 0.318771 0.100829
vt 0.311855 0.098466
vt 0.264687 0.093081
vt 0.305056 0.094785
vt 0.297869 0.088819
vt 0.251863 0.079482
vt 0.289792 0.079598
vt 0.280106 0.065319
vt 0.239737 0.061833
vt 0.268096 0.047265
vt 0.200220 0.000000
vt 0.238032 0.000000
vt 0.218816 0.295974
vt 0.248880 0.430626
vt 0.218816 0.457435
vt 0.361077 0.457435
vt 0.331013 0.430626
vt 0.361077 0.228718
vt 0.248880 0.313120
vt 0.331013 0.228718
vt 0.248047 0.281213
vt 0.217537 0.277204
vt 0.245548 0.264400
vt 0.213702 0.264322
vt 0.240376 0.249658
vt 0.207309 0.258569
vt 0.192549 0.257426
vt 0.185653 0.259750
vt 0.198360 0.256651
vt 0.231523 0.238597
vt 0.219397 0.231682
vt 0.193478 0.230306
vt 0.204404 0.229377
vt 0.400439 0.000000
vt 0.430503 0.201908
vt 0.400439 0.228718
vt 0.547815 0.228718
vt 0.547815 0.201908
vt 0.430503 0.131358
vt 0.430503 0.105478
vt 0.484742 0.131358
vt 0.511726 0.129924
vt 0.532550 0.125624
vt 0.548531 0.117353
vt 0.470640 0.105478
vt 0.560987 0.104006
vt 0.430503 0.025570
vt 0.496171 0.104703
vt 0.512947 0.102379
vt 0.569007 0.086824
vt 0.523988 0.097691
vt 0.532318 0.089826
vt 0.537548 0.079211
vt 0.571680 0.066017
vt 0.539291 0.065242
vt 0.569762 0.049377
vt 0.536250 0.047885
vt 0.564009 0.033861
vt 0.527126 0.035488
vt 0.511920 0.028049
vt 0.554459 0.020282
vt 0.490631 0.025570
vt 0.541151 0.009453
vt 0.520617 0.002363
vt 0.489391 0.000000
vt 0.948926 0.326022
vt 0.933647 0.326022
vt 0.933647 0.228718
vt 0.948926 0.228718
vt 0.097305 0.685124
vt 0.097304 0.832448
vt -0.000000 0.832448
vt 0.000000 0.685124
vt 0.157412 0.924641
vt 0.097305 0.924641
vt 0.097305 0.827336
vt 0.157412 0.827336
vt 0.478812 0.749349
vt 0.457026 0.749349
vt 0.457026 0.652044
vt 0.478812 0.652044
vt 0.824231 0.768456
vt 0.824231 0.885754
vt 0.726927 0.885754
vt 0.726927 0.768456
vt 0.921535 0.648511
vt 0.921535 0.676066
vt 0.824231 0.676066
vt 0.824231 0.648511
vt 0.482338 0.652044
vt 0.463882 0.652044
vt 0.463882 0.554740
vt 0.482338 0.554740
vt 0.999226 0.631123
vt 0.972433 0.631123
vt 0.972433 0.533818
vt 0.999226 0.533818
vt 0.921535 0.567361
vt 0.921535 0.632769
vt 0.824231 0.632769
vt 0.824231 0.567361
vt 0.439786 0.824583
vt 0.439786 0.837728
vt 0.342481 0.837728
vt 0.342481 0.824583
vt 0.959464 0.326022
vt 0.959464 0.228718
vt 0.510294 0.943958
vt 0.439786 0.943958
vt 0.439786 0.846653
vt 0.510294 0.846653
vt 0.921535 0.731061
vt 0.824231 0.731061
vt 0.764735 0.983059
vt 0.726927 0.983059
vt 0.726927 0.885754
vt 0.764735 0.885754
vt 0.530610 0.652044
vt 0.530610 0.554740
vt 0.439786 0.804158
vt 0.342481 0.804158
vt 0.439786 0.457435
vt 0.439785 0.684028
vt 0.342481 0.684028
vt 0.342481 0.457435
vt 0.969085 0.326022
vt 0.969085 0.228718
vt 0.824231 0.228718
vt 0.824231 0.389402
vt 0.726927 0.389402
vt 0.726927 0.228718
vt 0.439786 0.684028
vt 0.439786 0.772970
vt 0.342481 0.772970
vt 0.342481 0.684028
vt 0.629622 0.812368
vt 0.629622 0.837868
vt 0.532318 0.837868
vt 0.532318 0.812368
vt 0.995298 0.194609
vt 0.965245 0.194609
vt 0.965245 0.097304
vt 0.995298 0.097304
vt 0.976921 0.326022
vt 0.976921 0.228718
vt 0.863593 0.064135
vt 0.863593 0.118355
vt 0.766289 0.118355
vt 0.766289 0.064135
vt 0.629622 0.684917
vt 0.629622 0.771225
vt 0.532318 0.771225
vt 0.532318 0.684917
vt 0.439786 0.749349
vt 0.439786 0.652044
vt 0.726927 0.823955
vt 0.726927 0.921412
vt 0.629622 0.921412
vt 0.629622 0.823955
vt 0.863593 0.037123
vt 0.766289 0.037123
vt 1.000000 0.525363
vt 0.973319 0.525363
vt 0.973319 0.428059
vt 1.000000 0.428059
vt 0.194609 0.685124
vt 0.194609 0.827336
vt 0.097304 0.827336
vt 0.097305 0.685124
vt 0.521910 0.846653
vt 0.439785 0.846653
vt 0.439785 0.749349
vt 0.521910 0.749349
vt 0.291914 0.906418
vt 0.291914 0.916788
vt 0.194609 0.916788
vt 0.194609 0.906418
vt 0.863593 0.016193
vt 0.766289 0.016193
vt 0.824231 0.427755
vt 0.824231 0.607766
vt 0.726927 0.607766
vt 0.726927 0.427755
vt 0.291913 0.755264
vt 0.291913 0.809484
vt 0.194609 0.809484
vt 0.194609 0.755264
vt 0.291914 0.892470
vt 0.194609 0.892470
vt 0.863593 0.000000
vt 0.766289 -0.000000
vt 0.996988 0.730073
vt 0.970195 0.730073
vt 0.970195 0.632769
vt 0.996988 0.632769
vt 0.668984 0.000000
vt 0.668984 0.228582
vt 0.571680 0.228582
vt 0.571680 0.000000
vt 0.921535 0.228718
vt 0.921535 0.268850
vt 0.824231 0.268850
vt 0.824231 0.228718
vt 0.938435 0.097304
vt 0.863593 0.097304
vt 0.863593 -0.000000
vt 0.938435 -0.000000
vt 0.291914 0.722480
vt 0.194609 0.722480
vt 0.291914 0.874084
vt 0.194609 0.874084
vt 0.726927 0.706518
vt 0.726927 0.823955
vt 0.629622 0.706518
vt 0.766289 0.000000
vt 0.766289 0.200936
vt 0.668984 0.200936
vt 0.668984 -0.000000
vt 0.726927 0.430506
vt 0.726927 0.631443
vt 0.629622 0.631443
vt 0.629622 0.430506
vt 0.291914 0.700037
vt 0.194609 0.700037
vt 0.291914 0.809484
vt 0.194609 0.809484
vt 0.837141 0.828365
vt 0.824231 0.828365
vt 0.824231 0.731061
vt 0.837141 0.731061
vt 0.794795 0.983059
vt 0.794795 0.885754
vt 0.291914 0.685124
vt 0.194609 0.685124
vt 0.904092 0.925670
vt 0.824231 0.925670
vt 0.904092 0.828365
vt 0.607469 0.935173
vt 0.532318 0.935173
vt 0.532318 0.837868
vt 0.607469 0.837868
vt 0.726927 0.674602
vt 0.629622 0.674602
vt 0.921536 0.330754
vt 0.921536 0.371042
vt 0.824231 0.371042
vt 0.824231 0.330754
vt 0.921535 0.294390
vt 0.824231 0.294390
vt 0.321974 0.984336
vt 0.291913 0.984336
vt 0.291913 0.887032
vt 0.321974 0.887032
vt 0.824231 0.408207
vt 0.726927 0.408207
vt 0.970195 0.730073
vt 0.950081 0.730073
vt 0.950081 0.632769
vt 0.970195 0.632769
vt 0.726927 0.228718
vt 0.726927 0.430506
vt 0.629622 0.430506
vt 0.629622 0.228718
vt 0.921536 0.396077
vt 0.824231 0.396077
vt 0.921535 0.311198
vt 0.824231 0.311198
vt 0.824231 0.708461
vt 0.824231 0.735144
vt 0.726927 0.735144
vt 0.726927 0.708461
vt 0.921536 0.730073
vt 0.921536 0.632769
vt 0.726927 0.657712
vt 0.629622 0.657712
vt 0.824231 0.607766
vt 0.824231 0.421403
vt 0.726927 0.421403
vt 0.453038 0.554740
vt 0.439785 0.554740
vt 0.439785 0.457435
vt 0.453038 0.457435
vt 0.342481 0.782428
vt 0.332135 0.782428
vt 0.332135 0.685124
vt 0.342481 0.685124
vt 0.854038 0.828365
vt 0.854038 0.731061
vt 0.921535 0.322308
vt 0.824231 0.322308
vt 0.078678 0.929753
vt 0.000000 0.929753
vt 0.000000 0.832448
vt 0.078678 0.832448
vt 0.726927 0.642801
vt 0.629622 0.642801
vt 0.921536 0.412610
vt 0.824231 0.412610
vt 0.908448 0.215660
vt 0.898457 0.215660
vt 0.898457 0.118355
vt 0.908448 0.118355
vt 0.921535 0.330754
vt 0.824231 0.330754
vt 0.629622 0.228718
vt 0.629622 0.457300
vt 0.532318 0.457300
vt 0.532318 0.228718
vt 0.824231 0.427755
vt 0.726927 0.427755
vt 0.824231 0.754465
vt 0.726927 0.754465
vt 0.921536 0.423698
vt 0.824231 0.423698
vt 0.863593 0.215660
vt 0.863593 0.118355
vt 0.976121 0.428059
vt 0.966070 0.428059
vt 0.966070 0.330754
vt 0.976121 0.330754
vt 0.824231 0.983059
vt 0.797204 0.983059
vt 0.797204 0.885754
vt 0.824231 0.885754
vt 0.921535 0.432395
vt 0.921535 0.533818
vt 0.824231 0.533818
vt 0.824231 0.432395
vt 0.995305 0.097304
vt 0.965245 0.097304
vt 0.965245 -0.000000
vt 0.995305 -0.000000
vt 0.425060 0.935033
vt 0.418105 0.935033
vt 0.418105 0.837728
vt 0.425060 0.837728
vt 0.468256 0.554740
vt 0.468256 0.457435
vt 0.874741 0.828365
vt 0.874741 0.731061
vt 0.528495 0.749349
vt 0.514324 0.749349
vt 0.514324 0.652044
vt 0.528495 0.652044
vt 0.439786 0.935033
vt 0.430890 0.935033
vt 0.430890 0.837728
vt 0.921536 0.432395
vt 0.824231 0.432395
vt 0.915176 0.215660
vt 0.915176 0.118355
vt 0.952339 0.428059
vt 0.952339 0.330754
vt 0.973319 0.525363
vt 0.963354 0.525363
vt 0.963354 0.428059
vt 0.973319 0.428059
vt 0.922055 0.215660
vt 0.922055 0.118355
vt 0.863593 0.155156
vt 0.863593 0.227054
vt 0.766289 0.227054
vt 0.766289 0.155156
vt 0.324653 0.782428
vt 0.324653 0.685124
vt 0.891436 0.828365
vt 0.891436 0.731061
vt 0.934768 0.428059
vt 0.934768 0.330754
vt 0.863593 0.133328
vt 0.766289 0.133328
vt 0.484067 0.554740
vt 0.484067 0.457435
vt 0.417781 0.935033
vt 0.342481 0.935033
vt 0.342481 0.837728
vt 0.417781 0.837728
vt 0.629622 0.631443
vt 0.950984 0.525363
vt 0.950984 0.428059
vt 0.928799 0.215660
vt 0.928799 0.118355
vt 0.907141 0.828365
vt 0.907141 0.731061
vt 0.933558 0.631123
vt 0.921536 0.631123
vt 0.921536 0.533818
vt 0.933558 0.533818
vt 0.935294 0.525363
vt 0.935294 0.428059
vt 0.935896 0.215660
vt 0.935896 0.118355
vt 0.921536 0.428059
vt 0.921536 0.330754
vt 0.863593 0.118355
vt 0.766289 0.118355
vt 0.972433 0.631123
vt 0.959453 0.631123
vt 0.959453 0.533818
vt 0.972433 0.533818
vt 0.921535 0.548608
vt 0.824231 0.548608
vt 0.824231 0.533818
vt 0.497397 0.749349
vt 0.497397 0.652044
vt 0.193634 0.924641
vt 0.178628 0.924641
vt 0.178628 0.827336
vt 0.193634 0.827336
vt 0.948515 0.631123
vt 0.948515 0.533818
vt 0.508924 0.554740
vt 0.508924 0.457435
vt 0.921536 0.525363
vt 0.921536 0.428059
vt 0.449278 0.652044
vt 0.439785 0.652044
vt 0.449278 0.554740
vt 0.921536 0.326022
vt 0.921536 0.228718
vt 0.629622 0.457300
vt 0.629622 0.684917
vt 0.532318 0.684917
vt 0.532318 0.457300
vt 0.921041 0.828365
vt 0.921041 0.731061
vt 0.530838 0.554740
vt 0.530838 0.457435
vt 0.921535 0.632769
vt 0.824231 0.632769
s 1
usemtl Material
f 15/1/1 1/2/1 2/3/1
f 15/1/1 2/3/1 3/4/1
f 15/1/1 3/4/1 28/5/1
f 28/5/1 3/4/1 4/6/1
f 28/5/1 4/6/1 5/7/1
f 28/5/1 5/7/1 6/8/1
f 28/5/1 6/8/1 7/9/1
f 28/5/1 7/9/1 27/10/1
f 27/10/1 7/9/1 26/11/1
f 26/11/1 7/9/1 8/12/1
f 15/1/1 28/5/1 16/13/1
f 25/14/1 26/11/1 8/12/1
f 24/15/1 25/14/1 8/12/1
f 24/15/1 8/12/1 9/16/1
f 23/17/1 24/15/1 9/16/1
f 22/18/1 23/17/1 9/16/1
f 22/18/1 9/16/1 10/19/1
f 21/20/1 22/18/1 10/19/1
f 20/21/1 21/20/1 10/19/1
f 20/21/1 10/19/1 11/22/1
f 19/23/1 20/21/1 11/22/1
f 19/23/1 11/22/1 12/24/1
f 18/25/1 19/23/1 12/24/1
f 17/26/1 18/25/1 12/24/1
f 15/1/1 16/13/1 17/26/1
f 15/1/1 17/26/1 12/24/1
f 15/1/1 12/24/1 13/27/1
f 15/1/1 13/27/1 14/28/1
f 31/29/1 32/30/1 33/31/1
f 31/29/1 33/31/1 34/32/1
f 30/33/2 31/34/2 34/35/2
f 29/36/1 30/37/1 35/38/1
f 35/39/2 30/33/2 34/35/2
f 29/36/1 35/38/1 36/40/1
f 40/41/1 39/42/1 38/43/1
f 40/41/1 38/43/1 79/44/1
f 79/44/1 38/43/1 37/45/1
f 41/46/1 40/41/1 79/44/1
f 42/47/1 41/46/1 79/44/1
f 43/48/1 42/47/1 78/49/1
f 78/49/1 42/47/1 79/44/1
f 43/48/1 78/49/1 77/50/1
f 67/51/1 79/44/1 37/45/1
f 43/48/1 77/50/1 76/52/1
f 44/53/1 43/48/1 76/52/1
f 44/53/1 76/52/1 75/54/1
f 45/55/1 44/53/1 75/54/1
f 45/55/1 75/54/1 74/56/1
f 46/57/1 45/55/1 74/56/1
f 46/57/1 74/56/1 73/58/1
f 46/57/1 73/58/1 72/59/1
f 46/57/1 72/59/1 71/60/1
f 47/61/1 46/57/1 71/60/1
f 47/61/1 71/60/1 70/62/1
f 47/61/1 70/62/1 69/63/1
f 47/61/1 69/63/1 68/64/1
f 47/61/1 68/64/1 67/51/1
f 47/61/1 67/51/1 65/65/1
f 65/65/1 67/51/1 37/45/1
f 48/66/1 47/61/1 65/65/1
f 49/67/1 48/66/1 65/65/1
f 50/68/1 49/67/1 63/69/1
f 63/69/1 49/67/1 64/70/1
f 64/70/1 49/67/1 65/65/1
f 66/71/1 65/65/1 37/45/1
f 50/68/1 63/69/1 62/72/1
f 50/68/1 62/72/1 61/73/1
f 51/74/1 50/68/1 61/73/1
f 51/74/1 61/73/1 60/75/1
f 51/74/1 60/75/1 59/76/1
f 52/77/1 51/74/1 59/76/1
f 52/77/1 59/76/1 58/78/1
f 52/77/1 58/78/1 57/79/1
f 53/80/1 52/77/1 57/79/1
f 53/80/1 57/79/1 56/81/1
f 54/82/1 53/80/1 56/81/1
f 54/82/1 56/81/1 55/83/1
f 101/84/1 80/85/1 85/86/1
f 85/86/1 80/85/1 81/87/1
f 85/86/1 81/87/1 84/88/1
f 84/88/1 81/87/1 82/89/1
f 101/84/1 85/86/1 86/90/1
f 83/91/1 84/88/1 82/89/1
f 101/84/1 86/90/1 87/92/1
f 100/93/1 101/84/1 87/92/1
f 100/93/1 87/92/1 88/94/1
f 99/95/1 100/93/1 88/94/1
f 99/95/1 88/94/1 89/96/1
f 98/97/1 99/95/1 89/96/1
f 94/98/1 95/99/1 96/100/1
f 97/101/1 98/97/1 89/96/1
f 94/98/1 96/100/1 97/101/1
f 94/98/1 97/101/1 89/96/1
f 94/98/1 89/96/1 90/102/1
f 94/98/1 90/102/1 91/103/1
f 93/104/1 94/98/1 91/103/1
f 93/104/1 91/103/1 92/105/1
f 120/106/1 102/107/1 105/108/1
f 105/108/1 102/107/1 103/109/1
f 105/108/1 103/109/1 104/110/1
f 120/106/1 105/108/1 106/111/1
f 120/106/1 106/111/1 133/112/1
f 133/112/1 106/111/1 107/113/1
f 133/112/1 107/113/1 108/114/1
f 133/112/1 108/114/1 109/115/1
f 133/112/1 109/115/1 110/116/1
f 133/112/1 110/116/1 132/117/1
f 132/117/1 110/116/1 111/118/1
f 120/106/1 133/112/1 121/119/1
f 131/120/1 132/117/1 111/118/1
f 130/121/1 131/120/1 111/118/1
f 130/121/1 111/118/1 112/122/1
f 129/123/1 130/121/1 112/122/1
f 128/124/1 129/123/1 112/122/1
f 127/125/1 128/124/1 112/122/1
f 127/125/1 112/122/1 113/126/1
f 126/127/1 127/125/1 113/126/1
f 126/127/1 113/126/1 114/128/1
f 125/129/1 126/127/1 114/128/1
f 125/129/1 114/128/1 115/130/1
f 124/131/1 125/129/1 115/130/1
f 123/132/1 124/131/1 115/130/1
f 123/132/1 115/130/1 116/133/1
f 122/134/1 123/132/1 116/133/1
f 120/106/1 121/119/1 122/134/1
f 120/106/1 122/134/1 116/133/1
f 120/106/1 116/133/1 117/135/1
f 120/106/1 117/135/1 118/136/1
f 120/106/1 118/136/1 119/137/1
f 148/138/2 135/139/2 134/140/2
f 148/138/2 136/141/2 135/139/2
f 148/138/2 161/142/2 136/141/2
f 161/142/2 137/143/2 136/141/2
f 161/142/2 138/144/2 137/143/2
f 161/142/2 139/145/2 138/144/2
f 161/142/2 140/146/2 139/145/2
f 161/142/2 160/147/2 140/146/2
f 160/147/2 159/148/2 140/146/2
f 159/148/2 141/149/2 140/146/2
f 148/138/2 149/150/2 161/142/2
f 158/151/2 141/149/2 159/148/2
f 157/152/2 141/149/2 158/151/2
f 157/152/2 142/153/2 141/149/2
f 156/154/2 142/153/2 157/152/2
f 155/155/2 142/153/2 156/154/2
f 155/155/2 143/156/2 142/153/2
f 154/157/2 143/156/2 155/155/2
f 153/158/2 143/156/2 154/157/2
f 153/158/2 144/159/2 143/156/2
f 152/160/2 144/159/2 153/158/2
f 152/160/2 145/161/2 144/159/2
f 151/162/2 145/161/2 152/160/2
f 150/163/2 145/161/2 151/162/2
f 148/138/2 150/163/2 149/150/2
f 148/138/2 145/161/2 150/163/2
f 148/138/2 146/164/2 145/161/2
f 148/138/2 147/165/2 146/164/2
f 164/166/2 166/167/2 165/168/2
f 164/166/2 167/169/2 166/167/2
f 163/170/2 167/171/2 164/172/2
f 162/173/2 168/174/2 163/175/2
f 168/176/2 167/171/2 163/170/2
f 162/173/2 169/177/2 168/174/2
f 173/178/2 171/179/2 172/180/2
f 173/178/2 212/181/2 171/179/2
f 212/181/2 170/182/2 171/179/2
f 174/183/2 212/181/2 173/178/2
f 175/184/2 212/181/2 174/183/2
f 176/185/2 211/186/2 175/184/2
f 211/186/2 212/181/2 175/184/2
f 176/185/2 210/187/2 211/186/2
f 200/188/2 170/182/2 212/181/2
f 176/185/2 209/189/2 210/187/2
f 177/190/2 209/189/2 176/185/2
f 177/190/2 208/191/2 209/189/2
f 178/192/2 208/191/2 177/190/2
f 178/192/2 207/193/2 208/191/2
f 179/194/2 207/193/2 178/192/2
f 179/194/2 206/195/2 207/193/2
f 179/194/2 205/196/2 206/195/2
f 179/194/2 204/197/2 205/196/2
f 180/198/2 204/197/2 179/194/2
f 180/198/2 203/199/2 204/197/2
f 180/198/2 202/200/2 203/199/2
f 180/198/2 201/201/2 202/200/2
f 180/198/2 200/188/2 201/201/2
f 180/198/2 198/202/2 200/188/2
f 198/202/2 170/182/2 200/188/2
f 181/203/2 198/202/2 180/198/2
f 182/204/2 198/202/2 181/203/2
f 183/205/2 196/206/2 182/204/2
f 196/206/2 197/207/2 182/204/2
f 197/207/2 198/202/2 182/204/2
f 199/208/2 170/182/2 198/202/2
f 183/205/2 195/209/2 196/206/2
f 183/205/2 194/210/2 195/209/2
f 184/211/2 194/210/2 183/205/2
f 184/211/2 193/212/2 194/210/2
f 184/211/2 192/213/2 193/212/2
f 185/214/2 192/213/2 184/211/2
f 185/214/2 191/215/2 192/213/2
f 185/214/2 190/216/2 191/215/2
f 186/217/2 190/216/2 185/214/2
f 186/217/2 189/218/2 190/216/2
f 187/219/2 189/218/2 186/217/2
f 187/219/2 188/220/2 189/218/2
f 234/221/2 218/222/2 213/223/2
f 218/222/2 214/224/2 213/223/2
f 218/222/2 217/225/2 214/224/2
f 217/225/2 215/226/2 214/224/2
f 234/221/2 219/227/2 218/222/2
f 216/228/2 215/226/2 217/225/2
f 234/221/2 220/229/2 219/227/2
f 233/230/2 220/229/2 234/221/2
f 233/230/2 221/231/2 220/229/2
f 232/232/2 221/231/2 233/230/2
f 232/232/2 222/233/2 221/231/2
f 231/234/2 222/233/2 232/232/2
f 227/98/2 229/235/2 228/236/2
f 230/237/2 222/233/2 231/234/2
f 227/98/2 230/237/2 229/235/2
f 227/98/2 222/233/2 230/237/2
f 227/98/2 223/238/2 222/233/2
f 227/98/2 224/239/2 223/238/2
f 226/240/2 224/239/2 227/98/2
f 226/240/2 225/241/2 224/239/2
f 253/242/2 238/243/2 235/244/2
f 238/243/2 236/245/2 235/244/2
f 238/243/2 237/246/2 236/245/2
f 253/242/2 239/247/2 238/243/2
f 253/242/2 266/248/2 239/247/2
f 266/248/2 240/249/2 239/247/2
f 266/248/2 241/250/2 240/249/2
f 266/248/2 242/251/2 241/250/2
f 266/248/2 243/252/2 242/251/2
f 266/248/2 265/253/2 243/252/2
f 265/253/2 244/254/2 243/252/2
f 253/242/2 254/255/2 266/248/2
f 264/256/2 244/254/2 265/253/2
f 263/257/2 244/254/2 264/256/2
f 263/257/2 245/258/2 244/254/2
f 262/259/2 245/258/2 263/257/2
f 261/260/2 245/258/2 262/259/2
f 260/261/2 245/258/2 261/260/2
f 260/261/2 246/262/2 245/258/2
f 259/263/2 246/262/2 260/261/2
f 259/263/2 247/264/2 246/262/2
f 258/265/2 247/264/2 259/263/2
f 258/265/2 248/266/2 247/264/2
f 257/267/2 248/266/2 258/265/2
f 256/268/2 248/266/2 257/267/2
f 256/268/2 249/269/2 248/266/2
f 255/270/2 249/269/2 256/268/2
f 253/242/2 255/270/2 254/255/2
f 253/242/2 249/269/2 255/270/2
f 253/242/2 250/271/2 249/269/2
f 253/242/2 251/272/2 250/271/2
f 253/242/2 252/273/2 251/272/2
f 74/274/3 75/275/4 208/276/4 207/277/3
f 103/278/5 102/279/5 235/280/5 236/281/5
f 122/282/6 121/283/5 254/284/5 255/285/6
f 45/286/7 46/287/8 179/288/8 178/289/7
f 105/290/9 104/291/9 237/292/9 238/293/9
f 18/294/10 17/295/11 150/296/11 151/297/10
f 56/298/12 57/299/13 190/300/13 189/301/12
f 104/302/14 103/303/14 236/304/14 237/305/14
f 53/306/15 54/307/16 187/308/16 186/309/15
f 117/310/17 116/311/18 249/312/18 250/313/17
f 73/314/19 74/274/3 207/277/3 206/315/19
f 106/316/14 105/317/14 238/318/14 239/319/14
f 17/295/11 16/320/5 149/321/5 150/296/11
f 54/322/9 55/323/9 188/324/9 187/325/9
f 55/326/20 56/298/12 189/301/12 188/327/20
f 118/328/21 117/310/17 250/313/17 251/329/21
f 1/330/22 15/331/22 148/332/22 134/333/22
f 72/334/23 73/314/19 206/315/19 205/335/23
f 80/336/22 101/337/24 234/338/24 213/339/22
f 120/340/9 119/341/25 252/342/25 253/343/9
f 13/344/26 12/345/27 145/346/27 146/347/26
f 119/341/25 118/328/21 251/329/21 252/342/25
f 2/348/5 1/349/5 134/350/5 135/351/5
f 71/352/28 72/334/23 205/335/23 204/353/28
f 107/354/29 106/355/5 239/356/5 240/357/29
f 15/358/9 14/359/30 147/360/30 148/361/9
f 46/287/8 47/362/31 180/363/31 179/288/8
f 14/359/30 13/344/26 146/347/26 147/360/30
f 3/364/14 2/365/14 135/366/14 136/367/14
f 108/368/32 107/354/29 240/357/29 241/369/32
f 32/370/22 31/371/22 164/372/22 165/373/22
f 81/374/5 80/375/5 213/376/5 214/377/5
f 85/378/9 84/379/9 217/380/9 218/381/9
f 70/382/33 71/383/28 204/384/28 203/385/33
f 109/386/34 108/368/32 241/369/32 242/387/34
f 33/388/5 32/389/5 165/390/5 166/391/5
f 4/392/35 3/393/5 136/394/5 137/395/35
f 69/396/36 70/382/33 203/385/33 202/397/36
f 110/398/37 109/386/34 242/387/34 243/399/37
f 34/400/14 33/401/14 166/402/14 167/403/14
f 82/404/14 81/405/14 214/406/14 215/407/14
f 133/408/9 132/409/38 265/410/38 266/411/9
f 31/412/9 30/413/9 163/414/9 164/415/9
f 5/416/39 4/392/35 137/395/35 138/417/39
f 68/418/40 69/396/36 202/397/36 201/419/40
f 86/420/41 85/421/14 218/367/14 219/422/41
f 30/423/22 29/424/22 162/425/22 163/426/22
f 84/427/22 83/428/22 216/429/22 217/430/22
f 6/431/42 5/416/39 138/417/39 139/432/42
f 67/433/5 68/418/40 201/419/40 200/434/5
f 111/435/43 110/436/37 243/437/37 244/438/43
f 83/439/9 82/322/9 215/325/9 216/440/9
f 7/441/44 6/431/42 139/432/42 140/442/44
f 121/443/14 133/444/14 266/436/14 254/445/14
f 35/446/9 34/447/9 167/448/9 168/449/9
f 87/450/45 86/420/41 219/422/41 220/451/45
f 28/452/9 27/453/46 160/454/46 161/455/9
f 132/409/38 131/456/47 264/457/47 265/410/38
f 29/458/9 36/459/9 169/460/9 162/461/9
f 101/337/24 100/462/48 233/463/48 234/338/24
f 47/464/31 48/465/49 181/466/49 180/467/31
f 36/468/14 35/469/14 168/470/14 169/471/14
f 27/453/46 26/472/50 159/473/50 160/454/46
f 131/456/47 130/474/51 263/475/51 264/457/47
f 39/476/52 40/477/53 173/478/53 172/479/52
f 48/465/49 49/480/54 182/481/54 181/466/49
f 88/482/55 87/450/45 220/451/45 221/483/55
f 38/484/5 39/476/52 172/479/52 171/390/5
f 100/462/48 99/485/56 232/486/56 233/463/48
f 8/487/57 7/488/44 140/489/44 141/490/57
f 49/491/58 50/492/59 183/493/59 182/494/58
f 112/495/60 111/435/43 244/438/43 245/496/60
f 130/474/51 129/497/61 262/498/61 263/475/51
f 16/499/14 28/500/14 161/501/14 149/502/14
f 89/503/62 88/482/55 221/483/55 222/504/62
f 26/472/50 25/505/63 158/506/63 159/473/50
f 63/507/64 64/508/65 197/509/65 196/510/64
f 129/497/61 128/511/66 261/512/66 262/498/61
f 37/513/14 38/514/14 171/515/14 170/516/14
f 99/485/67 98/517/68 231/518/68 232/486/67
f 40/477/53 41/519/69 174/520/69 173/478/53
f 25/505/63 24/521/70 157/522/70 158/506/63
f 64/508/65 65/523/9 198/524/9 197/509/65
f 128/525/66 127/526/71 260/527/71 261/528/66
f 95/529/72 94/530/72 227/531/72 228/532/72
f 65/533/22 66/534/22 199/535/22 198/536/22
f 41/519/69 42/290/73 175/293/73 174/520/69
f 66/537/9 37/538/9 170/539/9 199/540/9
f 96/541/74 95/542/75 228/543/75 229/544/74
f 9/545/76 8/487/57 141/490/57 142/546/76
f 113/547/77 112/495/60 245/496/60 246/548/77
f 42/549/73 43/550/78 176/551/78 175/552/73
f 98/553/68 97/554/79 230/555/79 231/311/68
f 24/521/70 23/556/80 156/557/80 157/522/70
f 62/558/81 63/507/64 196/510/64 195/559/81
f 127/526/71 126/560/82 259/561/82 260/527/71
f 23/562/80 22/563/83 155/564/83 156/565/80
f 61/566/84 62/558/81 195/559/81 194/567/84
f 78/568/85 79/569/9 212/570/9 211/571/85
f 97/554/79 96/541/74 229/544/74 230/555/79
f 50/492/59 51/572/86 184/573/86 183/493/59
f 114/574/87 113/547/77 246/548/77 247/575/87
f 126/560/82 125/576/88 258/577/88 259/561/82
f 77/578/89 78/568/85 211/571/85 210/579/89
f 10/580/90 9/545/76 142/546/76 143/581/90
f 79/582/22 67/583/22 200/584/22 212/585/22
f 90/428/91 89/503/62 222/504/62 223/586/91
f 22/563/83 21/587/92 154/588/92 155/564/83
f 60/589/93 61/566/84 194/567/84 193/590/93
f 115/591/94 114/574/87 247/575/87 248/592/94
f 91/593/95 90/594/91 223/595/91 224/596/95
f 21/587/92 20/597/96 153/598/96 154/588/92
f 59/599/97 60/589/93 193/590/93 192/600/97
f 125/576/88 124/601/98 257/602/98 258/577/88
f 76/603/99 77/578/89 210/579/89 209/604/99
f 94/605/100 93/606/101 226/607/101 227/608/100
f 51/534/86 52/609/102 185/610/102 184/611/86
f 43/550/78 44/612/103 177/613/103 176/551/78
f 124/614/98 123/615/104 256/616/104 257/617/98
f 93/606/101 92/618/105 225/619/105 226/607/101
f 11/620/106 10/580/90 143/581/90 144/621/106
f 92/618/105 91/593/95 224/596/95 225/619/105
f 20/597/96 19/622/107 152/623/107 153/598/96
f 58/624/108 59/625/97 192/488/97 191/626/108
f 75/275/4 76/627/99 209/628/99 208/276/4
f 102/629/22 120/630/22 253/631/22 235/632/22
f 116/633/18 115/591/94 248/592/94 249/634/18
f 44/612/103 45/286/7 178/289/7 177/613/103
f 57/299/13 58/624/108 191/626/108 190/300/13
f 123/615/104 122/282/6 255/285/6 256/616/104
f 12/635/27 11/620/106 144/621/106 145/636/27
f 52/609/102 53/306/15 186/309/15 185/610/102
f 19/637/109 18/294/10 151/297/10 152/638/109
