# Blender 5.1.2
# www.blender.org
mtllib coil_aqua.mtl
o Cube
v -0.354962 -1.470272 0.003956
v -0.324751 -1.500000 0.005853
v -0.353388 -1.529728 -0.003955
v -0.383598 -1.500000 -0.005852
v -0.328047 -1.451544 -0.131433
v -0.299466 -1.482044 -0.124162
v -0.326383 -1.510956 -0.139640
v -0.354963 -1.480456 -0.146912
v -0.251616 -1.432881 -0.245820
v -0.229060 -1.464912 -0.229532
v -0.249264 -1.492119 -0.255058
v -0.271819 -1.460089 -0.271346
v -0.137746 -1.414306 -0.321905
v -0.123648 -1.447771 -0.299966
v -0.133327 -1.473194 -0.332524
v -0.147426 -1.439728 -0.354463
v -0.004037 -1.395819 -0.348502
v 0.000777 -1.430619 -0.324716
v 0.004037 -1.454181 -0.359848
v -0.000778 -1.419381 -0.383634
v 0.129070 -1.377419 -0.322025
v 0.125318 -1.413451 -0.299943
v 0.142003 -1.435081 -0.332405
v 0.145754 -1.399049 -0.354487
v 0.241408 -1.359104 -0.246964
v 0.231026 -1.396261 -0.229312
v 0.259471 -1.415896 -0.253915
v 0.269853 -1.378739 -0.271567
v 0.316137 -1.340873 -0.135123
v 0.301759 -1.379045 -0.123452
v 0.338292 -1.396627 -0.135951
v 0.352670 -1.358456 -0.147623
v 0.342265 -1.322725 -0.003773
v 0.326640 -1.361798 0.001632
v 0.366085 -1.377275 0.003773
v 0.381709 -1.338202 -0.001632
v 0.316250 -1.304658 0.127013
v 0.301711 -1.344516 0.126959
v 0.338180 -1.357841 0.144060
v 0.352719 -1.317984 0.144114
v 0.242477 -1.286671 0.237422
v 0.230564 -1.327195 0.233438
v 0.258403 -1.338329 0.263455
v 0.270315 -1.297805 0.267440
v 0.132519 -1.268759 0.310894
v 0.123827 -1.309830 0.304758
v 0.138555 -1.318741 0.343535
v 0.147247 -1.277670 0.349672
v 0.003331 -1.250923 0.336591
v -0.002409 -1.292418 0.329868
v -0.003330 -1.299078 0.371758
v 0.002410 -1.257582 0.378482
v -0.125360 -1.233157 0.310993
v -0.129006 -1.274953 0.304686
v -0.145714 -1.279343 0.343437
v -0.142068 -1.237546 0.349743
v -0.234054 -1.215460 0.238366
v -0.236656 -1.257434 0.232757
v -0.266824 -1.259540 0.262513
v -0.264222 -1.217566 0.268122
v -0.306423 -1.197829 0.130057
v -0.308819 -1.239855 0.124757
v -0.348006 -1.239671 0.141016
v -0.345610 -1.197645 0.146317
v -0.331750 -1.180260 0.002731
v -0.334246 -1.222213 -0.003073
v -0.376599 -1.219741 -0.002731
v -0.374103 -1.177787 0.003073
v -0.306505 -1.162749 -0.124188
v -0.308728 -1.204505 -0.131361
v -0.347925 -1.199751 -0.146885
v -0.345702 -1.157995 -0.139712
v -0.234827 -1.145293 -0.231461
v -0.235787 -1.186729 -0.240526
v -0.266052 -1.179707 -0.269418
v -0.265092 -1.138271 -0.260352
v -0.127856 -1.127889 -0.302937
v -0.126198 -1.168880 -0.313752
v -0.143218 -1.159611 -0.351493
v -0.144877 -1.118620 -0.340678
v -0.002002 -1.110531 -0.327971
v 0.003591 -1.150957 -0.339568
v 0.002002 -1.139469 -0.380379
v -0.003591 -1.099043 -0.368781
v 0.123553 -1.093217 -0.302996
v 0.133915 -1.132956 -0.313645
v 0.147520 -1.119283 -0.351433
v 0.137158 -1.079544 -0.340785
v 0.229766 -1.075941 -0.232027
v 0.244866 -1.114877 -0.239510
v 0.271113 -1.099059 -0.268851
v 0.256013 -1.060123 -0.261369
v 0.300600 -1.058699 -0.126018
v 0.319321 -1.096716 -0.128080
v 0.353830 -1.078801 -0.145056
v 0.335108 -1.040784 -0.142994
v 0.325432 -1.041488 -0.001178
v 0.345581 -1.078472 0.003938
v 0.382918 -1.058512 0.001177
v 0.362768 -1.021528 -0.003939
v 0.300635 -1.024301 0.123486
v 0.319204 -1.060143 0.136545
v 0.353795 -1.038199 0.147587
v 0.335225 -1.002357 0.134528
v 0.230100 -1.007136 0.229050
v 0.243751 -1.041729 0.249469
v 0.270780 -1.017864 0.271829
v 0.257128 -0.983271 0.251409
v 0.124630 -0.989986 0.299522
v 0.130315 -1.023228 0.325265
v 0.146444 -0.997514 0.354907
v 0.140758 -0.964272 0.329165
v 0.000298 -0.972847 0.324254
v -0.004100 -1.004639 0.352001
v -0.000298 -0.977153 0.384096
v 0.004100 -0.945361 0.356348
v -0.123989 -0.955715 0.299531
v -0.139127 -0.985962 0.325143
v -0.147083 -0.956785 0.354899
v -0.131946 -0.926538 0.329287
v -0.229346 -0.938584 0.229134
v -0.254118 -0.967197 0.248309
v -0.271532 -0.936416 0.271745
v -0.246760 -0.907803 0.252570
v -0.299756 -0.921450 0.123759
v -0.331300 -0.948344 0.132798
v -0.354673 -0.916050 0.147315
v -0.323129 -0.889156 0.138276
v -0.324492 -0.904309 -0.000596
v -0.358524 -0.929403 -0.004068
v -0.383858 -0.895691 0.000596
v -0.349825 -0.870597 0.004068
v -0.299738 -0.887154 -0.125039
v -0.331180 -0.910375 -0.141540
v -0.354691 -0.875346 -0.146034
v -0.323250 -0.852125 -0.129533
v -0.229178 -0.869982 -0.230641
v -0.252967 -0.891260 -0.258593
v -0.271701 -0.855018 -0.270237
v -0.247912 -0.833740 -0.242285
v -0.123445 -0.852787 -0.301290
v -0.135410 -0.872059 -0.337142
v -0.147629 -0.834713 -0.353140
v -0.135664 -0.815441 -0.317287
v 0.001461 -0.835566 -0.326135
v 0.003842 -0.852775 -0.364841
v -0.001462 -0.814434 -0.382214
v -0.003843 -0.797225 -0.343508
v 0.126587 -0.818313 -0.301246
v 0.143668 -0.833408 -0.337028
v 0.144487 -0.794187 -0.353183
v 0.127405 -0.779092 -0.317401
v 0.232873 -0.801025 -0.230228
v 0.262682 -0.813961 -0.257506
v 0.268005 -0.773975 -0.270651
v 0.238196 -0.761039 -0.243373
v 0.304050 -0.783696 -0.123704
v 0.342515 -0.794435 -0.138028
v 0.350379 -0.753804 -0.147370
v 0.311915 -0.743065 -0.133045
v 0.329106 -0.766323 0.002258
v 0.370654 -0.774832 0.003435
v 0.379244 -0.733677 -0.002258
v 0.337696 -0.725168 -0.003436
v 0.303983 -0.748902 0.128557
v 0.342413 -0.755156 0.145411
v 0.350446 -0.713598 0.142516
v 0.312017 -0.707344 0.125662
v 0.232234 -0.731428 0.235937
v 0.261710 -0.735409 0.266192
v 0.268645 -0.693572 0.264941
v 0.239169 -0.689591 0.234687
v 0.124523 -0.713898 0.307908
v 0.140529 -0.715594 0.347163
v 0.146551 -0.673602 0.346522
v 0.130545 -0.671906 0.307267
v -0.002948 -0.696308 0.333263
v -0.002866 -0.695714 0.375686
v 0.002948 -0.653692 0.375086
v 0.002866 -0.654286 0.332664
v -0.130858 -0.678655 0.307820
v -0.146687 -0.675773 0.347078
v -0.140215 -0.633845 0.346609
v -0.124386 -0.636727 0.307352
v -0.239687 -0.660935 0.235103
v -0.268955 -0.655773 0.265381
v -0.261191 -0.614065 0.265776
v -0.231923 -0.619227 0.235498
v -0.312679 -0.643145 0.125863
v -0.350866 -0.635719 0.142793
v -0.341750 -0.594355 0.145211
v -0.303563 -0.601781 0.128281
v -0.338411 -0.625284 -0.003498
v -0.379699 -0.615615 -0.002160
v -0.369939 -0.574716 0.003498
v -0.328650 -0.584385 0.002160
v -0.312575 -0.607347 -0.133381
v -0.350802 -0.595465 -0.147435
v -0.341854 -0.555153 -0.137693
v -0.303628 -0.567035 -0.123638
v -0.238697 -0.589332 -0.243947
v -0.268344 -0.575272 -0.270843
v -0.262181 -0.535668 -0.256932
v -0.232535 -0.549728 -0.230036
v -0.127661 -0.571238 -0.318139
v -0.144713 -0.555041 -0.353450
v -0.143412 -0.516262 -0.336291
v -0.126360 -0.532459 -0.300979
v 0.003882 -0.553062 -0.344304
v 0.001352 -0.534777 -0.382505
v -0.003882 -0.496937 -0.364045
v -0.001353 -0.515223 -0.325845
v 0.136005 -0.534804 -0.318024
v 0.147620 -0.514484 -0.353410
v 0.135068 -0.477697 -0.336406
v 0.123453 -0.498016 -0.301020
v 0.248513 -0.516460 -0.242848
v 0.271764 -0.494166 -0.270460
v 0.252365 -0.458540 -0.258031
v 0.229115 -0.480834 -0.230419
v 0.324028 -0.498030 -0.129833
v 0.354792 -0.473829 -0.146199
v 0.330402 -0.439470 -0.141241
v 0.299637 -0.463671 -0.124874
v 0.350665 -0.479513 0.004083
v 0.383969 -0.453476 0.000481
v 0.357684 -0.420487 -0.004083
v 0.324381 -0.446524 -0.000481
v 0.323907 -0.460908 0.138608
v 0.354778 -0.433113 0.147233
v 0.330523 -0.401591 0.132466
v 0.299652 -0.429387 0.123841
v 0.247358 -0.442216 0.253171
v 0.271628 -0.412745 0.271676
v 0.253521 -0.382784 0.247707
v 0.229251 -0.412255 0.229203
v 0.132274 -0.423435 0.330068
v 0.147181 -0.392376 0.354829
v 0.138800 -0.364065 0.324362
v 0.123893 -0.395124 0.299601
v -0.004090 -0.404566 0.357192
v 0.000414 -0.372011 0.384023
v 0.004090 -0.345434 0.351157
v -0.000413 -0.377989 0.324327
v -0.141064 -0.385610 0.329947
v -0.146292 -0.351655 0.354841
v -0.130009 -0.326890 0.324483
v -0.124782 -0.360845 0.299589
v -0.257700 -0.366566 0.252013
v -0.270582 -0.331312 0.271793
v -0.243179 -0.308434 0.248865
v -0.230296 -0.343688 0.229086
v -0.335973 -0.347435 0.134869
v -0.353558 -0.310988 0.147611
v -0.318457 -0.290065 0.136204
v -0.300871 -0.326512 0.123463
v -0.363577 -0.328220 -0.003904
v -0.382663 -0.290687 0.001288
v -0.344773 -0.271780 0.003904
v -0.325686 -0.309313 -0.001288
v -0.335857 -0.308921 -0.143260
v -0.353596 -0.270413 -0.144842
v -0.318573 -0.253579 -0.127814
v -0.300833 -0.292087 -0.126232
v -0.256595 -0.289539 -0.261884
v -0.270947 -0.250172 -0.268535
v -0.244284 -0.235461 -0.238994
v -0.229932 -0.274828 -0.232343
v -0.137497 -0.270078 -0.341463
v -0.147469 -0.229967 -0.351040
v -0.133577 -0.217422 -0.312966
v -0.123604 -0.257533 -0.303389
v 0.003533 -0.250538 -0.369516
v -0.002102 -0.209804 -0.379956
v -0.003533 -0.199462 -0.338834
v 0.002102 -0.240196 -0.328394
v 0.145089 -0.230922 -0.341358
v 0.142951 -0.189685 -0.351103
v 0.125984 -0.181578 -0.313071
v 0.128122 -0.222815 -0.303327
v 0.265527 -0.211233 -0.260884
v 0.265631 -0.169616 -0.269130
v 0.235351 -0.163767 -0.239994
v 0.235247 -0.205384 -0.231748
v 0.346279 -0.191473 -0.140031
v 0.347395 -0.149599 -0.146763
v 0.308151 -0.146027 -0.131043
v 0.307035 -0.187901 -0.124310
v 0.374729 -0.171646 0.002995
v 0.376027 -0.129640 -0.002817
v 0.333621 -0.128354 -0.002995
v 0.332322 -0.170360 0.002817
v 0.346190 -0.151755 0.146467
v 0.347478 -0.109741 0.140709
v 0.308239 -0.110745 0.124606
v 0.306951 -0.152759 0.130364
v 0.264680 -0.131803 0.268456
v 0.266429 -0.089906 0.262009
v 0.236199 -0.093197 0.232423
v 0.234450 -0.135094 0.238870
v 0.142353 -0.111794 0.350192
v 0.145525 -0.070138 0.342794
v 0.128721 -0.075706 0.304237
v 0.125548 -0.117362 0.311636
v -0.002314 -0.091731 0.378969
v 0.003398 -0.050440 0.371065
v 0.002315 -0.058269 0.329381
v -0.003398 -0.099560 0.337285
v -0.147327 -0.071618 0.350124
v -0.138223 -0.030815 0.342895
v -0.123746 -0.040882 0.304306
v -0.132851 -0.081685 0.311535
v -0.270532 -0.051459 0.267801
v -0.257838 -0.011266 0.262970
v -0.230347 -0.023541 0.233078
v -0.243041 -0.063734 0.237908
v -0.353018 -0.031260 0.144352
v -0.337455 0.008206 0.143815
v -0.301412 -0.006240 0.126722
v -0.316974 -0.045706 0.127259
v -0.381498 -0.011789 0.003804
v -0.365121 0.027290 0.005953
v -0.326852 0.011789 -0.003804
v -0.343229 -0.027290 -0.005953
vn -0.7149 0.6976 -0.0471
vn -0.6716 0.7208 -0.1712
vn -0.6717 0.7208 -0.1711
vn 0.6787 0.6975 0.2299
vn 0.6332 0.6831 0.3639
vn 0.6331 0.6831 0.3640
vn 0.7156 -0.6971 0.0445
vn 0.6720 -0.7207 0.1701
vn 0.6721 -0.7207 0.1700
vn -0.6780 -0.6972 -0.2328
vn -0.6326 -0.6828 -0.3654
vn -0.6326 -0.6828 -0.3655
vn -0.5318 0.7550 -0.3837
vn -0.5318 0.7549 -0.3837
vn 0.4762 0.6413 0.6016
vn 0.4763 0.6413 0.6016
vn 0.5316 -0.7550 0.3840
vn 0.5316 -0.7550 0.3839
vn -0.4760 -0.6413 -0.6018
vn -0.3325 0.7888 -0.5170
vn 0.2282 0.5992 0.7674
vn 0.2282 0.5992 0.7673
vn 0.3323 -0.7888 0.5171
vn -0.2279 -0.5992 -0.7675
vn -0.2280 -0.5992 -0.7675
vn -0.1137 0.8202 -0.5606
vn -0.0768 0.5554 0.8280
vn -0.0767 0.5554 0.8280
vn 0.1134 -0.8203 0.5606
vn 0.1135 -0.8203 0.5606
vn 0.0770 -0.5553 -0.8280
vn 0.0882 0.8493 -0.5206
vn -0.3932 0.5099 0.7651
vn -0.3931 0.5099 0.7652
vn -0.0884 -0.8493 0.5205
vn 0.3934 -0.5098 -0.7650
vn 0.3934 -0.5098 -0.7651
vn 0.2445 0.8758 -0.4162
vn -0.6704 0.4628 0.5799
vn -0.6704 0.4629 0.5800
vn -0.2447 -0.8758 0.4160
vn -0.2447 -0.8758 0.4161
vn 0.6706 -0.4628 -0.5798
vn 0.6705 -0.4628 -0.5798
vn 0.3388 0.8997 -0.2753
vn -0.8610 0.4145 0.2947
vn -0.3389 -0.8997 0.2751
vn 0.8611 -0.4144 -0.2945
vn 0.3683 0.9209 -0.1277
vn -0.9297 0.3648 -0.0504
vn -0.9297 0.3648 -0.0503
vn -0.3683 -0.9209 0.1275
vn 0.9297 -0.3648 0.0506
vn 0.3428 0.9394 0.0010
vn -0.8596 0.3141 -0.4030
vn -0.3427 -0.9394 -0.0012
vn 0.8595 -0.3141 0.4032
vn 0.8595 -0.3141 0.4031
vn 0.2809 0.9551 0.0937
vn -0.6562 0.2625 -0.7075
vn -0.6562 0.2625 -0.7074
vn -0.2808 -0.9552 -0.0938
vn 0.6561 -0.2624 0.7076
vn 0.6561 -0.2624 0.7075
vn 0.2051 0.9680 0.1445
vn -0.3472 0.2100 -0.9140
vn -0.2050 -0.9680 -0.1446
vn 0.3470 -0.2100 0.9140
vn 0.3471 -0.2100 0.9140
vn 0.1355 0.9780 0.1585
vn 0.0217 0.1570 -0.9874
vn 0.0216 0.1570 -0.9874
vn -0.1354 -0.9780 -0.1585
vn -0.0218 -0.1570 0.9874
vn -0.0217 -0.1570 0.9874
vn 0.0862 0.9851 0.1487
vn 0.3938 0.1035 -0.9133
vn 0.3937 0.1035 -0.9134
vn -0.0861 -0.9851 -0.1487
vn -0.3939 -0.1035 0.9133
vn -0.3938 -0.1035 0.9133
vn 0.0615 0.9893 0.1324
vn 0.7111 0.0496 -0.7013
vn 0.7110 0.0497 -0.7014
vn -0.0615 -0.9893 -0.1323
vn -0.7111 -0.0496 0.7013
vn -0.7111 -0.0496 0.7014
vn 0.0566 0.9905 0.1251
vn 0.9237 -0.0043 -0.3832
vn 0.9236 -0.0043 -0.3833
vn -0.0565 -0.9905 -0.1251
vn -0.9237 0.0043 0.3832
vn -0.9236 0.0043 0.3833
vn 0.0588 0.9888 0.1370
vn 0.9983 -0.0583 -0.0080
vn 0.9983 -0.0583 -0.0081
vn -0.0588 -0.9888 -0.1370
vn -0.9983 0.0583 0.0080
vn -0.9983 0.0583 0.0081
vn 0.0523 0.9842 0.1692
vn 0.9239 -0.1121 0.3660
vn 0.9239 -0.1121 0.3659
vn -0.0523 -0.9842 -0.1693
vn -0.9239 0.1121 -0.3659
vn -0.9239 0.1121 -0.3658
vn 0.0225 0.9766 0.2138
vn 0.7133 -0.1655 0.6810
vn 0.7134 -0.1655 0.6810
vn -0.0224 -0.9766 -0.2138
vn -0.7134 0.1655 -0.6810
vn -0.7134 0.1655 -0.6809
vn -0.0392 0.9662 0.2549
vn 0.4011 -0.2185 0.8896
vn 0.4012 -0.2185 0.8896
vn 0.0393 -0.9661 -0.2550
vn -0.4012 0.2185 -0.8895
vn -0.4013 0.2185 -0.8895
vn -0.1319 0.9528 0.2733
vn 0.0374 -0.2708 0.9619
vn 0.1321 -0.9528 -0.2733
vn -0.0375 0.2708 -0.9619
vn -0.0376 0.2708 -0.9619
vn -0.2443 0.9367 0.2509
vn -0.3208 -0.3223 0.8906
vn -0.3207 -0.3223 0.8907
vn 0.2445 -0.9366 -0.2509
vn 0.3206 0.3223 -0.8907
vn 0.3205 0.3223 -0.8907
vn -0.3559 0.9177 0.1763
vn -0.6187 -0.3729 0.6915
vn -0.6187 -0.3728 0.6915
vn 0.3561 -0.9177 -0.1762
vn 0.6186 0.3728 -0.6916
vn 0.6185 0.3728 -0.6917
vn -0.4413 0.8961 0.0486
vn -0.8134 -0.4223 0.4000
vn -0.8134 -0.4223 0.4001
vn 0.4414 -0.8960 -0.0484
vn 0.8133 0.4223 -0.4002
vn 0.8133 0.4223 -0.4003
vn -0.4749 0.8717 -0.1206
vn -0.8800 -0.4705 0.0650
vn 0.4749 -0.8717 0.1209
vn 0.8800 0.4705 -0.0652
vn 0.8800 0.4704 -0.0653
vn -0.4377 0.8448 -0.3078
vn -0.8153 -0.5173 -0.2604
vn -0.8153 -0.5173 -0.2603
vn 0.4376 -0.8448 0.3080
vn 0.8154 0.5172 0.2601
vn -0.3218 0.8154 -0.4813
vn -0.6370 -0.5625 -0.5271
vn 0.3216 -0.8153 0.4815
vn 0.3216 -0.8153 0.4814
vn 0.6372 0.5625 0.5269
vn -0.1340 0.7835 -0.6067
vn -0.3800 -0.6061 -0.6987
vn -0.3801 -0.6061 -0.6987
vn 0.1338 -0.7835 0.6068
vn 0.3803 0.6061 0.6986
vn 0.3804 0.6061 0.6986
vn 0.1036 0.7494 -0.6540
vn -0.0895 -0.6479 -0.7565
vn -0.0896 -0.6479 -0.7565
vn -0.1039 -0.7493 0.6540
vn 0.0898 0.6478 0.7565
vn 0.0899 0.6478 0.7565
vn 0.3567 0.7130 -0.6037
vn 0.1876 -0.6877 -0.7013
vn -0.3570 -0.7129 0.6036
vn -0.1873 0.6877 0.7014
vn 0.5838 0.6744 -0.4520
vn 0.4105 -0.7256 -0.5523
vn -0.5840 -0.6744 0.4518
vn -0.4103 0.7255 0.5525
vn -0.4103 0.7255 0.5526
vn 0.7435 0.6339 -0.2131
vn 0.7434 0.6339 -0.2131
vn 0.5509 -0.7612 -0.3421
vn -0.7436 -0.6339 0.2128
vn -0.7436 -0.6339 0.2129
vn -0.5508 0.7612 0.3424
vn 0.8021 0.5915 0.0818
vn 0.8021 0.5915 0.0817
vn 0.5971 -0.7946 -0.1099
vn -0.8021 -0.5915 -0.0820
vn -0.5971 0.7946 0.1102
vn 0.7411 0.5473 0.3888
vn 0.7411 0.5474 0.3888
vn 0.5542 -0.8256 0.1059
vn -0.7410 -0.5473 -0.3891
vn -0.5543 0.8256 -0.1057
vn 0.5608 0.5016 0.6588
vn 0.5608 0.5016 0.6587
vn 0.4416 -0.8542 0.2744
vn -0.5606 -0.5015 -0.6590
vn -0.5606 -0.5015 -0.6589
vn -0.4417 0.8542 -0.2743
vn -0.4417 0.8542 -0.2742
vn 0.2821 0.4543 0.8450
vn 0.2880 -0.8803 0.3770
vn -0.2818 -0.4542 -0.8451
vn -0.2819 -0.4543 -0.8451
vn -0.2882 0.8802 -0.3769
vn -0.0561 0.4057 0.9123
vn -0.0560 0.4057 0.9123
vn 0.1251 -0.9037 0.4095
vn 0.0563 -0.4056 -0.9123
vn 0.0562 -0.4056 -0.9123
vn -0.1253 0.9037 -0.4095
vn -0.4026 0.3558 0.8434
vn -0.4025 0.3558 0.8434
vn -0.0192 -0.9245 0.3808
vn 0.4028 -0.3558 -0.8433
vn 0.4027 -0.3558 -0.8434
vn 0.0190 0.9244 -0.3809
vn -0.7026 0.3049 0.6430
vn -0.7025 0.3049 0.6430
vn -0.1254 -0.9425 0.3099
vn 0.7027 -0.3049 -0.6429
vn 0.7026 -0.3049 -0.6429
vn 0.1253 0.9424 -0.3100
vn -0.9066 0.2531 0.3377
vn -0.1853 -0.9577 0.2203
vn 0.9067 -0.2531 -0.3375
vn 0.9066 -0.2531 -0.3376
vn 0.1853 0.9577 -0.2204
vn -0.9793 0.2006 -0.0277
vn -0.2025 -0.9700 0.1343
vn 0.9793 -0.2006 0.0278
vn 0.2025 0.9700 -0.1344
vn -0.9058 0.1474 -0.3973
vn -0.9058 0.1474 -0.3972
vn -0.1894 -0.9795 0.0684
vn 0.9058 -0.1474 0.3973
vn 0.1894 0.9795 -0.0685
vn -0.6947 0.0938 -0.7131
vn -0.6948 0.0939 -0.7131
vn -0.1636 -0.9861 0.0296
vn 0.6947 -0.0938 0.7132
vn 0.6948 -0.0938 0.7131
vn 0.1636 0.9861 -0.0296
vn -0.3772 0.0400 -0.9253
vn -0.3773 0.0400 -0.9252
vn -0.1421 -0.9897 0.0152
vn 0.3772 -0.0400 0.9253
vn 0.3773 -0.0400 0.9252
vn 0.1421 0.9897 -0.0152
vn -0.0019 -0.0140 -0.9999
vn -0.0020 -0.0140 -0.9999
vn -0.1372 -0.9904 0.0141
vn 0.0019 0.0140 0.9999
vn 0.0020 0.0140 0.9999
vn 0.1372 0.9904 -0.0141
vn 0.3732 -0.0679 -0.9253
vn 0.3731 -0.0679 -0.9253
vn -0.1527 -0.9882 0.0109
vn -0.3731 0.0679 0.9253
vn -0.3730 0.0679 0.9253
vn 0.1527 0.9882 -0.0110
vn 0.6899 -0.1217 -0.7136
vn 0.6898 -0.1217 -0.7137
vn -0.1832 -0.9830 -0.0095
vn -0.6898 0.1217 0.7137
vn 0.1831 0.9830 0.0094
vn 0.9001 -0.1751 -0.3990
vn 0.9001 -0.1750 -0.3990
vn -0.2149 -0.9749 -0.0572
vn -0.9001 0.1750 0.3991
vn -0.9000 0.1750 0.3991
vn 0.2149 0.9750 0.0571
vn 0.9732 -0.2279 -0.0314
vn 0.9732 -0.2279 -0.0315
vn -0.2300 -0.9640 -0.1336
vn -0.9732 0.2279 0.0316
vn 0.2300 0.9640 0.1335
vn 0.9010 -0.2801 0.3314
vn 0.9010 -0.2801 0.3313
vn -0.2108 -0.9501 -0.2299
vn -0.9010 0.2801 -0.3312
vn -0.9011 0.2801 -0.3312
vn 0.2109 0.9501 0.2297
vn 0.6987 -0.3314 0.6340
vn -0.1451 -0.9335 -0.3281
vn -0.6988 0.3314 -0.6339
vn -0.6989 0.3314 -0.6338
vn 0.1452 0.9335 0.3279
vn 0.4018 -0.3818 0.8323
vn 0.4019 -0.3818 0.8323
vn -0.0304 -0.9140 -0.4045
vn -0.4020 0.3818 -0.8323
vn -0.4021 0.3818 -0.8322
vn 0.0306 0.9140 0.4045
vn 0.0595 -0.4310 0.9004
vn 0.0596 -0.4310 0.9004
vn 0.1237 -0.8919 -0.4351
vn 0.1236 -0.8919 -0.4351
vn -0.0597 0.4310 -0.9004
vn -0.0598 0.4310 -0.9004
vn -0.1234 0.8919 0.4351
vn -0.2739 -0.4790 0.8340
vn -0.2738 -0.4790 0.8340
vn 0.2961 -0.8671 -0.4007
vn 0.2736 0.4789 -0.8341
vn -0.2959 0.8671 0.4008
vn -0.2958 0.8671 0.4008
vn -0.5481 -0.5255 0.6507
vn -0.5481 -0.5255 0.6508
vn 0.4574 -0.8397 -0.2927
vn 0.4574 -0.8397 -0.2928
vn 0.5479 0.5255 -0.6509
vn 0.5479 0.5255 -0.6510
vn -0.4572 0.8397 0.2929
vn -0.7252 -0.5705 0.3857
vn -0.7251 -0.5705 0.3857
vn 0.5750 -0.8098 -0.1166
vn 0.7250 0.5704 -0.3859
vn 0.7250 0.5704 -0.3860
vn -0.5749 0.8099 0.1169
vn -0.7850 -0.6137 0.0848
vn 0.6195 -0.7775 0.1078
vn 0.7850 0.6137 -0.0851
vn -0.6195 0.7776 -0.1075
vn -0.7276 -0.6552 -0.2034
vn 0.5716 -0.7430 0.3483
vn 0.7277 0.6551 0.2031
vn -0.5717 0.7430 -0.3480
vn -0.5720 -0.6947 -0.4362
vn 0.4266 -0.7062 0.5651
vn 0.5722 0.6946 0.4360
vn -0.4268 0.7062 -0.5649
vn -0.3513 -0.7321 -0.5836
vn 0.1973 -0.6673 0.7182
vn 0.3516 0.7321 0.5835
vn -0.1976 0.6673 -0.7181
vn -0.1061 -0.7674 -0.6324
vn -0.0869 -0.6264 0.7746
vn -0.0868 -0.6264 0.7746
vn 0.1064 0.7673 0.6324
vn 0.0866 0.6265 -0.7746
vn 0.1232 -0.8003 -0.5867
vn -0.3840 -0.5837 0.7154
vn -0.3839 -0.5837 0.7155
vn -0.1230 0.8003 0.5868
vn -0.1230 0.8003 0.5869
vn 0.3837 0.5837 -0.7156
vn 0.3036 -0.8309 -0.4662
vn -0.6460 -0.5392 0.5403
vn -0.3034 0.8309 0.4664
vn 0.6458 0.5393 -0.5404
vn 0.6458 0.5393 -0.5405
vn 0.4145 -0.8591 -0.3003
vn -0.8274 -0.4932 0.2687
vn -0.4144 0.8591 0.3006
vn -0.4144 0.8590 0.3006
vn 0.8273 0.4932 -0.2689
vn 0.8273 0.4932 -0.2690
vn 0.4499 -0.8847 -0.1224
vn -0.8931 -0.4456 -0.0618
vn -0.4499 0.8846 0.1226
vn -0.4499 0.8846 0.1227
vn 0.8931 0.4457 0.0616
vn 0.8931 0.4457 0.0615
vn 0.4181 -0.9076 0.0372
vn -0.8254 -0.3968 -0.4015
vn -0.8255 -0.3968 -0.4014
vn -0.4182 0.9076 -0.0370
vn 0.8255 0.3968 0.4013
vn 0.8256 0.3968 0.4012
vn 0.3383 -0.9279 0.1567
vn -0.6283 -0.3467 -0.6964
vn -0.6284 -0.3468 -0.6963
vn -0.3385 0.9279 -0.1566
vn 0.6285 0.3468 0.6962
vn 0.2351 -0.9454 0.2257
vn -0.3273 -0.2957 -0.8975
vn -0.3274 -0.2957 -0.8974
vn -0.2353 0.9454 -0.2256
vn 0.3275 0.2957 0.8974
vn 0.1329 -0.9601 0.2461
vn 0.0338 -0.2437 -0.9692
vn 0.0338 -0.2438 -0.9692
vn -0.1331 0.9601 -0.2461
vn -0.0337 0.2438 0.9692
vn -0.0336 0.2438 0.9692
vn 0.0505 -0.9719 0.2297
vn 0.4000 -0.1911 -0.8964
vn 0.3999 -0.1911 -0.8964
vn -0.0506 0.9719 -0.2298
vn -0.3999 0.1911 0.8964
vn -0.3998 0.1911 0.8964
vn -0.0023 -0.9809 0.1945
vn 0.7138 -0.1379 -0.6867
vn 0.7137 -0.1379 -0.6867
vn 0.0023 0.9809 -0.1945
vn -0.7137 0.1379 0.6867
vn -0.7137 0.1379 0.6868
vn -0.0262 -0.9870 0.1588
vn 0.9250 -0.0842 -0.3705
vn 0.0262 0.9869 -0.1589
vn -0.9250 0.0842 0.3705
vn -0.9250 0.0842 0.3706
vn -0.0306 -0.9901 0.1372
vn 0.9995 -0.0303 0.0042
vn 0.0306 0.9901 -0.1372
vn -0.9995 0.0303 -0.0042
vn -0.9995 0.0303 -0.0041
vn -0.0304 -0.9903 0.1359
vn 0.9249 0.0237 0.3796
vn 0.9249 0.0237 0.3795
vn 0.0304 0.9903 -0.1359
vn -0.9249 -0.0237 -0.3796
vn -0.9249 -0.0237 -0.3795
vn -0.0414 -0.9875 0.1521
vn 0.7125 0.0776 0.6974
vn 0.7126 0.0776 0.6973
vn 0.0414 0.9875 -0.1521
vn -0.7125 -0.0776 -0.6974
vn -0.7125 -0.0776 -0.6973
vn -0.0750 -0.9818 0.1745
vn 0.3961 0.1313 0.9088
vn 0.3962 0.1312 0.9088
vn 0.0749 0.9818 -0.1744
vn -0.3960 -0.1313 -0.9088
vn -0.3961 -0.1313 -0.9088
vn -0.1349 -0.9732 0.1863
vn 0.0256 0.1845 0.9825
vn 0.1348 0.9732 -0.1863
vn -0.0254 -0.1846 -0.9825
vn -0.0255 -0.1846 -0.9825
vn -0.2148 -0.9617 0.1703
vn -0.3412 0.2373 0.9096
vn -0.3411 0.2373 0.9096
vn 0.2147 0.9617 -0.1703
vn 0.3413 -0.2373 -0.9095
vn 0.3412 -0.2373 -0.9095
vn -0.2994 -0.9473 0.1137
vn -0.6479 0.2893 0.7046
vn -0.6479 0.2893 0.7047
vn 0.2993 0.9474 -0.1138
vn 0.6480 -0.2893 -0.7045
vn -0.3651 -0.9309 0.0121
vn -0.3650 -0.9309 0.0121
vn -0.8485 0.3417 0.4041
vn 0.3651 0.9309 -0.0118
vn 0.3651 0.9309 -0.0119
vn 0.8495 -0.3421 -0.4017
vn -0.3887 -0.9200 -0.0496
vn -0.9027 0.3623 0.2322
vn 0.3889 0.9199 0.0503
vn 0.9037 -0.3628 -0.2273
vn -0.1933 -0.1344 0.9719
vn -0.1933 0.1344 -0.9719
vt 0.033783 0.988746
vt 0.036679 0.950775
vt 0.048316 0.951579
vt 0.044921 0.989668
vt 0.023289 0.988273
vt 0.023994 0.950219
vt 0.012831 0.988256
vt 0.011912 0.950314
vt 0.001607 0.988641
vt 0.000136 0.950386
vt 0.038144 0.909891
vt 0.050113 0.910509
vt 0.025473 0.909740
vt 0.012869 0.909675
vt 0.000900 0.909299
vt 0.039589 0.868454
vt 0.051707 0.869070
vt 0.026771 0.868318
vt 0.014009 0.868253
vt 0.001890 0.867878
vt 0.041076 0.826434
vt 0.053390 0.827092
vt 0.028047 0.826293
vt 0.015092 0.826243
vt 0.002775 0.825912
vt 0.042623 0.783639
vt 0.055201 0.784345
vt 0.029312 0.783490
vt 0.016098 0.783459
vt 0.003516 0.783178
vt 0.044234 0.739833
vt 0.057149 0.740591
vt 0.030567 0.739677
vt 0.017020 0.739667
vt 0.004101 0.739439
vt 0.045913 0.694767
vt 0.059243 0.695580
vt 0.031811 0.694606
vt 0.017852 0.694618
vt 0.004520 0.694446
vt 0.047661 0.648173
vt 0.061489 0.649045
vt 0.033039 0.648008
vt 0.018586 0.648045
vt 0.004758 0.647932
vt 0.049481 0.599766
vt 0.063899 0.600700
vt 0.034248 0.599599
vt 0.019211 0.599662
vt 0.004799 0.599616
vt 0.051378 0.549232
vt 0.066483 0.550232
vt 0.035433 0.549065
vt 0.019713 0.549158
vt 0.004619 0.549183
vt 0.053354 0.496231
vt 0.069255 0.497303
vt 0.036589 0.496065
vt 0.020080 0.496190
vt 0.004198 0.496293
vt 0.055414 0.440392
vt 0.072231 0.441541
vt 0.037711 0.440231
vt 0.020296 0.440390
vt 0.003511 0.440578
vt 0.057557 0.381314
vt 0.075421 0.382536
vt 0.038790 0.381165
vt 0.020345 0.381360
vt 0.002533 0.381635
vt 0.059720 0.318609
vt 0.078782 0.319817
vt 0.039806 0.318514
vt 0.020210 0.318722
vt 0.001278 0.319038
vt 0.061135 0.252472
vt 0.081657 0.252710
vt 0.040951 0.252583
vt 0.019654 0.252435
vt 0.000136 0.252512
vt 0.061077 0.185693
vt 0.080642 0.184879
vt 0.040819 0.186126
vt 0.020975 0.185647
vt 0.001745 0.185464
vt 0.060119 0.121355
vt 0.078816 0.120393
vt 0.040691 0.121937
vt 0.021776 0.121561
vt 0.003349 0.121432
vt 0.059010 0.059995
vt 0.076713 0.058821
vt 0.039988 0.060725
vt 0.022469 0.060385
vt 0.004586 0.060245
vt 0.057188 0.004558
vt 0.072837 0.000740
vt 0.040599 0.003820
vt 0.024275 0.000136
vt 0.005836 0.000313
vt 0.102695 0.004473
vt 0.100412 0.061622
vt 0.081928 0.061585
vt 0.085267 0.000136
vt 0.119353 0.004142
vt 0.119007 0.061702
vt 0.137915 0.000707
vt 0.137214 0.062234
vt 0.155587 0.001820
vt 0.154371 0.062483
vt 0.099948 0.121019
vt 0.082324 0.121602
vt 0.117976 0.120707
vt 0.135513 0.121186
vt 0.152699 0.121445
vt 0.100185 0.178516
vt 0.083152 0.179180
vt 0.117594 0.178131
vt 0.134581 0.178464
vt 0.151297 0.178626
vt 0.100635 0.234219
vt 0.084074 0.234901
vt 0.117516 0.233786
vt 0.134001 0.234006
vt 0.150265 0.234087
vt 0.101211 0.288363
vt 0.085046 0.289052
vt 0.117637 0.287889
vt 0.133688 0.288017
vt 0.149560 0.288032
vt 0.101880 0.341174
vt 0.086047 0.341862
vt 0.117917 0.340666
vt 0.133598 0.340714
vt 0.149140 0.340674
vt 0.102615 0.392858
vt 0.087053 0.393539
vt 0.118326 0.392324
vt 0.133698 0.392301
vt 0.148970 0.392216
vt 0.103392 0.443616
vt 0.088042 0.444282
vt 0.118836 0.443064
vt 0.133960 0.442978
vt 0.149019 0.442856
vt 0.104187 0.493641
vt 0.088993 0.494286
vt 0.119423 0.493076
vt 0.134356 0.492936
vt 0.149260 0.492787
vt 0.104977 0.543121
vt 0.089883 0.543737
vt 0.120062 0.542550
vt 0.134861 0.542365
vt 0.149665 0.542194
vt 0.105740 0.592242
vt 0.090690 0.592822
vt 0.120730 0.591672
vt 0.135451 0.591449
vt 0.150210 0.591264
vt 0.106451 0.641188
vt 0.091390 0.641725
vt 0.121403 0.640625
vt 0.136101 0.640371
vt 0.150871 0.640179
vt 0.107089 0.690143
vt 0.091960 0.690629
vt 0.122061 0.689595
vt 0.136792 0.689315
vt 0.151626 0.689120
vt 0.107626 0.739300
vt 0.092370 0.739724
vt 0.122703 0.738776
vt 0.137513 0.738474
vt 0.152464 0.738261
vt 0.107889 0.788846
vt 0.092577 0.789197
vt 0.123557 0.788437
vt 0.138168 0.788122
vt 0.153483 0.787740
vt 0.107369 0.837193
vt 0.093005 0.838414
vt 0.123035 0.840284
vt 0.138997 0.841851
vt 0.155587 0.838643
vt 0.403919 0.003863
vt 0.403298 0.052834
vt 0.387061 0.052684
vt 0.388192 0.002106
vt 0.418441 0.001310
vt 0.418394 0.052850
vt 0.435025 0.000136
vt 0.433461 0.052928
vt 0.450254 0.003437
vt 0.448217 0.053215
vt 0.401998 0.103289
vt 0.386051 0.103152
vt 0.417490 0.103266
vt 0.432757 0.103176
vt 0.448233 0.103206
vt 0.400979 0.154677
vt 0.384702 0.154450
vt 0.416830 0.154688
vt 0.432461 0.154571
vt 0.448399 0.154583
vt 0.399611 0.207389
vt 0.383004 0.207024
vt 0.416312 0.207583
vt 0.432095 0.207435
vt 0.448666 0.207299
vt 0.397005 0.260364
vt 0.380990 0.260225
vt 0.414308 0.264628
vt 0.432152 0.265835
vt 0.450254 0.262240
vt 0.358767 0.570156
vt 0.358622 0.516784
vt 0.376218 0.516844
vt 0.376017 0.570900
vt 0.342842 0.573435
vt 0.342510 0.516848
vt 0.324852 0.573902
vt 0.326343 0.516959
vt 0.308244 0.570065
vt 0.310198 0.516737
vt 0.359855 0.462171
vt 0.377357 0.462366
vt 0.343047 0.462220
vt 0.326405 0.462503
vt 0.309347 0.462620
vt 0.360884 0.405783
vt 0.378989 0.406050
vt 0.343426 0.405781
vt 0.326142 0.406040
vt 0.308285 0.406125
vt 0.362484 0.347574
vt 0.380719 0.347555
vt 0.343792 0.347344
vt 0.326387 0.347399
vt 0.307403 0.347063
vt 0.361955 0.289991
vt 0.379645 0.289686
vt 0.344968 0.289633
vt 0.328132 0.289458
vt 0.310700 0.288740
vt 0.362030 0.235732
vt 0.378658 0.235511
vt 0.346125 0.235350
vt 0.330314 0.235114
vt 0.313973 0.234389
vt 0.362352 0.184739
vt 0.378020 0.184617
vt 0.347391 0.184337
vt 0.332505 0.184069
vt 0.317099 0.183369
vt 0.362883 0.136625
vt 0.377710 0.136596
vt 0.348744 0.136208
vt 0.334665 0.135916
vt 0.320071 0.135244
vt 0.363602 0.090986
vt 0.377715 0.091074
vt 0.350175 0.090552
vt 0.336772 0.090252
vt 0.322874 0.089635
vt 0.364487 0.047249
vt 0.378212 0.047678
vt 0.351794 0.046709
vt 0.338702 0.046479
vt 0.325307 0.046180
vt 0.367215 0.003432
vt 0.380719 0.005261
vt 0.354021 0.000136
vt 0.339129 0.000683
vt 0.325220 0.003231
vt 0.210868 0.832241
vt 0.208814 0.775919
vt 0.226107 0.775338
vt 0.228791 0.830022
vt 0.192003 0.835892
vt 0.192190 0.775959
vt 0.173762 0.834000
vt 0.176324 0.775850
vt 0.155858 0.829814
vt 0.159419 0.775321
vt 0.208463 0.722800
vt 0.225004 0.722445
vt 0.192751 0.722726
vt 0.177108 0.722713
vt 0.160764 0.722599
vt 0.208204 0.671353
vt 0.224304 0.671073
vt 0.192912 0.671288
vt 0.177653 0.671305
vt 0.161689 0.671277
vt 0.208010 0.621077
vt 0.223788 0.620834
vt 0.193021 0.621029
vt 0.178056 0.621046
vt 0.162378 0.621067
vt 0.207879 0.571646
vt 0.223425 0.571435
vt 0.193105 0.571614
vt 0.178348 0.571627
vt 0.162869 0.571690
vt 0.207813 0.522780
vt 0.223211 0.522602
vt 0.193174 0.522762
vt 0.178542 0.522769
vt 0.163181 0.522869
vt 0.207819 0.474214
vt 0.223150 0.474069
vt 0.193233 0.474208
vt 0.178649 0.474206
vt 0.163323 0.474341
vt 0.207903 0.425686
vt 0.223247 0.425576
vt 0.193292 0.425690
vt 0.178675 0.425677
vt 0.163305 0.425846
vt 0.208072 0.376936
vt 0.223510 0.376863
vt 0.193357 0.376947
vt 0.178629 0.376921
vt 0.163133 0.377122
vt 0.208335 0.327700
vt 0.223949 0.327667
vt 0.193436 0.327717
vt 0.178516 0.327674
vt 0.162811 0.327908
vt 0.208702 0.277708
vt 0.224577 0.277717
vt 0.193535 0.277727
vt 0.178340 0.277667
vt 0.162342 0.277932
vt 0.209184 0.226677
vt 0.225408 0.226734
vt 0.193663 0.226697
vt 0.178104 0.226617
vt 0.161724 0.226915
vt 0.209797 0.174310
vt 0.226462 0.174423
vt 0.193828 0.174325
vt 0.177811 0.174223
vt 0.160950 0.174561
vt 0.210575 0.120271
vt 0.227783 0.120478
vt 0.194062 0.120247
vt 0.177458 0.120132
vt 0.159984 0.120548
vt 0.211634 0.063952
vt 0.229553 0.064586
vt 0.194745 0.063828
vt 0.177038 0.063811
vt 0.158609 0.064431
vt 0.214473 0.001832
vt 0.233575 0.006470
vt 0.194935 0.000136
vt 0.174939 0.004141
vt 0.155859 0.006142
vt 0.264233 0.000560
vt 0.264099 0.048121
vt 0.250264 0.047915
vt 0.249895 0.003373
vt 0.279586 0.000136
vt 0.277659 0.048238
vt 0.293182 0.003487
vt 0.290895 0.048751
vt 0.307132 0.004953
vt 0.305184 0.049015
vt 0.262312 0.093689
vt 0.247843 0.093107
vt 0.276316 0.093965
vt 0.290387 0.094432
vt 0.305165 0.094380
vt 0.260165 0.141578
vt 0.244865 0.140882
vt 0.274980 0.141903
vt 0.289891 0.142408
vt 0.305516 0.142284
vt 0.257769 0.192408
vt 0.241514 0.191620
vt 0.273533 0.192762
vt 0.289411 0.193312
vt 0.306022 0.193156
vt 0.255160 0.246602
vt 0.237797 0.245751
vt 0.271976 0.246962
vt 0.288955 0.247552
vt 0.306640 0.247407
vt 0.252802 0.304489
vt 0.233846 0.303909
vt 0.270215 0.304698
vt 0.288905 0.305134
vt 0.307132 0.305356
vt 0.251816 0.363190
vt 0.233950 0.362949
vt 0.269130 0.363207
vt 0.286587 0.363322
vt 0.304642 0.363818
vt 0.251397 0.419766
vt 0.234252 0.419606
vt 0.268083 0.419683
vt 0.284874 0.419701
vt 0.302261 0.420107
vt 0.251193 0.474282
vt 0.234684 0.474182
vt 0.267295 0.474152
vt 0.283513 0.474081
vt 0.300274 0.474363
vt 0.251151 0.526974
vt 0.235206 0.526918
vt 0.266739 0.526816
vt 0.282460 0.526667
vt 0.298680 0.526826
vt 0.251196 0.578081
vt 0.235773 0.578039
vt 0.266338 0.577942
vt 0.281651 0.577731
vt 0.297477 0.577764
vt 0.250967 0.627809
vt 0.236330 0.627714
vt 0.265881 0.627769
vt 0.280649 0.627551
vt 0.296681 0.627754
vt 0.250912 0.677963
vt 0.235431 0.677710
vt 0.266803 0.677709
vt 0.281325 0.677414
vt 0.295907 0.677467
vt 0.013215 0.999480
vt 0.001991 0.999864
vt 0.250658 0.693444
vt 0.235177 0.693191
s 1
usemtl Material.001
f 1/1/1 5/2/2 8/3/3 4/4/1
f 2/5/4 6/6/5 5/2/6 1/1/4
f 3/7/7 7/8/8 6/6/9 2/5/7
f 4/9/10 8/10/11 7/8/12 3/7/10
f 5/2/2 9/11/13 12/12/14 8/3/3
f 6/6/5 10/13/15 9/11/16 5/2/6
f 7/8/8 11/14/17 10/13/18 6/6/9
f 8/10/11 12/15/19 11/14/19 7/8/12
f 9/11/13 13/16/20 16/17/20 12/12/14
f 10/13/15 14/18/21 13/16/22 9/11/16
f 11/14/17 15/19/23 14/18/23 10/13/18
f 12/15/19 16/20/24 15/19/25 11/14/19
f 13/16/20 17/21/26 20/22/26 16/17/20
f 14/18/21 18/23/27 17/21/28 13/16/22
f 15/19/23 19/24/29 18/23/30 14/18/23
f 16/20/24 20/25/31 19/24/31 15/19/25
f 17/21/26 21/26/32 24/27/32 20/22/26
f 18/23/27 22/28/33 21/26/34 17/21/28
f 19/24/29 23/29/35 22/28/35 18/23/30
f 20/25/31 24/30/36 23/29/37 19/24/31
f 21/26/32 25/31/38 28/32/38 24/27/32
f 22/28/33 26/33/39 25/31/40 21/26/34
f 23/29/35 27/34/41 26/33/42 22/28/35
f 24/30/36 28/35/43 27/34/44 23/29/37
f 25/31/38 29/36/45 32/37/45 28/32/38
f 26/33/39 30/38/46 29/36/46 25/31/40
f 27/34/41 31/39/47 30/38/47 26/33/42
f 28/35/43 32/40/48 31/39/48 27/34/44
f 29/36/45 33/41/49 36/42/49 32/37/45
f 30/38/46 34/43/50 33/41/51 29/36/46
f 31/39/47 35/44/52 34/43/52 30/38/47
f 32/40/48 36/45/53 35/44/53 31/39/48
f 33/41/49 37/46/54 40/47/54 36/42/49
f 34/43/50 38/48/55 37/46/55 33/41/51
f 35/44/52 39/49/56 38/48/56 34/43/52
f 36/45/53 40/50/57 39/49/58 35/44/53
f 37/46/54 41/51/59 44/52/59 40/47/54
f 38/48/55 42/53/60 41/51/61 37/46/55
f 39/49/56 43/54/62 42/53/62 38/48/56
f 40/50/57 44/55/63 43/54/64 39/49/58
f 41/51/59 45/56/65 48/57/65 44/52/59
f 42/53/60 46/58/66 45/56/66 41/51/61
f 43/54/62 47/59/67 46/58/67 42/53/62
f 44/55/63 48/60/68 47/59/69 43/54/64
f 45/56/65 49/61/70 52/62/70 48/57/65
f 46/58/66 50/63/71 49/61/72 45/56/66
f 47/59/67 51/64/73 50/63/73 46/58/67
f 48/60/68 52/65/74 51/64/75 47/59/69
f 49/61/70 53/66/76 56/67/76 52/62/70
f 50/63/71 54/68/77 53/66/78 49/61/72
f 51/64/73 55/69/79 54/68/79 50/63/73
f 52/65/74 56/70/80 55/69/81 51/64/75
f 53/66/76 57/71/82 60/72/82 56/67/76
f 54/68/77 58/73/83 57/71/84 53/66/78
f 55/69/79 59/74/85 58/73/85 54/68/79
f 56/70/80 60/75/86 59/74/87 55/69/81
f 57/71/82 61/76/88 64/77/88 60/72/82
f 58/73/83 62/78/89 61/76/90 57/71/84
f 59/74/85 63/79/91 62/78/91 58/73/85
f 60/75/86 64/80/92 63/79/93 59/74/87
f 61/76/88 65/81/94 68/82/94 64/77/88
f 62/78/89 66/83/95 65/81/96 61/76/90
f 63/79/91 67/84/97 66/83/97 62/78/91
f 64/80/92 68/85/98 67/84/99 63/79/93
f 65/81/94 69/86/100 72/87/100 68/82/94
f 66/83/95 70/88/101 69/86/102 65/81/96
f 67/84/97 71/89/103 70/88/103 66/83/97
f 68/85/98 72/90/104 71/89/105 67/84/99
f 69/86/100 73/91/106 76/92/106 72/87/100
f 70/88/101 74/93/107 73/91/108 69/86/102
f 71/89/103 75/94/109 74/93/109 70/88/103
f 72/90/104 76/95/110 75/94/111 71/89/105
f 73/91/106 77/96/112 80/97/112 76/92/106
f 74/93/107 78/98/113 77/96/114 73/91/108
f 75/94/109 79/99/115 78/98/115 74/93/109
f 76/95/110 80/100/116 79/99/117 75/94/111
f 77/101/112 81/102/118 84/103/118 80/104/112
f 78/105/113 82/106/119 81/102/119 77/101/114
f 79/107/115 83/108/120 82/106/120 78/105/115
f 80/109/116 84/110/121 83/108/122 79/107/117
f 81/102/118 85/111/123 88/112/123 84/103/118
f 82/106/119 86/113/124 85/111/125 81/102/119
f 83/108/120 87/114/126 86/113/126 82/106/120
f 84/110/121 88/115/127 87/114/128 83/108/122
f 85/111/123 89/116/129 92/117/129 88/112/123
f 86/113/124 90/118/130 89/116/131 85/111/125
f 87/114/126 91/119/132 90/118/132 86/113/126
f 88/115/127 92/120/133 91/119/134 87/114/128
f 89/116/129 93/121/135 96/122/135 92/117/129
f 90/118/130 94/123/136 93/121/137 89/116/131
f 91/119/132 95/124/138 94/123/138 90/118/132
f 92/120/133 96/125/139 95/124/140 91/119/134
f 93/121/135 97/126/141 100/127/141 96/122/135
f 94/123/136 98/128/142 97/126/142 93/121/137
f 95/124/138 99/129/143 98/128/143 94/123/138
f 96/125/139 100/130/144 99/129/145 95/124/140
f 97/126/141 101/131/146 104/132/146 100/127/141
f 98/128/142 102/133/147 101/131/148 97/126/142
f 99/129/143 103/134/149 102/133/149 98/128/143
f 100/130/144 104/135/150 103/134/150 99/129/145
f 101/131/146 105/136/151 108/137/151 104/132/146
f 102/133/147 106/138/152 105/136/152 101/131/148
f 103/134/149 107/139/153 106/138/154 102/133/149
f 104/135/150 108/140/155 107/139/155 103/134/150
f 105/136/151 109/141/156 112/142/156 108/137/151
f 106/138/152 110/143/157 109/141/158 105/136/152
f 107/139/153 111/144/159 110/143/159 106/138/154
f 108/140/155 112/145/160 111/144/161 107/139/155
f 109/141/156 113/146/162 116/147/162 112/142/156
f 110/143/157 114/148/163 113/146/164 109/141/158
f 111/144/159 115/149/165 114/148/165 110/143/159
f 112/145/160 116/150/166 115/149/167 111/144/161
f 113/146/162 117/151/168 120/152/168 116/147/162
f 114/148/163 118/153/169 117/151/169 113/146/164
f 115/149/165 119/154/170 118/153/170 114/148/165
f 116/150/166 120/155/171 119/154/171 115/149/167
f 117/151/168 121/156/172 124/157/172 120/152/168
f 118/153/169 122/158/173 121/156/173 117/151/169
f 119/154/170 123/159/174 122/158/174 118/153/170
f 120/155/171 124/160/175 123/159/176 119/154/171
f 121/156/172 125/161/177 128/162/178 124/157/172
f 122/158/173 126/163/179 125/161/179 121/156/173
f 123/159/174 127/164/180 126/163/181 122/158/174
f 124/160/175 128/165/182 127/164/182 123/159/176
f 125/161/177 129/166/183 132/167/184 128/162/178
f 126/163/179 130/168/185 129/166/185 125/161/179
f 127/164/180 131/169/186 130/168/186 126/163/181
f 128/165/182 132/170/187 131/169/187 127/164/182
f 129/166/183 133/171/188 136/172/189 132/167/184
f 130/168/185 134/173/190 133/171/190 129/166/185
f 131/169/186 135/174/191 134/173/191 130/168/186
f 132/170/187 136/175/192 135/174/192 131/169/187
f 133/171/188 137/176/193 140/177/194 136/172/189
f 134/173/190 138/178/195 137/176/195 133/171/190
f 135/174/191 139/179/196 138/178/197 134/173/191
f 136/175/192 140/180/198 139/179/199 135/174/192
f 137/176/193 141/181/200 144/182/200 140/177/194
f 138/178/195 142/183/201 141/181/201 137/176/195
f 139/179/196 143/184/202 142/183/203 138/178/197
f 140/180/198 144/185/204 143/184/204 139/179/199
f 141/186/200 145/187/205 148/188/206 144/189/200
f 142/190/201 146/191/207 145/187/207 141/186/201
f 143/192/202 147/193/208 146/191/209 142/190/203
f 144/194/204 148/195/210 147/193/210 143/192/204
f 145/187/205 149/196/211 152/197/212 148/188/206
f 146/191/207 150/198/213 149/196/213 145/187/207
f 147/193/208 151/199/214 150/198/215 146/191/209
f 148/195/210 152/200/216 151/199/216 147/193/210
f 149/196/211 153/201/217 156/202/218 152/197/212
f 150/198/213 154/203/219 153/201/219 149/196/213
f 151/199/214 155/204/220 154/203/221 150/198/215
f 152/200/216 156/205/222 155/204/222 151/199/216
f 153/201/217 157/206/223 160/207/223 156/202/218
f 154/203/219 158/208/224 157/206/224 153/201/219
f 155/204/220 159/209/225 158/208/226 154/203/221
f 156/205/222 160/210/227 159/209/227 155/204/222
f 157/206/223 161/211/228 164/212/228 160/207/223
f 158/208/224 162/213/229 161/211/229 157/206/224
f 159/209/225 163/214/230 162/213/230 158/208/226
f 160/210/227 164/215/231 163/214/231 159/209/227
f 161/216/228 165/217/232 168/218/233 164/219/228
f 162/220/229 166/221/234 165/217/234 161/216/229
f 163/222/230 167/223/235 166/221/235 162/220/230
f 164/224/231 168/225/236 167/223/236 163/222/231
f 165/217/232 169/226/237 172/227/238 168/218/233
f 166/221/234 170/228/239 169/226/239 165/217/234
f 167/223/235 171/229/240 170/228/241 166/221/235
f 168/225/236 172/230/242 171/229/242 167/223/236
f 169/226/237 173/231/243 176/232/244 172/227/238
f 170/228/239 174/233/245 173/231/245 169/226/239
f 171/229/240 175/234/246 174/233/247 170/228/241
f 172/230/242 176/235/248 175/234/248 171/229/242
f 173/231/243 177/236/249 180/237/250 176/232/244
f 174/233/245 178/238/251 177/236/251 173/231/245
f 175/234/246 179/239/252 178/238/253 174/233/247
f 176/235/248 180/240/254 179/239/254 175/234/248
f 177/236/249 181/241/255 184/242/256 180/237/250
f 178/238/251 182/243/257 181/241/257 177/236/251
f 179/239/252 183/244/258 182/243/259 178/238/253
f 180/240/254 184/245/260 183/244/260 179/239/254
f 181/241/255 185/246/261 188/247/262 184/242/256
f 182/243/257 186/248/263 185/246/263 181/241/257
f 183/244/258 187/249/264 186/248/264 182/243/259
f 184/245/260 188/250/265 187/249/265 183/244/260
f 185/246/261 189/251/266 192/252/267 188/247/262
f 186/248/263 190/253/268 189/251/268 185/246/263
f 187/249/264 191/254/269 190/253/270 186/248/264
f 188/250/265 192/255/271 191/254/271 187/249/265
f 189/251/266 193/256/272 196/257/273 192/252/267
f 190/253/268 194/258/274 193/256/274 189/251/268
f 191/254/269 195/259/275 194/258/275 190/253/270
f 192/255/271 196/260/276 195/259/276 191/254/271
f 193/256/272 197/261/277 200/262/278 196/257/273
f 194/258/274 198/263/279 197/261/279 193/256/274
f 195/259/275 199/264/280 198/263/281 194/258/275
f 196/260/276 200/265/282 199/264/282 195/259/276
f 197/261/277 201/266/283 204/267/283 200/262/278
f 198/263/279 202/268/284 201/266/284 197/261/279
f 199/264/280 203/269/285 202/268/286 198/263/281
f 200/265/282 204/270/287 203/269/287 199/264/282
f 201/266/283 205/271/288 208/272/289 204/267/283
f 202/268/284 206/273/290 205/271/290 201/266/284
f 203/269/285 207/274/291 206/273/292 202/268/286
f 204/270/287 208/275/293 207/274/293 203/269/287
f 205/276/288 209/277/294 212/278/295 208/279/289
f 206/280/290 210/281/296 209/277/297 205/276/290
f 207/282/291 211/283/298 210/281/299 206/280/292
f 208/284/293 212/285/300 211/283/300 207/282/293
f 209/277/294 213/286/301 216/287/302 212/278/295
f 210/281/296 214/288/303 213/286/303 209/277/297
f 211/283/298 215/289/304 214/288/304 210/281/299
f 212/285/300 216/290/305 215/289/306 211/283/300
f 213/286/301 217/291/307 220/292/308 216/287/302
f 214/288/303 218/293/309 217/291/310 213/286/303
f 215/289/304 219/294/311 218/293/312 214/288/304
f 216/290/305 220/295/313 219/294/313 215/289/306
f 217/291/307 221/296/314 224/297/315 220/292/308
f 218/293/309 222/298/316 221/296/316 217/291/310
f 219/294/311 223/299/317 222/298/318 218/293/312
f 220/295/313 224/300/319 223/299/319 219/294/313
f 221/296/314 225/301/320 228/302/320 224/297/315
f 222/298/316 226/303/321 225/301/321 221/296/316
f 223/299/317 227/304/322 226/303/322 222/298/318
f 224/300/319 228/305/323 227/304/323 223/299/319
f 225/301/320 229/306/324 232/307/324 228/302/320
f 226/303/321 230/308/325 229/306/325 225/301/321
f 227/304/322 231/309/326 230/308/326 226/303/322
f 228/305/323 232/310/327 231/309/327 227/304/323
f 229/306/324 233/311/328 236/312/328 232/307/324
f 230/308/325 234/313/329 233/311/329 229/306/325
f 231/309/326 235/314/330 234/313/330 230/308/326
f 232/310/327 236/315/331 235/314/331 231/309/327
f 233/311/328 237/316/332 240/317/332 236/312/328
f 234/313/329 238/318/333 237/316/333 233/311/329
f 235/314/330 239/319/334 238/318/334 234/313/330
f 236/315/331 240/320/335 239/319/335 235/314/331
f 237/316/332 241/321/336 244/322/336 240/317/332
f 238/318/333 242/323/337 241/321/338 237/316/333
f 239/319/334 243/324/339 242/323/339 238/318/334
f 240/320/335 244/325/340 243/324/340 239/319/335
f 241/321/336 245/326/341 248/327/341 244/322/336
f 242/323/337 246/328/342 245/326/343 241/321/338
f 243/324/339 247/329/344 246/328/345 242/323/339
f 244/325/340 248/330/346 247/329/346 243/324/340
f 245/326/341 249/331/347 252/332/347 248/327/341
f 246/328/342 250/333/348 249/331/348 245/326/343
f 247/329/344 251/334/349 250/333/349 246/328/345
f 248/330/346 252/335/350 251/334/351 247/329/346
f 249/331/347 253/336/352 256/337/352 252/332/347
f 250/333/348 254/338/353 253/336/353 249/331/348
f 251/334/349 255/339/354 254/338/355 250/333/349
f 252/335/350 256/340/356 255/339/357 251/334/351
f 253/336/352 257/341/358 260/342/358 256/337/352
f 254/338/353 258/343/359 257/341/359 253/336/353
f 255/339/354 259/344/360 258/343/361 254/338/355
f 256/340/356 260/345/362 259/344/363 255/339/357
f 257/341/358 261/346/364 264/347/364 260/342/358
f 258/343/359 262/348/365 261/346/366 257/341/359
f 259/344/360 263/349/367 262/348/367 258/343/361
f 260/345/362 264/350/368 263/349/369 259/344/363
f 261/346/364 265/351/370 268/352/370 264/347/364
f 262/348/365 266/353/371 265/351/372 261/346/366
f 263/349/367 267/354/373 266/353/373 262/348/367
f 264/350/368 268/355/374 267/354/374 263/349/369
f 265/351/370 269/356/375 272/357/375 268/352/370
f 266/353/371 270/358/376 269/356/377 265/351/372
f 267/354/373 271/359/378 270/358/378 266/353/373
f 268/355/374 272/360/379 271/359/379 267/354/374
f 269/361/375 273/362/380 276/363/380 272/364/375
f 270/365/376 274/366/381 273/362/382 269/361/377
f 271/367/378 275/368/383 274/366/383 270/365/378
f 272/369/379 276/370/384 275/368/385 271/367/379
f 273/362/380 277/371/386 280/372/386 276/363/380
f 274/366/381 278/373/387 277/371/388 273/362/382
f 275/368/383 279/374/389 278/373/389 274/366/383
f 276/370/384 280/375/390 279/374/391 275/368/385
f 277/371/386 281/376/392 284/377/392 280/372/386
f 278/373/387 282/378/393 281/376/394 277/371/388
f 279/374/389 283/379/395 282/378/395 278/373/389
f 280/375/390 284/380/396 283/379/397 279/374/391
f 281/376/392 285/381/398 288/382/398 284/377/392
f 282/378/393 286/383/399 285/381/399 281/376/394
f 283/379/395 287/384/400 286/383/400 282/378/395
f 284/380/396 288/385/401 287/384/402 283/379/397
f 285/381/398 289/386/403 292/387/403 288/382/398
f 286/383/399 290/388/404 289/386/404 285/381/399
f 287/384/400 291/389/405 290/388/405 286/383/400
f 288/385/401 292/390/406 291/389/407 287/384/402
f 289/386/403 293/391/408 296/392/408 292/387/403
f 290/388/404 294/393/409 293/391/410 289/386/404
f 291/389/405 295/394/411 294/393/411 290/388/405
f 292/390/406 296/395/412 295/394/413 291/389/407
f 293/391/408 297/396/414 300/397/414 296/392/408
f 294/393/409 298/398/415 297/396/416 293/391/410
f 295/394/411 299/399/417 298/398/417 294/393/411
f 296/395/412 300/400/418 299/399/419 295/394/413
f 297/396/414 301/401/420 304/402/420 300/397/414
f 298/398/415 302/403/421 301/401/422 297/396/416
f 299/399/417 303/404/423 302/403/423 298/398/417
f 300/400/418 304/405/424 303/404/425 299/399/419
f 301/401/420 305/406/426 308/407/426 304/402/420
f 302/403/421 306/408/427 305/406/427 301/401/422
f 303/404/423 307/409/428 306/408/428 302/403/423
f 304/405/424 308/410/429 307/409/430 303/404/425
f 305/406/426 309/411/431 312/412/431 308/407/426
f 306/408/427 310/413/432 309/411/433 305/406/427
f 307/409/428 311/414/434 310/413/434 306/408/428
f 308/410/429 312/415/435 311/414/436 307/409/430
f 309/411/431 313/416/437 316/417/437 312/412/431
f 310/413/432 314/418/438 313/416/439 309/411/433
f 311/414/434 315/419/440 314/418/440 310/413/434
f 312/415/435 316/420/441 315/419/441 311/414/436
f 313/416/437 317/421/442 320/422/443 316/417/437
f 314/418/438 318/423/444 317/421/444 313/416/439
f 315/419/440 319/424/445 318/423/446 314/418/440
f 316/420/441 320/425/447 319/424/447 315/419/441
f 317/421/442 321/426/448 324/427/448 320/422/443
f 318/423/444 322/428/449 321/426/449 317/421/444
f 319/424/445 323/429/450 322/428/450 318/423/446
f 320/425/447 324/430/451 323/429/451 319/424/447
f 4/9/452 3/7/452 2/431/452 1/432/452
f 324/427/453 321/426/453 322/433/453 323/434/453
