# Blender 4.5.14 LTS
# www.blender.org
mtllib error.mtl
o Text
v -0.150000 -0.962397 -1.497169
v -0.150000 -0.977481 -1.497169
v -0.150000 -0.977481 -1.430155
v -0.150000 -0.165930 -1.211031
v -0.150000 -0.165930 -1.077004
v -0.150000 -0.977481 -1.077004
v -0.150000 -0.977481 -1.018500
v -0.150000 0.977481 -1.018500
v -0.150000 0.977481 -1.219541
v -0.150000 0.960511 -1.289746
v -0.150000 0.909601 -1.349313
v -0.150000 0.827390 -1.397180
v -0.150000 0.716518 -1.432283
v -0.150000 0.580379 -1.453823
v -0.150000 0.422368 -1.461003
v -0.150000 0.281705 -1.455817
v -0.150000 0.155371 -1.440261
v -0.150000 0.045631 -1.414333
v -0.150000 -0.045254 -1.378034
v -0.150000 -0.113134 -1.331762
v -0.150000 -0.153863 -1.275918
v -0.150000 -0.024135 -1.077004
v -0.150000 -0.024135 -1.217414
v -0.150000 0.005280 -1.297591
v -0.150000 0.093524 -1.355164
v -0.150000 0.231548 -1.389868
v -0.150000 0.410301 -1.401435
v -0.150000 0.587545 -1.389868
v -0.150000 0.721043 -1.355164
v -0.150000 0.804763 -1.297591
v -0.150000 0.832669 -1.217414
v -0.150000 0.832669 -1.077004
v -0.150000 -0.845165 -0.377084
v -0.150000 -0.698163 -0.316187
v -0.150000 -0.502763 -0.271777
v -0.150000 -0.265827 -0.244653
v -0.150000 0.005782 -0.235611
v -0.150000 0.302314 -0.246647
v -0.150000 0.544667 -0.279755
v -0.150000 0.732121 -0.330813
v -0.150000 0.863953 -0.395699
v -0.150000 0.941969 -0.470558
v -0.150000 0.967974 -0.551532
v -0.150000 0.937273 -0.642214
v -0.150000 0.845172 -0.718535
v -0.150000 0.698170 -0.779432
v -0.150000 0.502770 -0.823842
v -0.150000 0.265834 -0.850966
v -0.150000 -0.005776 -0.860008
v -0.150000 -0.302668 -0.849105
v -0.150000 -0.546105 -0.816396
v -0.150000 -0.734282 -0.765737
v -0.150000 -0.865391 -0.700983
v -0.150000 -0.942323 -0.625859
v -0.150000 -0.967967 -0.544087
v -0.150000 -0.937267 -0.453405
v -0.150000 -0.723807 -0.683432
v -0.150000 -0.598477 -0.733826
v -0.150000 -0.433416 -0.770124
v -0.150000 -0.234766 -0.792063
v -0.150000 -0.008665 -0.799376
v -0.150000 0.220686 -0.792462
v -0.150000 0.423310 -0.771720
v -0.150000 0.592343 -0.737150
v -0.150000 0.720925 -0.688751
v -0.150000 0.802191 -0.626790
v -0.150000 0.829279 -0.551532
v -0.150000 0.803274 -0.475610
v -0.150000 0.725259 -0.411655
v -0.150000 0.600651 -0.360863
v -0.150000 0.434868 -0.324431
v -0.150000 0.235133 -0.302492
v -0.150000 0.008672 -0.295179
v -0.150000 -0.218874 -0.302093
v -0.150000 -0.421858 -0.322835
v -0.150000 -0.591976 -0.357539
v -0.150000 -0.720918 -0.406337
v -0.150000 -0.802184 -0.468696
v -0.150000 -0.829273 -0.544087
v -0.150000 -0.802906 -0.619876
v -0.150000 -0.962397 -0.159024
v -0.150000 -0.977481 -0.159024
v -0.150000 -0.977481 -0.092011
v -0.150000 -0.165930 0.127113
v -0.150000 -0.165930 0.261140
v -0.150000 -0.977481 0.261140
v -0.150000 -0.977481 0.319644
v -0.150000 0.977481 0.319644
v -0.150000 0.977481 0.118603
v -0.150000 0.960511 0.048399
v -0.150000 0.909600 -0.011169
v -0.150000 0.827389 -0.059036
v -0.150000 0.716518 -0.094138
v -0.150000 0.580379 -0.115678
v -0.150000 0.422368 -0.122858
v -0.150000 0.281705 -0.117673
v -0.150000 0.155371 -0.102116
v -0.150000 0.045631 -0.076188
v -0.150000 -0.045254 -0.039889
v -0.150000 -0.113134 0.006382
v -0.150000 -0.153863 0.062227
v -0.150000 -0.024135 0.261140
v -0.150000 -0.024135 0.120731
v -0.150000 0.005280 0.040554
v -0.150000 0.093524 -0.017019
v -0.150000 0.231548 -0.051723
v -0.150000 0.410301 -0.063291
v -0.150000 0.587545 -0.051723
v -0.150000 0.721043 -0.017019
v -0.150000 0.804763 0.040554
v -0.150000 0.832669 0.120731
v -0.150000 0.832669 0.261140
v -0.150000 -0.962397 0.444098
v -0.150000 -0.977481 0.444098
v -0.150000 -0.977481 0.511112
v -0.150000 -0.165930 0.730235
v -0.150000 -0.165931 0.864263
v -0.150000 -0.977481 0.864263
v -0.150000 -0.977481 0.922767
v -0.150000 0.977481 0.922767
v -0.150000 0.977481 0.721726
v -0.150000 0.960511 0.651521
v -0.150000 0.909600 0.591953
v -0.150000 0.827389 0.544087
v -0.150000 0.716518 0.508984
v -0.150000 0.580379 0.487444
v -0.150000 0.422368 0.480264
v -0.150000 0.281705 0.485450
v -0.150000 0.155371 0.501006
v -0.150000 0.045631 0.526934
v -0.150000 -0.045254 0.563233
v -0.150000 -0.113134 0.609505
v -0.150000 -0.153863 0.665349
v -0.150000 -0.024135 0.864263
v -0.150000 -0.024135 0.723853
v -0.150000 0.005280 0.643676
v -0.150000 0.093524 0.586103
v -0.150000 0.231548 0.551400
v -0.150000 0.410301 0.539832
v -0.150000 0.587545 0.551400
v -0.150000 0.721043 0.586103
v -0.150000 0.804763 0.643676
v -0.150000 0.832669 0.723853
v -0.150000 0.832669 0.864263
v -0.150000 -0.832669 1.438665
v -0.150000 -0.832669 1.087641
v -0.150000 -0.977481 1.087641
v -0.150000 -0.977481 1.497169
v -0.150000 0.977481 1.497169
v -0.150000 0.977481 1.092960
v -0.150000 0.832669 1.092960
v -0.150000 0.832669 1.438665
v -0.150000 0.084474 1.438665
v -0.150000 0.084474 1.134444
v -0.150000 -0.057321 1.140827
v -0.150000 -0.057321 1.438665
v 0.150000 -0.962397 -1.497169
v 0.150000 -0.977481 -1.497169
v 0.150000 -0.977481 -1.430155
v 0.150000 -0.165930 -1.211031
v 0.150000 -0.165930 -1.077004
v 0.150000 -0.977481 -1.077004
v 0.150000 -0.977481 -1.018500
v 0.150000 0.977481 -1.018500
v 0.150000 0.977481 -1.219541
v 0.150000 0.960511 -1.289746
v 0.150000 0.909601 -1.349313
v 0.150000 0.827390 -1.397180
v 0.150000 0.716518 -1.432283
v 0.150000 0.580379 -1.453823
v 0.150000 0.422368 -1.461003
v 0.150000 0.281705 -1.455817
v 0.150000 0.155371 -1.440261
v 0.150000 0.045631 -1.414333
v 0.150000 -0.045254 -1.378034
v 0.150000 -0.113134 -1.331762
v 0.150000 -0.153863 -1.275918
v 0.150000 -0.024135 -1.077004
v 0.150000 -0.024135 -1.217414
v 0.150000 0.005280 -1.297591
v 0.150000 0.093524 -1.355164
v 0.150000 0.231548 -1.389868
v 0.150000 0.410301 -1.401435
v 0.150000 0.587545 -1.389868
v 0.150000 0.721043 -1.355164
v 0.150000 0.804763 -1.297591
v 0.150000 0.832669 -1.217414
v 0.150000 0.832669 -1.077004
v 0.150000 -0.845165 -0.377084
v 0.150000 -0.698163 -0.316187
v 0.150000 -0.502763 -0.271777
v 0.150000 -0.265827 -0.244653
v 0.150000 0.005782 -0.235611
v 0.150000 0.302314 -0.246647
v 0.150000 0.544667 -0.279755
v 0.150000 0.732121 -0.330813
v 0.150000 0.863953 -0.395699
v 0.150000 0.941969 -0.470558
v 0.150000 0.967974 -0.551532
v 0.150000 0.937273 -0.642214
v 0.150000 0.845172 -0.718535
v 0.150000 0.698170 -0.779432
v 0.150000 0.502770 -0.823842
v 0.150000 0.265834 -0.850966
v 0.150000 -0.005776 -0.860008
v 0.150000 -0.302668 -0.849105
v 0.150000 -0.546105 -0.816396
v 0.150000 -0.734282 -0.765737
v 0.150000 -0.865391 -0.700983
v 0.150000 -0.942323 -0.625859
v 0.150000 -0.967967 -0.544087
v 0.150000 -0.937267 -0.453405
v 0.150000 -0.723807 -0.683432
v 0.150000 -0.598477 -0.733826
v 0.150000 -0.433416 -0.770124
v 0.150000 -0.234766 -0.792063
v 0.150000 -0.008665 -0.799376
v 0.150000 0.220686 -0.792462
v 0.150000 0.423310 -0.771720
v 0.150000 0.592343 -0.737150
v 0.150000 0.720925 -0.688751
v 0.150000 0.802191 -0.626790
v 0.150000 0.829279 -0.551532
v 0.150000 0.803274 -0.475610
v 0.150000 0.725259 -0.411655
v 0.150000 0.600651 -0.360863
v 0.150000 0.434868 -0.324431
v 0.150000 0.235133 -0.302492
v 0.150000 0.008672 -0.295179
v 0.150000 -0.218874 -0.302093
v 0.150000 -0.421858 -0.322835
v 0.150000 -0.591976 -0.357539
v 0.150000 -0.720918 -0.406337
v 0.150000 -0.802184 -0.468696
v 0.150000 -0.829273 -0.544087
v 0.150000 -0.802906 -0.619876
v 0.150000 -0.962397 -0.159024
v 0.150000 -0.977481 -0.159024
v 0.150000 -0.977481 -0.092011
v 0.150000 -0.165930 0.127113
v 0.150000 -0.165930 0.261140
v 0.150000 -0.977481 0.261140
v 0.150000 -0.977481 0.319644
v 0.150000 0.977481 0.319644
v 0.150000 0.977481 0.118603
v 0.150000 0.960511 0.048399
v 0.150000 0.909600 -0.011169
v 0.150000 0.827389 -0.059036
v 0.150000 0.716518 -0.094138
v 0.150000 0.580379 -0.115678
v 0.150000 0.422368 -0.122858
v 0.150000 0.281705 -0.117673
v 0.150000 0.155371 -0.102116
v 0.150000 0.045631 -0.076188
v 0.150000 -0.045254 -0.039889
v 0.150000 -0.113134 0.006382
v 0.150000 -0.153863 0.062227
v 0.150000 -0.024135 0.261140
v 0.150000 -0.024135 0.120731
v 0.150000 0.005280 0.040554
v 0.150000 0.093524 -0.017019
v 0.150000 0.231548 -0.051723
v 0.150000 0.410301 -0.063291
v 0.150000 0.587545 -0.051723
v 0.150000 0.721043 -0.017019
v 0.150000 0.804763 0.040554
v 0.150000 0.832669 0.120731
v 0.150000 0.832669 0.261140
v 0.150000 -0.962397 0.444098
v 0.150000 -0.977481 0.444098
v 0.150000 -0.977481 0.511112
v 0.150000 -0.165930 0.730235
v 0.150000 -0.165931 0.864263
v 0.150000 -0.977481 0.864263
v 0.150000 -0.977481 0.922767
v 0.150000 0.977481 0.922767
v 0.150000 0.977481 0.721726
v 0.150000 0.960511 0.651521
v 0.150000 0.909600 0.591953
v 0.150000 0.827389 0.544087
v 0.150000 0.716518 0.508984
v 0.150000 0.580379 0.487444
v 0.150000 0.422368 0.480264
v 0.150000 0.281705 0.485450
v 0.150000 0.155371 0.501006
v 0.150000 0.045631 0.526934
v 0.150000 -0.045254 0.563233
v 0.150000 -0.113134 0.609505
v 0.150000 -0.153863 0.665349
v 0.150000 -0.024135 0.864263
v 0.150000 -0.024135 0.723853
v 0.150000 0.005280 0.643676
v 0.150000 0.093524 0.586103
v 0.150000 0.231548 0.551400
v 0.150000 0.410301 0.539832
v 0.150000 0.587545 0.551400
v 0.150000 0.721043 0.586103
v 0.150000 0.804763 0.643676
v 0.150000 0.832669 0.723853
v 0.150000 0.832669 0.864263
v 0.150000 -0.832669 1.438665
v 0.150000 -0.832669 1.087641
v 0.150000 -0.977481 1.087641
v 0.150000 -0.977481 1.497169
v 0.150000 0.977481 1.497169
v 0.150000 0.977481 1.092960
v 0.150000 0.832669 1.092960
v 0.150000 0.832669 1.438665
v 0.150000 0.084474 1.438665
v 0.150000 0.084474 1.134444
v 0.150000 -0.057321 1.140827
v 0.150000 -0.057322 1.438665
vn -1.0000 -0.0000 -0.0000
vn 1.0000 -0.0000 -0.0000
vn -0.0000 -0.7541 0.6568
vn -0.0000 -0.3831 0.9237
vn -0.0000 0.1488 -0.9889
vn -0.0000 0.0655 -0.9979
vn -0.0000 0.5543 0.8323
vn -0.0000 0.3433 0.9392
vn -0.0000 -0.0000 -1.0000
vn -0.0000 -0.8080 -0.5893
vn -0.0000 -0.6787 -0.7345
vn -0.0000 0.0704 0.9975
vn -0.0000 0.1599 0.9871
vn -0.0000 -0.9853 0.1708
vn -0.0000 -1.0000 -0.0000
vn -0.0000 -0.1511 0.9885
vn -0.0000 -0.0728 0.9973
vn -0.0000 -0.1651 0.9863
vn -0.0000 0.9928 -0.1198
vn -0.0000 1.0000 -0.0000
vn -0.0000 -0.7946 -0.6072
vn -0.0000 -1.0000 0.0086
vn -0.0000 0.2236 -0.9747
vn -0.0000 0.3916 -0.9201
vn -0.0000 0.2639 -0.9645
vn -0.0000 0.0990 -0.9951
vn -0.0000 0.8791 -0.4766
vn -0.0000 -0.0003 1.0000
vn -0.0000 -0.1927 -0.9813
vn -0.0000 -0.0837 -0.9965
vn -0.0000 -0.7753 0.6316
vn -0.0000 0.6211 -0.7837
vn -0.0000 -0.2607 0.9654
vn -0.0000 0.2704 -0.9628
vn -0.0000 0.0042 -1.0000
vn -0.0000 0.2870 0.9579
vn -0.0000 0.2950 -0.9555
vn -0.0000 0.4954 -0.8687
vn -0.0000 -0.0786 -0.9969
vn -0.0000 -0.2950 0.9555
vn -0.0000 -0.4905 -0.8715
vn -0.0000 -0.0000 1.0000
vn -0.0000 0.1476 0.9890
vn -0.0000 -0.4636 0.8860
vn -0.0000 -0.3421 -0.9397
vn -0.0000 0.1951 0.9808
vn -0.0000 -0.1734 -0.9848
vn -0.0000 0.3708 0.9287
vn -0.0000 0.4656 -0.8850
vn -0.0000 0.4847 0.8747
vn -0.0000 -0.2887 -0.9574
vn -0.0000 -0.2700 0.9629
vn -0.0000 -0.2949 -0.9555
vn -0.0000 -0.4954 0.8687
vn -0.0000 0.7378 0.6750
vn -0.0000 0.1651 -0.9863
vn -0.0000 0.7769 -0.6297
vn -0.0000 -0.4579 -0.8890
vn -0.0000 0.7892 0.6141
vn -0.0000 -0.1595 -0.9872
vn -0.0000 0.9837 0.1797
vn -0.0000 -0.1491 0.9888
vn -0.0000 -0.0450 -0.9990
vn -0.0000 -0.5577 -0.8300
vn -0.0000 0.0850 0.9964
vn -0.0000 1.0000 -0.0056
vn -0.0000 0.0728 -0.9973
vn -0.0000 -0.0701 -0.9975
vn -0.0000 -0.7976 0.6031
vn -0.0000 -0.0655 0.9979
vn -0.0000 0.0019 1.0000
vn -0.0000 -0.8350 -0.5503
vn -0.0000 -0.9999 0.0123
vn -0.0000 -0.0017 -1.0000
vn -0.0000 -0.0009 -1.0000
vn -0.0000 0.0011 1.0000
vn -0.0000 1.0000 -0.0086
vn -0.0000 0.8302 0.5574
vn -0.0000 0.7976 -0.6031
vt 0.155531 0.444540
vt 0.155531 0.668505
vt 0.136521 0.651915
vt 0.090208 0.668505
vt 0.067397 0.666561
vt 0.048042 0.660728
vt 0.090899 0.651915
vt 0.032489 0.651310
vt 0.136521 0.553757
vt 0.064848 0.648718
vt 0.021083 0.638608
vt 0.046141 0.639127
vt 0.034865 0.623833
vt 0.014084 0.623012
vt 0.031106 0.603527
vt 0.011751 0.604910
vt 0.013436 0.588795
vt 0.034865 0.583049
vt 0.018491 0.574322
vt 0.046141 0.567237
vt 0.026915 0.561750
vt 0.064848 0.557127
vt 0.038710 0.551338
vt 0.090899 0.553757
vt 0.136521 0.537513
vt 0.053745 0.543562
vt 0.071890 0.538896
vt 0.092973 0.537513
vt 0.000000 0.446268
vt 0.136521 0.444540
vt 0.021774 0.444540
vt 0.000000 0.444540
vt 0.115776 0.220083
vt 0.089302 0.220576
vt 0.060298 0.214305
vt 0.140831 0.213471
vt 0.036601 0.201469
vt 0.163241 0.200417
vt 0.115635 0.204110
vt 0.090795 0.204757
vt 0.066742 0.199369
vt 0.018485 0.182843
vt 0.137164 0.197165
vt 0.047574 0.188208
vt 0.181776 0.180596
vt 0.154936 0.184504
vt 0.033302 0.172064
vt 0.006223 0.159200
vt 0.168506 0.166709
vt 0.023939 0.151730
vt 0.195095 0.153966
vt 0.000000 0.131348
vt 0.177754 0.144598
vt 0.019411 0.127986
vt 0.201859 0.120482
vt 0.000000 0.100094
vt 0.182558 0.118992
vt 0.019644 0.101616
vt 0.182772 0.092829
vt 0.201859 0.089228
vt 0.006724 0.066565
vt 0.024445 0.076052
vt 0.178248 0.069044
vt 0.033681 0.054065
vt 0.195636 0.061375
vt 0.019926 0.039799
vt 0.168854 0.048581
vt 0.047201 0.036347
vt 0.183374 0.037733
vt 0.038340 0.019883
vt 0.154457 0.032384
vt 0.064852 0.023592
vt 0.165257 0.019107
vt 0.135160 0.021211
vt 0.086263 0.016511
vt 0.060699 0.006907
vt 0.111064 0.015819
vt 0.141561 0.006271
vt 0.085829 0.000427
vt 0.112557 -0.000000
vt 0.155531 0.220576
vt 0.155531 0.444540
vt 0.136522 0.427950
vt 0.090208 0.444540
vt 0.067397 0.442596
vt 0.048042 0.436764
vt 0.090899 0.427950
vt 0.032489 0.427345
vt 0.136522 0.329793
vt 0.064848 0.424753
vt 0.021083 0.414644
vt 0.046141 0.415162
vt 0.034865 0.399868
vt 0.014084 0.399048
vt 0.031106 0.379563
vt 0.011751 0.380945
vt 0.013436 0.364831
vt 0.034865 0.359085
vt 0.018491 0.350358
vt 0.046141 0.343272
vt 0.026915 0.337786
vt 0.064848 0.333163
vt 0.038710 0.327374
vt 0.090899 0.329793
vt 0.136522 0.313549
vt 0.053745 0.319597
vt 0.071890 0.314931
vt 0.092973 0.313549
vt 0.000000 0.222304
vt 0.136522 0.220576
vt 0.021774 0.220576
vt 0.000000 0.220576
vt 0.311062 0.220576
vt 0.311062 0.444540
vt 0.292052 0.427950
vt 0.245739 0.444540
vt 0.222928 0.442596
vt 0.203573 0.436764
vt 0.246430 0.427950
vt 0.188020 0.427345
vt 0.292052 0.329793
vt 0.220379 0.424753
vt 0.176614 0.414644
vt 0.201672 0.415162
vt 0.190396 0.399868
vt 0.169615 0.399048
vt 0.186637 0.379563
vt 0.167282 0.380945
vt 0.168967 0.364831
vt 0.190396 0.359085
vt 0.174022 0.350358
vt 0.201672 0.343272
vt 0.182446 0.337786
vt 0.220379 0.333163
vt 0.194241 0.327374
vt 0.246430 0.329793
vt 0.292052 0.313549
vt 0.209275 0.319597
vt 0.227421 0.314931
vt 0.248504 0.313549
vt 0.155531 0.222304
vt 0.292052 0.220576
vt 0.177305 0.220576
vt 0.444127 0.444540
vt 0.444127 0.668505
vt 0.425118 0.651915
vt 0.312790 0.668505
vt 0.312790 0.651915
vt 0.425118 0.566200
vt 0.425118 0.549956
vt 0.326269 0.566200
vt 0.328343 0.549956
vt 0.425118 0.461130
vt 0.311062 0.461130
vt 0.311062 0.444540
vt 0.174540 0.651915
vt 0.155531 0.668505
vt 0.220854 0.668505
vt 0.243665 0.666561
vt 0.263020 0.660728
vt 0.220163 0.651915
vt 0.278573 0.651310
vt 0.174540 0.553757
vt 0.246214 0.648718
vt 0.289979 0.638608
vt 0.264921 0.639127
vt 0.276197 0.623833
vt 0.296978 0.623012
vt 0.279956 0.603527
vt 0.299310 0.604910
vt 0.297626 0.588795
vt 0.276197 0.583049
vt 0.292571 0.574322
vt 0.264921 0.567237
vt 0.284146 0.561750
vt 0.246214 0.557127
vt 0.272352 0.551338
vt 0.220163 0.553757
vt 0.174540 0.537513
vt 0.257317 0.543562
vt 0.239172 0.538896
vt 0.218089 0.537513
vt 0.311062 0.446268
vt 0.174540 0.444540
vt 0.289287 0.444540
vt 0.287941 0.220083
vt 0.343419 0.214305
vt 0.314416 0.220576
vt 0.262886 0.213471
vt 0.367116 0.201469
vt 0.240476 0.200417
vt 0.288082 0.204110
vt 0.312922 0.204757
vt 0.336975 0.199369
vt 0.385232 0.182843
vt 0.266554 0.197165
vt 0.356143 0.188208
vt 0.221941 0.180596
vt 0.248781 0.184504
vt 0.370415 0.172064
vt 0.397494 0.159200
vt 0.235211 0.166709
vt 0.379778 0.151730
vt 0.208622 0.153966
vt 0.403717 0.131348
vt 0.225963 0.144598
vt 0.384306 0.127986
vt 0.201859 0.120482
vt 0.403717 0.100094
vt 0.221159 0.118992
vt 0.384073 0.101616
vt 0.220945 0.092829
vt 0.201859 0.089228
vt 0.396993 0.066565
vt 0.379272 0.076052
vt 0.225469 0.069044
vt 0.370036 0.054065
vt 0.208082 0.061375
vt 0.383791 0.039799
vt 0.234863 0.048581
vt 0.356517 0.036347
vt 0.220343 0.037733
vt 0.365377 0.019883
vt 0.249260 0.032384
vt 0.338866 0.023592
vt 0.238460 0.019107
vt 0.268558 0.021211
vt 0.317454 0.016511
vt 0.343018 0.006907
vt 0.292654 0.015819
vt 0.262157 0.006271
vt 0.317888 0.000427
vt 0.291160 -0.000000
vt 0.330071 0.427950
vt 0.376385 0.444540
vt 0.399196 0.442596
vt 0.418551 0.436764
vt 0.375693 0.427950
vt 0.434104 0.427345
vt 0.330071 0.329793
vt 0.401745 0.424753
vt 0.445509 0.414644
vt 0.420452 0.415162
vt 0.431728 0.399868
vt 0.452508 0.399048
vt 0.435486 0.379563
vt 0.454841 0.380945
vt 0.453156 0.364831
vt 0.431728 0.359085
vt 0.448102 0.350358
vt 0.420452 0.343272
vt 0.439677 0.337786
vt 0.401745 0.333163
vt 0.427883 0.327374
vt 0.375693 0.329793
vt 0.330071 0.313549
vt 0.412848 0.319597
vt 0.394703 0.314931
vt 0.373620 0.313549
vt 0.466593 0.222304
vt 0.330071 0.220576
vt 0.444818 0.220576
vt 0.466593 0.220576
vt 0.466593 0.220576
vt 0.485602 0.427950
vt 0.466593 0.444540
vt 0.531916 0.444540
vt 0.554727 0.442596
vt 0.574082 0.436764
vt 0.531224 0.427950
vt 0.589635 0.427345
vt 0.485602 0.329793
vt 0.557276 0.424753
vt 0.601040 0.414644
vt 0.575983 0.415162
vt 0.587259 0.399868
vt 0.608039 0.399048
vt 0.591017 0.379563
vt 0.610372 0.380945
vt 0.608687 0.364831
vt 0.587259 0.359085
vt 0.603633 0.350358
vt 0.575983 0.343272
vt 0.595208 0.337786
vt 0.557276 0.333163
vt 0.583413 0.327374
vt 0.531224 0.329793
vt 0.485602 0.313549
vt 0.568379 0.319597
vt 0.550234 0.314931
vt 0.529150 0.313549
vt 0.622123 0.222304
vt 0.485602 0.220576
vt 0.600349 0.220576
vt 0.622123 0.220576
vt 0.463136 0.651915
vt 0.575464 0.668505
vt 0.575464 0.651915
vt 0.463136 0.566200
vt 0.463136 0.549956
vt 0.561985 0.566200
vt 0.559911 0.549956
vt 0.463136 0.461130
vt 0.577192 0.461130
vt 0.577192 0.444540
vt 0.888246 0.736972
vt 0.869624 0.736972
vt 0.869624 0.639495
vt 0.888246 0.639495
vt 0.674670 0.688134
vt 0.674670 0.711501
vt 0.577192 0.711501
vt 0.577192 0.688134
vt 0.793627 0.125205
vt 0.793627 0.145818
vt 0.696149 0.145818
vt 0.696149 0.125205
vt 0.389909 0.792014
vt 0.389909 0.890156
vt 0.292432 0.890156
vt 0.292432 0.792014
vt 0.979546 0.997980
vt 0.961360 0.997980
vt 0.961360 0.900503
vt 0.979546 0.900503
vt 0.772147 0.763567
vt 0.772147 0.786168
vt 0.674670 0.786168
vt 0.674670 0.763567
vt 0.935747 0.194955
vt 0.909725 0.194955
vt 0.909725 0.097477
vt 0.935747 0.097477
vt 0.718216 0.999778
vt 0.674670 0.999778
vt 0.674670 0.902301
vt 0.718216 0.902301
vt 0.983413 0.318053
vt 0.967884 0.318053
vt 0.967884 0.220576
vt 0.983413 0.220576
vt 0.598672 0.113708
vt 0.598672 0.141032
vt 0.501194 0.141032
vt 0.501194 0.113708
vt 0.292432 0.726721
vt 0.292432 0.792014
vt 0.194955 0.792014
vt 0.194955 0.726721
vt 0.869624 0.482029
vt 0.869624 0.506723
vt 0.772147 0.506723
vt 0.772147 0.482029
vt 0.500283 0.765982
vt 0.487387 0.765982
vt 0.487387 0.668505
vt 0.500283 0.668505
vt 0.093849 0.899042
vt 0.000000 0.899042
vt 0.000000 0.801565
vt 0.093849 0.801565
vt 0.515997 0.863459
vt 0.500283 0.863459
vt 0.515997 0.765982
vt 0.292432 0.703861
vt 0.194955 0.703861
vt 0.891104 0.194955
vt 0.891104 0.097477
vt 0.981592 0.639495
vt 0.962583 0.639495
vt 0.962583 0.542018
vt 0.981592 0.542018
vt 0.947503 0.318053
vt 0.947503 0.220576
vt 0.501194 0.021272
vt 0.501194 0.048974
vt 0.403717 0.048974
vt 0.403717 0.021272
vt 0.869624 0.531148
vt 0.772147 0.531148
vt 0.962583 0.639495
vt 0.869624 0.639495
vt 0.869624 0.542018
vt 0.962583 0.542018
vt 0.292432 0.684337
vt 0.194955 0.684337
vt 0.983413 0.415531
vt 0.967884 0.415531
vt 0.671654 0.902523
vt 0.577192 0.902523
vt 0.577192 0.805045
vt 0.671654 0.805045
vt 0.674670 0.668454
vt 0.577192 0.668454
vt 0.981368 0.097477
vt 0.935747 0.097477
vt 0.935747 0.000000
vt 0.981368 0.000000
vt 0.534136 0.863459
vt 0.534136 0.765982
vt 0.772147 0.804824
vt 0.674670 0.804824
vt 0.793627 0.000000
vt 0.793627 0.020291
vt 0.696149 0.020291
vt 0.696149 0.000000
vt 0.981662 0.736972
vt 0.959888 0.736972
vt 0.959888 0.639495
vt 0.981662 0.639495
vt 0.515997 0.668505
vt 0.095577 0.899042
vt 0.095577 0.801565
vt 0.550220 0.863459
vt 0.550220 0.765982
vt 0.598672 0.163719
vt 0.501194 0.163719
vt 0.292432 0.668505
vt 0.194955 0.668505
vt 0.869624 0.461170
vt 0.772147 0.461170
vt 0.947503 0.415531
vt 0.674670 0.444540
vt 0.577192 0.444540
vt 0.927109 0.318053
vt 0.927109 0.220576
vt 0.869624 0.551197
vt 0.772147 0.551197
vt 0.487387 0.792014
vt 0.487387 0.890156
vt 0.389909 0.890156
vt 0.389909 0.792014
vt 0.501194 0.000000
vt 0.403717 0.000000
vt 0.909725 0.097477
vt 0.909725 0.000000
vt 0.598672 0.000000
vt 0.598672 0.021119
vt 0.501194 0.021119
vt 0.501194 -0.000000
vt 0.534136 0.668505
vt 0.564604 0.863459
vt 0.564604 0.765982
vt 0.194955 0.668505
vt 0.194955 0.799781
vt 0.097477 0.799781
vt 0.097477 0.668505
vt 0.911540 0.318053
vt 0.911540 0.220576
vt 0.869624 0.672724
vt 0.869624 0.689022
vt 0.772147 0.689022
vt 0.772147 0.672724
vt 0.550220 0.668505
vt 0.891104 0.000000
vt 0.891104 0.112323
vt 0.793627 0.112323
vt 0.793627 -0.000000
vt 0.869624 0.566792
vt 0.869624 0.582721
vt 0.772147 0.582721
vt 0.772147 0.566792
vt 0.207851 0.988294
vt 0.194955 0.988294
vt 0.194955 0.890816
vt 0.207851 0.890816
vt 0.869624 0.444540
vt 0.772147 0.444540
vt 0.927109 0.415531
vt 0.997955 0.097477
vt 0.981368 0.097477
vt 0.981368 0.000000
vt 0.997955 0.000000
vt 0.891104 0.097477
vt 0.891104 0.000000
vt 0.869624 0.566792
vt 0.772147 0.566792
vt 0.577029 0.863459
vt 0.577029 0.765982
vt 0.696149 0.000000
vt 0.696149 0.019637
vt 0.598672 0.019637
vt 0.598672 0.000000
vt 0.085702 0.996520
vt 0.000000 0.996520
vt 0.000000 0.899042
vt 0.085702 0.899042
vt 0.382360 0.987634
vt 0.363970 0.987634
vt 0.363970 0.890156
vt 0.382360 0.890156
vt 0.844020 0.997980
vt 0.828491 0.997980
vt 0.828491 0.900503
vt 0.844020 0.900503
vt 0.564604 0.668505
vt 0.501194 0.141374
vt 0.501194 0.164004
vt 0.403717 0.164004
vt 0.403717 0.141374
vt 0.911540 0.415531
vt 0.869624 0.652188
vt 0.772147 0.652188
vt 0.855907 0.997980
vt 0.844021 0.997980
vt 0.844021 0.900503
vt 0.855907 0.900503
vt 0.869624 0.603086
vt 0.772147 0.603086
vt 0.223565 0.988294
vt 0.223565 0.890816
vt 0.674670 0.786259
vt 0.674670 0.805045
vt 0.577192 0.805045
vt 0.577192 0.786259
vt 0.292432 0.890816
vt 0.194955 0.890816
vt 0.194955 0.792014
vt 0.338033 0.987634
vt 0.338033 0.890156
vt 0.808110 0.997980
vt 0.808110 0.900503
vt 0.772147 0.668454
vt 0.772147 0.688053
vt 0.674670 0.688053
vt 0.577029 0.668505
vt 0.194248 0.897258
vt 0.097477 0.897258
vt 0.097477 0.799781
vt 0.194248 0.799781
vt 0.562217 0.987634
vt 0.543826 0.987634
vt 0.543826 0.890156
vt 0.562217 0.890156
vt 0.997798 0.639495
vt 0.997798 0.542018
vt 0.696149 0.124855
vt 0.696149 0.146027
vt 0.598672 0.146027
vt 0.598672 0.124855
vt 0.598672 0.048649
vt 0.501194 0.048649
vt 0.241704 0.988294
vt 0.241704 0.890816
vt 0.186290 0.994736
vt 0.097477 0.994736
vt 0.097477 0.897258
vt 0.186290 0.897258
vt 0.869624 0.627608
vt 0.772147 0.627608
vt 0.901082 0.997980
vt 0.889196 0.997980
vt 0.889196 0.900503
vt 0.901082 0.900503
vt 0.292432 0.987634
vt 0.292432 0.890156
vt 0.257788 0.988294
vt 0.257788 0.890816
vt 0.501194 0.114082
vt 0.403717 0.114082
vt 0.517890 0.987634
vt 0.517890 0.890156
vt 0.869624 0.689022
vt 0.869624 0.803025
vt 0.772147 0.803025
vt 0.772147 0.689022
vt 0.787717 0.997980
vt 0.787717 0.900503
vt 0.097477 0.668505
vt 0.097477 0.801565
vt -0.000000 0.801565
vt 0.000000 0.668505
vt 0.674670 0.763503
vt 0.577192 0.763503
vt 0.997955 0.194955
vt 0.981368 0.194955
vt 0.997955 0.097477
vt 0.871010 0.997980
vt 0.871010 0.900503
vt 0.696149 0.044341
vt 0.598672 0.044341
vt 0.719601 0.220576
vt 0.719601 0.444490
vt 0.622123 0.444490
vt 0.622123 0.220576
vt 0.772147 0.711404
vt 0.674670 0.711404
vt 0.272172 0.988294
vt 0.272172 0.890816
vt 0.889196 0.997980
vt 0.889196 0.900503
vt 0.772147 0.997980
vt 0.772147 0.900503
vt 0.598672 0.082536
vt 0.501194 0.082536
vt 0.472289 0.987634
vt 0.472289 0.890156
vt 0.761763 0.999778
vt 0.718216 0.999778
vt 0.718216 0.902301
vt 0.761763 0.902301
vt 0.696149 0.100368
vt 0.598672 0.100368
vt 0.696149 0.073773
vt 0.598672 0.073773
vt 0.389909 0.726721
vt 0.389909 0.792014
vt 0.292432 0.792014
vt 0.292432 0.726721
vt 0.284597 0.988294
vt 0.284597 0.890816
vt 0.501194 0.082920
vt 0.403717 0.082920
vt 0.916185 0.997980
vt 0.916185 0.900503
vt 0.865996 0.900503
vt 0.772147 0.900503
vt 0.772147 0.803025
vt 0.865996 0.803025
vt 0.772147 0.444540
vt 0.472289 0.987634
vt 0.453898 0.987634
vt 0.453898 0.890156
vt 0.472289 0.890156
vt 0.389909 0.703861
vt 0.292432 0.703861
vt 0.998554 0.997980
vt 0.979546 0.997980
vt 0.979546 0.900503
vt 0.998554 0.900503
vt 0.674670 0.737604
vt 0.577192 0.737604
vt 0.934371 0.997980
vt 0.934371 0.900503
vt 0.960683 0.900503
vt 0.867724 0.900503
vt 0.867724 0.803025
vt 0.960683 0.803025
vt 0.389909 0.684337
vt 0.292432 0.684337
vt 0.772147 0.737720
vt 0.674670 0.737720
vt 0.620739 1.000000
vt 0.577192 1.000000
vt 0.620739 0.902523
vt 0.817078 0.318053
vt 0.817078 0.220576
vt 0.946257 0.997980
vt 0.946257 0.900503
vt 0.914268 0.736972
vt 0.914268 0.639495
vt 0.487387 0.726721
vt 0.389909 0.792013
vt 0.389909 0.726721
vt 0.427962 0.987634
vt 0.427962 0.890156
vt 0.984357 0.542018
vt 0.962583 0.444540
vt 0.984357 0.444540
vt 0.768519 0.902301
vt 0.768519 0.804824
vt 0.867724 0.900503
vt 0.867724 0.803025
vt 0.487387 0.703861
vt 0.389909 0.703861
vt 0.389909 0.668505
vt 0.292432 0.668505
vt 0.639748 1.000000
vt 0.620739 1.000000
vt 0.620739 0.902523
vt 0.639748 0.902523
vt 0.793627 0.074957
vt 0.793627 0.101165
vt 0.696149 0.101165
vt 0.696149 0.074957
vt 0.869624 0.444540
vt 0.487387 0.684337
vt 0.389909 0.684337
vt 0.891104 0.112323
vt 0.891104 0.210466
vt 0.793627 0.210466
vt 0.793627 0.112323
vt 0.817078 0.415531
vt 0.793627 0.045399
vt 0.696149 0.045399
vt 0.981368 0.194955
vt 0.382360 0.987634
vt 0.382360 0.890156
vt 0.982456 0.900503
vt 0.960683 0.900503
vt 0.960683 0.803025
vt 0.982456 0.803025
vt 0.770246 0.902301
vt 0.770246 0.804824
vt 0.487387 0.668505
vt 0.389909 0.668505
vt 0.487387 0.863459
vt 0.817078 0.444490
vt 0.719601 0.220576
s 1
usemtl Material
f 7/1/1 8/2/1 32/3/1
f 32/3/1 8/2/1 9/4/1
f 32/3/1 9/4/1 10/5/1
f 32/3/1 10/5/1 11/6/1
f 32/3/1 11/6/1 31/7/1
f 31/7/1 11/6/1 12/8/1
f 7/1/1 32/3/1 22/9/1
f 30/10/1 31/7/1 12/8/1
f 30/10/1 12/8/1 13/11/1
f 29/12/1 30/10/1 13/11/1
f 28/13/1 29/12/1 13/11/1
f 28/13/1 13/11/1 14/14/1
f 27/15/1 28/13/1 14/14/1
f 27/15/1 14/14/1 15/16/1
f 27/15/1 15/16/1 16/17/1
f 26/18/1 27/15/1 16/17/1
f 26/18/1 16/17/1 17/19/1
f 25/20/1 26/18/1 17/19/1
f 25/20/1 17/19/1 18/21/1
f 24/22/1 25/20/1 18/21/1
f 24/22/1 18/21/1 19/23/1
f 23/24/1 24/22/1 19/23/1
f 7/1/1 22/9/1 5/25/1
f 5/25/1 22/9/1 23/24/1
f 5/25/1 23/24/1 19/23/1
f 5/25/1 19/23/1 20/26/1
f 5/25/1 20/26/1 21/27/1
f 5/25/1 21/27/1 4/28/1
f 4/28/1 21/27/1 1/29/1
f 7/1/1 5/25/1 6/30/1
f 3/31/1 4/28/1 1/29/1
f 3/31/1 1/29/1 2/32/1
f 42/33/1 43/34/1 44/35/1
f 41/36/1 42/33/1 44/35/1
f 41/36/1 44/35/1 45/37/1
f 40/38/1 41/36/1 68/39/1
f 68/39/1 41/36/1 67/40/1
f 67/40/1 41/36/1 45/37/1
f 67/40/1 45/37/1 66/41/1
f 66/41/1 45/37/1 46/42/1
f 40/38/1 68/39/1 69/43/1
f 65/44/1 66/41/1 46/42/1
f 39/45/1 40/38/1 69/43/1
f 39/45/1 69/43/1 70/46/1
f 64/47/1 65/44/1 46/42/1
f 64/47/1 46/42/1 47/48/1
f 39/45/1 70/46/1 71/49/1
f 63/50/1 64/47/1 47/48/1
f 38/51/1 39/45/1 71/49/1
f 63/50/1 47/48/1 48/52/1
f 38/51/1 71/49/1 72/53/1
f 62/54/1 63/50/1 48/52/1
f 37/55/1 38/51/1 72/53/1
f 62/54/1 48/52/1 49/56/1
f 37/55/1 72/53/1 73/57/1
f 61/58/1 62/54/1 49/56/1
f 37/55/1 73/57/1 74/59/1
f 36/60/1 37/55/1 74/59/1
f 61/58/1 49/56/1 50/61/1
f 60/62/1 61/58/1 50/61/1
f 36/60/1 74/59/1 75/63/1
f 59/64/1 60/62/1 50/61/1
f 35/65/1 36/60/1 75/63/1
f 59/64/1 50/61/1 51/66/1
f 35/65/1 75/63/1 76/67/1
f 58/68/1 59/64/1 51/66/1
f 34/69/1 35/65/1 76/67/1
f 58/68/1 51/66/1 52/70/1
f 34/69/1 76/67/1 77/71/1
f 57/72/1 58/68/1 52/70/1
f 33/73/1 34/69/1 77/71/1
f 33/73/1 77/71/1 78/74/1
f 80/75/1 57/72/1 52/70/1
f 80/75/1 52/70/1 53/76/1
f 33/73/1 78/74/1 79/77/1
f 79/77/1 80/75/1 53/76/1
f 33/73/1 79/77/1 53/76/1
f 56/78/1 33/73/1 53/76/1
f 56/78/1 53/76/1 54/79/1
f 55/80/1 56/78/1 54/79/1
f 87/81/1 88/82/1 112/83/1
f 112/83/1 88/82/1 89/84/1
f 112/83/1 89/84/1 90/85/1
f 112/83/1 90/85/1 91/86/1
f 112/83/1 91/86/1 111/87/1
f 111/87/1 91/86/1 92/88/1
f 87/81/1 112/83/1 102/89/1
f 110/90/1 111/87/1 92/88/1
f 110/90/1 92/88/1 93/91/1
f 109/92/1 110/90/1 93/91/1
f 108/93/1 109/92/1 93/91/1
f 108/93/1 93/91/1 94/94/1
f 107/95/1 108/93/1 94/94/1
f 107/95/1 94/94/1 95/96/1
f 107/95/1 95/96/1 96/97/1
f 106/98/1 107/95/1 96/97/1
f 106/98/1 96/97/1 97/99/1
f 105/100/1 106/98/1 97/99/1
f 105/100/1 97/99/1 98/101/1
f 104/102/1 105/100/1 98/101/1
f 104/102/1 98/101/1 99/103/1
f 103/104/1 104/102/1 99/103/1
f 87/81/1 102/89/1 85/105/1
f 85/105/1 102/89/1 103/104/1
f 85/105/1 103/104/1 99/103/1
f 85/105/1 99/103/1 100/106/1
f 85/105/1 100/106/1 101/107/1
f 85/105/1 101/107/1 84/108/1
f 84/108/1 101/107/1 81/109/1
f 87/81/1 85/105/1 86/110/1
f 83/111/1 84/108/1 81/109/1
f 83/111/1 81/109/1 82/112/1
f 119/113/1 120/114/1 144/115/1
f 144/115/1 120/114/1 121/116/1
f 144/115/1 121/116/1 122/117/1
f 144/115/1 122/117/1 123/118/1
f 144/115/1 123/118/1 143/119/1
f 143/119/1 123/118/1 124/120/1
f 119/113/1 144/115/1 134/121/1
f 142/122/1 143/119/1 124/120/1
f 142/122/1 124/120/1 125/123/1
f 141/124/1 142/122/1 125/123/1
f 140/125/1 141/124/1 125/123/1
f 140/125/1 125/123/1 126/126/1
f 139/127/1 140/125/1 126/126/1
f 139/127/1 126/126/1 127/128/1
f 139/127/1 127/128/1 128/129/1
f 138/130/1 139/127/1 128/129/1
f 138/130/1 128/129/1 129/131/1
f 137/132/1 138/130/1 129/131/1
f 137/132/1 129/131/1 130/133/1
f 136/134/1 137/132/1 130/133/1
f 136/134/1 130/133/1 131/135/1
f 135/136/1 136/134/1 131/135/1
f 119/113/1 134/121/1 117/137/1
f 117/137/1 134/121/1 135/136/1
f 117/137/1 135/136/1 131/135/1
f 117/137/1 131/135/1 132/138/1
f 117/137/1 132/138/1 133/139/1
f 117/137/1 133/139/1 116/140/1
f 116/140/1 133/139/1 113/141/1
f 119/113/1 117/137/1 118/142/1
f 115/143/1 116/140/1 113/141/1
f 115/143/1 113/141/1 114/81/1
f 148/144/1 149/145/1 152/146/1
f 152/146/1 149/145/1 150/147/1
f 152/146/1 150/147/1 151/148/1
f 148/144/1 152/146/1 153/149/1
f 148/144/1 153/149/1 156/150/1
f 156/150/1 153/149/1 154/151/1
f 156/150/1 154/151/1 155/152/1
f 148/144/1 156/150/1 145/153/1
f 148/144/1 145/153/1 146/154/1
f 148/144/1 146/154/1 147/155/1
f 163/82/2 188/156/2 164/157/2
f 188/156/2 165/158/2 164/157/2
f 188/156/2 166/159/2 165/158/2
f 188/156/2 167/160/2 166/159/2
f 188/156/2 187/161/2 167/160/2
f 187/161/2 168/162/2 167/160/2
f 163/82/2 178/163/2 188/156/2
f 186/164/2 168/162/2 187/161/2
f 186/164/2 169/165/2 168/162/2
f 185/166/2 169/165/2 186/164/2
f 184/167/2 169/165/2 185/166/2
f 184/167/2 170/168/2 169/165/2
f 183/169/2 170/168/2 184/167/2
f 183/169/2 171/170/2 170/168/2
f 183/169/2 172/171/2 171/170/2
f 182/172/2 172/171/2 183/169/2
f 182/172/2 173/173/2 172/171/2
f 181/174/2 173/173/2 182/172/2
f 181/174/2 174/175/2 173/173/2
f 180/176/2 174/175/2 181/174/2
f 180/176/2 175/177/2 174/175/2
f 179/178/2 175/177/2 180/176/2
f 163/82/2 161/179/2 178/163/2
f 161/179/2 179/178/2 178/163/2
f 161/179/2 175/177/2 179/178/2
f 161/179/2 176/180/2 175/177/2
f 161/179/2 177/181/2 176/180/2
f 161/179/2 160/182/2 177/181/2
f 160/182/2 157/183/2 177/181/2
f 163/82/2 162/184/2 161/179/2
f 159/185/2 157/183/2 160/182/2
f 159/185/2 158/155/2 157/183/2
f 198/186/2 200/187/2 199/188/2
f 197/189/2 200/187/2 198/186/2
f 197/189/2 201/190/2 200/187/2
f 196/191/2 224/192/2 197/189/2
f 224/192/2 223/193/2 197/189/2
f 223/193/2 201/190/2 197/189/2
f 223/193/2 222/194/2 201/190/2
f 222/194/2 202/195/2 201/190/2
f 196/191/2 225/196/2 224/192/2
f 221/197/2 202/195/2 222/194/2
f 195/198/2 225/196/2 196/191/2
f 195/198/2 226/199/2 225/196/2
f 220/200/2 202/195/2 221/197/2
f 220/200/2 203/201/2 202/195/2
f 195/198/2 227/202/2 226/199/2
f 219/203/2 203/201/2 220/200/2
f 194/204/2 227/202/2 195/198/2
f 219/203/2 204/205/2 203/201/2
f 194/204/2 228/206/2 227/202/2
f 218/207/2 204/205/2 219/203/2
f 193/208/2 228/206/2 194/204/2
f 218/207/2 205/209/2 204/205/2
f 193/208/2 229/210/2 228/206/2
f 217/211/2 205/209/2 218/207/2
f 193/208/2 230/212/2 229/210/2
f 192/213/2 230/212/2 193/208/2
f 217/211/2 206/214/2 205/209/2
f 216/215/2 206/214/2 217/211/2
f 192/213/2 231/216/2 230/212/2
f 215/217/2 206/214/2 216/215/2
f 191/218/2 231/216/2 192/213/2
f 215/217/2 207/219/2 206/214/2
f 191/218/2 232/220/2 231/216/2
f 214/221/2 207/219/2 215/217/2
f 190/222/2 232/220/2 191/218/2
f 214/221/2 208/223/2 207/219/2
f 190/222/2 233/224/2 232/220/2
f 213/225/2 208/223/2 214/221/2
f 189/226/2 233/224/2 190/222/2
f 189/226/2 234/227/2 233/224/2
f 236/228/2 208/223/2 213/225/2
f 236/228/2 209/229/2 208/223/2
f 189/226/2 235/230/2 234/227/2
f 235/230/2 209/229/2 236/228/2
f 189/226/2 209/229/2 235/230/2
f 212/231/2 209/229/2 189/226/2
f 212/231/2 210/232/2 209/229/2
f 211/233/2 210/232/2 212/231/2
f 243/113/2 268/234/2 244/114/2
f 268/234/2 245/235/2 244/114/2
f 268/234/2 246/236/2 245/235/2
f 268/234/2 247/237/2 246/236/2
f 268/234/2 267/238/2 247/237/2
f 267/238/2 248/239/2 247/237/2
f 243/113/2 258/240/2 268/234/2
f 266/241/2 248/239/2 267/238/2
f 266/241/2 249/242/2 248/239/2
f 265/243/2 249/242/2 266/241/2
f 264/244/2 249/242/2 265/243/2
f 264/244/2 250/245/2 249/242/2
f 263/246/2 250/245/2 264/244/2
f 263/246/2 251/247/2 250/245/2
f 263/246/2 252/248/2 251/247/2
f 262/249/2 252/248/2 263/246/2
f 262/249/2 253/250/2 252/248/2
f 261/251/2 253/250/2 262/249/2
f 261/251/2 254/252/2 253/250/2
f 260/253/2 254/252/2 261/251/2
f 260/253/2 255/254/2 254/252/2
f 259/255/2 255/254/2 260/253/2
f 243/113/2 241/256/2 258/240/2
f 241/256/2 259/255/2 258/240/2
f 241/256/2 255/254/2 259/255/2
f 241/256/2 256/257/2 255/254/2
f 241/256/2 257/258/2 256/257/2
f 241/256/2 240/259/2 257/258/2
f 240/259/2 237/260/2 257/258/2
f 243/113/2 242/261/2 241/256/2
f 239/262/2 237/260/2 240/259/2
f 239/262/2 238/263/2 237/260/2
f 275/264/2 300/265/2 276/266/2
f 300/265/2 277/267/2 276/266/2
f 300/265/2 278/268/2 277/267/2
f 300/265/2 279/269/2 278/268/2
f 300/265/2 299/270/2 279/269/2
f 299/270/2 280/271/2 279/269/2
f 275/264/2 290/272/2 300/265/2
f 298/273/2 280/271/2 299/270/2
f 298/273/2 281/274/2 280/271/2
f 297/275/2 281/274/2 298/273/2
f 296/276/2 281/274/2 297/275/2
f 296/276/2 282/277/2 281/274/2
f 295/278/2 282/277/2 296/276/2
f 295/278/2 283/279/2 282/277/2
f 295/278/2 284/280/2 283/279/2
f 294/281/2 284/280/2 295/278/2
f 294/281/2 285/282/2 284/280/2
f 293/283/2 285/282/2 294/281/2
f 293/283/2 286/284/2 285/282/2
f 292/285/2 286/284/2 293/283/2
f 292/285/2 287/286/2 286/284/2
f 291/287/2 287/286/2 292/285/2
f 275/264/2 273/288/2 290/272/2
f 273/288/2 291/287/2 290/272/2
f 273/288/2 287/286/2 291/287/2
f 273/288/2 288/289/2 287/286/2
f 273/288/2 289/290/2 288/289/2
f 273/288/2 272/291/2 289/290/2
f 272/291/2 269/292/2 289/290/2
f 275/264/2 274/293/2 273/288/2
f 271/294/2 269/292/2 272/291/2
f 271/294/2 270/295/2 269/292/2
f 304/144/2 308/296/2 305/145/2
f 308/296/2 306/297/2 305/145/2
f 308/296/2 307/298/2 306/297/2
f 304/144/2 309/299/2 308/296/2
f 304/144/2 312/300/2 309/299/2
f 312/300/2 310/301/2 309/299/2
f 312/300/2 311/302/2 310/301/2
f 304/144/2 301/303/2 312/300/2
f 304/144/2 302/304/2 301/303/2
f 304/144/2 303/305/2 302/304/2
f 30/306/3 29/307/4 185/308/4 186/309/3
f 75/310/5 74/311/6 230/312/6 231/313/5
f 41/314/7 40/315/8 196/316/8 197/317/7
f 102/318/9 112/319/9 268/320/9 258/321/9
f 133/322/10 132/323/11 288/324/11 289/325/10
f 60/326/12 59/327/13 215/328/13 216/329/12
f 111/330/14 110/331/3 266/332/3 267/333/14
f 117/334/15 116/335/15 272/336/15 273/337/15
f 29/338/4 28/339/16 184/340/16 185/341/4
f 36/342/17 35/343/18 191/344/18 192/345/17
f 121/346/19 120/347/20 276/348/20 277/349/19
f 68/350/21 67/351/22 223/352/22 224/353/21
f 93/354/23 92/355/24 248/356/24 249/357/23
f 113/358/25 133/359/25 289/360/25 269/361/25
f 14/362/26 13/363/23 169/354/23 170/364/26
f 122/365/27 121/346/19 277/349/19 278/366/27
f 110/331/3 109/367/4 265/368/4 266/332/3
f 119/369/15 118/370/15 274/371/15 275/372/15
f 28/339/16 27/373/28 183/374/28 184/340/16
f 51/375/29 50/376/30 206/377/30 207/378/29
f 67/351/22 66/379/31 222/380/31 223/352/22
f 118/381/9 117/382/9 273/383/9 274/384/9
f 123/385/32 122/365/27 278/366/27 279/386/32
f 109/387/4 108/388/16 264/339/16 265/338/4
f 116/389/33 115/390/33 271/391/33 272/392/33
f 76/393/34 75/310/5 231/313/5 232/394/34
f 144/395/15 143/396/14 299/397/14 300/398/15
f 15/399/35 14/362/26 170/364/26 171/400/35
f 59/327/13 58/401/36 214/402/36 215/328/13
f 46/403/37 45/404/38 201/405/38 202/406/37
f 115/407/15 114/408/15 270/409/15 271/410/15
f 94/364/26 93/354/23 249/357/23 250/411/26
f 114/412/9 113/358/9 269/361/9 270/413/9
f 16/414/39 15/399/35 171/400/35 172/415/39
f 35/343/18 34/416/40 190/417/40 191/344/18
f 124/418/24 123/385/32 279/386/32 280/419/24
f 69/420/41 68/350/21 224/353/21 225/421/41
f 108/388/16 107/422/28 263/373/28 264/339/16
f 149/423/42 148/393/42 304/394/42 305/424/42
f 27/373/28 26/425/43 182/426/43 183/374/28
f 66/379/31 65/427/44 221/428/44 222/380/31
f 134/429/9 144/430/9 300/431/9 290/432/9
f 52/433/45 51/375/29 207/378/29 208/434/45
f 143/396/14 142/435/3 298/436/3 299/397/14
f 40/437/8 39/438/46 195/439/46 196/440/8
f 95/400/35 94/364/26 250/411/26 251/441/35
f 17/442/47 16/414/39 172/415/39 173/443/47
f 150/444/20 149/445/20 305/446/20 306/447/20
f 26/425/43 25/448/48 181/449/48 182/426/43
f 77/450/49 76/451/34 232/452/34 233/453/49
f 96/415/39 95/400/35 251/441/35 252/454/39
f 152/455/15 151/456/15 307/457/15 308/458/15
f 58/459/36 57/460/50 213/461/50 214/462/36
f 125/463/23 124/464/24 280/465/24 281/466/23
f 70/467/51 69/420/41 225/421/41 226/468/51
f 107/422/28 106/469/43 262/425/43 263/373/28
f 151/470/9 150/471/9 306/472/9 307/473/9
f 142/435/3 141/474/4 297/475/4 298/436/3
f 65/427/44 64/476/52 220/477/52 221/428/44
f 18/478/53 17/442/47 173/443/47 174/479/53
f 34/480/40 33/481/54 189/482/54 190/483/40
f 153/484/9 152/485/9 308/486/9 309/487/9
f 25/488/48 24/489/55 180/490/55 181/491/48
f 141/492/4 140/493/16 296/494/16 297/495/4
f 97/443/47 96/415/39 252/454/39 253/496/47
f 47/497/56 46/498/37 202/499/37 203/500/56
f 106/469/43 105/501/48 261/448/48 262/425/43
f 78/502/57 77/450/49 233/453/49 234/503/57
f 19/504/58 18/505/53 174/506/53 175/507/58
f 57/460/50 80/508/59 236/509/59 213/461/50
f 126/510/26 125/463/23 281/466/23 282/511/26
f 71/512/60 70/513/51 226/514/51 227/515/60
f 154/321/20 153/516/20 309/517/20 310/518/20
f 24/489/55 23/519/61 179/520/61 180/490/55
f 140/493/16 139/521/28 295/522/28 296/494/16
f 64/523/52 63/524/62 219/525/62 220/393/52
f 98/479/53 97/443/47 253/496/47 254/526/53
f 156/527/15 155/528/15 311/529/15 312/530/15
f 105/531/48 104/532/55 260/533/55 261/534/48
f 155/535/63 154/369/63 310/372/63 311/536/63
f 53/537/64 52/538/45 208/539/45 209/540/64
f 39/438/46 38/541/65 194/542/65 195/439/46
f 127/543/35 126/510/26 282/511/26 283/544/35
f 145/545/9 156/546/9 312/547/9 301/548/9
f 79/549/66 78/502/57 234/503/57 235/550/66
f 99/551/58 98/552/53 254/553/53 255/554/58
f 23/519/61 22/555/20 178/556/20 179/520/61
f 80/508/59 79/549/66 235/550/66 236/509/59
f 128/557/39 127/543/35 283/544/35 284/558/39
f 48/559/67 47/497/56 203/500/56 204/560/67
f 104/532/55 103/561/61 259/562/61 260/533/55
f 146/563/20 145/564/20 301/565/20 302/566/20
f 139/521/28 138/567/43 294/568/43 295/522/28
f 148/569/15 147/570/15 303/571/15 304/572/15
f 72/573/68 71/512/60 227/515/60 228/574/68
f 147/575/9 146/576/9 302/395/9 303/577/9
f 20/578/11 19/504/58 175/507/58 176/579/11
f 33/481/54 56/580/69 212/581/69 189/482/54
f 8/582/42 7/583/42 163/584/42 164/585/42
f 63/524/62 62/586/70 218/587/70 219/525/62
f 129/588/47 128/557/39 284/558/39 285/589/47
f 21/590/10 20/578/11 176/579/11 177/591/10
f 138/567/43 137/592/48 293/593/48 294/568/43
f 38/541/65 37/594/71 193/595/71 194/542/65
f 103/561/61 102/596/20 258/597/20 259/562/61
f 5/598/15 4/599/15 160/600/15 161/601/15
f 54/602/72 53/537/64 209/540/64 210/603/72
f 56/580/69 55/604/73 211/605/73 212/581/69
f 9/606/19 8/607/20 164/608/20 165/609/19
f 55/604/73 54/602/72 210/603/72 211/605/73
f 130/610/53 129/588/47 285/589/47 286/611/53
f 49/612/74 48/559/67 204/560/67 205/613/74
f 100/614/11 99/551/58 255/554/58 256/615/11
f 1/616/25 21/617/25 177/618/25 157/619/25
f 88/620/42 87/523/42 243/393/42 244/423/42
f 137/621/48 136/622/55 292/623/55 293/624/48
f 10/625/27 9/606/19 165/609/19 166/626/27
f 7/627/15 6/628/15 162/629/15 163/630/15
f 73/631/75 72/573/68 228/574/68 229/632/75
f 101/633/10 100/614/11 256/615/11 257/634/10
f 6/635/9 5/636/9 161/637/9 162/638/9
f 11/639/32 10/625/27 166/626/27 167/640/32
f 62/586/70 61/641/76 217/642/76 218/587/70
f 85/643/15 84/644/15 240/390/15 241/645/15
f 4/448/33 3/646/33 159/647/33 160/449/33
f 131/648/58 130/633/53 286/634/53 287/649/58
f 32/408/15 31/650/14 187/651/14 188/409/15
f 89/652/19 88/429/20 244/653/20 245/654/19
f 136/622/55 135/655/61 291/656/61 292/623/55
f 3/657/15 2/384/15 158/658/15 159/659/15
f 74/311/6 73/631/75 229/632/75 230/312/6
f 81/660/25 101/336/25 257/402/25 237/661/25
f 2/662/9 1/616/9 157/619/9 158/663/9
f 90/664/27 89/652/19 245/654/19 246/665/27
f 12/666/24 11/639/32 167/640/32 168/667/24
f 37/594/71 36/342/17 192/345/17 193/595/71
f 87/668/15 86/669/15 242/670/15 243/671/15
f 43/672/77 42/673/78 198/674/78 199/675/77
f 86/384/9 85/383/9 241/676/9 242/658/9
f 91/677/32 90/664/27 246/665/27 247/678/32
f 22/679/9 32/680/9 188/681/9 178/682/9
f 84/501/33 83/683/33 239/646/33 240/448/33
f 44/684/79 43/672/77 199/675/77 200/685/79
f 112/686/15 111/330/14 267/333/14 268/471/15
f 135/655/61 134/687/20 290/688/20 291/656/61
f 31/650/14 30/306/3 186/309/3 187/651/14
f 50/376/30 49/612/74 205/613/74 206/377/30
f 42/673/78 41/314/7 197/317/7 198/674/78
f 61/641/76 60/326/12 216/329/12 217/642/76
f 83/689/15 82/690/15 238/691/15 239/692/15
f 82/693/9 81/660/9 237/661/9 238/694/9
f 92/695/24 91/677/32 247/678/32 248/696/24
f 132/323/11 131/648/58 287/649/58 288/324/11
f 13/363/23 12/697/24 168/355/24 169/354/23
f 120/647/42 119/698/42 275/583/42 276/699/42
f 45/404/38 44/684/79 200/685/79 201/405/38
