# Blender 4.5.10 LTS
# www.blender.org
mtllib notepad.mtl
o notepad
v -0.157172 0.713140 0.014867
v -0.160811 0.712760 0.012719
v -0.162828 0.711760 0.016315
v -0.159189 0.712139 0.018462
v -0.157100 0.741889 0.019686
v -0.160770 0.741811 0.017557
v -0.162900 0.741945 0.021224
v -0.159230 0.742022 0.023353
v -0.157172 0.770211 0.012789
v -0.160811 0.770433 0.010620
v -0.162828 0.771692 0.014133
v -0.159189 0.771470 0.016302
v -0.155746 0.773973 0.011883
v -0.158370 0.776042 0.009269
v -0.159825 0.778325 0.012535
v -0.157201 0.776256 0.015150
v -0.151877 0.775358 0.011549
v -0.152601 0.778415 0.008697
v -0.153002 0.781245 0.011832
v -0.152278 0.778189 0.014684
v 0.151877 0.775358 0.011549
v 0.152601 0.778415 0.008697
v 0.153002 0.781245 0.011832
v 0.152278 0.778189 0.014684
v 0.155746 0.773973 0.011883
v 0.158370 0.776042 0.009269
v 0.159825 0.778325 0.012535
v 0.157201 0.776256 0.015150
v 0.157172 0.770211 0.012789
v 0.160811 0.770433 0.010620
v 0.162828 0.771692 0.014133
v 0.159189 0.771470 0.016302
v 0.157100 0.741889 0.019686
v 0.160770 0.741811 0.017557
v 0.162900 0.741945 0.021224
v 0.159230 0.742022 0.023353
v 0.157172 0.713140 0.014867
v 0.160811 0.712760 0.012719
v 0.162828 0.711760 0.016315
v 0.159189 0.712139 0.018462
v 0.155746 0.709322 0.014236
v 0.158370 0.707068 0.011779
v 0.159825 0.705029 0.015203
v 0.157201 0.707282 0.017660
v 0.151877 0.707916 0.014004
v 0.152601 0.704660 0.011382
v 0.153002 0.702065 0.014714
v 0.152278 0.705321 0.017337
v 0.063072 0.707724 0.013973
v 0.061560 0.704715 0.011391
v 0.060722 0.702257 0.014746
v 0.062234 0.705266 0.017328
v 0.054133 0.717549 0.015595
v 0.052622 0.714541 0.013013
v 0.051783 0.712083 0.016368
v 0.053295 0.715091 0.018950
v -0.054133 0.717549 0.015595
v -0.052622 0.714541 0.013013
v -0.051783 0.712083 0.016368
v -0.053295 0.715091 0.018950
v -0.063072 0.707724 0.013973
v -0.061560 0.704715 0.011391
v -0.060722 0.702257 0.014746
v -0.062234 0.705266 0.017328
v -0.151877 0.707916 0.014004
v -0.152601 0.704660 0.011382
v -0.153002 0.702065 0.014714
v -0.152278 0.705321 0.017337
v -0.155746 0.709322 0.014236
v -0.158370 0.707068 0.011779
v -0.159825 0.705029 0.015203
v -0.157201 0.707282 0.017660
v -0.290040 0.029687 0.000000
v -0.273633 0.013280 0.000000
v -0.285234 0.018086 0.000000
v -0.273633 0.786720 -0.000000
v -0.290040 0.770313 -0.000000
v -0.285234 0.781914 -0.000000
v 0.273633 0.013280 0.000000
v 0.290040 0.029687 0.000000
v 0.285234 0.018086 0.000000
v 0.290040 0.770313 -0.000000
v 0.273633 0.786720 -0.000000
v 0.285234 0.781914 -0.000000
v -0.273633 0.013280 -0.020000
v -0.290040 0.029687 -0.020000
v -0.285234 0.018086 -0.020000
v 0.273633 0.786720 -0.020000
v 0.290040 0.770313 -0.020000
v 0.285234 0.781914 -0.020000
v -0.290040 0.770313 -0.020000
v -0.273633 0.786720 -0.020000
v -0.285234 0.781914 -0.020000
v 0.290040 0.029687 -0.020000
v 0.273633 0.013280 -0.020000
v 0.285234 0.018086 -0.020000
v -0.274678 0.008023 -0.010000
v -0.289024 0.014296 -0.010000
v -0.295297 0.028642 -0.010000
v 0.274678 0.791977 -0.010000
v 0.289024 0.785704 -0.010000
v 0.295297 0.771358 -0.010000
v -0.274678 0.791977 -0.010000
v -0.289024 0.785704 -0.010000
v -0.295297 0.771358 -0.010000
v 0.274678 0.008023 -0.010000
v 0.289024 0.014296 -0.010000
v 0.295297 0.028642 -0.010000
v 0.150000 0.700000 -0.020000
v -0.150000 0.700000 -0.020000
v -0.145000 0.786720 -0.000000
v 0.150000 0.786720 -0.020000
v 0.145000 0.786720 -0.025000
v 0.145000 0.705000 -0.025000
v -0.145000 0.786720 -0.025000
v -0.150000 0.786720 -0.020000
v -0.145000 0.705000 -0.025000
v 0.145000 0.786720 -0.000000
v 0.145000 0.705000 0.005000
v 0.150000 0.700000 -0.000000
v -0.145000 0.705000 0.005000
v -0.150000 0.700000 -0.000000
v -0.145000 0.770000 0.005000
v -0.145000 0.770000 0.011640
v -0.145000 0.778360 0.020000
v -0.145000 0.772448 0.017551
v -0.145000 0.786720 0.011640
v -0.145000 0.784271 0.017551
v 0.145000 0.786720 0.011640
v 0.145000 0.784271 0.017551
v 0.145000 0.778360 0.020000
v 0.145000 0.770000 0.011640
v 0.145000 0.772448 0.017551
v 0.150000 0.770000 -0.000000
v -0.150000 0.770000 -0.000000
v 0.145000 0.770000 0.005000
v 0.145000 0.770000 -0.000000
v -0.145000 0.770000 -0.000000
v 0.020110 0.786720 -0.025000
v 0.020110 0.786720 -0.020000
v -0.020110 0.786720 -0.020000
v -0.020110 0.786720 -0.000000
v 0.020110 0.786720 -0.000000
v 0.020110 0.786720 0.005000
v -0.020110 0.794086 -0.014855
v -0.020110 0.794086 -0.005145
v 0.020110 0.794086 -0.005145
v 0.020110 0.794086 -0.014855
v 0.000000 0.829202 -0.014855
v 0.020110 0.809092 -0.014855
v 0.014220 0.823312 -0.014855
v 0.020110 0.809092 -0.005145
v 0.000000 0.829202 -0.005145
v 0.014220 0.823312 -0.005145
v -0.020110 0.809092 -0.005145
v -0.014220 0.823312 -0.005145
v -0.020110 0.809092 -0.014855
v -0.014220 0.823312 -0.014855
v 0.020110 0.794086 -0.002367
v -0.020110 0.786720 0.005000
v -0.020110 0.794086 -0.002367
v -0.020110 0.794086 -0.017633
v -0.020110 0.786720 -0.025000
v 0.020110 0.794086 -0.017633
v 0.000000 0.798661 -0.005145
v 0.000000 0.798661 -0.014855
v 0.007376 0.801716 -0.005145
v 0.007376 0.801716 -0.014855
v -0.007376 0.801716 -0.005145
v -0.007376 0.801716 -0.014855
v 0.010431 0.809092 -0.005145
v 0.010431 0.809092 -0.014855
v -0.010431 0.809092 -0.005145
v -0.010431 0.809092 -0.014855
v 0.000000 0.819523 -0.005145
v 0.000000 0.819523 -0.014855
v 0.007376 0.816468 -0.005145
v 0.007376 0.816468 -0.014855
v -0.007376 0.816468 -0.005145
v -0.007376 0.816468 -0.014855
v 0.238878 0.043139 0.005000
v 0.238878 0.770313 0.005000
v -0.238878 0.043139 0.005000
v -0.238878 0.770313 0.005000
v 0.238878 0.043139 0.011262
v 0.238878 0.770313 0.011262
v -0.238878 0.043139 0.011262
v -0.238878 0.770313 0.011262
vn 0.9386 0.2239 -0.2624
vn 0.9839 -0.0065 -0.1787
vn 0.2456 0.0353 0.9687
vn 0.1868 -0.1308 0.9737
vn -0.3407 0.0780 -0.9369
vn -0.2915 -0.0348 -0.9559
vn -0.9484 -0.2339 0.2141
vn -0.9393 0.0125 0.3428
vn 0.9386 -0.2424 -0.2454
vn 0.1868 0.2013 0.9616
vn -0.3407 -0.1459 -0.9288
vn -0.9484 0.2489 0.1965
vn 0.6642 -0.7261 -0.1780
vn 0.0680 0.1670 0.9836
vn -0.2958 0.0748 -0.9523
vn -0.6864 0.7236 0.0727
vn 0.1774 -0.9815 -0.0714
vn 0.0296 0.0443 0.9986
vn -0.0759 0.1172 -0.9902
vn -0.1952 0.9805 0.0248
vn -0.1774 -0.9815 -0.0714
vn -0.0296 0.0443 0.9986
vn 0.0759 0.1172 -0.9902
vn 0.1952 0.9805 0.0248
vn -0.6642 -0.7261 -0.1780
vn -0.0680 0.1670 0.9836
vn 0.2958 0.0748 -0.9523
vn 0.6864 0.7236 0.0727
vn -0.9386 -0.2424 -0.2454
vn -0.1868 0.2013 0.9616
vn 0.3407 -0.1459 -0.9288
vn 0.9484 0.2489 0.1965
vn -0.9839 -0.0065 -0.1787
vn -0.2456 0.0353 0.9687
vn 0.2915 -0.0348 -0.9559
vn 0.9393 0.0125 0.3428
vn -0.9386 0.2239 -0.2624
vn -0.1868 -0.1308 0.9737
vn 0.3407 0.0780 -0.9369
vn 0.9484 -0.2339 0.2141
vn -0.6642 0.7112 -0.2303
vn -0.0680 -0.0951 0.9931
vn 0.2958 -0.1439 -0.9444
vn 0.6864 -0.7164 0.1251
vn -0.1768 0.9740 -0.1420
vn -0.0303 0.0272 0.9992
vn 0.0759 -0.1900 -0.9788
vn 0.1933 -0.9764 0.0960
vn 0.3851 0.9014 -0.1976
vn 0.0350 -0.0800 0.9962
vn -0.1742 -0.2374 -0.9557
vn -0.3990 -0.9126 0.0887
vn 0.3959 0.9140 -0.0890
vn 0.1749 0.2397 0.9550
vn -0.0358 0.0830 -0.9959
vn -0.3831 -0.9026 0.1963
vn -0.3959 0.9140 -0.0890
vn -0.1749 0.2397 0.9550
vn 0.0358 0.0830 -0.9959
vn 0.3831 -0.9026 0.1963
vn -0.3851 0.9014 -0.1976
vn -0.0350 -0.0800 0.9962
vn 0.1742 -0.2374 -0.9557
vn 0.3990 -0.9126 0.0887
vn 0.1768 0.9740 -0.1420
vn 0.0303 0.0272 0.9992
vn -0.0759 -0.1900 -0.9788
vn -0.1933 -0.9764 0.0960
vn 0.6642 0.7112 -0.2303
vn 0.0680 -0.0951 0.9931
vn -0.2958 -0.1439 -0.9444
vn -0.6864 -0.7164 0.1251
vn 0.1777 -0.8659 -0.4676
vn 0.2004 -0.9797 -0.0000
vn -0.2004 -0.9797 -0.0000
vn -0.1777 -0.8659 -0.4676
vn 0.8659 -0.1777 -0.4676
vn 0.8659 0.1777 -0.4676
vn 0.9797 0.2004 -0.0000
vn 0.9797 -0.2004 -0.0000
vn -0.6194 -0.6194 -0.4823
vn -0.7071 -0.7071 -0.0000
vn -0.9797 -0.2004 -0.0000
vn -0.8659 -0.1777 -0.4676
vn -0.1777 0.8659 0.4676
vn -0.2004 0.9797 -0.0000
vn -0.7071 0.7071 -0.0000
vn -0.6194 0.6194 0.4823
vn 0.1777 -0.8659 0.4676
vn 0.7071 -0.7071 -0.0000
vn 0.6194 -0.6194 0.4823
vn 0.8659 -0.1777 0.4676
vn -0.9797 0.2004 -0.0000
vn -0.8659 0.1777 -0.4676
vn 0.8659 0.1777 0.4676
vn -0.8659 0.1777 0.4676
vn -0.8659 -0.1777 0.4676
vn -0.1777 -0.8659 0.4676
vn 0.1777 0.8659 -0.4676
vn 0.2004 0.9797 -0.0000
vn 0.7071 0.7071 -0.0000
vn 0.6194 0.6194 -0.4823
vn -0.1777 0.8659 -0.4676
vn -0.6194 -0.6194 0.4823
vn 0.1777 0.8659 0.4676
vn 0.6194 0.6194 0.4823
vn -0.6194 0.6194 -0.4823
vn 0.6194 -0.6194 -0.4823
vn -0.0000 -0.0000 -1.0000
vn -0.0000 -0.0000 1.0000
vn -0.4082 -0.4082 -0.8165
vn -0.7071 -0.0000 -0.7071
vn 0.7071 -0.0000 -0.7071
vn 0.4082 -0.4082 -0.8165
vn -1.0000 -0.0000 -0.0000
vn 0.4082 -0.4082 0.8165
vn 0.7071 -0.0000 0.7071
vn -0.0000 1.0000 -0.0000
vn -0.7071 -0.0000 0.7071
vn -0.4082 -0.4082 0.8165
vn -0.0000 0.9808 0.1949
vn -0.0000 -1.0000 -0.0000
vn -0.0000 -0.9808 0.1951
vn -0.0000 0.7072 0.7070
vn -0.0000 0.9807 0.1953
vn -0.0000 0.9808 0.1952
vn -0.0000 0.7070 0.7072
vn 1.0000 -0.0000 -0.0000
vn -0.9808 0.1951 -0.0000
vn 0.9808 0.1951 -0.0000
vn -0.0000 0.7071 -0.7071
vn -0.0000 0.7071 0.7071
vn -0.0000 -0.7071 0.7071
vn -0.0000 0.9808 0.1950
vn -0.0000 0.9808 0.1951
vt 0.607996 0.159260
vt 0.586158 0.158159
vt 0.586246 0.155093
vt 0.608297 0.156229
vt 0.607579 0.149092
vt 0.586150 0.148457
vt 0.586256 0.145453
vt 0.607655 0.146085
vt 0.608199 0.148169
vt 0.586147 0.149317
vt 0.586058 0.146253
vt 0.607899 0.145141
vt 0.607800 0.152286
vt 0.586395 0.152942
vt 0.586293 0.149939
vt 0.607727 0.149280
vt 0.585811 0.163099
vt 0.607773 0.164229
vt 0.607621 0.167314
vt 0.585572 0.166136
vt 0.585996 0.172939
vt 0.607818 0.173572
vt 0.607721 0.176585
vt 0.585912 0.175961
vt 0.585668 0.172174
vt 0.607707 0.170987
vt 0.607859 0.174067
vt 0.585903 0.175207
vt 0.585749 0.168488
vt 0.607556 0.167840
vt 0.607649 0.170854
vt 0.585831 0.171511
vt 0.607818 0.164242
vt 0.612002 0.164395
vt 0.611838 0.167491
vt 0.607550 0.167302
vt 0.607801 0.173488
vt 0.612054 0.173624
vt 0.611913 0.176619
vt 0.607822 0.176541
vt 0.607639 0.170981
vt 0.611888 0.170718
vt 0.612010 0.173808
vt 0.607810 0.174033
vt 0.607624 0.167832
vt 0.611785 0.167724
vt 0.611881 0.170723
vt 0.607658 0.170880
vt 0.611900 0.164429
vt 0.616117 0.164483
vt 0.616060 0.167559
vt 0.611789 0.167480
vt 0.611951 0.173520
vt 0.616171 0.173578
vt 0.616088 0.176600
vt 0.611997 0.176555
vt 0.611857 0.170706
vt 0.616085 0.170590
vt 0.616132 0.173662
vt 0.611923 0.173756
vt 0.611848 0.167705
vt 0.616050 0.167656
vt 0.616086 0.170674
vt 0.611868 0.170745
vt 0.616061 0.164490
vt 0.838586 0.164490
vt 0.838587 0.167558
vt 0.616060 0.167558
vt 0.616100 0.173567
vt 0.838547 0.173567
vt 0.838545 0.176593
vt 0.616102 0.176593
vt 0.616078 0.170589
vt 0.838569 0.170589
vt 0.838569 0.173652
vt 0.616078 0.173652
vt 0.616070 0.167653
vt 0.838577 0.167653
vt 0.838578 0.170678
vt 0.616069 0.170678
vt 0.838530 0.164483
vt 0.842748 0.164429
vt 0.842858 0.167480
vt 0.838587 0.167559
vt 0.838476 0.173578
vt 0.842696 0.173520
vt 0.842651 0.176555
vt 0.838559 0.176600
vt 0.838562 0.170590
vt 0.842790 0.170706
vt 0.842724 0.173756
vt 0.838515 0.173662
vt 0.838597 0.167656
vt 0.842799 0.167705
vt 0.842779 0.170745
vt 0.838561 0.170674
vt 0.842645 0.164395
vt 0.846829 0.164242
vt 0.847097 0.167302
vt 0.842809 0.167491
vt 0.842593 0.173624
vt 0.846846 0.173488
vt 0.846825 0.176541
vt 0.842734 0.176619
vt 0.842759 0.170718
vt 0.847008 0.170981
vt 0.846837 0.174033
vt 0.842637 0.173808
vt 0.842862 0.167724
vt 0.847023 0.167832
vt 0.846989 0.170880
vt 0.842766 0.170723
vt 0.846874 0.164229
vt 0.868837 0.163099
vt 0.869075 0.166136
vt 0.847027 0.167314
vt 0.846829 0.173571
vt 0.868651 0.172939
vt 0.868736 0.175961
vt 0.846926 0.176585
vt 0.846940 0.170987
vt 0.868979 0.172174
vt 0.868744 0.175207
vt 0.846788 0.174067
vt 0.847091 0.167840
vt 0.868898 0.168488
vt 0.868816 0.171510
vt 0.846998 0.170854
vt 0.872521 0.158158
vt 0.850683 0.159260
vt 0.850381 0.156229
vt 0.872432 0.155093
vt 0.872528 0.148457
vt 0.851099 0.149092
vt 0.851023 0.146085
vt 0.872422 0.145453
vt 0.872532 0.149317
vt 0.850479 0.148169
vt 0.850780 0.145141
vt 0.872620 0.146253
vt 0.872283 0.152942
vt 0.850878 0.152286
vt 0.850951 0.149280
vt 0.872385 0.149939
vt 0.850408 0.159245
vt 0.846411 0.159387
vt 0.845729 0.156399
vt 0.850761 0.156168
vt 0.851101 0.149284
vt 0.846844 0.149403
vt 0.847260 0.146426
vt 0.850482 0.146259
vt 0.851042 0.148224
vt 0.846249 0.147929
vt 0.846698 0.144933
vt 0.850835 0.145156
vt 0.850461 0.152049
vt 0.847098 0.151872
vt 0.846763 0.148888
vt 0.850955 0.149035
vt 0.846923 0.159264
vt 0.842926 0.159329
vt 0.842324 0.156273
vt 0.847393 0.156235
vt 0.846773 0.149574
vt 0.842478 0.149635
vt 0.843025 0.146587
vt 0.846160 0.146647
vt 0.847282 0.148056
vt 0.842460 0.147967
vt 0.842857 0.144922
vt 0.846988 0.145021
vt 0.846250 0.151587
vt 0.842990 0.151625
vt 0.842536 0.148585
vt 0.846753 0.148651
vt 0.843047 0.159299
vt 0.776884 0.159340
vt 0.776822 0.156301
vt 0.843109 0.156259
vt 0.842600 0.149621
vt 0.778018 0.149712
vt 0.778098 0.146733
vt 0.842525 0.146622
vt 0.843125 0.147983
vt 0.776805 0.147949
vt 0.776870 0.144912
vt 0.843060 0.144945
vt 0.842496 0.151579
vt 0.778154 0.151463
vt 0.778067 0.148485
vt 0.842578 0.148579
vt 0.778216 0.159439
vt 0.768463 0.159040
vt 0.768588 0.156025
vt 0.778341 0.156424
vt 0.776885 0.149657
vt 0.767295 0.149428
vt 0.767374 0.146411
vt 0.776964 0.146640
vt 0.778303 0.147840
vt 0.768550 0.148238
vt 0.768424 0.145226
vt 0.778177 0.144828
vt 0.777031 0.151602
vt 0.767441 0.151831
vt 0.767362 0.148814
vt 0.776952 0.148585
vt 0.767282 0.158970
vt 0.691396 0.158970
vt 0.691452 0.155931
vt 0.767227 0.155931
vt 0.768259 0.149538
vt 0.690420 0.149538
vt 0.690342 0.146548
vt 0.768337 0.146548
vt 0.767179 0.148319
vt 0.691499 0.148319
vt 0.691434 0.145282
vt 0.767244 0.145282
vt 0.768416 0.151646
vt 0.690262 0.151646
vt 0.690353 0.148657
vt 0.768326 0.148657
vt 0.690215 0.159040
vt 0.680462 0.159439
vt 0.680337 0.156424
vt 0.690090 0.156025
vt 0.691383 0.149428
vt 0.681793 0.149657
vt 0.681715 0.146640
vt 0.691305 0.146411
vt 0.690129 0.148238
vt 0.680376 0.147840
vt 0.680501 0.144828
vt 0.690254 0.145226
vt 0.691238 0.151831
vt 0.681647 0.151602
vt 0.681726 0.148585
vt 0.691316 0.148814
vt 0.681794 0.159340
vt 0.615631 0.159299
vt 0.615569 0.156259
vt 0.681857 0.156301
vt 0.680660 0.149712
vt 0.616078 0.149621
vt 0.616154 0.146622
vt 0.680580 0.146733
vt 0.681873 0.147949
vt 0.615553 0.147983
vt 0.615619 0.144945
vt 0.681808 0.144912
vt 0.680524 0.151463
vt 0.616182 0.151579
vt 0.616100 0.148579
vt 0.680612 0.148485
vt 0.615752 0.159329
vt 0.611755 0.159264
vt 0.611285 0.156235
vt 0.616354 0.156273
vt 0.616201 0.149635
vt 0.611905 0.149574
vt 0.612518 0.146647
vt 0.615653 0.146587
vt 0.616219 0.147967
vt 0.611397 0.148056
vt 0.611690 0.145021
vt 0.615821 0.144922
vt 0.615688 0.151625
vt 0.612429 0.151587
vt 0.611925 0.148651
vt 0.616143 0.148585
vt 0.612267 0.159387
vt 0.608270 0.159245
vt 0.607917 0.156168
vt 0.612949 0.156399
vt 0.611834 0.149403
vt 0.607577 0.149284
vt 0.608197 0.146259
vt 0.611418 0.146426
vt 0.612430 0.147929
vt 0.607636 0.148224
vt 0.607844 0.145156
vt 0.611980 0.144933
vt 0.611581 0.151872
vt 0.608217 0.152049
vt 0.607723 0.149035
vt 0.611915 0.148888
vt 0.403729 0.028158
vt 0.403729 0.036377
vt 0.003906 0.036377
vt 0.003906 0.028158
vt 0.424302 0.028158
vt 0.965121 0.028158
vt 0.965121 0.036377
vt 0.424302 0.036377
vt 0.985806 0.003906
vt 0.985806 0.012126
vt 0.975518 0.012126
vt 0.975518 0.003906
vt 0.414062 0.020334
vt 0.414062 0.012126
vt 0.424350 0.012126
vt 0.424350 0.020334
vt 0.996094 0.003906
vt 0.996094 0.012126
vt 0.403729 0.044590
vt 0.414016 0.036377
vt 0.414016 0.044590
vt 0.424302 0.044590
vt 0.434638 0.012126
vt 0.434638 0.003906
vt 0.965121 0.044590
vt 0.434638 0.020334
vt 0.975518 0.020334
vt 0.003906 0.044590
vt 0.014194 0.003906
vt 0.014194 0.012126
vt 0.003906 0.012126
vt 0.003906 0.003906
vt 0.975408 0.028158
vt 0.975408 0.036377
vt 0.414062 0.003906
vt 0.996094 0.020334
vt 0.985806 0.020334
vt 0.014194 0.020334
vt 0.003906 0.020334
vt 0.975408 0.044590
vt 0.424350 0.003906
vt 0.414016 0.028158
vt 0.015855 0.052413
vt 0.015855 0.474869
vt 0.003906 0.462921
vt 0.555233 0.482693
vt 0.567181 0.494642
vt 0.555233 0.905149
vt 0.811372 0.186113
vt 0.811372 0.249269
vt 0.806223 0.249269
vt 0.806223 0.189755
vt 0.589874 0.249269
vt 0.589874 0.186113
vt 0.595024 0.189755
vt 0.595024 0.249269
vt 0.849847 0.102452
vt 0.849847 0.090276
vt 0.853489 0.090276
vt 0.812722 0.053921
vt 0.812722 0.104901
vt 0.807572 0.104901
vt 0.807572 0.057563
vt 0.849847 0.086635
vt 0.596373 0.104901
vt 0.591223 0.104901
vt 0.591223 0.053922
vt 0.596373 0.057563
vt 0.822464 0.102631
vt 0.826106 0.102631
vt 0.822464 0.106272
vt 0.807572 0.128375
vt 0.716618 0.133211
vt 0.687327 0.133211
vt 0.807572 0.109737
vt 0.596373 0.109737
vt 0.596373 0.123716
vt 0.807572 0.123716
vt 0.596373 0.128375
vt 0.596373 0.119056
vt 0.807572 0.119056
vt 0.685977 0.249269
vt 0.685977 0.252910
vt 0.591382 0.252910
vt 0.715269 0.252910
vt 0.715269 0.249269
vt 0.809864 0.252910
vt 0.830942 0.102631
vt 0.830942 0.090454
vt 0.591382 0.184605
vt 0.809864 0.184605
vt 0.877753 0.059758
vt 0.877753 0.066829
vt 0.866543 0.066829
vt 0.866543 0.059758
vt 0.855334 0.066829
vt 0.855334 0.059758
vt 0.832915 0.066829
vt 0.832915 0.059758
vt 0.844125 0.059758
vt 0.844125 0.066829
vt 0.971286 0.052413
vt 0.967954 0.067059
vt 0.965729 0.061687
vt 0.928256 0.052413
vt 0.924924 0.067059
vt 0.922699 0.061687
vt 0.980896 0.052413
vt 0.980896 0.081705
vt 0.973309 0.081705
vt 0.973309 0.052413
vt 0.937866 0.052413
vt 0.937866 0.081705
vt 0.930279 0.081705
vt 0.930279 0.052413
vt 0.928256 0.081705
vt 0.816622 0.070576
vt 0.816622 0.056011
vt 0.821987 0.059758
vt 0.894046 0.056011
vt 0.894046 0.070576
vt 0.888681 0.066829
vt 0.971286 0.081705
vt 0.872970 0.074653
vt 0.872970 0.081725
vt 0.867155 0.081725
vt 0.867155 0.074653
vt 0.849712 0.074653
vt 0.849712 0.081725
vt 0.843898 0.081725
vt 0.843898 0.074653
vt 0.838083 0.074653
vt 0.838083 0.081725
vt 0.832269 0.081725
vt 0.832269 0.074653
vt 0.861341 0.081724
vt 0.861341 0.074653
vt 0.855527 0.081725
vt 0.855527 0.074653
vt 0.878784 0.074653
vt 0.878784 0.081725
vt 0.911956 0.072431
vt 0.917327 0.074656
vt 0.917327 0.081705
vt 0.906971 0.077415
vt 0.952760 0.067059
vt 0.954985 0.072431
vt 0.950001 0.077415
vt 0.945711 0.067059
vt 0.917327 0.059462
vt 0.911956 0.061687
vt 0.906971 0.056703
vt 0.917327 0.052413
vt 0.960357 0.081705
vt 0.960357 0.074656
vt 0.965729 0.072431
vt 0.960357 0.059462
vt 0.954985 0.061687
vt 0.950001 0.056703
vt 0.960357 0.052413
vt 0.922699 0.072431
vt 0.909731 0.067059
vt 0.902682 0.067059
vt 0.596373 0.114396
vt 0.807572 0.114396
vt 0.592732 0.052413
vt 0.811213 0.052413
vt 0.596373 0.136853
vt 0.807572 0.136853
vt 0.716618 0.136853
vt 0.687327 0.136853
vt 0.007406 0.055913
vt 0.003906 0.064362
vt 0.555233 0.052413
vt 0.563682 0.055913
vt 0.567181 0.064362
vt 0.567181 0.462921
vt 0.555233 0.474869
vt 0.563681 0.471370
vt 0.007406 0.471370
vt 0.003906 0.893201
vt 0.003906 0.494642
vt 0.015855 0.482693
vt 0.007406 0.486193
vt 0.015855 0.905149
vt 0.563682 0.486193
vt 0.567181 0.893201
vt 0.563682 0.901650
vt 0.007406 0.901650
vt 0.858324 0.090276
vt 0.858324 0.102452
vt 0.862629 0.092059
vt 0.862629 0.100669
vt 0.864412 0.096364
vt 0.822464 0.090454
vt 0.835247 0.092237
vt 0.837030 0.096542
vt 0.835247 0.100847
vt 0.821987 0.066829
vt 0.821987 0.068852
vt 0.816622 0.074217
vt 0.816622 0.052369
vt 0.821987 0.057734
vt 0.888681 0.059758
vt 0.888681 0.057734
vt 0.894046 0.052369
vt 0.894046 0.074217
vt 0.888681 0.068852
vt 0.490358 0.746354
vt 0.000000 0.746354
vt 0.000000 -0.000000
vt 0.490358 -0.000000
vt 1.000000 -0.000000
vt 1.000000 0.490358
vt 0.993572 0.490358
vt 0.993572 -0.000000
vt 0.987145 0.746354
vt 0.987145 -0.000000
vt 0.993572 -0.000000
vt 0.993572 0.746354
vt 1.000000 0.980717
vt 0.993572 0.980717
vt 0.993572 0.490358
vt 1.000000 0.490358
vt 0.980717 0.746354
vt 0.980717 -0.000000
vt 0.987144 -0.000000
vt 0.987144 0.746354
s 1
usemtl notepad
f 1/1/1 5/2/2 8/3/3 4/4/4
f 2/5/5 6/6/6 5/7/2 1/8/1
f 3/9/7 7/10/8 6/11/6 2/12/5
f 4/13/4 8/14/3 7/15/8 3/16/7
f 5/17/2 9/18/9 12/19/10 8/20/3
f 6/21/6 10/22/11 9/23/9 5/24/2
f 7/25/8 11/26/12 10/27/11 6/28/6
f 8/29/3 12/30/10 11/31/12 7/32/8
f 9/33/9 13/34/13 16/35/14 12/36/10
f 10/37/11 14/38/15 13/39/13 9/40/9
f 11/41/12 15/42/16 14/43/15 10/44/11
f 12/45/10 16/46/14 15/47/16 11/48/12
f 13/49/13 17/50/17 20/51/18 16/52/14
f 14/53/15 18/54/19 17/55/17 13/56/13
f 15/57/16 19/58/20 18/59/19 14/60/15
f 16/61/14 20/62/18 19/63/20 15/64/16
f 17/65/17 21/66/21 24/67/22 20/68/18
f 18/69/19 22/70/23 21/71/21 17/72/17
f 19/73/20 23/74/24 22/75/23 18/76/19
f 20/77/18 24/78/22 23/79/24 19/80/20
f 21/81/21 25/82/25 28/83/26 24/84/22
f 22/85/23 26/86/27 25/87/25 21/88/21
f 23/89/24 27/90/28 26/91/27 22/92/23
f 24/93/22 28/94/26 27/95/28 23/96/24
f 25/97/25 29/98/29 32/99/30 28/100/26
f 26/101/27 30/102/31 29/103/29 25/104/25
f 27/105/28 31/106/32 30/107/31 26/108/27
f 28/109/26 32/110/30 31/111/32 27/112/28
f 29/113/29 33/114/33 36/115/34 32/116/30
f 30/117/31 34/118/35 33/119/33 29/120/29
f 31/121/32 35/122/36 34/123/35 30/124/31
f 32/125/30 36/126/34 35/127/36 31/128/32
f 33/129/33 37/130/37 40/131/38 36/132/34
f 34/133/35 38/134/39 37/135/37 33/136/33
f 35/137/36 39/138/40 38/139/39 34/140/35
f 36/141/34 40/142/38 39/143/40 35/144/36
f 37/145/37 41/146/41 44/147/42 40/148/38
f 38/149/39 42/150/43 41/151/41 37/152/37
f 39/153/40 43/154/44 42/155/43 38/156/39
f 40/157/38 44/158/42 43/159/44 39/160/40
f 41/161/41 45/162/45 48/163/46 44/164/42
f 42/165/43 46/166/47 45/167/45 41/168/41
f 43/169/44 47/170/48 46/171/47 42/172/43
f 44/173/42 48/174/46 47/175/48 43/176/44
f 45/177/45 49/178/49 52/179/50 48/180/46
f 46/181/47 50/182/51 49/183/49 45/184/45
f 47/185/48 51/186/52 50/187/51 46/188/47
f 48/189/46 52/190/50 51/191/52 47/192/48
f 49/193/49 53/194/53 56/195/54 52/196/50
f 50/197/51 54/198/55 53/199/53 49/200/49
f 51/201/52 55/202/56 54/203/55 50/204/51
f 52/205/50 56/206/54 55/207/56 51/208/52
f 53/209/53 57/210/57 60/211/58 56/212/54
f 54/213/55 58/214/59 57/215/57 53/216/53
f 55/217/56 59/218/60 58/219/59 54/220/55
f 56/221/54 60/222/58 59/223/60 55/224/56
f 57/225/57 61/226/61 64/227/62 60/228/58
f 58/229/59 62/230/63 61/231/61 57/232/57
f 59/233/60 63/234/64 62/235/63 58/236/59
f 60/237/58 64/238/62 63/239/64 59/240/60
f 61/241/61 65/242/65 68/243/66 64/244/62
f 62/245/63 66/246/67 65/247/65 61/248/61
f 63/249/64 67/250/68 66/251/67 62/252/63
f 64/253/62 68/254/66 67/255/68 63/256/64
f 65/257/65 69/258/69 72/259/70 68/260/66
f 66/261/67 70/262/71 69/263/69 65/264/65
f 67/265/68 71/266/72 70/267/71 66/268/67
f 68/269/66 72/270/70 71/271/72 67/272/68
f 69/273/69 1/274/1 4/275/4 72/276/70
f 70/277/71 2/278/5 1/279/1 69/280/69
f 71/281/72 3/282/7 2/283/5 70/284/71
f 72/285/70 4/286/4 3/287/7 71/288/72
f 95/289/73 106/290/74 97/291/75 85/292/76
f 94/293/77 89/294/78 102/295/79 108/296/80
f 87/297/81 98/298/82 99/299/83 86/300/84
f 76/301/85 103/302/86 104/303/87 78/304/88
f 85/305/76 97/306/75 98/298/82 87/297/81
f 79/307/89 106/290/74 107/308/90 81/309/91
f 81/309/91 107/308/90 108/296/80 80/310/92
f 99/299/83 105/311/93 91/312/94 86/300/84
f 108/296/80 102/295/79 82/313/95 80/310/92
f 78/304/88 104/303/87 105/311/93 77/314/96
f 77/314/96 105/311/93 99/299/83 73/315/97
f 106/290/74 79/307/89 74/316/98 97/291/75
f 88/317/99 100/318/100 101/319/101 90/320/102
f 90/321/102 101/322/101 102/295/79 89/294/78
f 88/317/99 92/323/103 103/302/86 100/318/100
f 97/306/75 74/324/98 75/325/104 98/298/82
f 98/298/82 75/325/104 73/315/97 99/299/83
f 100/318/100 83/326/105 84/327/106 101/319/101
f 101/322/101 84/328/106 82/313/95 102/295/79
f 103/302/86 92/323/103 93/329/107 104/303/87
f 104/303/87 93/329/107 91/312/94 105/311/93
f 106/290/74 95/289/73 96/330/108 107/308/90
f 107/308/90 96/330/108 94/293/77 108/296/80
f 86/331/109 94/332/109 95/333/109
f 82/334/110 83/335/110 77/336/110
f 100/318/100 103/302/86 76/301/85 83/326/105
f 110/337/111 116/338/112 115/339/112 117/340/111
f 112/341/113 109/342/114 114/343/114 113/344/113
f 111/345/115 138/346/115 123/347/115
f 120/348/116 134/349/117 136/350/117 119/351/116
s 0
f 135/352/118 123/347/118 138/346/118
s 1
f 123/353/119 135/354/119 122/355/120 121/356/120
s 0
f 137/357/118 136/358/118 134/359/118
s 1
f 129/360/121 144/361/118 160/362/118
f 123/353/122 136/350/122 132/363/123 124/364/123
f 128/365/124 130/366/124 129/360/125 127/367/126
f 125/368/110 131/369/110 130/366/127 128/365/127
s 0
f 113/344/118 139/370/118 140/371/118 112/372/118
f 141/373/118 163/374/118 115/339/118 116/375/118
f 121/356/110 119/351/110 136/350/110 123/353/110
s 1
f 132/376/128 136/358/128 129/377/128
f 117/340/111 114/343/114 109/378/114 110/379/111
f 157/380/129 155/381/129 156/382/87 158/383/87
f 158/383/87 156/382/87 153/384/118 149/385/118
f 152/386/130 150/387/130 151/388/101 154/389/101
f 154/389/101 151/388/101 149/385/118 153/384/118
f 148/390/109 166/391/109 168/392/109
f 146/393/110 165/394/110 169/395/110
s 0
f 139/396/131 163/397/131 162/398/131 164/399/131
f 160/400/132 144/401/132 159/402/132 161/403/132
f 147/404/118 146/393/118 161/403/118 159/402/118
s 1
f 143/405/128 140/406/128 148/407/128
f 141/408/115 142/409/115 146/410/115
f 163/374/109 139/370/109 114/343/109
s 0
f 162/398/118 145/411/118 148/390/118 164/399/118
s 1
f 177/412/82 178/413/82 172/414/115 171/415/115
f 169/416/101 170/417/101 174/418/128 173/419/128
f 179/420/90 180/421/90 176/422/122 175/423/122
f 173/419/128 174/418/128 180/421/90 179/420/90
f 171/415/115 172/414/115 168/424/87 167/425/87
f 167/425/87 168/424/87 166/426/118 165/427/118
f 175/428/122 176/429/122 178/413/82 177/412/82
f 165/427/118 166/426/118 170/417/101 169/416/101
f 177/430/110 171/431/110 152/432/110 154/433/110
f 176/434/109 180/435/109 158/436/109 149/437/109
f 173/438/110 179/439/110 156/440/110 155/441/110
f 157/442/109 174/443/109 170/444/109 145/411/109
f 145/411/109 170/444/109 166/391/109
f 148/390/109 145/411/109 166/391/109
f 173/438/110 155/441/110 146/393/110 169/395/110
f 172/445/109 178/446/109 151/447/109 150/448/109
f 180/435/109 174/443/109 157/442/109 158/436/109
f 172/445/109 150/448/109 148/390/109 168/392/109
f 147/404/110 167/449/110 165/394/110
f 146/393/110 147/404/110 165/394/110
f 149/437/109 151/447/109 178/446/109 176/434/109
f 175/450/110 177/430/110 154/433/110 153/451/110
f 153/451/110 156/440/110 179/439/110 175/450/110
f 152/432/110 171/431/110 167/449/110 147/404/110
f 131/369/110 125/368/110 126/452/133 133/453/133
f 124/364/123 132/363/123 133/453/133 126/452/133
f 119/351/116 121/356/120 122/454/120 120/455/116
f 111/456/118 127/367/134 160/362/118
f 127/367/134 129/360/135 160/362/118
f 129/360/121 118/457/118 144/361/118
f 118/457/118 143/458/118 144/361/118
f 160/362/118 142/459/118 111/456/118
f 87/460/109 86/331/109 85/461/109
f 86/331/109 91/462/109 94/332/109
f 91/462/109 93/463/109 92/464/109
f 92/464/109 88/465/109 89/466/109
f 88/465/109 90/467/109 89/466/109
f 89/466/109 94/332/109 91/462/109
f 92/464/109 89/466/109 91/462/109
f 94/332/109 96/468/109 95/333/109
f 95/333/109 85/461/109 86/331/109
f 74/469/110 79/470/110 80/471/110
f 79/470/110 81/472/110 80/471/110
f 80/471/110 82/334/110 73/473/110
f 74/469/110 80/471/110 73/473/110
f 82/334/110 84/474/110 83/335/110
f 83/335/110 76/475/110 77/336/110
f 76/475/110 78/476/110 77/336/110
f 77/336/110 73/473/110 82/334/110
f 73/473/110 75/477/110 74/469/110
f 123/347/115 124/478/115 127/479/115
f 124/478/115 126/480/115 128/481/115
f 126/480/115 125/482/115 128/481/115
s 0
f 128/481/115 127/479/115 124/478/115
s 1
f 127/479/115 111/345/115 123/347/115
f 137/357/128 118/483/128 136/358/128
f 118/483/128 129/377/128 136/358/128
s 0
f 129/377/128 130/484/128 131/485/128
f 131/485/128 133/486/128 132/376/128
s 1
f 131/485/128 132/376/128 129/377/128
f 148/407/128 150/387/130 152/386/130
f 147/487/128 159/488/128 143/405/128
f 159/488/128 144/489/128 143/405/128
f 148/407/128 152/386/130 147/487/128
f 139/490/128 164/491/128 140/406/128
f 164/491/128 148/407/128 140/406/128
f 148/407/128 147/487/128 143/405/128
f 146/410/115 155/381/129 157/380/129
f 145/492/115 162/493/115 141/408/115
f 162/493/115 163/494/115 141/408/115
f 146/410/115 157/380/129 145/492/115
f 160/495/115 161/496/115 142/409/115
f 161/496/115 146/410/115 142/409/115
f 146/410/115 145/492/115 141/408/115
f 114/343/109 117/340/109 163/374/109
f 117/340/109 115/339/109 163/374/109
f 139/370/109 113/344/109 114/343/109
s 0
usemtl paper
f 186/497/110 188/498/110 187/499/110 185/500/110
f 182/501/118 184/502/118 188/503/118 186/504/118
f 181/505/128 182/506/128 186/507/128 185/508/128
f 181/509/122 185/510/122 187/511/122 183/512/122
f 184/513/115 183/514/115 187/515/115 188/516/115
