# Blender 4.5.10 LTS
# www.blender.org
mtllib beer.mtl
o beer
v 0.000000 1.649079 -0.047437
v -0.028034 1.649080 -0.035825
v -0.039646 1.649079 -0.007791
v -0.028034 1.649079 0.020243
v 0.000000 1.649079 0.031855
v 0.028034 1.649080 0.020243
v 0.039646 1.649079 -0.007791
v 0.028034 1.649079 -0.035825
v 0.000000 1.791310 -0.053316
v -0.022762 1.791310 -0.047216
v -0.039426 1.791310 -0.030553
v -0.045525 1.791310 -0.007791
v -0.039426 1.791310 0.014972
v -0.022762 1.791310 0.031635
v 0.000000 1.791310 0.037734
v 0.022762 1.791310 0.031635
v 0.039426 1.791310 0.014972
v 0.045525 1.791310 -0.007791
v 0.039426 1.791310 -0.030553
v 0.022762 1.791310 -0.047216
v 0.000000 1.808072 -0.060544
v -0.026377 1.808072 -0.053477
v -0.045686 1.808072 -0.034168
v -0.052753 1.808072 -0.007791
v -0.045686 1.808072 0.018586
v -0.026377 1.808072 0.037895
v 0.000000 1.808072 0.044962
v 0.026377 1.808072 0.037895
v 0.045686 1.808072 0.018586
v 0.052753 1.808072 -0.007791
v 0.045686 1.808072 -0.034168
v 0.026377 1.808072 -0.053477
v 0.000000 1.850421 -0.053779
v -0.022994 1.850421 -0.047618
v -0.039827 1.850421 -0.030785
v -0.045988 1.850421 -0.007791
v -0.039827 1.850421 0.015203
v -0.022994 1.850421 0.032036
v 0.000000 1.850421 0.038197
v 0.022994 1.850421 0.032036
v 0.039827 1.850421 0.015203
v 0.045988 1.850421 -0.007791
v 0.039827 1.850421 -0.030785
v 0.022994 1.850421 -0.047618
v -0.000000 1.583708 -0.111021
v -0.000000 1.551397 -0.120697
v -0.056453 1.551397 -0.105570
v -0.051615 1.583708 -0.097190
v -0.097779 1.551397 -0.064244
v -0.089400 1.583708 -0.059406
v -0.112906 1.551397 -0.007791
v -0.103230 1.583708 -0.007791
v -0.097779 1.551397 0.048662
v -0.089400 1.583708 0.043824
v -0.056453 1.551397 0.089989
v -0.051615 1.583708 0.081609
v -0.000000 1.551397 0.105115
v -0.000000 1.583708 0.095439
v 0.056453 1.551397 0.089989
v 0.051615 1.583708 0.081609
v 0.097779 1.551397 0.048662
v 0.089400 1.583708 0.043824
v 0.112906 1.551397 -0.007791
v 0.103230 1.583708 -0.007791
v 0.097779 1.551397 -0.064244
v 0.089400 1.583708 -0.059406
v 0.056453 1.551397 -0.105570
v 0.051615 1.583708 -0.097190
v 0.000000 1.681390 -0.053316
v -0.000000 1.649079 -0.061983
v -0.027096 1.649079 -0.054723
v -0.022762 1.681390 -0.047216
v -0.046932 1.649079 -0.034887
v -0.039426 1.681390 -0.030553
v -0.054192 1.649079 -0.007791
v -0.045525 1.681390 -0.007791
v -0.046932 1.649079 0.019305
v -0.039426 1.681390 0.014972
v -0.027096 1.649079 0.039141
v -0.022762 1.681390 0.031635
v -0.000000 1.649079 0.046401
v 0.000000 1.681390 0.037734
v 0.027096 1.649079 0.039141
v 0.022762 1.681390 0.031635
v 0.046932 1.649079 0.019305
v 0.039426 1.681390 0.014972
v 0.054192 1.649079 -0.007791
v 0.045525 1.681390 -0.007791
v 0.046932 1.649079 -0.034887
v 0.039426 1.681390 -0.030553
v 0.027096 1.649079 -0.054723
v 0.022762 1.681390 -0.047216
v -0.000000 0.986978 -0.120697
v -0.000000 0.978441 -0.111859
v -0.052034 0.978441 -0.097916
v -0.056453 0.986978 -0.105570
v -0.090125 0.978441 -0.059825
v -0.097779 0.986978 -0.064244
v -0.104068 0.978441 -0.007791
v -0.112906 0.986978 -0.007791
v -0.090125 0.978441 0.044243
v -0.097779 0.986978 0.048662
v -0.052034 0.978441 0.082335
v -0.056453 0.986978 0.089989
v 0.000000 0.978441 0.096277
v -0.000000 0.986978 0.105115
v 0.052034 0.978441 0.082335
v 0.056453 0.986978 0.089989
v 0.090125 0.978441 0.044243
v 0.097779 0.986978 0.048662
v 0.104068 0.978441 -0.007791
v 0.112906 0.986978 -0.007791
v 0.090125 0.978441 -0.059825
v 0.097779 0.986978 -0.064244
v 0.052034 0.978441 -0.097916
v 0.056453 0.986978 -0.105570
v -0.022994 1.857105 -0.047618
v 0.000000 1.857105 -0.053779
v -0.039827 1.857105 -0.030785
v -0.045988 1.857105 -0.007791
v -0.039827 1.857105 0.015203
v -0.022994 1.857105 0.032036
v 0.000000 1.857105 0.038197
v 0.022994 1.857105 0.032036
v 0.039827 1.857105 0.015203
v 0.045988 1.857105 -0.007791
v 0.039827 1.857105 -0.030785
v 0.022994 1.857105 -0.047618
v -0.028034 1.857105 -0.035825
v 0.000000 1.857105 -0.047437
v 0.039646 1.857105 -0.007791
v -0.039646 1.857105 -0.007791
v 0.000000 1.857106 0.031855
v 0.028034 1.857105 0.020243
v -0.028034 1.857106 0.020243
v 0.028034 1.857105 -0.035825
v -0.046323 1.850867 0.010599
v -0.039087 1.850867 0.023131
v 0.046323 1.850867 -0.026180
v 0.039087 1.850867 -0.038713
v 0.007236 1.850867 -0.057103
v -0.007236 1.850867 -0.057103
v 0.046323 1.850867 0.010599
v 0.039087 1.850867 0.023131
v -0.039087 1.850867 -0.038713
v -0.046323 1.850867 -0.026180
v -0.007236 1.850867 0.041521
v 0.007236 1.850867 0.041521
v 0.025625 1.850867 -0.052175
v -0.025625 1.850867 -0.052175
v -0.051250 1.850867 -0.007791
v -0.025625 1.850867 0.036593
v 0.025625 1.850867 0.036593
v 0.051250 1.850867 -0.007791
v -0.020423 1.871323 -0.043165
v -0.022967 1.867667 -0.047570
v -0.040846 1.871323 -0.007791
v -0.045934 1.867667 -0.007791
v -0.020423 1.871323 0.027583
v -0.022967 1.867667 0.031989
v 0.020423 1.871323 0.027583
v 0.022967 1.867667 0.031989
v 0.040846 1.871323 -0.007791
v 0.045934 1.867667 -0.007791
v 0.020423 1.871323 -0.043165
v 0.022967 1.867667 -0.047570
v 0.007500 1.871323 -0.046628
v 0.006906 1.867666 -0.051874
v -0.007500 1.871323 -0.046628
v -0.006906 1.867666 -0.051874
v -0.000000 1.871323 -0.041681
v -0.000000 1.868019 -0.047985
v -0.029884 1.871323 -0.033704
v -0.034724 1.867666 -0.035813
v -0.037384 1.871323 -0.020714
v -0.041630 1.867666 -0.023852
v -0.029349 1.871323 -0.024736
v -0.034809 1.868019 -0.027888
v -0.037384 1.871323 0.005132
v -0.041630 1.867666 0.008270
v -0.029884 1.871323 0.018123
v -0.034724 1.867666 0.020232
v -0.029349 1.871323 0.009154
v -0.034809 1.868019 0.012306
v -0.007500 1.871323 0.031046
v -0.006906 1.867666 0.036293
v 0.007500 1.871323 0.031046
v 0.006906 1.867666 0.036293
v 0.000000 1.871323 0.026099
v -0.000000 1.868019 0.032403
v 0.029884 1.871323 0.018123
v 0.034724 1.867666 0.020232
v 0.037384 1.871323 0.005132
v 0.041630 1.867666 0.008270
v 0.029349 1.871323 0.009154
v 0.034809 1.868019 0.012306
v 0.037384 1.871323 -0.020714
v 0.041630 1.867666 -0.023852
v 0.029884 1.871323 -0.033704
v 0.034724 1.867666 -0.035813
v 0.029349 1.871323 -0.024736
v 0.034809 1.868019 -0.027888
vn 0.5490 0.6303 0.5490
vn 0.7764 0.6303 -0.0000
vn 0.5490 0.6303 -0.5490
vn -0.8652 -0.0449 0.4995
vn -0.8659 0.0011 0.5003
vn -1.0000 0.0011 -0.0000
vn -0.9990 -0.0449 -0.0010
vn 0.4995 -0.0449 -0.8652
vn 0.4997 0.0011 -0.8662
vn 0.8660 0.0011 -0.5000
vn 0.8656 -0.0449 -0.4987
vn -0.4995 -0.0449 -0.8652
vn -0.5003 0.0011 -0.8659
vn -0.0000 0.0011 -1.0000
vn 0.0010 -0.0449 -0.9990
vn 0.8652 -0.0449 0.4995
vn 0.8662 0.0011 0.4997
vn 0.5000 0.0011 0.8660
vn 0.4987 -0.0449 0.8656
vn -0.4995 -0.0449 0.8652
vn -0.4997 0.0011 0.8662
vn -0.8652 -0.0449 -0.4995
vn -0.8662 0.0011 -0.4997
vn 0.9990 -0.0449 -0.0000
vn 1.0000 0.0011 -0.0003
vn -0.0000 -0.0449 0.9990
vn 0.0003 0.0011 1.0000
vn 0.4984 0.0802 0.8632
vn -0.0000 0.0802 0.9968
vn -0.8632 0.0802 0.4984
vn -0.9968 0.0802 -0.0000
vn 0.4984 0.0802 -0.8632
vn 0.8632 0.0802 -0.4984
vn -0.4984 0.0802 -0.8632
vn -0.0000 0.0802 -0.9968
vn 0.8632 0.0802 0.4984
vn -0.4984 0.0802 0.8632
vn -0.8632 0.0802 -0.4984
vn 0.9968 0.0802 -0.0000
vn 0.5000 -0.0000 0.8660
vn -0.0000 -0.0000 1.0000
vn -0.8660 -0.0000 0.5000
vn -1.0000 -0.0000 -0.0000
vn 0.5000 -0.0000 -0.8660
vn 0.8660 -0.0000 -0.5000
vn -0.5000 -0.0000 -0.8660
vn -0.0000 -0.0000 -1.0000
vn 0.8660 -0.0000 0.5000
vn -0.5000 -0.0000 0.8660
vn -0.8660 -0.0000 -0.5000
vn 1.0000 -0.0000 -0.0000
vn -0.4492 0.4392 -0.7780
vn -0.0000 0.4392 -0.8984
vn -0.0000 0.1417 -0.9899
vn -0.4950 0.1417 -0.8573
vn -0.7780 0.4392 -0.4492
vn -0.8573 0.1417 -0.4950
vn -0.8984 0.4392 -0.0000
vn -0.9899 0.1417 -0.0000
vn -0.7780 0.4392 0.4492
vn -0.8573 0.1417 0.4950
vn -0.4492 0.4392 0.7780
vn -0.4950 0.1417 0.8573
vn -0.0000 0.4392 0.8984
vn -0.0000 0.1417 0.9899
vn 0.4492 0.4392 0.7780
vn 0.4950 0.1417 0.8573
vn 0.7780 0.4392 0.4492
vn 0.8573 0.1417 0.4950
vn 0.8984 0.4392 -0.0000
vn 0.9899 0.1417 -0.0000
vn 0.7780 0.4392 -0.4492
vn 0.8573 0.1417 -0.4950
vn 0.4492 0.4392 -0.7780
vn 0.4950 0.1417 -0.8573
vn -0.4955 0.1335 -0.8583
vn -0.0000 0.1335 -0.9910
vn -0.0000 0.4503 -0.8929
vn -0.4464 0.4503 -0.7732
vn -0.8583 0.1335 -0.4955
vn -0.7732 0.4503 -0.4464
vn -0.9910 0.1335 -0.0000
vn -0.8929 0.4503 -0.0000
vn -0.8583 0.1335 0.4955
vn -0.7732 0.4503 0.4464
vn -0.4955 0.1335 0.8583
vn -0.4464 0.4503 0.7732
vn -0.0000 0.1335 0.9910
vn -0.0000 0.4503 0.8929
vn 0.4955 0.1335 0.8583
vn 0.4464 0.4503 0.7732
vn 0.8583 0.1335 0.4955
vn 0.7732 0.4503 0.4464
vn 0.9910 0.1335 -0.0000
vn 0.8929 0.4503 -0.0000
vn 0.8583 0.1335 -0.4955
vn 0.7732 0.4503 -0.4464
vn 0.4955 0.1335 -0.8583
vn 0.4464 0.4503 -0.7732
vn -0.4999 -0.0153 -0.8659
vn -0.0000 -0.0153 -0.9999
vn -0.0000 -0.9996 -0.0281
vn -0.0141 -0.9996 -0.0243
vn -0.8659 -0.0153 -0.4999
vn -0.0243 -0.9996 -0.0140
vn -0.9999 -0.0153 -0.0000
vn -0.0281 -0.9996 0.0002
vn -0.8659 -0.0153 0.4999
vn -0.0245 -0.9996 0.0138
vn -0.4999 -0.0153 0.8659
vn -0.0140 -0.9996 0.0244
vn -0.0000 -0.0153 0.9999
vn 0.0002 -0.9996 0.0281
vn 0.4999 -0.0153 0.8659
vn 0.0137 -0.9996 0.0246
vn 0.8659 -0.0153 0.4999
vn 0.0243 -0.9996 0.0140
vn 0.9999 -0.0153 -0.0000
vn 0.0281 -0.9996 -0.0000
vn 0.8659 -0.0153 -0.4999
vn 0.0244 -0.9996 -0.0139
vn 0.4999 -0.0153 -0.8659
vn 0.0140 -0.9996 -0.0244
vn -0.0000 1.0000 -0.0000
vn -0.7071 -0.0000 0.7071
vn -0.5490 0.6303 0.5490
vn -0.7764 0.6303 -0.0000
vn 0.7071 -0.0000 -0.7071
vn 0.7071 -0.0000 0.7071
vn -0.0000 0.6303 0.7764
vn -0.5490 0.6303 -0.5490
vn -0.7071 -0.0000 -0.7071
vn -0.0000 0.6302 -0.7764
vn -0.0000 -1.0000 -0.0000
vn -0.0145 0.9999 0.0082
vn -0.0093 0.9999 0.0057
vn -0.7282 0.5412 0.4205
vn -0.7147 0.4667 0.5210
vn -0.0144 0.9999 0.0084
vn -0.8085 0.4667 0.3584
vn 0.0095 0.9999 -0.0054
vn 0.0144 0.9999 -0.0084
vn 0.8085 0.4667 -0.3584
vn 0.7282 0.5412 -0.4205
vn 0.0145 0.9999 -0.0082
vn 0.7147 0.4667 -0.5210
vn -0.0000 0.9999 -0.0109
vn -0.0001 0.9999 -0.0167
vn 0.0939 0.4667 -0.8794
vn -0.0000 0.5412 -0.8409
vn 0.0001 0.9999 -0.0167
vn -0.0939 0.4667 -0.8794
vn 0.0144 0.9999 0.0084
vn 0.0094 0.9999 0.0056
vn 0.7282 0.5412 0.4205
vn 0.8085 0.4667 0.3584
vn 0.0145 0.9999 0.0082
vn 0.7146 0.4667 0.5210
vn -0.0144 0.9999 -0.0084
vn -0.0094 0.9999 -0.0056
vn -0.7282 0.5412 -0.4205
vn -0.8085 0.4667 -0.3584
vn -0.0145 0.9999 -0.0082
vn -0.7146 0.4667 -0.5210
vn -0.0001 0.9999 0.0167
vn -0.0000 0.9999 0.0109
vn -0.0000 0.5412 0.8409
vn 0.0939 0.4667 0.8794
vn 0.0001 0.9999 0.0167
vn -0.0939 0.4667 0.8794
vn -0.4503 0.4353 -0.7796
vn -0.0112 0.9998 -0.0193
vn -0.9003 0.4353 -0.0000
vn -0.0223 0.9998 -0.0000
vn -0.4501 0.4353 0.7797
vn -0.0111 0.9998 0.0193
vn 0.4502 0.4353 0.7797
vn 0.0112 0.9998 0.0193
vn 0.9003 0.4353 -0.0001
vn 0.0223 0.9998 -0.0000
vn 0.4501 0.4353 -0.7797
vn 0.0111 0.9998 -0.0193
vn -0.4767 0.3017 -0.8257
vn -0.7707 0.3683 -0.5200
vn -0.0650 0.3683 -0.9274
vn -0.9534 0.3017 -0.0000
vn -0.8357 0.3683 0.4074
vn -0.8357 0.3683 -0.4074
vn -0.4767 0.3017 0.8257
vn -0.0650 0.3683 0.9274
vn -0.7707 0.3683 0.5200
vn 0.4767 0.3017 0.8257
vn 0.7707 0.3683 0.5200
vn 0.0650 0.3683 0.9274
vn 0.9534 0.3017 -0.0000
vn 0.8357 0.3683 -0.4074
vn 0.8357 0.3683 0.4074
vn 0.7707 0.3683 -0.5200
vn 0.4767 0.3017 -0.8257
vn 0.0650 0.3683 -0.9274
vt 0.084159 0.756881
vt 0.084159 0.790123
vt 0.060653 0.813628
vt 0.311455 0.918921
vt 0.311962 0.939689
vt 0.282362 0.940792
vt 0.281864 0.920429
vt 0.519425 0.923960
vt 0.519398 0.943086
vt 0.489550 0.941865
vt 0.489860 0.922010
vt 0.222699 0.924090
vt 0.222606 0.943327
vt 0.192305 0.944328
vt 0.192305 0.924680
vt 0.430659 0.918744
vt 0.430292 0.939535
vt 0.400710 0.938896
vt 0.400876 0.917873
vt 0.341190 0.917959
vt 0.341536 0.938972
vt 0.549406 0.925454
vt 0.549406 0.943268
vt 0.252361 0.922304
vt 0.252633 0.942112
vt 0.460317 0.920168
vt 0.459884 0.940570
vt 0.371024 0.917606
vt 0.371121 0.938704
vt 0.400680 0.988354
vt 0.371291 0.988328
vt 0.312385 0.988479
vt 0.282730 0.988639
vt 0.519234 0.988966
vt 0.489311 0.988781
vt 0.222697 0.988968
vt 0.192305 0.988894
vt 0.430102 0.988446
vt 0.341881 0.988371
vt 0.549406 0.989195
vt 0.252842 0.988820
vt 0.459621 0.988596
vt 0.400679 0.996094
vt 0.371295 0.996094
vt 0.312393 0.996094
vt 0.282735 0.996094
vt 0.519229 0.996094
vt 0.489305 0.996094
vt 0.222672 0.996094
vt 0.192305 0.996094
vt 0.430098 0.996094
vt 0.341887 0.996094
vt 0.549406 0.996094
vt 0.252840 0.996094
vt 0.459615 0.996094
vt 0.099800 0.693706
vt 0.053515 0.710381
vt 0.003906 0.671506
vt 0.070501 0.660726
vt 0.152928 0.683088
vt 0.133363 0.650253
vt 0.207286 0.675120
vt 0.194018 0.641753
vt 0.261665 0.669464
vt 0.253322 0.635595
vt 0.315864 0.666061
vt 0.311847 0.631867
vt 0.369983 0.664867
vt 0.370038 0.630582
vt 0.424221 0.665888
vt 0.428285 0.631757
vt 0.478781 0.669196
vt 0.486971 0.635424
vt 0.533776 0.674920
vt 0.546516 0.641604
vt 0.588955 0.683228
vt 0.607460 0.650211
vt 0.642685 0.694592
vt 0.670656 0.660818
vt 0.687323 0.711657
vt 0.737894 0.671873
vt 0.214206 0.808396
vt 0.192305 0.819141
vt 0.157564 0.791916
vt 0.182353 0.775340
vt 0.240574 0.800788
vt 0.214808 0.764847
vt 0.270386 0.795611
vt 0.251556 0.758183
vt 0.302593 0.792309
vt 0.290535 0.754135
vt 0.336274 0.790521
vt 0.330596 0.752023
vt 0.370633 0.790053
vt 0.371055 0.751507
vt 0.404949 0.790840
vt 0.411416 0.752466
vt 0.438504 0.792931
vt 0.451200 0.754961
vt 0.470537 0.796499
vt 0.489787 0.759262
vt 0.500209 0.801865
vt 0.526171 0.766020
vt 0.526674 0.809526
vt 0.558444 0.776651
vt 0.549406 0.820156
vt 0.582685 0.793976
vt 0.064368 0.017730
vt 0.003906 0.018018
vt 0.003906 0.003906
vt 0.064418 0.003906
vt 0.125303 0.017402
vt 0.125346 0.003906
vt 0.186607 0.017130
vt 0.186650 0.003906
vt 0.248174 0.016938
vt 0.248218 0.003906
vt 0.309897 0.016831
vt 0.309943 0.003906
vt 0.371675 0.016809
vt 0.371723 0.003906
vt 0.433407 0.016872
vt 0.433456 0.003906
vt 0.494992 0.017022
vt 0.495041 0.003906
vt 0.556324 0.017260
vt 0.556374 0.003906
vt 0.617301 0.017577
vt 0.617350 0.003906
vt 0.677833 0.017918
vt 0.677877 0.003906
vt 0.737894 0.018017
vt 0.737894 0.003906
vt 0.862506 0.505928
vt 0.763774 0.448925
vt 0.862506 0.277916
vt 0.838457 0.715470
vt 0.838829 0.682230
vt 0.848538 0.692384
vt 0.748500 0.037148
vt 0.976392 0.037148
vt 0.976392 0.070390
vt 0.748500 0.070390
vt 0.748500 0.170115
vt 0.976392 0.170115
vt 0.976392 0.203356
vt 0.748500 0.203356
vt 0.768300 0.658090
vt 0.782349 0.658090
vt 0.758581 0.681331
vt 0.748500 0.236598
vt 0.976392 0.236598
vt 0.976392 0.269840
vt 0.748500 0.269840
vt 0.976392 0.103631
vt 0.748500 0.103631
vt 0.976392 0.136873
vt 0.748500 0.136873
vt 0.748500 0.003906
vt 0.976392 0.003906
vt 0.844845 0.718200
vt 0.828739 0.738710
vt 0.804535 0.748419
vt 0.814689 0.738710
vt 0.778719 0.744726
vt 0.781450 0.738338
vt 0.818319 0.652074
vt 0.838829 0.668181
vt 0.815588 0.658463
vt 0.792503 0.648381
vt 0.752193 0.678601
vt 0.758209 0.728620
vt 0.748500 0.704416
vt 0.758209 0.714571
vt 0.060653 0.733376
vt 0.027412 0.813628
vt 0.003906 0.790123
vt 0.003906 0.756881
vt 0.027412 0.733376
vt 0.919509 0.293190
vt 0.961238 0.448925
vt 0.961238 0.334919
vt 0.976512 0.391922
vt 0.919509 0.490654
vt 0.805503 0.490654
vt 0.748500 0.391922
vt 0.763774 0.334919
vt 0.805503 0.293189
vt 0.906234 0.676137
vt 0.886088 0.641243
vt 0.919963 0.582570
vt 0.776979 0.587744
vt 0.785437 0.592568
vt 0.777697 0.596806
vt 0.771239 0.591353
vt 0.785234 0.601945
vt 0.779709 0.605085
vt 0.848914 0.555919
vt 0.849117 0.546543
vt 0.854642 0.543403
vt 0.856654 0.551682
vt 0.857373 0.560744
vt 0.863113 0.557135
vt 0.848914 0.592568
vt 0.857136 0.588056
vt 0.862618 0.591270
vt 0.856454 0.597152
vt 0.848965 0.602306
vt 0.854961 0.605472
vt 0.825583 0.532682
vt 0.817176 0.537595
vt 0.817376 0.528773
vt 0.825328 0.525906
vt 0.809157 0.532731
vt 0.809200 0.526376
vt 0.808768 0.615806
vt 0.817176 0.610893
vt 0.816976 0.619715
vt 0.809024 0.622582
vt 0.825194 0.615757
vt 0.825152 0.622112
vt 0.785386 0.546182
vt 0.785437 0.555919
vt 0.777897 0.551335
vt 0.779390 0.543015
vt 0.777216 0.560432
vt 0.771734 0.557217
vt 0.842080 0.617702
vt 0.838846 0.611989
vt 0.791991 0.617541
vt 0.795322 0.611884
vt 0.767088 0.574082
vt 0.773652 0.574138
vt 0.792272 0.530786
vt 0.795506 0.536498
vt 0.842360 0.530947
vt 0.839029 0.536604
vt 0.867263 0.574405
vt 0.860699 0.574349
vt 0.851673 0.633627
vt 0.826994 0.641315
vt 0.870152 0.615855
vt 0.782996 0.633811
vt 0.764000 0.616281
vt 0.807627 0.640929
vt 0.748500 0.574426
vt 0.754182 0.549211
vt 0.754651 0.599317
vt 0.782679 0.514860
vt 0.807358 0.507173
vt 0.764199 0.532632
vt 0.851355 0.514677
vt 0.870351 0.532206
vt 0.826724 0.507559
vt 0.879700 0.549171
vt 0.885852 0.574061
vt 0.880169 0.599276
vt 0.994129 0.625390
vt 0.960254 0.684063
vt 0.973984 0.590497
vt 0.940109 0.577172
vt 0.940109 0.689461
vt 0.919963 0.684063
vt 0.891486 0.661389
vt 0.886088 0.625390
vt 0.906234 0.590497
vt 0.891486 0.605244
vt 0.988731 0.661389
vt 0.973984 0.676137
vt 0.994129 0.641243
vt 0.960254 0.582570
vt 0.988731 0.605244
s 1
usemtl beer
f 2/1/1 3/2/2 4/3/3
f 13/4/4 25/5/5 24/6/6 12/7/7
f 20/8/8 32/9/9 31/10/10 19/11/11
f 10/12/12 22/13/13 21/14/14 9/15/15
f 17/16/16 29/17/17 28/18/18 16/19/19
f 14/20/20 26/21/21 25/5/5 13/4/4
f 9/22/15 21/23/14 32/9/9 20/8/8
f 11/24/22 23/25/23 22/13/13 10/12/12
f 18/26/24 30/27/25 29/17/17 17/16/16
f 15/28/26 27/29/27 26/21/21 14/20/20
f 12/7/7 24/6/6 23/25/23 11/24/22
f 19/11/11 31/10/10 30/27/25 18/26/24
f 16/19/19 28/18/18 27/29/27 15/28/26
f 28/18/18 40/30/28 39/31/29 27/29/27
f 25/5/5 37/32/30 36/33/31 24/6/6
f 32/9/9 44/34/32 43/35/33 31/10/10
f 22/13/13 34/36/34 33/37/35 21/14/14
f 29/17/17 41/38/36 40/30/28 28/18/18
f 26/21/21 38/39/37 37/32/30 25/5/5
f 21/23/14 33/40/35 44/34/32 32/9/9
f 23/25/23 35/41/38 34/36/34 22/13/13
f 30/27/25 42/42/39 41/38/36 29/17/17
f 27/29/27 39/31/29 38/39/37 26/21/21
f 24/6/6 36/33/31 35/41/38 23/25/23
f 31/10/10 43/35/33 42/42/39 30/27/25
f 40/30/28 124/43/40 123/44/41 39/31/29
f 37/32/30 121/45/42 120/46/43 36/33/31
f 44/34/32 128/47/44 127/48/45 43/35/33
f 34/36/34 117/49/46 118/50/47 33/37/35
f 41/38/36 125/51/48 124/43/40 40/30/28
f 38/39/37 122/52/49 121/45/42 37/32/30
f 33/40/35 118/53/47 128/47/44 44/34/32
f 35/41/38 119/54/50 117/49/46 34/36/34
f 42/42/39 126/55/51 125/51/48 41/38/36
f 39/31/29 123/44/41 122/52/49 38/39/37
f 36/33/31 120/46/43 119/54/50 35/41/38
f 43/35/33 127/48/45 126/55/51 42/42/39
f 48/56/52 45/57/53 46/58/54 47/59/55
f 50/60/56 48/56/52 47/59/55 49/61/57
f 52/62/58 50/60/56 49/61/57 51/63/59
f 54/64/60 52/62/58 51/63/59 53/65/61
f 56/66/62 54/64/60 53/65/61 55/67/63
f 58/68/64 56/66/62 55/67/63 57/69/65
f 60/70/66 58/68/64 57/69/65 59/71/67
f 62/72/68 60/70/66 59/71/67 61/73/69
f 64/74/70 62/72/68 61/73/69 63/75/71
f 66/76/72 64/74/70 63/75/71 65/77/73
f 68/78/74 66/76/72 65/77/73 67/79/75
f 45/80/53 68/78/74 67/79/75 46/81/54
f 72/82/76 69/83/77 70/84/78 71/85/79
f 74/86/80 72/82/76 71/85/79 73/87/81
f 76/88/82 74/86/80 73/87/81 75/89/83
f 78/90/84 76/88/82 75/89/83 77/91/85
f 80/92/86 78/90/84 77/91/85 79/93/87
f 82/94/88 80/92/86 79/93/87 81/95/89
f 84/96/90 82/94/88 81/95/89 83/97/91
f 86/98/92 84/96/90 83/97/91 85/99/93
f 88/100/94 86/98/92 85/99/93 87/101/95
f 90/102/96 88/100/94 87/101/95 89/103/97
f 92/104/98 90/102/96 89/103/97 91/105/99
f 69/106/77 92/104/98 91/105/99 70/107/78
f 48/56/52 71/85/79 70/84/78 45/57/53
f 45/80/53 70/107/78 91/105/99 68/78/74
f 50/60/56 73/87/81 71/85/79 48/56/52
f 52/62/58 75/89/83 73/87/81 50/60/56
f 54/64/60 77/91/85 75/89/83 52/62/58
f 56/66/62 79/93/87 77/91/85 54/64/60
f 58/68/64 81/95/89 79/93/87 56/66/62
f 60/70/66 83/97/91 81/95/89 58/68/64
f 62/72/68 85/99/93 83/97/91 60/70/66
f 64/74/70 87/101/95 85/99/93 62/72/68
f 66/76/72 89/103/97 87/101/95 64/74/70
f 68/78/74 91/105/99 89/103/97 66/76/72
f 72/82/76 10/12/12 9/15/15 69/83/77
f 69/106/77 9/22/15 20/8/8 92/104/98
f 74/86/80 11/24/22 10/12/12 72/82/76
f 76/88/82 12/7/7 11/24/22 74/86/80
f 78/90/84 13/4/4 12/7/7 76/88/82
f 80/92/86 14/20/20 13/4/4 78/90/84
f 82/94/88 15/28/26 14/20/20 80/92/86
f 84/96/90 16/19/19 15/28/26 82/94/88
f 86/98/92 17/16/16 16/19/19 84/96/90
f 88/100/94 18/26/24 17/16/16 86/98/92
f 90/102/96 19/11/11 18/26/24 88/100/94
f 92/104/98 20/8/8 19/11/11 90/102/96
f 96/108/100 93/109/101 94/110/102 95/111/103
f 98/112/104 96/108/100 95/111/103 97/113/105
f 100/114/106 98/112/104 97/113/105 99/115/107
f 102/116/108 100/114/106 99/115/107 101/117/109
f 104/118/110 102/116/108 101/117/109 103/119/111
f 106/120/112 104/118/110 103/119/111 105/121/113
f 108/122/114 106/120/112 105/121/113 107/123/115
f 110/124/116 108/122/114 107/123/115 109/125/117
f 112/126/118 110/124/116 109/125/117 111/127/119
f 114/128/120 112/126/118 111/127/119 113/129/121
f 116/130/122 114/128/120 113/129/121 115/131/123
f 93/132/101 116/130/122 115/131/123 94/133/102
f 96/108/100 47/59/55 46/58/54 93/109/101
f 109/134/117 105/135/113 97/136/105
f 93/132/101 46/81/54 67/79/75 116/130/122
f 98/112/104 49/61/57 47/59/55 96/108/100
f 100/114/106 51/63/59 49/61/57 98/112/104
f 102/116/108 53/65/61 51/63/59 100/114/106
f 104/118/110 55/67/63 53/65/61 102/116/108
f 106/120/112 57/69/65 55/67/63 104/118/110
f 108/122/114 59/71/67 57/69/65 106/120/112
f 110/124/116 61/73/69 59/71/67 108/122/114
f 112/126/118 63/75/71 61/73/69 110/124/116
f 114/128/120 65/77/73 63/75/71 112/126/118
f 116/130/122 67/79/75 65/77/73 114/128/120
f 130/137/124 136/138/124 128/139/124
f 136/140/125 8/141/126 7/142/127 131/143/43
f 135/144/128 4/145/3 3/146/2 132/147/51
f 124/148/124 134/149/124 133/150/124
f 129/151/129 2/152/1 1/153/130 130/154/41
f 132/147/51 3/146/2 2/152/1 129/151/129
f 131/143/43 7/142/127 6/155/131 134/156/132
f 134/156/132 6/155/131 5/157/133 133/158/47
f 130/159/41 1/160/130 8/141/126 136/140/125
f 133/158/47 5/157/133 4/145/3 135/144/128
f 128/139/124 118/161/124 130/137/124
f 118/161/124 117/162/124 130/137/124
f 117/162/124 119/163/124 129/164/124
f 119/163/124 120/165/124 132/166/124
f 129/164/124 119/163/124 132/166/124
f 126/167/124 127/168/124 131/169/124
f 127/168/124 128/139/124 136/138/124
f 136/138/124 131/169/124 127/168/124
f 117/162/124 129/164/124 130/137/124
f 125/170/124 126/167/124 131/169/124
f 125/170/124 131/169/124 134/149/124
f 123/171/124 124/148/124 133/150/124
f 124/148/124 125/170/124 134/149/124
f 121/172/124 122/173/124 135/174/124
f 122/173/124 123/171/124 133/150/124
f 135/174/124 122/173/124 133/150/124
f 132/166/124 120/165/124 121/172/124
f 135/174/124 132/166/124 121/172/124
f 1/175/130 5/176/133 6/177/131
f 5/176/133 1/175/130 4/3/3
f 1/175/130 2/1/1 4/3/3
f 7/178/127 8/179/126 6/177/131
f 8/179/126 1/175/130 6/177/131
f 97/136/105 95/180/103 113/181/121
f 95/180/103 94/182/102 113/181/121
f 94/182/102 115/183/123 113/181/121
f 113/181/121 111/184/119 109/134/117
f 109/134/117 107/185/115 105/135/113
f 105/135/113 103/186/111 101/187/109
f 101/187/109 99/188/107 105/135/113
f 99/188/107 97/136/105 105/135/113
f 113/181/121 109/134/117 97/136/105
f 145/189/134 142/190/134 139/191/134
f 181/192/135 183/193/136 184/194/137 182/195/138
f 183/193/136 179/196/139 180/197/140 184/194/137
f 201/198/141 197/199/142 198/200/143 202/201/144
f 199/202/145 201/198/141 202/201/144 200/203/146
f 171/204/147 167/205/148 168/206/149 172/207/150
f 169/208/151 171/204/147 172/207/150 170/209/152
f 193/210/153 195/211/154 196/212/155 194/213/156
f 195/211/154 191/214/157 192/215/158 196/212/155
f 175/216/159 177/217/160 178/218/161 176/219/162
f 177/217/160 173/220/163 174/221/164 178/218/161
f 187/222/165 189/223/166 190/224/167 188/225/168
f 189/223/166 185/226/169 186/227/170 190/224/167
f 170/209/152 156/228/171 155/229/172 169/208/151
f 156/228/171 174/221/164 173/220/163 155/229/172
f 176/219/162 158/230/173 157/231/174 175/216/159
f 158/230/173 180/197/140 179/196/139 157/231/174
f 182/195/138 160/232/175 159/233/176 181/192/135
f 160/232/175 186/227/170 185/226/169 159/233/176
f 188/225/168 162/234/177 161/235/178 187/222/165
f 162/234/177 192/215/158 191/214/157 161/235/178
f 194/213/156 164/236/179 163/237/180 193/210/153
f 164/236/179 198/200/143 197/199/142 163/237/180
f 200/203/146 166/238/181 165/239/182 199/202/145
f 166/238/181 168/206/149 167/205/148 165/239/182
f 174/221/164 156/228/171 150/240/183 145/241/184
f 156/228/171 170/209/152 142/242/185 150/240/183
f 177/217/160 189/223/166 195/211/154
f 180/197/140 158/230/173 151/243/186 137/244/187
f 158/230/173 176/219/162 146/245/188 151/243/186
f 186/227/170 160/232/175 152/246/189 147/247/190
f 160/232/175 182/195/138 138/248/191 152/246/189
f 192/215/158 162/234/177 153/249/192 144/250/193
f 162/234/177 188/225/168 148/251/194 153/249/192
f 198/200/143 164/236/179 154/252/195 139/253/196
f 164/236/179 194/213/156 143/254/197 154/252/195
f 166/238/181 200/203/146 140/255/198 149/256/199
f 168/206/149 166/238/181 149/256/199 141/257/200
f 168/206/149 141/257/200 172/207/150
f 170/209/152 172/207/150 142/242/185
f 172/207/150 141/257/200 142/242/185
f 145/241/184 178/218/161 174/221/164
f 146/245/188 176/219/162 178/218/161
f 145/241/184 146/245/188 178/218/161
f 137/244/187 184/194/137 180/197/140
f 138/248/191 182/195/138 184/194/137
f 137/244/187 138/248/191 184/194/137
f 147/247/190 190/224/167 186/227/170
f 148/251/194 188/225/168 190/224/167
f 147/247/190 148/251/194 190/224/167
f 144/250/193 196/212/155 192/215/158
f 143/254/197 194/213/156 196/212/155
f 144/250/193 143/254/197 196/212/155
f 198/200/143 139/253/196 202/201/144
f 200/203/146 202/201/144 140/255/198
f 202/201/144 139/253/196 140/255/198
f 148/258/134 137/259/134 144/260/134
f 139/191/134 154/261/134 151/262/134
f 151/262/134 146/263/134 139/191/134
f 146/263/134 145/189/134 139/191/134
f 145/189/134 150/264/134 142/190/134
f 142/190/134 141/265/134 140/266/134
f 141/265/134 149/267/134 140/266/134
f 140/266/134 139/191/134 142/190/134
f 152/268/134 138/269/134 147/270/134
f 138/269/134 137/259/134 147/270/134
f 137/259/134 151/262/134 154/261/134
f 154/261/134 143/271/134 137/259/134
f 143/271/134 144/260/134 137/259/134
f 144/260/134 153/272/134 148/258/134
f 148/258/134 147/270/134 137/259/134
f 169/208/151 155/229/172 171/204/147
f 155/229/172 173/220/163 177/217/160
f 177/217/160 175/216/159 157/231/174
f 155/229/172 177/217/160 171/204/147
f 165/239/182 167/205/148 171/204/147
f 177/217/160 157/231/174 183/193/136
f 157/231/174 179/196/139 183/193/136
f 183/193/136 181/192/135 159/233/176
f 165/239/182 171/204/147 201/198/141
f 171/204/147 177/217/160 201/198/141
f 201/198/141 199/202/145 165/239/182
f 163/237/180 197/199/142 201/198/141
f 195/211/154 193/210/153 163/237/180
f 161/235/178 191/214/157 195/211/154
f 189/223/166 187/222/165 161/235/178
f 159/233/176 185/226/169 189/223/166
f 177/217/160 183/193/136 189/223/166
f 183/193/136 159/233/176 189/223/166
f 195/211/154 163/237/180 201/198/141
f 189/223/166 161/235/178 195/211/154
f 195/211/154 201/198/141 177/217/160
