# Blender 4.5.10 LTS
# www.blender.org
mtllib bottle.mtl
o bottle
v 0.000000 1.509834 -0.136228
v -0.068114 1.509834 -0.117977
v -0.117977 1.509834 -0.068114
v -0.136228 1.509834 -0.000000
v -0.117977 1.509834 0.068114
v -0.068114 1.509834 0.117977
v 0.000000 1.509834 0.136228
v 0.068114 1.509834 0.117977
v 0.117977 1.509834 0.068114
v 0.136228 1.509834 -0.000000
v 0.117977 1.509834 -0.068114
v 0.068114 1.509834 -0.117977
v 0.000000 1.554374 -0.136228
v -0.068114 1.554374 -0.117977
v -0.117977 1.554374 -0.068114
v -0.136228 1.554374 -0.000000
v -0.117977 1.554374 0.068114
v -0.068114 1.554374 0.117977
v 0.000000 1.554374 0.136228
v 0.068114 1.554374 0.117977
v 0.117977 1.554374 0.068114
v 0.136228 1.554374 -0.000000
v 0.117977 1.554374 -0.068114
v 0.068114 1.554374 -0.117977
v -0.072854 1.516910 -0.126187
v -0.000000 1.516910 -0.145708
v -0.126187 1.516910 -0.072854
v -0.145708 1.516910 -0.000000
v -0.126187 1.516910 0.072854
v -0.072854 1.516910 0.126186
v -0.000000 1.516910 0.145708
v 0.072854 1.516910 0.126186
v 0.126187 1.516910 0.072854
v 0.145708 1.516910 -0.000000
v 0.126187 1.516910 -0.072854
v 0.072854 1.516910 -0.126187
v -0.072854 1.547298 -0.126187
v -0.000000 1.547298 -0.145708
v -0.126187 1.547298 -0.072854
v -0.145708 1.547298 -0.000000
v -0.126187 1.547298 0.072854
v -0.072854 1.547298 0.126186
v -0.000000 1.547298 0.145708
v 0.072854 1.547298 0.126186
v 0.126187 1.547298 0.072854
v 0.145708 1.547298 -0.000000
v 0.126187 1.547298 -0.072854
v 0.072854 1.547298 -0.126187
v -0.000000 1.667531 -0.130901
v -0.065450 1.667531 -0.113363
v -0.113363 1.667531 -0.065450
v -0.130900 1.667531 -0.000000
v -0.113363 1.667531 0.065450
v -0.065450 1.667531 0.113363
v -0.000000 1.667531 0.130900
v 0.065450 1.667531 0.113363
v 0.113363 1.667531 0.065450
v 0.130900 1.667531 -0.000000
v 0.113363 1.667531 -0.065450
v 0.065450 1.667531 -0.113363
v -0.000000 1.759861 -0.102103
v -0.051051 1.759861 -0.088424
v -0.088424 1.759861 -0.051051
v -0.102103 1.759861 -0.000000
v -0.088424 1.759861 0.051051
v -0.051051 1.759861 0.088423
v -0.000000 1.759861 0.102103
v 0.051051 1.759861 0.088423
v 0.088424 1.759861 0.051051
v 0.102103 1.759861 -0.000000
v 0.088424 1.759861 -0.051051
v 0.051051 1.759861 -0.088424
v -0.000000 1.838111 -0.046182
v -0.023091 1.838111 -0.039995
v -0.039995 1.838111 -0.023091
v -0.046182 1.838111 -0.000000
v -0.039995 1.838111 0.023091
v -0.023091 1.838111 0.039994
v -0.000000 1.838111 0.046182
v 0.023091 1.838111 0.039994
v 0.039995 1.838111 0.023091
v 0.046182 1.838111 -0.000000
v 0.039995 1.838111 -0.023091
v 0.023091 1.838111 -0.039995
v 0.000000 1.913971 -0.046182
v -0.023091 1.913971 -0.039995
v -0.039995 1.913971 -0.023091
v -0.046182 1.913971 -0.000000
v -0.039995 1.913971 0.023091
v -0.023091 1.913971 0.039994
v -0.000000 1.913971 0.046182
v 0.023091 1.913971 0.039994
v 0.039995 1.913971 0.023091
v 0.046182 1.913971 -0.000000
v 0.039995 1.913971 -0.023091
v 0.023091 1.913971 -0.039995
v -0.117977 1.083512 0.068114
v 0.117977 1.083512 0.068114
v -0.117977 1.083512 -0.068114
v 0.000000 1.083512 0.136228
v 0.117977 1.083512 -0.068114
v 0.000000 1.083512 -0.136228
v 0.040570 1.083512 0.125357
v 0.088277 1.083512 0.097813
v 0.068114 1.083512 0.117977
v 0.088277 1.083512 -0.097813
v 0.040570 1.083512 -0.125357
v 0.068114 1.083512 -0.117977
v -0.040570 1.083512 -0.125357
v -0.088277 1.083512 -0.097813
v -0.068114 1.083512 -0.117977
v -0.088277 1.083512 0.097813
v -0.040570 1.083512 0.125357
v -0.068114 1.083512 0.117977
v 0.128847 1.083512 0.027544
v 0.128847 1.083512 -0.027544
v 0.136228 1.083512 -0.000000
v -0.128847 1.083512 -0.027544
v -0.128847 1.083512 0.027544
v -0.136228 1.083512 -0.000000
v -0.030763 0.984015 0.108370
v -0.000000 0.984015 0.116612
v 0.109232 0.984015 -0.027544
v 0.100989 0.984015 -0.058306
v 0.100989 0.984015 0.058306
v 0.000003 1.014645 0.000044
v -0.078469 0.984015 0.080826
v 0.109232 0.984015 0.027544
v 0.078469 0.984015 0.080826
v 0.030763 0.984015 0.108370
v -0.100989 0.984015 0.058306
v -0.109232 0.984015 0.027544
v 0.078469 0.984015 -0.080826
v 0.030763 0.984015 -0.108370
v -0.000000 0.984015 -0.116612
v -0.030763 0.984015 -0.108370
v -0.078469 0.984015 -0.080826
v -0.100989 0.984015 -0.058306
v -0.109232 0.984015 -0.027544
v -0.065824 0.984015 0.067929
v -0.091745 0.984015 0.023033
v -0.091835 0.984015 -0.023067
v -0.065824 0.984015 -0.067940
v -0.025920 0.984015 -0.090979
v 0.025922 0.984015 -0.090979
v 0.065826 0.984015 -0.067940
v 0.091822 0.984015 -0.023141
v 0.091822 0.984015 0.023129
v 0.065826 0.984015 0.067929
v 0.025856 0.984015 0.091130
v -0.025960 0.984015 0.091109
v 0.082631 0.997811 0.020784
v 0.082631 0.997811 -0.020811
v 0.023264 0.997811 0.082046
v 0.059074 0.997811 0.061111
v -0.059069 0.997811 0.061111
v -0.023480 0.997811 0.082002
v -0.023397 0.997811 -0.081733
v -0.059069 0.997811 -0.061137
v -0.082469 0.997811 0.020582
v -0.082658 0.997811 -0.020657
v 0.059074 0.997811 -0.061137
v 0.023401 0.997811 -0.081733
v 0.038254 1.009645 0.011595
v 0.038905 1.009644 -0.009081
v 0.009120 1.009645 0.038947
v 0.027351 1.009645 0.029174
v -0.029134 1.009642 0.027393
v -0.011555 1.009644 0.038295
v -0.009122 1.009641 -0.038866
v -0.027354 1.009640 -0.029092
v -0.038907 1.009641 0.009162
v -0.038256 1.009640 -0.011513
v 0.029132 1.009643 -0.027312
v 0.011553 1.009642 -0.038214
v -0.026888 1.864091 0.046571
v -0.026888 1.872838 0.046571
v -0.000000 1.872838 0.053776
v -0.000000 1.864091 0.053776
v -0.046571 1.864091 -0.026888
v -0.046571 1.872838 -0.026888
v -0.053776 1.872838 -0.000000
v -0.053776 1.864091 -0.000000
v 0.053776 1.864091 -0.000000
v 0.053776 1.872838 -0.000000
v 0.046571 1.872838 -0.026888
v 0.046571 1.864091 -0.026888
v 0.023091 1.872838 0.039994
v 0.023091 1.864091 0.039994
v -0.000000 1.864091 0.046182
v -0.000000 1.872838 0.046182
v -0.039995 1.872838 0.023091
v -0.039995 1.864091 0.023091
v -0.046182 1.864091 -0.000000
v -0.046182 1.872838 -0.000000
v 0.023091 1.872838 -0.039995
v 0.023091 1.864091 -0.039995
v 0.039995 1.864091 -0.023091
v 0.039995 1.872838 -0.023091
v -0.023091 1.872838 -0.039995
v -0.023091 1.864091 -0.039995
v -0.000000 1.864091 -0.046182
v 0.000000 1.872838 -0.046182
v 0.039995 1.872838 0.023091
v 0.039995 1.864091 0.023091
v -0.023091 1.872838 0.039994
v -0.023091 1.864091 0.039994
v -0.039995 1.872838 -0.023091
v -0.039995 1.864091 -0.023091
v 0.046182 1.872838 -0.000000
v 0.046182 1.864091 -0.000000
v 0.046571 1.872838 0.026888
v 0.046571 1.864091 0.026888
v -0.026888 1.872838 -0.046572
v -0.026888 1.864091 -0.046572
v -0.000000 1.864091 -0.053776
v -0.000000 1.872838 -0.053776
v 0.026888 1.872838 -0.046572
v 0.026888 1.864091 -0.046572
v -0.046571 1.872838 0.026888
v -0.046571 1.864091 0.026888
v 0.026888 1.872838 0.046571
v 0.026888 1.864091 0.046571
v -0.000000 1.913971 -0.039143
v -0.019571 1.913971 -0.033899
v -0.033899 1.913971 -0.019572
v -0.039143 1.913971 -0.000000
v -0.033899 1.913971 0.019571
v -0.019571 1.913971 0.033898
v -0.000000 1.913971 0.039143
v 0.019571 1.913971 0.033898
v 0.033899 1.913971 0.019571
v 0.039143 1.913971 -0.000000
v 0.033899 1.913971 -0.019572
v 0.019571 1.913971 -0.033899
v -0.000000 1.838111 -0.039143
v -0.019571 1.838111 -0.033899
v -0.033899 1.838111 -0.019572
v -0.039143 1.838111 -0.000000
v -0.033899 1.838111 0.019571
v -0.019571 1.838111 0.033898
v -0.000000 1.838111 0.039143
v 0.019571 1.838111 0.033898
v 0.033899 1.838111 0.019571
v 0.039143 1.838111 -0.000000
v 0.033899 1.838111 -0.019572
v 0.019571 1.838111 -0.033899
v -0.000000 1.667531 -0.121271
v -0.105024 1.401569 -0.060636
v -0.105024 1.667531 -0.060636
v -0.000000 1.401569 0.121271
v -0.105024 1.667531 0.060636
v 0.105024 1.401569 -0.060636
v -0.000000 1.667531 0.121271
v 0.105024 1.667531 0.060636
v 0.105024 1.667531 -0.060636
v -0.000000 1.782177 -0.081454
v -0.000000 1.401569 -0.121271
v -0.070541 1.782177 -0.040727
v -0.105024 1.401569 0.060636
v -0.070541 1.782177 0.040727
v 0.105024 1.401569 0.060636
v -0.000000 1.782177 0.081453
v 0.070541 1.782177 0.040727
v 0.070541 1.782177 -0.040727
v 0.039995 1.902688 0.023091
v 0.043088 1.907630 0.011545
v 0.043088 1.909172 0.011545
v 0.023091 1.903545 0.039994
v -0.000000 1.904402 0.046182
v -0.023091 1.905259 0.039994
v -0.039995 1.906116 0.023091
v -0.046182 1.906973 -0.000000
v -0.039995 1.907830 -0.023091
v -0.023091 1.908687 -0.039995
v 0.000000 1.909544 -0.046182
v 0.023091 1.910400 -0.039995
v 0.039995 1.910134 -0.023091
v 0.046182 1.909867 -0.000000
v 0.031543 1.879179 0.031543
v 0.023091 1.880731 0.039994
v -0.000000 1.882712 0.046182
v -0.023091 1.884692 0.039994
v -0.039995 1.885549 0.023091
v -0.046182 1.886406 -0.000000
v -0.039995 1.887263 -0.023091
v -0.023091 1.888120 -0.039995
v 0.000000 1.888977 -0.046182
v 0.023091 1.889834 -0.039995
v 0.039995 1.890691 -0.023091
v 0.046182 1.891548 -0.000000
v 0.039995 1.892405 0.023091
v 0.023091 1.893262 0.039994
v -0.000000 1.894119 0.046182
v -0.023091 1.894976 0.039994
v -0.039995 1.895833 0.023091
v -0.046182 1.896689 -0.000000
v -0.039995 1.897546 -0.023091
v -0.023091 1.898403 -0.039995
v 0.000000 1.899260 -0.046182
v 0.023091 1.900117 -0.039995
v 0.039995 1.900974 -0.023091
v 0.046182 1.901831 -0.000000
v 0.039995 1.884121 0.023091
v 0.023091 1.884978 0.039994
v -0.000000 1.885835 0.046182
v -0.023091 1.886692 0.039994
v -0.039995 1.887549 0.023091
v -0.046182 1.888406 -0.000000
v -0.039995 1.889263 -0.023091
v -0.023091 1.890120 -0.039995
v 0.000000 1.890976 -0.046182
v 0.023091 1.891833 -0.039995
v 0.039995 1.892690 -0.023091
v 0.046182 1.893547 -0.000000
v 0.039995 1.894404 0.023091
v 0.023091 1.895261 0.039994
v -0.000000 1.896118 0.046182
v -0.023091 1.896975 0.039994
v -0.039995 1.897832 0.023091
v -0.046182 1.898689 -0.000000
v -0.039995 1.899546 -0.023091
v -0.023091 1.900403 -0.039995
v 0.000000 1.901260 -0.046182
v 0.023091 1.902117 -0.039995
v 0.039995 1.904097 -0.023091
v 0.046182 1.906078 -0.000000
v 0.023861 1.879608 0.041328
v -0.000000 1.880465 0.049260
v -0.025400 1.881322 0.043994
v -0.043994 1.882179 0.025400
v -0.050800 1.883036 -0.000000
v -0.043994 1.883893 -0.025400
v -0.025400 1.884749 -0.043994
v 0.000000 1.885606 -0.050800
v 0.025400 1.886463 -0.043994
v 0.043994 1.887320 -0.025400
v 0.050800 1.888177 -0.000000
v 0.043994 1.889034 0.025400
v 0.025400 1.889891 0.043994
v -0.000000 1.890748 0.050800
v -0.025400 1.891605 0.043994
v -0.043994 1.892462 0.025400
v -0.050800 1.893319 -0.000000
v -0.043994 1.894176 -0.025400
v -0.025400 1.895033 -0.043994
v -0.000000 1.895890 -0.050800
v 0.025400 1.896747 -0.043994
v 0.043994 1.897604 -0.025400
v 0.050800 1.898460 -0.000000
v 0.043994 1.899317 0.025400
v 0.025400 1.900174 0.043994
v -0.000000 1.901031 0.050800
v -0.025400 1.901888 0.043994
v -0.043994 1.902745 0.025400
v -0.050800 1.903602 -0.000000
v -0.043994 1.904459 -0.025400
v -0.025400 1.905316 -0.043994
v 0.000000 1.906173 -0.050800
v 0.025400 1.907030 -0.043994
v 0.042661 1.907887 -0.024630
v 0.047721 1.908744 -0.000000
v 0.031543 1.877637 0.031543
v 0.023861 1.878065 0.041328
v -0.000000 1.878922 0.049260
v -0.025400 1.879779 0.043994
v -0.043994 1.880636 0.025400
v -0.050800 1.881493 -0.000000
v -0.043994 1.882350 -0.025400
v -0.025400 1.883207 -0.043994
v 0.000000 1.884064 -0.050800
v 0.025400 1.884921 -0.043994
v 0.043994 1.885778 -0.025400
v 0.050800 1.886635 -0.000000
v 0.043994 1.887492 0.025400
v 0.025400 1.888349 0.043994
v -0.000000 1.889205 0.050800
v -0.025400 1.890062 0.043994
v -0.043994 1.890919 0.025400
v -0.050800 1.891776 -0.000000
v -0.043994 1.892633 -0.025400
v -0.025400 1.893490 -0.043994
v -0.000000 1.894347 -0.050800
v 0.025400 1.895204 -0.043994
v 0.043994 1.896061 -0.025400
v 0.050800 1.896918 -0.000000
v 0.043994 1.897775 0.025400
v 0.025400 1.898632 0.043994
v -0.000000 1.899489 0.050800
v -0.025400 1.900346 0.043994
v -0.043994 1.901203 0.025400
v -0.050800 1.902060 -0.000000
v -0.043994 1.902916 -0.025400
v -0.025400 1.903773 -0.043994
v 0.000000 1.904630 -0.050800
v 0.025400 1.905487 -0.043994
v 0.042661 1.906344 -0.024630
v 0.047721 1.907201 -0.000000
v 0.023091 1.876942 0.039994
v -0.000000 1.876675 0.046182
v -0.023091 1.876409 0.039994
v -0.039995 1.877265 0.023091
v -0.046182 1.878122 -0.000000
v -0.039995 1.878979 -0.023091
v -0.023091 1.879836 -0.039995
v 0.000000 1.880693 -0.046182
v 0.023091 1.881550 -0.039995
v 0.039995 1.882407 -0.023091
v 0.046182 1.883264 -0.000000
v 0.000000 1.872838 -0.052396
v -0.026198 1.872838 -0.045376
v -0.045376 1.872838 -0.026198
v -0.052396 1.872838 -0.000000
v -0.045376 1.872838 0.026198
v -0.026198 1.872838 0.045376
v -0.000000 1.872838 0.052395
v 0.026198 1.872838 0.045376
v 0.045376 1.872838 0.026198
v 0.052396 1.872838 -0.000000
v 0.045376 1.872838 -0.026198
v 0.026198 1.872838 -0.045376
v 0.000000 1.918393 -0.047882
v 0.000000 1.913971 -0.052396
v -0.026198 1.913971 -0.045376
v -0.023941 1.918393 -0.041467
v -0.045376 1.913971 -0.026198
v -0.041467 1.918393 -0.023941
v -0.052396 1.913971 -0.000000
v -0.047882 1.918393 -0.000000
v -0.045376 1.913971 0.026198
v -0.041467 1.918393 0.023941
v -0.026198 1.913971 0.045376
v -0.023941 1.918393 0.041467
v -0.000000 1.913971 0.052395
v -0.000000 1.918393 0.047882
v 0.026198 1.913971 0.045376
v 0.023941 1.918393 0.041467
v 0.045376 1.913971 0.026198
v 0.041467 1.918393 0.023941
v 0.052396 1.913971 -0.000000
v 0.047882 1.918393 -0.000000
v 0.045376 1.913971 -0.026198
v 0.041467 1.918393 -0.023941
v 0.026198 1.913971 -0.045376
v 0.023941 1.918393 -0.041467
v 0.000000 1.872838 -0.046268
v -0.023134 1.872838 -0.040069
v -0.040069 1.872838 -0.023134
v -0.046267 1.872838 -0.000000
v -0.040069 1.872838 0.023134
v -0.023134 1.872838 0.040069
v -0.000000 1.872838 0.046267
v 0.023134 1.872838 0.040069
v 0.040069 1.872838 0.023134
v 0.046267 1.872838 -0.000000
v 0.040069 1.872838 -0.023134
v 0.023134 1.872838 -0.040069
v 0.000000 1.913971 -0.046268
v -0.023134 1.913971 -0.040069
v -0.040069 1.913971 -0.023134
v -0.046267 1.913971 -0.000000
v -0.040069 1.913971 0.023134
v -0.023134 1.913971 0.040069
v -0.000000 1.913971 0.046267
v 0.023134 1.913971 0.040069
v 0.040069 1.913971 0.023134
v 0.046267 1.913971 -0.000000
v 0.040069 1.913971 -0.023134
v 0.023134 1.913971 -0.040069
vn -0.0001 -0.0226 -0.9997
vn -0.0000 -0.0957 -0.9954
vn -0.2583 -0.0612 -0.9641
vn 0.8658 -0.0226 -0.4998
vn 0.8621 -0.0957 -0.4977
vn 0.7058 -0.0612 -0.7058
vn 0.8660 -0.0226 0.4995
vn 0.8621 -0.0957 0.4977
vn 0.9641 -0.0612 0.2583
vn 0.4998 -0.0227 0.8659
vn 0.5000 -0.0000 0.8660
vn 0.7058 -0.0613 0.7058
vn 0.0001 -0.0226 0.9997
vn -0.0000 -0.0957 0.9954
vn 0.2583 -0.0612 0.9641
vn -0.8658 -0.0226 0.4998
vn -0.8621 -0.0957 0.4977
vn -0.7058 -0.0612 0.7058
vn 0.4999 -0.0227 -0.8658
vn 0.5000 -0.0000 -0.8660
vn 0.2583 -0.0613 -0.9641
vn -0.4998 -0.0227 -0.8658
vn -0.5000 -0.0000 -0.8660
vn -0.7058 -0.0613 -0.7058
vn -0.4999 -0.0227 0.8658
vn -0.5000 -0.0000 0.8660
vn -0.2583 -0.0613 0.9641
vn 0.9997 -0.0227 -0.0000
vn 1.0000 -0.0000 -0.0000
vn 0.9641 -0.0613 -0.2583
vn -0.0000 0.1263 -0.9920
vn 0.4960 0.1263 -0.8591
vn 0.4854 0.2394 -0.8408
vn -0.0001 0.2394 -0.9709
vn -0.0000 -0.2394 0.9709
vn -0.4855 -0.2394 0.8408
vn -0.8591 0.1263 0.4960
vn -0.9920 0.1263 -0.0000
vn -0.9709 0.2394 -0.0000
vn -0.8409 0.2394 0.4854
vn 0.8591 0.1263 -0.4960
vn 0.8408 0.2394 -0.4855
vn -0.8409 -0.2394 0.4853
vn -0.8591 0.1263 -0.4960
vn -0.8408 0.2394 -0.4854
vn -0.0000 -0.2394 -0.9709
vn 0.4855 -0.2394 -0.8408
vn 0.9920 0.1263 -0.0000
vn 0.9709 0.2394 -0.0000
vn -0.9997 -0.0227 -0.0000
vn -0.9709 -0.2394 -0.0000
vn -0.4960 0.1263 -0.8591
vn -0.4855 0.2394 -0.8408
vn 0.8409 -0.2394 -0.4853
vn 0.8591 0.1263 0.4960
vn 0.8408 0.2394 0.4854
vn -0.0000 0.1263 0.9920
vn -0.0000 0.1703 0.9854
vn -0.4927 0.1703 0.8534
vn -0.4960 0.1263 0.8591
vn -0.9854 0.1703 -0.0000
vn -0.8534 0.1703 -0.4927
vn 0.8534 0.1703 -0.4927
vn 0.9854 0.1703 -0.0000
vn 0.4960 0.1263 0.8591
vn 0.4927 0.1703 0.8534
vn -0.8534 0.1703 0.4927
vn 0.4927 0.1703 -0.8534
vn 0.8534 0.1703 0.4927
vn -0.0000 0.1703 -0.9854
vn -0.4927 0.1703 -0.8534
vn -0.4855 0.2394 0.8408
vn -0.8408 -0.2394 -0.4855
vn -0.4855 -0.2394 -0.8408
vn 0.9709 -0.2394 -0.0000
vn 0.8408 -0.2394 0.4854
vn -0.0000 0.2394 0.9709
vn 0.4855 -0.2394 0.8408
vn 0.4854 0.2394 0.8408
vn -0.8658 -0.0226 -0.4999
vn -0.7797 0.4351 0.4502
vn -0.9004 0.4351 -0.0000
vn 0.4502 0.4351 -0.7797
vn 0.7797 0.4351 -0.4502
vn -0.4502 0.4351 -0.7797
vn -0.0000 0.4351 -0.9004
vn 0.7797 0.4351 0.4502
vn 0.4502 0.4351 0.7797
vn -0.4502 0.4351 0.7797
vn -0.7797 0.4351 -0.4502
vn 0.9004 0.4351 -0.0000
vn -0.0000 0.4351 0.9004
vn -0.8202 0.3210 0.4735
vn -0.9471 0.3210 -0.0000
vn 0.4735 0.3210 -0.8202
vn 0.8202 0.3210 -0.4735
vn -0.4735 0.3210 -0.8202
vn -0.0000 0.3210 -0.9471
vn 0.8202 0.3210 0.4735
vn 0.4735 0.3210 0.8202
vn -0.4735 0.3210 0.8202
vn -0.8202 0.3210 -0.4735
vn 0.9471 0.3210 -0.0000
vn -0.0000 0.3210 0.9471
vn -0.0000 -1.0000 -0.0000
vn -0.0000 1.0000 -0.0000
vn 0.8660 -0.0000 -0.5000
vn -0.0000 -0.0000 -1.0000
vn -0.8660 -0.0000 0.5000
vn -1.0000 -0.0000 -0.0000
vn -0.9641 -0.0613 0.2583
vn -0.4588 -0.5242 -0.7174
vn -0.6212 -0.4776 -0.6212
vn -0.4341 -0.4963 -0.7518
vn -0.8509 -0.5237 0.0420
vn -0.8486 -0.4777 0.2274
vn -0.8685 -0.4957 0.0006
vn -0.9572 -0.0420 -0.2863
vn 0.7267 -0.0420 0.6857
vn -0.2311 -0.0421 -0.9720
vn 0.7263 -0.0421 -0.6861
vn 0.9572 -0.0420 0.2863
vn 0.2253 -0.0407 0.9734
vn 0.2261 -0.0410 -0.9732
vn -0.7267 -0.0419 0.6856
vn 0.9552 -0.0404 -0.2932
vn 0.3919 -0.5242 -0.7561
vn 0.2274 -0.4776 -0.8487
vn 0.4340 -0.4963 -0.7519
vn -0.8621 -0.0957 -0.4977
vn -0.9641 -0.0612 -0.2583
vn 0.2543 -0.1871 -0.9489
vn -0.0000 -0.1934 -0.9811
vn 0.9489 -0.1871 -0.2543
vn 0.8497 -0.1934 -0.4906
vn -0.6946 -0.1871 -0.6946
vn -0.8497 -0.1934 -0.4906
vn -0.8497 -0.1934 0.4906
vn -0.6946 -0.1871 0.6946
vn -0.7058 -0.0613 0.7058
vn -0.9489 -0.1871 0.2543
vn 0.4623 -0.5236 0.7156
vn 0.6212 -0.4777 0.6212
vn 0.4350 -0.4954 0.7519
vn 0.8514 -0.5231 -0.0388
vn 0.8495 -0.4760 -0.2276
vn 0.8690 -0.4949 -0.0001
vn -0.7263 -0.0421 -0.6861
vn -0.3967 -0.5232 0.7543
vn -0.2277 -0.4753 0.8498
vn -0.4349 -0.4953 0.7520
vn -0.2542 -0.1871 0.9489
vn -0.0000 -0.1934 0.9811
vn 0.8497 -0.1934 0.4906
vn 0.9489 -0.1871 0.2543
vn 0.9641 -0.0613 0.2583
vn -0.9572 -0.0420 0.2864
vn 0.6946 -0.1871 0.6946
vn 0.6946 -0.1871 -0.6946
vn 0.7058 -0.0613 -0.7058
vn 0.2542 -0.1871 0.9489
vn 0.2583 -0.0613 0.9641
vn -0.9489 -0.1871 -0.2543
vn -0.9641 -0.0613 -0.2583
vn -0.2543 -0.1871 -0.9489
vn -0.2583 -0.0613 -0.9641
vn -0.2302 -0.0419 0.9722
vn 0.7191 -0.5573 -0.4152
vn 0.4623 -0.8599 -0.2165
vn 0.4197 -0.8598 -0.2908
vn 0.0443 -0.8584 -0.5111
vn -0.0420 -0.8578 -0.5122
vn 0.0006 -0.5504 -0.8349
vn -0.4183 -0.8596 -0.2936
vn -0.4626 -0.8588 -0.2202
vn -0.7192 -0.5546 -0.4186
vn -0.4632 -0.8588 0.2190
vn -0.4193 -0.8594 0.2927
vn -0.7193 -0.5543 0.4187
vn -0.0437 -0.8597 0.5089
vn 0.0423 -0.8596 0.5093
vn -0.0000 -0.5567 0.8307
vn 0.4184 -0.8595 0.2935
vn 0.4626 -0.8590 0.2196
vn 0.7193 -0.5549 0.4180
vn -0.1915 -0.9798 -0.0571
vn -0.1936 -0.9799 0.0486
vn -0.4631 -0.8588 0.2189
vn -0.4626 -0.8588 -0.2201
vn -0.0468 -0.9799 -0.1940
vn -0.1390 -0.9798 -0.1438
vn -0.4181 -0.8597 -0.2935
vn -0.0421 -0.8579 -0.5121
vn 0.1456 -0.9797 -0.1375
vn 0.0554 -0.9799 -0.1916
vn 0.0443 -0.8584 -0.5110
vn 0.4196 -0.8599 -0.2908
vn 0.0466 -0.9798 0.1946
vn 0.1388 -0.9798 0.1439
vn 0.4183 -0.8596 0.2935
vn 0.0424 -0.8596 0.5092
vn 0.1915 -0.9798 0.0569
vn 0.1940 -0.9798 -0.0488
vn 0.4622 -0.8600 -0.2164
vn 0.4626 -0.8590 0.2194
vn -0.1449 -0.9798 0.1378
vn -0.0550 -0.9798 0.1922
vn -0.0438 -0.8597 0.5089
vn -0.4192 -0.8594 0.2928
vn -0.0000 -0.0000 1.0000
vn 0.8660 -0.0000 0.5000
vn -0.8660 -0.0000 -0.5000
vn -0.4834 -0.2552 -0.8373
vn -0.0000 -0.3121 -0.9500
vn 0.8228 -0.3121 -0.4750
vn 0.9669 -0.2552 -0.0000
vn -0.4834 -0.2552 0.8373
vn -0.8228 -0.3121 0.4750
vn 0.4834 -0.2552 0.8373
vn -0.0000 -0.3121 0.9500
vn -0.8228 -0.3121 -0.4750
vn 0.4834 -0.2552 -0.8373
vn 0.8228 -0.3121 0.4750
vn -0.9669 -0.2552 -0.0000
vn 0.7765 -0.4429 0.4483
vn -0.7765 -0.4428 0.4483
vn -0.0000 -0.4428 0.8966
vn -0.0000 -0.4428 -0.8966
vn 0.7765 -0.4428 -0.4483
vn 0.8551 -0.1583 -0.4937
vn -0.0000 -0.1583 -0.9874
vn -0.0000 0.6100 -0.7924
vn 0.6862 0.6100 -0.3962
vn -0.7765 -0.4428 -0.4483
vn -0.8551 -0.1583 -0.4937
vn -0.6862 0.6100 0.3962
vn 0.6862 0.6100 0.3962
vn -0.0000 -0.1583 0.9874
vn 0.8551 -0.1583 0.4937
vn -0.0000 0.6100 0.7924
vn -0.8551 -0.1583 0.4937
vn -0.6862 0.6100 -0.3962
vn 0.8691 -0.0000 0.4947
vn 0.9574 -0.0000 0.2887
vn 0.9578 -0.0000 0.2874
vn 0.5053 -0.0000 0.8630
vn 0.0061 -0.0000 1.0000
vn -0.4947 -0.0000 0.8691
vn -0.8630 -0.0000 0.5053
vn -1.0000 -0.0000 0.0061
vn -0.8691 -0.0000 -0.4947
vn -0.5053 -0.0000 -0.8630
vn -0.0061 -0.0000 -1.0000
vn 0.4982 -0.0000 -0.8671
vn 0.8670 -0.0000 -0.4984
vn 1.0000 -0.0000 0.0058
vn 0.7287 -0.0000 0.6848
vn 0.8630 -0.0000 0.5053
vn 0.4947 -0.0000 0.8691
vn 0.5153 -0.0000 0.8570
vn -0.0061 -0.0000 1.0000
vn 0.0141 -0.0000 0.9999
vn -0.5053 -0.0000 0.8630
vn -0.4914 -0.0000 0.8710
vn -0.8691 -0.0000 0.4947
vn -1.0000 -0.0000 -0.0061
vn -0.8630 -0.0000 -0.5053
vn -0.4947 -0.0000 -0.8691
vn 0.0061 -0.0000 -1.0000
vn 0.5053 -0.0000 -0.8630
vn 0.4947 -0.0000 -0.8691
vn 0.8691 -0.0000 -0.4947
vn 0.8630 -0.0000 -0.5053
vn 1.0000 -0.0000 0.0061
vn 1.0000 -0.0000 -0.0061
vn 0.5086 -0.0000 -0.8610
vn 0.8730 -0.0000 -0.4877
vn 0.9998 -0.0000 0.0178
vn 0.5079 0.7805 0.3645
vn 0.3638 0.7998 0.4775
vn 0.3636 0.7998 0.4776
vn 0.0581 0.8041 0.5917
vn 0.0595 0.8041 0.5915
vn -0.2581 0.8084 0.5290
vn -0.2552 0.8084 0.5304
vn -0.4981 0.8075 0.3161
vn -0.4958 0.8075 0.3196
vn -0.5894 0.8075 0.0247
vn -0.5892 0.8075 0.0289
vn -0.5228 0.8075 -0.2733
vn -0.5247 0.8075 -0.2696
vn -0.3161 0.8075 -0.4981
vn -0.3196 0.8075 -0.4958
vn -0.0247 0.8075 -0.5894
vn -0.0289 0.8075 -0.5892
vn 0.2733 0.8075 -0.5228
vn 0.2696 0.8074 -0.5247
vn 0.4981 0.8075 -0.3161
vn 0.4958 0.8075 -0.3196
vn 0.5894 0.8075 -0.0247
vn 0.5892 0.8075 -0.0289
vn 0.5228 0.8075 0.2733
vn 0.5247 0.8075 0.2696
vn 0.3161 0.8075 0.4981
vn 0.3196 0.8075 0.4958
vn 0.0247 0.8075 0.5894
vn 0.0289 0.8075 0.5892
vn -0.2733 0.8075 0.5228
vn -0.2696 0.8075 0.5247
vn 0.2696 0.8075 -0.5247
vn -0.5228 0.8074 -0.2733
vn -0.5247 0.8074 -0.2696
vn -0.3161 0.8074 -0.4981
vn -0.3197 0.8074 -0.4958
vn 0.2861 0.8098 -0.5122
vn 0.2805 0.8098 -0.5153
vn 0.5148 0.8074 -0.2881
vn 0.5113 0.8074 -0.2944
vn 0.5904 0.8067 0.0256
vn 0.5905 0.8069 0.0155
vn 0.5773 0.7910 0.2023
vn 0.7278 -0.0000 0.6858
vn 0.5700 -0.0000 0.8216
vn 0.5807 -0.0000 0.8141
vn 0.0525 -0.0000 0.9986
vn 0.0640 -0.0000 0.9980
vn -0.4804 -0.0000 0.8770
vn -0.4695 -0.0000 0.8830
vn -0.8688 -0.0000 0.4952
vn -0.8632 -0.0000 0.5048
vn -1.0000 -0.0000 -0.0056
vn -1.0000 -0.0000 0.0055
vn -0.8632 -0.0000 -0.5048
vn -0.8688 -0.0000 -0.4952
vn -0.4952 -0.0000 -0.8688
vn -0.5048 -0.0000 -0.8632
vn 0.0056 -0.0000 -1.0000
vn -0.0055 -0.0000 -1.0000
vn 0.5048 -0.0000 -0.8632
vn 0.4952 -0.0000 -0.8688
vn 0.8688 -0.0000 -0.4952
vn 0.8632 -0.0000 -0.5048
vn 1.0000 -0.0000 0.0056
vn 1.0000 -0.0000 -0.0055
vn 0.8632 -0.0000 0.5048
vn 0.8688 -0.0000 0.4952
vn 0.4952 -0.0000 0.8688
vn 0.5048 -0.0000 0.8632
vn -0.0056 -0.0000 1.0000
vn 0.0055 -0.0000 1.0000
vn -0.5048 -0.0000 0.8632
vn -0.4952 -0.0000 0.8688
vn -1.0000 -0.0000 0.0056
vn 0.0055 -0.0000 -1.0000
vn -0.0056 -0.0000 -1.0000
vn 1.0000 -0.0000 0.0055
vn 1.0000 -0.0000 -0.0056
vn -0.0055 -0.0000 1.0000
vn 0.0056 -0.0000 1.0000
vn -1.0000 -0.0000 -0.0055
vn 0.5299 -0.0000 -0.8480
vn 0.5193 -0.0000 -0.8546
vn 0.8962 -0.0000 -0.4436
vn 0.8911 -0.0000 -0.4538
vn 0.9954 -0.0000 0.0959
vn 0.9966 -0.0000 0.0828
vn 0.4638 -0.7911 0.3988
vn 0.3086 -0.8069 0.5037
vn 0.3173 -0.8067 0.4985
vn 0.0007 -0.8074 0.5900
vn 0.0079 -0.8074 0.5899
vn -0.3060 -0.8098 0.5006
vn -0.3005 -0.8098 0.5038
vn -0.5247 -0.8074 0.2696
vn -0.5228 -0.8074 0.2733
vn -0.5892 -0.8075 -0.0289
vn -0.5894 -0.8075 -0.0247
vn -0.4958 -0.8075 -0.3196
vn -0.4981 -0.8075 -0.3161
vn -0.2696 -0.8075 -0.5247
vn -0.2733 -0.8075 -0.5228
vn 0.0289 -0.8075 -0.5892
vn 0.0247 -0.8075 -0.5894
vn 0.3196 -0.8075 -0.4958
vn 0.3161 -0.8075 -0.4981
vn 0.5247 -0.8075 -0.2696
vn 0.5228 -0.8075 -0.2733
vn 0.5892 -0.8075 0.0289
vn 0.5894 -0.8075 0.0247
vn 0.4958 -0.8075 0.3196
vn 0.4981 -0.8075 0.3161
vn 0.2696 -0.8075 0.5247
vn 0.2733 -0.8075 0.5228
vn -0.0289 -0.8075 0.5892
vn -0.0247 -0.8075 0.5894
vn -0.3196 -0.8075 0.4958
vn -0.3161 -0.8075 0.4981
vn -0.5247 -0.8075 0.2696
vn -0.5228 -0.8075 0.2733
vn -0.4958 -0.8074 -0.3196
vn 0.2696 -0.8074 0.5247
vn 0.3317 -0.8084 -0.4862
vn 0.3291 -0.8084 -0.4880
vn 0.5420 -0.8041 -0.2442
vn 0.5415 -0.8041 -0.2455
vn 0.5954 -0.7998 0.0761
vn 0.5954 -0.7998 0.0763
vn 0.5696 -0.7805 0.2576
vn 0.5050 -0.0000 0.8631
vn 0.0019 -0.0000 1.0000
vn -0.5018 -0.0000 0.8650
vn -0.4340 -0.4963 -0.7519
vn -0.2274 -0.4776 -0.8487
vn -0.3918 -0.5242 -0.7561
vn -0.3919 -0.5242 -0.7561
vn -0.8685 -0.4957 0.0004
vn -0.8494 -0.4761 -0.2276
vn -0.8513 -0.5235 -0.0355
vn -0.8512 -0.5236 -0.0355
vn 0.4342 -0.4963 -0.7518
vn 0.6213 -0.4776 -0.6213
vn 0.4589 -0.5242 -0.7174
vn 0.4588 -0.5242 -0.7174
vn 0.2277 -0.4754 0.8498
vn 0.3954 -0.5234 0.7548
vn 0.4349 -0.4954 0.7520
vn 0.3955 -0.5234 0.7547
vn 0.8495 -0.4760 0.2276
vn 0.8514 -0.5230 0.0389
vn 0.8690 -0.4949 0.0001
vn 0.8514 -0.5231 0.0387
vn -0.6212 -0.4777 0.6212
vn -0.4635 -0.5234 0.7150
vn -0.4351 -0.4953 0.7519
vn -0.4634 -0.5234 0.7151
vn -0.0158 0.9995 -0.0274
vn 0.0002 0.9995 -0.0313
vn -0.0000 0.0954 -0.9954
vn -0.4978 0.0954 -0.8620
vn -0.0275 0.9995 -0.0159
vn -0.8621 0.0954 -0.4977
vn -0.0317 0.9995 -0.0000
vn -0.9954 0.0954 -0.0000
vn -0.0275 0.9995 0.0158
vn -0.8621 0.0954 0.4977
vn -0.0159 0.9995 0.0275
vn -0.4976 0.0954 0.8621
vn -0.0000 0.9995 0.0313
vn 0.0001 0.0954 0.9954
vn 0.0158 0.9995 0.0274
vn 0.4977 0.0954 0.8621
vn 0.0275 0.9995 0.0159
vn 0.8621 0.0954 0.4977
vn 0.0317 0.9995 -0.0000
vn 0.9954 0.0954 -0.0001
vn 0.0275 0.9995 -0.0158
vn 0.8621 0.0954 -0.4977
vn 0.0159 0.9995 -0.0274
vn 0.4977 0.0954 -0.8621
vt 0.003906 0.480610
vt 0.004098 0.095894
vt 0.042000 0.095913
vt 0.640241 0.480659
vt 0.640072 0.096828
vt 0.677933 0.095935
vt 0.512976 0.480702
vt 0.512885 0.096871
vt 0.550746 0.095986
vt 0.449343 0.480711
vt 0.449291 0.096007
vt 0.475023 0.096004
vt 0.385710 0.480719
vt 0.385698 0.096888
vt 0.423560 0.096011
vt 0.258445 0.480710
vt 0.258548 0.096949
vt 0.296373 0.096009
vt 0.703874 0.480624
vt 0.703664 0.095921
vt 0.729396 0.095907
vt 0.067541 0.480641
vt 0.067733 0.095925
vt 0.093465 0.095938
vt 0.322078 0.480715
vt 0.322105 0.096011
vt 0.347836 0.096013
vt 0.576608 0.480681
vt 0.576478 0.095977
vt 0.602209 0.095968
vt 0.649306 0.554880
vt 0.596796 0.554092
vt 0.596882 0.542748
vt 0.649306 0.543507
vt 0.275113 0.501507
vt 0.328921 0.501507
vt 0.328888 0.512032
vt 0.275090 0.512044
vt 0.221395 0.550724
vt 0.167477 0.551360
vt 0.167374 0.540616
vt 0.221321 0.540116
vt 0.543491 0.552741
vt 0.543643 0.541695
vt 0.221206 0.501507
vt 0.221189 0.512112
vt 0.113563 0.552376
vt 0.113475 0.541410
vt 0.596936 0.501507
vt 0.649306 0.501507
vt 0.649306 0.513181
vt 0.596915 0.512863
vt 0.489829 0.551648
vt 0.489994 0.540838
vt 0.167229 0.501507
vt 0.167212 0.512255
vt 0.059941 0.553567
vt 0.059919 0.542333
vt 0.543845 0.501507
vt 0.543815 0.512568
vt 0.436109 0.550934
vt 0.436247 0.540278
vt 0.328836 0.550373
vt 0.328703 0.654246
vt 0.276304 0.654346
vt 0.275179 0.550423
vt 0.170106 0.656835
vt 0.115931 0.659883
vt 0.540214 0.660583
vt 0.486534 0.657506
vt 0.382450 0.550535
vt 0.381015 0.654659
vt 0.223523 0.655101
vt 0.594606 0.665150
vt 0.433535 0.655658
vt 0.649306 0.670701
vt 0.061215 0.663908
vt 0.275156 0.539879
vt 0.113334 0.512482
vt 0.059857 0.512745
vt 0.490207 0.512321
vt 0.436425 0.512160
vt 0.328871 0.539838
vt 0.382646 0.512069
vt 0.382541 0.539965
vt 0.006944 0.542770
vt 0.006944 0.512755
vt 0.382686 0.501507
vt 0.436470 0.501507
vt 0.006944 0.501507
vt 0.059914 0.501507
vt 0.490249 0.501507
vt 0.113364 0.501507
vt 0.006944 0.554333
vt 0.229187 0.743716
vt 0.178213 0.745053
vt 0.586974 0.757373
vt 0.530933 0.750852
vt 0.006944 0.665772
vt 0.068814 0.756111
vt 0.006944 0.771187
vt 0.427589 0.745183
vt 0.377826 0.744128
vt 0.279065 0.743396
vt 0.649306 0.768203
vt 0.125216 0.748507
vt 0.478324 0.747171
vt 0.328462 0.743579
vt 0.243307 0.836055
vt 0.204044 0.836055
vt 0.521180 0.836055
vt 0.487910 0.836055
vt 0.136127 0.836055
vt 0.111812 0.836055
vt 0.410103 0.836055
vt 0.368531 0.836055
vt 0.284384 0.836055
vt 0.545777 0.836055
vt 0.167764 0.836055
vt 0.450267 0.836055
vt 0.326379 0.836055
vt 0.053763 0.867662
vt 0.076158 0.867643
vt 0.076077 0.874192
vt 0.053664 0.874198
vt 0.009438 0.867310
vt 0.031363 0.867724
vt 0.031061 0.874199
vt 0.007134 0.873830
vt 0.187746 0.868527
vt 0.209959 0.868358
vt 0.209918 0.875105
vt 0.187674 0.875357
vt 0.254558 0.867859
vt 0.276486 0.867321
vt 0.278839 0.874008
vt 0.254816 0.874501
vt 0.031112 0.888578
vt 0.009008 0.888782
vt 0.006944 0.881982
vt 0.031013 0.881983
vt 0.143289 0.868012
vt 0.165553 0.868338
vt 0.165461 0.875094
vt 0.143187 0.874659
vt 0.075984 0.888626
vt 0.053576 0.888609
vt 0.053637 0.882065
vt 0.076060 0.882076
vt 0.254974 0.882323
vt 0.232346 0.882741
vt 0.232260 0.874759
vt 0.120797 0.882205
vt 0.098434 0.882100
vt 0.098461 0.874211
vt 0.120844 0.874308
vt 0.278993 0.882125
vt 0.194810 0.480692
vt 0.194923 0.095976
vt 0.220656 0.095983
vt 0.987140 0.349644
vt 0.899243 0.356573
vt 0.895836 0.331063
vt 0.929821 0.801800
vt 0.841901 0.808520
vt 0.838556 0.783001
vt 0.879873 0.210827
vt 0.792122 0.218021
vt 0.784147 0.205214
vt 0.790650 0.190409
vt 0.880053 0.261848
vt 0.791035 0.283144
vt 0.784332 0.268284
vt 0.792122 0.255268
vt 0.937633 0.814801
vt 0.930956 0.829671
vt 0.994988 0.362618
vt 0.988350 0.377500
vt 0.975215 0.385429
vt 0.887318 0.392346
vt 0.879471 0.379374
vt 0.886109 0.364494
vt 0.872896 0.310723
vt 0.785064 0.317451
vt 0.777187 0.304558
vt 0.783799 0.289760
vt 0.872896 0.361745
vt 0.783795 0.382689
vt 0.777185 0.367887
vt 0.785064 0.354993
vt 0.987595 0.222831
vt 0.899670 0.229490
vt 0.891869 0.216483
vt 0.898557 0.201617
vt 0.987460 0.273852
vt 0.898303 0.294559
vt 0.891745 0.279771
vt 0.899670 0.266928
vt 0.978621 0.410939
vt 0.131176 0.480673
vt 0.131328 0.096829
vt 0.169191 0.095968
vt 0.733927 0.004508
vt 0.762666 0.004492
vt 0.767297 0.095886
vt 0.610770 0.003932
vt 0.640031 0.005281
vt 0.102103 0.003906
vt 0.131364 0.005280
vt 0.258236 0.005555
vt 0.287462 0.004090
vt 0.229335 0.004274
vt 0.990928 0.248351
vt 0.876294 0.336234
vt 0.886108 0.457378
vt 0.879470 0.442497
vt 0.887318 0.429524
vt 0.975215 0.436450
vt 0.883363 0.236325
vt 0.356435 0.003980
vt 0.385695 0.005341
vt 0.512863 0.005324
vt 0.542123 0.003955
vt 0.988347 0.284613
vt 0.994986 0.299493
vt 0.987140 0.312466
vt 0.899243 0.305552
vt 0.483602 0.003969
vt 0.669291 0.003906
vt 0.414956 0.003978
vt 0.160626 0.003929
vt 0.812498 0.874323
vt 0.828345 0.878417
vt 0.820807 0.906440
vt 0.008725 0.004496
vt 0.037464 0.004511
vt 0.931195 0.736882
vt 0.937749 0.751712
vt 0.929821 0.764579
vt 0.842016 0.757498
vt 0.699424 0.760108
vt 0.694959 0.744399
vt 0.722991 0.736898
vt 0.812381 0.825571
vt 0.798123 0.831153
vt 0.776810 0.794222
vt 0.788770 0.784660
vt 0.633478 0.825439
vt 0.617619 0.821398
vt 0.625165 0.793377
vt 0.657219 0.915212
vt 0.645710 0.926965
vt 0.625169 0.906467
vt 0.746611 0.939526
vt 0.751022 0.955372
vt 0.722991 0.962880
vt 0.744369 0.775206
vt 0.701777 0.775160
vt 0.746636 0.760145
vt 0.669152 0.794240
vt 0.647689 0.830985
vt 0.657215 0.784649
vt 0.647703 0.868886
vt 0.669160 0.905635
vt 0.633488 0.874417
vt 0.701673 0.924388
vt 0.744314 0.924393
vt 0.699374 0.939521
vt 0.776811 0.905614
vt 0.798303 0.868729
vt 0.788756 0.915187
vt 0.800294 0.772911
vt 0.820809 0.793434
vt 0.688914 0.839488
vt 0.688288 0.857914
vt 0.714949 0.815177
vt 0.698679 0.823848
vt 0.749019 0.825568
vt 0.733376 0.815813
vt 0.731023 0.884580
vt 0.747292 0.875909
vt 0.757056 0.860269
vt 0.757681 0.841844
vt 0.696952 0.874190
vt 0.712596 0.883944
vt 0.722982 0.849876
vt 0.209966 0.889930
vt 0.187582 0.890379
vt 0.187659 0.883551
vt 0.209968 0.883199
vt 0.120680 0.888765
vt 0.098344 0.888653
vt 0.165399 0.883205
vt 0.143115 0.882652
vt 0.254853 0.888825
vt 0.232359 0.889371
vt 0.165262 0.889957
vt 0.142965 0.889297
vt 0.277006 0.888693
vt 0.120940 0.867746
vt 0.098549 0.867659
vt 0.232250 0.868098
vt 0.143328 0.844237
vt 0.165608 0.844237
vt 0.187789 0.844237
vt 0.120962 0.844237
vt 0.076202 0.844237
vt 0.098575 0.844237
vt 0.053870 0.844237
vt 0.232115 0.844237
vt 0.254324 0.844237
vt 0.276486 0.844237
vt 0.209925 0.844237
vt 0.009438 0.844237
vt 0.031645 0.844237
vt 0.989981 0.971768
vt 0.974724 0.987025
vt 0.971548 0.981523
vt 0.984479 0.968591
vt 0.953884 0.992609
vt 0.933043 0.987025
vt 0.936219 0.981523
vt 0.953884 0.986256
vt 0.974724 0.914830
vt 0.989981 0.930086
vt 0.984479 0.933263
vt 0.971548 0.920332
vt 0.917786 0.930086
vt 0.933043 0.914830
vt 0.936219 0.920332
vt 0.923288 0.933263
vt 0.917786 0.971768
vt 0.923288 0.968592
vt 0.995565 0.950927
vt 0.989212 0.950927
vt 0.953883 0.909245
vt 0.953883 0.915599
vt 0.912202 0.950927
vt 0.918555 0.950927
vt 0.807752 0.488794
vt 0.819577 0.488794
vt 0.820971 0.526007
vt 0.807404 0.526377
vt 0.772797 0.488794
vt 0.784261 0.488794
vt 0.780545 0.525948
vt 0.767989 0.524903
vt 0.854142 0.488794
vt 0.865267 0.488794
vt 0.868716 0.520789
vt 0.858571 0.523422
vt 0.738774 0.488794
vt 0.750347 0.488794
vt 0.746281 0.520708
vt 0.738774 0.516403
vt 0.831325 0.488794
vt 0.834244 0.525911
vt 0.795921 0.488794
vt 0.793848 0.526029
vt 0.876492 0.488794
vt 0.876492 0.516584
vt 0.761548 0.488794
vt 0.756261 0.523420
vt 0.842837 0.488794
vt 0.846810 0.524861
vt 0.732315 0.551019
vt 0.881805 0.551623
vt 0.699547 0.538998
vt 0.807333 0.555631
vt 0.769848 0.555928
vt 0.759261 0.605379
vt 0.807561 0.605379
vt 0.807411 0.728745
vt 0.756944 0.728745
vt 0.844724 0.556030
vt 0.855932 0.605379
vt 0.996094 0.098697
vt 0.831912 0.193487
vt 0.831912 0.003906
vt 0.654442 0.605379
vt 0.709437 0.605379
vt 0.706027 0.728745
vt 0.654442 0.728745
vt 0.906093 0.605379
vt 0.908659 0.728745
vt 0.857848 0.728745
vt 0.959987 0.605379
vt 0.959987 0.728745
vt 0.916851 0.537899
vt 0.188800 0.926843
vt 0.200189 0.931157
vt 0.200199 0.932711
vt 0.188959 0.937500
vt 0.166401 0.937500
vt 0.166350 0.927816
vt 0.143947 0.937500
vt 0.143926 0.928764
vt 0.121497 0.937500
vt 0.121491 0.929648
vt 0.099074 0.937500
vt 0.099070 0.930433
vt 0.076698 0.937500
vt 0.076695 0.931198
vt 0.054367 0.937500
vt 0.054364 0.931963
vt 0.032109 0.937500
vt 0.032085 0.932717
vt 0.010096 0.937500
vt 0.010080 0.933602
vt 0.277925 0.933562
vt 0.277907 0.937500
vt 0.255935 0.937500
vt 0.255944 0.934301
vt 0.233756 0.937500
vt 0.233761 0.934005
vt 0.211424 0.937500
vt 0.211471 0.933749
vt 0.176399 0.896466
vt 0.187729 0.900919
vt 0.165404 0.902415
vt 0.165268 0.898463
vt 0.143152 0.903822
vt 0.143084 0.900969
vt 0.120885 0.905052
vt 0.120865 0.903258
vt 0.098565 0.905843
vt 0.098559 0.904043
vt 0.076218 0.906588
vt 0.076214 0.904787
vt 0.053860 0.907340
vt 0.053853 0.905539
vt 0.031519 0.908130
vt 0.031503 0.906318
vt 0.009475 0.909013
vt 0.009456 0.907242
vt 0.277279 0.907091
vt 0.277304 0.908861
vt 0.255246 0.909954
vt 0.255218 0.908145
vt 0.232900 0.911485
vt 0.232864 0.909661
vt 0.210588 0.913222
vt 0.210542 0.911360
vt 0.188285 0.914812
vt 0.188240 0.912910
vt 0.165961 0.916050
vt 0.165922 0.914188
vt 0.143604 0.917206
vt 0.143579 0.915380
vt 0.121219 0.918239
vt 0.121205 0.916440
vt 0.098828 0.919038
vt 0.098822 0.917239
vt 0.076463 0.919793
vt 0.076459 0.917992
vt 0.054123 0.920550
vt 0.054117 0.918749
vt 0.031816 0.921332
vt 0.031802 0.919522
vt 0.009790 0.922205
vt 0.009773 0.920440
vt 0.277652 0.920305
vt 0.277673 0.922080
vt 0.255675 0.923095
vt 0.255640 0.921298
vt 0.233501 0.925863
vt 0.233411 0.923018
vt 0.211329 0.928970
vt 0.211168 0.925007
vt 0.165242 0.896762
vt 0.142873 0.897561
vt 0.120672 0.898284
vt 0.098447 0.899039
vt 0.076103 0.899779
vt 0.053728 0.900531
vt 0.031342 0.901340
vt 0.008179 0.902301
vt 0.278267 0.901985
vt 0.255078 0.903102
vt 0.232669 0.904588
vt 0.210325 0.906196
vt 0.188006 0.907643
vt 0.165700 0.909020
vt 0.143395 0.910308
vt 0.121062 0.911444
vt 0.098700 0.912237
vt 0.076344 0.912985
vt 0.053995 0.913739
vt 0.031648 0.914547
vt 0.008503 0.915513
vt 0.278630 0.915191
vt 0.255477 0.916279
vt 0.233166 0.917950
vt 0.210889 0.919833
vt 0.188566 0.921564
vt 0.166186 0.922652
vt 0.143787 0.923691
vt 0.121369 0.924641
vt 0.098957 0.925431
vt 0.076585 0.926191
vt 0.054250 0.926952
vt 0.031938 0.927745
vt 0.008814 0.928688
vt 0.278963 0.928437
vt 0.255935 0.929362
vt 0.233777 0.930659
vt 0.211398 0.932080
vt 0.176368 0.894924
vt 0.165227 0.895360
vt 0.142860 0.896153
vt 0.120661 0.896906
vt 0.098436 0.897648
vt 0.076092 0.898389
vt 0.053713 0.899141
vt 0.031323 0.899958
vt 0.008152 0.900896
vt 0.278239 0.900582
vt 0.255053 0.901720
vt 0.232636 0.903181
vt 0.210287 0.904765
vt 0.187962 0.906184
vt 0.165654 0.907587
vt 0.143360 0.908900
vt 0.121039 0.910055
vt 0.098686 0.910848
vt 0.076332 0.911595
vt 0.053980 0.912349
vt 0.031630 0.913166
vt 0.008478 0.914112
vt 0.278599 0.913787
vt 0.255445 0.914903
vt 0.233120 0.916545
vt 0.210835 0.918398
vt 0.188522 0.920101
vt 0.166155 0.921220
vt 0.143765 0.922283
vt 0.121353 0.923250
vt 0.098944 0.924042
vt 0.076573 0.924800
vt 0.054237 0.925561
vt 0.031922 0.926365
vt 0.008789 0.927290
vt 0.278944 0.927027
vt 0.255917 0.928001
vt 0.233748 0.929255
vt 0.211370 0.930675
vt 0.165170 0.893693
vt 0.142913 0.892801
vt 0.120651 0.891971
vt 0.098334 0.892639
vt 0.075984 0.893383
vt 0.053592 0.894134
vt 0.031207 0.894920
vt 0.009143 0.895780
vt 0.276965 0.895658
vt 0.254881 0.896744
vt 0.232458 0.898112
vt 0.210096 0.899603
vt 0.941367 0.003906
vt 0.941366 0.193487
vt 0.777185 0.098697
vt 0.313395 0.887317
vt 0.289252 0.887317
vt 0.289252 0.881659
vt 0.313395 0.881659
vt 0.337538 0.887317
vt 0.337538 0.881659
vt 0.361682 0.887317
vt 0.361682 0.881659
vt 0.385825 0.887317
vt 0.385825 0.881659
vt 0.409968 0.887317
vt 0.409968 0.881659
vt 0.434112 0.887317
vt 0.434112 0.881659
vt 0.458255 0.887317
vt 0.458255 0.881659
vt 0.482398 0.887317
vt 0.482398 0.881659
vt 0.506541 0.887317
vt 0.506541 0.881659
vt 0.530685 0.887317
vt 0.530685 0.881659
vt 0.554828 0.887317
vt 0.554828 0.881659
vt 0.578971 0.887317
vt 0.578971 0.881659
vt 0.289252 0.844237
vt 0.313395 0.844237
vt 0.584108 0.994210
vt 0.568290 0.978392
vt 0.562500 0.956784
vt 0.554828 0.844237
vt 0.578971 0.844237
vt 0.337538 0.844237
vt 0.361682 0.844237
vt 0.385825 0.844237
vt 0.409968 0.844237
vt 0.434112 0.844237
vt 0.458255 0.844237
vt 0.482398 0.844237
vt 0.506541 0.844237
vt 0.530685 0.844237
vt 0.926800 0.900870
vt 0.909491 0.918180
vt 0.906726 0.913390
vt 0.922011 0.898105
vt 0.838556 0.877225
vt 0.844892 0.853580
vt 0.849682 0.856346
vt 0.844087 0.877225
vt 0.885846 0.829935
vt 0.909491 0.836271
vt 0.906726 0.841061
vt 0.885846 0.835466
vt 0.933136 0.877225
vt 0.927605 0.877225
vt 0.844892 0.900870
vt 0.849682 0.898105
vt 0.862201 0.836271
vt 0.864967 0.841061
vt 0.926801 0.853580
vt 0.922011 0.856346
vt 0.862201 0.918180
vt 0.864967 0.913390
vt 0.885846 0.924515
vt 0.885846 0.918984
vt 0.505413 0.932625
vt 0.483797 0.932625
vt 0.483797 0.895499
vt 0.505413 0.895499
vt 0.440564 0.932625
vt 0.418948 0.932625
vt 0.418948 0.895499
vt 0.440564 0.895499
vt 0.375716 0.932624
vt 0.354100 0.932625
vt 0.354100 0.895499
vt 0.375716 0.895499
vt 0.527029 0.932625
vt 0.527029 0.895500
vt 0.310868 0.932625
vt 0.289252 0.932625
vt 0.289252 0.895499
vt 0.310868 0.895499
vt 0.462181 0.932625
vt 0.462181 0.895499
vt 0.397332 0.932625
vt 0.397332 0.895499
vt 0.548645 0.932625
vt 0.548645 0.895499
vt 0.332484 0.932625
vt 0.332484 0.895499
vt 0.990125 0.473295
vt 0.990125 0.515054
vt 0.974840 0.530339
vt 0.627324 0.919358
vt 0.627324 0.994210
vt 0.605716 1.000000
vt 0.605716 0.913568
vt 0.643142 0.978392
vt 0.643142 0.935176
vt 0.584108 0.919358
vt 0.933081 0.458010
vt 0.953961 0.452415
vt 0.953961 0.535933
vt 0.933081 0.530339
vt 0.974840 0.458010
vt 0.917796 0.515054
vt 0.995720 0.494174
vt 0.912202 0.494174
vt 0.917796 0.473295
vt 0.568290 0.935176
vt 0.648932 0.956784
vt 0.767506 0.480590
vt 0.800267 0.926939
vt 0.751018 0.744419
vt 0.645709 0.772884
vt 0.617629 0.878445
vt 0.694962 0.955366
vt 0.828315 0.821464
s 1
usemtl Material
f 1/1/1 102/2/2 109/3/3
f 11/4/4 101/5/5 106/6/6
f 9/7/7 98/8/8 115/9/9
f 8/10/10 105/11/11 104/12/12
f 7/13/13 100/14/14 103/15/15
f 5/16/16 97/17/17 112/18/18
f 12/19/19 108/20/20 107/21/21
f 2/22/22 111/23/23 110/24/24
f 6/25/25 114/26/26 113/27/27
f 10/28/28 117/29/29 116/30/30
f 13/31/31 24/32/32 48/33/33 38/34/34
f 6/35/25 7/36/13 31/37/35 30/38/36
f 17/39/37 16/40/38 40/41/39 41/42/40
f 24/32/32 23/43/41 47/44/42 48/33/33
f 5/45/16 6/35/25 30/38/36 29/46/43
f 16/40/38 15/47/44 39/48/45 40/41/39
f 12/49/19 1/50/1 26/51/46 36/52/47
f 23/43/41 22/53/48 46/54/49 47/44/42
f 4/55/50 5/45/16 29/46/43 28/56/51
f 15/47/44 14/57/52 37/58/53 39/48/45
f 11/59/4 12/49/19 36/52/47 35/60/54
f 22/53/48 21/61/55 45/62/56 46/54/49
f 19/63/57 55/64/58 54/65/59 18/66/60
f 16/40/38 52/67/61 51/68/62 15/47/44
f 23/43/41 59/69/63 58/70/64 22/53/48
f 20/71/65 56/72/66 55/64/58 19/63/57
f 17/39/37 53/73/67 52/67/61 16/40/38
f 24/32/32 60/74/68 59/69/63 23/43/41
f 21/61/55 57/75/69 56/72/66 20/71/65
f 18/66/60 54/65/59 53/73/67 17/39/37
f 13/31/31 49/76/70 60/74/68 24/32/32
f 15/47/44 51/68/62 50/77/71 14/57/52
f 22/53/48 58/70/64 57/75/69 21/61/55
f 30/38/36 42/78/72 41/42/40 29/46/43
f 26/51/46 38/34/34 48/33/33 36/52/47
f 27/79/73 39/48/45 37/58/53 25/80/74
f 34/81/75 46/54/49 45/62/56 33/82/76
f 31/37/35 43/83/77 42/78/72 30/38/36
f 28/56/51 40/41/39 39/48/45 27/79/73
f 35/60/54 47/44/42 46/54/49 34/81/75
f 32/84/78 44/85/79 43/83/77 31/37/35
f 29/46/43 41/42/40 40/41/39 28/56/51
f 36/52/47 48/33/33 47/44/42 35/60/54
f 25/80/74 37/58/53 38/86/34 26/87/46
f 33/82/76 45/62/56 44/85/79 32/84/78
f 18/66/60 17/39/37 41/42/40 42/78/72
f 7/36/13 8/88/10 32/84/78 31/37/35
f 19/63/57 18/66/60 42/78/72 43/83/77
f 8/88/10 9/89/7 33/82/76 32/84/78
f 1/90/1 2/91/22 25/80/74 26/87/46
f 20/71/65 19/63/57 43/83/77 44/85/79
f 9/89/7 10/92/28 34/81/75 33/82/76
f 2/91/22 3/93/80 27/79/73 25/80/74
f 21/61/55 20/71/65 44/85/79 45/62/56
f 10/92/28 11/59/4 35/60/54 34/81/75
f 14/57/52 13/94/31 38/86/34 37/58/53
f 3/93/80 4/55/50 28/56/51 27/79/73
f 52/67/61 53/73/67 65/95/81 64/96/82
f 59/69/63 60/74/68 72/97/83 71/98/84
f 49/99/70 50/77/71 62/100/85 61/101/86
f 56/72/66 57/75/69 69/102/87 68/103/88
f 53/73/67 54/65/59 66/104/89 65/95/81
f 60/74/68 49/76/70 61/105/86 72/97/83
f 50/77/71 51/68/62 63/106/90 62/100/85
f 57/75/69 58/70/64 70/107/91 69/102/87
f 54/65/59 55/64/58 67/108/92 66/104/89
f 51/68/62 52/67/61 64/96/82 63/106/90
f 58/70/64 59/69/63 71/98/84 70/107/91
f 55/64/58 56/72/66 68/103/88 67/108/92
f 64/96/82 65/95/81 77/109/93 76/110/94
f 71/98/84 72/97/83 84/111/95 83/112/96
f 61/101/86 62/100/85 74/113/97 73/114/98
f 68/103/88 69/102/87 81/115/99 80/116/100
f 65/95/81 66/104/89 78/117/101 77/109/93
f 72/97/83 61/105/86 73/118/98 84/111/95
f 62/100/85 63/106/90 75/119/102 74/113/97
f 69/102/87 70/107/91 82/120/103 81/115/99
f 66/104/89 67/108/92 79/121/104 78/117/101
f 63/106/90 64/96/82 76/110/94 75/119/102
f 70/107/91 71/98/84 83/112/96 82/120/103
f 67/108/92 68/103/88 80/116/100 79/121/104
f 209/122/105 194/123/105 183/124/105 180/125/105
f 202/126/105 201/127/105 215/128/105 216/129/105
f 205/130/105 211/131/105 184/132/105 213/133/105
f 197/134/105 202/135/105 216/136/105 219/137/105
f 200/138/106 203/139/106 217/140/106 214/141/106
f 190/142/105 189/143/105 223/144/105 179/145/105
f 189/143/105 205/130/105 213/133/105 223/144/105
f 195/146/106 208/147/106 181/148/106 182/149/106
f 218/150/20 186/151/107 187/152/107 219/137/20
f 214/141/23 217/140/108 216/129/108 215/128/23
f 177/153/26 220/154/109 221/155/109 176/156/26
f 217/157/108 218/150/20 219/137/20 216/136/108
f 4/158/50 120/159/110 119/160/111
f 159/161/112 110/162/113 111/163/114
f 160/164/115 119/165/116 120/166/117
s 0
f 113/167/118 157/168/118 151/169/118 121/170/118
f 112/171/119 127/172/119 140/173/119 156/174/119
f 119/165/120 160/164/120 141/175/120 132/176/120
f 110/162/121 159/161/121 143/177/121 137/178/121
f 107/179/122 163/180/122 145/181/122 134/182/122
f 116/183/123 153/184/123 147/185/123 123/186/123
f 115/187/124 128/188/124 148/189/124 152/190/124
f 104/191/125 155/192/125 149/193/125 129/194/125
f 103/195/126 130/196/126 150/197/126 154/198/126
s 1
f 163/180/127 107/179/128 108/199/129
f 3/200/80 99/201/130 118/202/131
f 134/203/132 135/204/133 102/205/2 107/21/21
f 123/206/134 124/207/135 101/5/5 116/30/30
f 137/208/136 138/209/137 99/201/130 110/24/24
f 131/210/138 127/211/139 112/18/140 97/17/17
f 132/212/141 131/210/138 97/17/17 119/160/111
f 155/192/142 104/191/143 105/213/144
f 153/184/145 116/183/146 117/214/147
s 0
f 133/215/148 146/216/148 162/217/148 106/218/148
s 1
f 157/168/149 113/167/150 114/219/151
f 121/220/152 122/221/153 100/14/14 113/27/27
f 125/222/154 128/223/155 115/9/156 98/8/8
s 0
f 136/224/157 144/225/157 158/226/157 109/227/157
s 1
f 129/228/158 125/222/154 98/8/8 104/12/12
f 124/207/135 133/229/159 106/6/160 101/5/5
f 122/221/153 130/230/161 103/15/162 100/14/14
f 138/209/137 139/231/163 118/202/164 99/201/130
s 0
f 142/232/105 139/233/105 138/234/105
s 1
f 135/235/133 136/236/165 109/3/166 102/2/2
s 0
f 139/237/167 142/238/167 161/239/167 118/240/167
f 150/241/105 130/242/105 122/243/105
s 1
f 141/244/168 160/245/169 156/246/170 140/247/168
s 0
f 148/248/105 128/249/105 125/250/105
f 146/251/105 133/252/105 124/253/105
f 144/254/105 136/255/105 135/256/105
s 1
f 157/257/171 154/258/172 150/241/173 151/259/173
f 155/260/174 152/261/175 148/248/176 149/262/176
f 153/263/177 162/264/178 146/251/179 147/265/179
f 163/266/180 158/267/181 144/254/182 145/268/182
f 159/269/183 161/270/184 142/232/185 143/271/185
s 0
f 140/247/105 127/272/105 131/273/105
s 1
f 164/274/186 165/275/187 153/263/188 152/261/189
f 166/276/190 167/277/191 155/260/192 154/258/193
f 168/278/194 169/279/195 157/257/196 156/246/197
f 170/280/198 171/281/199 159/269/200 158/267/201
f 173/282/202 172/283/203 160/245/204 161/270/205
f 174/284/206 175/285/207 163/266/208 162/264/209
f 171/281/199 173/282/202 161/270/205 159/269/200
f 172/283/203 168/278/194 156/246/197 160/245/204
f 169/279/195 166/276/190 154/258/193 157/257/196
f 167/277/191 164/274/186 152/261/189 155/260/192
f 165/275/187 174/284/206 162/264/209 153/263/188
f 175/285/207 170/280/198 158/267/201 163/266/208
f 126/286/105 165/275/187 164/274/186
f 126/286/105 167/277/191 166/276/190
f 126/286/105 169/279/195 168/278/194
f 126/286/105 171/281/199 170/280/198
f 126/286/105 172/283/203 173/282/202
f 126/286/105 175/285/207 174/284/206
f 126/286/105 173/282/202 171/281/199
f 126/286/105 168/278/194 172/283/203
f 126/286/105 166/276/190 169/279/195
f 126/286/105 164/274/186 167/277/191
f 126/286/105 174/284/206 165/275/187
f 126/286/105 170/280/198 175/285/207
f 210/287/106 204/288/106 212/289/106 185/290/106
f 220/154/109 182/149/110 183/124/110 221/155/109
f 206/291/106 192/292/106 220/154/106 177/153/106
f 222/293/11 178/294/210 179/145/210 223/144/11
f 212/289/211 222/293/11 223/144/11 213/133/211
f 181/148/212 214/141/23 215/128/23 180/125/212
f 185/290/29 212/289/211 213/133/211 184/132/29
f 178/294/210 177/153/26 176/156/26 179/145/210
f 182/149/110 181/148/212 180/125/212 183/124/110
f 186/151/107 185/290/29 184/132/29 187/152/107
f 196/295/106 199/296/106 186/151/106 218/150/106
f 208/147/106 200/138/106 214/141/106 181/148/106
f 188/297/106 191/298/106 178/294/106 222/293/106
f 203/299/106 196/295/106 218/150/106 217/157/106
f 207/300/105 190/142/105 179/145/105 176/156/105
f 194/123/105 193/301/105 221/155/105 183/124/105
f 211/131/105 198/302/105 187/152/105 184/132/105
f 204/288/106 188/297/106 222/293/106 212/289/106
f 192/292/106 195/146/106 182/149/106 220/154/106
f 201/127/105 209/122/105 180/125/105 215/128/105
f 193/301/105 207/300/105 176/156/105 221/155/105
f 191/298/106 206/291/106 177/153/106 178/294/106
f 198/302/105 197/134/105 219/137/105 187/152/105
f 199/296/106 210/287/106 185/290/106 186/151/106
f 79/303/104 80/304/100 189/143/11 190/142/210
f 80/304/100 81/305/99 205/130/211 189/143/11
f 78/306/101 79/303/104 190/142/210 207/300/26
f 76/307/94 77/308/93 193/301/109 194/123/110
f 77/308/93 78/306/101 207/300/26 193/301/109
f 75/309/102 76/307/94 194/123/110 209/122/212
f 83/310/96 84/311/95 197/134/20 198/302/107
f 84/311/95 73/312/98 202/135/108 197/134/20
f 82/313/103 83/310/96 198/302/107 211/131/29
f 73/314/98 74/315/97 201/127/23 202/126/108
f 74/315/97 75/309/102 209/122/212 201/127/23
f 81/305/99 82/313/103 211/131/29 205/130/211
f 95/316/106 96/317/106 235/318/106 234/319/106
f 85/320/106 86/321/106 225/322/106 224/323/106
f 92/324/106 93/325/106 232/326/106 231/327/106
f 89/328/106 90/329/106 229/330/106 228/331/106
f 96/317/106 85/320/106 224/323/106 235/318/106
f 86/321/106 87/332/106 226/333/106 225/322/106
f 93/325/106 94/334/106 233/335/106 232/326/106
f 90/329/106 91/336/106 230/337/106 229/330/106
f 87/332/106 88/338/106 227/339/106 226/333/106
f 94/334/106 95/316/106 234/319/106 233/335/106
f 91/336/106 92/324/106 231/327/106 230/337/106
f 88/338/106 89/328/106 228/331/106 227/339/106
f 230/340/108 231/341/23 243/342/213 242/343/214
f 227/344/29 228/345/107 240/346/215 239/347/216
f 234/348/109 235/349/26 247/350/217 246/351/218
f 224/352/210 225/353/11 237/354/219 236/355/220
f 231/341/23 232/356/212 244/357/221 243/342/213
f 228/345/107 229/358/20 241/359/222 240/346/215
f 235/349/26 224/360/210 236/361/220 247/350/217
f 225/353/11 226/362/211 238/363/223 237/354/219
f 232/356/212 233/364/110 245/365/224 244/357/221
f 229/358/20 230/340/108 242/343/214 241/359/222
f 226/362/211 227/344/29 239/347/216 238/363/223
f 233/364/110 234/348/109 246/351/218 245/365/224
f 259/366/225 238/363/223 239/347/216
f 265/367/226 246/351/218 247/350/217
f 257/368/227 236/355/220 237/354/219
f 263/369/228 242/343/214 243/342/213
f 261/370/229 240/346/215 241/359/222
f 252/371/230 254/372/231 251/373/232 260/374/233
f 254/372/231 263/369/228 264/375/234 255/376/235
f 251/377/232 253/378/236 249/379/237
f 248/380/238 250/381/239 249/382/237 258/383/240
f 255/376/235 256/384/241 253/385/236 262/386/242
f 254/372/231 255/376/235 262/386/242 251/373/232
f 257/368/227 259/366/225 250/381/239 248/380/238
f 250/381/239 252/371/230 260/374/233 249/382/237
f 250/381/239 259/366/225 261/370/229 252/371/230
f 256/384/241 248/387/238 258/388/240 253/385/236
f 261/370/229 263/369/228 254/372/231 252/371/230
f 264/375/234 265/367/226 256/384/241 255/376/235
f 264/375/234 244/357/221 245/365/224
f 265/367/226 257/389/227 248/387/238 256/384/241
f 266/390/243 267/391/244 268/392/245 93/393/211
f 266/390/243 93/393/211 92/394/11 269/395/246
f 269/395/246 92/394/11 91/396/210 270/397/247
f 270/397/247 91/396/210 90/398/26 271/399/248
f 271/399/248 90/398/26 89/400/109 272/401/249
f 272/401/249 89/400/109 88/402/110 273/403/250
f 273/403/250 88/402/110 87/404/212 274/405/251
f 274/405/251 87/404/212 86/406/23 275/407/252
f 275/407/252 86/406/23 85/408/108 276/409/253
f 276/410/253 85/411/108 96/412/20 277/413/254
f 277/413/254 96/412/20 95/414/107 278/415/255
f 278/415/255 95/414/107 94/416/29 279/417/256
f 279/417/256 94/416/29 93/393/211 268/392/245
f 280/418/257 304/419/258 305/420/259 281/421/260
f 281/421/260 305/420/259 306/422/261 282/423/262
f 282/423/262 306/422/261 307/424/263 283/425/264
f 283/425/264 307/424/263 308/426/265 284/427/249
f 284/427/249 308/426/265 309/428/266 285/429/250
f 285/429/250 309/428/266 310/430/267 286/431/251
f 286/431/251 310/430/267 311/432/268 287/433/252
f 287/433/252 311/432/268 312/434/269 288/435/253
f 288/436/253 312/437/269 313/438/270 289/439/271
f 289/439/271 313/438/270 314/440/272 290/441/273
f 290/441/273 314/440/272 315/442/274 291/443/275
f 291/443/275 315/442/274 316/444/258 292/445/243
f 292/445/243 316/444/258 317/446/259 293/447/246
f 293/447/246 317/446/259 318/448/261 294/449/247
f 294/449/247 318/448/261 319/450/263 295/451/248
f 295/451/248 319/450/263 320/452/265 296/453/249
f 296/453/249 320/452/265 321/454/266 297/455/250
f 297/455/250 321/454/266 322/456/267 298/457/251
f 298/457/251 322/456/267 323/458/268 299/459/252
f 299/459/252 323/458/268 324/460/269 300/461/253
f 300/462/253 324/463/269 325/464/276 301/465/271
f 301/465/271 325/464/276 326/466/277 302/467/273
f 302/467/273 326/466/277 327/468/278 303/469/275
f 303/469/275 327/468/278 267/391/244 266/390/243
f 280/418/279 281/421/280 328/470/281
f 328/470/281 281/421/280 282/423/282 329/471/283
f 329/471/283 282/423/282 283/425/284 330/472/285
f 330/472/285 283/425/284 284/427/286 331/473/287
f 331/473/287 284/427/286 285/429/288 332/474/289
f 332/474/289 285/429/288 286/431/290 333/475/291
f 333/475/291 286/431/290 287/433/292 334/476/293
f 334/476/293 287/433/292 288/435/294 335/477/295
f 335/478/295 288/436/294 289/439/296 336/479/297
f 336/479/297 289/439/296 290/441/298 337/480/299
f 337/480/299 290/441/298 291/443/300 338/481/301
f 338/481/301 291/443/300 292/445/302 339/482/303
f 339/482/303 292/445/302 293/447/304 340/483/305
f 340/483/305 293/447/304 294/449/306 341/484/307
f 341/484/307 294/449/306 295/451/308 342/485/309
f 342/485/309 295/451/308 296/453/286 343/486/287
f 343/486/287 296/453/286 297/455/288 344/487/289
f 344/487/289 297/455/288 298/457/290 345/488/291
f 345/488/291 298/457/290 299/459/292 346/489/293
f 346/489/293 299/459/292 300/461/294 347/490/295
f 347/491/295 300/462/294 301/465/296 348/492/310
f 348/492/310 301/465/296 302/467/298 349/493/299
f 349/493/299 302/467/298 303/469/300 350/494/301
f 350/494/301 303/469/300 266/390/302 351/495/303
f 351/495/303 266/390/302 269/395/304 352/496/305
f 352/496/305 269/395/304 270/397/306 353/497/307
f 353/497/307 270/397/306 271/399/308 354/498/309
f 354/498/309 271/399/308 272/401/286 355/499/287
f 355/499/287 272/401/286 273/403/288 356/500/289
f 356/500/289 273/403/288 274/405/311 357/501/312
f 357/501/312 274/405/311 275/407/313 358/502/314
f 358/502/314 275/407/313 276/409/294 359/503/295
f 359/504/295 276/410/294 277/413/315 360/505/316
f 360/505/316 277/413/315 278/415/317 361/506/318
f 361/506/318 278/415/317 279/417/319 362/507/320
f 362/507/320 279/417/319 268/392/321
f 363/508/322 280/418/257 328/470/323 364/509/324
f 364/509/324 328/470/323 329/471/325 365/510/326
f 365/510/326 329/471/325 330/472/327 366/511/328
f 366/511/328 330/472/327 331/473/329 367/512/330
f 367/512/330 331/473/329 332/474/331 368/513/332
f 368/513/332 332/474/331 333/475/333 369/514/334
f 369/514/334 333/475/333 334/476/335 370/515/336
f 370/515/336 334/476/335 335/477/337 371/516/338
f 371/517/338 335/478/337 336/479/339 372/518/340
f 372/518/340 336/479/339 337/480/341 373/519/342
f 373/519/342 337/480/341 338/481/343 374/520/344
f 374/520/344 338/481/343 339/482/345 375/521/346
f 375/521/346 339/482/345 340/483/347 376/522/348
f 376/522/348 340/483/347 341/484/349 377/523/350
f 377/523/350 341/484/349 342/485/351 378/524/352
f 378/524/352 342/485/351 343/486/329 379/525/330
f 379/525/330 343/486/329 344/487/331 380/526/353
f 380/526/353 344/487/331 345/488/333 381/527/334
f 381/527/334 345/488/333 346/489/335 382/528/336
f 382/528/336 346/489/335 347/490/354 383/529/355
f 383/530/355 347/491/354 348/492/339 384/531/340
f 384/531/340 348/492/339 349/493/341 385/532/342
f 385/532/342 349/493/341 350/494/356 386/533/357
f 386/533/357 350/494/356 351/495/345 387/534/346
f 387/534/346 351/495/345 352/496/347 388/535/348
f 388/535/348 352/496/347 353/497/358 389/536/359
f 389/536/359 353/497/358 354/498/351 390/537/352
f 390/537/352 354/498/351 355/499/329 391/538/330
f 391/538/330 355/499/329 356/500/360 392/539/353
f 392/539/353 356/500/360 357/501/333 393/540/334
f 393/540/334 357/501/333 358/502/335 394/541/336
f 394/541/336 358/502/335 359/503/337 395/542/338
f 395/543/338 359/504/337 360/505/361 396/544/362
f 396/544/362 360/505/361 361/506/363 397/545/364
f 397/545/364 361/506/363 362/507/365 398/546/366
f 398/546/366 362/507/365 268/392/245 267/391/244
f 363/508/367 364/509/368 399/547/369
f 399/547/369 364/509/368 365/510/370 400/548/371
f 400/548/371 365/510/370 366/511/372 401/549/373
f 401/549/373 366/511/372 367/512/374 402/550/375
f 402/550/375 367/512/374 368/513/376 403/551/377
f 403/551/377 368/513/376 369/514/378 404/552/379
f 404/552/379 369/514/378 370/515/380 405/553/381
f 405/553/381 370/515/380 371/516/382 406/554/383
f 406/555/383 371/517/382 372/518/384 407/556/385
f 407/556/385 372/518/384 373/519/386 408/557/387
f 408/557/387 373/519/386 374/520/388 409/558/389
f 409/558/389 374/520/388 375/521/390 304/419/391
f 304/419/391 375/521/390 376/522/392 305/420/393
f 305/420/393 376/522/392 377/523/394 306/422/395
f 306/422/395 377/523/394 378/524/396 307/424/397
f 307/424/397 378/524/396 379/525/398 308/426/399
f 308/426/399 379/525/398 380/526/376 309/428/377
f 309/428/377 380/526/376 381/527/400 310/430/379
f 310/430/379 381/527/400 382/528/380 311/432/381
f 311/432/381 382/528/380 383/529/382 312/434/383
f 312/437/383 383/530/382 384/531/384 313/438/385
f 313/438/385 384/531/384 385/532/386 314/440/387
f 314/440/387 385/532/386 386/533/388 315/442/389
f 315/442/389 386/533/388 387/534/390 316/444/391
f 316/444/391 387/534/390 388/535/401 317/446/393
f 317/446/393 388/535/401 389/536/394 318/448/395
f 318/448/395 389/536/394 390/537/396 319/450/397
f 319/450/397 390/537/396 391/538/398 320/452/399
f 320/452/399 391/538/398 392/539/376 321/454/377
f 321/454/377 392/539/376 393/540/378 322/456/379
f 322/456/379 393/540/378 394/541/380 323/458/381
f 323/458/381 394/541/380 395/542/382 324/460/383
f 324/463/383 395/543/382 396/544/402 325/464/403
f 325/464/403 396/544/402 397/545/404 326/466/405
f 326/466/405 397/545/404 398/546/406 327/468/407
f 327/468/407 398/546/406 267/391/408
f 204/288/211 363/508/322 399/547/409 188/297/11
f 188/297/11 399/547/409 400/548/410 191/298/210
f 191/298/210 400/548/410 401/549/411 206/291/26
f 206/291/26 401/549/411 402/550/265 192/292/109
f 192/292/109 402/550/265 403/551/266 195/146/110
f 195/146/110 403/551/266 404/552/267 208/147/212
f 208/147/212 404/552/267 405/553/268 200/138/23
f 200/138/23 405/553/268 406/554/269 203/139/108
f 203/299/108 406/555/269 407/556/270 196/295/20
f 196/295/20 407/556/270 408/557/272 199/296/107
f 199/296/107 408/557/272 409/558/274 210/287/29
f 210/287/29 409/558/274 304/419/258 204/288/211
f 204/288/211 304/419/258 280/418/257 363/508/322
f 111/163/412 109/227/413 158/226/414
f 158/226/415 159/161/112 111/163/114
f 120/166/416 118/240/417 161/239/418
f 161/239/419 160/164/115 120/166/117
f 108/199/420 106/218/421 162/217/422
f 162/217/423 163/180/127 108/199/129
f 103/195/424 154/198/425 105/213/426
f 154/198/427 155/192/142 105/213/144
f 115/187/428 152/190/429 117/214/430
f 152/190/431 153/184/145 117/214/147
f 112/171/432 156/174/433 114/219/434
f 156/174/435 157/168/149 114/219/151
f 14/57/52 50/77/71 49/99/70 13/94/31
f 239/347/216 240/346/215 261/370/229
f 261/370/229 259/366/225 239/347/216
f 247/350/217 236/361/220 257/389/227
f 257/389/227 265/367/226 247/350/217
f 237/354/219 238/363/223 259/366/225
f 259/366/225 257/368/227 237/354/219
f 243/342/213 244/357/221 264/375/234
f 264/375/234 263/369/228 243/342/213
f 241/359/222 242/343/214 263/369/228
f 263/369/228 261/370/229 241/359/222
f 245/365/224 246/351/218 265/367/226
f 265/367/226 264/375/234 245/365/224
f 249/379/237 260/559/233 251/377/232
f 251/377/232 262/560/242 253/378/236
f 253/378/236 258/561/240 249/379/237
f 425/562/436 422/563/437 423/564/438 424/565/439
f 427/566/440 425/562/436 424/565/439 426/567/441
f 429/568/442 427/566/440 426/567/441 428/569/443
f 431/570/444 429/568/442 428/569/443 430/571/445
f 433/572/446 431/570/444 430/571/445 432/573/447
f 435/574/448 433/572/446 432/573/447 434/575/449
f 437/576/450 435/574/448 434/575/449 436/577/451
f 439/578/452 437/576/450 436/577/451 438/579/453
f 441/580/454 439/578/452 438/579/453 440/581/455
f 443/582/456 441/580/454 440/581/455 442/583/457
f 445/584/458 443/582/456 442/583/457 444/585/459
f 422/586/437 445/584/458 444/585/459 423/587/438
f 424/565/439 423/564/438 410/588/108 411/589/23
f 425/590/436 427/591/440 429/592/442
f 423/587/438 444/585/459 421/593/20 410/594/108
f 426/567/441 424/565/439 411/589/23 412/595/212
f 428/569/443 426/567/441 412/595/212 413/596/110
f 430/571/445 428/569/443 413/596/110 414/597/109
f 432/573/447 430/571/445 414/597/109 415/598/26
f 434/575/449 432/573/447 415/598/26 416/599/210
f 436/577/451 434/575/449 416/599/210 417/600/11
f 438/579/453 436/577/451 417/600/11 418/601/211
f 440/581/455 438/579/453 418/601/211 419/602/29
f 442/583/457 440/581/455 419/602/29 420/603/107
f 444/585/459 442/583/457 420/603/107 421/593/20
f 412/604/105 411/605/105 447/606/105 448/607/105
f 419/608/105 418/609/105 454/610/105 455/611/105
f 416/612/105 415/613/105 451/614/105 452/615/105
f 413/616/105 412/604/105 448/607/105 449/617/105
f 420/618/105 419/608/105 455/611/105 456/619/105
f 417/620/105 416/612/105 452/615/105 453/621/105
f 414/622/105 413/616/105 449/617/105 450/623/105
f 421/624/105 420/618/105 456/619/105 457/625/105
f 411/605/105 410/626/105 446/627/105 447/606/105
f 418/609/105 417/620/105 453/621/105 454/610/105
f 415/613/105 414/622/105 450/623/105 451/614/105
f 410/626/105 421/624/105 457/625/105 446/627/105
f 456/628/109 455/629/110 467/630/110 468/631/109
f 453/632/23 452/633/108 464/634/108 465/635/23
f 450/636/107 449/637/29 461/638/29 462/639/107
f 457/640/26 456/628/109 468/631/109 469/641/26
f 447/642/11 446/643/210 458/644/210 459/645/11
f 454/646/212 453/632/23 465/635/23 466/647/212
f 451/648/20 450/636/107 462/639/107 463/649/20
f 446/650/210 457/640/26 469/641/26 458/651/210
f 448/652/211 447/642/11 459/645/11 460/653/211
f 455/629/110 454/646/212 466/647/212 467/630/110
f 452/633/108 451/648/20 463/649/20 464/634/108
f 449/637/29 448/652/211 460/653/211 461/638/29
f 468/654/105 466/655/105 465/656/105
f 437/657/450 445/658/458 422/659/437 435/660/448
f 443/661/456 437/657/450 439/662/452
f 435/660/448 422/659/437 425/590/436 433/663/446
f 459/664/105 458/665/105 464/666/105 463/667/105
f 458/665/105 469/668/105 465/656/105 464/666/105
f 459/664/105 463/667/105 462/669/105
f 465/656/105 469/668/105 468/654/105
f 468/654/105 467/670/105 466/655/105
f 461/671/105 460/672/105 462/669/105
f 460/672/105 459/664/105 462/669/105
f 431/673/444 433/663/446 429/592/442
f 433/663/446 425/590/436 429/592/442
f 439/662/452 441/674/454 443/661/456
f 443/661/456 445/658/458 437/657/450
f 109/3/3 111/23/23 2/22/22
f 2/22/22 1/1/1 109/3/3
f 106/6/6 108/20/20 12/19/19
f 12/19/19 11/4/4 106/6/6
f 115/9/9 117/29/29 10/28/28
f 10/28/28 9/7/7 115/9/9
f 104/12/12 98/8/8 9/7/7
f 9/7/7 8/10/10 104/12/12
f 103/15/15 105/11/11 8/10/10
f 8/10/10 7/13/13 103/15/15
f 112/18/18 114/26/26 6/25/25
f 6/25/25 5/16/16 112/18/18
f 107/21/21 102/205/2 1/675/1
f 1/675/1 12/19/19 107/21/21
f 110/24/24 99/201/130 3/200/80
f 3/200/80 2/22/22 110/24/24
f 113/27/27 100/14/14 7/13/13
f 7/13/13 6/25/25 113/27/27
f 116/30/30 101/5/5 11/4/4
f 11/4/4 10/28/28 116/30/30
f 119/160/111 97/17/17 5/16/16
f 5/16/16 4/158/50 119/160/111
f 118/202/131 120/159/110 4/158/50
f 4/158/50 3/200/80 118/202/131
s 0
f 137/676/105 143/271/105 138/234/105
f 143/271/105 142/232/105 138/234/105
f 121/677/105 151/259/105 122/243/105
f 151/259/105 150/241/105 122/243/105
f 129/678/105 149/262/105 125/250/105
f 149/262/105 148/248/105 125/250/105
f 123/679/105 147/265/105 124/253/105
f 147/265/105 146/251/105 124/253/105
f 134/680/105 145/268/105 135/256/105
f 145/268/105 144/254/105 135/256/105
f 131/273/105 132/681/105 141/244/105
f 141/244/105 140/247/105 131/273/105
