# Blender 4.5.10 LTS
# www.blender.org
mtllib canned_water.mtl
o canned_water
v -0.048095 1.000000 0.075514
v -0.083303 1.000000 0.040307
v -0.096190 1.000000 -0.007788
v -0.048095 1.000000 -0.091091
v 0.000000 1.000000 -0.103978
v 0.083303 1.000000 0.040307
v -0.045625 0.978441 0.071237
v -0.079026 0.978441 -0.053414
v -0.045625 0.978441 -0.086814
v 0.000000 0.978441 -0.099039
v 0.079026 0.978441 -0.053414
v 0.045625 0.978441 0.071237
v -0.056061 1.013227 0.089313
v 0.000000 1.013227 0.104335
v 0.000000 1.000000 0.088401
v -0.097101 1.013227 0.048273
v -0.112123 1.013227 -0.007788
v -0.083303 1.000000 -0.055883
v -0.097101 1.013227 -0.063850
v -0.056061 1.013227 -0.104889
v 0.000000 1.013227 -0.119911
v 0.048095 1.000000 -0.091091
v 0.056061 1.013227 -0.104889
v 0.083303 1.000000 -0.055883
v 0.097101 1.013227 -0.063850
v 0.096190 1.000000 -0.007788
v 0.112123 1.013227 -0.007788
v 0.097101 1.013227 0.048273
v 0.048095 1.000000 0.075514
v 0.056061 1.013227 0.089313
v -0.048095 1.328517 0.075514
v -0.083303 1.328517 0.040306
v -0.096190 1.328517 -0.007788
v -0.048095 1.328517 -0.091091
v 0.000000 1.328517 -0.103978
v 0.083303 1.328517 0.040306
v -0.045625 1.350076 0.071237
v -0.091251 1.350076 -0.007788
v -0.079026 1.350076 -0.053414
v -0.045625 1.350076 -0.086814
v 0.000000 1.350076 -0.099039
v 0.045625 1.350076 -0.086814
v 0.079026 1.350076 0.037837
v 0.045625 1.350076 0.071237
v -0.056061 1.315290 0.089313
v 0.000000 1.315290 0.104335
v 0.000000 1.328517 0.088401
v -0.097101 1.315290 0.048273
v -0.112123 1.315290 -0.007788
v -0.083303 1.328517 -0.055883
v -0.097101 1.315290 -0.063850
v -0.056061 1.315290 -0.104890
v 0.000000 1.315290 -0.119911
v 0.048095 1.328517 -0.091091
v 0.056061 1.315290 -0.104890
v 0.083303 1.328517 -0.055883
v 0.097101 1.315290 -0.063850
v 0.096190 1.328517 -0.007788
v 0.112123 1.315290 -0.007788
v 0.097101 1.315290 0.048273
v 0.048095 1.328517 0.075514
v 0.056061 1.315290 0.089313
v 0.083303 1.336308 -0.055883
v -0.083303 1.336308 -0.055883
v 0.048095 1.336308 -0.091091
v 0.096190 1.336308 -0.007788
v -0.048095 1.336308 0.075514
v -0.083303 0.992209 -0.055883
v 0.048095 0.992209 -0.091091
v 0.000000 0.992209 0.088401
v 0.048095 0.992209 0.075514
v -0.096190 0.992209 -0.007788
v 0.083303 0.992209 0.040307
v -0.048095 0.992209 0.075514
v -0.048095 0.992209 -0.091091
v -0.083303 0.992209 0.040307
v 0.000000 0.990270 0.093118
v 0.000000 0.980381 0.093118
v 0.000000 0.978441 0.083463
v -0.050453 0.980381 0.079599
v -0.079026 0.978441 0.037837
v -0.087387 0.980381 0.042665
v -0.091251 0.978441 -0.007788
v -0.100906 0.980381 -0.007788
v -0.087387 0.980381 -0.058241
v -0.050453 0.980381 -0.095175
v -0.000000 0.980381 -0.108694
v 0.045625 0.978441 -0.086814
v 0.050453 0.980381 -0.095175
v 0.087387 0.980381 -0.058241
v 0.091251 0.978441 -0.007788
v 0.100906 0.980381 -0.007788
v 0.079026 0.978441 0.037837
v 0.087387 0.980381 0.042665
v 0.050453 0.980381 0.079599
v -0.000000 0.990270 -0.108694
v 0.000000 0.992209 -0.103978
v -0.100906 0.990270 -0.007788
v 0.087387 0.990270 0.042665
v 0.000000 1.336308 0.088401
v 0.000000 1.338248 0.093118
v 0.000000 1.350076 0.083463
v 0.000000 1.348136 0.093118
v -0.050453 1.348136 0.079599
v -0.087387 1.348136 0.042665
v -0.079026 1.350076 0.037837
v -0.100906 1.348136 -0.007788
v -0.087387 1.348136 -0.058241
v -0.050453 1.348136 -0.095175
v -0.000000 1.348136 -0.108694
v 0.050453 1.348136 -0.095175
v 0.087387 1.348136 -0.058241
v 0.079026 1.350076 -0.053414
v 0.100906 1.348136 -0.007788
v 0.091251 1.350076 -0.007788
v 0.087387 1.348136 0.042665
v 0.050453 1.348136 0.079599
v 0.000000 1.336308 -0.103978
v -0.000000 1.338247 -0.108694
v -0.096190 1.336308 -0.007788
v -0.100906 1.338248 -0.007788
v 0.083303 1.336308 0.040306
v 0.087387 1.338248 0.042665
v 0.087387 1.338247 -0.058241
v -0.087387 1.338247 -0.058241
v 0.050453 1.338247 -0.095175
v 0.100906 1.338248 -0.007788
v 0.050453 1.338248 0.079599
v 0.048095 1.336308 0.075514
v -0.050453 1.338248 0.079599
v -0.050453 1.338247 -0.095175
v -0.048095 1.336308 -0.091091
v -0.087387 1.338248 0.042665
v -0.083303 1.336308 0.040306
v 0.083303 0.992209 -0.055883
v 0.087387 0.990270 -0.058241
v -0.087387 0.990270 -0.058241
v 0.050453 0.990270 -0.095175
v 0.096190 0.992209 -0.007788
v 0.100906 0.990270 -0.007788
v 0.050453 0.990270 0.079599
v -0.050453 0.990270 0.079599
v -0.050453 0.990270 -0.095175
v -0.087387 0.990270 0.042665
v -0.083303 0.978441 -0.055883
v -0.096190 0.978441 -0.007788
v -0.048095 0.978441 -0.091091
v 0.000000 0.978441 -0.103978
v -0.096190 1.350076 -0.007788
v -0.083303 1.350076 0.040306
v -0.083303 1.350076 -0.055883
v -0.048095 1.350076 -0.091091
v 0.000000 1.350076 -0.103978
v 0.048095 1.350076 -0.091091
v 0.048095 1.350076 0.075514
v 0.083303 1.350076 0.040306
v -0.083303 0.978441 0.040307
v -0.048095 0.978441 0.075514
v -0.048095 1.350076 0.075514
v 0.048095 0.978441 -0.091091
v 0.000000 1.350076 0.088401
v 0.096190 1.350076 -0.007788
v 0.000000 0.978441 0.088401
v 0.048095 0.978441 0.075514
v 0.083303 0.978441 0.040307
v 0.096190 0.978441 -0.007788
v 0.083303 0.978441 -0.055883
v 0.083303 1.350076 -0.055883
v -0.091251 0.992209 -0.007788
v -0.091251 1.336308 -0.007788
v -0.079026 1.336308 0.037837
v -0.079026 1.336308 -0.053414
v -0.045625 1.336308 -0.086814
v 0.000000 1.336308 -0.099039
v 0.045625 1.336308 -0.086814
v 0.079026 1.336308 0.037837
v -0.045625 0.992209 0.071237
v -0.045625 1.336308 0.071237
v 0.091251 1.336308 -0.007788
v 0.045625 0.992209 0.071237
v 0.079026 0.992209 0.037837
v 0.079026 1.336308 -0.053414
v 0.000000 1.336308 0.083457
v 0.045625 1.336308 0.071237
v -0.009311 1.336308 0.071237
v -0.018352 1.336308 0.062196
v 0.016180 1.336308 0.062196
v 0.007139 1.336308 0.071237
v 0.021180 1.336308 0.029317
v 0.012139 1.336308 0.020276
v -0.023352 1.336308 0.029317
v -0.014311 1.336308 0.020276
v 0.045625 1.300529 0.071237
v 0.000000 1.300529 0.083457
v 0.079026 1.300529 -0.053414
v 0.091251 1.300529 -0.007788
v -0.045625 1.300529 0.071237
v 0.079026 1.300529 0.037837
v 0.045625 1.300529 -0.086814
v 0.000000 1.300529 -0.099039
v -0.045625 1.300529 -0.086814
v -0.079026 1.300529 -0.053414
v -0.079026 1.300529 0.037837
v -0.091251 1.300529 -0.007788
v -0.009311 1.334310 0.071237
v -0.018352 1.334310 0.062196
v 0.016180 1.334310 0.062196
v 0.007139 1.334310 0.071237
v 0.021180 1.334310 0.029317
v 0.012139 1.334310 0.020276
v -0.023352 1.334310 0.029317
v -0.014311 1.334310 0.020276
v 0.000000 0.992209 0.083458
v 0.079026 0.992209 -0.053414
v 0.091251 0.992209 -0.007788
v 0.045625 0.992209 -0.086814
v 0.000000 0.992209 -0.099039
v -0.045625 0.992209 -0.086814
v -0.079026 0.992209 -0.053414
v -0.079026 0.992209 0.037837
v -0.001086 1.335961 0.020421
v 0.004559 1.335961 0.014777
v -0.001086 1.335961 0.009132
v -0.006730 1.335961 0.014777
v -0.001086 1.343652 0.020421
v 0.004559 1.343652 0.014777
v -0.001086 1.343652 0.009132
v -0.006730 1.343652 0.014777
v -0.009311 1.334310 0.071237
v -0.018352 1.334310 0.062196
v 0.007139 1.334310 0.071237
v 0.012139 1.334310 0.020276
v -0.008483 1.336308 0.069239
v -0.016475 1.336308 0.061247
v 0.016180 1.334310 0.062196
v 0.014304 1.336308 0.061247
v 0.006312 1.336308 0.069239
v 0.021180 1.334310 0.029317
v 0.019053 1.336308 0.030016
v 0.011312 1.336308 0.022274
v -0.023352 1.334310 0.029317
v -0.021225 1.336308 0.030016
v -0.014311 1.334310 0.020276
v -0.013483 1.336308 0.022274
v 0.020446 1.337759 -0.022433
v -0.027688 1.337759 -0.070876
v 0.025516 1.337759 -0.035993
v -0.027688 1.337759 -0.035993
v -0.022617 1.337759 -0.022433
v -0.022617 1.337759 0.023124
v 0.020446 1.337759 0.023124
v 0.025516 1.337759 -0.070876
v -0.001086 1.337759 0.031808
v -0.017215 1.337759 -0.023995
v -0.022911 1.337759 -0.037555
v 0.015043 1.337759 -0.023995
v -0.022911 1.337759 -0.060644
v 0.020739 1.337759 -0.037555
v 0.020739 1.337759 -0.060644
v -0.017215 1.342468 -0.023995
v -0.022911 1.342468 -0.037555
v 0.015043 1.342468 -0.023995
v -0.022911 1.342468 -0.060644
v 0.020739 1.342468 -0.037555
v 0.020739 1.342468 -0.060644
v -0.022617 1.342468 -0.022433
v -0.027688 1.342468 -0.035993
v 0.020446 1.342468 -0.022433
v -0.027688 1.342468 -0.070876
v 0.025516 1.342468 -0.035993
v 0.025516 1.342468 -0.070876
v -0.022617 1.342468 0.023124
v -0.001086 1.342468 0.031808
v 0.010319 1.337759 0.011182
v -0.017215 1.337759 -0.000223
v -0.001086 1.337759 0.015906
v -0.012491 1.337759 0.011182
v 0.015043 1.342468 -0.000223
v -0.001086 1.342468 0.015906
v 0.020419 1.342468 0.023077
v 0.010319 1.342468 0.011182
v -0.012491 1.342468 0.011182
v 0.015043 1.337759 -0.000223
v 0.010319 1.337759 -0.011628
v -0.001086 1.337759 -0.016352
v -0.012491 1.337759 -0.011628
v -0.001086 1.342468 -0.016352
v 0.010319 1.342468 -0.011628
v -0.017215 1.342468 -0.000223
v -0.012491 1.342468 -0.011628
vn 1.0000 -0.0000 -0.0000
vn 0.8660 -0.0000 0.5000
vn -0.4582 -0.4002 0.7937
vn -0.4454 -0.4545 0.7714
vn -0.0000 -0.4545 0.8907
vn -0.0000 -0.4002 0.9164
vn -0.7937 -0.4002 0.4582
vn -0.7714 -0.4545 0.4454
vn -0.9164 -0.4002 -0.0000
vn -0.8907 -0.4545 -0.0000
vn -0.7937 -0.4002 -0.4582
vn -0.7714 -0.4545 -0.4454
vn -0.4582 -0.4002 -0.7937
vn -0.4454 -0.4545 -0.7714
vn -0.0000 -0.4002 -0.9164
vn -0.0000 -0.4545 -0.8907
vn 0.4582 -0.4002 -0.7937
vn 0.4454 -0.4545 -0.7714
vn 0.7937 -0.4002 -0.4582
vn 0.7714 -0.4545 -0.4454
vn 0.9164 -0.4002 -0.0000
vn 0.8907 -0.4545 -0.0000
vn 0.7937 -0.4002 0.4582
vn 0.7714 -0.4545 0.4454
vn 0.4582 -0.4002 0.7937
vn 0.4454 -0.4545 0.7714
vn 0.4582 0.4002 0.7937
vn -0.0000 0.4002 0.9164
vn -0.9164 0.4002 -0.0000
vn -0.7937 0.4002 0.4582
vn -0.7937 0.4002 -0.4582
vn -0.4582 0.4002 -0.7937
vn -0.0000 0.4002 -0.9164
vn 0.4582 0.4002 -0.7937
vn 0.7937 0.4002 -0.4582
vn 0.9164 0.4002 -0.0000
vn 0.7937 0.4002 0.4582
vn -0.4582 0.4002 0.7937
vn -0.5000 -0.0000 0.8660
vn -0.0000 -0.0000 1.0000
vn -0.0000 0.4545 0.8907
vn -0.4454 0.4545 0.7714
vn -0.7714 0.4545 0.4454
vn -0.8907 0.4545 -0.0000
vn -0.7714 0.4545 -0.4454
vn -0.4454 0.4545 -0.7714
vn -0.0000 0.4545 -0.8907
vn 0.4454 0.4545 -0.7714
vn 0.7714 0.4545 -0.4454
vn 0.8907 0.4545 -0.0000
vn 0.7714 0.4545 0.4454
vn 0.4454 0.4545 0.7714
vn 0.8963 -0.4435 -0.0000
vn 0.7763 -0.4435 0.4480
vn -0.7762 -0.4435 0.4481
vn -0.8963 -0.4435 0.0002
vn -0.4481 -0.4435 -0.7762
vn 0.0001 -0.4435 -0.8963
vn 0.7762 -0.4435 -0.4481
vn -0.4481 -0.4435 0.7762
vn 0.4481 -0.4435 0.7762
vn 0.0002 -0.4435 0.8963
vn -0.7762 -0.4435 -0.4481
vn 0.4481 -0.4435 -0.7762
vn 0.7762 0.4435 0.4481
vn 0.8963 0.4435 0.0002
vn -0.8963 0.4435 -0.0000
vn -0.7762 0.4435 0.4482
vn -0.0000 0.4435 -0.8963
vn -0.4482 0.4435 -0.7762
vn 0.7762 0.4435 -0.4482
vn -0.4481 0.4435 0.7762
vn -0.0000 0.4435 0.8963
vn 0.4482 0.4435 0.7762
vn -0.7762 0.4435 -0.4481
vn 0.4481 0.4435 -0.7762
vn -0.4656 -0.3647 0.8064
vn -0.1009 -0.9794 0.1748
vn -0.0000 -0.9794 0.2018
vn -0.0000 -0.3647 0.9311
vn -0.8064 -0.3647 0.4654
vn -0.1748 -0.9794 0.1009
vn -0.9311 -0.3647 -0.0000
vn -0.2018 -0.9794 -0.0000
vn -0.8063 -0.3647 -0.4656
vn -0.1748 -0.9794 -0.1009
vn -0.4654 -0.3647 -0.8065
vn -0.1009 -0.9794 -0.1748
vn -0.0000 -0.3647 -0.9311
vn -0.0000 -0.9794 -0.2018
vn 0.4656 -0.3647 -0.8064
vn 0.1009 -0.9794 -0.1748
vn 0.8064 -0.3647 -0.4655
vn 0.1748 -0.9794 -0.1009
vn 0.9311 -0.3647 -0.0000
vn 0.2018 -0.9794 -0.0000
vn 0.8064 -0.3647 0.4656
vn 0.1748 -0.9794 0.1009
vn 0.4655 -0.3647 0.8064
vn 0.1009 -0.9794 0.1748
vn -0.1009 0.9794 0.1747
vn -0.4656 0.3647 0.8064
vn -0.0000 0.3647 0.9311
vn -0.0000 0.9794 0.2018
vn -0.1748 0.9794 0.1009
vn -0.8064 0.3647 0.4656
vn -0.2018 0.9794 -0.0000
vn -0.9311 0.3647 -0.0000
vn -0.1748 0.9794 -0.1009
vn -0.8064 0.3647 -0.4656
vn -0.1009 0.9794 -0.1748
vn -0.4656 0.3647 -0.8064
vn -0.0000 0.9794 -0.2018
vn -0.0000 0.3647 -0.9311
vn 0.1009 0.9794 -0.1748
vn 0.4656 0.3647 -0.8064
vn 0.1748 0.9794 -0.1009
vn 0.8064 0.3647 -0.4656
vn 0.2018 0.9794 -0.0000
vn 0.9311 0.3647 -0.0000
vn 0.1748 0.9794 0.1009
vn 0.8064 0.3647 0.4656
vn 0.1009 0.9794 0.1748
vn 0.4656 0.3647 0.8064
vn -0.8064 -0.3647 0.4656
vn 0.0001 -0.3647 -0.9311
vn -0.4656 -0.3647 -0.8064
vn 0.8064 -0.3647 -0.4656
vn 0.4656 -0.3647 0.8064
vn -0.8064 -0.3647 -0.4656
vn 0.8063 0.3647 -0.4656
vn -0.4655 0.3647 0.8064
vn 0.4657 0.3647 0.8063
vn -0.8064 0.3647 -0.4655
vn 0.4655 0.3647 -0.8064
vn -0.0000 -1.0000 -0.0000
vn -0.8660 -0.0000 0.5000
vn -0.0000 0.0002 -1.0000
vn 0.5000 0.0001 -0.8660
vn 0.5000 -0.0000 0.8660
vn -0.5000 0.0001 -0.8660
vn -1.0000 -0.0000 -0.0000
vn -0.8660 -0.0000 -0.5000
vn 0.8660 -0.0000 -0.5000
vn 0.5000 -0.0001 -0.8660
vn -0.0000 -0.0002 -1.0000
vn -0.5000 -0.0001 -0.8660
vn -0.0000 1.0000 -0.0000
vn 0.5000 -0.0000 -0.8661
vn -0.0000 -0.0000 -1.0000
vn -0.5000 -0.0000 -0.8661
vn 0.9501 -0.0000 0.3119
vn 0.8924 -0.0000 -0.4512
vn 0.3827 -0.0000 -0.9239
vn -0.3827 -0.0000 -0.9239
vn -0.8924 -0.0000 -0.4512
vn -0.9501 -0.0000 0.3119
vn -0.3827 -0.0000 0.9239
vn 0.3827 -0.0000 0.9239
vn -0.8456 -0.3195 0.4276
vn -0.3645 -0.3048 0.8799
vn -0.2597 0.7345 0.6269
vn -0.6147 0.7250 0.3108
vn 0.3645 -0.3048 0.8799
vn 0.8456 -0.3195 0.4276
vn 0.6147 0.7250 0.3108
vn 0.2597 0.7345 0.6269
vn 0.9093 -0.2901 -0.2985
vn 0.6326 0.7461 -0.2077
vn 0.3645 -0.3048 -0.8799
vn 0.2597 0.7345 -0.6269
vn -0.3645 -0.3048 -0.8799
vn -0.2597 0.7345 -0.6269
vn -0.9093 -0.2901 -0.2985
vn -0.6326 0.7461 -0.2077
vn 0.5535 -0.0000 -0.8329
vn 0.9803 -0.0000 -0.1975
vn -0.8289 -0.0000 0.5594
vn 0.0006 0.0030 1.0000
vn 0.7071 -0.0000 -0.7071
vn -0.7071 -0.0000 -0.7071
vn -0.9840 -0.0000 0.1780
vn 0.7071 -0.0000 0.7071
vn 0.8281 0.0051 0.5606
vn 0.8301 0.0051 0.5576
vn 0.9840 0.0014 0.1781
vn -0.7071 -0.0000 0.7071
vn -0.9803 -0.0000 -0.1975
vn 0.9840 -0.0000 0.1780
vn -0.5535 -0.0000 -0.8329
vt 0.186201 0.585409
vt 0.186203 0.603121
vt 0.125438 0.603127
vt 0.125436 0.585415
vt 0.490033 0.481160
vt 0.490033 0.508511
vt 0.420587 0.508511
vt 0.420587 0.481160
vt 0.559480 0.481160
vt 0.559480 0.508511
vt 0.628927 0.481160
vt 0.628927 0.508511
vt 0.698374 0.481160
vt 0.698374 0.508511
vt 0.767820 0.481160
vt 0.767820 0.508511
vt 0.837267 0.481160
vt 0.837267 0.508511
vt 0.073353 0.481160
vt 0.073353 0.508511
vt 0.003906 0.508511
vt 0.003906 0.481160
vt 0.142800 0.481160
vt 0.142800 0.508511
vt 0.212246 0.481160
vt 0.212246 0.508511
vt 0.281693 0.481160
vt 0.281693 0.508511
vt 0.351140 0.481160
vt 0.351140 0.508511
vt 0.351140 0.074741
vt 0.420587 0.074741
vt 0.628927 0.074741
vt 0.559480 0.074741
vt 0.698374 0.074741
vt 0.767820 0.074741
vt 0.837267 0.074741
vt 0.073353 0.074741
vt 0.003906 0.074741
vt 0.142800 0.074741
vt 0.212246 0.074741
vt 0.281693 0.074741
vt 0.490033 0.074741
vt 0.064671 0.559889
vt 0.064673 0.577601
vt 0.003908 0.577607
vt 0.003906 0.559895
vt 0.420587 0.047436
vt 0.490033 0.047436
vt 0.559480 0.047436
vt 0.628927 0.047436
vt 0.698374 0.047436
vt 0.767820 0.047436
vt 0.837267 0.047436
vt 0.003906 0.047436
vt 0.073353 0.047436
vt 0.142800 0.047436
vt 0.212246 0.047436
vt 0.281693 0.047436
vt 0.351140 0.047436
vt 0.212246 0.036954
vt 0.281693 0.036954
vt 0.559480 0.036954
vt 0.628927 0.036954
vt 0.767820 0.036954
vt 0.837267 0.036954
vt 0.142800 0.036954
vt 0.490033 0.036954
vt 0.351140 0.036954
vt 0.420587 0.036954
vt 0.698374 0.036954
vt 0.073353 0.036954
vt 0.003906 0.036954
vt 0.281693 0.518993
vt 0.212246 0.518993
vt 0.628927 0.518993
vt 0.559480 0.518993
vt 0.837267 0.518993
vt 0.767820 0.518993
vt 0.142800 0.518993
vt 0.490033 0.518993
vt 0.420587 0.518993
vt 0.351140 0.518993
vt 0.698374 0.518993
vt 0.073353 0.518993
vt 0.003906 0.518993
vt 0.490033 0.538961
vt 0.490033 0.545623
vt 0.420587 0.545623
vt 0.420587 0.538961
vt 0.559480 0.538961
vt 0.559480 0.545623
vt 0.628927 0.538961
vt 0.628927 0.545623
vt 0.698374 0.538961
vt 0.698374 0.545623
vt 0.767820 0.538961
vt 0.767820 0.545623
vt 0.837267 0.538961
vt 0.837267 0.545623
vt 0.073353 0.538961
vt 0.073353 0.545623
vt 0.003906 0.545623
vt 0.003906 0.538961
vt 0.142800 0.538961
vt 0.142800 0.545623
vt 0.212246 0.538961
vt 0.212246 0.545623
vt 0.281693 0.538961
vt 0.281693 0.545623
vt 0.351140 0.538961
vt 0.351140 0.545623
vt 0.490033 0.010325
vt 0.490033 0.016987
vt 0.420587 0.016987
vt 0.420587 0.010325
vt 0.559480 0.010325
vt 0.559480 0.016987
vt 0.628927 0.010325
vt 0.628927 0.016987
vt 0.698374 0.010325
vt 0.698374 0.016987
vt 0.767820 0.010325
vt 0.767820 0.016987
vt 0.837267 0.010325
vt 0.837267 0.016987
vt 0.073353 0.010325
vt 0.073353 0.016987
vt 0.003906 0.016987
vt 0.003906 0.010325
vt 0.142800 0.010325
vt 0.142800 0.016987
vt 0.212246 0.010325
vt 0.212246 0.016987
vt 0.281693 0.010325
vt 0.281693 0.016987
vt 0.351140 0.010325
vt 0.351140 0.016987
vt 0.281693 0.030292
vt 0.212246 0.030292
vt 0.628927 0.030292
vt 0.559480 0.030292
vt 0.837267 0.030292
vt 0.767820 0.030292
vt 0.142800 0.030292
vt 0.490033 0.030292
vt 0.420587 0.030292
vt 0.351140 0.030292
vt 0.698374 0.030292
vt 0.073353 0.030292
vt 0.003906 0.030292
vt 0.212246 0.525655
vt 0.281693 0.525655
vt 0.559480 0.525655
vt 0.628927 0.525655
vt 0.767820 0.525655
vt 0.837267 0.525655
vt 0.142800 0.525655
vt 0.490033 0.525655
vt 0.351140 0.525655
vt 0.420587 0.525655
vt 0.698374 0.525655
vt 0.073353 0.525655
vt 0.003906 0.525655
vt 0.142800 0.552041
vt 0.212246 0.552041
vt 0.977491 0.750266
vt 0.993218 0.808960
vt 0.875829 0.926342
vt 0.125436 0.559883
vt 0.125438 0.577595
vt 0.368495 0.585392
vt 0.368495 0.603104
vt 0.307732 0.603109
vt 0.307731 0.585398
vt 0.064673 0.603133
vt 0.064671 0.585421
vt 0.429260 0.585398
vt 0.429259 0.603109
vt 0.550790 0.585409
vt 0.550788 0.603121
vt 0.490024 0.603115
vt 0.490025 0.585404
vt 0.003908 0.603138
vt 0.003906 0.585427
vt 0.550790 0.559877
vt 0.550788 0.577589
vt 0.490024 0.577583
vt 0.490025 0.559872
vt 0.429260 0.559866
vt 0.429259 0.577578
vt 0.368495 0.577572
vt 0.368495 0.559860
vt 0.733085 0.585427
vt 0.733083 0.603138
vt 0.672318 0.603133
vt 0.672320 0.585421
vt 0.246966 0.559872
vt 0.246967 0.577583
vt 0.186203 0.577589
vt 0.186201 0.559877
vt 0.611555 0.559883
vt 0.611553 0.577595
vt 0.307731 0.559866
vt 0.307732 0.577578
vt 0.611555 0.585415
vt 0.611553 0.603127
vt 0.672320 0.559889
vt 0.672318 0.577601
vt 0.733085 0.559895
vt 0.733083 0.577607
vt 0.246967 0.603115
vt 0.246966 0.585404
vt 0.628927 0.003906
vt 0.698374 0.003906
vt 0.212246 0.003906
vt 0.281693 0.003906
vt 0.003906 0.003906
vt 0.073353 0.003906
vt 0.767820 0.003906
vt 0.837267 0.003906
vt 0.142800 0.003906
vt 0.490033 0.003906
vt 0.559480 0.003906
vt 0.351140 0.003906
vt 0.420587 0.003906
vt 0.658262 0.626666
vt 0.637100 0.626666
vt 0.649078 0.610945
vt 0.506596 0.846931
vt 0.449163 0.905149
vt 0.426177 0.867701
vt 0.467966 0.826011
vt 0.370424 0.926813
vt 0.291389 0.906407
vt 0.312130 0.867697
vt 0.369158 0.882881
vt 0.194005 0.613527
vt 0.151223 0.613527
vt 0.151223 0.610957
vt 0.194005 0.610957
vt 0.134774 0.613527
vt 0.134774 0.610957
vt 0.113612 0.613527
vt 0.113612 0.610957
vt 0.097164 0.613527
vt 0.097164 0.610957
vt 0.054381 0.613527
vt 0.054381 0.610957
vt 0.037932 0.613527
vt 0.037932 0.610957
vt 0.003906 0.613527
vt 0.003906 0.610957
vt 0.210454 0.613527
vt 0.210454 0.610957
vt 0.231620 0.691060
vt 0.289020 0.632723
vt 0.312072 0.670109
vt 0.270289 0.711895
vt 0.367885 0.610916
vt 0.447082 0.631456
vt 0.426244 0.670115
vt 0.369158 0.654817
vt 0.233013 0.849155
vt 0.270342 0.826003
vt 0.527200 0.767733
vt 0.483295 0.768975
vt 0.211110 0.770303
vt 0.255016 0.768966
vt 0.505404 0.688849
vt 0.468024 0.711904
vt 0.934524 0.707299
vt 0.875829 0.691571
vt 0.817135 0.707299
vt 0.774168 0.750266
vt 0.758441 0.808960
vt 0.774168 0.867655
vt 0.817135 0.910622
vt 0.977491 0.867655
vt 0.934524 0.910622
vt 0.707772 0.626666
vt 0.750740 0.669633
vt 0.676325 0.680593
vt 0.669893 0.638297
vt 0.590384 0.626666
vt 0.625469 0.638297
vt 0.619037 0.680593
vt 0.547417 0.669633
vt 0.531689 0.728328
vt 0.664694 0.692224
vt 0.766467 0.728328
vt 0.750740 0.787022
vt 0.590384 0.829989
vt 0.547417 0.787022
vt 0.630668 0.692224
vt 0.707772 0.829989
vt 0.649078 0.845716
vt 0.420587 0.552041
vt 0.351140 0.552041
vt 0.281693 0.552041
vt 0.073353 0.552041
vt 0.490033 0.552041
vt 0.628927 0.552041
vt 0.559480 0.552041
vt 0.003906 0.552041
vt 0.698374 0.552041
vt 0.837267 0.552041
vt 0.767820 0.552041
vt 0.962350 0.200364
vt 0.952081 0.200364
vt 0.952081 0.190471
vt 0.962350 0.190471
vt 0.942187 0.190471
vt 0.942187 0.180202
vt 0.952081 0.180202
vt 0.972243 0.180202
vt 0.972243 0.190471
vt 0.962350 0.180202
vt 0.952081 0.170309
vt 0.962350 0.170309
vt 0.919331 0.176670
vt 0.931600 0.188899
vt 0.928051 0.190362
vt 0.917769 0.180089
vt 0.931658 0.210814
vt 0.919420 0.223145
vt 0.917829 0.219729
vt 0.928086 0.209421
vt 0.876550 0.229614
vt 0.877560 0.225838
vt 0.863997 0.217288
vt 0.867589 0.215910
vt 0.864004 0.182630
vt 0.867589 0.183974
vt 0.876488 0.170295
vt 0.877555 0.174073
vt 0.984386 0.270609
vt 0.942090 0.277041
vt 0.930459 0.265410
vt 0.930459 0.231384
vt 0.942090 0.219753
vt 0.984386 0.226185
vt 0.996017 0.237816
vt 0.996017 0.258978
vt 0.045404 0.621346
vt 0.064324 0.621346
vt 0.064324 0.627405
vt 0.045404 0.627405
vt 0.854417 0.126009
vt 0.854417 0.155875
vt 0.848359 0.155875
vt 0.848359 0.126009
vt 0.854417 0.307810
vt 0.854417 0.376253
vt 0.848359 0.376253
vt 0.848359 0.307810
vt 0.854417 0.048780
vt 0.854417 0.067403
vt 0.848359 0.067403
vt 0.848359 0.048780
vt 0.094027 0.621346
vt 0.094027 0.627405
vt 0.854417 0.185737
vt 0.848359 0.185737
vt 0.854417 0.244313
vt 0.848359 0.244313
vt 0.150180 0.621346
vt 0.179883 0.621346
vt 0.179883 0.627405
vt 0.150180 0.627405
vt 0.854417 0.003906
vt 0.848359 0.003906
vt 0.854417 0.262936
vt 0.848359 0.262936
vt 0.198803 0.621346
vt 0.198803 0.627405
vt 0.954888 0.135139
vt 0.926316 0.142090
vt 0.940216 0.129062
vt 0.954888 0.058877
vt 0.984922 0.065827
vt 0.926316 0.065827
vt 0.969559 0.129062
vt 0.975636 0.114391
vt 0.984862 0.142056
vt 0.895758 0.156431
vt 0.895758 0.162490
vt 0.879878 0.162490
vt 0.879878 0.156431
vt 0.863997 0.162490
vt 0.863997 0.156431
vt 0.991040 0.156431
vt 0.991040 0.162490
vt 0.975160 0.162490
vt 0.975160 0.156431
vt 0.959279 0.162490
vt 0.959279 0.156431
vt 0.877160 0.086314
vt 0.863997 0.148612
vt 0.863997 0.080169
vt 0.934139 0.038128
vt 0.940216 0.052800
vt 0.924307 0.058877
vt 0.911638 0.156431
vt 0.911638 0.162490
vt 0.927519 0.156431
vt 0.927519 0.162490
vt 0.943399 0.156431
vt 0.943399 0.162490
vt 0.003906 0.627405
vt 0.003906 0.621346
vt 0.924307 0.135139
vt 0.924307 0.093642
vt 0.934139 0.114391
vt 0.926316 0.086692
vt 0.940216 0.099719
vt 0.984922 0.086692
vt 0.969559 0.099719
vt 0.954888 0.093642
vt 0.908872 0.148612
vt 0.906863 0.142467
vt 0.996094 0.114391
vt 0.877160 0.142467
vt 0.908872 0.080169
vt 0.906863 0.086314
vt 0.908872 0.072350
vt 0.906863 0.066204
vt 0.863997 0.072350
vt 0.877160 0.066204
vt 0.863997 0.003906
vt 0.908872 0.003906
vt 0.877160 0.010052
vt 0.926316 0.010429
vt 0.906863 0.010052
vt 0.924307 0.017379
vt 0.984922 0.010429
vt 0.996094 0.038128
vt 0.975636 0.038128
vt 0.969559 0.023457
vt 0.954888 0.017379
vt 0.969559 0.052800
vt 0.940216 0.023457
s 1
usemtl canned_water
f 38/1/1 170/2/1 172/3/2 39/4/2
f 13/5/3 1/6/4 15/7/5 14/8/6
f 16/9/7 2/10/8 1/6/4 13/5/3
f 17/11/9 3/12/10 2/10/8 16/9/7
f 19/13/11 18/14/12 3/12/10 17/11/9
f 20/15/13 4/16/14 18/14/12 19/13/11
f 21/17/15 5/18/16 4/16/14 20/15/13
f 23/19/17 22/20/18 5/21/16 21/22/15
f 25/23/19 24/24/20 22/20/18 23/19/17
f 27/25/21 26/26/22 24/24/20 25/23/19
f 28/27/23 6/28/24 26/26/22 27/25/21
f 30/29/25 29/30/26 6/28/24 28/27/23
f 14/8/6 15/7/5 29/30/26 30/29/25
f 62/31/27 46/32/28 14/8/6 30/29/25
f 49/33/29 17/11/9 16/9/7 48/34/30
f 51/35/31 19/13/11 17/11/9 49/33/29
f 52/36/32 20/15/13 19/13/11 51/35/31
f 53/37/33 21/17/15 20/15/13 52/36/32
f 55/38/34 23/19/17 21/22/15 53/39/33
f 57/40/35 25/23/19 23/19/17 55/38/34
f 59/41/36 27/25/21 25/23/19 57/40/35
f 60/42/37 28/27/23 27/25/21 59/41/36
f 16/9/7 13/5/3 45/43/38 48/34/30
f 88/44/39 216/45/39 217/46/40 10/47/40
f 45/43/38 46/32/28 47/48/41 31/49/42
f 48/34/30 45/43/38 31/49/42 32/50/43
f 49/33/29 48/34/30 32/50/43 33/51/44
f 51/35/31 49/33/29 33/51/44 50/52/45
f 52/36/32 51/35/31 50/52/45 34/53/46
f 53/37/33 52/36/32 34/53/46 35/54/47
f 55/38/34 53/39/33 35/55/47 54/56/48
f 57/40/35 55/38/34 54/56/48 56/57/49
f 59/41/36 57/40/35 56/57/49 58/58/50
f 60/42/37 59/41/36 58/58/50 36/59/51
f 62/31/27 60/42/37 36/59/51 61/60/52
f 46/32/28 62/31/27 61/60/52 47/48/41
f 36/59/51 58/58/50 66/61/53 122/62/54
f 33/51/44 32/50/43 134/63/55 120/64/56
f 35/54/47 34/53/46 132/65/57 118/66/58
f 58/58/50 56/57/49 63/67/59 66/61/53
f 32/50/43 31/49/42 67/68/60 134/63/55
f 47/48/41 61/60/52 129/69/61 100/70/62
f 34/53/46 50/52/45 64/71/63 132/65/57
f 56/57/49 54/56/48 65/72/64 63/67/59
f 31/49/42 47/48/41 100/70/62 67/68/60
f 61/60/52 36/59/51 122/62/54 129/69/61
f 50/52/45 33/51/44 120/64/56 64/71/63
f 54/56/48 35/55/47 118/73/58 65/72/64
f 6/28/24 73/74/65 139/75/66 26/26/22
f 3/12/10 72/76/67 76/77/68 2/10/8
f 5/18/16 97/78/69 75/79/70 4/16/14
f 26/26/22 139/75/66 135/80/71 24/24/20
f 2/10/8 76/77/68 74/81/72 1/6/4
f 15/7/5 70/82/73 71/83/74 29/30/26
f 4/16/14 75/79/70 68/84/75 18/14/12
f 24/24/20 135/80/71 69/85/76 22/20/18
f 1/6/4 74/81/72 70/82/73 15/7/5
f 29/30/26 71/83/74 73/74/65 6/28/24
f 18/14/12 68/84/75 72/76/67 3/12/10
f 22/20/18 69/85/76 97/86/69 5/21/16
f 80/87/77 158/88/78 163/89/79 78/90/80
f 82/91/81 157/92/82 158/88/78 80/87/77
f 84/93/83 146/94/84 157/92/82 82/91/81
f 85/95/85 145/96/86 146/94/84 84/93/83
f 86/97/87 147/98/88 145/96/86 85/95/85
f 87/99/89 148/100/90 147/98/88 86/97/87
f 89/101/91 160/102/92 148/103/90 87/104/89
f 90/105/93 167/106/94 160/102/92 89/101/91
f 92/107/95 166/108/96 167/106/94 90/105/93
f 94/109/97 165/110/98 166/108/96 92/107/95
f 95/111/99 164/112/100 165/110/98 94/109/97
f 78/90/80 163/89/79 164/112/100 95/111/99
f 159/113/101 104/114/102 103/115/103 161/116/104
f 150/117/105 105/118/106 104/114/102 159/113/101
f 149/119/107 107/120/108 105/118/106 150/117/105
f 151/121/109 108/122/110 107/120/108 149/119/107
f 152/123/111 109/124/112 108/122/110 151/121/109
f 153/125/113 110/126/114 109/124/112 152/123/111
f 154/127/115 111/128/116 110/129/114 153/130/113
f 168/131/117 112/132/118 111/128/116 154/127/115
f 162/133/119 114/134/120 112/132/118 168/131/117
f 156/135/121 116/136/122 114/134/120 162/133/119
f 155/137/123 117/138/124 116/136/122 156/135/121
f 161/116/104 103/115/103 117/138/124 155/137/123
f 123/139/97 122/62/54 66/61/53 127/140/95
f 121/141/83 120/64/56 134/63/55 133/142/125
f 119/143/126 118/66/58 132/65/57 131/144/127
f 127/140/95 66/61/53 63/67/59 124/145/128
f 133/142/125 134/63/55 67/68/60 130/146/77
f 101/147/80 100/70/62 129/69/61 128/148/129
f 131/144/127 132/65/57 64/71/63 125/149/130
f 124/145/128 63/67/59 65/72/64 126/150/91
f 130/146/77 67/68/60 100/70/62 101/147/80
f 128/148/129 129/69/61 122/62/54 123/139/97
f 125/149/130 64/71/63 120/64/56 121/141/83
f 126/150/91 65/72/64 118/73/58 119/151/126
f 140/152/120 139/75/66 73/74/65 99/153/122
f 144/154/106 76/77/68 72/76/67 98/155/108
f 143/156/112 75/79/70 97/78/69 96/157/114
f 136/158/131 135/80/71 139/75/66 140/152/120
f 142/159/132 74/81/72 76/77/68 144/154/106
f 141/160/133 71/83/74 70/82/73 77/161/103
f 137/162/134 68/84/75 75/79/70 143/156/112
f 138/163/135 69/85/76 135/80/71 136/158/131
f 77/161/103 70/82/73 74/81/72 142/159/132
f 99/153/122 73/74/65 71/83/74 141/160/133
f 98/155/108 72/76/67 68/84/75 137/162/134
f 96/164/114 97/86/69 69/85/76 138/163/135
f 77/161/103 78/90/80 95/111/99 141/160/133
f 142/159/132 80/87/77 78/90/80 77/161/103
f 144/154/106 82/91/81 80/87/77 142/159/132
f 98/155/108 84/93/83 82/91/81 144/154/106
f 137/162/134 85/95/85 84/93/83 98/155/108
f 143/156/112 86/97/87 85/95/85 137/162/134
f 96/157/114 87/99/89 86/97/87 143/156/112
f 138/163/135 89/101/91 87/104/89 96/164/114
f 136/158/131 90/105/93 89/101/91 138/163/135
f 140/152/120 92/107/95 90/105/93 136/158/131
f 99/153/122 94/109/97 92/107/95 140/152/120
f 141/160/133 95/111/99 94/109/97 99/153/122
f 101/147/80 128/148/129 117/138/124 103/115/103
f 130/146/77 101/147/80 103/115/103 104/114/102
f 133/142/125 130/146/77 104/114/102 105/118/106
f 121/141/83 133/142/125 105/118/106 107/120/108
f 125/149/130 121/141/83 107/120/108 108/122/110
f 131/144/127 125/149/130 108/122/110 109/124/112
f 119/143/126 131/144/127 109/124/112 110/126/114
f 126/150/91 119/151/126 110/129/114 111/128/116
f 124/145/128 126/150/91 111/128/116 112/132/118
f 127/140/95 124/145/128 112/132/118 114/134/120
f 123/139/97 127/140/95 114/134/120 116/136/122
f 128/148/129 123/139/97 116/136/122 117/138/124
f 11/165/136 167/106/94 166/108/96 91/166/136
f 214/167/136 215/168/136 213/169/136
f 11/170/137 214/171/137 216/45/39 88/44/39
f 102/172/138 183/173/138 178/174/139 37/175/139
f 39/4/2 172/3/2 173/176/140 40/177/140
f 44/178/141 184/179/141 183/173/138 102/172/138
f 115/180/142 179/181/142 176/182/143 43/183/143
f 40/177/140 173/176/140 174/184/40 41/185/40
f 83/186/1 169/187/1 220/188/144 81/189/144
f 7/190/145 177/191/145 213/192/146 79/193/146
f 41/194/40 174/195/40 175/196/39 42/197/39
f 93/198/143 181/199/143 215/200/142 91/201/142
f 8/202/2 219/203/2 169/187/1 83/186/1
f 12/204/147 180/205/147 181/199/143 93/198/143
f 43/183/143 176/182/143 184/179/141 44/178/141
f 113/206/137 182/207/137 179/181/142 115/180/142
f 9/208/140 218/209/140 219/203/2 8/202/2
f 79/193/146 213/192/146 180/205/147 12/204/147
f 81/189/144 220/188/144 177/191/145 7/190/145
f 10/210/40 217/211/40 218/209/140 9/208/140
f 91/201/142 215/200/142 214/171/137 11/170/137
f 37/175/139 178/174/139 171/212/144 106/213/144
f 106/213/144 171/212/144 170/2/1 38/1/1
f 42/197/39 175/196/39 182/207/137 113/206/137
f 151/121/109 149/119/107 38/214/148 39/215/148
f 156/135/121 162/133/119 115/216/148 43/217/148
f 41/218/148 42/219/148 154/127/115 153/130/113
f 152/123/111 40/220/148 41/221/148 153/125/113
f 151/121/109 39/215/148 40/220/148 152/123/111
f 115/216/148 162/133/119 168/131/117 113/222/148
f 159/113/101 37/223/148 106/224/148 150/117/105
f 155/137/123 44/225/148 102/226/148 161/116/104
f 102/226/148 37/223/148 159/113/101 161/116/104
f 38/214/148 149/119/107 150/117/105 106/224/148
f 44/225/148 155/137/123 156/135/121 43/217/148
f 42/219/148 113/222/148 168/131/117 154/127/115
f 188/227/148 185/228/148 183/229/148
f 171/230/144 178/231/149 197/232/149 203/233/144
f 183/234/150 184/235/151 193/236/151 194/237/150
f 191/238/152 186/239/153 206/240/153 211/241/152
f 186/239/153 185/242/154 205/243/154 206/240/153
f 185/242/154 188/244/155 208/245/155 205/243/154
f 188/244/155 187/246/156 207/247/156 208/245/155
f 187/246/156 189/248/157 209/249/157 207/247/156
f 189/248/157 190/250/158 210/251/158 209/249/157
f 190/250/158 192/252/159 212/253/159 210/251/158
f 192/254/159 191/238/152 211/241/152 212/255/159
f 182/256/137 175/257/39 199/258/39 195/259/137
f 174/260/40 173/261/140 201/262/140 200/263/40
f 184/235/151 176/264/143 198/265/143 193/236/151
f 170/266/1 171/230/144 203/233/144 204/267/1
f 179/268/142 182/256/137 195/259/137 196/269/142
f 178/231/149 183/234/150 194/237/150 197/232/149
f 175/257/39 174/260/40 200/263/40 199/258/39
f 172/270/2 170/266/1 204/267/1 202/271/2
f 176/264/143 179/268/142 196/269/142 198/265/143
f 173/261/140 172/270/2 202/271/2 201/262/140
f 196/269/148 194/237/148 198/265/148
f 216/272/136 214/167/136 213/169/136
f 217/273/136 216/272/136 213/169/136
f 218/274/136 217/273/136 213/169/136
f 219/275/136 218/274/136 213/169/136
f 169/276/136 219/275/136 213/169/136
f 220/277/136 169/276/136 213/169/136
f 213/169/136 177/278/136 220/277/136
f 181/279/136 180/280/136 213/169/136
f 215/168/136 181/279/136 213/169/136
f 198/265/148 194/237/148 193/236/148
f 194/237/148 203/233/148 197/232/148
f 203/233/148 194/237/148 204/267/148
f 204/267/148 194/237/148 202/271/148
f 202/271/148 194/237/148 201/262/148
f 201/262/148 194/237/148 200/263/148
f 200/263/148 194/237/148 199/258/148
f 199/258/148 194/237/148 195/259/148
f 195/259/148 194/237/148 196/269/148
f 184/281/148 176/282/148 189/283/148 187/284/148
f 183/229/148 184/281/148 188/227/148
f 178/285/148 186/286/148 191/287/148 171/288/148
f 170/289/148 171/288/148 191/287/148
f 185/228/148 178/285/148 183/229/148
f 190/290/148 189/283/148 179/291/148 182/292/148
f 173/293/148 172/294/148 192/295/148
f 182/292/148 175/296/148 190/290/148
f 175/296/148 174/297/148 190/290/148
f 176/282/148 179/291/148 189/283/148
f 170/289/148 191/287/148 192/295/148 172/294/148
f 184/281/148 187/284/148 188/227/148
f 185/228/148 186/286/148 178/285/148
f 192/295/148 190/290/148 174/297/148 173/293/148
f 164/112/100 163/89/79 79/298/136 12/299/136
f 91/166/136 166/108/96 165/110/98 93/300/136
f 11/165/136 88/301/136 160/102/92 167/106/94
f 79/298/136 163/89/79 158/88/78 7/302/136
f 157/92/82 146/94/84 83/303/136 81/304/136
f 88/301/136 10/305/136 148/103/90 160/102/92
f 8/306/136 83/303/136 146/94/84 145/96/86
f 7/302/136 158/88/78 157/92/82 81/304/136
f 165/110/98 164/112/100 12/299/136 93/300/136
f 148/100/90 10/307/136 9/308/136 147/98/88
f 9/308/136 8/306/136 145/96/86 147/98/88
f 45/43/38 13/5/3 14/8/6 46/32/28
f 62/31/27 30/29/25 28/27/23 60/42/37
f 222/309/1 223/310/150 227/311/150 226/312/1
f 223/313/150 224/314/142 228/315/142 227/311/150
f 221/316/40 222/317/1 226/312/1 225/318/40
f 224/319/142 221/320/40 225/318/40 228/315/142
s 0
f 226/312/148 227/311/148 228/315/148 225/318/148
s 1
f 230/321/160 229/322/161 233/323/162 234/324/163
f 231/325/164 235/326/165 236/327/166 237/328/167
f 235/326/165 238/329/168 239/330/169 236/327/166
f 238/329/168 232/331/170 240/332/171 239/330/169
f 232/331/170 243/333/172 244/334/173 240/332/171
f 243/333/172 241/335/174 242/336/175 244/334/173
f 241/335/174 230/321/160 234/324/163 242/336/175
f 229/322/161 231/325/164 237/328/167 233/323/162
f 240/332/148 244/334/148 242/336/148
f 230/337/160 241/338/174 243/339/172 232/340/170 238/341/168 235/342/165 231/343/164 229/344/161
f 254/345/176 255/346/177 261/347/177 260/348/176
f 250/349/178 253/350/179 273/351/179 272/352/178
f 252/353/180 246/354/181 269/355/181 271/356/180
f 248/357/182 249/358/182 266/359/182 267/360/182
f 255/346/177 257/361/183 263/362/183 261/347/177
f 253/350/179 251/363/184 280/364/185 273/351/179
f 251/363/184 245/365/186 268/366/186 280/364/185
f 259/367/187 258/368/188 264/369/188 265/370/187
f 246/371/181 248/357/182 267/360/182 269/372/181
f 247/373/189 252/353/180 271/356/180 270/374/189
f 258/368/188 256/375/190 262/376/190 264/369/188
f 249/358/182 250/349/178 272/352/178 266/359/182
f 245/365/186 247/373/189 270/374/189 268/366/186
f 257/361/183 259/367/187 265/370/187 263/362/183
f 278/377/148 268/378/148 288/379/148
f 275/380/136 250/381/136 249/382/136
f 281/383/148 279/384/148 280/385/148
f 278/386/142 283/387/142 274/388/181 281/389/181
f 281/389/181 274/388/181 276/390/150 279/391/150
f 279/392/150 276/393/150 277/394/180 282/395/180
f 282/395/180 277/394/180 275/396/1 289/397/1
f 263/398/148 271/399/148 269/400/148
f 285/401/136 286/402/136 254/403/136
f 278/386/142 288/404/187 284/405/187 283/387/142
f 288/404/187 287/406/40 285/407/40 284/405/187
f 287/406/40 290/408/183 286/409/183 285/407/40
f 290/408/183 289/397/1 275/396/1 286/409/183
f 254/345/176 260/348/176 262/410/190 256/411/190
f 262/412/148 260/413/148 287/414/148
f 260/413/148 266/415/148 290/416/148
f 287/414/148 260/413/148 290/416/148
f 272/417/148 282/418/148 289/419/148
f 266/415/148 272/417/148 289/419/148
f 270/420/148 264/421/148 268/378/148
f 264/421/148 262/412/148 268/378/148
f 266/415/148 289/419/148 290/416/148
f 262/412/148 287/414/148 288/379/148
f 280/385/148 268/378/148 278/377/148
f 268/378/148 262/412/148 288/379/148
f 279/384/148 282/418/148 272/417/148
f 272/417/148 273/422/148 279/384/148
f 273/422/148 280/385/148 279/384/148
f 280/385/148 278/377/148 281/383/148
f 265/423/148 264/421/148 270/420/148
f 269/400/148 267/424/148 263/398/148
f 267/424/148 266/415/148 261/425/148
f 266/415/148 260/413/148 261/425/148
f 267/424/148 261/425/148 263/398/148
f 265/423/148 270/420/148 271/399/148
f 263/398/148 265/423/148 271/399/148
f 249/382/136 248/426/136 255/427/136
f 248/426/136 246/428/136 257/429/136
f 255/427/136 248/426/136 257/429/136
f 252/430/136 247/431/136 259/432/136
f 247/431/136 245/433/136 258/434/136
f 245/433/136 256/435/136 258/434/136
f 247/431/136 258/434/136 259/432/136
f 251/436/136 253/437/136 276/438/136
f 253/437/136 250/381/136 276/438/136
f 274/439/136 283/440/136 251/436/136
f 276/438/136 274/439/136 251/436/136
f 252/430/136 259/432/136 246/428/136
f 259/432/136 257/429/136 246/428/136
f 277/441/136 276/438/136 250/381/136
f 275/380/136 277/441/136 250/381/136
f 255/427/136 254/403/136 249/382/136
f 254/403/136 275/380/136 249/382/136
f 254/403/136 256/435/136 285/401/136
f 256/435/136 245/433/136 284/442/136
f 285/401/136 256/435/136 284/442/136
f 245/433/136 251/436/136 283/440/136
f 245/433/136 283/440/136 284/442/136
f 286/402/136 275/380/136 254/403/136
f 242/336/148 234/324/148 236/327/148
f 234/324/148 233/323/148 236/327/148
f 233/323/148 237/328/148 236/327/148
f 236/327/148 239/330/148 242/336/148
f 239/330/148 240/332/148 242/336/148
