# Blender 4.5.10 LTS
# www.blender.org
mtllib chemligh.mtl
o chemligh
v -0.003944 0.935177 -0.027764
v -0.017826 0.935177 -0.024044
v -0.027988 0.935177 -0.013882
v -0.031708 0.935177 0.000000
v -0.027988 0.935177 0.013882
v -0.017826 0.935177 0.024044
v -0.003944 0.935177 0.027764
v 0.009937 0.935177 0.024044
v 0.020100 0.935177 0.013882
v 0.023819 0.935177 0.000000
v 0.020100 0.935177 -0.013882
v 0.009937 0.935177 -0.024044
v -0.017826 1.466555 -0.024044
v -0.017826 1.466555 0.024044
v 0.009937 1.466555 0.024044
v 0.020100 1.466555 0.013882
v 0.023819 1.466555 -0.000000
v 0.009937 1.466555 -0.024044
v -0.003944 1.486287 -0.021124
v -0.003944 1.466555 -0.027764
v -0.014506 1.486287 -0.018293
v -0.027988 1.466555 -0.013882
v -0.022238 1.486287 -0.010562
v -0.031708 1.466555 -0.000000
v -0.025068 1.486287 -0.000000
v -0.027988 1.466555 0.013882
v -0.022238 1.486287 0.010562
v -0.014506 1.486287 0.018293
v -0.003944 1.466555 0.027764
v -0.003944 1.486287 0.021123
v 0.006617 1.486287 0.018293
v 0.014349 1.486287 0.010562
v 0.020100 1.466555 -0.013882
v 0.014349 1.486287 -0.010562
v 0.006617 1.486287 -0.018293
v -0.017826 1.002485 0.024044
v 0.009937 1.002485 -0.024044
v -0.017826 1.002485 -0.024044
v 0.020100 1.002485 0.013882
v 0.023819 1.002485 0.000000
v 0.009937 1.002485 0.024044
v -0.031708 1.002485 0.000000
v -0.027988 1.002485 -0.013882
v -0.027988 1.002485 0.013882
v -0.003944 1.002485 -0.027764
v 0.020100 1.002485 -0.013882
v -0.003944 1.002485 0.027764
v -0.020341 0.939672 -0.028399
v -0.003944 0.939672 -0.032793
v -0.032344 0.939672 -0.016396
v -0.036737 0.939672 0.000000
v -0.032344 0.939672 0.016396
v -0.020341 0.939672 0.028399
v -0.003944 0.939672 0.032793
v 0.012452 0.939672 0.028399
v 0.024455 0.939672 0.016396
v 0.028848 0.939672 0.000000
v 0.024455 0.939672 -0.016396
v 0.012452 0.939672 -0.028399
v -0.020341 1.002485 0.028399
v 0.028848 1.002485 0.000000
v 0.012452 1.002485 0.028399
v -0.036737 1.002485 0.000000
v -0.032344 1.002485 -0.016396
v -0.003944 1.002485 -0.032793
v 0.024455 1.002485 -0.016396
v -0.003944 1.002485 0.032793
v 0.012452 1.002485 -0.028399
v -0.020341 1.002485 -0.028399
v 0.024455 1.002485 0.016396
v -0.032344 1.002485 0.016396
v 0.017179 1.486287 -0.000000
v 0.017179 1.543629 -0.000000
v 0.011945 1.560318 -0.000000
v -0.003944 1.567931 -0.000000
v -0.019834 1.560611 -0.000000
v -0.025068 1.543922 -0.000000
v -0.025068 1.531925 -0.000000
v -0.023653 1.543902 0.005281
v 0.010881 1.559200 0.005281
v -0.018770 1.559474 0.005281
v 0.015764 1.543629 0.005281
v -0.003944 1.566303 0.005281
v -0.023653 1.531925 0.005281
v 0.009159 1.543629 -0.005281
v 0.005913 1.553982 -0.005281
v -0.003944 1.558705 -0.005281
v -0.013802 1.554164 -0.005281
v -0.017048 1.543810 -0.005281
v -0.017048 1.531925 -0.005281
v 0.009159 1.543629 0.005281
v 0.005913 1.553982 0.005281
v -0.003944 1.558705 0.005281
v -0.013802 1.554164 0.005281
v -0.017048 1.543810 0.005281
v -0.017048 1.531925 0.005281
v -0.023653 1.543902 -0.005281
v 0.010881 1.559200 -0.005281
v -0.018770 1.559474 -0.005281
v 0.015764 1.543629 -0.005281
v -0.003944 1.566303 -0.005281
v -0.023653 1.531925 -0.005281
v 0.009159 1.521753 -0.005281
v 0.009159 1.521753 0.005281
v -0.017048 1.513705 0.005281
v -0.017048 1.486287 0.005281
v -0.017048 1.486287 -0.005281
v -0.017048 1.513705 -0.005281
v 0.015764 1.486287 0.005281
v 0.015764 1.486287 -0.005281
vn -0.5000 -0.0000 0.8660
vn -0.8660 -0.0000 0.5000
vn -0.0000 -0.0000 -1.0000
vn 0.5000 -0.0000 -0.8660
vn -0.8660 -0.0000 -0.5000
vn -0.5000 -0.0000 -0.8660
vn 0.9976 -0.0699 -0.0000
vn 1.0000 -0.0000 -0.0000
vn 0.8660 -0.0000 0.5000
vn 0.8639 -0.0699 0.4988
vn -0.0000 -0.0000 1.0000
vn -1.0000 -0.0000 -0.0000
vn 0.5000 -0.0000 0.8660
vn 0.8660 -0.0000 -0.5000
vn -0.0483 -0.9984 0.0278
vn -0.0482 -0.9984 -0.0279
vn 0.0483 -0.9984 -0.0279
vn -0.4739 0.3189 -0.8208
vn -0.0000 0.3189 -0.9478
vn -0.8208 0.3189 -0.4739
vn -0.9478 0.3189 -0.0000
vn -0.8208 0.3189 0.4739
vn -0.4739 0.3189 0.8208
vn -0.0000 0.3189 0.9478
vn 0.4739 0.3189 0.8208
vn 0.8208 0.3189 0.4739
vn 0.0483 -0.9984 0.0279
vn 0.0558 -0.9984 -0.0000
vn 0.9447 0.2084 0.2531
vn 0.9478 0.3189 -0.0000
vn 0.4739 0.3189 -0.8208
vn 0.8208 0.3189 -0.4739
vn 0.0279 -0.9984 -0.0483
vn -0.0000 -0.9984 -0.0557
vn -0.0000 -0.0699 -0.9976
vn 0.4988 -0.0699 -0.8639
vn -0.0558 -0.9984 -0.0000
vn -0.8639 -0.0699 0.4988
vn -0.9976 -0.0699 -0.0003
vn 0.8639 -0.0699 -0.4988
vn -0.8639 -0.0699 -0.4988
vn -0.0278 -0.9984 -0.0483
vn -0.4988 -0.0699 -0.8639
vn 0.4988 -0.0699 0.8639
vn -0.0000 -0.0699 0.9976
vn -0.4988 -0.0699 0.8639
vn -0.0279 -0.9984 0.0483
vn -0.0000 -0.9984 0.0557
vn 0.0277 -0.9984 0.0484
vn 0.9885 -0.1514 -0.0000
vn 0.7508 -0.6605 -0.0000
vn -0.0075 -1.0000 -0.0000
vn -0.7558 -0.6548 -0.0000
vn -0.9885 -0.1514 -0.0000
vn -0.0000 -1.0000 -0.0000
vn 0.9550 0.1501 -0.2559
vn 0.7305 0.6232 -0.2792
vn 0.7517 0.6595 -0.0000
vn 0.9890 0.1478 -0.0000
vn 0.0079 0.9556 -0.2946
vn 0.0070 1.0000 -0.0000
vn -0.7255 0.6280 -0.2815
vn -0.7466 0.6653 -0.0000
vn -0.9549 0.1497 -0.2564
vn -0.9890 0.1481 -0.0000
vn -0.9659 -0.0000 -0.2588
vn 0.9447 0.2084 -0.2531
vn 0.9861 0.1660 -0.0000
vn 0.9550 0.1501 0.2559
vn 0.7305 0.6232 0.2792
vn 0.0079 0.9556 0.2946
vn -0.7255 0.6280 0.2815
vn -0.9549 0.1497 0.2564
vn -0.9659 -0.0000 0.2588
vn -0.2936 0.9559 -0.0000
vn -0.0000 1.0000 -0.0000
vt 0.157538 0.003906
vt 0.157538 0.996094
vt 0.126812 0.996094
vt 0.126812 0.003906
vt 0.372623 0.003906
vt 0.372623 0.996094
vt 0.341897 0.996094
vt 0.341897 0.003906
vt 0.065359 0.003906
vt 0.065359 0.996094
vt 0.034633 0.996094
vt 0.034633 0.003906
vt 0.718062 0.112783
vt 0.852356 0.112783
vt 0.852356 0.149075
vt 0.718062 0.149075
vt 0.188265 0.003906
vt 0.188265 0.996094
vt 0.096086 0.003906
vt 0.096086 0.996094
vt 0.218991 0.003906
vt 0.218991 0.996094
vt 0.311171 0.996094
vt 0.311171 0.003906
vt 0.003906 0.996094
vt 0.003906 0.003906
vt 0.249718 0.003906
vt 0.249718 0.996094
vt 0.454840 0.188447
vt 0.404285 0.159133
vt 0.454840 0.071218
vt 0.414669 0.048476
vt 0.390375 0.048476
vt 0.381045 0.003906
vt 0.410690 0.003906
vt 0.440264 0.048476
vt 0.438662 0.003906
vt 0.466428 0.048476
vt 0.465866 0.003906
vt 0.492839 0.048476
vt 0.492727 0.003906
vt 0.519362 0.048476
vt 0.519433 0.003906
vt 0.545939 0.048476
vt 0.546062 0.003906
vt 0.572554 0.048476
vt 0.572635 0.003906
vt 0.599221 0.048476
vt 0.599136 0.003906
vt 0.505651 0.099953
vt 0.484194 0.078702
vt 0.491286 0.065690
vt 0.518418 0.092244
vt 0.612718 0.048476
vt 0.625264 0.003906
vt 0.675059 0.048544
vt 0.649266 0.048544
vt 0.651746 0.003906
vt 0.679446 0.003906
vt 0.699459 0.048544
vt 0.708954 0.003906
vt 0.425403 0.078852
vt 0.403836 0.100249
vt 0.390992 0.092862
vt 0.417876 0.065667
vt 0.425642 0.180711
vt 0.454877 0.203075
vt 0.418442 0.193697
vt 0.454829 0.056484
vt 0.391373 0.166857
vt 0.396328 0.129618
vt 0.381045 0.129730
vt 0.852356 0.185367
vt 0.718062 0.185367
vt 0.718062 0.403121
vt 0.852356 0.403121
vt 0.852356 0.439413
vt 0.718062 0.439413
vt 0.718062 0.040198
vt 0.852356 0.040198
vt 0.852356 0.076491
vt 0.718062 0.076491
vt 0.718062 0.294244
vt 0.852356 0.294244
vt 0.852356 0.330536
vt 0.718062 0.330536
vt 0.852356 0.221660
vt 0.718062 0.221660
vt 0.280444 0.996094
vt 0.280444 0.003906
vt 0.852356 0.366829
vt 0.718062 0.366829
vt 0.852356 0.257952
vt 0.718062 0.257952
vt 0.718062 0.003906
vt 0.852356 0.003906
vt 0.484054 0.180493
vt 0.491384 0.193529
vt 0.505353 0.158639
vt 0.518668 0.166298
vt 0.513482 0.129237
vt 0.528523 0.129026
vt 0.612718 0.383025
vt 0.635956 0.383025
vt 0.635956 0.406362
vt 0.612718 0.406363
vt 0.635956 0.429705
vt 0.612718 0.429705
vt 0.635956 0.453214
vt 0.612718 0.453214
vt 0.635956 0.476552
vt 0.612718 0.476552
vt 0.936332 0.338843
vt 0.904635 0.337783
vt 0.925710 0.327686
vt 0.612718 0.357461
vt 0.624337 0.341321
vt 0.635956 0.357461
vt 0.635956 0.171841
vt 0.635956 0.207707
vt 0.624337 0.207937
vt 0.624337 0.171588
vt 0.635956 0.244117
vt 0.624337 0.244099
vt 0.635956 0.280272
vt 0.624337 0.279996
vt 0.635956 0.316028
vt 0.624337 0.316477
vt 0.635956 0.342693
vt 0.635956 0.048544
vt 0.624349 0.048264
vt 0.612718 0.171838
vt 0.612718 0.207707
vt 0.612718 0.244117
vt 0.612718 0.280272
vt 0.612718 0.316028
vt 0.612718 0.342693
vt 0.872939 0.159796
vt 0.883561 0.148639
vt 0.904635 0.158736
vt 0.635956 0.523603
vt 0.612718 0.523603
vt 0.635956 0.582570
vt 0.635956 0.641541
vt 0.612718 0.641541
vt 0.612718 0.582570
vt 0.437498 0.364189
vt 0.465319 0.313592
vt 0.471369 0.336173
vt 0.932652 0.258781
vt 0.876619 0.241573
vt 0.946772 0.182953
vt 0.876619 0.182953
vt 0.946772 0.305551
vt 0.932652 0.305551
vt 0.904635 0.354029
vt 0.872939 0.339427
vt 0.862498 0.306135
vt 0.883561 0.328075
vt 0.862498 0.280528
vt 0.876619 0.305939
vt 0.876619 0.280528
vt 0.932652 0.126892
vt 0.932652 0.101481
vt 0.946772 0.101481
vt 0.946772 0.127088
vt 0.936332 0.160380
vt 0.925710 0.149028
vt 0.904635 0.174982
vt 0.862498 0.126504
vt 0.862499 0.003906
vt 0.876619 0.079734
vt 0.932652 0.003906
vt 0.932652 0.062526
vt 0.876619 0.126504
vt 0.465319 0.358754
vt 0.448788 0.375285
vt 0.426207 0.381335
vt 0.403626 0.375285
vt 0.414917 0.364189
vt 0.387095 0.358754
vt 0.381045 0.336173
vt 0.387095 0.313592
vt 0.414917 0.294036
vt 0.403626 0.297062
vt 0.448788 0.297062
vt 0.437498 0.294036
vt 0.472039 0.264088
vt 0.479992 0.293768
vt 0.470680 0.299144
vt 0.461287 0.264088
vt 0.592116 0.299144
vt 0.566454 0.324806
vt 0.561078 0.315495
vt 0.582805 0.293768
vt 0.531398 0.323447
vt 0.531398 0.334199
vt 0.501719 0.315495
vt 0.496343 0.324806
vt 0.470680 0.229033
vt 0.479992 0.234409
vt 0.501719 0.212682
vt 0.496343 0.203370
vt 0.590757 0.264088
vt 0.582805 0.234409
vt 0.592116 0.229033
vt 0.601510 0.264088
vt 0.561078 0.212682
vt 0.566454 0.203370
vt 0.531398 0.193977
vt 0.531398 0.204729
s 1
usemtl Chemligh
f 36/1/1 14/2/1 26/3/2 44/4/2
f 45/5/3 20/6/3 18/7/4 37/8/4
f 43/9/5 22/10/5 13/11/6 38/12/6
f 57/13/7 61/14/8 70/15/9 56/16/10
f 47/17/11 29/18/11 14/2/1 36/1/1
f 42/19/12 24/20/12 22/10/5 43/9/5
f 41/21/13 15/22/13 29/18/11 47/17/11
f 44/4/2 26/3/2 24/20/12 42/19/12
f 37/8/4 18/7/4 33/23/14 46/24/14
f 38/12/6 13/11/6 20/25/3 45/26/3
f 39/27/9 16/28/9 15/22/13 41/21/13
f 5/29/15 3/30/16 11/31/17
f 21/32/18 19/33/19 20/34/19 13/35/18
f 23/36/20 21/32/18 13/35/18 22/37/20
f 25/38/21 23/36/20 22/37/20 24/39/21
f 27/40/22 25/38/21 24/39/21 26/41/22
f 28/42/23 27/40/22 26/41/22 14/43/23
f 30/44/24 28/42/23 14/43/23 29/45/24
f 31/46/25 30/44/24 29/45/24 15/47/25
f 32/48/26 31/46/25 15/47/25 16/49/26
f 9/50/27 10/51/28 57/52/7 56/53/10
f 109/54/29 16/49/26 17/55/30
f 35/56/31 34/57/32 33/58/32 18/59/31
f 19/60/19 35/56/31 18/59/31 20/61/19
f 12/62/33 1/63/34 49/64/35 59/65/36
f 4/66/37 5/29/15 52/67/38 51/68/39
f 11/31/17 12/62/33 59/65/36 58/69/40
f 3/30/16 4/66/37 51/68/39 50/70/41
f 2/71/42 3/30/16 50/70/41 48/72/43
f 56/16/10 70/15/9 62/73/13 55/74/44
f 48/75/43 69/76/6 65/77/3 49/78/35
f 59/79/36 68/80/4 66/81/14 58/82/40
f 52/83/38 71/84/2 63/85/12 51/86/39
f 55/74/44 62/73/13 67/87/11 54/88/45
f 46/24/14 33/23/14 17/89/8 40/90/8
f 51/86/39 63/85/12 64/91/5 50/92/41
f 54/88/45 67/87/11 60/93/1 53/94/46
f 58/82/40 66/81/14 61/14/8 57/13/7
f 50/92/41 64/91/5 69/76/6 48/75/43
f 49/95/35 65/96/3 68/80/4 59/79/36
f 53/94/46 60/93/1 71/84/2 52/83/38
f 5/29/15 6/97/47 53/98/46 52/67/38
f 10/51/28 11/31/17 58/69/40 57/52/7
f 6/97/47 7/99/48 54/100/45 53/98/46
f 7/99/48 8/101/49 55/102/44 54/100/45
f 8/101/49 9/50/27 56/53/10 55/102/44
f 40/90/8 17/89/8 16/28/9 39/27/9
f 1/63/34 2/71/42 48/72/43 49/64/35
f 95/103/50 89/104/50 88/105/51 94/106/51
f 94/106/51 88/105/51 87/107/52 93/108/52
f 93/108/52 87/107/52 86/109/53 92/110/53
f 92/110/53 86/109/53 85/111/54 91/112/54
f 80/113/11 93/114/11 92/115/11
f 96/116/55 78/117/55 90/118/55
f 100/119/56 98/120/57 74/121/58 73/122/59
f 98/120/57 101/123/60 75/124/61 74/121/58
f 101/123/60 99/125/62 76/126/63 75/124/61
f 99/125/62 97/127/64 77/128/65 76/126/63
f 97/127/64 102/129/66 78/117/12 77/128/65
f 110/130/67 100/119/56 73/122/59 72/131/68
f 82/132/69 73/122/59 74/121/58 80/133/70
f 80/133/70 74/121/58 75/124/61 83/134/71
f 83/134/71 75/124/61 76/126/63 81/135/72
f 81/135/72 76/126/63 77/128/65 79/136/73
f 79/136/73 77/128/65 78/117/12 84/137/74
f 109/54/29 72/131/68 73/122/59 82/132/69
f 98/138/3 86/139/3 87/140/3
f 96/116/8 90/118/8 89/104/50 95/103/50
f 85/111/54 103/141/12 104/142/12 91/112/54
s 0
f 108/143/12 107/144/12 106/145/12 105/146/12
f 104/142/75 103/141/75 108/143/75 105/146/75
s 1
f 107/147/76 35/148/76 19/149/76
f 110/130/67 17/55/30 33/58/32
f 104/150/11 105/151/11 109/152/11
f 105/151/11 106/153/11 109/152/11
f 109/152/11 82/154/11 104/150/11
f 82/154/11 80/113/11 92/115/11
f 91/155/11 82/154/11 92/115/11
f 80/113/11 83/156/11 93/114/11
f 83/156/11 81/157/11 93/114/11
f 81/157/11 79/158/11 94/159/11
f 79/158/11 84/160/11 95/161/11
f 94/159/11 79/158/11 95/161/11
f 84/160/11 96/162/11 95/161/11
f 91/155/11 104/150/11 82/154/11
f 81/157/11 94/159/11 93/114/11
f 89/163/3 90/164/3 102/165/3
f 102/165/3 97/166/3 89/163/3
f 97/166/3 99/167/3 88/168/3
f 89/163/3 97/166/3 88/168/3
f 99/167/3 101/169/3 87/140/3
f 101/169/3 98/138/3 87/140/3
f 98/138/3 100/170/3 86/139/3
f 100/170/3 110/171/3 103/172/3
f 110/171/3 107/173/3 108/174/3
f 110/171/3 108/174/3 103/172/3
f 100/170/3 103/172/3 85/175/3
f 100/170/3 85/175/3 86/139/3
f 87/140/3 88/168/3 99/167/3
f 19/149/76 21/176/76 107/147/76
f 21/176/76 23/177/76 107/147/76
f 23/177/76 25/178/76 107/147/76
f 25/178/76 27/179/76 106/180/76
f 107/147/76 25/178/76 106/180/76
f 27/179/76 28/181/76 106/180/76
f 28/181/76 30/182/76 106/180/76
f 30/182/76 31/183/76 106/180/76
f 109/184/76 106/180/76 32/185/76
f 34/186/76 35/148/76 107/147/76
f 110/187/76 34/186/76 107/147/76
f 106/180/76 31/183/76 32/185/76
f 40/188/76 39/189/76 70/190/76 61/191/76
f 71/192/76 60/193/76 36/194/76 44/195/76
f 47/196/76 36/194/76 60/193/76 67/197/76
f 41/198/76 47/196/76 67/197/76 62/199/76
f 66/200/76 46/201/76 40/188/76 61/191/76
f 39/189/76 41/198/76 62/199/76 70/190/76
f 37/202/76 46/201/76 66/200/76 68/203/76
f 42/204/76 43/205/76 64/206/76 63/207/76
f 71/192/76 44/195/76 42/204/76 63/207/76
f 43/205/76 38/208/76 69/209/76 64/206/76
f 65/210/76 69/209/76 38/208/76 45/211/76
f 65/210/76 45/211/76 37/202/76 68/203/76
f 3/30/16 2/71/42 11/31/17
f 2/71/42 1/63/34 11/31/17
f 1/63/34 12/62/33 11/31/17
f 11/31/17 10/51/28 9/50/27
f 9/50/27 8/101/49 11/31/17
f 8/101/49 7/99/48 11/31/17
f 7/99/48 6/97/47 5/29/15
f 5/29/15 4/66/37 3/30/16
f 7/99/48 5/29/15 11/31/17
f 17/55/30 72/131/68 109/54/29
f 109/54/29 32/48/26 16/49/26
f 84/137/55 78/117/55 96/116/55
f 78/117/55 102/129/55 90/118/55
f 33/58/32 34/57/32 110/130/67
f 110/130/67 72/131/68 17/55/30
