# Blender 4.5.10 LTS
# www.blender.org
mtllib cig_box.mtl
o cig_box
v -0.087536 1.194835 0.040709
v 0.087536 1.194835 0.040709
v -0.082546 1.256989 0.035719
v -0.082546 1.256989 -0.035719
v 0.082546 1.256989 -0.035719
v 0.082546 1.256989 0.035719
v 0.068848 1.256989 0.035719
v -0.068848 1.256989 0.035719
v 0.055824 1.207414 0.040709
v -0.055824 1.207414 0.040709
v -0.087536 1.002485 0.044955
v -0.092010 1.002485 0.040709
v -0.092010 1.002485 -0.040709
v -0.087536 1.002485 -0.044955
v 0.092010 1.002485 0.040709
v 0.087536 1.002485 0.044955
v 0.087536 1.002485 -0.044955
v 0.092010 1.002485 -0.040709
v -0.092010 1.194835 0.040709
v -0.087536 1.194835 0.044955
v -0.087536 1.194835 -0.044955
v -0.092010 1.194835 -0.040709
v -0.087551 1.194835 -0.040723
v 0.092010 1.194835 -0.040709
v 0.087536 1.194835 -0.044955
v 0.087551 1.194835 -0.040723
v 0.087536 1.194835 0.044955
v 0.092010 1.194835 0.040709
v -0.087536 1.256989 0.040709
v -0.087536 1.256989 -0.040709
v 0.087536 1.256989 -0.040709
v 0.087536 1.256989 0.040709
v -0.068848 1.256989 0.040709
v 0.068848 1.256989 0.040709
v -0.082546 1.140483 -0.035719
v -0.082546 1.140483 0.035719
v 0.055824 1.207414 0.035719
v -0.055824 1.207414 0.035719
v 0.082546 1.140483 -0.035719
v 0.082546 1.140483 0.035719
v -0.087537 1.262286 0.044955
v -0.092010 1.262286 0.040709
v -0.092010 1.262286 -0.040709
v -0.087537 1.262286 -0.044955
v 0.092010 1.262286 0.040709
v 0.087537 1.262286 0.044955
v 0.087537 1.262286 -0.044955
v 0.092010 1.262286 -0.040709
v -0.087537 1.194835 -0.044955
v -0.092010 1.194835 -0.040709
v 0.092010 1.194835 -0.040709
v 0.087537 1.194835 -0.044955
v 0.087537 1.194835 0.044955
v 0.092010 1.194835 0.040709
v -0.092010 1.194835 0.040709
v -0.087537 1.194835 0.044955
v -0.087537 1.194835 0.040709
v 0.087537 1.194835 0.040709
v -0.087551 1.194835 -0.040723
v 0.087551 1.194835 -0.040723
v -0.087537 1.256989 0.040709
v 0.087537 1.256989 0.040709
v -0.087551 1.256989 -0.040723
v 0.087551 1.256989 -0.040723
vn -0.0000 1.0000 -0.0000
vn -1.0000 0.0001 0.0001
vn 1.0000 0.0001 0.0001
vn -0.0000 0.0002 -1.0000
vn -0.0000 -0.0000 1.0000
vn -0.0238 -0.0000 -0.9997
vn -0.9986 -0.0000 -0.0523
vn -0.9986 0.0001 -0.0523
vn 0.9986 -0.0000 -0.0523
vn 0.0238 -0.0000 -0.9997
vn 0.0238 0.0002 -0.9997
vn 0.0238 -0.0000 0.9997
vn 0.9986 -0.0000 0.0523
vn -0.0238 -0.0000 0.9997
vn -0.9986 -0.0000 0.0523
vn -0.0000 -1.0000 -0.0000
vn 0.6107 0.7919 -0.0000
vn -0.6107 0.7919 -0.0000
vn -1.0000 -0.0000 -0.0000
vn -0.0000 -0.0000 -1.0000
vn 1.0000 -0.0000 -0.0000
vn -0.0238 0.0001 0.9997
vn -0.9986 0.0002 0.0523
vn 0.9986 -0.0002 -0.0523
vn 0.9986 -0.0002 0.0523
vn 0.0238 -0.0002 0.9997
vn 1.0000 -0.0000 -0.0002
vn -1.0000 -0.0000 -0.0002
vt 0.924110 0.487230
vt 0.918559 0.493079
vt 0.918559 0.487230
vt 0.715160 0.445772
vt 0.715177 0.339296
vt 0.796446 0.339309
vt 0.796429 0.445766
vt 0.715213 0.110382
vt 0.715230 0.003906
vt 0.796499 0.003938
vt 0.796482 0.110395
vt 0.715230 0.674724
vt 0.796499 0.674680
vt 0.731631 0.297834
vt 0.812083 0.258297
vt 0.806550 0.258316
vt 0.812102 0.252466
vt 0.812102 0.493079
vt 0.812083 0.487249
vt 0.477992 0.003906
vt 0.477992 0.255412
vt 0.469928 0.255412
vt 0.469928 0.003906
vt 0.011971 0.003906
vt 0.011971 0.255412
vt 0.003906 0.255412
vt 0.003906 0.003906
vt 0.126492 0.003906
vt 0.126492 0.255412
vt 0.118428 0.255412
vt 0.118428 0.003906
vt 0.355406 0.255412
vt 0.355406 0.003906
vt 0.363471 0.003906
vt 0.363471 0.255412
vt 0.132722 0.366077
vt 0.138274 0.360227
vt 0.250282 0.366077
vt 0.706906 0.003906
vt 0.706906 0.255412
vt 0.806550 0.487230
vt 0.924110 0.258316
vt 0.918559 0.258316
vt 0.918559 0.252466
vt 0.242910 0.713270
vt 0.149503 0.713270
vt 0.142978 0.706746
vt 0.249435 0.706746
vt 0.149503 0.929135
vt 0.242910 0.929135
vt 0.249435 0.935660
vt 0.142978 0.935660
vt 0.242910 0.731181
vt 0.249435 0.731181
vt 0.242910 0.911224
vt 0.249435 0.911224
vt 0.249435 0.698219
vt 0.249435 0.844203
vt 0.242910 0.844203
vt 0.242910 0.698219
vt 0.249435 0.798202
vt 0.242910 0.798202
vt 0.503952 0.359863
vt 0.503952 0.512199
vt 0.410545 0.512199
vt 0.410545 0.359863
vt 0.656288 0.728064
vt 0.503952 0.728064
vt 0.656288 0.512199
vt 0.323031 0.547139
vt 0.410545 0.728064
vt 0.410545 0.880399
vt 0.503952 0.880399
vt 0.003906 0.594991
vt 0.003906 0.366077
vt 0.121466 0.594991
vt 0.232821 0.351917
vt 0.003906 0.351917
vt 0.003906 0.263723
vt 0.232821 0.263723
vt 0.355406 0.351917
vt 0.347342 0.351917
vt 0.347342 0.263723
vt 0.355406 0.263723
vt 0.706906 0.351917
vt 0.698842 0.351917
vt 0.698842 0.263723
vt 0.706906 0.263723
vt 0.592385 0.351917
vt 0.592385 0.263723
vt 0.240885 0.351917
vt 0.240885 0.263723
vt 0.584321 0.351917
vt 0.584321 0.263723
vt 0.806550 0.009756
vt 0.812102 0.009756
vt 0.812102 0.238670
vt 0.806550 0.238670
vt 0.918559 0.003906
vt 0.918578 0.009737
vt 0.812102 0.003906
vt 0.924110 0.238670
vt 0.918578 0.238689
vt 0.924110 0.009756
vt 0.812102 0.244519
vt 0.918559 0.244519
vt 0.996094 0.682650
vt 0.996094 0.911602
vt 0.914825 0.911602
vt 0.914825 0.682650
vt 0.808335 0.601400
vt 0.914811 0.601381
vt 0.808349 0.682669
vt 0.914811 0.992871
vt 0.808335 0.992852
vt 0.808349 0.911583
vt 0.727081 0.911583
vt 0.727081 0.682669
vt 0.731654 0.151850
vt 0.796478 0.134831
vt 0.796450 0.314874
vt 0.244731 0.360227
vt 0.250282 0.594991
vt 0.132722 0.594991
vt 0.244731 0.600840
vt 0.138274 0.600840
vt 0.258209 0.728064
vt 0.323031 0.693124
vt 0.258209 0.710153
vt 0.258209 0.530110
vt 0.258209 0.512199
vt 0.009458 0.360227
vt 0.115915 0.360227
vt 0.121466 0.366077
vt 0.115915 0.600840
vt 0.009458 0.600840
s 1
usemtl Ciggarete
f 27/1/1 28/2/1 2/3/1
s 0
f 23/4/2 1/5/2 29/6/2 30/7/2
f 2/8/3 26/9/3 31/10/3 32/11/3
f 26/12/4 23/4/4 30/7/4 31/13/4
s 1
f 1/5/5 2/8/5 10/14/5
f 23/15/1 21/16/1 22/17/1
f 24/18/1 26/19/1 2/3/1 28/2/1
f 21/20/6 14/21/6 13/22/7 22/23/8
f 24/24/9 18/25/9 17/26/10 25/27/11
f 27/28/12 16/29/12 15/30/13 28/31/13
f 11/32/14 20/33/14 19/34/15 12/35/15
f 11/36/16 12/37/16 14/38/16
f 12/35/15 19/34/15 22/23/8 13/22/7
f 16/29/12 27/28/12 20/33/14 11/32/14
f 14/21/6 21/20/6 25/39/11 17/40/10
f 18/25/9 24/24/9 28/31/13 15/30/13
f 25/41/1 21/16/1 23/15/1 26/19/1
f 24/18/1 25/41/1 26/19/1
f 20/42/1 1/43/1 19/44/1
f 27/1/1 2/3/1 1/43/1 20/42/1
f 1/43/1 23/15/1 22/17/1 19/44/1
f 3/45/1 4/46/1 30/47/1 29/48/1
f 5/49/1 6/50/1 32/51/1 31/52/1
f 8/53/17 3/45/1 29/48/1 33/54/17
f 6/50/1 7/55/18 34/56/18 32/51/1
f 4/46/1 5/49/1 31/52/1 30/47/1
f 10/57/17 9/58/18 37/59/18 38/60/17
f 10/61/17 38/62/17 8/53/17 33/54/17
s 0
f 5/63/19 39/64/19 40/65/19 6/66/19
s 1
f 9/58/18 34/56/18 7/55/18 37/59/18
s 0
f 4/67/5 35/68/5 39/64/5 5/69/5
s 1
f 37/70/20 40/65/20 36/71/20
s 0
f 40/65/1 39/64/1 35/68/1 36/71/1
f 3/72/21 36/71/21 35/68/21 4/73/21
s 1
f 47/74/1 44/75/1 46/76/1
f 44/77/6 47/78/10 52/79/10 49/80/6
f 41/81/22 42/82/15 55/83/23 56/84/14
f 47/85/10 48/86/9 51/87/24 52/88/10
f 48/86/9 45/89/25 54/90/13 51/87/24
f 42/82/15 43/91/7 50/92/7 55/83/23
f 45/89/25 46/93/12 53/94/26 54/90/13
f 43/91/7 44/77/6 49/80/6 50/92/7
f 46/93/12 41/81/22 56/84/14 53/94/26
f 56/95/16 57/96/16 58/97/16 53/98/16
f 50/99/16 59/100/16 57/96/16 55/101/16
f 52/102/16 60/103/16 59/100/16 49/104/16
f 54/105/16 58/97/16 60/103/16 51/106/16
f 54/105/16 53/98/16 58/97/16
f 52/102/16 51/106/16 60/103/16
f 50/99/16 49/104/16 59/100/16
f 56/95/16 55/101/16 57/96/16
s 0
f 59/107/5 60/108/5 64/109/5 63/110/5
f 57/111/27 59/112/27 63/110/27 61/113/27
f 60/114/28 58/115/28 62/116/28 64/109/28
f 58/117/20 57/118/20 61/113/20 62/116/20
f 62/116/16 61/113/16 63/110/16 64/109/16
s 1
f 2/8/5 32/11/5 9/119/5
f 32/11/5 34/120/5 9/119/5
f 33/121/5 29/6/5 10/14/5
f 29/6/5 1/5/5 10/14/5
f 2/8/5 9/119/5 10/14/5
f 12/37/16 13/122/16 14/38/16
f 14/38/16 17/123/16 16/124/16
f 17/123/16 18/125/16 16/124/16
f 18/125/16 15/126/16 16/124/16
f 16/124/16 11/36/16 14/38/16
f 36/71/20 3/127/20 38/128/20
f 3/127/20 8/129/20 38/128/20
f 7/130/20 6/131/20 37/70/20
f 6/131/20 40/65/20 37/70/20
f 36/71/20 38/128/20 37/70/20
f 44/75/1 43/132/1 42/133/1
f 42/133/1 41/134/1 44/75/1
f 41/134/1 46/76/1 44/75/1
f 46/76/1 45/135/1 48/136/1
f 48/136/1 47/74/1 46/76/1
