# Blender 4.5.10 LTS
# www.blender.org
mtllib concentrate.mtl
o concentrate
v -0.230752 0.978441 0.007304
v 0.230752 0.978441 0.007304
v -0.182620 0.978441 0.064422
v 0.207563 0.978441 0.018555
v -0.182620 0.978441 -0.064422
v 0.182620 0.978441 -0.064422
v 0.207563 0.978441 -0.018555
v -0.207563 0.978441 -0.018555
v 0.182620 0.978441 0.064422
v -0.207563 0.978441 0.018555
v -0.230752 0.978441 -0.007304
v 0.230752 0.978441 -0.007304
v -0.182620 1.432210 0.003382
v -0.207639 1.432210 0.003382
v -0.230752 1.432210 0.002315
v -0.230752 1.432210 -0.002315
v -0.207639 1.432210 -0.003382
v 0.230752 1.432210 0.002315
v 0.230752 1.432210 -0.002315
v 0.207639 1.432210 -0.003382
v 0.182620 1.432210 0.003382
v 0.182620 1.432210 -0.003382
v -0.182620 1.432210 -0.003382
v 0.207639 1.432210 0.003382
v 0.207639 1.389911 0.003382
v -0.182620 1.389911 -0.003382
v 0.182620 1.389911 -0.003382
v 0.182620 1.389911 0.003382
v 0.207639 1.389911 -0.003382
v 0.230752 1.389911 -0.002315
v 0.230752 1.389911 0.002315
v -0.207639 1.389911 -0.003382
v -0.230752 1.389911 -0.002315
v -0.230752 1.389911 0.002315
v -0.207639 1.389911 0.003382
v -0.182620 1.389911 0.003382
v 0.207563 1.027783 0.018513
v -0.207576 1.322123 0.013554
v -0.182620 1.027783 -0.064132
v 0.207563 1.027783 -0.018513
v -0.207563 1.027783 -0.018513
v -0.194872 0.978441 -0.038398
v 0.194872 0.978441 -0.038398
v 0.194872 0.978441 0.038398
v -0.194872 0.978441 0.038398
v -0.230752 1.027783 0.007304
v 0.230752 1.027783 0.007304
v 0.182620 1.027783 -0.064132
v 0.230752 1.322123 -0.007200
v -0.230752 1.322123 -0.007200
v -0.234151 0.978441 0.000000
v 0.207576 1.322123 -0.013554
v 0.234151 0.978441 0.000000
v -0.182620 1.322123 0.030808
v -0.230752 1.322123 0.007200
v -0.182620 1.027783 0.064132
v -0.207576 1.322123 -0.013554
v -0.230752 1.225148 -0.007304
v -0.207563 1.225148 -0.015126
v -0.230752 1.126465 -0.007304
v -0.207563 1.126465 -0.017477
v -0.230752 1.027783 -0.007304
v 0.207563 1.225148 -0.015126
v 0.230752 1.225148 -0.007304
v 0.207563 1.126465 -0.017477
v 0.230752 1.126465 -0.007304
v 0.230752 1.027783 -0.007304
v 0.182620 1.322123 -0.030808
v 0.182620 1.225148 -0.041044
v 0.182620 1.126465 -0.057070
v -0.182620 1.126465 -0.057070
v -0.182620 1.225148 -0.041044
v -0.182620 1.322123 -0.030808
v 0.230752 1.322123 0.007200
v 0.230752 1.225148 0.007304
v 0.230752 1.126465 0.007304
v -0.207563 1.225148 0.015126
v -0.230752 1.225148 0.007304
v -0.207563 1.126465 0.017477
v -0.230752 1.126465 0.007304
v -0.207563 1.027783 0.018513
v 0.207576 1.322123 0.013554
v 0.207563 1.225148 0.015126
v 0.207563 1.126465 0.017477
v 0.182620 1.322123 0.030808
v 0.182620 1.225148 0.041044
v 0.182620 1.126465 0.057070
v 0.182620 1.027783 0.064132
v -0.182620 1.126465 0.057070
v -0.182620 1.225148 0.041044
v -0.194891 1.432210 0.003382
v 0.234151 1.432210 -0.000000
v -0.234151 1.432210 -0.000000
v 0.194891 1.432210 -0.003382
v -0.194891 1.432210 -0.003382
v 0.194891 1.432210 0.003382
v 0.182620 1.379834 0.016604
v -0.182620 1.379834 0.016604
v 0.194891 1.389911 0.003382
v -0.194891 1.389911 -0.003382
v 0.194891 1.389911 -0.003382
v -0.234151 1.389911 -0.000000
v 0.234151 1.389911 -0.000000
v -0.194891 1.389911 0.003382
v -0.207639 1.379834 0.008496
v -0.230752 1.379834 0.004706
v -0.230752 1.379834 -0.004706
v -0.207639 1.379834 -0.008496
v -0.182620 1.379834 -0.016604
v 0.182620 1.379834 -0.016604
v 0.207639 1.379834 -0.008496
v 0.230752 1.379834 -0.004706
v 0.230752 1.379834 0.004706
v 0.207639 1.379834 0.008496
v 0.194875 1.322123 -0.021000
v 0.194872 1.225148 -0.026338
v 0.194872 1.126465 -0.034605
v 0.194872 1.027783 -0.038248
v -0.194872 1.027783 -0.038248
v -0.194872 1.126465 -0.034605
v -0.194872 1.225148 -0.026338
v -0.194875 1.322123 -0.021000
v 0.234151 1.322123 -0.000000
v 0.234151 1.225148 -0.000000
v 0.234151 1.126465 0.000000
v 0.234151 1.027783 0.000000
v 0.194875 1.322123 0.021000
v 0.194872 1.225148 0.026338
v 0.194872 1.126465 0.034605
v 0.194872 1.027783 0.038248
v -0.194872 1.027783 0.038248
v -0.194872 1.126465 0.034605
v -0.194872 1.225148 0.026338
v -0.194875 1.322123 0.021000
v -0.234151 1.322123 -0.000000
v -0.234151 1.225148 -0.000000
v -0.234151 1.126465 0.000000
v -0.234151 1.027783 0.000000
v -0.194891 1.379834 0.011942
v -0.234151 1.379834 -0.000000
v -0.194891 1.379834 -0.011942
v 0.194891 1.379834 -0.011942
v 0.234151 1.379834 -0.000000
v 0.194891 1.379834 0.011942
vn -0.0000 -0.0000 1.0000
vn -0.0641 0.3445 0.9366
vn -0.0354 0.4210 0.9064
vn -0.3871 0.1134 -0.9150
vn -0.3165 -0.0000 -0.9486
vn -0.0231 -0.0000 -0.9997
vn -0.0661 0.2343 -0.9699
vn -0.0000 1.0000 -0.0000
vn -0.0231 -0.0000 0.9997
vn -0.0661 0.2343 0.9699
vn 0.6218 0.0228 -0.7829
vn 0.6696 0.0053 -0.7427
vn 0.5090 0.0214 -0.8605
vn 0.3775 0.0541 -0.9244
vn 0.6949 0.0043 -0.7191
vn 0.6073 0.0169 -0.7943
vn 0.7092 0.0014 -0.7050
vn 0.6544 0.0051 -0.7562
vn -0.7092 0.0014 -0.7050
vn -0.6544 0.0051 -0.7562
vn -0.6638 0.0007 -0.7479
vn -0.7126 0.0002 -0.7016
vn -0.6218 0.0228 -0.7829
vn -0.5106 0.1401 -0.8484
vn -0.2083 0.2829 -0.9363
vn -0.3775 0.0541 -0.9244
vn 0.7243 0.0474 -0.6879
vn 0.5540 0.0938 -0.8272
vn 0.8274 0.0358 -0.5605
vn 0.8677 0.0103 -0.4970
vn 0.7126 0.0002 -0.7016
vn 0.6638 0.0007 -0.7479
vn 0.3775 0.0541 0.9244
vn 0.2083 0.2829 0.9363
vn 0.2966 0.4231 0.8562
vn 0.5540 0.0938 0.8272
vn -0.2966 0.4231 -0.8562
vn -0.5540 0.0938 -0.8272
vn 0.3205 0.1504 -0.9353
vn 0.1767 0.5056 -0.8445
vn 0.2966 0.4231 -0.8562
vn 0.4327 0.1082 -0.8950
vn -0.7243 0.0474 -0.6879
vn -0.5090 0.0214 -0.8605
vn 0.4934 0.0933 -0.8648
vn -0.8274 0.0358 -0.5605
vn -0.6073 0.0169 -0.7943
vn 0.5245 0.0306 -0.8509
vn -0.8677 0.0103 -0.4970
vn 0.8749 0.0015 -0.4843
vn 0.5344 0.0046 -0.8452
vn -0.5344 0.0046 -0.8452
vn -0.8749 0.0015 -0.4843
vn -0.5245 0.0306 -0.8509
vn -0.4934 0.0933 -0.8648
vn -0.4327 0.1082 -0.8950
vn -0.3205 0.1504 -0.9353
vn -0.1767 0.5056 -0.8445
vn 0.7092 0.0014 0.7050
vn 1.0000 -0.0000 -0.0000
vn 0.6949 0.0043 0.7191
vn 0.6696 0.0053 0.7427
vn 1.0000 0.0001 -0.0000
vn 0.6218 0.0228 0.7829
vn 1.0000 0.0062 -0.0000
vn 0.5106 0.1401 0.8484
vn 0.5344 0.0046 0.8452
vn 0.5245 0.0306 0.8509
vn -0.5245 0.0306 0.8509
vn -0.5344 0.0046 0.8452
vn 0.2083 0.2829 -0.9363
vn 0.5106 0.1401 -0.8484
vn 0.9983 0.0586 -0.0000
vn -0.6218 0.0228 0.7829
vn -0.6696 0.0053 0.7427
vn -0.5090 0.0214 0.8605
vn -0.3775 0.0541 0.9244
vn -0.6949 0.0043 0.7191
vn -0.6073 0.0169 0.7943
vn -0.7092 0.0014 0.7050
vn -0.6544 0.0051 0.7562
vn 0.7126 0.0002 0.7016
vn 0.5090 0.0214 0.8605
vn 0.6073 0.0169 0.7943
vn 0.6544 0.0051 0.7562
vn -0.7126 0.0002 0.7016
vn -0.6638 0.0007 0.7479
vn -0.3165 -0.0000 0.9486
vn -0.3871 0.1134 0.9150
vn 0.3205 0.1504 0.9353
vn 0.4327 0.1082 0.8950
vn 0.7243 0.0474 0.6879
vn 0.4934 0.0933 0.8648
vn 0.8274 0.0358 0.5605
vn 0.8677 0.0103 0.4970
vn 0.6638 0.0007 0.7479
vn 0.0661 0.2343 -0.9699
vn 0.0231 -0.0000 -0.9997
vn 0.3165 -0.0000 -0.9486
vn 0.3871 0.1134 -0.9150
vn 0.1767 0.5056 0.8445
vn -0.6696 0.0053 -0.7427
vn -0.3205 0.1504 0.9353
vn -0.5540 0.0938 0.8272
vn -0.7243 0.0474 0.6879
vn -0.4327 0.1082 0.8950
vn -0.4934 0.0933 0.8648
vn -0.8274 0.0358 0.5605
vn -0.8677 0.0103 0.4970
vn 0.8749 0.0015 0.4843
vn -0.8749 0.0015 0.4843
vn -0.6949 0.0043 -0.7191
vn -1.0000 -0.0000 -0.0000
vn -1.0000 0.0001 -0.0000
vn -1.0000 0.0062 -0.0000
vn -0.2966 0.4231 0.8562
vn -0.2083 0.2829 0.9363
vn -0.5106 0.1401 0.8484
vn -0.1767 0.5056 0.8445
vn -0.9983 0.0586 -0.0000
vn -0.0354 0.4210 -0.9064
vn -0.0000 -0.0000 -1.0000
vn 0.0354 0.4210 -0.9064
vn -0.9979 0.0642 -0.0000
vn 0.3165 -0.0000 0.9486
vn 0.3871 0.1134 0.9150
vn 0.9979 0.0642 -0.0000
vn -0.0641 0.3445 -0.9366
vn 0.0641 0.3445 -0.9366
vn 0.0231 -0.0000 0.9997
vn 0.0661 0.2343 0.9699
vn 0.0354 0.4210 0.9064
vn 0.0641 0.3445 0.9366
vn -0.0000 -1.0000 -0.0000
vt 0.499627 0.504331
vt 0.499650 0.550049
vt 0.486291 0.549555
vt 0.486399 0.504410
vt 0.539014 0.449949
vt 0.538590 0.495962
vt 0.513450 0.495745
vt 0.513688 0.449671
vt 0.726911 0.491302
vt 0.725793 0.467071
vt 0.732884 0.467071
vt 0.731765 0.491302
vt 0.729338 0.494865
vt 0.513415 0.504244
vt 0.513656 0.550319
vt 0.040943 0.376266
vt 0.033125 0.272984
vt 0.059307 0.270686
vt 0.066678 0.374136
vt 0.022587 0.167729
vt 0.049659 0.165493
vt 0.015390 0.060994
vt 0.043252 0.059391
vt 0.568788 0.060994
vt 0.540926 0.059391
vt 0.543277 0.005845
vt 0.571433 0.007196
vt 0.543235 0.376266
vt 0.538897 0.438767
vt 0.513469 0.437045
vt 0.517501 0.374136
vt 0.077547 0.268957
vt 0.082275 0.372468
vt 0.072198 0.163463
vt 0.068414 0.057973
vt 0.012745 0.007196
vt 0.040901 0.005845
vt 0.066607 0.625861
vt 0.070641 0.562947
vt 0.085008 0.564552
vt 0.082206 0.627529
vt 0.499103 0.435441
vt 0.501904 0.372468
vt 0.098669 0.370419
vt 0.098673 0.433118
vt 0.085076 0.435441
vt 0.098213 0.266876
vt 0.506632 0.268957
vt 0.524872 0.270686
vt 0.098919 0.160870
vt 0.511980 0.163463
vt 0.534519 0.165493
vt 0.098738 0.056367
vt 0.515765 0.057973
vt 0.066658 0.004785
vt 0.098014 0.003906
vt 0.486165 0.003906
vt 0.517520 0.004785
vt 0.485440 0.056368
vt 0.485259 0.160870
vt 0.485966 0.266876
vt 0.485509 0.370419
vt 0.485505 0.433118
vt 0.015327 0.939072
vt 0.006568 0.938561
vt 0.013849 0.831571
vt 0.022504 0.832296
vt 0.033048 0.727022
vt 0.024448 0.726262
vt 0.040871 0.623730
vt 0.032333 0.622931
vt 0.045211 0.561224
vt 0.097976 0.996094
vt 0.098683 0.943646
vt 0.485297 0.943656
vt 0.486002 0.996072
vt 0.070710 0.437045
vt 0.045281 0.438767
vt 0.039113 0.439620
vt 0.032406 0.377064
vt 0.024527 0.273743
vt 0.543222 0.623721
vt 0.551090 0.727043
vt 0.524878 0.729342
vt 0.517481 0.625860
vt 0.013935 0.168454
vt 0.561530 0.832400
vt 0.534446 0.834603
vt 0.006636 0.061511
vt 0.568548 0.939144
vt 0.540717 0.940693
vt 0.012744 0.992899
vt 0.003906 0.992487
vt 0.003906 0.007635
vt 0.059232 0.729321
vt 0.049583 0.834529
vt 0.043198 0.940655
vt 0.571043 0.992839
vt 0.542979 0.994139
vt 0.538554 0.504026
vt 0.538982 0.550037
vt 0.098602 0.629579
vt 0.098144 0.733132
vt 0.077475 0.731051
vt 0.098852 0.839146
vt 0.072126 0.836557
vt 0.068361 0.942056
vt 0.040898 0.994207
vt 0.070491 0.449671
vt 0.070728 0.495745
vt 0.045589 0.495962
vt 0.045164 0.449949
vt 0.098607 0.566875
vt 0.551053 0.272984
vt 0.485479 0.629587
vt 0.501879 0.627533
vt 0.506615 0.731072
vt 0.485928 0.733152
vt 0.485173 0.839178
vt 0.511900 0.836609
vt 0.515587 0.942077
vt 0.066642 0.995237
vt 0.517296 0.995185
vt 0.561591 0.167729
vt 0.577543 0.061511
vt 0.570243 0.168454
vt 0.559651 0.273743
vt 0.551772 0.377064
vt 0.499072 0.564553
vt 0.513438 0.562945
vt 0.538867 0.561218
vt 0.485473 0.566878
vt 0.545035 0.560364
vt 0.551761 0.622918
vt 0.559712 0.726278
vt 0.570188 0.831688
vt 0.577294 0.938650
vt 0.580272 0.007635
vt 0.579823 0.992426
vt 0.486325 0.450439
vt 0.486433 0.495580
vt 0.097745 0.495580
vt 0.097854 0.450439
vt 0.542998 0.503981
vt 0.543457 0.549693
vt 0.045519 0.504026
vt 0.045094 0.550041
vt 0.040618 0.549698
vt 0.041074 0.503981
vt 0.499682 0.449944
vt 0.499662 0.495659
vt 0.084496 0.449944
vt 0.084517 0.495659
vt 0.070660 0.504242
vt 0.070422 0.550320
vt 0.041144 0.496006
vt 0.040689 0.450292
vt 0.097679 0.504407
vt 0.097788 0.549552
vt 0.084429 0.550048
vt 0.084450 0.504328
vt 0.545066 0.439620
vt 0.543489 0.450292
vt 0.039042 0.560371
vt 0.726911 0.007469
vt 0.729338 0.003906
vt 0.731765 0.007469
vt 0.732884 0.031701
vt 0.725793 0.031701
vt 0.643846 0.473101
vt 0.658590 0.473101
vt 0.651218 0.476532
vt 0.732884 0.045065
vt 0.725793 0.045065
vt 0.732884 0.440841
vt 0.732884 0.453706
vt 0.725793 0.453706
vt 0.725793 0.440841
vt 0.725793 0.057930
vt 0.732884 0.057930
vt 0.543034 0.496006
vt 0.612466 0.043547
vt 0.689970 0.043547
vt 0.716235 0.055913
vt 0.586201 0.055913
vt 0.632491 0.030740
vt 0.669945 0.030740
vt 0.658590 0.007336
vt 0.643846 0.007336
vt 0.651218 0.003906
vt 0.716235 0.424525
vt 0.586201 0.424525
vt 0.689970 0.436890
vt 0.612466 0.436890
vt 0.669945 0.449698
vt 0.632491 0.449698
s 1
usemtl concentrate
f 91/1/1 104/2/2 36/3/3 13/4/1
f 33/5/4 16/6/5 17/7/6 32/8/7
f 15/9/8 14/10/8 17/11/8 16/12/8 93/13/8
f 14/14/9 35/15/10 104/2/2 91/1/1
f 49/16/11 64/17/12 63/18/13 52/19/14
f 64/17/12 66/20/15 65/21/16 63/18/13
f 66/20/15 67/22/17 40/23/18 65/21/16
f 62/24/19 41/25/20 8/26/21 11/27/22
f 50/28/23 107/29/24 108/30/25 57/31/26
f 52/19/14 63/18/13 116/32/27 115/33/28
f 63/18/13 65/21/16 117/34/29 116/32/27
f 40/23/18 118/35/30 117/34/29 65/21/16
f 40/23/18 67/22/17 12/36/31 7/37/32
f 82/38/33 114/39/34 144/40/35 127/41/36
f 57/31/26 108/30/25 141/42/37 122/43/38
f 68/44/39 110/45/40 142/46/41 115/33/28
f 115/33/28 116/32/27 69/47/42 68/44/39
f 57/31/26 122/43/38 121/48/43 59/49/44
f 116/32/27 117/34/29 70/50/45 69/47/42
f 59/49/44 121/48/43 120/51/46 61/52/47
f 117/34/29 118/35/30 48/53/48 70/50/45
f 41/25/20 61/52/47 120/51/46 119/54/49
f 118/35/30 40/23/18 7/37/32 43/55/50
f 48/53/48 118/35/30 43/55/50 6/56/51
f 5/57/52 42/58/53 119/54/49 39/59/54
f 42/58/53 8/26/21 41/25/20 119/54/49
f 119/54/49 120/51/46 71/60/55 39/59/54
f 39/59/54 71/60/55 70/50/45 48/53/48
f 120/51/46 121/48/43 72/61/56 71/60/55
f 71/60/55 72/61/56 69/47/42 70/50/45
f 121/48/43 122/43/38 73/62/57 72/61/56
f 72/61/56 73/62/57 68/44/39 69/47/42
f 122/43/38 141/42/37 109/63/58 73/62/57
f 73/62/57 109/63/58 110/45/40 68/44/39
f 47/64/59 126/65/60 125/66/60 76/67/61
f 75/68/62 76/67/61 125/66/60 124/69/63
f 74/70/64 75/68/62 124/69/63 123/71/65
f 74/70/64 113/72/66 114/39/34 82/38/33
f 9/73/67 88/74/68 56/75/69 3/76/70
f 52/19/14 111/77/71 112/78/72 49/16/11
f 49/16/11 112/78/72 143/79/73 123/80/65
f 123/80/65 124/81/63 64/17/12 49/16/11
f 55/82/74 78/83/75 77/84/76 38/85/77
f 124/81/63 125/86/60 66/20/15 64/17/12
f 78/83/75 80/87/78 79/88/79 77/84/76
f 125/86/60 126/89/60 67/22/17 66/20/15
f 46/90/80 81/91/81 79/88/79 80/87/78
f 126/65/60 47/64/59 2/92/82 53/93/60
f 67/22/17 126/89/60 53/94/60 12/36/31
f 82/38/33 83/95/83 75/68/62 74/70/64
f 83/95/83 84/96/84 76/67/61 75/68/62
f 37/97/85 47/64/59 76/67/61 84/96/84
f 81/91/81 46/90/80 1/98/86 10/99/87
f 35/15/10 14/14/9 15/100/88 34/101/89
f 85/102/90 86/103/91 128/104/92 127/41/36
f 86/103/91 87/105/93 129/106/94 128/104/92
f 87/105/93 88/74/68 130/107/95 129/106/94
f 47/64/59 37/97/85 4/108/96 2/92/82
f 29/109/97 20/110/98 19/111/99 30/112/100
f 127/41/36 144/40/35 97/113/101 85/102/90
f 57/31/26 59/49/44 58/114/102 50/28/23
f 127/41/36 128/104/92 83/95/83 82/38/33
f 54/115/103 134/116/104 133/117/105 90/118/106
f 128/104/92 129/106/94 84/96/84 83/95/83
f 89/119/107 90/118/106 133/117/105 132/120/108
f 129/106/94 130/107/95 37/97/85 84/96/84
f 56/75/69 89/119/107 132/120/108 131/121/109
f 130/107/95 88/74/68 9/73/67 44/122/110
f 37/97/85 130/107/95 44/122/110 4/108/96
f 10/99/87 45/123/111 131/121/109 81/91/81
f 45/123/111 3/76/70 56/75/69 131/121/109
f 131/121/109 132/120/108 79/88/79 81/91/81
f 60/124/112 62/24/19 138/125/113 137/126/113
f 132/120/108 133/117/105 77/84/76 79/88/79
f 58/114/102 60/124/112 137/126/113 136/127/114
f 133/117/105 134/116/104 38/85/77 77/84/76
f 50/28/23 58/114/102 136/127/114 135/128/115
f 134/116/104 139/129/116 105/130/117 38/85/77
f 38/85/77 105/130/117 106/131/118 55/82/74
f 85/102/90 97/113/101 98/132/119 54/115/103
f 55/82/74 106/131/118 140/133/120 135/134/115
f 135/134/115 136/135/114 78/83/75 55/82/74
f 85/102/90 54/115/103 90/118/106 86/103/91
f 136/135/114 137/136/113 80/87/78 78/83/75
f 86/103/91 90/118/106 89/119/107 87/105/93
f 137/136/113 138/137/113 46/90/80 80/87/78
f 87/105/93 89/119/107 56/75/69 88/74/68
f 138/125/113 62/24/19 11/27/22 51/138/113
f 46/90/80 138/137/113 51/139/113 1/98/86
f 41/25/20 62/24/19 60/124/112 61/52/47
f 59/49/44 61/52/47 60/124/112 58/114/102
f 115/33/28 142/46/41 111/77/71 52/19/14
f 26/140/121 23/141/122 22/142/122 27/143/123
f 93/144/113 102/145/124 34/101/89 15/100/88
f 18/146/125 31/147/126 103/148/127 92/149/60
f 23/141/122 26/140/121 100/150/128 95/151/122
f 95/151/122 100/150/128 32/8/7 17/7/6
f 20/110/98 29/109/97 101/152/129 94/153/122
f 94/153/122 101/152/129 27/143/123 22/142/122
f 31/147/126 18/146/125 24/154/130 25/155/131
f 92/156/60 103/157/127 30/112/100 19/111/99
f 6/56/51 5/57/52 39/59/54 48/53/48
f 21/158/1 28/159/132 99/160/133 96/161/1
f 96/161/1 99/160/133 25/155/131 24/154/130
f 21/158/1 13/4/1 36/3/3 28/159/132
f 139/129/116 98/132/119 36/3/3 104/2/2
f 105/130/117 139/129/116 104/2/2 35/15/10
f 106/131/118 105/130/117 35/15/10 34/101/89
f 140/133/120 106/131/118 34/101/89 102/145/124
f 107/29/24 140/162/120 102/163/124 33/5/4
f 108/30/25 107/29/24 33/5/4 32/8/7
f 141/42/37 108/30/25 32/8/7 100/150/128
f 109/63/58 141/42/37 100/150/128 26/140/121
f 110/45/40 109/63/58 26/140/121 27/143/123
f 142/46/41 110/45/40 27/143/123 101/152/129
f 111/77/71 142/46/41 101/152/129 29/109/97
f 112/78/72 111/77/71 29/109/97 30/112/100
f 143/79/73 112/78/72 30/112/100 103/157/127
f 113/72/66 143/164/73 103/148/127 31/147/126
f 114/39/34 113/72/66 31/147/126 25/155/131
f 18/165/8 92/166/8 19/167/8 20/168/8 24/169/8
f 144/40/35 114/39/34 25/155/131 99/160/133
f 97/113/101 144/40/35 99/160/133 28/159/132
f 98/132/119 97/113/101 28/159/132 36/3/3
f 2/170/134 12/171/134 53/172/134
f 135/128/115 140/162/120 107/29/24 50/28/23
f 94/173/8 96/174/8 24/169/8 20/168/8
f 23/175/8 95/176/8 91/177/8 13/178/8
f 91/177/8 95/176/8 17/11/8 14/10/8
f 54/115/103 98/132/119 139/129/116 134/116/104
f 21/179/8 22/180/8 23/175/8 13/178/8
f 16/6/5 33/5/4 102/163/124 93/181/113
f 21/179/8 96/174/8 94/173/8 22/180/8
f 123/71/65 143/164/73 113/72/66 74/70/64
f 45/182/134 42/183/134 5/184/134 3/185/134
f 10/186/134 8/187/134 42/183/134 45/182/134
f 11/188/134 8/187/134 10/186/134 1/189/134
f 51/190/134 11/188/134 1/189/134
f 3/185/134 5/184/134 6/191/134 9/192/134
f 9/192/134 6/191/134 43/193/134 44/194/134
f 44/194/134 43/193/134 7/195/134 4/196/134
f 4/196/134 7/195/134 12/171/134 2/170/134
