# Blender 4.5.10 LTS
# www.blender.org
mtllib edrink.mtl
o edrink
v -0.048095 1.000000 0.075514
v -0.083303 1.000000 0.040307
v -0.096190 1.000000 -0.007788
v -0.048095 1.000000 -0.091091
v 0.000000 1.000000 -0.103978
v 0.083303 1.000000 0.040307
v -0.045625 0.978441 0.071237
v -0.079026 0.978441 -0.053414
v -0.045625 0.978441 -0.086814
v 0.000000 0.978441 -0.099039
v 0.079026 0.978441 -0.053414
v 0.045625 0.978441 0.071237
v -0.050746 1.013227 0.080106
v 0.000000 1.013227 0.093703
v 0.000000 1.000000 0.088401
v -0.087894 1.013227 0.042958
v -0.101491 1.013227 -0.007788
v -0.083303 1.000000 -0.055883
v -0.087894 1.013227 -0.058534
v -0.050746 1.013227 -0.095682
v 0.000000 1.013227 -0.109280
v 0.048095 1.000000 -0.091091
v 0.050746 1.013227 -0.095682
v 0.083303 1.000000 -0.055883
v 0.087894 1.013227 -0.058534
v 0.096190 1.000000 -0.007788
v 0.101491 1.013227 -0.007788
v 0.087894 1.013227 0.042958
v 0.048095 1.000000 0.075514
v 0.050746 1.013227 0.080106
v -0.048095 1.409098 0.075514
v -0.083303 1.409098 0.040307
v -0.096190 1.409098 -0.007788
v -0.048095 1.409098 -0.091091
v 0.000000 1.409098 -0.103978
v 0.083303 1.409098 0.040307
v -0.045625 1.430656 0.071237
v -0.091251 1.430656 -0.007788
v -0.079026 1.430656 -0.053414
v -0.045625 1.430656 -0.086814
v 0.000000 1.430656 -0.099039
v 0.045625 1.430656 -0.086814
v 0.079026 1.430656 0.037837
v 0.045625 1.430656 0.071237
v -0.050746 1.395870 0.080106
v 0.000000 1.395870 0.093703
v 0.000000 1.409098 0.088401
v -0.087894 1.395870 0.042957
v -0.101491 1.395870 -0.007788
v -0.083303 1.409098 -0.055883
v -0.087894 1.395870 -0.058534
v -0.050746 1.395870 -0.095682
v 0.000000 1.395870 -0.109280
v 0.048095 1.409098 -0.091091
v 0.050746 1.395870 -0.095682
v 0.083303 1.409098 -0.055883
v 0.087894 1.395870 -0.058534
v 0.096190 1.409098 -0.007788
v 0.101491 1.395870 -0.007788
v 0.087894 1.395870 0.042957
v 0.048095 1.409098 0.075514
v 0.050746 1.395870 0.080106
v 0.083303 1.416888 -0.055883
v -0.083303 1.416888 -0.055883
v 0.048095 1.416888 -0.091091
v 0.096190 1.416888 -0.007788
v -0.048095 1.416888 0.075514
v -0.083303 0.992209 -0.055883
v 0.048095 0.992209 -0.091091
v 0.000000 0.992209 0.088401
v 0.048095 0.992209 0.075514
v -0.096190 0.992209 -0.007788
v 0.083303 0.992209 0.040307
v -0.048095 0.992209 0.075514
v -0.048095 0.992209 -0.091091
v -0.083303 0.992209 0.040307
v 0.000000 0.990270 0.093118
v 0.000000 0.980381 0.093118
v 0.000000 0.978441 0.083463
v -0.050453 0.980381 0.079599
v -0.079026 0.978441 0.037837
v -0.087387 0.980381 0.042665
v -0.091251 0.978441 -0.007788
v -0.100906 0.980381 -0.007788
v -0.087387 0.980381 -0.058241
v -0.050453 0.980381 -0.095175
v -0.000000 0.980381 -0.108694
v 0.045625 0.978441 -0.086814
v 0.050453 0.980381 -0.095175
v 0.087387 0.980381 -0.058241
v 0.091251 0.978441 -0.007788
v 0.100906 0.980381 -0.007788
v 0.079026 0.978441 0.037837
v 0.087387 0.980381 0.042665
v 0.050453 0.980381 0.079599
v -0.000000 0.990270 -0.108694
v 0.000000 0.992209 -0.103978
v -0.100906 0.990270 -0.007788
v 0.087387 0.990270 0.042665
v 0.000000 1.416888 0.088401
v 0.000000 1.418828 0.093118
v 0.000000 1.430656 0.083463
v 0.000000 1.428717 0.093118
v -0.050453 1.428717 0.079599
v -0.087387 1.428716 0.042665
v -0.079026 1.430656 0.037837
v -0.100906 1.428716 -0.007788
v -0.087387 1.428716 -0.058241
v -0.050453 1.428716 -0.095175
v -0.000000 1.428716 -0.108694
v 0.050453 1.428716 -0.095175
v 0.087387 1.428716 -0.058241
v 0.079026 1.430656 -0.053414
v 0.100906 1.428716 -0.007788
v 0.091251 1.430656 -0.007788
v 0.087387 1.428716 0.042665
v 0.050453 1.428717 0.079599
v 0.000000 1.416888 -0.103978
v -0.000000 1.418828 -0.108694
v -0.096190 1.416888 -0.007788
v -0.100906 1.418828 -0.007788
v 0.083303 1.416888 0.040307
v 0.087387 1.418828 0.042665
v 0.087387 1.418828 -0.058241
v -0.087387 1.418828 -0.058241
v 0.050453 1.418828 -0.095175
v 0.100906 1.418828 -0.007788
v 0.050453 1.418828 0.079599
v 0.048095 1.416888 0.075514
v -0.050453 1.418828 0.079599
v -0.050453 1.418828 -0.095175
v -0.048095 1.416888 -0.091091
v -0.087387 1.418828 0.042665
v -0.083303 1.416888 0.040307
v 0.083303 0.992209 -0.055883
v 0.087387 0.990270 -0.058241
v -0.087387 0.990270 -0.058241
v 0.050453 0.990270 -0.095175
v 0.096190 0.992209 -0.007788
v 0.100906 0.990270 -0.007788
v 0.050453 0.990270 0.079599
v -0.050453 0.990270 0.079599
v -0.050453 0.990270 -0.095175
v -0.087387 0.990270 0.042665
v -0.083303 0.978441 -0.055883
v -0.096190 0.978441 -0.007788
v -0.048095 0.978441 -0.091091
v 0.000000 0.978441 -0.103978
v -0.096190 1.430656 -0.007788
v -0.083303 1.430656 0.040307
v -0.083303 1.430656 -0.055883
v -0.048095 1.430656 -0.091091
v 0.000000 1.430656 -0.103978
v 0.048095 1.430656 -0.091091
v 0.048095 1.430656 0.075514
v 0.083303 1.430656 0.040306
v -0.083303 0.978441 0.040307
v -0.048095 0.978441 0.075514
v -0.048095 1.430656 0.075514
v 0.048095 0.978441 -0.091091
v 0.000000 1.430656 0.088401
v 0.096190 1.430656 -0.007788
v 0.000000 0.978441 0.088401
v 0.048095 0.978441 0.075514
v 0.083303 0.978441 0.040307
v 0.096190 0.978441 -0.007788
v 0.083303 0.978441 -0.055883
v 0.083303 1.430656 -0.055883
v -0.091251 0.992209 -0.007788
v -0.091251 1.416888 -0.007788
v -0.079026 1.416888 0.037837
v -0.079026 1.416888 -0.053414
v -0.045625 1.416888 -0.086814
v 0.000000 1.416888 -0.099039
v 0.045625 1.416888 -0.086814
v 0.079026 1.416888 0.037837
v -0.045625 0.992209 0.071237
v -0.045625 1.416888 0.071237
v 0.091251 1.416888 -0.007788
v 0.045625 0.992209 0.071237
v 0.079026 0.992209 0.037837
v 0.079026 1.416888 -0.053414
v 0.000000 1.416888 0.083457
v 0.045625 1.416888 0.071237
v -0.009311 1.416888 0.071237
v -0.018352 1.416888 0.062196
v 0.016180 1.416888 0.062196
v 0.007139 1.416888 0.071237
v 0.021180 1.416888 0.029317
v 0.012139 1.416888 0.020276
v -0.023352 1.416888 0.029317
v -0.014311 1.416888 0.020276
v 0.045625 1.381109 0.071237
v 0.000000 1.381109 0.083457
v 0.079026 1.381109 -0.053414
v 0.091251 1.381109 -0.007788
v -0.045625 1.381109 0.071237
v 0.079026 1.381109 0.037837
v 0.045625 1.381109 -0.086814
v 0.000000 1.381109 -0.099039
v -0.045625 1.381109 -0.086814
v -0.079026 1.381109 -0.053414
v -0.079026 1.381109 0.037837
v -0.091251 1.381109 -0.007788
v -0.009311 1.414890 0.071237
v -0.018352 1.414890 0.062196
v 0.016180 1.414890 0.062196
v 0.007139 1.414890 0.071237
v 0.021180 1.414890 0.029317
v 0.012139 1.414890 0.020276
v -0.023352 1.414890 0.029317
v -0.014311 1.414890 0.020276
v 0.000000 0.992209 0.083458
v 0.079026 0.992209 -0.053414
v 0.091251 0.992209 -0.007788
v 0.045625 0.992209 -0.086814
v 0.000000 0.992209 -0.099039
v -0.045625 0.992209 -0.086814
v -0.079026 0.992209 -0.053414
v -0.079026 0.992209 0.037837
v -0.001086 1.416541 0.020421
v 0.004559 1.416541 0.014777
v -0.001086 1.416541 0.009133
v -0.006730 1.416541 0.014777
v -0.001086 1.424232 0.020421
v 0.004559 1.424232 0.014777
v -0.001086 1.424232 0.009132
v -0.006730 1.424232 0.014777
v -0.009311 1.414890 0.071237
v -0.018352 1.414890 0.062196
v 0.007139 1.414890 0.071237
v 0.012139 1.414890 0.020276
v -0.008483 1.416888 0.069239
v -0.016475 1.416888 0.061247
v 0.016180 1.414890 0.062196
v 0.014304 1.416888 0.061247
v 0.006312 1.416888 0.069239
v 0.021180 1.414890 0.029317
v 0.019053 1.416888 0.030016
v 0.011312 1.416888 0.022274
v -0.023352 1.414890 0.029317
v -0.021225 1.416888 0.030016
v -0.014311 1.414890 0.020276
v -0.013483 1.416888 0.022274
v 0.020446 1.418339 -0.022433
v -0.027688 1.418339 -0.070876
v 0.025516 1.418339 -0.035993
v -0.027688 1.418339 -0.035993
v -0.022617 1.418339 -0.022433
v -0.022617 1.418339 0.023124
v 0.020446 1.418339 0.023124
v 0.025516 1.418339 -0.070876
v -0.001086 1.418339 0.031808
v -0.017215 1.418339 -0.023995
v -0.022911 1.418339 -0.037555
v 0.015043 1.418339 -0.023995
v -0.022911 1.418339 -0.060644
v 0.020739 1.418339 -0.037555
v 0.020739 1.418339 -0.060644
v -0.017215 1.423048 -0.023995
v -0.022911 1.423048 -0.037555
v 0.015043 1.423048 -0.023995
v -0.022911 1.423048 -0.060644
v 0.020739 1.423048 -0.037555
v 0.020739 1.423048 -0.060644
v -0.022617 1.423048 -0.022433
v -0.027688 1.423048 -0.035993
v 0.020446 1.423048 -0.022433
v -0.027688 1.423048 -0.070876
v 0.025516 1.423048 -0.035993
v 0.025516 1.423048 -0.070876
v -0.022617 1.423048 0.023124
v -0.001086 1.423048 0.031808
v 0.010319 1.418339 0.011182
v -0.017215 1.418339 -0.000223
v -0.001086 1.418339 0.015906
v -0.012491 1.418339 0.011182
v 0.015043 1.423048 -0.000223
v -0.001086 1.423048 0.015906
v 0.020419 1.423048 0.023077
v 0.010319 1.423048 0.011182
v -0.012491 1.423048 0.011182
v 0.015043 1.418339 -0.000223
v 0.010319 1.418339 -0.011628
v -0.001086 1.418339 -0.016352
v -0.012491 1.418339 -0.011628
v -0.001086 1.423048 -0.016352
v 0.010319 1.423048 -0.011628
v -0.017215 1.423048 -0.000223
v -0.012491 1.423048 -0.011628
vn 1.0000 -0.0000 -0.0000
vn 0.8660 -0.0000 0.5000
vn -0.4915 -0.1839 0.8513
vn -0.4903 -0.1955 0.8493
vn -0.0000 -0.1955 0.9807
vn -0.0000 -0.1839 0.9829
vn -0.8513 -0.1839 0.4915
vn -0.8493 -0.1955 0.4903
vn -0.9829 -0.1839 -0.0000
vn -0.9807 -0.1955 -0.0000
vn -0.8513 -0.1839 -0.4915
vn -0.8493 -0.1955 -0.4903
vn -0.4915 -0.1839 -0.8513
vn -0.4903 -0.1955 -0.8493
vn -0.0000 -0.1839 -0.9829
vn -0.0000 -0.1955 -0.9807
vn 0.4915 -0.1839 -0.8513
vn 0.4903 -0.1955 -0.8493
vn 0.8513 -0.1839 -0.4915
vn 0.8493 -0.1955 -0.4903
vn 0.9829 -0.1839 -0.0000
vn 0.9807 -0.1955 -0.0000
vn 0.8513 -0.1839 0.4915
vn 0.8493 -0.1955 0.4903
vn 0.4915 -0.1839 0.8513
vn 0.4903 -0.1955 0.8493
vn 0.4915 0.1839 0.8513
vn -0.0000 0.1839 0.9829
vn -0.9829 0.1839 -0.0000
vn -0.8513 0.1839 0.4915
vn -0.8513 0.1839 -0.4915
vn -0.4915 0.1839 -0.8513
vn -0.0000 0.1839 -0.9829
vn 0.4915 0.1839 -0.8513
vn 0.8513 0.1839 -0.4915
vn 0.9829 0.1839 -0.0000
vn 0.8513 0.1839 0.4915
vn -0.4915 0.1839 0.8513
vn -0.5000 -0.0000 0.8660
vn -0.0000 -0.0000 1.0000
vn -0.0000 0.1955 0.9807
vn -0.4903 0.1955 0.8493
vn -0.8493 0.1955 0.4903
vn -0.9807 0.1955 -0.0000
vn -0.8493 0.1955 -0.4903
vn -0.4903 0.1955 -0.8493
vn -0.0000 0.1955 -0.9807
vn 0.4903 0.1955 -0.8493
vn 0.8493 0.1955 -0.4903
vn 0.9807 0.1955 -0.0000
vn 0.8493 0.1955 0.4903
vn 0.4903 0.1955 0.8493
vn 0.8963 -0.4434 -0.0000
vn 0.7763 -0.4434 0.4480
vn -0.7762 -0.4434 0.4482
vn -0.8963 -0.4434 0.0002
vn -0.4482 -0.4434 -0.7762
vn -0.0000 -0.4434 -0.8963
vn 0.7762 -0.4434 -0.4482
vn -0.4482 -0.4434 0.7762
vn 0.4482 -0.4434 0.7762
vn 0.0002 -0.4434 0.8963
vn -0.7762 -0.4434 -0.4482
vn 0.4482 -0.4434 -0.7762
vn 0.7762 0.4434 0.4482
vn 0.8963 0.4434 0.0002
vn -0.8963 0.4434 -0.0000
vn -0.7762 0.4434 0.4482
vn -0.0000 0.4434 -0.8963
vn -0.4482 0.4434 -0.7762
vn 0.7762 0.4434 -0.4482
vn -0.4481 0.4434 0.7762
vn -0.0000 0.4434 0.8963
vn 0.4482 0.4434 0.7762
vn -0.7763 0.4434 -0.4481
vn 0.4481 0.4434 -0.7762
vn -0.4656 -0.3646 0.8064
vn -0.1009 -0.9794 0.1748
vn -0.0000 -0.9794 0.2018
vn -0.0000 -0.3646 0.9312
vn -0.8065 -0.3646 0.4655
vn -0.1748 -0.9794 0.1009
vn -0.9312 -0.3646 -0.0000
vn -0.2018 -0.9794 -0.0000
vn -0.8064 -0.3646 -0.4656
vn -0.1748 -0.9794 -0.1009
vn -0.4655 -0.3646 -0.8065
vn -0.1009 -0.9794 -0.1748
vn -0.0000 -0.3646 -0.9312
vn -0.0000 -0.9794 -0.2018
vn 0.4656 -0.3646 -0.8064
vn 0.1009 -0.9794 -0.1748
vn 0.8064 -0.3646 -0.4655
vn 0.1748 -0.9794 -0.1009
vn 0.9312 -0.3646 -0.0000
vn 0.2018 -0.9794 -0.0000
vn 0.8064 -0.3646 0.4656
vn 0.1748 -0.9794 0.1009
vn 0.4656 -0.3646 0.8064
vn 0.1009 -0.9794 0.1748
vn -0.1009 0.9794 0.1747
vn -0.4656 0.3646 0.8064
vn -0.0000 0.3646 0.9312
vn -0.0000 0.9794 0.2018
vn -0.1748 0.9794 0.1009
vn -0.8064 0.3646 0.4656
vn -0.2018 0.9794 -0.0000
vn -0.9312 0.3646 -0.0000
vn -0.1748 0.9794 -0.1009
vn -0.8064 0.3646 -0.4656
vn -0.1009 0.9794 -0.1748
vn -0.4656 0.3646 -0.8064
vn -0.0000 0.9794 -0.2018
vn -0.0000 0.3646 -0.9312
vn 0.1009 0.9794 -0.1748
vn 0.4656 0.3646 -0.8064
vn 0.1748 0.9794 -0.1009
vn 0.8064 0.3646 -0.4656
vn 0.2018 0.9794 -0.0000
vn 0.9312 0.3646 -0.0000
vn 0.1748 0.9794 0.1009
vn 0.8064 0.3646 0.4656
vn 0.1009 0.9794 0.1748
vn 0.4656 0.3646 0.8064
vn -0.8064 -0.3646 0.4656
vn -0.4656 -0.3646 -0.8064
vn 0.8064 -0.3646 -0.4656
vn 0.8064 0.3646 -0.4657
vn -0.8064 0.3646 -0.4655
vn -0.0000 -1.0000 -0.0000
vn -0.8660 -0.0000 0.5000
vn -0.0000 0.0002 -1.0000
vn 0.5000 0.0001 -0.8660
vn 0.5000 -0.0000 0.8660
vn -0.5000 0.0001 -0.8660
vn -1.0000 -0.0000 -0.0000
vn -0.8660 -0.0000 -0.5000
vn 0.8660 -0.0000 -0.5000
vn 0.5000 -0.0001 -0.8660
vn -0.0000 -0.0002 -1.0000
vn -0.5000 -0.0001 -0.8660
vn -0.0000 1.0000 -0.0000
vn 0.5000 -0.0000 -0.8661
vn -0.0000 -0.0000 -1.0000
vn -0.5000 -0.0000 -0.8661
vn 0.9501 -0.0000 0.3119
vn 0.8924 -0.0000 -0.4512
vn 0.3827 -0.0000 -0.9239
vn -0.3827 -0.0000 -0.9239
vn -0.8924 -0.0000 -0.4512
vn -0.9501 -0.0000 0.3119
vn -0.3827 -0.0000 0.9239
vn 0.3827 -0.0000 0.9239
vn -0.8456 -0.3195 0.4276
vn -0.3645 -0.3048 0.8799
vn -0.2597 0.7345 0.6269
vn -0.6147 0.7250 0.3108
vn 0.3645 -0.3048 0.8799
vn 0.8456 -0.3195 0.4276
vn 0.6147 0.7250 0.3108
vn 0.2597 0.7345 0.6269
vn 0.9093 -0.2901 -0.2985
vn 0.6326 0.7461 -0.2077
vn 0.3645 -0.3048 -0.8799
vn 0.2597 0.7345 -0.6269
vn -0.3645 -0.3048 -0.8799
vn -0.2597 0.7345 -0.6269
vn -0.9093 -0.2901 -0.2985
vn -0.6326 0.7461 -0.2077
vn 0.5535 -0.0000 -0.8329
vn 0.9803 -0.0000 -0.1975
vn -0.8289 -0.0000 0.5594
vn 0.0006 0.0030 1.0000
vn 0.7071 -0.0000 -0.7071
vn -0.7071 -0.0000 -0.7071
vn -0.9840 -0.0000 0.1780
vn 0.7071 -0.0000 0.7071
vn 0.8281 0.0051 0.5606
vn 0.8301 0.0051 0.5576
vn 0.9840 0.0014 0.1781
vn -0.7071 -0.0000 0.7071
vn -0.9803 -0.0000 -0.1975
vn 0.9840 -0.0000 0.1780
vn -0.5535 -0.0000 -0.8329
vt 0.147800 0.768474
vt 0.147800 0.782454
vt 0.099835 0.782454
vt 0.099835 0.768474
vt 0.554270 0.666917
vt 0.554270 0.688838
vt 0.475646 0.688838
vt 0.475646 0.666917
vt 0.632893 0.666917
vt 0.632893 0.688838
vt 0.711516 0.666917
vt 0.711516 0.688838
vt 0.790140 0.666917
vt 0.790140 0.688838
vt 0.868763 0.666917
vt 0.868763 0.688838
vt 0.947386 0.666917
vt 0.947386 0.688838
vt 0.082530 0.666917
vt 0.082530 0.688838
vt 0.003906 0.688838
vt 0.003906 0.666917
vt 0.161153 0.666917
vt 0.161153 0.688838
vt 0.239776 0.666917
vt 0.239776 0.688838
vt 0.318400 0.666917
vt 0.318400 0.688838
vt 0.397023 0.666917
vt 0.397023 0.688838
vt 0.397023 0.075798
vt 0.475646 0.075798
vt 0.711516 0.075798
vt 0.632893 0.075798
vt 0.790140 0.075798
vt 0.868763 0.075798
vt 0.947386 0.075798
vt 0.082530 0.075798
vt 0.003906 0.075798
vt 0.161153 0.075798
vt 0.239776 0.075798
vt 0.318400 0.075798
vt 0.554270 0.075798
vt 0.051871 0.746655
vt 0.051871 0.760636
vt 0.003906 0.760636
vt 0.003906 0.746655
vt 0.475646 0.053885
vt 0.554270 0.053885
vt 0.632893 0.053885
vt 0.711516 0.053885
vt 0.790140 0.053885
vt 0.868763 0.053885
vt 0.947386 0.053885
vt 0.003906 0.053885
vt 0.082530 0.053885
vt 0.161153 0.053885
vt 0.239776 0.053885
vt 0.318400 0.053885
vt 0.397023 0.053885
vt 0.239776 0.041850
vt 0.318400 0.041850
vt 0.632893 0.041850
vt 0.711516 0.041850
vt 0.868763 0.041850
vt 0.947386 0.041850
vt 0.161153 0.041850
vt 0.554270 0.041850
vt 0.397023 0.041850
vt 0.475646 0.041850
vt 0.790140 0.041850
vt 0.082530 0.041850
vt 0.003906 0.041850
vt 0.318400 0.700873
vt 0.239776 0.700873
vt 0.711516 0.700873
vt 0.632893 0.700873
vt 0.947386 0.700873
vt 0.868763 0.700873
vt 0.161153 0.700873
vt 0.554270 0.700873
vt 0.475646 0.700873
vt 0.397023 0.700873
vt 0.790140 0.700873
vt 0.082530 0.700873
vt 0.003906 0.700873
vt 0.554270 0.723798
vt 0.554270 0.731447
vt 0.475646 0.731447
vt 0.475646 0.723798
vt 0.632893 0.723798
vt 0.632893 0.731447
vt 0.711516 0.723798
vt 0.711516 0.731447
vt 0.790140 0.723798
vt 0.790140 0.731447
vt 0.868763 0.723798
vt 0.868763 0.731447
vt 0.947386 0.723798
vt 0.947386 0.731447
vt 0.082530 0.723798
vt 0.082530 0.731447
vt 0.003906 0.731447
vt 0.003906 0.723798
vt 0.161153 0.723798
vt 0.161153 0.731447
vt 0.239776 0.723798
vt 0.239776 0.731447
vt 0.318400 0.723798
vt 0.318400 0.731447
vt 0.397023 0.723798
vt 0.397023 0.731447
vt 0.554270 0.011276
vt 0.554270 0.018925
vt 0.475646 0.018925
vt 0.475646 0.011276
vt 0.632893 0.011276
vt 0.632893 0.018925
vt 0.711516 0.011276
vt 0.711516 0.018925
vt 0.790140 0.011276
vt 0.790140 0.018925
vt 0.868763 0.011276
vt 0.868763 0.018925
vt 0.947386 0.011276
vt 0.947386 0.018925
vt 0.082530 0.011276
vt 0.082530 0.018925
vt 0.003906 0.018925
vt 0.003906 0.011276
vt 0.161153 0.011276
vt 0.161153 0.018925
vt 0.239776 0.011276
vt 0.239776 0.018925
vt 0.318400 0.011276
vt 0.318400 0.018925
vt 0.397023 0.011276
vt 0.397023 0.018925
vt 0.318400 0.034201
vt 0.239776 0.034201
vt 0.711516 0.034201
vt 0.632893 0.034201
vt 0.947386 0.034201
vt 0.868763 0.034201
vt 0.161153 0.034201
vt 0.554270 0.034201
vt 0.475646 0.034201
vt 0.397023 0.034201
vt 0.790140 0.034201
vt 0.082530 0.034201
vt 0.003906 0.034201
vt 0.239776 0.708522
vt 0.318400 0.708522
vt 0.632893 0.708522
vt 0.711516 0.708522
vt 0.868763 0.708522
vt 0.947386 0.708522
vt 0.161153 0.708522
vt 0.554270 0.708522
vt 0.397023 0.708522
vt 0.475646 0.708522
vt 0.790140 0.708522
vt 0.082530 0.708522
vt 0.003906 0.708522
vt 0.161153 0.738817
vt 0.239776 0.738817
vt 0.176812 0.836622
vt 0.189227 0.882952
vt 0.096566 0.975607
vt 0.099835 0.746655
vt 0.099835 0.760636
vt 0.291692 0.768474
vt 0.291692 0.782454
vt 0.243728 0.782454
vt 0.243728 0.768474
vt 0.051871 0.782454
vt 0.051871 0.768474
vt 0.339656 0.768474
vt 0.339656 0.782454
vt 0.435585 0.768474
vt 0.435585 0.782454
vt 0.387620 0.782454
vt 0.387620 0.768474
vt 0.003906 0.782454
vt 0.003906 0.768474
vt 0.435585 0.746655
vt 0.435585 0.760636
vt 0.387620 0.760636
vt 0.387620 0.746655
vt 0.339656 0.746655
vt 0.339656 0.760636
vt 0.291692 0.760636
vt 0.291692 0.746655
vt 0.579478 0.768474
vt 0.579478 0.782454
vt 0.531514 0.782454
vt 0.531514 0.768474
vt 0.195764 0.746655
vt 0.195764 0.760636
vt 0.147800 0.760636
vt 0.147800 0.746655
vt 0.483549 0.746655
vt 0.483549 0.760636
vt 0.243728 0.746655
vt 0.243728 0.760636
vt 0.483549 0.768474
vt 0.483549 0.782454
vt 0.531514 0.746655
vt 0.531514 0.760636
vt 0.579478 0.746655
vt 0.579478 0.760636
vt 0.195764 0.782454
vt 0.195764 0.768474
vt 0.711516 0.003906
vt 0.790140 0.003906
vt 0.239776 0.003906
vt 0.318400 0.003906
vt 0.003906 0.003906
vt 0.082530 0.003906
vt 0.868763 0.003906
vt 0.947386 0.003906
vt 0.161153 0.003906
vt 0.554270 0.003906
vt 0.632893 0.003906
vt 0.397023 0.003906
vt 0.475646 0.003906
vt 0.297315 0.802700
vt 0.280611 0.802700
vt 0.290066 0.790291
vt 0.785327 0.932834
vt 0.740057 0.978866
vt 0.721826 0.949373
vt 0.754792 0.916408
vt 0.677837 0.996094
vt 0.615338 0.979909
vt 0.631763 0.949373
vt 0.676795 0.961435
vt 0.735043 0.746655
vt 0.768813 0.746655
vt 0.768813 0.748684
vt 0.735043 0.748684
vt 0.781796 0.746655
vt 0.781796 0.748684
vt 0.798500 0.746655
vt 0.798500 0.748684
vt 0.811484 0.746655
vt 0.811484 0.748684
vt 0.845254 0.746655
vt 0.845254 0.748684
vt 0.858238 0.746655
vt 0.858238 0.748684
vt 0.885096 0.746655
vt 0.885096 0.748684
vt 0.722059 0.746655
vt 0.722059 0.748684
vt 0.568261 0.809918
vt 0.613531 0.763885
vt 0.631763 0.793379
vt 0.598797 0.826344
vt 0.675752 0.746655
vt 0.738252 0.762843
vt 0.721826 0.793379
vt 0.676795 0.781312
vt 0.569304 0.934640
vt 0.598797 0.916408
vt 0.801516 0.870334
vt 0.766858 0.871376
vt 0.552073 0.872419
vt 0.586731 0.871376
vt 0.784285 0.808113
vt 0.754792 0.826344
vt 0.142897 0.802706
vt 0.096566 0.790291
vt 0.050236 0.802706
vt 0.016320 0.836622
vt 0.003906 0.882952
vt 0.016320 0.929282
vt 0.050236 0.963198
vt 0.176812 0.929282
vt 0.142897 0.963198
vt 0.336396 0.802700
vt 0.370312 0.836616
vt 0.311573 0.845268
vt 0.306496 0.811881
vt 0.243736 0.802700
vt 0.271431 0.811881
vt 0.266353 0.845268
vt 0.209820 0.836616
vt 0.197406 0.882946
vt 0.302393 0.854448
vt 0.382726 0.882946
vt 0.370312 0.929277
vt 0.243736 0.963193
vt 0.209820 0.929277
vt 0.275534 0.854448
vt 0.336396 0.963193
vt 0.290066 0.975607
vt 0.427389 0.826169
vt 0.427389 0.834274
vt 0.419580 0.834274
vt 0.419580 0.826169
vt 0.419580 0.842084
vt 0.411475 0.842084
vt 0.411475 0.834274
vt 0.411475 0.818359
vt 0.419580 0.818359
vt 0.411475 0.826169
vt 0.403665 0.834274
vt 0.403665 0.826169
vt 0.920698 0.755543
vt 0.930358 0.745858
vt 0.931509 0.748663
vt 0.923396 0.756774
vt 0.947661 0.745837
vt 0.957365 0.755507
vt 0.954667 0.756757
vt 0.946555 0.748653
vt 0.962474 0.789312
vt 0.959494 0.788526
vt 0.952748 0.799233
vt 0.951662 0.796397
vt 0.925389 0.799233
vt 0.926443 0.796402
vt 0.915635 0.789366
vt 0.918619 0.788536
vt 0.515828 0.836850
vt 0.506025 0.804533
vt 0.513798 0.794133
vt 0.540380 0.790290
vt 0.550780 0.798062
vt 0.550533 0.831832
vt 0.542760 0.842232
vt 0.526228 0.844622
vt 0.377613 0.790292
vt 0.392548 0.790292
vt 0.392548 0.795074
vt 0.377613 0.795074
vt 0.201435 0.988226
vt 0.177860 0.988226
vt 0.177860 0.983444
vt 0.201435 0.983444
vt 0.057931 0.988226
vt 0.003906 0.988226
vt 0.003906 0.983444
vt 0.057931 0.983444
vt 0.262395 0.988226
vt 0.247695 0.988226
vt 0.247695 0.983444
vt 0.262395 0.983444
vt 0.415994 0.790292
vt 0.415994 0.795074
vt 0.154288 0.988226
vt 0.154288 0.983444
vt 0.108052 0.988226
vt 0.108052 0.983444
vt 0.460318 0.790292
vt 0.483764 0.790292
vt 0.483764 0.795074
vt 0.460318 0.795074
vt 0.297816 0.988226
vt 0.297816 0.983444
vt 0.093352 0.988226
vt 0.093352 0.983444
vt 0.498698 0.790292
vt 0.498698 0.795074
vt 0.866794 0.799912
vt 0.844241 0.805398
vt 0.855213 0.795115
vt 0.457750 0.846303
vt 0.481458 0.851789
vt 0.435197 0.851789
vt 0.878375 0.795115
vt 0.883172 0.783534
vt 0.890454 0.805372
vt 0.823549 0.818385
vt 0.823549 0.823167
vt 0.811014 0.823167
vt 0.811014 0.818385
vt 0.798479 0.823167
vt 0.798479 0.818385
vt 0.898760 0.818385
vt 0.898760 0.823167
vt 0.886225 0.823167
vt 0.886225 0.818385
vt 0.873689 0.823167
vt 0.873689 0.818385
vt 0.805440 0.761372
vt 0.795050 0.810547
vt 0.795050 0.756522
vt 0.441373 0.829925
vt 0.446170 0.841506
vt 0.433611 0.846303
vt 0.836084 0.818385
vt 0.836084 0.823167
vt 0.848619 0.818385
vt 0.848619 0.823167
vt 0.861154 0.818385
vt 0.861154 0.823167
vt 0.344857 0.795074
vt 0.344857 0.790292
vt 0.842655 0.799912
vt 0.842655 0.767157
vt 0.850416 0.783534
vt 0.844241 0.761670
vt 0.855213 0.771954
vt 0.890501 0.761670
vt 0.878375 0.771954
vt 0.866794 0.767157
vt 0.830472 0.810547
vt 0.828886 0.805696
vt 0.899320 0.783534
vt 0.805440 0.805696
vt 0.830472 0.756522
vt 0.828886 0.761372
vt 0.421428 0.856938
vt 0.419842 0.852087
vt 0.386007 0.856938
vt 0.396396 0.852087
vt 0.386007 0.802912
vt 0.421428 0.802912
vt 0.396396 0.807763
vt 0.435197 0.808061
vt 0.419842 0.807763
vt 0.433611 0.813547
vt 0.481458 0.808061
vt 0.490276 0.829925
vt 0.474128 0.829925
vt 0.469331 0.818344
vt 0.457750 0.813547
vt 0.469331 0.841506
vt 0.446170 0.818344
vt 0.475646 0.738817
vt 0.397023 0.738817
vt 0.318400 0.738817
vt 0.082530 0.738817
vt 0.554270 0.738817
vt 0.711516 0.738817
vt 0.632893 0.738817
vt 0.003906 0.738817
vt 0.790140 0.738817
vt 0.947386 0.738817
vt 0.868763 0.738817
s 1
usemtl edrink
f 38/1/1 170/2/1 172/3/2 39/4/2
f 13/5/3 1/6/4 15/7/5 14/8/6
f 16/9/7 2/10/8 1/6/4 13/5/3
f 17/11/9 3/12/10 2/10/8 16/9/7
f 19/13/11 18/14/12 3/12/10 17/11/9
f 20/15/13 4/16/14 18/14/12 19/13/11
f 21/17/15 5/18/16 4/16/14 20/15/13
f 23/19/17 22/20/18 5/21/16 21/22/15
f 25/23/19 24/24/20 22/20/18 23/19/17
f 27/25/21 26/26/22 24/24/20 25/23/19
f 28/27/23 6/28/24 26/26/22 27/25/21
f 30/29/25 29/30/26 6/28/24 28/27/23
f 14/8/6 15/7/5 29/30/26 30/29/25
f 62/31/27 46/32/28 14/8/6 30/29/25
f 49/33/29 17/11/9 16/9/7 48/34/30
f 51/35/31 19/13/11 17/11/9 49/33/29
f 52/36/32 20/15/13 19/13/11 51/35/31
f 53/37/33 21/17/15 20/15/13 52/36/32
f 55/38/34 23/19/17 21/22/15 53/39/33
f 57/40/35 25/23/19 23/19/17 55/38/34
f 59/41/36 27/25/21 25/23/19 57/40/35
f 60/42/37 28/27/23 27/25/21 59/41/36
f 16/9/7 13/5/3 45/43/38 48/34/30
f 88/44/39 216/45/39 217/46/40 10/47/40
f 45/43/38 46/32/28 47/48/41 31/49/42
f 48/34/30 45/43/38 31/49/42 32/50/43
f 49/33/29 48/34/30 32/50/43 33/51/44
f 51/35/31 49/33/29 33/51/44 50/52/45
f 52/36/32 51/35/31 50/52/45 34/53/46
f 53/37/33 52/36/32 34/53/46 35/54/47
f 55/38/34 53/39/33 35/55/47 54/56/48
f 57/40/35 55/38/34 54/56/48 56/57/49
f 59/41/36 57/40/35 56/57/49 58/58/50
f 60/42/37 59/41/36 58/58/50 36/59/51
f 62/31/27 60/42/37 36/59/51 61/60/52
f 46/32/28 62/31/27 61/60/52 47/48/41
f 36/59/51 58/58/50 66/61/53 122/62/54
f 33/51/44 32/50/43 134/63/55 120/64/56
f 35/54/47 34/53/46 132/65/57 118/66/58
f 58/58/50 56/57/49 63/67/59 66/61/53
f 32/50/43 31/49/42 67/68/60 134/63/55
f 47/48/41 61/60/52 129/69/61 100/70/62
f 34/53/46 50/52/45 64/71/63 132/65/57
f 56/57/49 54/56/48 65/72/64 63/67/59
f 31/49/42 47/48/41 100/70/62 67/68/60
f 61/60/52 36/59/51 122/62/54 129/69/61
f 50/52/45 33/51/44 120/64/56 64/71/63
f 54/56/48 35/55/47 118/73/58 65/72/64
f 6/28/24 73/74/65 139/75/66 26/26/22
f 3/12/10 72/76/67 76/77/68 2/10/8
f 5/18/16 97/78/69 75/79/70 4/16/14
f 26/26/22 139/75/66 135/80/71 24/24/20
f 2/10/8 76/77/68 74/81/72 1/6/4
f 15/7/5 70/82/73 71/83/74 29/30/26
f 4/16/14 75/79/70 68/84/75 18/14/12
f 24/24/20 135/80/71 69/85/76 22/20/18
f 1/6/4 74/81/72 70/82/73 15/7/5
f 29/30/26 71/83/74 73/74/65 6/28/24
f 18/14/12 68/84/75 72/76/67 3/12/10
f 22/20/18 69/85/76 97/86/69 5/21/16
f 80/87/77 158/88/78 163/89/79 78/90/80
f 82/91/81 157/92/82 158/88/78 80/87/77
f 84/93/83 146/94/84 157/92/82 82/91/81
f 85/95/85 145/96/86 146/94/84 84/93/83
f 86/97/87 147/98/88 145/96/86 85/95/85
f 87/99/89 148/100/90 147/98/88 86/97/87
f 89/101/91 160/102/92 148/103/90 87/104/89
f 90/105/93 167/106/94 160/102/92 89/101/91
f 92/107/95 166/108/96 167/106/94 90/105/93
f 94/109/97 165/110/98 166/108/96 92/107/95
f 95/111/99 164/112/100 165/110/98 94/109/97
f 78/90/80 163/89/79 164/112/100 95/111/99
f 159/113/101 104/114/102 103/115/103 161/116/104
f 150/117/105 105/118/106 104/114/102 159/113/101
f 149/119/107 107/120/108 105/118/106 150/117/105
f 151/121/109 108/122/110 107/120/108 149/119/107
f 152/123/111 109/124/112 108/122/110 151/121/109
f 153/125/113 110/126/114 109/124/112 152/123/111
f 154/127/115 111/128/116 110/129/114 153/130/113
f 168/131/117 112/132/118 111/128/116 154/127/115
f 162/133/119 114/134/120 112/132/118 168/131/117
f 156/135/121 116/136/122 114/134/120 162/133/119
f 155/137/123 117/138/124 116/136/122 156/135/121
f 161/116/104 103/115/103 117/138/124 155/137/123
f 123/139/97 122/62/54 66/61/53 127/140/95
f 121/141/83 120/64/56 134/63/55 133/142/125
f 119/143/89 118/66/58 132/65/57 131/144/126
f 127/140/95 66/61/53 63/67/59 124/145/127
f 133/142/125 134/63/55 67/68/60 130/146/77
f 101/147/80 100/70/62 129/69/61 128/148/99
f 131/144/126 132/65/57 64/71/63 125/149/85
f 124/145/127 63/67/59 65/72/64 126/150/91
f 130/146/77 67/68/60 100/70/62 101/147/80
f 128/148/99 129/69/61 122/62/54 123/139/97
f 125/149/85 64/71/63 120/64/56 121/141/83
f 126/150/91 65/72/64 118/73/58 119/151/89
f 140/152/120 139/75/66 73/74/65 99/153/122
f 144/154/106 76/77/68 72/76/67 98/155/108
f 143/156/112 75/79/70 97/78/69 96/157/114
f 136/158/128 135/80/71 139/75/66 140/152/120
f 142/159/102 74/81/72 76/77/68 144/154/106
f 141/160/124 71/83/74 70/82/73 77/161/103
f 137/162/129 68/84/75 75/79/70 143/156/112
f 138/163/116 69/85/76 135/80/71 136/158/128
f 77/161/103 70/82/73 74/81/72 142/159/102
f 99/153/122 73/74/65 71/83/74 141/160/124
f 98/155/108 72/76/67 68/84/75 137/162/129
f 96/164/114 97/86/69 69/85/76 138/163/116
f 77/161/103 78/90/80 95/111/99 141/160/124
f 142/159/102 80/87/77 78/90/80 77/161/103
f 144/154/106 82/91/81 80/87/77 142/159/102
f 98/155/108 84/93/83 82/91/81 144/154/106
f 137/162/129 85/95/85 84/93/83 98/155/108
f 143/156/112 86/97/87 85/95/85 137/162/129
f 96/157/114 87/99/89 86/97/87 143/156/112
f 138/163/116 89/101/91 87/104/89 96/164/114
f 136/158/128 90/105/93 89/101/91 138/163/116
f 140/152/120 92/107/95 90/105/93 136/158/128
f 99/153/122 94/109/97 92/107/95 140/152/120
f 141/160/124 95/111/99 94/109/97 99/153/122
f 101/147/80 128/148/99 117/138/124 103/115/103
f 130/146/77 101/147/80 103/115/103 104/114/102
f 133/142/125 130/146/77 104/114/102 105/118/106
f 121/141/83 133/142/125 105/118/106 107/120/108
f 125/149/85 121/141/83 107/120/108 108/122/110
f 131/144/126 125/149/85 108/122/110 109/124/112
f 119/143/89 131/144/126 109/124/112 110/126/114
f 126/150/91 119/151/89 110/129/114 111/128/116
f 124/145/127 126/150/91 111/128/116 112/132/118
f 127/140/95 124/145/127 112/132/118 114/134/120
f 123/139/97 127/140/95 114/134/120 116/136/122
f 128/148/99 123/139/97 116/136/122 117/138/124
f 11/165/130 167/106/94 166/108/96 91/166/130
f 214/167/130 215/168/130 213/169/130
f 11/170/131 214/171/131 216/45/39 88/44/39
f 102/172/132 183/173/132 178/174/133 37/175/133
f 39/4/2 172/3/2 173/176/134 40/177/134
f 44/178/135 184/179/135 183/173/132 102/172/132
f 115/180/136 179/181/136 176/182/137 43/183/137
f 40/177/134 173/176/134 174/184/40 41/185/40
f 83/186/1 169/187/1 220/188/138 81/189/138
f 7/190/139 177/191/139 213/192/140 79/193/140
f 41/194/40 174/195/40 175/196/39 42/197/39
f 93/198/137 181/199/137 215/200/136 91/201/136
f 8/202/2 219/203/2 169/187/1 83/186/1
f 12/204/141 180/205/141 181/199/137 93/198/137
f 43/183/137 176/182/137 184/179/135 44/178/135
f 113/206/131 182/207/131 179/181/136 115/180/136
f 9/208/134 218/209/134 219/203/2 8/202/2
f 79/193/140 213/192/140 180/205/141 12/204/141
f 81/189/138 220/188/138 177/191/139 7/190/139
f 10/210/40 217/211/40 218/209/134 9/208/134
f 91/201/136 215/200/136 214/171/131 11/170/131
f 37/175/133 178/174/133 171/212/138 106/213/138
f 106/213/138 171/212/138 170/2/1 38/1/1
f 42/197/39 175/196/39 182/207/131 113/206/131
f 151/121/109 149/119/107 38/214/142 39/215/142
f 156/135/121 162/133/119 115/216/142 43/217/142
f 41/218/142 42/219/142 154/127/115 153/130/113
f 152/123/111 40/220/142 41/221/142 153/125/113
f 151/121/109 39/215/142 40/220/142 152/123/111
f 115/216/142 162/133/119 168/131/117 113/222/142
f 159/113/101 37/223/142 106/224/142 150/117/105
f 155/137/123 44/225/142 102/226/142 161/116/104
f 102/226/142 37/223/142 159/113/101 161/116/104
f 38/214/142 149/119/107 150/117/105 106/224/142
f 44/225/142 155/137/123 156/135/121 43/217/142
f 42/219/142 113/222/142 168/131/117 154/127/115
f 188/227/142 185/228/142 183/229/142
f 171/230/138 178/231/143 197/232/143 203/233/138
f 183/234/144 184/235/145 193/236/145 194/237/144
f 191/238/146 186/239/147 206/240/147 211/241/146
f 186/239/147 185/242/148 205/243/148 206/240/147
f 185/242/148 188/244/149 208/245/149 205/243/148
f 188/244/149 187/246/150 207/247/150 208/245/149
f 187/246/150 189/248/151 209/249/151 207/247/150
f 189/248/151 190/250/152 210/251/152 209/249/151
f 190/250/152 192/252/153 212/253/153 210/251/152
f 192/254/153 191/238/146 211/241/146 212/255/153
f 182/256/131 175/257/39 199/258/39 195/259/131
f 174/260/40 173/261/134 201/262/134 200/263/40
f 184/235/145 176/264/137 198/265/137 193/236/145
f 170/266/1 171/230/138 203/233/138 204/267/1
f 179/268/136 182/256/131 195/259/131 196/269/136
f 178/231/143 183/234/144 194/237/144 197/232/143
f 175/257/39 174/260/40 200/263/40 199/258/39
f 172/270/2 170/266/1 204/267/1 202/271/2
f 176/264/137 179/268/136 196/269/136 198/265/137
f 173/261/134 172/270/2 202/271/2 201/262/134
f 196/269/142 194/237/142 198/265/142
f 216/272/130 214/167/130 213/169/130
f 217/273/130 216/272/130 213/169/130
f 218/274/130 217/273/130 213/169/130
f 219/275/130 218/274/130 213/169/130
f 169/276/130 219/275/130 213/169/130
f 220/277/130 169/276/130 213/169/130
f 213/169/130 177/278/130 220/277/130
f 181/279/130 180/280/130 213/169/130
f 215/168/130 181/279/130 213/169/130
f 198/265/142 194/237/142 193/236/142
f 194/237/142 203/233/142 197/232/142
f 203/233/142 194/237/142 204/267/142
f 204/267/142 194/237/142 202/271/142
f 202/271/142 194/237/142 201/262/142
f 201/262/142 194/237/142 200/263/142
f 200/263/142 194/237/142 199/258/142
f 199/258/142 194/237/142 195/259/142
f 195/259/142 194/237/142 196/269/142
f 184/281/142 176/282/142 189/283/142 187/284/142
f 183/229/142 184/281/142 188/227/142
f 178/285/142 186/286/142 191/287/142 171/288/142
f 170/289/142 171/288/142 191/287/142
f 185/228/142 178/285/142 183/229/142
f 190/290/142 189/283/142 179/291/142 182/292/142
f 173/293/142 172/294/142 192/295/142
f 182/292/142 175/296/142 190/290/142
f 175/296/142 174/297/142 190/290/142
f 176/282/142 179/291/142 189/283/142
f 170/289/142 191/287/142 192/295/142 172/294/142
f 184/281/142 187/284/142 188/227/142
f 185/228/142 186/286/142 178/285/142
f 192/295/142 190/290/142 174/297/142 173/293/142
f 222/298/1 223/299/144 227/300/144 226/301/1
f 223/302/144 224/303/136 228/304/136 227/300/144
f 221/305/40 222/306/1 226/301/1 225/307/40
f 224/308/136 221/309/40 225/307/40 228/304/136
s 0
f 226/301/142 227/300/142 228/304/142 225/307/142
s 1
f 230/310/154 229/311/155 233/312/156 234/313/157
f 231/314/158 235/315/159 236/316/160 237/317/161
f 235/315/159 238/318/162 239/319/163 236/316/160
f 238/318/162 232/320/164 240/321/165 239/319/163
f 232/320/164 243/322/166 244/323/167 240/321/165
f 243/322/166 241/324/168 242/325/169 244/323/167
f 241/324/168 230/310/154 234/313/157 242/325/169
f 229/311/155 231/314/158 237/317/161 233/312/156
f 240/321/142 244/323/142 242/325/142
f 230/326/154 241/327/168 243/328/166 232/329/164 238/330/162 235/331/159 231/332/158 229/333/155
f 254/334/170 255/335/171 261/336/171 260/337/170
f 250/338/172 253/339/173 273/340/173 272/341/172
f 252/342/174 246/343/175 269/344/175 271/345/174
f 248/346/176 249/347/176 266/348/176 267/349/176
f 255/335/171 257/350/177 263/351/177 261/336/171
f 253/339/173 251/352/178 280/353/179 273/340/173
f 251/352/178 245/354/180 268/355/180 280/353/179
f 259/356/181 258/357/182 264/358/182 265/359/181
f 246/360/175 248/346/176 267/349/176 269/361/175
f 247/362/183 252/342/174 271/345/174 270/363/183
f 258/357/182 256/364/184 262/365/184 264/358/182
f 249/347/176 250/338/172 272/341/172 266/348/176
f 245/354/180 247/362/183 270/363/183 268/355/180
f 257/350/177 259/356/181 265/359/181 263/351/177
f 278/366/142 268/367/142 288/368/142
f 275/369/130 250/370/130 249/371/130
f 281/372/142 279/373/142 280/374/142
f 278/375/136 283/376/136 274/377/175 281/378/175
f 281/378/175 274/377/175 276/379/144 279/380/144
f 279/381/144 276/382/144 277/383/174 282/384/174
f 282/384/174 277/383/174 275/385/1 289/386/1
f 263/387/142 271/388/142 269/389/142
f 285/390/130 286/391/130 254/392/130
f 278/375/136 288/393/181 284/394/181 283/376/136
f 288/393/181 287/395/40 285/396/40 284/394/181
f 287/395/40 290/397/177 286/398/177 285/396/40
f 290/397/177 289/386/1 275/385/1 286/398/177
f 254/334/170 260/337/170 262/399/184 256/400/184
f 262/401/142 260/402/142 287/403/142
f 260/402/142 266/404/142 290/405/142
f 287/403/142 260/402/142 290/405/142
f 272/406/142 282/407/142 289/408/142
f 266/404/142 272/406/142 289/408/142
f 270/409/142 264/410/142 268/367/142
f 264/410/142 262/401/142 268/367/142
f 266/404/142 289/408/142 290/405/142
f 262/401/142 287/403/142 288/368/142
f 280/374/142 268/367/142 278/366/142
f 268/367/142 262/401/142 288/368/142
f 279/373/142 282/407/142 272/406/142
f 272/406/142 273/411/142 279/373/142
f 273/411/142 280/374/142 279/373/142
f 280/374/142 278/366/142 281/372/142
f 265/412/142 264/410/142 270/409/142
f 269/389/142 267/413/142 263/387/142
f 267/413/142 266/404/142 261/414/142
f 266/404/142 260/402/142 261/414/142
f 267/413/142 261/414/142 263/387/142
f 265/412/142 270/409/142 271/388/142
f 263/387/142 265/412/142 271/388/142
f 249/371/130 248/415/130 255/416/130
f 248/415/130 246/417/130 257/418/130
f 255/416/130 248/415/130 257/418/130
f 252/419/130 247/420/130 259/421/130
f 247/420/130 245/422/130 258/423/130
f 245/422/130 256/424/130 258/423/130
f 247/420/130 258/423/130 259/421/130
f 251/425/130 253/426/130 276/427/130
f 253/426/130 250/370/130 276/427/130
f 274/428/130 283/429/130 251/425/130
f 276/427/130 274/428/130 251/425/130
f 252/419/130 259/421/130 246/417/130
f 259/421/130 257/418/130 246/417/130
f 277/430/130 276/427/130 250/370/130
f 275/369/130 277/430/130 250/370/130
f 255/416/130 254/392/130 249/371/130
f 254/392/130 275/369/130 249/371/130
f 254/392/130 256/424/130 285/390/130
f 256/424/130 245/422/130 284/431/130
f 285/390/130 256/424/130 284/431/130
f 245/422/130 251/425/130 283/429/130
f 245/422/130 283/429/130 284/431/130
f 286/391/130 275/369/130 254/392/130
f 164/112/100 163/89/79 79/432/130 12/433/130
f 91/166/130 166/108/96 165/110/98 93/434/130
f 11/165/130 88/435/130 160/102/92 167/106/94
f 79/432/130 163/89/79 158/88/78 7/436/130
f 157/92/82 146/94/84 83/437/130 81/438/130
f 88/435/130 10/439/130 148/103/90 160/102/92
f 8/440/130 83/437/130 146/94/84 145/96/86
f 7/436/130 158/88/78 157/92/82 81/438/130
f 165/110/98 164/112/100 12/433/130 93/434/130
f 148/100/90 10/441/130 9/442/130 147/98/88
f 9/442/130 8/440/130 145/96/86 147/98/88
f 242/325/142 234/313/142 236/316/142
f 234/313/142 233/312/142 236/316/142
f 233/312/142 237/317/142 236/316/142
f 236/316/142 239/319/142 242/325/142
f 239/319/142 240/321/142 242/325/142
f 45/43/38 13/5/3 14/8/6 46/32/28
f 62/31/27 30/29/25 28/27/23 60/42/37
