# Blender 4.5.10 LTS
# www.blender.org
mtllib geiger_counter.mtl
o geiger_counter
v -0.290303 1.316509 -0.124932
v -0.290370 1.316509 0.117047
v -0.151158 1.316509 -0.124932
v -0.151090 1.316509 0.117047
v 0.310391 0.978441 0.127639
v 0.284806 0.978441 0.153223
v 0.302897 0.978441 0.145730
v 0.310391 1.252987 0.127639
v 0.284806 0.978441 -0.161112
v 0.310391 0.978441 -0.135528
v 0.302897 0.978441 -0.153618
v -0.292695 0.978441 0.153223
v -0.318280 0.978441 0.127639
v -0.310786 0.978441 0.145730
v -0.292695 1.252987 0.153223
v -0.318280 0.978441 -0.135528
v -0.292695 0.978441 -0.161112
v -0.310786 0.978441 -0.153618
v 0.302897 1.252987 0.145730
v 0.284806 1.252987 0.153223
v 0.302897 1.252987 -0.153619
v 0.310391 1.252987 -0.135528
v 0.284806 1.252987 -0.161112
v -0.310786 1.252987 0.145730
v -0.318280 1.252987 0.127639
v -0.310786 1.252987 -0.153618
v -0.292695 1.252987 -0.161112
v -0.318280 1.252987 -0.135528
v 0.310391 1.292776 0.127639
v 0.302897 1.292776 -0.153619
v 0.310391 1.292776 -0.135528
v 0.284806 1.292776 -0.161112
v -0.318280 1.292776 0.127639
v -0.310786 1.292776 -0.153618
v -0.292695 1.292776 -0.161112
v -0.318280 1.292776 -0.135528
v 0.319138 1.252987 0.129379
v 0.309204 1.252987 0.152036
v 0.286546 1.252987 0.161971
v 0.309204 1.252987 -0.159925
v 0.319138 1.252987 -0.137268
v 0.286546 1.252987 -0.169860
v -0.294435 1.252987 0.161971
v -0.317093 1.252987 0.152036
v -0.327027 1.252987 0.129379
v -0.317093 1.252987 -0.159925
v -0.294435 1.252987 -0.169860
v -0.327027 1.252987 -0.137268
v 0.319138 1.284468 0.129379
v 0.302906 1.292776 0.145738
v 0.309204 1.284468 0.152036
v 0.284889 1.292776 0.153639
v 0.286546 1.284468 0.161971
v 0.309204 1.284468 -0.159925
v 0.319138 1.284468 -0.137268
v 0.286546 1.284468 -0.169860
v -0.294435 1.284468 0.161971
v -0.292778 1.292776 0.153639
v -0.310795 1.292776 0.145739
v -0.317093 1.284468 0.152036
v -0.327027 1.284468 0.129379
v -0.317093 1.284468 -0.159925
v -0.294435 1.284468 -0.169860
v -0.327027 1.284468 -0.137268
v -0.003576 1.242316 0.150074
v 0.083216 1.206366 0.150074
v -0.003576 1.227132 0.169860
v -0.090367 1.206366 0.150074
v -0.079631 1.195629 0.169860
v -0.126317 1.119574 0.150074
v -0.111134 1.119574 0.169860
v -0.090367 1.032783 0.150074
v -0.079631 1.043520 0.169860
v -0.003576 0.996833 0.150074
v -0.003576 1.012017 0.169860
v 0.083215 1.032783 0.150074
v 0.072479 1.043520 0.169860
v 0.119166 1.119574 0.150074
v 0.103982 1.119574 0.169860
v 0.072479 1.195629 0.169860
v -0.151158 1.320635 -0.124932
v -0.102105 1.320635 -0.128702
v -0.106889 1.320635 -0.140244
v -0.118433 1.320635 -0.145025
v -0.290303 1.320635 -0.124932
v -0.151090 1.320635 0.117047
v -0.151158 1.299219 -0.124932
v -0.151090 1.299219 0.117047
v -0.290303 1.299219 -0.124932
v -0.290370 1.299219 0.117047
v -0.290370 1.320635 0.117047
v -0.301912 1.320635 0.132355
v -0.290370 1.320635 0.137136
v -0.306690 1.320635 0.120813
v -0.306690 1.289857 0.120813
v -0.306624 1.320635 -0.128702
v -0.306624 1.289857 -0.128702
v -0.301840 1.320635 -0.140244
v -0.301840 1.289857 -0.140244
v -0.290296 1.320635 -0.145025
v -0.290296 1.289857 -0.145025
v -0.118433 1.289857 -0.145025
v -0.106889 1.289857 -0.140244
v -0.102105 1.289857 -0.128702
v -0.102040 1.289857 0.120813
v -0.106818 1.289857 0.132355
v -0.102040 1.320635 0.120813
v -0.106818 1.320635 0.132355
v -0.118359 1.320635 0.137136
v -0.118359 1.289857 0.137136
v -0.290370 1.289857 0.137136
v -0.301912 1.289857 0.132355
v -0.065416 1.423290 0.030644
v -0.086284 1.409934 0.030628
v -0.065416 1.405996 0.026010
v 0.271246 1.423290 0.030644
v -0.064954 1.421438 0.037553
v -0.064449 1.402712 0.032308
v -0.084793 1.408416 0.037473
v 0.270785 1.421438 0.037553
v 0.290623 1.408416 0.037473
v 0.270279 1.402712 0.032308
v 0.269670 1.387118 0.016874
v 0.279063 1.396649 0.032112
v 0.285276 1.388011 0.032316
v 0.284937 1.289857 0.032209
v 0.303985 1.388829 0.037554
v 0.303973 1.289857 0.037568
v 0.305829 1.389306 0.030644
v 0.288537 1.389004 0.026010
v 0.305829 1.289857 0.030644
v 0.292115 1.409934 0.030628
v 0.281687 1.399318 0.025998
v 0.271246 1.405996 0.026010
v 0.274047 1.391546 0.013346
v 0.271246 1.393336 0.013350
v 0.271246 1.388702 -0.003944
v 0.275879 1.388783 0.013350
v 0.275879 1.289857 0.013350
v 0.288537 1.289857 0.026010
v 0.271246 1.289857 -0.003944
v 0.275879 1.289857 -0.021238
v 0.288537 1.289857 -0.033899
v 0.275879 1.388783 -0.021238
v 0.288537 1.389004 -0.033899
v 0.274047 1.391546 -0.021235
v 0.271246 1.393336 -0.021238
v 0.281687 1.399318 -0.033887
v 0.271246 1.405996 -0.033899
v 0.292115 1.409934 -0.038517
v 0.271246 1.423290 -0.038533
v 0.305829 1.389306 -0.038533
v 0.290623 1.408416 -0.045362
v 0.270785 1.421438 -0.045442
v 0.279063 1.396649 -0.040001
v 0.303985 1.388829 -0.045443
v 0.285276 1.388011 -0.040205
v 0.303973 1.289857 -0.045457
v 0.284937 1.289857 -0.040098
v 0.305829 1.289857 -0.038533
v 0.269666 1.289857 -0.024813
v 0.269670 1.387118 -0.024763
v 0.266177 1.289857 -0.003944
v 0.266177 1.383633 -0.003944
v 0.269666 1.289857 0.016925
v -0.060347 1.383633 -0.003944
v -0.063840 1.387118 0.016874
v -0.060347 1.289857 -0.003944
v -0.063840 1.387118 -0.024763
v -0.079446 1.388011 -0.040205
v -0.063835 1.289857 -0.024813
v -0.064449 1.402712 -0.040197
v -0.073233 1.396649 -0.040001
v -0.084793 1.408416 -0.045362
v -0.064954 1.421438 -0.045442
v -0.098154 1.388829 -0.045443
v -0.086284 1.409934 -0.038517
v -0.065416 1.423290 -0.038533
v -0.075857 1.399318 -0.033887
v -0.099998 1.389306 -0.038533
v -0.082707 1.389004 -0.033899
v -0.099998 1.289857 -0.038532
v -0.082707 1.289857 -0.033899
v -0.098143 1.289857 -0.045457
v -0.079107 1.289857 -0.040098
v -0.070049 1.289857 -0.021238
v -0.070049 1.388783 -0.021238
v -0.065416 1.289857 -0.003944
v -0.065416 1.388702 -0.003944
v -0.070049 1.289857 0.013350
v -0.070049 1.388783 0.013350
v -0.082707 1.289857 0.026010
v -0.082707 1.389004 0.026010
v -0.099998 1.289857 0.030644
v -0.099998 1.389306 0.030644
v -0.098143 1.289857 0.037568
v -0.079107 1.289857 0.032209
v -0.098154 1.388829 0.037554
v -0.079446 1.388011 0.032316
v -0.073233 1.396649 0.032112
v -0.063835 1.289857 0.016925
v -0.075857 1.399318 0.025998
v -0.068217 1.391546 0.013346
v -0.065416 1.393336 0.013350
v -0.068217 1.391546 -0.021235
v -0.065416 1.393336 -0.021238
v -0.065416 1.405996 -0.033899
v 0.270279 1.402712 -0.040197
v -0.191418 1.298925 -0.003942
v -0.191418 1.302656 -0.003942
v -0.179427 1.298925 0.025007
v -0.179427 1.298925 -0.032891
v -0.179427 1.302656 -0.032891
v -0.149131 1.298925 -0.045440
v -0.149131 1.302656 -0.045440
v -0.149131 1.302656 0.037556
v -0.149131 1.298925 0.037556
v -0.179427 1.302656 0.025007
v -0.180529 1.302774 -0.000180
v -0.180529 1.306281 -0.000180
v -0.280399 1.302774 -0.001189
v -0.284175 1.302774 -0.003942
v -0.280399 1.306281 -0.001189
v -0.284175 1.306281 -0.003942
v -0.280399 1.306281 -0.006695
v -0.280399 1.302774 -0.006695
v -0.180529 1.306281 -0.007705
v -0.180529 1.302774 -0.007705
v -0.183276 1.302774 -0.003942
v -0.183276 1.307490 -0.003942
v -0.179090 1.302774 0.006165
v -0.179090 1.302774 -0.014050
v -0.179090 1.307490 -0.014050
v -0.168982 1.302774 -0.018236
v -0.168982 1.307490 -0.018236
v -0.158875 1.302774 -0.014050
v -0.158875 1.307490 -0.014050
v -0.154688 1.302774 -0.003942
v -0.154688 1.307490 -0.003942
v -0.158875 1.302774 0.006165
v -0.158875 1.307490 0.006165
v -0.168982 1.302774 0.010352
v -0.168982 1.307490 0.010352
v -0.179090 1.307490 0.006165
v 0.107120 1.292131 0.045450
v 0.107120 1.316668 0.045450
v 0.039233 1.292131 0.017330
v 0.142046 1.292131 0.030982
v 0.142046 1.316668 0.030982
v 0.156514 1.292131 -0.003944
v 0.156514 1.316668 -0.003944
v 0.142046 1.292131 -0.038871
v 0.142046 1.316668 -0.038871
v 0.107120 1.292131 -0.053338
v 0.107120 1.316668 -0.053338
v 0.039233 1.292131 -0.025219
v 0.039233 1.316668 -0.025219
v 0.025200 1.292131 -0.003944
v 0.025200 1.316668 -0.003944
v 0.039233 1.316668 0.017330
v 0.064127 1.316668 -0.003944
v 0.076719 1.316668 0.026456
v 0.064127 1.322960 -0.003944
v 0.076719 1.316668 -0.034345
v 0.107120 1.316668 -0.046937
v 0.076719 1.322960 -0.034345
v 0.107120 1.322960 -0.046937
v 0.150112 1.322960 -0.003944
v 0.107120 1.322960 0.039048
v 0.137520 1.322960 -0.034345
v 0.150112 1.316668 -0.003944
v 0.137520 1.322960 0.026456
v 0.137520 1.316668 0.026456
v 0.107120 1.316668 0.039048
v 0.137520 1.316668 -0.034345
v 0.076719 1.322960 0.026456
v -0.073704 1.289857 -0.143139
v -0.073704 1.312073 -0.143139
v -0.086578 1.289857 -0.137806
v -0.060830 1.289857 -0.137806
v -0.060830 1.312073 -0.137806
v -0.055497 1.289857 -0.124932
v -0.055497 1.312073 -0.124932
v -0.060830 1.289857 -0.112058
v -0.060830 1.312073 -0.112058
v -0.073704 1.289857 -0.106725
v -0.073704 1.312073 -0.106725
v -0.086578 1.289857 -0.112058
v -0.086578 1.312073 -0.112058
v -0.091911 1.289857 -0.124932
v -0.091911 1.312073 -0.124932
v -0.086578 1.312073 -0.137806
v -0.086070 1.317992 -0.124932
v -0.082448 1.317992 -0.133676
v -0.082448 1.317992 -0.116188
v -0.086070 1.339355 -0.124932
v -0.082448 1.339355 -0.133676
v -0.082448 1.339355 -0.116188
v -0.073704 1.339355 -0.137298
v -0.061338 1.339355 -0.124932
v -0.073704 1.339355 -0.112566
v -0.073704 1.317992 -0.137298
v -0.064960 1.339355 -0.133676
v -0.064960 1.317992 -0.133676
v -0.061338 1.317992 -0.124932
v -0.064960 1.317992 -0.116188
v -0.073704 1.317992 -0.112566
v -0.064960 1.339355 -0.116188
v -0.073704 1.312073 -0.114932
v -0.073734 1.374928 -0.114933
v -0.083704 1.312073 -0.124932
v -0.063704 1.312073 -0.124932
v -0.064443 1.371309 -0.124962
v -0.073704 1.312073 -0.134932
v -0.073674 1.375233 -0.134931
v -0.082965 1.378852 -0.124902
v -0.036181 1.413661 -0.133365
v -0.032463 1.403755 -0.123981
v -0.041543 1.421544 -0.122919
v 0.016190 1.420450 -0.122855
v 0.014327 1.409324 -0.114326
v 0.014635 1.429165 -0.111826
v 0.176146 1.388097 -0.100640
v 0.171105 1.377639 -0.092565
v 0.177997 1.396097 -0.089126
v 0.334268 1.291016 -0.087317
v 0.325531 1.283173 -0.079433
v 0.340391 1.295992 -0.075580
v 0.388630 1.166240 -0.103013
v 0.377965 1.162373 -0.094569
v 0.397583 1.165378 -0.092100
v 0.380965 1.041910 -0.141507
v 0.370309 1.037846 -0.133144
v 0.390179 1.035588 -0.132839
v 0.373714 0.996900 -0.185743
v 0.362415 0.988974 -0.182659
v 0.382116 0.985703 -0.183739
v 0.372456 1.006576 -0.218068
v 0.360461 1.000546 -0.222513
v 0.379892 0.998009 -0.226513
v 0.369859 1.046035 -0.232676
v 0.357506 1.042957 -0.238834
v 0.376474 1.044232 -0.245045
v 0.361059 1.095277 -0.235073
v 0.349445 1.089706 -0.240910
v 0.366509 1.097405 -0.247948
v 0.342075 1.118967 -0.235105
v 0.336431 1.107324 -0.240815
v 0.344566 1.124104 -0.248044
v 0.318024 1.119329 -0.235105
v 0.318024 1.106390 -0.240815
v 0.318024 1.125038 -0.248044
v 0.318024 1.112099 -0.253753
v 0.338921 1.112462 -0.253753
v 0.354895 1.091834 -0.253785
v 0.364121 1.041154 -0.251203
v 0.367897 0.991979 -0.230958
v 0.370817 0.977777 -0.180654
v 0.379523 1.031524 -0.124476
v 0.386918 1.161511 -0.083656
v 0.331653 1.288150 -0.067697
v 0.172956 1.385638 -0.081050
v 0.012772 1.418039 -0.103297
v -0.037825 1.411638 -0.113535
v -0.073704 1.289857 0.104108
v -0.073704 1.300070 0.107665
v -0.085516 1.289857 0.109001
v -0.061892 1.289857 0.109001
v -0.064407 1.300070 0.111516
v -0.056999 1.289857 0.120813
v -0.060556 1.300070 0.120813
v -0.061892 1.289857 0.132625
v -0.064407 1.300070 0.130110
v -0.073704 1.289857 0.137518
v -0.073704 1.300070 0.133961
v -0.085516 1.289857 0.132625
v -0.083001 1.300070 0.130110
v -0.090409 1.289857 0.120813
v -0.086852 1.300070 0.120813
v -0.083001 1.300070 0.111516
v -0.077213 1.298184 0.120813
v -0.073704 1.298184 0.124321
v -0.077213 1.316190 0.120813
v -0.073704 1.298184 0.117304
v -0.073704 1.316190 0.117304
v -0.070195 1.298184 0.120813
v -0.070195 1.316190 0.120813
v -0.073704 1.316190 0.124321
v -0.068531 1.332954 0.120813
v -0.073704 1.332954 0.125986
v -0.073704 1.332954 0.115639
v -0.070498 1.335467 0.120813
v -0.073704 1.335467 0.124019
v -0.073704 1.335467 0.117607
v -0.076910 1.335467 0.120813
v -0.078877 1.332954 0.120813
v -0.073704 1.289857 0.067209
v -0.073704 1.300070 0.070765
v -0.085516 1.289857 0.072101
v -0.061892 1.289857 0.072101
v -0.064407 1.300070 0.074616
v -0.056999 1.289857 0.083913
v -0.060556 1.300070 0.083913
v -0.061892 1.289857 0.095726
v -0.064407 1.300070 0.093211
v -0.073704 1.289857 0.100618
v -0.073704 1.300070 0.097061
v -0.085516 1.289857 0.095726
v -0.083001 1.300070 0.093211
v -0.090409 1.289857 0.083913
v -0.086852 1.300070 0.083913
v -0.083001 1.300070 0.074616
v -0.077213 1.298184 0.083913
v -0.073704 1.298184 0.087422
v -0.077213 1.316190 0.083913
v -0.073704 1.298184 0.080405
v -0.073704 1.316190 0.080405
v -0.070195 1.298184 0.083913
v -0.070195 1.316190 0.083913
v -0.073704 1.316190 0.087422
v -0.068531 1.332954 0.083913
v -0.073704 1.332954 0.089087
v -0.073704 1.332954 0.078740
v -0.070498 1.335467 0.083913
v -0.073704 1.335467 0.087119
v -0.073704 1.335467 0.080708
v -0.076910 1.335467 0.083913
v -0.078877 1.332954 0.083913
v 0.284806 1.079986 -0.306313
v 0.196612 1.079986 -0.306313
v 0.284806 1.115714 -0.315886
v 0.284806 1.053831 -0.280158
v 0.284806 1.074096 -0.316515
v 0.284806 1.115714 -0.327666
v 0.196612 1.074096 -0.316515
v 0.284806 1.043629 -0.286048
v 0.284806 1.032477 -0.244429
v 0.196612 1.043629 -0.286048
v 0.196612 1.032477 -0.244429
v 0.196612 1.053831 -0.280158
v 0.196612 1.044257 -0.244429
v 0.284806 1.044257 -0.244429
v 0.196612 1.053831 -0.208701
v 0.284806 1.053831 -0.208701
v 0.196612 1.079986 -0.182546
v 0.196612 1.043629 -0.202811
v 0.196612 1.074096 -0.172344
v 0.284806 1.043629 -0.202811
v 0.284806 1.074096 -0.172344
v 0.284806 1.115714 -0.161192
v 0.284806 1.079986 -0.182546
v 0.284806 1.115714 -0.172972
v 0.196612 1.115714 -0.172972
v 0.284806 1.230219 -0.172972
v 0.284806 1.230219 -0.161192
v 0.196612 1.230219 -0.172972
v 0.196612 1.230219 -0.161192
v 0.196612 1.115714 -0.161192
v 0.196612 1.115714 -0.327666
v 0.196612 1.115714 -0.315886
v -0.218579 1.230219 -0.161192
v -0.218579 1.115714 -0.161192
v -0.218579 1.230219 -0.172972
v -0.130385 1.230219 -0.161192
v -0.130385 1.230219 -0.172972
v -0.130385 1.115714 -0.161192
v -0.130385 1.115714 -0.172972
v -0.130385 1.074096 -0.172344
v -0.130385 1.043629 -0.202811
v -0.218579 1.074096 -0.172344
v -0.130385 1.079986 -0.182546
v -0.218579 1.079986 -0.182546
v -0.130385 1.053831 -0.208701
v -0.218579 1.053831 -0.208701
v -0.130385 1.044257 -0.244429
v -0.218579 1.044257 -0.244429
v -0.130385 1.053831 -0.280158
v -0.130385 1.032477 -0.244429
v -0.218579 1.032477 -0.244429
v -0.130385 1.043629 -0.286048
v -0.130385 1.074096 -0.316515
v -0.218579 1.043629 -0.286048
v -0.218579 1.074096 -0.316515
v -0.218579 1.053831 -0.280158
v -0.218579 1.079986 -0.306313
v -0.218579 1.115714 -0.315886
v -0.130385 1.079986 -0.306313
v -0.130385 1.115714 -0.315886
v -0.130385 1.115714 -0.327666
v -0.218579 1.115714 -0.327666
v -0.218579 1.043629 -0.202811
v -0.218579 1.115714 -0.172972
v -0.318280 1.115714 -0.318924
v -0.318280 1.152961 -0.308943
v -0.318280 1.115714 -0.327747
v -0.318280 1.078467 -0.308943
v -0.305539 1.115714 -0.318924
v -0.305539 1.078467 -0.308943
v -0.305539 1.152961 -0.308943
v -0.305539 1.180228 -0.281677
v -0.305539 1.051200 -0.281677
v -0.305539 1.115714 -0.169935
v -0.305539 1.180228 -0.207182
v -0.305539 1.152961 -0.179915
v -0.318280 1.115714 -0.169935
v -0.305539 1.078467 -0.179915
v -0.318280 1.078467 -0.179915
v -0.305539 1.051200 -0.207182
v -0.318280 1.051200 -0.207182
v -0.305539 1.041220 -0.244429
v -0.318280 1.041220 -0.244429
v -0.318280 1.032397 -0.244429
v -0.318280 1.051200 -0.281677
v -0.318280 1.043559 -0.286088
v -0.218579 1.043559 -0.286088
v -0.318280 1.074055 -0.316584
v -0.218579 1.074055 -0.316584
v -0.218579 1.115714 -0.327747
v -0.218579 1.079986 -0.306313
v -0.218579 1.053831 -0.280158
v -0.218579 1.115714 -0.315886
v 0.310391 1.079986 -0.306313
v 0.310391 1.053831 -0.280158
v 0.318024 1.083937 -0.299469
v 0.310391 1.115714 -0.315886
v 0.318024 1.115714 -0.307984
v 0.310391 1.151443 -0.306313
v 0.318024 1.147491 -0.299469
v 0.310391 1.177598 -0.280158
v -0.218579 1.151443 -0.306313
v -0.218579 1.177598 -0.280158
v -0.218579 1.157373 -0.316584
v -0.218579 1.187869 -0.286088
v -0.318280 1.157373 -0.316584
v -0.318280 1.187869 -0.286088
v -0.318280 1.180228 -0.281677
v -0.318280 1.199032 -0.244429
v -0.218579 1.199032 -0.244429
v -0.318280 1.187869 -0.202771
v -0.318280 1.190209 -0.244429
v -0.318280 1.180228 -0.207182
v -0.305539 1.190209 -0.244429
v -0.318280 1.152961 -0.179915
v -0.318280 1.157373 -0.172274
v -0.218579 1.157373 -0.172274
v -0.318280 1.115714 -0.161112
v -0.318280 1.074055 -0.172274
v -0.218579 1.115714 -0.161112
v -0.218579 1.115714 -0.172972
v -0.218579 1.074055 -0.172274
v -0.218579 1.079986 -0.182546
v -0.218579 1.043559 -0.202771
v -0.218579 1.053831 -0.208701
v -0.218579 1.032397 -0.244429
v -0.318280 1.043559 -0.202771
v -0.218579 1.044257 -0.244429
v 0.310391 1.044257 -0.244429
v 0.310391 1.053831 -0.208701
v 0.318024 1.052159 -0.244429
v 0.318024 1.060674 -0.212652
v 0.318024 1.060674 -0.276207
v 0.318024 1.083937 -0.189389
v 0.318024 1.170754 -0.212652
v 0.318024 1.170754 -0.276207
v 0.318024 1.179269 -0.244429
v 0.310391 1.187171 -0.244429
v 0.310391 1.177598 -0.208701
v -0.218579 1.187171 -0.244429
v -0.218579 1.177598 -0.208701
v -0.218579 1.151443 -0.182546
v -0.218579 1.187869 -0.202771
v 0.310391 1.151443 -0.182546
v 0.318024 1.147492 -0.189389
v 0.310391 1.115714 -0.172972
v 0.318024 1.115714 -0.180875
v 0.310391 1.079986 -0.182546
v -0.318280 1.115714 -0.244429
v -0.313230 1.115714 -0.237288
v -0.318280 1.094713 -0.223428
v -0.318279 1.136716 -0.223428
v -0.313230 1.108572 -0.244429
v -0.318280 1.094713 -0.265431
v -0.313230 1.115714 -0.251571
v -0.318279 1.136716 -0.265431
v -0.313230 1.122856 -0.244429
v -0.313230 1.136716 -0.258289
v -0.313230 1.136716 -0.230570
v -0.313230 1.150575 -0.244429
v -0.318280 1.157717 -0.244429
v -0.318279 1.178718 -0.223428
v -0.313230 1.157717 -0.237288
v -0.313230 1.164859 -0.244429
v -0.318279 1.178718 -0.265431
v -0.313230 1.157717 -0.251571
v -0.313230 1.171576 -0.265431
v -0.313230 1.143857 -0.265431
v -0.313230 1.157717 -0.279290
v -0.318280 1.157717 -0.286432
v -0.318279 1.136716 -0.307433
v -0.313230 1.157717 -0.293574
v -0.318280 1.166595 -0.295310
v -0.313230 1.164859 -0.286432
v -0.313230 1.150575 -0.286432
v -0.313230 1.136716 -0.272572
v -0.313230 1.136716 -0.300292
v -0.313230 1.122856 -0.286432
v -0.318280 1.115714 -0.286432
v -0.313230 1.108572 -0.286432
v -0.318280 1.094713 -0.307433
v -0.313230 1.115714 -0.279290
v -0.313230 1.115714 -0.293574
v -0.313230 1.101855 -0.307433
v -0.313230 1.129574 -0.307433
v -0.313230 1.118951 -0.318056
v -0.318279 1.128707 -0.315442
v -0.313230 1.136716 -0.313296
v -0.313230 1.136716 -0.313296
v -0.318279 1.141340 -0.312057
v -0.313230 1.146972 -0.310548
v -0.313230 1.143857 -0.307433
v -0.313230 1.112478 -0.318057
v -0.318280 1.102722 -0.315442
v -0.313230 1.094713 -0.313296
v -0.318280 1.090089 -0.312057
v -0.313230 1.094713 -0.313296
v -0.313230 1.084456 -0.310548
v -0.313230 1.087571 -0.307433
v -0.313230 1.073712 -0.293574
v -0.318279 1.073712 -0.286432
v -0.313230 1.068405 -0.298881
v -0.318280 1.064834 -0.295310
v -0.313230 1.061263 -0.291739
v -0.313230 1.066570 -0.286432
v -0.313230 1.052710 -0.272572
v -0.313230 1.049595 -0.275687
v -0.318280 1.052710 -0.265431
v -0.318280 1.048086 -0.270055
v -0.313230 1.059852 -0.265431
v -0.318280 1.073712 -0.244429
v -0.313230 1.052710 -0.258289
v -0.318279 1.044701 -0.257421
v -0.313230 1.046847 -0.265431
v -0.313230 1.046847 -0.265431
v -0.313230 1.042087 -0.247666
v -0.313230 1.066570 -0.244429
v -0.313230 1.052710 -0.230570
v -0.313230 1.042087 -0.241193
v -0.318280 1.052710 -0.223428
v -0.313230 1.059852 -0.223428
v -0.318280 1.073712 -0.202427
v -0.318280 1.044701 -0.231437
v -0.313230 1.052710 -0.216286
v -0.318280 1.048086 -0.218804
v -0.313230 1.046847 -0.223428
v -0.313230 1.046847 -0.223428
v -0.313230 1.049595 -0.213171
v -0.313230 1.066570 -0.202427
v -0.313230 1.061263 -0.197120
v -0.318279 1.064834 -0.193549
v -0.313230 1.068404 -0.189978
v -0.313230 1.073712 -0.195285
v -0.313230 1.087571 -0.181425
v -0.313230 1.084456 -0.178310
v -0.318280 1.094713 -0.181425
v -0.318280 1.090089 -0.176801
v -0.318280 1.115714 -0.202427
v -0.313230 1.101855 -0.181425
v -0.313230 1.094713 -0.188567
v -0.318280 1.102722 -0.173416
v -0.313230 1.094713 -0.175562
v -0.313230 1.094713 -0.175562
v -0.313230 1.112478 -0.170802
v -0.313230 1.080853 -0.202427
v -0.313230 1.108572 -0.202427
v -0.313230 1.094713 -0.216286
v -0.313230 1.115714 -0.195285
v -0.313230 1.129574 -0.181425
v -0.313230 1.118951 -0.170802
v -0.318279 1.136716 -0.181425
v -0.313230 1.136716 -0.188567
v -0.318280 1.157717 -0.202427
v -0.313230 1.143857 -0.181425
v -0.318279 1.128707 -0.173416
v -0.318279 1.141340 -0.176801
v -0.313230 1.136716 -0.175562
v -0.313230 1.136716 -0.175562
v -0.313230 1.146972 -0.178311
v -0.313230 1.157717 -0.195285
v -0.313230 1.163024 -0.189978
v -0.318280 1.166595 -0.193549
v -0.313230 1.170166 -0.197120
v -0.313230 1.164859 -0.202427
v -0.313230 1.178718 -0.216286
v -0.313230 1.181833 -0.213172
v -0.318279 1.183342 -0.218804
v -0.313230 1.184581 -0.223428
v -0.318280 1.186727 -0.231437
v -0.313230 1.184581 -0.223428
v -0.313230 1.189341 -0.241193
v -0.313230 1.178718 -0.230570
v -0.313230 1.150575 -0.202427
v -0.313230 1.157717 -0.209568
v -0.313230 1.171576 -0.223428
v -0.313230 1.143857 -0.223428
v -0.313230 1.136716 -0.216286
v -0.313230 1.122856 -0.202427
v -0.313230 1.115714 -0.209568
v -0.313230 1.101855 -0.223428
v -0.313230 1.129574 -0.223428
v -0.313230 1.073712 -0.209568
v -0.313230 1.087571 -0.223428
v -0.313230 1.073712 -0.237288
v -0.313230 1.073712 -0.251571
v -0.313230 1.080853 -0.244429
v -0.313230 1.094713 -0.258289
v -0.313230 1.094713 -0.230570
v -0.313230 1.087571 -0.265431
v -0.313230 1.073712 -0.279290
v -0.313230 1.080853 -0.286432
v -0.313230 1.094713 -0.300292
v -0.313230 1.094713 -0.272572
v -0.313230 1.101855 -0.265431
v -0.313230 1.129574 -0.265431
v -0.313230 1.170166 -0.291739
v -0.313230 1.178718 -0.272572
v -0.313230 1.181833 -0.275687
v -0.318279 1.183342 -0.270055
v -0.313230 1.184581 -0.265431
v -0.313230 1.184581 -0.265431
v -0.318280 1.186727 -0.257422
v -0.313230 1.189341 -0.247666
v -0.313230 1.178718 -0.258289
v -0.313230 1.163024 -0.298881
vn -0.0000 1.0000 -0.0000
vn 0.7071 -0.0000 0.7071
vn 0.1951 -0.0000 0.9808
vn 0.7071 -0.0000 -0.7071
vn 0.9808 -0.0000 -0.1951
vn 0.1951 -0.0000 -0.9808
vn -0.1951 -0.0000 0.9808
vn -0.7071 -0.0000 0.7071
vn -0.9808 -0.0000 0.1951
vn -0.7071 -0.0000 -0.7071
vn -0.1951 -0.0000 -0.9808
vn -0.9808 -0.0000 -0.1951
vn -0.0000 -1.0000 -0.0000
vn 0.0004 0.9997 -0.0247
vn 0.0013 1.0000 -0.0012
vn 0.6920 0.2059 -0.6920
vn 0.0158 0.2142 -0.9767
vn 0.9808 -0.0000 0.1951
vn -0.0013 1.0000 0.0013
vn -0.0120 0.9999 0.0004
vn -0.9764 0.2133 0.0329
vn -0.6928 0.2036 0.6918
vn 0.0012 1.0000 0.0013
vn 0.0004 0.9997 0.0248
vn 0.0159 0.2046 0.9787
vn 0.6929 0.2036 0.6917
vn -0.0120 0.9999 -0.0004
vn -0.0012 1.0000 -0.0013
vn -0.6920 0.2059 -0.6920
vn -0.9764 0.2134 -0.0329
vn -0.0004 0.9997 0.0248
vn -0.0159 0.2047 0.9787
vn 0.0121 0.9999 -0.0004
vn 0.0120 0.9999 0.0004
vn 0.9764 0.2133 0.0329
vn 0.9764 0.2134 -0.0329
vn -0.0004 0.9997 -0.0248
vn -0.0158 0.2142 -0.9767
vn 0.9787 -0.0000 0.2051
vn 0.9787 -0.0000 -0.2051
vn 0.2051 -0.0000 0.9787
vn 0.2051 -0.0000 -0.9787
vn -0.2051 -0.0000 -0.9787
vn -0.2051 -0.0000 0.9787
vn -0.9787 -0.0000 0.2051
vn -0.9787 -0.0000 -0.2051
vn -0.0000 0.7933 0.6088
vn 0.5610 0.5610 0.6088
vn -0.5610 0.5610 0.6088
vn -0.7933 -0.0000 0.6088
vn -0.5610 -0.5610 0.6088
vn -0.0000 -0.7933 0.6088
vn 0.5610 -0.5610 0.6088
vn 0.7933 -0.0000 0.6088
vn -0.0000 -0.0000 1.0000
vn -1.0000 -0.0000 0.0003
vn 1.0000 -0.0000 0.0003
vn -0.0000 -0.0000 -1.0000
vn -0.7072 -0.0000 0.7070
vn -0.9808 -0.0000 0.1949
vn -0.9807 -0.0000 -0.1953
vn -0.7070 -0.0000 -0.7072
vn 0.7070 -0.0000 -0.7072
vn 0.9807 -0.0000 -0.1953
vn 0.9808 -0.0000 0.1949
vn 0.7072 -0.0000 0.7070
vn -0.6734 0.6854 0.2770
vn -0.2740 0.9213 0.2761
vn -0.0358 0.9643 0.2623
vn -0.2492 0.3909 -0.8860
vn -0.3193 0.3249 -0.8902
vn -0.2081 0.2117 -0.9549
vn -0.1627 0.2555 -0.9530
vn -0.0000 0.2588 -0.9659
vn -0.0000 0.5000 -0.8660
vn 0.2740 0.9213 0.2761
vn 0.0358 0.9643 0.2623
vn 0.1372 -0.4565 0.8791
vn -0.1372 -0.4565 0.8791
vn -0.0674 -0.2685 0.9609
vn 0.0674 -0.2685 0.9609
vn 0.2146 -0.2184 0.9520
vn 0.3707 -0.3775 0.8485
vn 0.6734 0.6854 0.2770
vn -0.3707 -0.3775 0.8485
vn -0.2146 -0.2184 0.9520
vn -0.5555 -0.5547 0.6195
vn 0.5555 -0.5547 0.6195
vn -0.4535 -0.1407 0.8801
vn -0.2676 -0.0696 0.9610
vn -0.2703 -0.0000 0.9628
vn -0.5046 0.0005 0.8634
vn -0.8884 0.0006 0.4591
vn 0.9661 -0.0000 0.2583
vn 0.9574 0.1084 0.2677
vn 0.9188 0.2820 0.2762
vn 0.3193 0.3249 -0.8902
vn 0.2081 0.2117 -0.9549
vn 0.2527 0.1671 -0.9530
vn 0.3865 0.2559 -0.8861
vn 0.2589 -0.0000 -0.9659
vn 0.5000 -0.0000 -0.8660
vn 0.4998 -0.0000 -0.8662
vn 0.2492 0.3909 -0.8860
vn 0.1627 0.2555 -0.9530
vn 0.4399 0.6892 -0.5758
vn 0.5689 0.5787 -0.5843
vn 0.6815 0.4516 -0.5759
vn 0.6829 0.6950 -0.2250
vn 0.8661 -0.0000 -0.5000
vn 1.0000 -0.0000 -0.0000
vn 0.8658 -0.0000 -0.5003
vn 0.8661 -0.0000 0.5000
vn 0.8659 -0.0000 0.5002
vn 0.5000 -0.0000 0.8660
vn 0.4997 -0.0000 0.8662
vn 0.3194 0.3249 0.8902
vn 0.5688 0.5788 0.5843
vn 0.6815 0.4516 0.5759
vn 0.3865 0.2559 0.8861
vn 0.6829 0.6950 0.2250
vn 0.4399 0.6892 0.5758
vn 0.2492 0.3909 0.8860
vn 0.1627 0.2555 0.9530
vn 0.2081 0.2117 0.9549
vn 0.2527 0.1671 0.9530
vn 0.0358 0.9643 -0.2623
vn 0.6734 0.6854 -0.2770
vn 0.3751 0.3818 -0.8447
vn 0.1700 0.5454 -0.8208
vn 0.9574 0.1084 -0.2677
vn 0.5461 0.1755 -0.8191
vn -0.3707 -0.3775 -0.8485
vn -0.1372 -0.4565 -0.8791
vn -0.4535 -0.1407 -0.8801
vn -0.5046 0.0005 -0.8634
vn 0.4950 -0.0000 -0.8689
vn 0.9661 -0.0000 -0.2583
vn 0.2589 -0.0000 0.9659
vn -0.8884 0.0006 -0.4591
vn -0.5555 -0.5547 -0.6195
vn -1.0000 0.0001 -0.0000
vn -0.7071 -0.7072 -0.0000
vn 0.5555 -0.5547 -0.6195
vn 0.7071 -0.7072 -0.0000
vn 0.8884 0.0006 0.4591
vn 1.0000 0.0001 -0.0000
vn 0.8884 0.0006 -0.4591
vn 0.3707 -0.3775 -0.8485
vn 0.4535 -0.1407 -0.8801
vn 0.5046 0.0005 -0.8634
vn 0.1372 -0.4565 -0.8791
vn -0.1700 0.5454 -0.8208
vn -0.3751 0.3818 -0.8447
vn -0.5461 0.1755 -0.8191
vn -0.0358 0.9643 -0.2623
vn -0.6734 0.6854 -0.2770
vn -0.9574 0.1084 -0.2677
vn -0.1627 0.2555 0.9530
vn -0.2081 0.2117 0.9549
vn -0.3193 0.3249 0.8902
vn -0.2492 0.3909 0.8860
vn -0.2527 0.1671 0.9530
vn -0.3865 0.2559 0.8861
vn -0.5000 -0.0000 0.8660
vn -0.4997 -0.0000 0.8662
vn -0.2589 -0.0000 0.9659
vn -0.4950 -0.0000 -0.8689
vn -0.9661 -0.0000 -0.2583
vn -0.8661 -0.0000 0.5000
vn -0.8659 -0.0000 0.5002
vn -1.0000 -0.0000 -0.0000
vn -0.8661 -0.0000 -0.5000
vn -0.8660 -0.0000 -0.5001
vn -0.5000 -0.0000 -0.8660
vn -0.4997 -0.0000 -0.8662
vn -0.2589 -0.0000 -0.9659
vn -0.9661 -0.0000 0.2583
vn -0.9188 0.2820 0.2762
vn -0.9574 0.1084 0.2677
vn 0.2703 -0.0000 0.9628
vn 0.5046 0.0005 0.8634
vn 0.4535 -0.1407 0.8801
vn 0.2676 -0.0696 0.9610
vn -0.3865 0.2559 -0.8861
vn -0.2527 0.1671 -0.9530
vn -0.5688 0.5788 -0.5843
vn -0.6815 0.4516 -0.5759
vn -0.4399 0.6892 -0.5758
vn -0.6829 0.6950 -0.2250
vn -0.0000 0.8660 -0.5000
vn -0.5688 0.5788 0.5843
vn -0.6815 0.4516 0.5759
vn -0.6829 0.6950 0.2250
vn -0.4399 0.6892 0.5758
vn -0.0000 0.8660 0.5000
vn -0.0000 0.5000 0.8660
vn -0.0000 0.2588 0.9659
vn -0.3827 -0.0000 -0.9239
vn -0.3827 -0.0000 0.9239
vn -0.0101 -0.0000 0.9999
vn -0.3146 -0.0000 0.9492
vn -0.3146 -0.0000 -0.9492
vn -0.0101 -0.0000 -0.9999
vn -0.6367 -0.0000 0.7711
vn -0.6367 -0.0000 -0.7711
vn -0.8348 -0.0000 -0.5506
vn -0.8348 -0.0000 0.5506
vn -0.7118 0.7024 -0.0000
vn -0.5033 0.7024 -0.5033
vn -0.5033 0.7024 0.5033
vn 0.5033 0.7024 -0.5033
vn 0.7118 0.7024 -0.0000
vn -0.0000 0.7024 -0.7118
vn 0.5033 0.7024 0.5033
vn -0.0000 0.7024 0.7118
vn 1.0000 0.0061 0.0002
vn 0.9263 -0.3764 -0.0158
vn -0.1548 0.0479 0.9868
vn 0.0008 0.0061 1.0000
vn -0.9247 0.3807 0.0006
vn -1.0000 0.0057 -0.0002
vn 0.0004 0.0061 -1.0000
vn -0.1513 0.0823 -0.9851
vn 0.0214 0.2137 -0.9767
vn 0.4569 -0.8831 -0.1066
vn -0.4541 0.8909 0.0104
vn 0.1690 0.1968 -0.9658
vn -0.0178 -0.9924 -0.1217
vn 0.0121 0.9914 0.1302
vn 0.1867 0.1954 -0.9628
vn -0.3450 -0.9230 -0.1706
vn 0.3457 0.9225 0.1718
vn 0.2333 0.2322 -0.9443
vn -0.7457 -0.6436 -0.1725
vn 0.7417 0.6389 0.2043
vn 0.1891 0.2481 -0.9501
vn -0.9828 -0.1633 -0.0861
vn 0.9781 0.1501 0.1439
vn 0.1002 0.5101 -0.8542
vn -0.9962 0.0508 0.0713
vn 0.9796 -0.1683 0.1098
vn 0.1795 0.9504 -0.2541
vn -0.9929 -0.0517 0.1074
vn 0.9294 -0.3690 -0.0012
vn 0.2969 0.7183 0.6292
vn -0.9967 -0.0355 0.0723
vn 0.9164 -0.2554 -0.3083
vn 0.3342 0.2380 0.9119
vn -0.9656 -0.0751 0.2490
vn 0.9311 0.0396 -0.3626
vn 0.3910 0.2097 0.8962
vn -0.8516 -0.3641 0.3770
vn 0.8622 0.3887 -0.3250
vn 0.2245 0.4527 0.8630
vn -0.3829 -0.8005 0.4610
vn 0.4190 0.8535 -0.3096
vn 0.0212 0.3655 0.9306
vn 0.0252 -0.9347 0.3544
vn 0.0200 0.9345 -0.3555
vn -0.0641 -0.1441 -0.9875
vn 0.0257 -0.3696 -0.9288
vn -0.2161 -0.1182 -0.9692
vn -0.2488 -0.2419 -0.9379
vn -0.1899 -0.7419 -0.6431
vn -0.1361 -0.9590 0.2486
vn -0.0598 -0.5225 0.8505
vn 0.0182 -0.2147 0.9765
vn -0.0281 -0.0556 0.9981
vn -0.1306 -0.0482 0.9903
vn -0.1710 -0.0505 0.9840
vn -0.1580 0.0412 0.9866
vn -0.0000 0.3289 -0.9444
vn 0.6678 0.3289 -0.6678
vn -0.6678 0.3289 -0.6678
vn 0.9444 0.3289 -0.0000
vn 0.6678 0.3289 0.6678
vn -0.0000 0.3289 0.9444
vn -0.6678 0.3289 0.6678
vn -0.9444 0.3289 -0.0000
vn -0.0000 -0.0506 0.9987
vn -0.9987 -0.0506 -0.0000
vn -0.0000 -0.0506 -0.9987
vn 0.9987 -0.0506 -0.0000
vn 0.9702 0.2422 -0.0000
vn -0.0000 0.2422 0.9702
vn -0.0000 0.2422 -0.9702
vn 0.5783 0.8158 -0.0000
vn -0.0000 0.8158 0.5783
vn -0.0000 0.8158 -0.5783
vn -0.5783 0.8158 -0.0000
vn -0.9702 0.2422 -0.0000
vn -0.0000 -0.2588 -0.9659
vn -0.0000 -0.5000 -0.8660
vn -0.0000 -0.8660 -0.5000
vn -0.0000 -0.8660 0.5000
vn -0.0000 -0.5000 0.8660
vn -0.0000 -0.2588 0.9659
vn -0.0000 0.1305 -0.9914
vn 0.0141 -0.4999 -0.8660
vn 0.0141 -0.8659 -0.4999
vn 0.0141 -0.0000 -0.9999
vn 0.9992 -0.0205 -0.0354
vn 0.9992 -0.0354 -0.0204
vn 0.9992 -0.0000 -0.0409
vn 0.9992 0.0204 -0.0354
vn 0.0141 0.5000 -0.8659
vn 0.9992 0.0354 -0.0204
vn 0.0141 0.8660 -0.4999
vn 0.0141 -0.9999 -0.0001
vn 0.0141 -0.8659 0.5000
vn 0.9992 -0.0409 -0.0000
vn 0.9992 -0.0354 0.0205
vn 0.9992 -0.0205 0.0354
vn 0.9992 0.0354 0.0204
vn 0.0141 -0.5001 0.8659
vn 0.9992 0.0409 -0.0000
vn 0.0141 0.9999 -0.0000
vn 0.0141 0.8659 0.5000
vn 0.0141 0.5000 0.8659
vn 0.0141 -0.0001 0.9999
vn 0.9992 0.0205 0.0354
vn 0.9992 -0.0000 0.0409
vn -0.8165 -0.0000 0.5774
vn -0.8165 -0.5773 -0.0000
vn -0.8165 0.5774 -0.0000
vn -0.8165 -0.5774 -0.0000
vn -0.8165 -0.0000 -0.5774
vn -0.8165 0.5773 -0.0000
vn -0.9996 0.0269 -0.0000
vn -0.8165 -0.0000 0.5773
vn -0.9996 -0.0000 -0.0269
vn -0.8165 0.4082 -0.4082
vn -0.6324 -0.1310 -0.7635
vn -0.6324 0.7635 0.1310
vn -0.8165 -0.0000 -0.5773
vn -0.8677 -0.1076 -0.4852
vn -0.8914 -0.4094 -0.1942
vn -0.4773 0.2043 -0.8546
vn -0.8308 0.2813 -0.4803
vn -0.7304 0.6777 -0.0854
vn -0.8914 0.4094 -0.1941
vn -0.8678 0.1076 -0.4852
vn -0.3957 -0.2186 -0.8920
vn -0.8308 -0.2813 -0.4803
vn -0.7304 -0.6777 -0.0854
vn -0.6324 0.1310 -0.7634
vn -0.8165 -0.4083 -0.4082
vn -0.6324 -0.7635 0.1310
vn -0.9996 -0.0269 -0.0000
vn -0.7304 -0.0854 -0.6777
vn -0.8308 -0.4803 -0.2813
vn -0.3712 -0.9015 -0.2224
vn -0.8677 -0.4852 0.1076
vn -0.8914 -0.1942 0.4094
vn -0.0000 -0.9659 -0.2588
vn -0.8914 -0.1942 -0.4094
vn -0.8677 -0.4852 -0.1076
vn -0.3957 -0.8920 0.2186
vn -0.8308 -0.4803 0.2813
vn -0.7303 -0.0854 0.6777
vn -0.0000 -0.9659 0.2588
vn -0.6324 -0.7635 -0.1310
vn -0.8165 -0.4082 0.4082
vn -0.6324 0.1310 0.7635
vn -0.9996 -0.0000 0.0269
vn -0.7303 -0.6777 0.0854
vn -0.8308 -0.2813 0.4803
vn -0.3712 -0.2224 0.9015
vn -0.8677 0.1076 0.4852
vn -0.8914 0.4094 0.1942
vn -0.8914 -0.4094 0.1942
vn -0.8677 -0.1076 0.4852
vn -0.8308 0.2813 0.4803
vn -0.7304 0.6777 0.0854
vn -0.3957 0.2186 0.8920
vn -0.6324 -0.1310 0.7635
vn -0.8165 0.4082 0.4082
vn -0.6324 0.7635 -0.1310
vn -0.7304 0.0854 0.6777
vn -0.8308 0.4803 0.2813
vn -0.3712 0.9015 0.2224
vn -0.8678 0.4852 -0.1076
vn -0.0000 0.9659 0.2588
vn -0.8914 0.1942 -0.4094
vn -0.8308 0.4803 -0.2813
vn -0.7304 0.0854 -0.6777
vn -0.3957 0.8920 -0.2186
vn -0.0000 0.9659 -0.2588
vn -0.8678 0.4852 0.1076
vn -0.8914 0.1942 0.4094
vt 0.406250 0.843750
vt 0.656250 0.843750
vt 0.656250 0.984375
vt 0.406250 0.984375
vt 0.808724 0.003906
vt 0.808724 0.147792
vt 0.798461 0.147792
vt 0.798461 0.003906
vt 0.967171 0.003906
vt 0.967171 0.147792
vt 0.956908 0.147792
vt 0.956908 0.003906
vt 0.014169 0.003906
vt 0.014169 0.147792
vt 0.003906 0.147792
vt 0.003906 0.003906
vt 0.495801 0.003906
vt 0.495801 0.147792
vt 0.485538 0.147792
vt 0.485538 0.003906
vt 0.475276 0.147792
vt 0.475276 0.003906
vt 0.327092 0.003906
vt 0.327092 0.147792
vt 0.316829 0.147792
vt 0.316829 0.003906
vt 0.337354 0.003906
vt 0.337354 0.147792
vt 0.686581 0.448494
vt 0.699990 0.461903
vt 0.686581 0.613233
vt 0.023611 0.269938
vt 0.014211 0.273864
vt 0.009634 0.269428
vt 0.022650 0.263615
vt 0.818986 0.147792
vt 0.818986 0.003906
vt 0.586236 0.219885
vt 0.582309 0.229366
vt 0.577724 0.228454
vt 0.582931 0.216580
vt 0.907859 0.376769
vt 0.911787 0.367288
vt 0.916371 0.368200
vt 0.911165 0.380075
vt 0.898378 0.380697
vt 0.899290 0.385281
vt 0.911787 0.229366
vt 0.907859 0.219885
vt 0.911165 0.216580
vt 0.916371 0.228454
vt 0.898378 0.215958
vt 0.899290 0.211373
vt 0.595717 0.215958
vt 0.594806 0.211373
vt 0.582309 0.367288
vt 0.577724 0.368200
vt 0.586236 0.376769
vt 0.582931 0.380075
vt 0.595717 0.380697
vt 0.594806 0.385281
vt 0.335711 0.430741
vt 0.339691 0.421292
vt 0.345995 0.422294
vt 0.340289 0.435170
vt 0.014171 0.430710
vt 0.023570 0.434877
vt 0.022658 0.441034
vt 0.009741 0.435296
vt 0.339683 0.283296
vt 0.335737 0.273895
vt 0.340157 0.269298
vt 0.346005 0.282281
vt 0.326345 0.434867
vt 0.327265 0.441034
vt 0.010227 0.283300
vt 0.010228 0.421295
vt 0.003906 0.422309
vt 0.003922 0.282297
vt 0.326301 0.269929
vt 0.327256 0.263615
vt 0.169584 0.187832
vt 0.156618 0.187832
vt 0.156618 0.171333
vt 0.169584 0.171333
vt 0.016872 0.187832
vt 0.016872 0.171333
vt 0.182550 0.187832
vt 0.182550 0.171333
vt 0.003906 0.187832
vt 0.003906 0.171333
vt 0.996094 0.187832
vt 0.983128 0.187832
vt 0.983128 0.171333
vt 0.996094 0.171333
vt 0.678643 0.187832
vt 0.678643 0.171333
vt 0.500000 0.187832
vt 0.487034 0.187832
vt 0.487034 0.171333
vt 0.500000 0.171333
vt 0.512966 0.187832
vt 0.512966 0.171333
vt 0.652712 0.187832
vt 0.652712 0.171333
vt 0.665677 0.187832
vt 0.665677 0.171333
vt 0.370512 0.599825
vt 0.370512 0.461903
vt 0.383921 0.448494
vt 0.374440 0.452422
vt 0.383921 0.613233
vt 0.696063 0.452422
vt 0.699990 0.599825
vt 0.696063 0.609306
vt 0.374440 0.609306
vt 0.794720 0.461733
vt 0.754908 0.478224
vt 0.745422 0.468967
vt 0.794559 0.448480
vt 0.834533 0.478224
vt 0.843790 0.468739
vt 0.851024 0.518037
vt 0.864277 0.517876
vt 0.834533 0.557849
vt 0.844018 0.567107
vt 0.794720 0.574340
vt 0.794882 0.587593
vt 0.754908 0.557849
vt 0.745651 0.567335
vt 0.738417 0.518037
vt 0.725164 0.518198
vt 0.507863 0.289323
vt 0.381045 0.289321
vt 0.379065 0.263615
vt 0.509832 0.263615
vt 0.515882 0.266120
vt 0.518390 0.272170
vt 0.507883 0.362247
vt 0.518413 0.362241
vt 0.701041 0.977030
vt 0.701082 0.830701
vt 0.723605 0.830707
vt 0.723564 0.977036
vt 0.978024 0.999701
vt 0.723551 0.999559
vt 0.978037 0.977179
vt 0.978078 0.830707
vt 0.723605 0.808185
vt 0.978078 0.808185
vt 1.000600 0.830714
vt 1.000559 0.977185
vt 0.381064 0.362316
vt 0.509860 0.370800
vt 0.379093 0.370869
vt 0.373043 0.368367
vt 0.370536 0.362319
vt 0.370512 0.272170
vt 0.617618 0.424953
vt 0.617618 0.408822
vt 0.624165 0.408822
vt 0.624165 0.424953
vt 0.754932 0.408822
vt 0.754932 0.424953
vt 0.761481 0.408822
vt 0.761481 0.424953
vt 0.515909 0.368291
vt 0.768029 0.408822
vt 0.768029 0.424953
vt 0.858100 0.408822
vt 0.858100 0.424953
vt 0.864648 0.408822
vt 0.864648 0.424953
vt 0.377061 0.408822
vt 0.377061 0.424953
vt 0.370512 0.424953
vt 0.370512 0.408822
vt 0.507828 0.408822
vt 0.507828 0.424953
vt 0.514375 0.408822
vt 0.514375 0.424953
vt 0.373016 0.266120
vt 0.520922 0.408822
vt 0.520922 0.424953
vt 0.611071 0.408822
vt 0.611071 0.424953
vt 0.551482 0.697020
vt 0.551596 0.701104
vt 0.545083 0.701104
vt 0.545379 0.697359
vt 0.546347 0.688048
vt 0.550800 0.688199
vt 0.368850 0.697352
vt 0.367884 0.688075
vt 0.369146 0.701104
vt 0.689922 0.692931
vt 0.866093 0.692909
vt 0.865576 0.702984
vt 0.690439 0.702984
vt 0.686215 0.702984
vt 0.686843 0.693011
vt 0.362743 0.697031
vt 0.362632 0.701104
vt 0.869167 0.692976
vt 0.869794 0.702984
vt 0.867609 0.681283
vt 0.688413 0.681397
vt 0.872494 0.692802
vt 0.874231 0.702984
vt 0.922482 0.702984
vt 0.922100 0.691980
vt 0.921043 0.680302
vt 0.306805 0.697153
vt 0.356256 0.697293
vt 0.355905 0.701104
vt 0.306755 0.701104
vt 0.363425 0.688234
vt 0.358665 0.688052
vt 0.307266 0.687335
vt 0.366504 0.678648
vt 0.364487 0.678722
vt 0.362454 0.678680
vt 0.365493 0.669074
vt 0.307989 0.677801
vt 0.308431 0.668617
vt 0.308188 0.659656
vt 0.362444 0.659207
vt 0.307540 0.650389
vt 0.358633 0.649663
vt 0.363227 0.649630
vt 0.364449 0.659253
vt 0.366514 0.659460
vt 0.367902 0.649948
vt 0.368825 0.640545
vt 0.362899 0.640860
vt 0.356202 0.640509
vt 0.362873 0.636774
vt 0.369118 0.636774
vt 0.355837 0.636774
vt 0.865611 0.636774
vt 0.869531 0.636774
vt 0.869370 0.646689
vt 0.866083 0.646943
vt 0.874326 0.636774
vt 0.872575 0.646711
vt 0.921679 0.647629
vt 0.922200 0.636774
vt 0.306987 0.640741
vt 0.306944 0.636774
vt 0.920766 0.658857
vt 0.867602 0.658491
vt 0.920407 0.669444
vt 0.866648 0.669893
vt 0.688416 0.658605
vt 0.689373 0.670050
vt 0.634957 0.680312
vt 0.635607 0.669459
vt 0.635270 0.658869
vt 0.686659 0.646727
vt 0.683460 0.646756
vt 0.634371 0.647634
vt 0.689940 0.646962
vt 0.690413 0.636774
vt 0.686494 0.636774
vt 0.681710 0.636774
vt 0.545412 0.640550
vt 0.545119 0.636774
vt 0.551368 0.636774
vt 0.551341 0.640849
vt 0.558414 0.636774
vt 0.558048 0.640498
vt 0.551014 0.649593
vt 0.546333 0.649922
vt 0.555614 0.649622
vt 0.606716 0.650388
vt 0.607274 0.640741
vt 0.607317 0.636774
vt 0.633857 0.636774
vt 0.606058 0.659652
vt 0.551795 0.659127
vt 0.605798 0.668613
vt 0.548741 0.668950
vt 0.606229 0.677798
vt 0.551774 0.678601
vt 0.606947 0.687334
vt 0.555554 0.688011
vt 0.607407 0.697153
vt 0.557957 0.697282
vt 0.607456 0.701104
vt 0.558308 0.701104
vt 0.633512 0.702984
vt 0.633894 0.691984
vt 0.683509 0.692845
vt 0.681763 0.702984
vt 0.549744 0.678641
vt 0.547731 0.678564
vt 0.549787 0.659173
vt 0.547719 0.659376
vt 0.810575 0.350604
vt 0.810575 0.352560
vt 0.794153 0.352560
vt 0.794153 0.350604
vt 0.826997 0.350604
vt 0.826997 0.352560
vt 0.776967 0.352560
vt 0.776967 0.350604
vt 0.449873 0.335007
vt 0.406376 0.335007
vt 0.412953 0.319130
vt 0.844182 0.350604
vt 0.844182 0.352560
vt 0.443296 0.319130
vt 0.428125 0.312845
vt 0.403466 0.816257
vt 0.403466 0.814401
vt 0.456284 0.814460
vt 0.456391 0.816257
vt 0.457707 0.812827
vt 0.458846 0.813139
vt 0.456301 0.811603
vt 0.456468 0.809784
vt 0.403515 0.810415
vt 0.403557 0.808557
vt 0.646762 0.790515
vt 0.646762 0.792987
vt 0.641029 0.792987
vt 0.641029 0.790515
vt 0.606627 0.790515
vt 0.606627 0.792987
vt 0.600894 0.792987
vt 0.600894 0.790515
vt 0.635295 0.792987
vt 0.635295 0.790515
vt 0.629562 0.792987
vt 0.629562 0.790515
vt 0.623828 0.792987
vt 0.623828 0.790515
vt 0.618095 0.792987
vt 0.618095 0.790515
vt 0.612361 0.792987
vt 0.612361 0.790515
vt 0.321737 0.472023
vt 0.319543 0.477321
vt 0.314246 0.479515
vt 0.308949 0.477321
vt 0.306755 0.472023
vt 0.314246 0.464532
vt 0.308949 0.466726
vt 0.319543 0.466726
vt 0.282798 0.806590
vt 0.282798 0.819450
vt 0.262985 0.819450
vt 0.262985 0.806590
vt 0.224475 0.819450
vt 0.224475 0.806590
vt 0.302611 0.806590
vt 0.302611 0.819450
vt 0.322423 0.806590
vt 0.322423 0.819450
vt 0.342236 0.806590
vt 0.342236 0.819450
vt 0.380746 0.806590
vt 0.380746 0.819450
vt 0.394103 0.806590
vt 0.394103 0.819450
vt 0.211118 0.819450
vt 0.211118 0.806590
vt 0.220701 0.835627
vt 0.231850 0.842981
vt 0.220701 0.856028
vt 0.209551 0.842981
vt 0.236633 0.862628
vt 0.751548 0.353902
vt 0.734303 0.353902
vt 0.734303 0.350604
vt 0.751548 0.350604
vt 0.630833 0.353902
vt 0.613588 0.353902
vt 0.613588 0.350604
vt 0.630833 0.350604
vt 0.204768 0.862628
vt 0.198169 0.878560
vt 0.194814 0.878560
vt 0.648078 0.353902
vt 0.648078 0.350604
vt 0.192646 0.941639
vt 0.199245 0.925707
vt 0.215177 0.964171
vt 0.215177 0.919108
vt 0.237709 0.941639
vt 0.231110 0.957572
vt 0.199245 0.957572
vt 0.682568 0.353902
vt 0.665323 0.353902
vt 0.665323 0.350604
vt 0.682568 0.350604
vt 0.699813 0.353902
vt 0.699813 0.350604
vt 0.717058 0.353902
vt 0.717058 0.350604
vt 0.246587 0.878560
vt 0.239005 0.896865
vt 0.236633 0.894492
vt 0.243232 0.878560
vt 0.220701 0.901092
vt 0.220701 0.904447
vt 0.204768 0.894492
vt 0.202396 0.896865
vt 0.231110 0.925707
vt 0.098121 0.966862
vt 0.098121 0.978208
vt 0.092146 0.978208
vt 0.092146 0.966862
vt 0.104096 0.966862
vt 0.104096 0.978208
vt 0.086171 0.978208
vt 0.086171 0.966862
vt 0.080196 0.978208
vt 0.080196 0.966862
vt 0.074221 0.978208
vt 0.074221 0.966862
vt 0.068246 0.978208
vt 0.068246 0.966862
vt 0.062271 0.978208
vt 0.062271 0.966862
vt 0.110071 0.966862
vt 0.110071 0.978208
vt 0.110071 0.982298
vt 0.104096 0.982298
vt 0.068246 0.982298
vt 0.062271 0.982298
vt 0.110071 0.993208
vt 0.104096 0.993208
vt 0.068246 0.993208
vt 0.062271 0.993208
vt 0.313236 0.502963
vt 0.317818 0.504861
vt 0.319717 0.509444
vt 0.317818 0.514027
vt 0.306755 0.509444
vt 0.308653 0.504861
vt 0.313236 0.515925
vt 0.098121 0.982298
vt 0.098121 0.993208
vt 0.092146 0.982298
vt 0.092146 0.993208
vt 0.086171 0.982298
vt 0.086171 0.993208
vt 0.080196 0.982298
vt 0.080196 0.993208
vt 0.074221 0.982298
vt 0.074221 0.993208
vt 0.308653 0.514027
vt 0.003906 0.211373
vt 0.036559 0.211373
vt 0.036559 0.218533
vt 0.003906 0.218533
vt 0.036559 0.225726
vt 0.003906 0.225726
vt 0.003906 0.232886
vt 0.036559 0.232886
vt 0.036559 0.240073
vt 0.003906 0.240073
vt 0.063787 0.232886
vt 0.063787 0.240073
vt 0.063787 0.225726
vt 0.091218 0.232886
vt 0.091218 0.240073
vt 0.091218 0.225726
vt 0.176631 0.232886
vt 0.176631 0.240073
vt 0.176631 0.225726
vt 0.273216 0.232886
vt 0.273216 0.240073
vt 0.273216 0.225726
vt 0.344756 0.232886
vt 0.344756 0.240073
vt 0.344756 0.225726
vt 0.413894 0.232886
vt 0.413894 0.240073
vt 0.413894 0.225726
vt 0.450622 0.232886
vt 0.450622 0.240073
vt 0.450622 0.225726
vt 0.472935 0.232886
vt 0.472935 0.240073
vt 0.472935 0.225726
vt 0.497669 0.232886
vt 0.497669 0.240073
vt 0.497669 0.225726
vt 0.524010 0.232886
vt 0.524010 0.240073
vt 0.524010 0.225726
vt 0.538637 0.232886
vt 0.538637 0.240073
vt 0.538637 0.225726
vt 0.550287 0.232886
vt 0.550287 0.240073
vt 0.550287 0.225726
vt 0.538637 0.218533
vt 0.550287 0.218533
vt 0.538637 0.211373
vt 0.550287 0.211373
vt 0.524010 0.211373
vt 0.524010 0.218533
vt 0.497669 0.211373
vt 0.497669 0.218533
vt 0.472935 0.211373
vt 0.472935 0.218533
vt 0.450622 0.211373
vt 0.450622 0.218533
vt 0.413894 0.211373
vt 0.413894 0.218533
vt 0.344756 0.211373
vt 0.344756 0.218533
vt 0.273216 0.211373
vt 0.273216 0.218533
vt 0.176631 0.211373
vt 0.176631 0.218533
vt 0.091218 0.211373
vt 0.091218 0.218533
vt 0.063787 0.211373
vt 0.063787 0.218533
vt 0.952670 0.211371
vt 0.952286 0.216727
vt 0.947630 0.218655
vt 0.944114 0.214597
vt 0.961000 0.215140
vt 0.956941 0.218655
vt 0.945701 0.223311
vt 0.940346 0.222927
vt 0.947630 0.227967
vt 0.943571 0.231482
vt 0.952286 0.229895
vt 0.951902 0.235251
vt 0.956941 0.227967
vt 0.960457 0.232025
vt 0.958870 0.223311
vt 0.964225 0.223695
vt 0.960197 0.341689
vt 0.960197 0.344678
vt 0.950714 0.344678
vt 0.950714 0.341689
vt 0.960197 0.350656
vt 0.960197 0.353645
vt 0.950714 0.353645
vt 0.950714 0.350656
vt 0.960197 0.347667
vt 0.950714 0.347667
vt 0.941859 0.347667
vt 0.941859 0.344678
vt 0.941859 0.350656
vt 0.940346 0.347667
vt 0.940346 0.344678
vt 0.940346 0.350656
vt 0.994525 0.006282
vt 0.992149 0.006282
vt 0.992149 0.003906
vt 0.994525 0.003906
vt 0.940346 0.353645
vt 0.941859 0.353645
vt 0.940346 0.341689
vt 0.941859 0.341689
vt 0.952670 0.258781
vt 0.952286 0.264136
vt 0.947630 0.266065
vt 0.944114 0.262006
vt 0.961000 0.262549
vt 0.956941 0.266065
vt 0.945701 0.270721
vt 0.940346 0.270337
vt 0.947630 0.275376
vt 0.943571 0.278892
vt 0.952286 0.277305
vt 0.951902 0.282660
vt 0.956941 0.275376
vt 0.960457 0.279435
vt 0.958870 0.270721
vt 0.964225 0.271105
vt 0.960197 0.306192
vt 0.960197 0.309181
vt 0.950714 0.309181
vt 0.950714 0.306192
vt 0.960197 0.315159
vt 0.960197 0.318148
vt 0.950714 0.318148
vt 0.950714 0.315159
vt 0.960197 0.312170
vt 0.950714 0.312170
vt 0.941859 0.312170
vt 0.941859 0.309181
vt 0.941859 0.315159
vt 0.940346 0.312170
vt 0.940346 0.309181
vt 0.940346 0.315159
vt 0.994525 0.032200
vt 0.992149 0.032200
vt 0.992149 0.029824
vt 0.994525 0.029824
vt 0.940346 0.318148
vt 0.941859 0.318148
vt 0.940346 0.306192
vt 0.941859 0.306192
vt 0.796623 0.726525
vt 0.796623 0.772746
vt 0.777238 0.772746
vt 0.777238 0.726525
vt 0.816009 0.726525
vt 0.816009 0.772746
vt 0.239286 0.724645
vt 0.260007 0.724645
vt 0.259762 0.730574
vt 0.237365 0.730428
vt 0.281982 0.724645
vt 0.281901 0.730588
vt 0.259704 0.777001
vt 0.237250 0.777054
vt 0.281841 0.777085
vt 0.304069 0.724645
vt 0.304004 0.730591
vt 0.303954 0.777101
vt 0.303892 0.783049
vt 0.281795 0.783049
vt 0.259828 0.783049
vt 0.757852 0.772746
vt 0.757852 0.726525
vt 0.738467 0.772746
vt 0.738467 0.726525
vt 0.325994 0.783049
vt 0.326059 0.777104
vt 0.719082 0.772746
vt 0.719082 0.726525
vt 0.348072 0.783049
vt 0.348170 0.777098
vt 0.326111 0.730598
vt 0.348227 0.730643
vt 0.326168 0.724645
vt 0.348230 0.724645
vt 0.369851 0.724645
vt 0.370421 0.730823
vt 0.370395 0.776993
vt 0.699696 0.772746
vt 0.699696 0.726525
vt 0.639686 0.772746
vt 0.639686 0.726525
vt 0.430438 0.724645
vt 0.430443 0.730823
vt 0.633512 0.772746
vt 0.633512 0.726525
vt 0.369793 0.783049
vt 0.430390 0.776842
vt 0.430398 0.783049
vt 0.239206 0.783049
vt 0.231158 0.730418
vt 0.231043 0.777034
vt 0.064556 0.720741
vt 0.063954 0.726797
vt 0.003959 0.726948
vt 0.003951 0.720741
vt 0.180229 0.802687
vt 0.186402 0.802687
vt 0.186402 0.848908
vt 0.180229 0.848908
vt 0.063928 0.772967
vt 0.064498 0.779146
vt 0.003912 0.779146
vt 0.003906 0.772968
vt 0.086119 0.779146
vt 0.086122 0.773148
vt 0.086180 0.726692
vt 0.108181 0.779146
vt 0.108239 0.773192
vt 0.108290 0.726687
vt 0.081448 0.848908
vt 0.081448 0.802687
vt 0.100833 0.802687
vt 0.100833 0.848908
vt 0.120219 0.802687
vt 0.120219 0.848908
vt 0.062062 0.848908
vt 0.062062 0.802687
vt 0.130280 0.779146
vt 0.130345 0.773199
vt 0.042677 0.848908
vt 0.042677 0.802687
vt 0.152367 0.779146
vt 0.152448 0.773203
vt 0.130396 0.726689
vt 0.152508 0.726706
vt 0.174342 0.779146
vt 0.174587 0.773217
vt 0.174646 0.726790
vt 0.152554 0.720741
vt 0.174522 0.720741
vt 0.130457 0.720741
vt 0.023292 0.848908
vt 0.023292 0.802687
vt 0.003906 0.848908
vt 0.003906 0.802687
vt 0.195143 0.720741
vt 0.197100 0.726737
vt 0.195063 0.779146
vt 0.196984 0.773363
vt 0.203192 0.773373
vt 0.203307 0.726757
vt 0.108356 0.720741
vt 0.086278 0.720741
vt 0.771278 0.320385
vt 0.791488 0.320385
vt 0.791488 0.327063
vt 0.771278 0.327063
vt 0.913091 0.444830
vt 0.918321 0.464351
vt 0.914317 0.466663
vt 0.908467 0.444830
vt 0.918321 0.425309
vt 0.914317 0.422997
vt 0.811697 0.320385
vt 0.811697 0.327063
vt 0.131059 0.871331
vt 0.150580 0.876562
vt 0.164870 0.890852
vt 0.097249 0.890852
vt 0.111539 0.876562
vt 0.131059 0.949414
vt 0.111539 0.944184
vt 0.097249 0.929893
vt 0.670231 0.320385
vt 0.690441 0.320385
vt 0.690441 0.327063
vt 0.670231 0.327063
vt 0.650022 0.320385
vt 0.650022 0.327063
vt 0.150580 0.944184
vt 0.629813 0.320385
vt 0.629813 0.327063
vt 0.164870 0.929893
vt 0.609603 0.320385
vt 0.609603 0.327063
vt 0.170101 0.910373
vt 0.831906 0.320385
vt 0.852116 0.320385
vt 0.852116 0.327063
vt 0.831906 0.327063
vt 0.971653 0.411019
vt 0.952132 0.405788
vt 0.952132 0.401164
vt 0.973965 0.407014
vt 0.932612 0.411019
vt 0.930300 0.407014
vt 0.858236 0.244592
vt 0.880839 0.244592
vt 0.880839 0.296844
vt 0.858236 0.296844
vt 0.835633 0.244592
vt 0.835633 0.296844
vt 0.813030 0.244592
vt 0.813030 0.296844
vt 0.969658 0.555679
vt 0.964641 0.536954
vt 0.970024 0.533846
vt 0.975874 0.555679
vt 0.950933 0.523246
vt 0.954041 0.517863
vt 0.281132 0.503346
vt 0.003906 0.503346
vt 0.003906 0.483961
vt 0.281132 0.483961
vt 0.281132 0.522732
vt 0.003906 0.522732
vt 0.009691 0.911478
vt 0.014145 0.928104
vt 0.009150 0.931020
vt 0.003906 0.911506
vt 0.014146 0.894851
vt 0.009122 0.891984
vt 0.026317 0.882680
vt 0.023400 0.877685
vt 0.281132 0.542117
vt 0.003906 0.542117
vt 0.042943 0.878225
vt 0.042915 0.872441
vt 0.281132 0.561503
vt 0.003906 0.561503
vt 0.950933 0.588111
vt 0.964641 0.574404
vt 0.970024 0.577512
vt 0.954041 0.593494
vt 0.767824 0.244592
vt 0.790427 0.244592
vt 0.790427 0.296844
vt 0.767824 0.296844
vt 0.932612 0.478641
vt 0.930300 0.482645
vt 0.952132 0.483871
vt 0.952132 0.488495
vt 0.745221 0.244592
vt 0.745221 0.296844
vt 0.722618 0.244592
vt 0.722618 0.296844
vt 0.971653 0.478641
vt 0.973965 0.482645
vt 0.730859 0.320385
vt 0.751069 0.320385
vt 0.751069 0.327063
vt 0.730859 0.327063
vt 0.710650 0.320385
vt 0.710650 0.327063
vt 0.092018 0.910373
vt 0.985943 0.464351
vt 0.989948 0.466663
vt 0.991174 0.444830
vt 0.995798 0.444830
vt 0.700015 0.244592
vt 0.700015 0.296844
vt 0.677412 0.244592
vt 0.677412 0.296844
vt 0.654809 0.244592
vt 0.654809 0.296844
vt 0.985943 0.425309
vt 0.989948 0.422997
vt 0.894759 0.555679
vt 0.899776 0.574404
vt 0.894393 0.577512
vt 0.888543 0.555679
vt 0.899776 0.536954
vt 0.894393 0.533846
vt 0.913483 0.523246
vt 0.910375 0.517863
vt 0.632206 0.244592
vt 0.632206 0.296844
vt 0.932208 0.518229
vt 0.932208 0.512013
vt 0.609603 0.244592
vt 0.609603 0.296844
vt 0.281132 0.697200
vt 0.003906 0.697200
vt 0.003906 0.677815
vt 0.281132 0.677815
vt 0.003906 0.464576
vt 0.281132 0.464576
vt 0.026317 0.940275
vt 0.042943 0.944730
vt 0.042971 0.950514
vt 0.023449 0.945298
vt 0.059569 0.940275
vt 0.071740 0.894851
vt 0.062486 0.945270
vt 0.059569 0.882680
vt 0.062437 0.877657
vt 0.076736 0.891935
vt 0.281132 0.580888
vt 0.003906 0.580888
vt 0.281132 0.600273
vt 0.003906 0.600273
vt 0.932208 0.593129
vt 0.932208 0.599344
vt 0.913483 0.588111
vt 0.910375 0.593494
vt 0.281132 0.619659
vt 0.003906 0.619659
vt 0.281132 0.639044
vt 0.003906 0.639044
vt 0.076195 0.911478
vt 0.081980 0.911449
vt 0.071740 0.928104
vt 0.076764 0.930971
vt 0.281132 0.658429
vt 0.003906 0.658429
vt 0.510374 0.761545
vt 0.510437 0.750937
vt 0.513906 0.747437
vt 0.513905 0.764991
vt 0.499769 0.761442
vt 0.496352 0.764991
vt 0.510459 0.768523
vt 0.499852 0.768459
vt 0.517455 0.750855
vt 0.517352 0.761460
vt 0.510356 0.779128
vt 0.513905 0.782545
vt 0.517437 0.768438
vt 0.517374 0.779045
vt 0.528042 0.768541
vt 0.531459 0.764991
vt 0.527959 0.761523
vt 0.528164 0.750818
vt 0.531633 0.747264
vt 0.534897 0.732974
vt 0.535109 0.743727
vt 0.531049 0.729998
vt 0.528002 0.743914
vt 0.527710 0.733508
vt 0.517337 0.743896
vt 0.535073 0.750805
vt 0.534917 0.761475
vt 0.545894 0.744054
vt 0.548877 0.747832
vt 0.545454 0.751259
vt 0.545528 0.761597
vt 0.549096 0.764987
vt 0.545389 0.778796
vt 0.545620 0.768469
vt 0.548899 0.782135
vt 0.552867 0.768345
vt 0.552694 0.779036
vt 0.555634 0.764957
vt 0.557150 0.768127
vt 0.552790 0.761617
vt 0.557096 0.761771
vt 0.552749 0.750929
vt 0.535001 0.768423
vt 0.534983 0.779088
vt 0.531633 0.782718
vt 0.528092 0.786159
vt 0.517422 0.786003
vt 0.527638 0.796540
vt 0.531065 0.799963
vt 0.535170 0.786195
vt 0.534842 0.796980
vt 0.528079 0.779250
vt 0.545923 0.785983
vt 0.549769 0.787920
vt 0.547804 0.793914
vt 0.553599 0.785289
vt 0.553599 0.785290
vt 0.552321 0.782206
vt 0.555149 0.779366
vt 0.542800 0.798789
vt 0.536838 0.800795
vt 0.534249 0.804644
vt 0.531153 0.803400
vt 0.528330 0.806275
vt 0.534249 0.804644
vt 0.527968 0.803835
vt 0.517280 0.803876
vt 0.513910 0.800182
vt 0.517126 0.808182
vt 0.513940 0.806720
vt 0.510770 0.808236
vt 0.510552 0.803953
vt 0.499861 0.803780
vt 0.496762 0.799985
vt 0.499531 0.806235
vt 0.496691 0.803407
vt 0.493608 0.804685
vt 0.500101 0.796475
vt 0.510428 0.796706
vt 0.499809 0.786069
vt 0.496179 0.782719
vt 0.492914 0.797009
vt 0.492702 0.786256
vt 0.490977 0.800855
vt 0.484983 0.798890
vt 0.493608 0.804685
vt 0.481917 0.785928
vt 0.478934 0.782151
vt 0.480108 0.793886
vt 0.478101 0.787924
vt 0.482357 0.778724
vt 0.492738 0.779178
vt 0.482283 0.768386
vt 0.478715 0.764996
vt 0.475062 0.779054
vt 0.475021 0.768366
vt 0.474253 0.785335
vt 0.475497 0.782240
vt 0.472622 0.779416
vt 0.474253 0.785335
vt 0.470715 0.768212
vt 0.472176 0.765026
vt 0.470661 0.761856
vt 0.474944 0.761638
vt 0.475117 0.750947
vt 0.478912 0.747848
vt 0.472662 0.750617
vt 0.475490 0.747777
vt 0.474212 0.744693
vt 0.482422 0.751187
vt 0.482191 0.761514
vt 0.492828 0.750895
vt 0.496178 0.747264
vt 0.481888 0.744000
vt 0.492641 0.743788
vt 0.478042 0.742062
vt 0.480007 0.736069
vt 0.474211 0.744693
vt 0.492810 0.761560
vt 0.492968 0.733003
vt 0.496746 0.730020
vt 0.485011 0.731194
vt 0.490973 0.729187
vt 0.500173 0.733443
vt 0.499719 0.743824
vt 0.510511 0.733369
vt 0.513901 0.729801
vt 0.499843 0.726148
vt 0.510531 0.726107
vt 0.496658 0.726583
vt 0.499481 0.723708
vt 0.493562 0.725339
vt 0.493562 0.725339
vt 0.510685 0.721801
vt 0.513871 0.723263
vt 0.517041 0.721747
vt 0.517259 0.726030
vt 0.527950 0.726203
vt 0.528280 0.723748
vt 0.531120 0.726576
vt 0.534203 0.725298
vt 0.536834 0.729128
vt 0.534203 0.725298
vt 0.542828 0.731093
vt 0.510389 0.743980
vt 0.517383 0.733277
vt 0.499732 0.750733
vt 0.492894 0.768508
vt 0.510474 0.786087
vt 0.499647 0.779165
vt 0.517300 0.796614
vt 0.552314 0.747744
vt 0.555189 0.750567
vt 0.553558 0.744648
vt 0.553558 0.744648
vt 0.549709 0.742059
vt 0.547703 0.736097
s 0
usemtl geiger_counter
f 1/1/1 2/2/1 4/3/1 3/4/1
s 1
f 7/5/2 19/6/2 20/7/3 6/8/3
f 11/9/4 21/10/4 22/11/5 10/12/5
f 9/13/6 23/14/6 21/15/4 11/16/4
f 12/17/7 15/18/7 24/19/8 14/20/8
f 14/20/8 24/19/8 25/21/9 13/22/9
f 18/23/10 26/24/10 27/25/11 17/26/11
f 16/27/12 28/28/12 26/24/10 18/23/10
f 12/29/13 13/30/13 17/31/13
f 32/32/14 30/33/15 54/34/16 56/35/17
f 10/12/5 22/11/5 8/36/18 5/37/18
f 17/26/11 27/25/11 23/14/6 9/13/6
f 19/38/13 8/39/13 37/40/13 38/41/13
f 26/42/13 28/43/13 48/44/13 46/45/13
f 27/46/13 26/42/13 46/45/13 47/47/13
f 25/48/13 24/49/13 44/50/13 45/51/13
f 24/49/13 15/52/13 43/53/13 44/50/13
f 28/43/13 25/48/13 45/51/13 48/44/13
f 13/22/9 25/21/9 28/28/12 16/27/12
f 20/54/13 19/38/13 38/41/13 39/55/13
f 8/39/13 22/56/13 41/57/13 37/40/13
f 22/56/13 21/58/13 40/59/13 41/57/13
f 23/60/13 27/46/13 47/47/13 42/61/13
f 21/58/13 23/60/13 42/61/13 40/59/13
f 59/62/19 33/63/20 61/64/21 60/65/22
f 50/66/23 52/67/24 53/68/25 51/69/26
f 36/70/27 34/71/28 62/72/29 64/73/30
f 58/74/31 59/62/19 60/65/22 57/75/32
f 31/76/33 29/77/34 49/78/35 55/79/36
f 34/71/28 35/80/37 63/81/38 62/72/29
f 15/52/13 20/54/13 39/55/13 43/53/13
f 35/80/37 32/32/14 56/35/17 63/81/38
f 33/63/20 36/70/27 64/73/30 61/64/21
f 35/80/37 33/63/20 58/74/31
f 38/82/2 37/83/39 49/84/35 51/85/26
f 37/83/39 41/86/40 55/87/36 49/84/35
f 39/88/41 38/82/2 51/85/26 53/89/25
f 29/77/34 50/66/23 51/69/26 49/78/35
f 52/67/24 58/74/31 57/75/32 53/68/25
f 41/86/40 40/90/4 54/91/16 55/87/36
f 40/92/4 42/93/42 56/94/17 54/95/16
f 42/93/42 47/96/43 63/97/38 56/94/17
f 30/33/15 31/76/33 55/79/36 54/34/16
f 44/98/8 43/99/44 57/100/32 60/101/22
f 45/102/45 44/98/8 60/101/22 61/103/21
f 48/104/46 45/102/45 61/103/21 64/105/30
f 47/96/43 46/106/10 62/107/29 63/97/38
f 46/106/10 48/104/46 64/105/30 62/107/29
f 43/99/44 39/88/41 53/89/25 57/100/32
f 5/37/18 8/36/18 19/6/2 7/5/2
f 6/8/3 20/7/3 15/18/7 12/17/7
f 10/108/13 5/109/13 6/110/13
f 5/109/13 7/111/13 6/110/13
f 6/110/13 12/29/13 9/112/13
f 10/108/13 6/110/13 9/112/13
f 12/29/13 14/113/13 13/30/13
f 13/30/13 16/114/13 17/31/13
f 16/114/13 18/115/13 17/31/13
f 17/31/13 9/112/13 12/29/13
f 9/112/13 11/116/13 10/108/13
f 59/62/19 58/74/31 33/63/20
f 58/74/31 52/67/24 35/80/37
f 52/67/24 50/66/23 29/77/34
f 29/77/34 31/76/33 32/32/14
f 31/76/33 30/33/15 32/32/14
f 32/32/14 35/80/37 52/67/24
f 29/77/34 32/32/14 52/67/24
f 35/80/37 34/71/28 36/70/27
f 36/70/27 33/63/20 35/80/37
f 67/117/47 80/118/48 66/119/48 65/120/47
f 69/121/49 67/117/47 65/120/47 68/122/49
f 71/123/50 69/121/49 68/122/49 70/124/50
f 73/125/51 71/123/50 70/124/50 72/126/51
f 75/127/52 73/125/51 72/126/51 74/128/52
f 77/129/53 75/127/52 74/128/52 76/130/53
f 79/131/54 77/129/53 76/130/53 78/132/54
f 80/118/48 79/131/54 78/132/54 66/119/48
f 77/129/55 79/131/55 80/118/55
f 80/118/55 67/117/55 69/121/55
f 80/118/55 69/121/55 73/125/55
f 77/129/55 80/118/55 73/125/55
f 73/125/55 75/127/55 77/129/55
f 69/121/55 71/123/55 73/125/55
f 81/133/1 86/134/1 107/135/1 82/136/1
f 81/133/1 82/136/1 83/137/1
f 81/133/1 83/137/1 84/138/1
f 85/139/1 81/133/1 84/138/1 100/140/1
s 0
f 81/141/55 85/142/55 89/143/55 87/144/55
f 86/145/56 81/146/56 87/144/56 88/147/56
f 89/143/1 90/148/1 88/147/1 87/144/1
f 85/149/57 91/150/57 90/148/57 89/143/57
f 91/151/58 86/152/58 88/147/58 90/148/58
s 1
f 91/153/1 85/139/1 96/154/1 94/155/1
f 91/153/1 94/155/1 92/156/1
f 91/153/1 92/156/1 93/157/1
f 86/134/1 91/153/1 93/157/1 109/158/1
f 112/159/59 92/160/59 94/161/60 95/162/60
f 96/163/61 97/164/61 95/162/60 94/161/60
f 97/164/61 96/163/61 98/165/62 99/166/62
f 85/139/1 98/167/1 96/154/1
f 99/166/62 98/165/62 100/168/11 101/169/11
f 85/139/1 100/140/1 98/167/1
f 84/170/6 102/171/6 101/169/11 100/168/11
f 83/172/63 103/173/63 102/171/6 84/170/6
f 82/174/64 104/175/64 103/176/63 83/177/63
f 107/178/65 105/179/65 104/175/64 82/174/64
f 108/180/66 106/181/66 105/179/65 107/178/65
f 86/134/1 108/182/1 107/135/1
f 109/183/3 110/184/3 106/181/66 108/180/66
f 86/134/1 109/158/1 108/182/1
f 93/185/7 111/186/7 110/184/3 109/183/3
f 111/186/7 93/185/7 92/160/59 112/159/59
f 114/187/67 119/188/67 117/189/68 113/190/69
f 115/191/70 202/192/71 114/187/72 113/190/73
f 113/190/74 116/193/74 134/194/75 115/191/75
f 120/195/76 116/193/77 113/190/69 117/189/68
f 118/196/78 122/197/79 120/198/80 117/199/81
f 118/196/78 117/199/81 119/200/82 200/201/83
f 132/202/84 116/193/77 120/195/76 121/203/84
f 122/197/79 124/204/85 121/205/86 120/198/80
f 123/206/87 124/204/85 122/197/79
f 167/207/88 123/206/87 122/197/79 118/196/78
f 123/206/87 125/208/89 124/204/85
f 124/204/85 125/208/89 127/209/90 121/205/86
f 128/210/91 127/209/90 125/208/89 126/211/92
f 126/211/92 125/208/89 123/206/87 165/212/93
f 131/213/94 129/214/95 127/215/96 128/216/94
f 129/214/95 132/202/84 121/203/84 127/215/96
f 133/217/97 132/202/98 129/214/99 130/218/100
f 131/213/101 140/219/102 130/218/103 129/214/101
f 134/194/104 116/193/105 132/202/98 133/217/97
f 136/220/106 134/194/104 133/217/97 135/221/107
f 135/221/107 133/217/97 130/218/100 138/222/108
f 137/223/109 136/220/106 135/221/107
f 137/223/109 135/221/107 138/222/108
f 139/224/110 141/225/111 137/223/111 138/222/112
f 140/219/102 139/224/110 138/222/112 130/218/103
f 141/225/111 142/226/113 144/227/114 137/223/111
f 142/226/113 143/228/115 145/229/116 144/227/114
f 148/230/117 146/231/118 144/227/119 145/229/120
f 146/231/118 137/223/121 144/227/119
f 147/232/122 137/223/121 146/231/118
f 149/233/123 147/232/122 146/231/118 148/230/117
f 151/234/124 149/233/123 148/230/117 150/235/125
f 150/235/125 148/230/117 145/229/120 152/236/126
f 151/234/127 150/235/128 153/237/129 154/238/130
f 150/235/128 152/236/131 156/239/132 153/237/129
f 154/240/130 153/241/129 155/242/133 208/243/134
f 153/241/129 156/244/132 157/245/135 155/242/133
f 159/246/136 157/245/135 156/244/132 158/247/137
f 152/236/131 160/248/138 158/249/137 156/239/132
f 143/228/115 160/248/139 152/236/139 145/229/116
f 161/250/140 162/251/141 157/245/135 159/246/136
f 163/252/142 164/253/143 162/251/141 161/250/140
f 165/212/93 123/206/87 164/253/143 163/252/142
f 169/254/144 162/251/141 164/253/143 166/255/145
f 166/255/145 164/253/143 123/206/87 167/207/88
f 201/256/146 168/257/147 166/255/145 167/207/88
f 168/257/147 171/258/148 169/254/144 166/255/145
f 173/259/149 169/254/144 170/260/150
f 171/258/148 185/261/151 170/260/150 169/254/144
f 172/262/152 208/243/134 162/251/141 169/254/144
f 172/262/152 169/254/144 173/259/149
f 175/263/153 172/262/152 173/259/149 174/264/154
f 174/264/154 173/259/149 170/260/150 176/265/155
f 178/266/156 175/267/153 174/268/154 177/269/157
f 177/269/157 174/268/154 176/270/155 180/271/158
f 178/266/159 177/269/160 179/272/161 207/273/162
f 177/269/160 180/271/163 181/274/164 179/272/161
f 183/275/165 181/274/166 180/271/167 182/276/167
f 180/271/158 176/270/155 184/277/168 182/276/169
f 185/261/151 184/278/168 176/265/155 170/260/150
f 186/279/170 187/280/171 181/274/166 183/275/165
f 188/281/172 189/282/172 187/280/171 186/279/170
f 190/283/173 191/284/174 189/282/172 188/281/172
f 192/285/175 193/286/176 191/284/174 190/283/173
f 194/287/177 195/288/177 193/286/176 192/285/175
f 194/287/178 196/289/178 198/290/179 195/288/180
f 196/291/181 197/292/182 199/293/183 198/294/184
f 200/201/83 119/200/82 198/294/184 199/293/183
f 195/288/180 198/290/179 119/188/67 114/187/67
f 167/207/88 200/201/83 199/293/183
f 197/292/182 201/256/146 167/207/88 199/293/183
f 167/207/88 118/196/78 200/201/83
f 202/192/71 193/286/185 195/288/186 114/187/72
f 203/295/187 191/284/188 193/286/185 202/192/71
f 204/296/189 203/295/187 202/192/71 115/191/70
f 189/282/190 191/284/188 203/295/187
f 189/282/190 203/295/187 204/296/189
f 204/296/191 136/220/191 137/223/1 189/282/1
f 115/191/75 134/194/75 136/220/191 204/296/191
f 205/297/192 187/280/193 189/282/194
f 206/298/195 205/297/192 189/282/194
f 189/282/1 137/223/1 147/232/196 206/298/196
f 207/273/162 179/272/161 205/297/192 206/298/195
f 206/298/196 147/232/196 149/233/197 207/273/197
f 207/273/197 149/233/197 151/234/198 178/266/198
f 179/272/161 181/274/164 187/280/193 205/297/192
f 154/238/130 175/267/153 178/266/156 151/234/127
f 175/263/153 154/240/130 208/243/134 172/262/152
f 208/243/134 155/242/133 162/251/141
f 155/242/133 157/245/135 162/251/141
f 209/299/172 210/300/172 213/301/10 212/302/10
f 211/303/8 218/304/8 210/300/172 209/299/172
f 212/302/10 213/301/10 215/305/199 214/306/199
f 216/307/1 215/308/1 213/309/1
f 217/310/200 216/311/200 218/304/8 211/303/8
f 218/312/1 216/307/1 213/309/1
f 213/309/1 210/313/1 218/312/1
f 219/314/201 220/315/201 223/316/202 221/317/202
f 224/318/172 222/319/172 221/317/202 223/316/202
f 225/320/1 224/318/1 223/316/1
f 220/315/1 225/320/1 223/316/1
f 226/321/203 225/320/203 227/322/204 228/323/204
f 225/320/203 226/321/203 222/319/172 224/318/172
f 227/322/1 225/320/1 220/315/1
f 229/324/172 230/325/172 233/326/10 232/327/10
f 231/328/8 244/329/8 230/330/172 229/331/172
f 232/327/10 233/326/10 235/332/58 234/333/58
f 234/333/58 235/332/58 237/334/4 236/335/4
f 236/335/4 237/334/4 239/336/111 238/337/111
f 238/337/111 239/336/111 241/338/2 240/339/2
f 240/339/2 241/338/2 243/340/55 242/341/55
f 242/341/55 243/340/55 244/329/8 231/328/8
f 230/342/1 244/343/1 243/344/1
f 243/344/1 241/345/1 239/346/1
f 243/344/1 239/346/1 235/347/1
f 230/342/1 243/344/1 235/347/1
f 239/346/1 237/348/1 235/347/1
f 235/347/1 233/349/1 230/342/1
f 248/350/2 249/351/2 246/352/55 245/353/55
f 245/353/55 246/352/55 260/354/205 247/355/205
f 250/356/111 251/357/111 249/351/2 248/350/2
f 252/358/4 253/359/4 251/357/111 250/356/111
f 254/360/58 255/361/58 253/359/4 252/358/4
f 254/360/58 256/362/206 257/363/206 255/361/58
f 258/364/207 259/365/207 257/363/206 256/362/206
f 247/355/205 260/354/205 259/366/208 258/367/208
f 259/368/1 260/369/1 261/370/1
f 257/371/1 259/368/1 261/370/1
f 262/372/1 261/370/1 260/369/1
f 261/373/172 262/374/8 276/375/8 263/376/172
f 264/377/10 261/378/172 263/379/172 266/380/10
f 264/381/1 257/371/1 261/370/1
f 264/381/1 265/382/1 255/383/1 257/371/1
f 265/384/58 264/377/10 266/380/10 267/385/58
f 267/386/1 266/387/1 268/388/1
f 266/387/1 263/389/1 268/388/1
f 269/390/1 272/391/1 268/388/1
f 263/389/1 269/390/1 268/388/1
f 268/388/1 270/392/1 267/386/1
f 271/393/111 275/394/4 270/395/4 268/396/111
f 273/397/2 271/393/111 268/396/111 272/398/2
f 274/399/55 273/397/2 272/398/2 269/400/55
f 246/401/1 249/402/1 273/403/1 274/404/1
f 271/405/1 273/403/1 249/402/1 251/406/1
f 274/404/1 262/372/1 260/369/1 246/401/1
f 262/374/8 274/399/55 269/400/55 276/375/8
f 275/407/1 271/405/1 251/406/1 253/408/1
f 275/394/4 265/384/58 267/385/58 270/395/4
f 265/382/1 275/407/1 253/408/1 255/383/1
f 263/389/1 276/409/1 269/390/1
f 277/410/58 278/411/58 281/412/4 280/413/4
f 279/414/10 292/415/10 278/411/58 277/410/58
f 280/413/4 281/412/4 283/416/111 282/417/111
f 282/417/111 283/416/111 285/418/2 284/419/2
f 284/419/2 285/418/2 287/420/55 286/421/55
f 286/421/55 287/420/55 289/422/8 288/423/8
f 288/423/8 289/422/8 291/424/172 290/425/172
f 290/426/172 291/427/172 292/415/10 279/414/10
f 293/428/209 294/429/210 292/415/210 291/427/209
f 295/430/211 293/431/209 291/424/209 289/422/211
f 294/429/10 293/428/172 296/432/172 297/433/10
f 293/431/172 295/430/8 298/434/8 296/435/172
f 299/436/1 297/437/1 296/438/1
f 296/438/1 298/439/1 299/436/1
f 300/440/1 303/441/1 299/436/1
f 301/442/1 300/440/1 299/436/1
f 298/439/1 301/442/1 299/436/1
f 302/443/58 294/429/10 297/433/10 299/444/58
f 304/445/4 302/443/58 299/444/58 303/446/4
f 305/447/111 304/445/4 303/446/4 300/448/111
f 304/445/212 305/447/213 283/416/213 281/412/212
f 302/443/214 304/445/212 281/412/212 278/411/214
f 306/449/2 305/447/111 300/448/111 308/450/2
f 305/447/213 306/449/215 285/418/215 283/416/213
f 307/451/55 306/449/2 308/450/2 301/452/55
f 306/449/215 307/451/216 287/420/216 285/418/215
f 301/442/1 308/453/1 300/440/1
f 295/430/8 307/451/55 301/452/55 298/434/8
f 307/451/216 295/430/211 289/422/211 287/420/216
f 294/429/210 302/443/214 278/411/214 292/415/210
f 312/454/217 313/455/218 310/456/219 309/457/220
f 309/457/220 310/456/219 316/458/221 311/459/222
f 314/460/223 315/461/224 313/462/218 312/463/217
f 311/459/222 316/458/221 315/461/224 314/460/223
f 315/461/224 317/464/225 318/465/226 313/462/218
f 316/458/221 319/466/227 317/464/225 315/461/224
f 317/464/225 320/467/228 321/468/229 318/465/226
f 319/466/227 322/469/230 320/467/228 317/464/225
f 320/467/228 323/470/231 324/471/232 321/468/229
f 322/469/230 325/472/233 323/470/231 320/467/228
f 323/470/231 326/473/234 327/474/235 324/471/232
f 325/472/233 328/475/236 326/473/234 323/470/231
f 326/473/234 329/476/237 330/477/238 327/474/235
f 328/475/236 331/478/239 329/476/237 326/473/234
f 329/476/237 332/479/240 333/480/241 330/477/238
f 331/478/239 334/481/242 332/479/240 329/476/237
f 332/479/240 335/482/243 336/483/244 333/480/241
f 334/481/242 337/484/245 335/482/243 332/479/240
f 335/482/243 338/485/246 339/486/247 336/483/244
f 337/484/245 340/487/248 338/485/246 335/482/243
f 338/485/246 341/488/249 342/489/250 339/486/247
f 340/487/248 343/490/251 341/488/249 338/485/246
f 341/488/249 344/491/252 345/492/253 342/489/250
f 343/490/251 346/493/254 344/491/252 341/488/249
f 344/491/252 347/494/255 348/495/256 345/492/253
f 346/493/254 349/496/257 347/494/255 344/491/252
f 347/494/255 350/497/258 351/498/259 348/495/256
f 349/496/257 352/499/260 350/497/258 347/494/255
f 354/500/261 353/501/262 352/499/260 349/496/257
f 348/502/256 351/503/259 353/501/262 354/500/261
f 345/504/253 348/502/256 354/500/261 355/505/263
f 355/505/263 354/500/261 349/496/257 346/493/254
f 342/506/250 345/504/253 355/505/263 356/507/264
f 356/507/264 355/505/263 346/493/254 343/490/251
f 339/508/247 342/506/250 356/507/264 357/509/265
f 357/509/265 356/507/264 343/490/251 340/487/248
f 336/510/244 339/508/247 357/509/265 358/511/266
f 358/511/266 357/509/265 340/487/248 337/484/245
f 333/512/241 336/510/244 358/511/266 359/513/267
f 359/513/267 358/511/266 337/484/245 334/481/242
f 330/514/238 333/512/241 359/513/267 360/515/268
f 360/515/268 359/513/267 334/481/242 331/478/239
f 327/516/235 330/514/238 360/515/268 361/517/269
f 361/517/269 360/515/268 331/478/239 328/475/236
f 324/518/232 327/516/235 361/517/269 362/519/270
f 362/519/270 361/517/269 328/475/236 325/472/233
f 321/520/229 324/518/232 362/519/270 363/521/271
f 363/521/271 362/519/270 325/472/233 322/469/230
f 318/522/226 321/520/229 363/521/271 364/523/272
f 364/523/272 363/521/271 322/469/230 319/466/227
f 313/455/218 318/522/226 364/523/272 310/456/219
f 310/456/219 364/523/272 319/466/227 316/458/221
f 365/524/273 366/525/273 369/526/274 368/527/274
f 367/528/275 380/529/275 366/525/273 365/524/273
f 368/527/274 369/526/274 371/530/276 370/531/276
f 370/531/276 371/530/276 373/532/277 372/533/277
f 372/533/277 373/532/277 375/534/278 374/535/278
f 374/535/278 375/534/278 377/536/279 376/537/279
f 376/537/279 377/536/279 379/538/280 378/539/280
f 378/539/280 379/538/280 380/529/275 367/528/275
f 380/529/1 379/538/1 375/534/1
f 379/538/1 377/536/1 375/534/1
f 366/525/1 380/529/1 375/534/1
f 375/534/1 373/532/1 371/530/1
f 375/534/1 371/530/1 366/525/1
f 371/530/1 369/526/1 366/525/1
f 381/540/172 382/541/55 388/542/281 383/543/282
f 384/544/58 381/545/172 383/546/282 385/547/283
f 386/548/111 384/544/58 385/547/283 387/549/284
f 382/541/55 386/548/111 387/549/284 388/542/281
f 388/542/281 387/549/284 389/550/285 390/551/286
f 387/549/284 385/547/283 391/552/287 389/550/285
f 392/553/288 393/554/289 390/551/286 389/550/285
f 394/555/290 392/553/288 389/550/285 391/552/287
f 395/556/291 393/557/289 392/558/288 394/559/290
f 395/560/291 394/555/290 391/552/287 396/561/292
f 393/554/289 395/562/291 396/563/292 390/551/286
f 383/543/282 388/542/281 390/551/286 396/563/292
f 385/547/283 383/546/282 396/561/292 391/552/287
f 397/564/273 398/565/273 401/566/274 400/567/274
f 399/568/275 412/569/275 398/565/273 397/564/273
f 400/567/274 401/566/274 403/570/276 402/571/276
f 402/571/276 403/570/276 405/572/277 404/573/277
f 404/573/277 405/572/277 407/574/278 406/575/278
f 406/575/278 407/574/278 409/576/279 408/577/279
f 408/577/279 409/576/279 411/578/280 410/579/280
f 410/579/280 411/578/280 412/569/275 399/568/275
f 412/569/1 411/578/1 407/574/1
f 411/578/1 409/576/1 407/574/1
f 398/565/1 412/569/1 407/574/1
f 407/574/1 405/572/1 403/570/1
f 407/574/1 403/570/1 398/565/1
f 403/570/1 401/566/1 398/565/1
f 413/580/172 414/581/55 420/582/281 415/583/282
f 416/584/58 413/585/172 415/586/282 417/587/283
f 418/588/111 416/584/58 417/587/283 419/589/284
f 414/581/55 418/588/111 419/589/284 420/582/281
f 420/582/281 419/589/284 421/590/285 422/591/286
f 419/589/284 417/587/283 423/592/287 421/590/285
f 424/593/288 425/594/289 422/591/286 421/590/285
f 426/595/290 424/593/288 421/590/285 423/592/287
f 427/596/291 425/597/289 424/598/288 426/599/290
f 427/600/291 426/595/290 423/592/287 428/601/292
f 425/594/289 427/602/291 428/603/292 422/591/286
f 415/583/282 420/582/281 422/591/286 428/603/292
f 417/587/283 415/586/282 428/601/292 423/592/287
f 429/604/197 430/605/197 440/606/196 432/607/196
f 431/608/198 460/609/198 430/605/197 429/604/197
f 431/610/111 429/611/111 433/612/111 434/613/111
f 429/611/111 432/614/111 436/615/111 433/612/111
f 434/613/293 433/612/294 435/616/294 459/617/293
f 433/612/294 436/615/295 438/618/295 435/616/294
f 432/614/111 442/619/111 437/620/111 436/615/111
f 436/615/295 437/620/13 439/621/13 438/618/295
f 441/622/172 440/623/172 438/618/172 439/621/172
f 440/623/172 430/624/172 435/616/172 438/618/172
f 432/607/196 440/606/196 441/625/1 442/626/1
f 442/626/1 441/625/1 443/627/191 444/628/191
f 443/629/172 441/622/172 439/621/172 446/630/172
f 444/628/191 443/627/191 445/631/75 451/632/75
f 445/633/172 443/629/172 446/630/172 447/634/172
f 448/635/296 449/636/297 447/634/297 446/630/296
f 437/620/13 448/635/296 446/630/296 439/621/13
f 444/637/111 451/638/111 449/636/111 448/635/111
f 442/619/111 444/637/111 448/635/111 437/620/111
f 451/638/111 452/639/111 450/640/111 449/636/111
f 449/636/297 450/640/298 458/641/298 447/634/297
f 451/632/75 445/631/75 453/642/299 452/643/299
f 452/643/299 453/642/299 456/644/58 454/645/58
f 450/640/111 452/639/111 454/646/111 455/647/111
s 0
f 456/644/1 457/648/1 455/649/1 454/645/1
s 1
f 453/650/172 458/641/172 457/651/172 456/652/172
f 453/650/172 445/633/172 447/634/172 458/641/172
f 430/624/172 460/653/172 459/617/172 435/616/172
s 0
f 431/654/1 434/613/1 459/617/1 460/655/1
s 1
f 492/656/172 462/657/172 461/658/172 463/659/172
s 0
f 463/660/1 461/661/1 464/662/1 465/663/1
s 1
f 466/664/111 467/665/111 465/666/111 464/667/111
f 471/668/111 467/665/111 466/664/111 468/669/111
f 468/669/297 466/664/298 462/657/298 470/670/297
f 473/671/111 471/668/111 468/669/111 469/672/111
f 469/672/296 468/669/297 470/670/297 491/673/296
f 473/674/191 474/675/191 472/676/75 471/677/75
f 471/677/75 472/676/75 492/678/299 467/679/299
f 475/680/1 476/681/1 474/675/191 473/674/191
f 475/682/111 473/671/111 469/672/111 478/683/111
f 477/684/196 484/685/196 476/681/1 475/680/1
f 477/686/111 475/682/111 478/683/111 480/687/111
f 478/683/13 469/672/296 491/673/296 479/688/13
f 480/687/295 478/683/13 479/688/13 482/689/295
f 487/690/111 477/686/111 480/687/111 481/691/111
f 481/691/294 480/687/295 482/689/295 483/692/294
f 484/693/172 485/694/172 483/692/172 482/689/172
f 476/695/172 484/693/172 482/689/172 479/688/172
f 487/696/197 485/697/197 484/685/196 477/684/196
f 488/698/198 486/699/198 485/697/197 487/696/197
f 485/694/172 486/700/172 490/701/172 483/692/172
f 488/702/111 487/690/111 481/691/111 489/703/111
s 0
f 488/704/1 489/703/1 490/701/1 486/705/1
s 1
f 489/703/293 481/691/294 483/692/294 490/701/293
f 474/706/172 476/695/172 479/688/172 491/673/172
f 472/707/172 474/706/172 491/673/172 470/670/172
f 492/656/172 472/707/172 470/670/172 462/657/172
f 467/679/299 492/678/299 463/660/58 465/663/58
f 494/708/297 493/709/55 497/710/55 499/711/297
f 493/712/172 494/713/172 534/714/172 495/715/172
f 496/716/172 493/712/172 495/715/172 516/717/172
f 493/709/55 496/718/197 498/719/197 497/710/55
f 497/720/172 498/721/172 501/722/172
f 500/723/172 499/724/172 497/720/172
f 500/723/172 497/720/172 502/725/172
f 497/720/172 501/722/172 502/725/172
f 502/725/172 504/726/172 503/727/172
f 502/725/172 503/727/172 500/723/172
f 505/728/58 543/729/294 504/730/294 502/731/58
f 507/732/75 505/728/58 502/731/58 506/733/75
f 506/734/172 502/725/172 501/722/172
f 509/735/191 507/732/75 506/733/75 508/736/191
f 508/737/172 506/734/172 501/722/172
f 511/738/1 509/735/191 508/736/191 510/739/1
f 501/722/172 510/740/172 508/737/172
f 513/741/196 511/742/1 510/743/1 501/744/196
f 509/745/172 511/746/172 512/747/172 555/748/172
f 511/746/172 513/749/172 514/750/172 512/747/172
f 513/749/172 496/716/172 516/717/172 514/750/172
f 496/718/197 513/741/196 501/744/196 498/719/197
f 515/751/295 554/752/13 512/753/13 514/754/295
f 517/755/294 515/751/295 514/754/295 516/756/294
f 518/757/58 517/755/294 516/756/294 495/758/58
f 521/759/111 519/760/111 517/761/111 518/762/111
f 519/760/111 520/763/111 515/764/111 517/761/111
f 519/765/294 522/766/300 523/767/301 520/768/295
f 521/769/58 525/770/302 522/766/300 519/765/294
f 524/771/303 561/772/304 523/773/301 522/774/300
f 526/775/305 524/771/303 522/774/300 525/776/302
f 528/777/306 526/775/305 525/776/302 527/778/307
f 530/779/75 527/780/307 525/770/302 521/769/58
f 564/781/308 528/777/306 527/778/307 529/782/309
f 531/783/191 529/784/309 527/780/307 530/779/75
f 531/785/111 530/786/111 532/787/111 533/788/111
f 530/786/111 521/759/111 518/762/111 532/787/111
f 533/789/191 532/790/75 534/791/75 535/792/191
f 532/790/75 518/757/58 495/758/58 534/791/75
f 494/713/172 536/793/172 535/794/172 534/714/172
f 536/793/172 540/795/172 537/796/172 535/794/172
f 538/797/1 533/789/191 535/792/191 537/798/1
f 571/799/196 538/797/1 537/798/1 539/800/196
f 540/795/172 541/801/172 539/802/172 537/796/172
f 540/803/13 536/804/296 500/805/296 542/806/13
f 541/807/295 540/803/13 542/806/13 503/808/295
f 503/727/172 542/809/172 500/723/172
f 541/801/172 543/810/172 544/811/172 539/802/172
f 543/729/294 541/807/295 503/808/295 504/730/294
f 543/810/172 505/812/172 546/813/172 544/811/172
f 545/814/197 571/799/196 539/800/196 544/815/197
f 548/816/55 545/814/197 544/815/197 546/817/55
f 550/818/297 548/816/55 546/817/55 547/819/297
f 505/812/172 507/820/172 547/821/172 546/813/172
f 549/822/111 570/823/111 545/824/111 548/825/111
f 551/826/111 549/822/111 548/825/111 550/827/111
f 553/828/111 551/826/111 550/827/111 552/829/111
f 552/830/296 550/818/297 547/819/297 555/831/296
f 556/832/111 553/828/111 552/829/111 554/833/111
f 554/834/13 552/830/296 555/831/296 512/835/13
f 507/820/172 509/745/172 555/748/172 547/821/172
f 520/763/111 556/832/111 554/833/111 515/764/111
f 556/836/13 557/837/310 558/838/311 553/839/296
f 520/768/295 523/767/301 557/840/310 556/841/13
f 559/842/312 560/843/313 558/844/311 557/845/310
f 561/772/304 559/842/312 557/845/310 523/773/301
f 560/843/313 559/842/312 561/772/304
f 561/772/304 524/771/303 526/775/305
f 560/843/313 561/772/304 526/775/305
f 562/846/314 560/843/313 563/847/315
f 560/843/313 562/846/314 576/848/316 558/844/311
f 526/775/305 564/781/308 560/843/313
f 564/781/308 563/847/315 560/843/313
f 526/775/305 528/777/306 564/781/308
f 565/849/317 564/781/308 529/782/309 566/850/318
f 564/781/308 565/849/317 563/847/315
f 563/847/315 565/849/317 566/850/318 567/851/319
f 568/852/1 566/853/318 529/784/309 531/783/191
f 569/854/196 567/855/319 566/853/318 568/852/1
f 568/856/111 531/785/111 533/788/111 538/857/111
f 569/858/111 568/856/111 538/857/111 571/859/111
f 570/860/197 572/861/320 567/855/319 569/854/196
f 570/823/111 569/858/111 571/859/111 545/824/111
f 549/862/55 574/863/321 572/861/320 570/860/197
f 573/864/322 563/847/315 567/851/319 572/865/320
f 575/866/323 573/864/322 572/865/320 574/867/321
f 562/846/314 575/866/323 574/867/321 576/848/316
f 551/868/297 576/869/316 574/863/321 549/862/55
f 553/839/296 558/838/311 576/869/316 551/868/297
f 563/847/315 573/864/322 575/866/323
f 575/866/323 562/846/314 563/847/315
f 536/804/296 494/708/297 499/711/297 500/805/296
f 578/870/324 709/871/325 580/872/172 577/873/172
f 708/874/326 578/870/324 577/873/172 579/875/172
f 581/876/327 716/877/328 579/875/172 577/873/172
f 587/878/328 585/879/329 577/873/172 580/872/172
f 715/880/324 581/876/327 577/873/172 582/881/172
f 583/882/328 722/883/326 582/881/172 577/873/172
f 723/884/325 583/882/328 577/873/172 584/885/172
f 585/879/329 586/886/324 584/885/172 577/873/172
f 588/887/325 587/878/328 580/872/172 589/888/172
f 586/886/324 588/887/325 589/888/172 584/885/172
f 700/889/328 592/890/329 589/888/172 590/891/330
f 591/892/324 703/893/325 590/891/330 589/888/172
f 704/894/329 591/892/324 589/888/172 580/872/172
f 594/895/328 596/896/329 584/885/172 589/888/172
f 592/890/329 732/897/331 593/898/330 589/888/172
f 595/899/325 594/895/328 589/888/172 593/898/330
f 596/896/329 597/900/324 598/901/172 584/885/172
f 597/900/324 595/899/325 593/898/330 598/901/172
f 605/902/324 603/903/325 598/901/172 599/904/332
f 600/905/328 620/906/329 599/904/332 598/901/172
f 601/907/333 733/908/334 600/905/328 598/901/172
f 602/909/326 724/910/335 601/907/333 598/901/172
f 725/911/336 602/909/326 598/901/172 593/898/330
f 603/903/325 604/912/328 584/885/172 598/901/172
f 606/913/329 605/902/324 599/904/332 607/914/172
f 604/912/328 606/913/329 607/914/172 584/885/172
f 608/915/327 721/916/328 582/881/172 607/914/172
f 720/917/324 608/915/327 607/914/172 609/918/332
f 611/919/328 612/920/326 609/918/332 607/914/172
f 722/883/326 610/921/324 607/914/172 582/881/172
f 610/921/324 723/884/325 584/885/172 607/914/172
f 613/922/325 611/919/328 607/914/172 599/904/332
f 615/923/337 614/924/338 613/922/325 599/904/332
f 614/924/338 615/923/337 617/925/339 616/926/74
f 617/925/339 615/923/337 599/904/332
f 618/927/340 617/925/339 599/904/332
f 619/928/341 617/925/339 618/927/340
f 620/906/329 619/928/341 618/927/340 599/904/332
f 612/920/326 621/929/342 622/930/343 609/918/332
f 621/929/342 623/931/344 622/930/343
f 622/930/343 623/931/344 609/918/332
f 623/931/344 624/932/345 609/918/332
f 626/933/346 624/932/345 623/931/344 625/934/293
f 624/932/345 626/933/346 627/935/325 609/918/332
f 627/935/325 628/936/336 629/937/172 609/918/332
f 628/936/336 630/938/347 631/939/348 629/937/172
f 631/939/348 630/938/347 632/940/349
f 631/939/348 632/940/349 633/941/327 629/937/172
f 633/941/327 634/942/328 636/943/350 629/937/172
f 634/942/328 635/944/351 637/945/352 636/943/350
f 637/945/352 642/946/353 636/943/350
f 638/947/329 718/948/331 629/937/172 636/943/350
f 713/949/336 638/947/329 636/943/350 639/950/172
f 640/951/324 645/952/327 639/950/172 636/943/350
f 641/953/354 644/954/355 640/951/324 636/943/350
f 642/946/353 641/953/354 636/943/350
f 635/944/351 642/946/353 637/945/352
f 644/954/355 641/953/354 642/946/353 643/955/356
f 645/952/327 646/956/328 648/957/350 639/950/172
f 646/956/328 647/958/357 651/959/358 648/957/350
f 649/960/326 712/961/324 639/950/172 648/957/350
f 710/962/328 649/960/326 648/957/350 650/963/172
f 652/964/324 657/965/327 650/963/172 648/957/350
f 651/959/358 654/966/359 648/957/350
f 653/967/360 656/968/361 652/964/324 648/957/350
f 654/966/359 653/967/360 648/957/350
f 654/966/359 655/969/362 656/968/361 653/967/360
f 651/959/358 647/958/357 654/966/359
f 657/965/327 658/970/363 659/971/364 650/963/172
f 660/972/365 659/971/364 658/970/363
f 659/971/364 660/972/365 661/973/324 650/963/172
f 661/973/324 662/974/327 664/975/366 650/963/172
f 662/974/327 663/976/367 665/977/368 664/975/366
f 665/977/368 670/978/369 664/975/366
f 668/979/328 673/980/329 650/963/172 664/975/366
f 674/981/327 668/979/328 664/975/366 666/982/172
f 667/983/326 676/984/324 666/982/172 664/975/366
f 669/985/370 672/986/371 667/983/326 664/975/366
f 670/978/369 669/985/370 664/975/366
f 663/976/367 670/978/369 665/977/368
f 670/978/369 671/987/298 672/986/371 669/985/370
f 675/988/324 674/981/327 666/982/172 579/875/172
f 673/980/329 675/988/324 579/875/172 650/963/172
f 676/984/324 677/989/325 679/990/366 666/982/172
f 677/989/325 678/991/372 683/992/373 679/990/366
f 680/993/328 706/994/329 666/982/172 679/990/366
f 701/995/325 680/993/328 679/990/366 681/996/172
f 682/997/329 688/998/324 681/996/172 679/990/366
f 684/999/374 687/1000/375 682/997/329 679/990/366
f 683/992/373 685/1001/376 679/990/366
f 685/1001/376 684/999/374 679/990/366
f 683/992/373 678/991/372 685/1001/376
f 685/1001/376 686/1002/198 687/1000/375 684/999/374
f 688/998/324 689/1003/377 690/1004/378 681/996/172
f 691/1005/379 690/1004/378 689/1003/377
f 690/1004/378 691/1005/379 692/1006/326 681/996/172
f 692/1006/326 693/1007/331 590/891/330 681/996/172
f 693/1007/331 694/1008/380 695/1009/381 590/891/330
f 695/1009/381 694/1008/380 696/1010/382
f 695/1009/381 696/1010/382 590/891/330
f 696/1010/382 697/1011/383 590/891/330
f 696/1010/382 698/1012/384 699/1013/385 697/1011/383
f 697/1011/383 699/1013/385 700/889/328 590/891/330
f 705/1014/324 701/995/325 681/996/172 580/872/172
f 702/1015/328 704/894/329 580/872/172 681/996/172
f 703/893/325 702/1015/328 681/996/172 590/891/330
f 706/994/329 705/1014/324 580/872/172 666/982/172
f 709/871/325 707/1016/328 666/982/172 580/872/172
f 707/1016/328 708/874/326 579/875/172 666/982/172
f 711/1017/327 710/962/328 650/963/172 579/875/172
f 712/961/324 711/1017/327 579/875/172 639/950/172
f 717/1018/325 713/949/336 639/950/172 582/881/172
f 714/1019/326 715/880/324 582/881/172 639/950/172
f 716/877/328 714/1019/326 639/950/172 579/875/172
f 718/948/331 717/1018/325 582/881/172 629/937/172
f 719/1020/329 720/917/324 609/918/332 629/937/172
f 721/916/328 719/1020/329 629/937/172 582/881/172
f 727/1021/386 726/1022/387 725/911/336 593/898/330
f 726/1022/387 727/1021/386 729/1023/388 728/1024/389
f 729/1023/388 727/1021/386 593/898/330
f 730/1025/390 729/1023/388 593/898/330
f 731/1026/391 729/1023/388 730/1025/390
f 732/897/331 731/1026/391 730/1025/390 593/898/330
f 733/908/334 601/907/333 724/910/335
