# Blender 4.5.10 LTS
# www.blender.org
mtllib pills.mtl
o pills
v 0.000000 1.350076 -0.120967
v -0.056589 1.350076 -0.105804
v -0.098016 1.350076 -0.064378
v -0.113179 1.350076 -0.007788
v -0.098016 1.350076 0.048801
v -0.056589 1.350076 0.090228
v 0.000000 1.350076 0.105391
v 0.056589 1.350076 0.090228
v 0.098016 1.350076 0.048801
v 0.113179 1.350076 -0.007788
v 0.098016 1.350076 -0.064378
v 0.056589 1.350076 -0.105804
v 0.000000 1.395244 -0.072709
v -0.032461 1.395244 -0.064012
v -0.056223 1.395244 -0.040249
v -0.064921 1.395244 -0.007788
v -0.056223 1.395244 0.024672
v -0.032461 1.395244 0.048435
v 0.000000 1.395244 0.057133
v 0.032461 1.395244 0.048435
v 0.056223 1.395244 0.024672
v 0.064921 1.395244 -0.007788
v 0.056223 1.395244 -0.040249
v 0.032461 1.395244 -0.064012
v 0.000000 1.377736 -0.107346
v -0.049779 1.377736 -0.094008
v 0.049779 1.377736 0.078432
v 0.086220 1.377736 0.041991
v -0.086220 1.377736 0.041991
v -0.049779 1.377736 0.078432
v 0.049779 1.377736 -0.094008
v -0.086220 1.377736 -0.057567
v 0.099558 1.377736 -0.007788
v 0.000000 1.377736 0.091770
v -0.099558 1.377736 -0.007788
v 0.086220 1.377736 -0.057567
v 0.000000 0.990601 -0.120967
v 0.000000 0.978441 -0.108378
v -0.050295 0.978441 -0.094902
v -0.056589 0.990601 -0.105804
v -0.087114 0.978441 -0.058083
v -0.098016 0.990601 -0.064378
v -0.100590 0.978441 -0.007788
v -0.113179 0.990601 -0.007788
v -0.087114 0.978441 0.042507
v -0.098016 0.990601 0.048801
v -0.050295 0.978441 0.079326
v -0.056589 0.990601 0.090228
v 0.000000 0.978441 0.092802
v 0.000000 0.990601 0.105391
v 0.050295 0.978441 0.079326
v 0.056589 0.990601 0.090228
v 0.087114 0.978441 0.042507
v 0.098016 0.990601 0.048801
v 0.100590 0.978441 -0.007788
v 0.113179 0.990601 -0.007788
v 0.087114 0.978441 -0.058083
v 0.098016 0.990601 -0.064378
v 0.050295 0.978441 -0.094902
v 0.056589 0.990601 -0.105804
v -0.036511 1.395244 -0.071027
v 0.000000 1.395244 -0.080810
v -0.063239 1.395244 -0.044299
v -0.073022 1.395244 -0.007788
v -0.063239 1.395244 0.028723
v -0.036511 1.395244 0.055451
v 0.000000 1.395244 0.065234
v 0.036511 1.395244 0.055451
v 0.063239 1.395244 0.028723
v 0.073022 1.395244 -0.007788
v 0.063239 1.395244 -0.044299
v 0.036511 1.395244 -0.071027
v 0.032461 1.472765 -0.064012
v 0.056223 1.472765 -0.040249
v 0.056223 1.472765 0.024672
v 0.000000 1.472765 0.057133
v 0.036511 1.409137 0.055451
v 0.000000 1.409137 0.065234
v -0.036511 1.409137 0.055451
v 0.032461 1.400074 0.048435
v -0.032461 1.472765 0.048435
v 0.064921 1.400074 -0.007788
v -0.056223 1.472765 0.024672
v -0.064921 1.472765 -0.007788
v 0.000000 1.400074 -0.072709
v -0.032461 1.400074 -0.064012
v -0.056223 1.400074 -0.040249
v -0.064921 1.400074 -0.007788
v -0.056223 1.400074 0.024672
v -0.032461 1.400074 0.048435
v 0.000000 1.400074 0.057133
v -0.056223 1.472765 -0.040249
v 0.056223 1.400074 0.024672
v -0.036511 1.409137 -0.071027
v 0.056223 1.400074 -0.040249
v 0.032461 1.400074 -0.064012
v -0.036511 1.400074 -0.071027
v 0.000000 1.400074 -0.080810
v -0.063239 1.400074 -0.044299
v -0.073022 1.400074 -0.007788
v -0.063239 1.400074 0.028723
v -0.036511 1.400074 0.055451
v 0.000000 1.400074 0.065234
v 0.036511 1.400074 0.055451
v 0.063239 1.400074 0.028723
v 0.073022 1.400074 -0.007788
v 0.063239 1.400074 -0.044299
v 0.036511 1.400074 -0.071027
v 0.032461 1.409137 0.048435
v 0.064921 1.409137 -0.007788
v 0.000000 1.409137 -0.072709
v -0.032461 1.409137 -0.064012
v -0.056223 1.409137 -0.040249
v -0.064921 1.409137 -0.007788
v -0.056223 1.409137 0.024672
v -0.032461 1.409137 0.048435
v 0.000000 1.409137 0.057133
v 0.056223 1.409137 0.024672
v 0.056223 1.409137 -0.040249
v 0.032461 1.409137 -0.064012
v -0.032461 1.472765 -0.064012
v 0.000000 1.409137 -0.080810
v -0.063239 1.409137 -0.044299
v -0.073022 1.409137 -0.007788
v -0.063239 1.409137 0.028723
v 0.000000 1.472765 -0.072709
v 0.064921 1.472765 -0.007788
v 0.032461 1.472765 0.048435
v 0.063239 1.409137 0.028723
v 0.073022 1.409137 -0.007788
v 0.063239 1.409137 -0.044299
v 0.036511 1.409137 -0.071027
v 0.052234 1.350076 -0.098260
v 0.090472 1.350076 -0.060022
v 0.104468 1.350076 -0.007788
v 0.090472 1.350076 0.044446
v 0.052234 1.350076 0.082684
v 0.000000 1.350076 0.096680
v -0.052234 1.350076 0.082684
v -0.090472 1.350076 0.044446
v -0.104468 1.350076 -0.007788
v -0.090472 1.350076 -0.060022
v 0.000000 1.350076 -0.112256
v -0.052234 1.350076 -0.098260
v -0.052441 1.280094 -0.098619
v 0.000000 1.280094 -0.112670
v -0.090831 1.280094 -0.060229
v -0.104882 1.280094 -0.007788
v -0.090831 1.280094 0.044653
v -0.052441 1.280094 0.083042
v 0.000000 1.280094 0.097094
v 0.052441 1.280094 0.083042
v 0.090831 1.280094 0.044653
v 0.104882 1.280094 -0.007788
v 0.090831 1.280094 -0.060229
v 0.052441 1.280094 -0.098619
v -0.027997 1.472765 -0.056280
v 0.000000 1.472765 -0.063782
v -0.048492 1.472765 0.020209
v 0.055994 1.472765 -0.007788
v 0.027997 1.472765 -0.056280
v 0.048492 1.472765 -0.035785
v -0.055994 1.472765 -0.007788
v -0.048492 1.472765 -0.035785
v 0.048492 1.472765 0.020209
v 0.027997 1.472765 0.040704
v 0.000000 1.472765 0.048205
v -0.027997 1.386817 0.040704
v 0.000000 1.386817 0.048205
v 0.027997 1.386817 0.040704
v 0.048492 1.386817 0.020209
v -0.048492 1.386817 -0.035785
v -0.055994 1.386817 -0.007788
v 0.048492 1.386817 -0.035785
v -0.027997 1.472765 0.040704
v 0.027997 1.386817 -0.056280
v 0.055994 1.386817 -0.007788
v -0.048492 1.386817 0.020209
v 0.000000 1.386817 -0.063782
v -0.027997 1.386817 -0.056280
v -0.000000 1.453632 0.057133
v 0.016230 1.462956 0.052784
v 0.016230 1.465342 0.052784
v -0.032461 1.454958 0.048435
v -0.056223 1.456283 0.024672
v -0.064921 1.457609 -0.007788
v -0.056223 1.458935 -0.040249
v -0.032461 1.460260 -0.064012
v 0.000000 1.461586 -0.072709
v 0.032461 1.462911 -0.064012
v 0.056223 1.464237 -0.040249
v 0.064921 1.465563 -0.007788
v 0.056223 1.465710 0.024672
v 0.032461 1.465857 0.048435
v -0.016230 1.418946 0.052784
v -0.032461 1.420787 0.048435
v -0.056223 1.423291 0.024672
v -0.064921 1.425795 -0.007788
v -0.056223 1.427120 -0.040249
v -0.032461 1.428446 -0.064012
v 0.000000 1.429772 -0.072709
v 0.032461 1.431097 -0.064012
v 0.056223 1.432423 -0.040249
v 0.064921 1.433748 -0.007788
v 0.056223 1.435074 0.024672
v 0.032461 1.436400 0.048435
v -0.000000 1.437725 0.057133
v -0.032461 1.439051 0.048435
v -0.056223 1.440376 0.024672
v -0.064921 1.441702 -0.007788
v -0.056223 1.443027 -0.040249
v -0.032461 1.444353 -0.064012
v -0.000000 1.445679 -0.072709
v 0.032461 1.447004 -0.064012
v 0.056223 1.448330 -0.040249
v 0.064921 1.449656 -0.007788
v 0.056223 1.450981 0.024672
v 0.032461 1.452307 0.048435
v -0.000000 1.428269 0.057133
v -0.032461 1.429595 0.048435
v -0.056223 1.430920 0.024672
v -0.064921 1.432246 -0.007788
v -0.056223 1.433572 -0.040249
v -0.032461 1.434897 -0.064012
v -0.000000 1.436223 -0.072709
v 0.032461 1.437548 -0.064012
v 0.056223 1.438874 -0.040249
v 0.064921 1.440200 -0.007788
v 0.056223 1.441525 0.024672
v 0.032461 1.442851 0.048435
v -0.000000 1.444176 0.057133
v -0.032461 1.445502 0.048435
v -0.056223 1.446828 0.024672
v -0.064921 1.448153 -0.007788
v -0.056223 1.449479 -0.040249
v -0.032461 1.450804 -0.064012
v 0.000000 1.452130 -0.072709
v 0.032461 1.453455 -0.064012
v 0.056223 1.454781 -0.040249
v 0.064921 1.456107 -0.007788
v 0.056223 1.458611 0.024672
v 0.032461 1.461114 0.048435
v -0.033285 1.419609 0.049863
v -0.059078 1.420934 0.026321
v -0.069866 1.422260 -0.007788
v -0.060506 1.423586 -0.042721
v -0.034933 1.424911 -0.068294
v 0.000000 1.426237 -0.077654
v 0.034933 1.427562 -0.068294
v 0.060506 1.428888 -0.042721
v 0.069866 1.430213 -0.007788
v 0.060506 1.431539 0.027145
v 0.034933 1.432865 0.052718
v -0.000000 1.434190 0.062078
v -0.034933 1.435516 0.052718
v -0.060506 1.436841 0.027145
v -0.069866 1.438167 -0.007788
v -0.060506 1.439493 -0.042721
v -0.034933 1.440818 -0.068294
v -0.000000 1.442144 -0.077654
v 0.034933 1.443469 -0.068294
v 0.060506 1.444795 -0.042721
v 0.069866 1.446121 -0.007788
v 0.060506 1.447446 0.027145
v 0.034933 1.448772 0.052718
v -0.000000 1.450097 0.062078
v -0.034933 1.451423 0.052717
v -0.060506 1.452749 0.027145
v -0.069866 1.454074 -0.007788
v -0.060506 1.455400 -0.042721
v -0.034933 1.456725 -0.068294
v 0.000000 1.458051 -0.077654
v 0.034933 1.459376 -0.068294
v 0.060506 1.460702 -0.042721
v 0.069866 1.462028 -0.007788
v 0.059078 1.463353 0.026321
v 0.033285 1.464679 0.049863
v -0.016230 1.416560 0.052784
v -0.033285 1.417223 0.049863
v -0.059078 1.418548 0.026321
v -0.069866 1.419874 -0.007788
v -0.060506 1.421199 -0.042721
v -0.034933 1.422525 -0.068294
v 0.000000 1.423851 -0.077654
v 0.034933 1.425176 -0.068294
v 0.060506 1.426502 -0.042721
v 0.069866 1.427827 -0.007788
v 0.060506 1.429153 0.027145
v 0.034933 1.430479 0.052718
v -0.000000 1.431804 0.062078
v -0.034933 1.433130 0.052718
v -0.060506 1.434455 0.027145
v -0.069866 1.435781 -0.007788
v -0.060506 1.437107 -0.042721
v -0.034933 1.438432 -0.068294
v -0.000000 1.439758 -0.077654
v 0.034933 1.441083 -0.068294
v 0.060506 1.442409 -0.042721
v 0.069866 1.443735 -0.007788
v 0.060506 1.445060 0.027145
v 0.034933 1.446386 0.052718
v -0.000000 1.447711 0.062078
v -0.034933 1.449037 0.052717
v -0.060506 1.450362 0.027145
v -0.069866 1.451688 -0.007788
v -0.060506 1.453014 -0.042721
v -0.034933 1.454339 -0.068294
v 0.000000 1.455665 -0.077654
v 0.034933 1.456990 -0.068294
v 0.060506 1.458316 -0.042721
v 0.069866 1.459642 -0.007788
v 0.059078 1.460967 0.026321
v 0.033285 1.462293 0.049863
v -0.032461 1.416044 0.048435
v -0.056223 1.416192 0.024672
v -0.064921 1.416339 -0.007788
v -0.056223 1.417665 -0.040249
v -0.032461 1.418990 -0.064012
v 0.000000 1.420316 -0.072709
v 0.032461 1.421641 -0.064012
v 0.056223 1.422967 -0.040249
v 0.064921 1.424292 -0.007788
v 0.056223 1.425618 0.024672
v 0.032461 1.426944 0.048435
v 0.032469 1.409137 0.048450
v 0.000000 1.409137 0.057150
v -0.032469 1.409137 0.048450
v -0.032469 1.409137 -0.064027
v 0.000000 1.409137 -0.072727
v -0.056238 1.409137 -0.040258
v -0.064939 1.409137 -0.007788
v -0.056238 1.409137 0.024681
v 0.056238 1.409137 0.024681
v 0.064939 1.409137 -0.007788
v 0.056238 1.409137 -0.040258
v 0.032469 1.409137 -0.064027
v 0.032469 1.472765 0.048450
v 0.000000 1.472765 0.057150
v -0.032469 1.472765 0.048450
v -0.032469 1.472765 -0.064027
v 0.000000 1.472765 -0.072727
v -0.056238 1.472765 -0.040258
v -0.064939 1.472765 -0.007788
v -0.056238 1.472765 0.024681
v 0.056238 1.472765 0.024681
v 0.064939 1.472765 -0.007788
v 0.056238 1.472765 -0.040258
v 0.032469 1.472765 -0.064027
v 0.045496 1.409137 0.050353
v 0.027604 1.409137 0.060683
v 0.010330 1.409137 0.065311
v -0.010330 1.409137 0.065311
v -0.027604 1.409137 0.060683
v -0.045496 1.409137 0.050353
v -0.045496 1.409137 -0.065929
v -0.027604 1.409137 -0.076259
v -0.010330 1.409137 -0.080887
v 0.010330 1.409137 -0.080887
v -0.068471 1.409137 -0.035392
v -0.058141 1.409137 -0.053284
v -0.073099 1.409137 0.002542
v -0.073099 1.409137 -0.018118
v -0.058141 1.409137 0.037707
v -0.068471 1.409137 0.019815
v 0.068471 1.409137 0.019815
v 0.058141 1.409137 0.037707
v 0.073099 1.409137 -0.018118
v 0.073099 1.409137 0.002542
v 0.058141 1.409137 -0.053284
v 0.068471 1.409137 -0.035392
v 0.027604 1.409137 -0.076259
v 0.045496 1.409137 -0.065929
v 0.042518 1.409137 0.047375
v 0.035828 1.409137 0.054268
v 0.026514 1.409137 0.056616
v 0.009240 1.409137 0.061244
v 0.000000 1.409137 0.063868
v -0.009240 1.409137 0.061244
v -0.026514 1.409137 0.056616
v -0.035828 1.409137 0.054268
v -0.042518 1.409137 0.047375
v -0.042518 1.409137 -0.062952
v -0.035828 1.409137 -0.069845
v -0.026514 1.409137 -0.072192
v -0.009240 1.409137 -0.076820
v 0.000000 1.409137 -0.079445
v 0.009240 1.409137 -0.076820
v -0.064404 1.409137 -0.034302
v -0.062057 1.409137 -0.043617
v -0.055164 1.409137 -0.050307
v -0.069032 1.409137 0.001452
v -0.071657 1.409137 -0.007788
v -0.069032 1.409137 -0.017029
v -0.055164 1.409137 0.034730
v -0.062057 1.409137 0.028040
v -0.064404 1.409137 0.018726
v 0.064404 1.409137 0.018726
v 0.062057 1.409137 0.028040
v 0.055164 1.409137 0.034730
v 0.069032 1.409137 -0.017029
v 0.071657 1.409137 -0.007788
v 0.069032 1.409137 0.001452
v 0.055164 1.409137 -0.050307
v 0.062057 1.409137 -0.043617
v 0.064404 1.409137 -0.034302
v 0.026514 1.409137 -0.072192
v 0.035828 1.409137 -0.069845
v 0.042518 1.409137 -0.062952
v 0.034282 1.484316 0.051590
v 0.026368 1.484316 0.053585
v 0.059379 1.484316 0.026494
v 0.053522 1.484316 0.032178
v 0.061373 1.484316 0.018580
v -0.068565 1.484316 -0.007788
v -0.066335 1.484316 -0.015639
v -0.059379 1.484316 0.026494
v 0.034282 1.484316 -0.067167
v 0.039966 1.484316 -0.061310
v 0.000000 1.484316 -0.076353
v 0.068565 1.484316 -0.007788
v -0.034282 1.484316 0.051590
v -0.039966 1.484316 0.045734
v -0.026368 1.484316 0.053585
v -0.061373 1.484316 -0.034157
v -0.059379 1.484316 -0.042071
v -0.039966 1.484316 -0.061310
v -0.034282 1.484316 -0.067167
v 0.059379 1.484316 -0.042071
v 0.061373 1.484316 -0.034157
v 0.007851 1.484316 0.058546
v 0.000000 1.484316 0.060776
v -0.007851 1.484316 0.058546
v 0.027604 1.477140 0.060683
v 0.045496 1.477140 0.050353
v 0.039966 1.484316 0.045734
v -0.010330 1.477140 0.065311
v 0.010330 1.477140 0.065311
v -0.045496 1.477140 0.050353
v -0.027604 1.477140 0.060683
v -0.026368 1.484316 -0.069161
v -0.027604 1.477140 -0.076259
v -0.045496 1.477140 -0.065929
v 0.007851 1.484316 -0.074123
v 0.010330 1.477140 -0.080888
v -0.010330 1.477140 -0.080888
v -0.007851 1.484316 -0.074123
v -0.053522 1.484316 -0.047755
v -0.058141 1.477140 -0.053284
v -0.068471 1.477140 -0.035392
v -0.073099 1.477140 -0.018118
v -0.073099 1.477140 0.002542
v -0.066335 1.484316 0.000063
v -0.061373 1.484316 0.018580
v -0.068471 1.477140 0.019815
v -0.058141 1.477140 0.037707
v -0.053522 1.484316 0.032178
v 0.058141 1.477140 0.037707
v 0.068471 1.477140 0.019815
v 0.066335 1.484316 0.000063
v 0.073099 1.477140 0.002542
v 0.073099 1.477140 -0.018118
v 0.066335 1.484316 -0.015639
v 0.068471 1.477140 -0.035392
v 0.058141 1.477140 -0.053284
v 0.053522 1.484316 -0.047755
v 0.045496 1.477140 -0.065929
v 0.027604 1.477140 -0.076259
v 0.026368 1.484316 -0.069161
v -0.062057 1.481350 -0.043617
v -0.055164 1.481350 -0.050307
v 0.069032 1.481350 -0.017029
v 0.071657 1.481350 -0.007788
v 0.055164 1.481350 0.034730
v 0.042518 1.481350 0.047375
v 0.026514 1.481350 0.056616
v 0.009240 1.481350 0.061244
v 0.055164 1.481350 -0.050307
v 0.062057 1.481350 -0.043617
v -0.035828 1.481350 -0.069845
v -0.026514 1.481350 -0.072192
v 0.035828 1.481350 0.054268
v -0.069032 1.481350 0.001452
v -0.071657 1.481350 -0.007788
v -0.069032 1.481350 -0.017029
v -0.064404 1.481350 -0.034302
v -0.042518 1.481350 -0.062952
v -0.009240 1.481350 -0.076821
v 0.000000 1.481350 -0.079445
v -0.009240 1.481350 0.061244
v -0.026514 1.481350 0.056616
v -0.055164 1.481350 0.034730
v -0.062057 1.481350 0.028040
v -0.042518 1.481350 0.047375
v 0.069032 1.481350 0.001452
v 0.064404 1.481350 0.018726
v 0.064404 1.481350 -0.034302
v 0.009240 1.481350 -0.076821
v 0.062057 1.481350 0.028040
v 0.035828 1.481350 -0.069845
v 0.042518 1.481350 -0.062952
v -0.035828 1.481350 0.054268
v 0.000000 1.481350 0.063868
v 0.026514 1.481350 -0.072192
v -0.064404 1.481350 0.018726
vn -0.3840 0.6406 -0.6650
vn -0.1651 0.9439 -0.2859
vn -0.0000 0.9439 -0.3302
vn -0.0000 0.6406 -0.7679
vn 0.6650 0.6406 0.3840
vn 0.2859 0.9439 0.1651
vn 0.1651 0.9439 0.2859
vn 0.3840 0.6406 0.6650
vn -0.3840 0.6406 0.6650
vn -0.1651 0.9439 0.2859
vn -0.2859 0.9439 0.1651
vn -0.6650 0.6406 0.3840
vn 0.1651 0.9439 -0.2859
vn 0.3840 0.6406 -0.6650
vn -0.6650 0.6406 -0.3840
vn -0.2859 0.9439 -0.1651
vn 0.7679 0.6406 -0.0000
vn 0.3302 0.9439 -0.0000
vn -0.0000 0.6406 0.7679
vn -0.0000 0.9439 0.3302
vn -0.7679 0.6406 -0.0000
vn -0.3302 0.9439 -0.0000
vn 0.6650 0.6406 -0.3840
vn 0.2859 0.9439 -0.1651
vn 0.4879 0.2189 -0.8450
vn 0.8450 0.2189 -0.4879
vn -0.8450 0.2189 0.4879
vn -0.9757 0.2189 -0.0000
vn 0.4879 0.2189 0.8450
vn -0.0000 0.2189 0.9757
vn 0.9757 0.2189 -0.0000
vn -0.8450 0.2189 -0.4879
vn -0.4879 0.2189 0.8450
vn 0.8450 0.2189 0.4879
vn -0.4879 0.2189 -0.8450
vn -0.0000 0.2189 -0.9757
vn -0.8660 -0.0000 0.5000
vn -0.5000 -0.0000 0.8660
vn -0.4997 -0.0322 -0.8656
vn 0.0001 -0.0322 -0.9995
vn -0.0000 -0.9979 -0.0643
vn -0.0410 -0.9966 -0.0709
vn -0.8656 -0.0322 -0.4997
vn -0.2755 -0.9480 -0.1591
vn -0.9995 -0.0322 -0.0000
vn -0.5403 -0.8414 -0.0000
vn -0.8656 -0.0322 0.4997
vn -0.1564 -0.9835 0.0903
vn -0.4997 -0.0322 0.8656
vn -0.0466 -0.9957 0.0801
vn -0.0000 -0.0322 0.9995
vn -0.0000 -0.9979 0.0643
vn 0.4997 -0.0322 0.8656
vn 0.0410 -0.9966 0.0709
vn 0.8656 -0.0322 0.4997
vn 0.2755 -0.9480 0.1591
vn 0.9995 -0.0322 -0.0000
vn 0.5403 -0.8414 -0.0000
vn 0.8656 -0.0322 -0.4997
vn 0.1564 -0.9835 -0.0903
vn 0.4997 -0.0322 -0.8656
vn 0.0466 -0.9957 -0.0801
vn -0.0000 1.0000 -0.0000
vn -0.0000 -0.0000 -1.0000
vn -0.5000 -0.0000 -0.8660
vn 0.5000 -0.0000 -0.8660
vn -0.8660 -0.0000 -0.5000
vn 0.8660 -0.0000 0.5000
vn 1.0000 -0.0000 -0.0000
vn -0.0000 -0.0000 1.0000
vn -1.0000 -0.0000 -0.0000
vn 0.8660 -0.0000 -0.5000
vn 0.5000 -0.0000 0.8660
vn -0.0000 -1.0000 -0.0000
vn -0.0000 -0.4207 0.9072
vn -0.0000 -0.4770 0.8789
vn 0.4394 -0.4770 0.7611
vn 0.4536 -0.4207 0.7856
vn -0.4536 -0.4207 -0.7856
vn -0.4394 -0.4770 -0.7611
vn -0.7611 -0.4770 -0.4394
vn -0.7856 -0.4207 -0.4536
vn 0.7856 -0.4207 -0.4536
vn 0.7611 -0.4770 -0.4394
vn 0.4394 -0.4770 -0.7611
vn 0.4536 -0.4207 -0.7856
vn -0.4536 -0.4207 0.7856
vn -0.4394 -0.4770 0.7611
vn 0.7611 -0.4770 0.4394
vn 0.7856 -0.4207 0.4536
vn -0.8789 -0.4770 -0.0000
vn -0.9072 -0.4207 -0.0000
vn -0.0000 -0.4770 -0.8789
vn -0.0000 -0.4207 -0.9072
vn 0.8789 -0.4770 -0.0000
vn 0.9072 -0.4207 -0.0000
vn -0.7611 -0.4770 0.4394
vn -0.7856 -0.4207 0.4536
vn 0.6574 0.6510 0.3795
vn 0.6574 0.6510 -0.3795
vn 0.3795 0.6510 -0.6574
vn -0.0000 0.6510 0.7591
vn -0.3795 0.6510 0.6574
vn 0.3795 0.6510 0.6574
vn 0.7591 0.6510 -0.0000
vn -0.0000 0.6510 -0.7591
vn -0.3795 0.6510 -0.6574
vn -0.6574 0.6510 -0.3795
vn -0.7591 0.6510 -0.0000
vn -0.6574 0.6510 0.3795
vn 0.0067 -0.0000 1.0000
vn 0.2357 -0.0000 0.9718
vn 0.2368 -0.0000 0.9716
vn -0.4942 -0.0000 0.8694
vn -0.8626 -0.0000 0.5058
vn -1.0000 -0.0000 0.0067
vn -0.8694 -0.0000 -0.4942
vn -0.5058 -0.0000 -0.8626
vn -0.0067 -0.0000 -1.0000
vn 0.4942 -0.0000 -0.8694
vn 0.8626 -0.0000 -0.5058
vn 1.0000 -0.0000 -0.0037
vn 0.8664 -0.0000 0.4994
vn 0.4981 -0.0000 0.8671
vn -0.2357 -0.0000 0.9718
vn -0.0067 -0.0000 1.0000
vn -0.5058 -0.0000 0.8626
vn -0.4865 -0.0000 0.8737
vn -0.8694 -0.0000 0.4942
vn -0.8596 -0.0000 0.5109
vn -1.0000 -0.0000 -0.0067
vn -1.0000 -0.0000 0.0096
vn -0.8626 -0.0000 -0.5058
vn -0.4942 -0.0000 -0.8694
vn 0.0067 -0.0000 -1.0000
vn 0.5058 -0.0000 -0.8626
vn 0.8694 -0.0000 -0.4942
vn 1.0000 -0.0000 0.0067
vn 1.0000 -0.0000 -0.0067
vn 0.8626 -0.0000 0.5058
vn 0.8694 -0.0000 0.4942
vn 0.4942 -0.0000 0.8694
vn 0.5058 -0.0000 0.8626
vn 1.0000 -0.0000 0.0096
vn 0.8596 -0.0000 0.5109
vn 0.4865 -0.0000 0.8737
vn -0.0737 0.7896 0.6092
vn -0.2355 0.8066 0.5421
vn -0.2344 0.8066 0.5426
vn -0.4788 0.8103 0.3379
vn -0.4775 0.8103 0.3398
vn -0.5798 0.8137 0.0402
vn -0.5796 0.8137 0.0440
vn -0.5174 0.8131 -0.2666
vn -0.5195 0.8131 -0.2626
vn -0.3148 0.8131 -0.4896
vn -0.3186 0.8131 -0.4871
vn -0.0278 0.8131 -0.5814
vn -0.0323 0.8131 -0.5812
vn 0.2666 0.8131 -0.5174
vn 0.2626 0.8131 -0.5195
vn 0.4896 0.8131 -0.3148
vn 0.4871 0.8131 -0.3186
vn 0.5814 0.8131 -0.0278
vn 0.5812 0.8131 -0.0323
vn 0.5174 0.8131 0.2666
vn 0.5195 0.8131 0.2626
vn 0.3148 0.8131 0.4896
vn 0.3186 0.8131 0.4871
vn 0.0278 0.8131 0.5814
vn 0.0323 0.8131 0.5812
vn -0.2666 0.8131 0.5174
vn -0.2626 0.8131 0.5195
vn -0.4896 0.8131 0.3148
vn -0.4871 0.8131 0.3186
vn -0.5814 0.8131 0.0278
vn -0.5812 0.8131 0.0323
vn 0.5791 0.8151 -0.0154
vn 0.5789 0.8151 -0.0216
vn 0.5051 0.8136 0.2880
vn 0.5085 0.8136 0.2819
vn 0.2818 0.8138 0.5083
vn 0.2897 0.8138 0.5038
vn 0.1313 0.8004 0.5849
vn -0.2368 -0.0000 0.9716
vn -0.4456 -0.0000 0.8952
vn -0.4328 -0.0000 0.9015
vn -0.8461 -0.0000 0.5331
vn -0.8392 -0.0000 0.5439
vn -0.9999 -0.0000 0.0154
vn -0.9996 -0.0000 0.0291
vn -0.8629 -0.0000 -0.5054
vn -0.8691 -0.0000 -0.4946
vn -0.4946 -0.0000 -0.8691
vn -0.5054 -0.0000 -0.8629
vn 0.0062 -0.0000 -1.0000
vn -0.0062 -0.0000 -1.0000
vn 0.5054 -0.0000 -0.8629
vn 0.4946 -0.0000 -0.8691
vn 0.8691 -0.0000 -0.4946
vn 0.8629 -0.0000 -0.5054
vn 1.0000 -0.0000 0.0062
vn 1.0000 -0.0000 -0.0062
vn 0.8629 -0.0000 0.5054
vn 0.8691 -0.0000 0.4946
vn 0.4946 -0.0000 0.8691
vn 0.5054 -0.0000 0.8629
vn -0.0062 -0.0000 1.0000
vn 0.0062 -0.0000 1.0000
vn -0.5054 -0.0000 0.8629
vn -0.4946 -0.0000 0.8691
vn -0.8691 -0.0000 0.4946
vn -0.8629 -0.0000 0.5054
vn -1.0000 -0.0000 -0.0062
vn -1.0000 -0.0000 0.0062
vn 0.9996 -0.0000 0.0291
vn 0.9999 -0.0000 0.0154
vn 0.8392 -0.0000 0.5439
vn 0.8461 -0.0000 0.5331
vn 0.4328 -0.0000 0.9015
vn 0.4456 -0.0000 0.8952
vn -0.1313 -0.8004 0.5849
vn -0.2897 -0.8138 0.5038
vn -0.2818 -0.8138 0.5083
vn -0.5085 -0.8136 0.2819
vn -0.5051 -0.8136 0.2880
vn -0.5789 -0.8151 -0.0216
vn -0.5791 -0.8151 -0.0154
vn -0.4871 -0.8131 -0.3186
vn -0.4896 -0.8131 -0.3148
vn -0.2626 -0.8131 -0.5195
vn -0.2666 -0.8131 -0.5174
vn 0.0323 -0.8131 -0.5812
vn 0.0278 -0.8131 -0.5814
vn 0.3186 -0.8131 -0.4871
vn 0.3148 -0.8131 -0.4896
vn 0.5195 -0.8131 -0.2626
vn 0.5174 -0.8131 -0.2666
vn 0.5812 -0.8131 0.0323
vn 0.5814 -0.8131 0.0278
vn 0.4871 -0.8131 0.3186
vn 0.4896 -0.8131 0.3148
vn 0.2626 -0.8131 0.5195
vn 0.2666 -0.8131 0.5174
vn -0.0323 -0.8131 0.5812
vn -0.0278 -0.8131 0.5814
vn -0.3186 -0.8131 0.4871
vn -0.3148 -0.8131 0.4896
vn -0.5195 -0.8131 0.2626
vn -0.5174 -0.8131 0.2666
vn -0.5812 -0.8131 -0.0323
vn -0.5814 -0.8131 -0.0278
vn 0.5796 -0.8137 0.0440
vn 0.5798 -0.8137 0.0402
vn 0.4775 -0.8103 0.3398
vn 0.4788 -0.8103 0.3379
vn 0.2344 -0.8066 0.5426
vn 0.2354 -0.8066 0.5421
vn 0.0737 -0.7896 0.6092
vn -0.4981 -0.0000 0.8671
vn -0.8664 -0.0000 0.4994
vn -1.0000 -0.0000 -0.0037
vn 0.7176 -0.0000 0.6965
vn 0.2444 -0.0000 0.9697
vn 0.6965 -0.0000 0.7176
vn 0.9697 -0.0000 0.2444
vn -0.9620 -0.0000 0.2732
vn -0.9620 -0.0000 -0.2732
vn -0.9697 -0.0000 0.2444
vn -0.6965 -0.0000 0.7176
vn 0.2444 -0.0000 -0.9697
vn 0.7176 -0.0000 -0.6965
vn 0.2732 -0.0000 -0.9620
vn -0.2732 -0.0000 -0.9620
vn 0.9620 -0.0000 0.2732
vn 0.9620 -0.0000 -0.2732
vn -0.7176 -0.0000 0.6965
vn -0.2444 -0.0000 0.9697
vn -0.9697 -0.0000 -0.2444
vn -0.6965 -0.0000 -0.7176
vn -0.7176 -0.0000 -0.6965
vn -0.2444 -0.0000 -0.9697
vn 0.9697 -0.0000 -0.2444
vn 0.6965 -0.0000 -0.7176
vn 0.2732 -0.0000 0.9620
vn -0.2732 -0.0000 0.9620
vn 0.1830 0.7071 -0.6830
vn 0.1860 0.7075 -0.6819
vn -0.4975 0.7075 0.5020
vn -0.5000 0.7071 0.5000
vn -0.5020 0.7075 0.4975
vn -0.6830 0.7071 -0.1830
vn -0.6817 0.7075 -0.1863
vn 0.4975 0.7075 -0.5020
vn 0.5000 0.7071 -0.5000
vn 0.5020 0.7075 -0.4975
vn 0.6830 0.7071 0.1830
vn 0.6819 0.7074 0.1860
vn -0.1830 0.7071 0.6830
vn -0.1860 0.7075 0.6819
vn -0.5022 0.7075 -0.4972
vn -0.5000 0.7071 -0.5000
vn -0.4972 0.7075 -0.5022
vn -0.1860 0.7075 -0.6818
vn -0.1830 0.7071 -0.6830
vn -0.1799 0.7074 -0.6835
vn 0.1860 0.7075 0.6818
vn 0.1830 0.7071 0.6830
vn 0.1799 0.7074 0.6835
vn 0.5020 0.7075 0.4975
vn 0.5000 0.7071 0.5000
vn 0.4975 0.7075 0.5020
vn 0.6817 0.7075 -0.1864
vn 0.6830 0.7071 -0.1830
vn 0.6835 0.7075 -0.1799
vn 0.2588 -0.0000 0.9659
vn 0.9659 -0.0000 -0.2588
vn -0.7071 -0.0000 0.7071
vn 0.7071 -0.0000 0.7071
vn -0.2588 -0.0000 0.9659
vn 0.9659 -0.0000 0.2588
vn -0.9659 -0.0000 0.2588
vn -0.9659 -0.0000 -0.2588
vn -0.2588 -0.0000 -0.9659
vn 0.7071 -0.0000 -0.7071
vn -0.7071 -0.0000 -0.7071
vn 0.2588 -0.0000 -0.9659
vn -0.5994 0.7218 -0.3461
vn -0.4955 0.7077 -0.5036
vn -0.4971 0.7075 -0.5023
vn 0.6809 0.7077 -0.1884
vn 0.6921 0.7218 -0.0000
vn 0.6817 0.7075 -0.1865
vn 0.4955 0.7077 -0.5036
vn 0.5994 0.7218 -0.3461
vn 0.4976 0.7074 -0.5019
vn -0.3461 0.7218 -0.5994
vn -0.1773 0.7077 -0.6839
vn -0.1797 0.7075 -0.6835
vn 0.5036 0.7077 0.4955
vn 0.3461 0.7218 0.5994
vn 0.5019 0.7074 0.4976
vn -0.6809 0.7077 0.1884
vn -0.6921 0.7218 -0.0000
vn -0.6818 0.7075 0.1860
vn -0.1884 0.7077 -0.6809
vn -0.0000 0.7218 -0.6921
vn -0.1860 0.7075 -0.6819
vn -0.4955 0.7077 0.5036
vn -0.5994 0.7218 0.3461
vn -0.4976 0.7074 0.5019
vn 0.1884 0.7077 -0.6809
vn 0.1862 0.7075 -0.6818
vn 0.1773 0.7077 0.6839
vn 0.1797 0.7075 0.6835
vn 0.5994 0.7218 0.3461
vn 0.4955 0.7077 0.5036
vn 0.4974 0.7075 0.5021
vn 0.6839 0.7077 0.1773
vn 0.6835 0.7075 0.1798
vn -0.6809 0.7077 -0.1884
vn -0.6814 0.7076 -0.1871
vn 0.3461 0.7218 -0.5994
vn 0.5036 0.7077 -0.4955
vn 0.5022 0.7075 -0.4972
vn -0.3461 0.7218 0.5994
vn -0.5036 0.7077 0.4955
vn -0.5022 0.7075 0.4972
vn -0.1773 0.7077 0.6839
vn -0.1798 0.7075 0.6835
vn -0.6839 0.7077 -0.1773
vn -0.6835 0.7075 -0.1798
vn -0.5036 0.7077 -0.4955
vn -0.5022 0.7075 -0.4973
vn 0.6839 0.7077 -0.1773
vn 0.6835 0.7075 -0.1796
vn 0.1884 0.7077 0.6809
vn -0.0000 0.7218 0.6921
vn 0.1860 0.7075 0.6819
vn -0.1884 0.7077 0.6809
vn -0.1862 0.7075 0.6818
vn 0.1773 0.7077 -0.6839
vn 0.1798 0.7075 -0.6835
vn 0.6809 0.7077 0.1884
vn 0.6818 0.7075 0.1861
vn -0.6839 0.7077 0.1773
vn -0.6835 0.7075 0.1796
vn -0.6819 0.7074 0.1860
vn -0.6830 0.7071 0.1830
vn -0.6835 0.7075 0.1799
vt 0.074072 0.414817
vt 0.082510 0.447142
vt 0.036874 0.447142
vt 0.021736 0.419396
vt 0.478623 0.414195
vt 0.478518 0.447142
vt 0.420757 0.447142
vt 0.420417 0.414319
vt 0.303737 0.414403
vt 0.304616 0.447142
vt 0.246828 0.447142
vt 0.245521 0.414388
vt 0.702747 0.417805
vt 0.686762 0.447142
vt 0.642306 0.447142
vt 0.649422 0.413929
vt 0.130294 0.414395
vt 0.134373 0.447142
vt 0.536495 0.414012
vt 0.535492 0.447142
vt 0.362078 0.414385
vt 0.362690 0.447142
vt 0.187610 0.414363
vt 0.189781 0.447142
vt 0.593663 0.413820
vt 0.590733 0.447142
vt 0.657859 0.382858
vt 0.597508 0.381821
vt 0.244552 0.382125
vt 0.185642 0.382276
vt 0.420580 0.381923
vt 0.361932 0.382013
vt 0.538172 0.381683
vt 0.126310 0.382734
vt 0.303278 0.382068
vt 0.479286 0.381793
vt 0.066063 0.383972
vt 0.720133 0.385898
vt 0.003906 0.386717
vt 0.694260 0.875000
vt 0.730350 0.875000
vt 0.730346 0.880209
vt 0.694258 0.880111
vt 0.934440 0.798706
vt 0.872738 0.815279
vt 0.872618 0.796873
vt 0.925147 0.782815
vt 0.979606 0.753483
vt 0.963606 0.744376
vt 0.996094 0.691706
vt 0.977685 0.691844
vt 0.979467 0.629982
vt 0.963605 0.639321
vt 0.934221 0.584871
vt 0.925146 0.600884
vt 0.872498 0.568404
vt 0.872618 0.586811
vt 0.810796 0.584977
vt 0.820089 0.600869
vt 0.765630 0.630200
vt 0.781630 0.639308
vt 0.749143 0.691978
vt 0.767551 0.691840
vt 0.765769 0.753702
vt 0.781632 0.744363
vt 0.811016 0.798813
vt 0.820091 0.782800
vt 0.720133 0.003906
vt 0.660533 0.003906
vt 0.063626 0.003906
vt 0.003906 0.003906
vt 0.123384 0.003906
vt 0.183103 0.003906
vt 0.242769 0.003906
vt 0.302394 0.003906
vt 0.362000 0.003906
vt 0.421616 0.003906
vt 0.481269 0.003906
vt 0.540983 0.003906
vt 0.600758 0.003906
vt 0.083280 0.455256
vt 0.041301 0.455256
vt 0.134632 0.455256
vt 0.189853 0.455256
vt 0.246816 0.455256
vt 0.304563 0.455256
vt 0.362611 0.455256
vt 0.420651 0.455256
vt 0.478370 0.455256
vt 0.535258 0.455256
vt 0.590314 0.455256
vt 0.641382 0.455256
vt 0.682341 0.455256
vt 0.546875 0.888373
vt 0.585177 0.888209
vt 0.585294 0.897581
vt 0.546978 0.898069
vt 0.947738 0.875000
vt 0.983761 0.875000
vt 0.983793 0.880006
vt 0.947745 0.880074
vt 0.585205 0.875000
vt 0.621664 0.875000
vt 0.621669 0.880027
vt 0.585191 0.880068
vt 0.838499 0.875000
vt 0.874812 0.875000
vt 0.874814 0.880058
vt 0.838502 0.880121
vt 0.766317 0.875000
vt 0.766312 0.880274
vt 0.658025 0.875000
vt 0.658027 0.880032
vt 0.911230 0.875000
vt 0.911230 0.880030
vt 0.802327 0.875000
vt 0.802328 0.880201
vt 0.549247 0.875000
vt 0.549228 0.880008
vt 0.621757 0.888104
vt 0.658089 0.888117
vt 0.694306 0.888316
vt 0.730397 0.888568
vt 0.766379 0.888739
vt 0.802396 0.888548
vt 0.838571 0.888344
vt 0.874878 0.888183
vt 0.911285 0.888107
vt 0.947857 0.888096
vt 0.986183 0.888137
vt 0.838602 0.897946
vt 0.802426 0.898282
vt 0.730350 0.898319
vt 0.694263 0.897905
vt 0.986062 0.897837
vt 0.947813 0.897481
vt 0.621797 0.897549
vt 0.874897 0.897681
vt 0.766356 0.898602
vt 0.658089 0.897574
vt 0.911274 0.897554
vt 0.585470 0.905728
vt 0.549582 0.906373
vt 0.621785 0.905638
vt 0.658016 0.905667
vt 0.694137 0.906116
vt 0.730224 0.906676
vt 0.766276 0.907061
vt 0.802411 0.906621
vt 0.838583 0.906170
vt 0.874861 0.905809
vt 0.911203 0.905637
vt 0.947583 0.905513
vt 0.983526 0.905931
vt 0.894549 0.562500
vt 0.835382 0.502034
vt 0.843100 0.472441
vt 0.905778 0.507815
vt 0.911244 0.241359
vt 0.848265 0.246033
vt 0.848469 0.207188
vt 0.911365 0.198860
vt 0.911543 0.368414
vt 0.847955 0.363014
vt 0.848034 0.324211
vt 0.911345 0.325634
vt 0.905629 0.061210
vt 0.844828 0.096947
vt 0.837216 0.067045
vt 0.892747 0.005846
vt 0.846354 0.438017
vt 0.910258 0.458487
vt 0.848478 0.168933
vt 0.911287 0.155357
vt 0.848104 0.285128
vt 0.911216 0.283452
vt 0.847589 0.401158
vt 0.911481 0.412417
vt 0.847702 0.131826
vt 0.910140 0.109974
vt 0.014702 0.945850
vt 0.014702 0.836117
vt 0.054867 0.795951
vt 0.984375 0.005846
vt 0.984375 0.054121
vt 0.984375 0.512506
vt 0.984375 0.562500
vt 0.984375 0.463319
vt 0.984375 0.416145
vt 0.984375 0.370834
vt 0.984375 0.326817
vt 0.984375 0.283441
vt 0.984375 0.240053
vt 0.984375 0.195979
vt 0.984375 0.150534
vt 0.984375 0.103179
vt 0.753392 0.173701
vt 0.753392 0.137691
vt 0.753392 0.321699
vt 0.753392 0.284549
vt 0.753392 0.247334
vt 0.753392 0.394876
vt 0.753392 0.358541
vt 0.753392 0.102284
vt 0.753392 0.502034
vt 0.753392 0.466010
vt 0.753392 0.430623
vt 0.753392 0.067045
vt 0.753392 0.210306
vt 0.317924 0.848527
vt 0.317924 0.857867
vt 0.288632 0.865716
vt 0.283962 0.857627
vt 0.376748 0.950413
vt 0.368659 0.945743
vt 0.376508 0.916451
vt 0.385848 0.916451
vt 0.259100 0.882489
vt 0.267189 0.887159
vt 0.259341 0.916451
vt 0.250000 0.916451
vt 0.283962 0.975275
vt 0.288632 0.967186
vt 0.317924 0.975034
vt 0.317924 0.984375
vt 0.376748 0.882489
vt 0.368659 0.887159
vt 0.347216 0.865716
vt 0.351886 0.857627
vt 0.347216 0.967186
vt 0.351886 0.975275
vt 0.267189 0.945743
vt 0.259100 0.950413
vt 0.767798 0.966032
vt 0.786153 0.975790
vt 0.786166 0.978516
vt 0.768070 0.986930
vt 0.731757 0.986930
vt 0.731656 0.967761
vt 0.695558 0.986930
vt 0.695509 0.969455
vt 0.659373 0.986930
vt 0.659346 0.971049
vt 0.623274 0.986930
vt 0.623243 0.972482
vt 0.587353 0.986930
vt 0.587272 0.973877
vt 0.551656 0.986930
vt 0.551609 0.975524
vt 0.983525 0.975408
vt 0.983443 0.986930
vt 0.947856 0.986930
vt 0.947871 0.976603
vt 0.912050 0.986930
vt 0.912048 0.978020
vt 0.876171 0.986930
vt 0.876186 0.979454
vt 0.840291 0.986930
vt 0.840303 0.979466
vt 0.804237 0.986930
vt 0.804307 0.979579
vt 0.748224 0.917960
vt 0.766519 0.927830
vt 0.730490 0.930210
vt 0.730232 0.920712
vt 0.694488 0.932523
vt 0.694309 0.924439
vt 0.658452 0.934598
vt 0.658354 0.927874
vt 0.622379 0.936087
vt 0.622297 0.929353
vt 0.586345 0.937607
vt 0.586228 0.930853
vt 0.550618 0.939377
vt 0.550496 0.932758
vt 0.983329 0.932350
vt 0.983266 0.938995
vt 0.947514 0.940221
vt 0.947548 0.933456
vt 0.911444 0.941619
vt 0.911439 0.934886
vt 0.875330 0.943257
vt 0.875274 0.936521
vt 0.839241 0.945513
vt 0.839140 0.938680
vt 0.803215 0.948039
vt 0.803084 0.941078
vt 0.767226 0.950456
vt 0.767085 0.943375
vt 0.731199 0.952467
vt 0.731080 0.945509
vt 0.695105 0.954404
vt 0.695015 0.947566
vt 0.658975 0.956179
vt 0.658906 0.949432
vt 0.622875 0.957649
vt 0.622812 0.950914
vt 0.586887 0.959122
vt 0.586800 0.952380
vt 0.551189 0.960768
vt 0.551103 0.954170
vt 0.983413 0.953873
vt 0.983369 0.960522
vt 0.947677 0.961795
vt 0.947696 0.955033
vt 0.911755 0.963181
vt 0.911740 0.956446
vt 0.875843 0.964775
vt 0.875757 0.958065
vt 0.840006 0.968618
vt 0.839802 0.960542
vt 0.804138 0.972866
vt 0.803844 0.963351
vt 0.730226 0.918608
vt 0.694068 0.920248
vt 0.658098 0.921737
vt 0.622097 0.923187
vt 0.585985 0.924720
vt 0.548865 0.926692
vt 0.984670 0.926095
vt 0.947493 0.927253
vt 0.911313 0.928717
vt 0.875102 0.930341
vt 0.838932 0.932421
vt 0.802853 0.934716
vt 0.766833 0.936905
vt 0.730831 0.939144
vt 0.694792 0.941310
vt 0.658708 0.943265
vt 0.622618 0.944746
vt 0.586584 0.946258
vt 0.549509 0.948120
vt 0.984724 0.947616
vt 0.947618 0.948835
vt 0.911602 0.950274
vt 0.875558 0.951899
vt 0.839540 0.954287
vt 0.803554 0.956981
vt 0.767544 0.959556
vt 0.731463 0.961400
vt 0.695336 0.963195
vt 0.659183 0.964865
vt 0.623078 0.966312
vt 0.587085 0.967763
vt 0.550041 0.969484
vt 0.984836 0.969146
vt 0.947789 0.970407
vt 0.911914 0.971843
vt 0.876122 0.973364
vt 0.840307 0.975327
vt 0.804194 0.977507
vt 0.748179 0.915251
vt 0.730200 0.916080
vt 0.694040 0.917722
vt 0.658068 0.919261
vt 0.622054 0.920694
vt 0.585930 0.922242
vt 0.548793 0.924188
vt 0.984683 0.923585
vt 0.947503 0.924771
vt 0.911299 0.926225
vt 0.875071 0.927845
vt 0.838888 0.929894
vt 0.802802 0.932148
vt 0.766770 0.934296
vt 0.730763 0.936576
vt 0.694734 0.938783
vt 0.658662 0.940771
vt 0.622575 0.942254
vt 0.586539 0.943784
vt 0.549451 0.945625
vt 0.984724 0.945107
vt 0.947619 0.946355
vt 0.911582 0.947782
vt 0.875516 0.949410
vt 0.839476 0.951762
vt 0.803479 0.954410
vt 0.767481 0.956942
vt 0.731417 0.958832
vt 0.695299 0.960666
vt 0.659151 0.962366
vt 0.623047 0.963819
vt 0.587052 0.965292
vt 0.549994 0.966995
vt 0.984834 0.966636
vt 0.947788 0.967928
vt 0.911896 0.969349
vt 0.876093 0.970893
vt 0.840267 0.972803
vt 0.804154 0.974974
vt 0.730098 0.914009
vt 0.694067 0.913582
vt 0.657999 0.913163
vt 0.621862 0.914528
vt 0.585712 0.916056
vt 0.549919 0.917912
vt 0.983260 0.917467
vt 0.947423 0.918634
vt 0.911174 0.920063
vt 0.874910 0.921673
vt 0.838701 0.923640
vt 0.802595 0.925788
vt 0.164600 0.986015
vt 0.109733 1.000717
vt 0.109733 0.781250
vt 0.164600 0.795951
vt 0.204765 0.836117
vt 0.219467 0.890983
vt 0.054867 0.986015
vt 0.000000 0.890983
vt 0.204765 0.945850
vt 0.476695 0.557760
vt 0.511865 0.557760
vt 0.511865 0.624331
vt 0.476695 0.624331
vt 0.195339 0.557760
vt 0.230509 0.557760
vt 0.230509 0.624331
vt 0.195339 0.624331
vt 0.300848 0.557760
vt 0.336017 0.557760
vt 0.336017 0.624331
vt 0.300848 0.624331
vt 0.547034 0.557760
vt 0.547034 0.624331
vt 0.160170 0.557760
vt 0.160170 0.624331
vt 0.371187 0.557760
vt 0.371187 0.624331
vt 0.265678 0.557760
vt 0.265678 0.624331
vt 0.406356 0.557760
vt 0.441526 0.557760
vt 0.441526 0.624331
vt 0.406356 0.624331
vt 0.125000 0.557760
vt 0.125000 0.624331
vt 0.600092 0.590568
vt 0.683304 0.673780
vt 0.569635 0.704237
vt 0.460421 0.468750
vt 0.461026 0.545632
vt 0.450613 0.545553
vt 0.450650 0.468750
vt 0.440199 0.545515
vt 0.440874 0.468750
vt 0.486728 0.545508
vt 0.487378 0.468750
vt 0.497151 0.468750
vt 0.497145 0.545533
vt 0.506920 0.468750
vt 0.507560 0.545574
vt 0.274350 0.468750
vt 0.274951 0.545638
vt 0.264541 0.545573
vt 0.264575 0.468750
vt 0.254129 0.545571
vt 0.254796 0.468750
vt 0.300644 0.545515
vt 0.301319 0.468750
vt 0.311095 0.468750
vt 0.311058 0.545553
vt 0.320866 0.468750
vt 0.321471 0.545632
vt 0.646468 0.468750
vt 0.647121 0.545577
vt 0.636705 0.545534
vt 0.636700 0.468750
vt 0.626287 0.545509
vt 0.626928 0.468750
vt 0.672805 0.545589
vt 0.673447 0.468750
vt 0.683219 0.468750
vt 0.683219 0.545628
vt 0.125000 0.545521
vt 0.125000 0.468750
vt 0.134779 0.468750
vt 0.135409 0.545619
vt 0.533238 0.545571
vt 0.533906 0.468750
vt 0.543685 0.468750
vt 0.543651 0.545573
vt 0.553460 0.468750
vt 0.554061 0.545638
vt 0.347173 0.545508
vt 0.347823 0.468750
vt 0.357596 0.468750
vt 0.357590 0.545533
vt 0.367366 0.468750
vt 0.368005 0.545573
vt 0.227808 0.468750
vt 0.228452 0.545575
vt 0.218038 0.545540
vt 0.218038 0.468750
vt 0.207620 0.545528
vt 0.208265 0.468750
vt 0.181307 0.468750
vt 0.181920 0.545611
vt 0.171509 0.545545
vt 0.171533 0.468750
vt 0.161096 0.545509
vt 0.161755 0.468750
vt 0.579755 0.545515
vt 0.580427 0.468750
vt 0.590203 0.468750
vt 0.590170 0.545553
vt 0.599973 0.468750
vt 0.600583 0.545632
vt 0.413906 0.468750
vt 0.414505 0.545638
vt 0.404095 0.545573
vt 0.404131 0.468750
vt 0.393683 0.545571
vt 0.394352 0.468750
vt 0.650962 0.540786
vt 0.668919 0.540539
vt 0.343333 0.540726
vt 0.232293 0.540783
vt 0.250245 0.540524
vt 0.622445 0.540726
vt 0.511401 0.540781
vt 0.529354 0.540523
vt 0.371846 0.540781
vt 0.389799 0.540523
vt 0.203780 0.540739
vt 0.157258 0.540723
vt 0.436361 0.540731
vt 0.482887 0.540726
vt 0.575917 0.540731
vt 0.436557 0.468750
vt 0.418389 0.540583
vt 0.418228 0.468750
vt 0.426511 0.691357
vt 0.426511 0.711415
vt 0.422259 0.727283
vt 0.464741 0.468750
vt 0.464911 0.540577
vt 0.483063 0.468750
vt 0.390030 0.468750
vt 0.371680 0.468750
vt 0.343508 0.468750
vt 0.325356 0.540577
vt 0.325186 0.468750
vt 0.157437 0.468750
vt 0.139291 0.540567
vt 0.139103 0.468750
vt 0.185629 0.468750
vt 0.185805 0.540563
vt 0.203950 0.468750
vt 0.669126 0.468750
vt 0.650781 0.468750
vt 0.232122 0.468750
vt 0.250473 0.468750
vt 0.297001 0.468750
vt 0.296806 0.540731
vt 0.278835 0.540583
vt 0.278672 0.468750
vt 0.529584 0.468750
vt 0.511234 0.468750
vt 0.576110 0.468750
vt 0.557945 0.540583
vt 0.557781 0.468750
vt 0.604293 0.468750
vt 0.604468 0.540577
vt 0.622613 0.468750
vt 0.229221 0.775949
vt 0.211148 0.780792
vt 0.201480 0.776509
vt 0.259196 0.753051
vt 0.245966 0.766281
vt 0.260320 0.742537
vt 0.218003 0.549995
vt 0.208250 0.549995
vt 0.553455 0.549995
vt 0.543612 0.549995
vt 0.599976 0.549995
vt 0.590128 0.549995
vt 0.171468 0.549995
vt 0.161713 0.549995
vt 0.460419 0.549995
vt 0.450572 0.549995
vt 0.274345 0.549995
vt 0.264503 0.549995
vt 0.134806 0.549995
vt 0.125000 0.549995
vt 0.320864 0.549995
vt 0.311017 0.549995
vt 0.683219 0.549995
vt 0.673427 0.549995
vt 0.440815 0.549995
vt 0.497108 0.549995
vt 0.487347 0.549995
vt 0.506942 0.549995
vt 0.254751 0.549995
vt 0.636667 0.549995
vt 0.626905 0.549995
vt 0.357553 0.549995
vt 0.347792 0.549995
vt 0.367387 0.549995
vt 0.227835 0.549995
vt 0.181303 0.549995
vt 0.580371 0.549995
vt 0.413899 0.549995
vt 0.404057 0.549995
vt 0.394305 0.549995
vt 0.646503 0.549995
vt 0.533860 0.549995
vt 0.301260 0.549995
vt 0.331450 0.766298
vt 0.367376 0.632222
vt 0.375914 0.632094
vt 0.338781 0.770678
vt 0.383244 0.636474
vt 0.347319 0.770550
vt 0.302464 0.658119
vt 0.314080 0.756270
vt 0.292435 0.727283
vt 0.367376 0.770550
vt 0.400614 0.646502
vt 0.408072 0.650661
vt 0.412231 0.658119
vt 0.383244 0.766298
vt 0.375914 0.770678
vt 0.412231 0.744653
vt 0.408072 0.752111
vt 0.400614 0.756270
vt 0.422259 0.675489
vt 0.426639 0.682819
vt 0.426639 0.719953
vt 0.288183 0.691357
vt 0.288055 0.682819
vt 0.292435 0.675489
vt 0.306622 0.650661
vt 0.314080 0.646502
vt 0.288055 0.719953
vt 0.288183 0.711415
vt 0.331450 0.636474
vt 0.338780 0.632094
vt 0.347319 0.632222
vt 0.306622 0.752111
vt 0.302464 0.744653
vt 0.552050 0.673780
vt 0.552050 0.638610
vt 0.569635 0.608152
vt 0.635262 0.590568
vt 0.665720 0.608152
vt 0.683304 0.638610
vt 0.665720 0.704237
vt 0.635262 0.721822
vt 0.600092 0.721822
vt 0.235452 0.767406
vt 0.238966 0.773493
vt 0.230361 0.780204
vt 0.212288 0.785047
vt 0.201480 0.783537
vt 0.167509 0.767406
vt 0.191813 0.780792
vt 0.190673 0.785047
vt 0.173740 0.775949
vt 0.172600 0.780204
vt 0.163995 0.773493
vt 0.156995 0.766281
vt 0.153880 0.769396
vt 0.140650 0.756166
vt 0.143765 0.753051
vt 0.136554 0.746052
vt 0.142641 0.742537
vt 0.134098 0.736306
vt 0.129843 0.737447
vt 0.125000 0.719374
vt 0.129255 0.718234
vt 0.126509 0.708566
vt 0.133538 0.708566
vt 0.129255 0.698899
vt 0.125000 0.697758
vt 0.134098 0.680826
vt 0.129843 0.679686
vt 0.136553 0.671081
vt 0.142641 0.674595
vt 0.143765 0.664081
vt 0.140650 0.660966
vt 0.153880 0.647736
vt 0.156995 0.650851
vt 0.163995 0.643639
vt 0.167509 0.649726
vt 0.173740 0.641183
vt 0.172600 0.636928
vt 0.190673 0.632086
vt 0.191813 0.636341
vt 0.201480 0.633595
vt 0.201480 0.640624
vt 0.211148 0.636341
vt 0.212288 0.632086
vt 0.229221 0.641183
vt 0.230361 0.636928
vt 0.238966 0.643639
vt 0.235452 0.649726
vt 0.245966 0.650851
vt 0.249081 0.647736
vt 0.262311 0.660966
vt 0.259196 0.664081
vt 0.266407 0.671081
vt 0.260320 0.674595
vt 0.268863 0.680826
vt 0.273118 0.679686
vt 0.277961 0.697758
vt 0.273706 0.698899
vt 0.276452 0.708566
vt 0.269423 0.708566
vt 0.273706 0.718234
vt 0.277961 0.719374
vt 0.268863 0.736306
vt 0.273118 0.737447
vt 0.266407 0.746052
vt 0.262311 0.756166
vt 0.249081 0.769396
s 1
usemtl pills
f 26/1/1 61/2/2 62/3/3 25/4/4
f 28/5/5 69/6/6 68/7/7 27/8/8
f 30/9/9 66/10/10 65/11/11 29/12/12
f 25/13/4 62/14/3 72/15/13 31/16/14
f 32/17/15 63/18/16 61/2/2 26/1/1
f 33/19/17 70/20/18 69/6/6 28/5/5
f 34/21/19 67/22/20 66/10/10 30/9/9
f 35/23/21 64/24/22 63/18/16 32/17/15
f 36/25/23 71/26/24 70/20/18 33/19/17
f 27/8/8 68/7/7 67/22/20 34/21/19
f 29/12/12 65/11/11 64/24/22 35/23/21
f 31/16/14 72/15/13 71/26/24 36/25/23
f 12/27/25 31/16/14 36/25/23 11/28/26
f 5/29/27 29/12/12 35/23/21 4/30/28
f 8/31/29 27/8/8 34/21/19 7/32/30
f 11/28/26 36/25/23 33/19/17 10/33/31
f 4/30/28 35/23/21 32/17/15 3/34/32
f 7/32/30 34/21/19 30/9/9 6/35/33
f 10/33/31 33/19/17 28/5/5 9/36/34
f 3/34/32 32/17/15 26/1/1 2/37/35
f 1/38/36 25/13/4 31/16/14 12/27/25
f 6/35/33 30/9/9 29/12/12 5/29/27
f 9/36/34 28/5/5 27/8/8 8/31/29
f 2/37/35 26/1/1 25/4/4 1/39/36
f 17/40/37 18/41/38 90/42/38 89/43/37
f 40/44/39 37/45/40 38/46/41 39/47/42
f 42/48/43 40/44/39 39/47/42 41/49/44
f 44/50/45 42/48/43 41/49/44 43/51/46
f 46/52/47 44/50/45 43/51/46 45/53/48
f 48/54/49 46/52/47 45/53/48 47/55/50
f 50/56/51 48/54/49 47/55/50 49/57/52
f 52/58/53 50/56/51 49/57/52 51/59/54
f 54/60/55 52/58/53 51/59/54 53/61/56
f 56/62/57 54/60/55 53/61/56 55/63/58
f 58/64/59 56/62/57 55/63/58 57/65/60
f 60/66/61 58/64/59 57/65/60 59/67/62
f 37/45/40 60/66/61 59/67/62 38/46/41
f 37/68/40 1/38/36 12/27/25 60/69/61
f 40/70/39 2/37/35 1/39/36 37/71/40
f 42/72/43 3/34/32 2/37/35 40/70/39
f 44/73/45 4/30/28 3/34/32 42/72/43
f 46/74/47 5/29/27 4/30/28 44/73/45
f 48/75/49 6/35/33 5/29/27 46/74/47
f 50/76/51 7/32/30 6/35/33 48/75/49
f 52/77/53 8/31/29 7/32/30 50/76/51
f 54/78/55 9/36/34 8/31/29 52/77/53
f 56/79/57 10/33/31 9/36/34 54/78/55
f 58/80/59 11/28/26 10/33/31 56/79/57
f 60/69/61 12/27/25 11/28/26 58/80/59
f 14/81/63 13/82/63 62/3/3 61/2/2
f 15/83/63 14/81/63 61/2/2 63/18/16
f 16/84/63 15/83/63 63/18/16 64/24/22
f 17/85/63 16/84/63 64/24/22 65/11/11
f 18/86/63 17/85/63 65/11/11 66/10/10
f 19/87/63 18/86/63 66/10/10 67/22/20
f 20/88/63 19/87/63 67/22/20 68/7/7
f 21/89/63 20/88/63 68/7/7 69/6/6
f 22/90/63 21/89/63 69/6/6 70/20/18
f 23/91/63 22/90/63 70/20/18 71/26/24
f 24/92/63 23/91/63 71/26/24 72/15/13
f 13/93/63 24/92/63 72/15/13 62/14/3
f 98/94/64 97/95/65 94/96/65 122/97/64
f 24/98/66 13/99/64 85/100/64 96/101/66
f 14/102/65 15/103/67 87/104/67 86/105/65
f 21/106/68 22/107/69 82/108/69 93/109/68
f 18/41/38 19/110/70 91/111/70 90/42/38
f 15/103/67 16/112/71 88/113/71 87/104/67
f 22/107/69 23/114/72 95/115/72 82/108/69
f 19/110/70 20/116/73 80/117/73 91/111/70
f 16/112/71 17/40/37 89/43/37 88/113/71
f 23/114/72 24/98/66 96/101/66 95/115/72
f 13/118/64 14/102/65 86/105/65 85/119/64
f 20/116/73 21/106/68 93/109/68 80/117/73
f 86/105/74 97/95/74 98/94/74 85/119/74
f 87/104/74 99/120/74 97/95/74 86/105/74
f 88/113/74 100/121/74 99/120/74 87/104/74
f 89/43/74 101/122/74 100/121/74 88/113/74
f 90/42/74 102/123/74 101/122/74 89/43/74
f 91/111/74 103/124/74 102/123/74 90/42/74
f 80/117/74 104/125/74 103/124/74 91/111/74
f 93/109/74 105/126/74 104/125/74 80/117/74
f 82/108/74 106/127/74 105/126/74 93/109/74
f 95/115/74 107/128/74 106/127/74 82/108/74
f 96/101/74 108/129/74 107/128/74 95/115/74
f 85/100/74 98/130/74 108/129/74 96/101/74
f 104/125/73 105/126/68 129/131/68 77/132/73
f 101/122/37 102/123/38 79/133/38 125/134/37
f 108/129/66 98/130/64 122/135/64 132/136/66
f 97/95/65 99/120/67 123/137/67 94/96/65
f 105/126/68 106/127/69 130/138/69 129/131/68
f 102/123/38 103/124/70 78/139/70 79/133/38
f 99/120/67 100/121/71 124/140/71 123/137/67
f 106/127/69 107/128/72 131/141/72 130/138/69
f 103/124/70 104/125/73 77/132/73 78/139/70
f 100/121/71 101/122/37 125/134/37 124/140/71
f 107/128/72 108/129/66 132/136/66 131/141/72
f 112/142/63 111/143/63 122/97/63 94/96/63
f 113/144/63 112/142/63 94/96/63 123/137/63
f 114/145/63 113/144/63 123/137/63 124/140/63
f 115/146/63 114/145/63 124/140/63 125/134/63
f 116/147/63 115/146/63 125/134/63 79/133/63
f 117/148/63 116/147/63 79/133/63 78/139/63
f 109/149/63 117/148/63 78/139/63 77/132/63
f 118/150/63 109/149/63 77/132/63 129/131/63
f 110/151/63 118/150/63 129/131/63 130/138/63
f 119/152/63 110/151/63 130/138/63 131/141/63
f 120/153/63 119/152/63 131/141/63 132/136/63
f 111/154/63 120/153/63 132/136/63 122/135/63
f 143/155/75 179/156/76 180/157/77 144/158/78
f 137/159/79 170/160/80 171/161/81 136/162/82
f 140/163/83 178/164/84 168/165/85 139/166/86
f 133/167/87 176/168/88 179/169/76 143/170/75
f 144/158/78 180/157/77 172/171/89 142/172/90
f 136/162/82 171/161/81 177/173/91 135/174/92
f 139/166/86 168/165/85 169/175/93 138/176/94
f 142/172/90 172/171/89 173/177/95 141/178/96
f 135/174/92 177/173/91 174/179/97 134/180/98
f 138/176/94 169/175/93 170/160/80 137/159/79
f 141/178/96 173/177/95 178/164/84 140/163/83
f 147/181/99 149/182/100 150/183/101
f 146/184/102 156/185/103 133/167/87 143/170/75
f 145/186/104 146/187/102 143/155/75 144/158/78
f 147/188/99 145/186/104 144/158/78 142/172/90
f 148/189/105 147/188/99 142/172/90 141/178/96
f 149/190/100 148/189/105 141/178/96 140/163/83
f 150/191/101 149/190/100 140/163/83 139/166/86
f 151/192/106 150/191/101 139/166/86 138/176/94
f 152/193/107 151/192/106 138/176/94 137/159/79
f 153/194/108 152/193/107 137/159/79 136/162/82
f 154/195/109 153/194/108 136/162/82 135/174/92
f 155/196/110 154/195/109 135/174/92 134/180/98
f 156/185/103 155/196/110 134/180/98 133/167/87
f 160/197/71 162/198/37 174/179/97 177/173/91
f 175/199/66 167/200/64 169/175/93 168/165/85
f 167/200/64 166/201/65 170/160/80 169/175/93
f 163/202/69 159/203/72 178/164/84 173/177/95
f 162/198/37 161/204/38 176/168/88 174/179/97
f 158/205/70 157/206/73 180/157/77 179/156/76
f 157/206/73 164/207/68 172/171/89 180/157/77
f 161/204/38 158/208/70 179/169/76 176/168/88
f 159/203/72 175/199/66 168/165/85 178/164/84
f 165/209/67 160/197/71 177/173/91 171/161/81
f 166/201/65 165/209/67 171/161/81 170/160/80
f 164/207/68 163/202/69 173/177/95 172/171/89
f 76/210/63 167/211/63 175/212/63 81/213/63
f 74/214/63 162/215/63 160/216/63 127/217/63
f 83/218/63 159/219/63 163/220/63 84/221/63
f 121/222/63 157/223/63 158/224/63 126/225/63
f 75/226/63 165/227/63 166/228/63 128/229/63
f 127/217/63 160/216/63 165/227/63 75/226/63
f 81/213/63 175/212/63 159/219/63 83/218/63
f 126/225/63 158/224/63 161/230/63 73/231/63
f 84/221/63 163/220/63 164/232/63 92/233/63
f 73/231/63 161/230/63 162/215/63 74/214/63
f 128/229/63 166/228/63 167/211/63 76/210/63
f 92/233/63 164/232/63 157/223/63 121/222/63
f 134/180/98 174/179/97 176/168/88 133/167/87
f 181/234/111 182/235/112 183/236/113 76/237/70
f 181/234/111 76/237/70 81/238/38 184/239/114
f 184/239/114 81/238/38 83/240/37 185/241/115
f 185/241/115 83/240/37 84/242/71 186/243/116
f 186/243/116 84/242/71 92/244/67 187/245/117
f 187/245/117 92/244/67 121/246/65 188/247/118
f 188/247/118 121/246/65 126/248/64 189/249/119
f 189/250/119 126/251/64 73/252/66 190/253/120
f 190/253/120 73/252/66 74/254/72 191/255/121
f 191/255/121 74/254/72 127/256/69 192/257/122
f 192/257/122 127/256/69 75/258/68 193/259/123
f 193/259/123 75/258/68 128/260/73 194/261/124
f 194/261/124 128/260/73 76/237/70 183/236/113
f 195/262/125 219/263/126 220/264/127 196/265/128
f 196/265/128 220/264/127 221/266/129 197/267/130
f 197/267/130 221/266/129 222/268/131 198/269/132
f 198/269/132 222/268/131 223/270/133 199/271/117
f 199/271/117 223/270/133 224/272/134 200/273/118
f 200/273/118 224/272/134 225/274/135 201/275/119
f 201/276/119 225/277/135 226/278/136 202/279/120
f 202/279/120 226/278/136 227/280/137 203/281/121
f 203/281/121 227/280/137 228/282/138 204/283/139
f 204/283/139 228/282/138 229/284/140 205/285/141
f 205/285/141 229/284/140 230/286/142 206/287/143
f 206/287/143 230/286/142 231/288/126 207/289/111
f 207/289/111 231/288/126 232/290/127 208/291/114
f 208/291/114 232/290/127 233/292/129 209/293/115
f 209/293/115 233/292/129 234/294/131 210/295/116
f 210/295/116 234/294/131 235/296/133 211/297/117
f 211/297/117 235/296/133 236/298/134 212/299/118
f 212/299/118 236/298/134 237/300/135 213/301/119
f 213/302/119 237/303/135 238/304/136 214/305/120
f 214/305/120 238/304/136 239/306/137 215/307/121
f 215/307/121 239/306/137 240/308/144 216/309/139
f 216/309/139 240/308/144 241/310/145 217/311/141
f 217/311/141 241/310/145 242/312/146 218/313/143
f 218/313/143 242/312/146 182/235/112 181/234/111
f 195/262/147 196/265/148 243/314/149
f 243/314/149 196/265/148 197/267/150 244/315/151
f 244/315/151 197/267/150 198/269/152 245/316/153
f 245/316/153 198/269/152 199/271/154 246/317/155
f 246/317/155 199/271/154 200/273/156 247/318/157
f 247/318/157 200/273/156 201/275/158 248/319/159
f 248/320/159 201/276/158 202/279/160 249/321/161
f 249/321/161 202/279/160 203/281/162 250/322/163
f 250/322/163 203/281/162 204/283/164 251/323/165
f 251/323/165 204/283/164 205/285/166 252/324/167
f 252/324/167 205/285/166 206/287/168 253/325/169
f 253/325/169 206/287/168 207/289/170 254/326/171
f 254/326/171 207/289/170 208/291/172 255/327/173
f 255/327/173 208/291/172 209/293/174 256/328/175
f 256/328/175 209/293/174 210/295/176 257/329/177
f 257/329/177 210/295/176 211/297/154 258/330/155
f 258/330/155 211/297/154 212/299/156 259/331/157
f 259/331/157 212/299/156 213/301/158 260/332/159
f 260/333/159 213/302/158 214/305/160 261/334/161
f 261/334/161 214/305/160 215/307/162 262/335/163
f 262/335/163 215/307/162 216/309/164 263/336/165
f 263/336/165 216/309/164 217/311/166 264/337/167
f 264/337/167 217/311/166 218/313/168 265/338/169
f 265/338/169 218/313/168 181/234/170 266/339/171
f 266/339/171 181/234/170 184/239/172 267/340/173
f 267/340/173 184/239/172 185/241/174 268/341/175
f 268/341/175 185/241/174 186/243/176 269/342/177
f 269/342/177 186/243/176 187/245/154 270/343/155
f 270/343/155 187/245/154 188/247/156 271/344/157
f 271/344/157 188/247/156 189/249/158 272/345/159
f 272/346/159 189/250/158 190/253/160 273/347/161
f 273/347/161 190/253/160 191/255/162 274/348/163
f 274/348/163 191/255/162 192/257/178 275/349/179
f 275/349/179 192/257/178 193/259/180 276/350/181
f 276/350/181 193/259/180 194/261/182 277/351/183
f 277/351/183 194/261/182 183/236/184
f 278/352/185 195/262/125 243/314/186 279/353/187
f 279/353/187 243/314/186 244/315/188 280/354/189
f 280/354/189 244/315/188 245/316/190 281/355/191
f 281/355/191 245/316/190 246/317/192 282/356/193
f 282/356/193 246/317/192 247/318/194 283/357/195
f 283/357/195 247/318/194 248/319/196 284/358/197
f 284/359/197 248/320/196 249/321/198 285/360/199
f 285/360/199 249/321/198 250/322/200 286/361/201
f 286/361/201 250/322/200 251/323/202 287/362/203
f 287/362/203 251/323/202 252/324/204 288/363/205
f 288/363/205 252/324/204 253/325/206 289/364/207
f 289/364/207 253/325/206 254/326/208 290/365/209
f 290/365/209 254/326/208 255/327/210 291/366/211
f 291/366/211 255/327/210 256/328/212 292/367/213
f 292/367/213 256/328/212 257/329/214 293/368/215
f 293/368/215 257/329/214 258/330/192 294/369/193
f 294/369/193 258/330/192 259/331/194 295/370/195
f 295/370/195 259/331/194 260/332/196 296/371/197
f 296/372/197 260/333/196 261/334/198 297/373/199
f 297/373/199 261/334/198 262/335/200 298/374/201
f 298/374/201 262/335/200 263/336/202 299/375/203
f 299/375/203 263/336/202 264/337/204 300/376/205
f 300/376/205 264/337/204 265/338/206 301/377/207
f 301/377/207 265/338/206 266/339/208 302/378/209
f 302/378/209 266/339/208 267/340/210 303/379/211
f 303/379/211 267/340/210 268/341/212 304/380/213
f 304/380/213 268/341/212 269/342/214 305/381/215
f 305/381/215 269/342/214 270/343/192 306/382/193
f 306/382/193 270/343/192 271/344/194 307/383/195
f 307/383/195 271/344/194 272/345/196 308/384/197
f 308/385/197 272/346/196 273/347/198 309/386/199
f 309/386/199 273/347/198 274/348/200 310/387/201
f 310/387/201 274/348/200 275/349/216 311/388/217
f 311/388/217 275/349/216 276/350/218 312/389/219
f 312/389/219 276/350/218 277/351/220 313/390/221
f 313/390/221 277/351/220 183/236/113 182/235/112
f 278/352/222 279/353/223 314/391/224
f 314/391/224 279/353/223 280/354/225 315/392/226
f 315/392/226 280/354/225 281/355/227 316/393/228
f 316/393/228 281/355/227 282/356/229 317/394/230
f 317/394/230 282/356/229 283/357/231 318/395/232
f 318/395/232 283/357/231 284/358/233 319/396/234
f 319/397/234 284/359/233 285/360/235 320/398/236
f 320/398/236 285/360/235 286/361/237 321/399/238
f 321/399/238 286/361/237 287/362/239 322/400/240
f 322/400/240 287/362/239 288/363/241 323/401/242
f 323/401/242 288/363/241 289/364/243 324/402/244
f 324/402/244 289/364/243 290/365/245 219/263/246
f 219/263/246 290/365/245 291/366/247 220/264/248
f 220/264/248 291/366/247 292/367/249 221/266/250
f 221/266/250 292/367/249 293/368/251 222/268/252
f 222/268/252 293/368/251 294/369/229 223/270/230
f 223/270/230 294/369/229 295/370/231 224/272/232
f 224/272/232 295/370/231 296/371/233 225/274/234
f 225/277/234 296/372/233 297/373/235 226/278/236
f 226/278/236 297/373/235 298/374/237 227/280/238
f 227/280/238 298/374/237 299/375/239 228/282/240
f 228/282/240 299/375/239 300/376/241 229/284/242
f 229/284/242 300/376/241 301/377/243 230/286/244
f 230/286/244 301/377/243 302/378/245 231/288/246
f 231/288/246 302/378/245 303/379/247 232/290/248
f 232/290/248 303/379/247 304/380/249 233/292/250
f 233/292/250 304/380/249 305/381/251 234/294/252
f 234/294/252 305/381/251 306/382/229 235/296/230
f 235/296/230 306/382/229 307/383/231 236/298/232
f 236/298/232 307/383/231 308/384/233 237/300/234
f 237/303/234 308/385/233 309/386/235 238/304/236
f 238/304/236 309/386/235 310/387/237 239/306/238
f 239/306/238 310/387/237 311/388/253 240/308/254
f 240/308/254 311/388/253 312/389/255 241/310/256
f 241/310/256 312/389/255 313/390/257 242/312/258
f 242/312/258 313/390/257 182/235/259
f 117/148/70 278/352/185 314/391/260 116/147/38
f 116/147/38 314/391/260 315/392/261 115/146/37
f 115/146/37 315/392/261 316/393/262 114/145/71
f 114/145/71 316/393/262 317/394/133 113/144/67
f 113/144/67 317/394/133 318/395/134 112/142/65
f 112/142/65 318/395/134 319/396/135 111/143/64
f 111/154/64 319/397/135 320/398/136 120/153/66
f 120/153/66 320/398/136 321/399/137 119/152/72
f 119/152/72 321/399/137 322/400/138 110/151/69
f 110/151/69 322/400/138 323/401/140 118/150/68
f 118/150/68 323/401/140 324/402/142 109/149/73
f 109/149/73 324/402/142 219/263/126 117/148/70
f 117/148/70 219/263/126 195/262/125 278/352/185
f 39/47/42 38/46/41 49/57/52 47/55/50
f 51/59/54 59/67/62 57/65/60 53/61/56
f 38/46/41 59/67/62 51/59/54 49/57/52
f 57/65/60 55/63/58 53/61/56
f 43/51/46 41/49/44 45/53/48
f 156/403/103 146/404/102 151/405/106 152/406/107
f 156/403/103 153/407/108 154/408/109
f 146/404/102 145/409/104 150/183/101 151/405/106
f 150/183/101 145/409/104 147/181/99
f 147/181/99 148/410/105 149/182/100
f 154/408/109 155/411/110 156/403/103
f 156/403/103 152/406/107 153/407/108
f 330/412/68 328/413/73 340/414/73 342/415/68
f 335/416/37 334/417/71 346/418/71 347/419/37
f 325/420/65 326/421/64 338/422/64 337/423/65
f 328/413/73 329/424/70 341/425/70 340/414/73
f 336/426/38 335/416/37 347/419/37 348/427/38
f 326/421/64 327/428/66 339/429/66 338/422/64
f 333/430/67 325/420/65 337/423/65 345/431/67
f 332/432/72 331/433/69 343/434/69 344/435/72
f 329/436/70 336/426/38 348/427/38 341/437/70
f 334/417/71 333/430/67 345/431/67 346/418/71
f 327/428/66 332/432/72 344/435/72 339/429/66
f 331/433/69 330/412/68 342/415/68 343/434/69
f 340/438/74 346/439/74 339/440/74
f 373/441/263 474/442/263 481/443/73 374/444/73
f 374/444/73 481/443/73 475/445/264 375/446/264
f 473/447/265 399/448/265 398/449/68 498/450/68
f 498/450/68 398/449/68 397/451/266 495/452/266
f 391/453/267 482/454/267 483/455/71 392/456/71
f 392/456/71 483/455/71 484/457/268 393/458/268
f 504/459/269 396/460/269 395/461/37 492/462/37
f 492/462/37 395/461/37 394/463/270 491/464/270
f 406/465/271 503/466/271 499/467/66 407/468/66
f 407/468/66 499/467/66 500/469/272 408/470/272
f 497/471/273 387/472/273 386/473/64 488/474/64
f 488/475/64 386/476/64 385/477/274 487/478/274
f 494/479/275 402/480/275 401/481/69 472/482/69
f 472/482/69 401/481/69 400/483/276 471/484/276
f 493/485/277 381/486/277 380/487/38 501/488/38
f 501/488/38 380/487/38 379/489/278 490/490/278
f 388/491/279 485/492/279 469/493/67 389/494/67
f 389/494/67 469/493/67 470/495/280 390/496/280
f 382/497/281 486/498/281 479/499/65 383/500/65
f 383/500/65 479/499/65 480/501/282 384/502/282
f 496/503/283 405/504/283 404/505/72 478/506/72
f 478/506/72 404/505/72 403/507/284 477/508/284
f 376/509/285 476/510/285 502/511/70 377/512/70
f 377/512/70 502/511/70 489/513/286 378/514/286
f 467/515/287 444/516/287 497/471/288
f 491/464/289 438/517/290 493/485/291
f 449/518/292 450/519/292 484/457/293
f 477/508/294 466/520/295 500/469/296
f 458/521/297 460/522/297 494/479/298
f 439/523/299 436/524/299 489/513/300
f 486/498/301 448/525/302 470/495/303
f 487/478/304 441/526/305 480/501/306
f 476/510/307 433/527/308 475/445/309
f 474/442/310 457/528/311 473/447/312
f 471/484/313 463/529/314 496/503/315
s 0
f 350/530/316 433/527/316 437/531/316 351/532/316
f 475/445/317 433/527/317 350/530/317 375/446/317
s 1
f 424/533/63 415/534/63 452/535/63
s 0
f 349/536/318 434/537/318 474/442/318 373/441/318
f 366/538/319 457/528/319 434/537/319 349/536/319
f 352/539/320 436/524/320 439/523/320 353/540/320
f 489/513/321 436/524/321 352/539/321 378/514/321
f 351/532/322 437/531/322 476/510/322 376/509/322
f 354/541/318 438/517/318 455/542/318 363/543/318
f 493/485/319 438/517/319 354/541/319 381/486/319
f 353/540/323 439/523/323 490/490/323 379/489/323
f 480/501/322 441/526/322 356/544/322 384/502/322
f 356/544/324 441/526/324 445/545/324 357/546/324
f 355/547/325 442/548/325 486/498/325 382/497/325
f 360/549/326 448/525/326 442/548/326 355/547/326
f 497/471/323 444/516/323 358/550/323 387/472/323
f 358/550/327 444/516/327 467/515/327 371/551/327
f 357/546/317 445/545/317 487/478/317 385/477/317
f 470/495/318 448/525/318 360/549/318 390/496/318
f 359/552/327 449/518/327 485/492/327 388/491/327
f 362/553/323 450/519/323 449/518/323 359/552/323
f 484/457/320 450/519/320 362/553/320 393/458/320
f 364/554/322 454/555/322 451/556/322 361/557/322
f 361/557/324 451/556/324 482/454/324 391/453/324
f 504/459/316 454/555/316 364/554/316 396/460/316
f 363/543/326 455/542/326 491/464/326 394/463/326
f 473/447/325 457/528/325 366/538/325 399/448/325
f 368/558/321 460/522/321 458/521/321 365/559/321
f 365/559/320 458/521/320 495/452/320 397/451/320
f 494/479/327 460/522/327 368/558/327 402/480/327
f 370/560/317 463/529/317 461/561/317 367/562/317
f 367/562/316 461/561/316 471/484/316 400/483/316
f 496/503/324 463/529/324 370/560/324 405/504/324
f 369/563/319 464/564/319 477/508/319 403/507/319
f 372/565/325 466/520/325 464/564/325 369/563/325
f 500/469/326 466/520/326 372/565/326 408/470/326
f 371/551/321 467/515/321 503/466/321 406/465/321
s 1
f 399/566/74 373/567/74 325/568/74
f 402/569/74 397/570/74 334/571/74
f 425/572/328 447/573/329 470/495/330 469/493/328
f 462/574/331 420/575/332 472/482/332 471/484/333
f 465/576/334 428/577/335 478/506/335 477/508/336
f 427/578/337 440/579/338 480/501/339 479/499/337
f 435/580/340 409/581/341 481/443/341 474/442/342
f 452/582/343 414/583/344 483/455/344 482/454/345
f 446/584/346 419/585/347 488/475/347 487/478/348
f 456/586/349 416/587/350 492/462/350 491/464/351
f 419/588/347 443/589/352 497/471/353 488/474/347
f 409/581/341 410/590/354 475/445/355 481/443/341
f 411/591/356 412/592/357 473/447/358 498/450/356
f 413/593/359 411/591/356 498/450/356 495/452/360
f 414/583/344 415/594/361 484/457/362 483/455/344
f 417/595/363 418/596/364 500/469/365 499/467/363
f 421/597/366 422/598/367 493/485/368 501/488/366
f 423/599/369 421/597/366 501/488/366 490/490/370
f 424/600/371 425/572/328 469/493/328 485/492/372
f 426/601/373 427/578/337 479/499/337 486/498/374
f 428/577/335 429/602/375 496/503/376 478/506/335
f 430/603/377 431/604/378 502/511/378 476/510/379
f 431/604/378 432/605/380 489/513/381 502/511/378
f 468/606/382 417/595/363 499/467/363 503/466/383
f 420/575/332 459/607/384 494/479/385 472/482/332
f 416/587/350 453/608/386 504/459/387 492/462/350
f 482/454/388 454/555/389 504/459/390
f 430/609/63 443/610/63 419/611/63 431/612/63
f 431/612/63 419/611/63 446/613/63 432/614/63
f 429/615/63 410/616/63 412/617/63
f 423/618/63 432/614/63 440/619/63
f 432/614/63 446/613/63 440/619/63
f 440/619/63 427/620/63 426/621/63
f 422/622/63 421/623/63 423/618/63
f 453/624/63 416/625/63 456/626/63
f 456/626/63 422/622/63 423/618/63
f 423/618/63 440/619/63 426/621/63
f 447/627/63 425/628/63 424/533/63
f 423/618/63 426/621/63 424/533/63
f 426/621/63 447/627/63 424/533/63
f 453/624/63 456/626/63 423/618/63
f 415/534/63 414/629/63 452/535/63
f 452/535/63 453/624/63 424/533/63
f 453/624/63 423/618/63 424/533/63
f 459/630/63 420/631/63 462/632/63
f 429/615/63 428/633/63 465/634/63
f 459/630/63 462/632/63 429/615/63
f 412/617/63 411/635/63 413/636/63
f 413/636/63 459/630/63 429/615/63
f 429/615/63 465/634/63 418/637/63
f 418/637/63 417/638/63 468/639/63
f 468/639/63 443/610/63 410/616/63
f 443/610/63 430/609/63 410/616/63
f 410/616/63 409/640/63 435/641/63
f 429/615/63 418/637/63 468/639/63
f 412/617/63 413/636/63 429/615/63
f 410/616/63 435/641/63 412/617/63
f 429/615/63 468/639/63 410/616/63
f 339/440/74 344/642/74 343/643/74
f 343/643/74 342/644/74 340/438/74
f 340/438/74 341/645/74 346/439/74
f 341/645/74 348/646/74 346/439/74
f 348/646/74 347/647/74 346/439/74
f 346/439/74 345/648/74 337/649/74
f 337/649/74 338/650/74 346/439/74
f 338/650/74 339/440/74 346/439/74
f 339/440/74 343/643/74 340/438/74
f 497/471/353 443/589/352 503/466/383
f 443/589/352 468/606/382 503/466/383
f 503/466/383 467/515/287 497/471/353
f 493/485/368 422/598/367 456/586/349
f 491/464/289 455/542/290 438/517/290
f 493/485/368 456/586/349 491/464/351
f 484/457/362 415/594/361 485/492/372
f 415/594/361 424/600/371 485/492/372
f 485/492/372 449/518/292 484/457/362
f 500/469/365 418/596/364 465/576/334
f 477/508/294 464/564/295 466/520/295
f 500/469/365 465/576/334 477/508/336
f 494/479/385 459/607/384 495/452/360
f 459/607/384 413/593/359 495/452/360
f 495/452/360 458/521/297 494/479/385
f 489/513/381 432/605/380 490/490/370
f 432/605/380 423/599/369 490/490/370
f 490/490/370 439/523/299 489/513/381
f 470/495/330 447/573/329 486/498/374
f 447/573/329 426/601/373 486/498/374
f 486/498/301 442/548/302 448/525/302
f 480/501/339 440/579/338 446/584/346
f 487/478/304 445/545/305 441/526/305
f 480/501/339 446/584/346 487/478/348
f 475/445/355 410/590/354 430/603/377
f 476/510/307 437/531/308 433/527/308
f 475/445/355 430/603/377 476/510/379
f 473/447/358 412/592/357 435/580/340
f 474/442/310 434/537/311 457/528/311
f 473/447/358 435/580/340 474/442/342
f 496/503/376 429/602/375 462/574/331
f 471/484/313 461/561/314 463/529/314
f 496/503/376 462/574/331 471/484/333
f 325/568/74 333/651/74 399/566/74
f 333/651/74 398/652/74 399/566/74
f 399/566/74 366/653/74 349/654/74
f 373/567/74 374/655/74 325/568/74
f 399/566/74 349/654/74 373/567/74
f 326/656/74 325/568/74 375/657/74
f 325/568/74 374/655/74 375/657/74
f 375/657/74 350/658/74 376/659/74
f 350/658/74 351/660/74 376/659/74
f 376/659/74 377/661/74 326/656/74
f 377/661/74 378/662/74 326/656/74
f 378/662/74 352/663/74 353/664/74
f 379/665/74 380/666/74 327/667/74
f 380/666/74 381/668/74 327/667/74
f 378/662/74 353/664/74 379/665/74
f 375/657/74 376/659/74 326/656/74
f 378/662/74 379/665/74 327/667/74
f 381/668/74 354/669/74 363/670/74
f 394/671/74 395/672/74 332/673/74
f 395/672/74 396/674/74 332/673/74
f 381/668/74 363/670/74 394/671/74
f 326/656/74 378/662/74 327/667/74
f 381/668/74 394/671/74 332/673/74
f 396/674/74 364/675/74 391/676/74
f 364/675/74 361/677/74 391/676/74
f 391/676/74 392/678/74 331/679/74
f 392/678/74 393/680/74 331/679/74
f 327/667/74 381/668/74 332/673/74
f 396/674/74 391/676/74 331/679/74
f 393/680/74 362/681/74 359/682/74
f 388/683/74 389/684/74 330/685/74
f 389/684/74 390/686/74 330/685/74
f 393/680/74 359/682/74 388/683/74
f 332/673/74 396/674/74 331/679/74
f 393/680/74 388/683/74 330/685/74
f 390/686/74 360/687/74 355/688/74
f 382/689/74 383/690/74 328/691/74
f 383/690/74 384/692/74 328/691/74
f 390/686/74 355/688/74 382/689/74
f 331/679/74 393/680/74 330/685/74
f 390/686/74 382/689/74 328/691/74
f 384/692/74 356/693/74 385/694/74
f 356/693/74 357/695/74 385/694/74
f 385/694/74 386/696/74 329/697/74
f 386/696/74 387/698/74 329/697/74
f 330/685/74 390/686/74 328/691/74
f 384/692/74 385/694/74 329/697/74
f 387/698/74 358/699/74 371/700/74
f 406/701/74 407/702/74 336/703/74
f 407/702/74 408/704/74 336/703/74
f 387/698/74 371/700/74 406/701/74
f 328/691/74 384/692/74 329/697/74
f 387/698/74 406/701/74 336/703/74
f 408/704/74 372/705/74 369/706/74
f 403/707/74 404/708/74 335/709/74
f 404/708/74 405/710/74 335/709/74
f 408/704/74 369/706/74 403/707/74
f 329/697/74 387/698/74 336/703/74
f 408/704/74 403/707/74 335/709/74
f 405/710/74 370/711/74 400/712/74
f 370/711/74 367/713/74 400/712/74
f 400/712/74 401/714/74 334/571/74
f 401/714/74 402/569/74 334/571/74
f 336/703/74 408/704/74 335/709/74
f 405/710/74 400/712/74 334/571/74
f 402/569/74 368/715/74 365/716/74
f 397/570/74 398/652/74 333/651/74
f 402/569/74 365/716/74 397/570/74
f 335/709/74 405/710/74 334/571/74
f 397/570/74 333/651/74 334/571/74
f 504/459/387 453/608/386 452/582/343
f 482/454/388 451/556/389 454/555/389
f 504/459/387 452/582/343 482/454/345
f 41/49/44 39/47/42 47/55/50 45/53/48
