# Blender 4.5.6 LTS
# www.blender.org
mtllib red_tincan.mtl
o can_tall
v -0.075824 1.000000 0.131331
v 0.000000 1.000000 0.151648
v 0.075824 1.000000 0.131331
v 0.151648 1.000000 -0.000000
v 0.131331 1.000000 -0.075824
v 0.075824 1.000000 -0.131331
v -0.131331 1.401438 -0.075824
v -0.151648 1.401438 -0.000000
v 0.131331 1.401438 -0.075824
v 0.075824 1.401438 -0.131331
v 0.000000 1.000000 -0.138769
v -0.069384 1.000000 -0.120177
v -0.120177 1.000000 -0.069384
v -0.138769 1.000000 -0.000000
v -0.120177 1.000000 0.069384
v -0.069384 1.000000 0.120177
v 0.000000 1.000000 0.138768
v 0.069384 1.000000 0.120177
v 0.120177 1.000000 0.069384
v 0.138769 1.000000 -0.000000
v 0.120177 1.000000 -0.069384
v 0.069384 1.000000 -0.120177
v 0.000000 1.401438 -0.142136
v -0.071068 1.401438 -0.123093
v -0.123093 1.401438 -0.071068
v -0.142136 1.401438 -0.000000
v -0.123093 1.401438 0.071068
v -0.071068 1.401438 0.123093
v 0.000000 1.401438 0.142136
v 0.071068 1.401438 0.123093
v 0.123093 1.401438 0.071068
v 0.142136 1.401438 -0.000000
v 0.123093 1.401438 -0.071068
v 0.071068 1.401438 -0.123093
v 0.000000 1.022446 0.142136
v 0.000000 1.009504 0.138768
v -0.071068 1.022446 0.123093
v -0.069384 1.009504 0.120177
v 0.069384 1.009504 0.120177
v 0.071068 1.022446 0.123093
v 0.123093 1.022446 0.071068
v 0.120177 1.009504 0.069384
v -0.142136 1.022446 -0.000000
v -0.138769 1.009504 -0.000000
v -0.123093 1.022446 -0.071068
v -0.120177 1.009504 -0.069384
v -0.120177 1.009504 0.069384
v -0.123093 1.022446 0.071068
v 0.120177 1.009504 -0.069384
v 0.123093 1.022446 -0.071068
v 0.142136 1.022446 -0.000000
v 0.138769 1.009504 -0.000000
v 0.069384 1.009504 -0.120177
v 0.071068 1.022446 -0.123093
v 0.000000 1.022446 -0.142136
v 0.000000 1.009504 -0.138769
v -0.069384 1.009504 -0.120177
v -0.071068 1.022446 -0.123093
v 0.000000 1.384569 -0.151648
v 0.075824 1.016869 -0.131331
v 0.075824 1.384569 -0.131331
v 0.131331 1.016869 -0.075824
v 0.131331 1.384569 -0.075824
v -0.131331 1.016869 -0.075824
v -0.151648 1.384569 -0.000000
v -0.151648 1.016869 -0.000000
v 0.131331 1.384569 0.075824
v -0.075824 1.016869 0.131331
v 0.000000 1.384569 0.151648
v 0.000000 1.016869 0.151648
v 0.078775 1.003770 -0.136442
v 0.136442 1.003770 -0.078775
v 0.157549 1.003770 -0.000000
v 0.131331 1.000000 0.075824
v 0.136442 1.003770 0.078775
v 0.078775 1.003770 0.136442
v 0.000000 1.003770 0.157549
v -0.078775 1.003770 0.136442
v -0.136442 1.003770 0.078775
v -0.131331 1.000000 0.075824
v -0.157549 1.003770 -0.000000
v -0.151648 1.000000 -0.000000
v -0.131331 1.000000 -0.075824
v -0.136442 1.003770 -0.078775
v 0.000000 1.000000 -0.151648
v 0.000000 1.003770 -0.157549
v -0.078775 1.003770 -0.136442
v -0.075824 1.000000 -0.131331
v -0.078775 1.397668 -0.136442
v -0.075824 1.401438 -0.131331
v 0.000000 1.401438 -0.151648
v 0.000000 1.397668 -0.157549
v -0.136442 1.397668 -0.078775
v -0.157549 1.397668 -0.000000
v -0.136442 1.397668 0.078774
v -0.131331 1.401438 0.075824
v -0.075824 1.401438 0.131331
v -0.078775 1.397668 0.136441
v 0.000000 1.401438 0.151648
v 0.000000 1.397668 0.157549
v 0.075824 1.401438 0.131331
v 0.078775 1.397668 0.136441
v 0.136442 1.397668 0.078774
v 0.131331 1.401438 0.075824
v 0.151648 1.401438 -0.000000
v 0.157549 1.397668 -0.000000
v 0.136442 1.397668 -0.078775
v 0.078775 1.397668 -0.136442
v 0.136442 1.388339 -0.078775
v 0.157549 1.388339 -0.000000
v 0.151648 1.384569 -0.000000
v 0.151648 1.016869 -0.000000
v 0.157549 1.013099 -0.000000
v 0.136442 1.013099 -0.078775
v 0.136442 1.388339 0.078774
v 0.136442 1.013099 0.078775
v 0.131331 1.016869 0.075824
v -0.075824 1.384569 -0.131331
v -0.078775 1.388339 -0.136442
v 0.000000 1.388339 -0.157549
v 0.000000 1.016869 -0.151648
v 0.000000 1.013099 -0.157549
v -0.078775 1.013099 -0.136442
v -0.075824 1.016869 -0.131331
v 0.078775 1.388339 0.136441
v 0.075824 1.384569 0.131331
v 0.000000 1.388339 0.157549
v 0.000000 1.013099 0.157549
v 0.078775 1.013099 0.136442
v 0.075824 1.016869 0.131331
v -0.078775 1.388339 0.136441
v -0.075824 1.384569 0.131331
v -0.078775 1.013099 0.136442
v -0.131331 1.384569 0.075824
v -0.136442 1.388339 0.078774
v -0.157549 1.388339 -0.000000
v -0.157549 1.013099 -0.000000
v -0.136442 1.013099 0.078775
v -0.131331 1.016869 0.075824
v -0.136442 1.388339 -0.078775
v -0.131331 1.384569 -0.075824
v -0.136442 1.013099 -0.078775
v 0.078775 1.388339 -0.136442
v 0.078775 1.013099 -0.136442
v 0.000000 1.391216 0.142136
v -0.071068 1.391216 0.123093
v 0.071068 1.391216 0.123093
v 0.123093 1.391216 0.071068
v -0.142136 1.391216 -0.000000
v -0.123093 1.391216 -0.071068
v -0.123093 1.391216 0.071068
v 0.123093 1.391216 -0.071068
v 0.142136 1.391216 -0.000000
v 0.071068 1.391216 -0.123093
v 0.000000 1.391216 -0.142136
v -0.071068 1.391216 -0.123093
v 0.000000 1.373521 0.142136
v -0.071068 1.373521 0.123093
v 0.071068 1.373521 0.123093
v 0.123093 1.373521 0.071068
v -0.142136 1.373521 -0.000000
v -0.123093 1.373521 -0.071068
v -0.123093 1.373521 0.071068
v 0.123093 1.373521 -0.071068
v 0.142136 1.373521 -0.000000
v 0.071068 1.373521 -0.123093
v 0.000000 1.373521 -0.142136
v -0.071068 1.373521 -0.123093
vn -0.1027 -0.9787 -0.1779
vn -0.0000 -0.9787 -0.2054
vn -0.0000 -1.0000 -0.0000
vn -0.1779 -0.9787 -0.1027
vn -0.2054 -0.9787 -0.0000
vn -0.1779 -0.9787 0.1027
vn -0.1027 -0.9787 0.1779
vn -0.0000 -0.9787 0.2054
vn 0.1027 -0.9787 0.1779
vn 0.1779 -0.9787 0.1027
vn 0.2054 -0.9787 -0.0000
vn 0.1779 -0.9787 -0.1027
vn 0.1027 -0.9787 -0.1779
vn -0.0000 0.9696 -0.2447
vn -0.1224 0.9696 -0.2120
vn -0.0000 1.0000 -0.0000
vn -0.2120 0.9696 -0.1224
vn -0.2447 0.9696 -0.0000
vn -0.2120 0.9696 0.1224
vn -0.1224 0.9696 0.2120
vn -0.0000 0.9696 0.2447
vn 0.1224 0.9696 0.2120
vn 0.2120 0.9696 0.1224
vn 0.2447 0.9696 -0.0000
vn 0.2120 0.9696 -0.1224
vn 0.1224 0.9696 -0.2120
vn -0.0000 -0.0000 -1.0000
vn -0.5000 -0.0000 -0.8660
vn -0.0000 -0.0000 1.0000
vn 0.5000 -0.0000 0.8660
vn 0.5000 -0.0000 -0.8660
vn 0.8660 -0.0000 -0.5000
vn 1.0000 -0.0000 -0.0000
vn -0.8660 -0.0000 -0.5000
vn -1.0000 -0.0000 -0.0000
vn -0.8660 -0.0000 0.5000
vn -0.5000 -0.0000 0.8660
vn 0.8660 -0.0000 0.5000
vn 0.8659 -0.0162 -0.4999
vn 0.9999 -0.0162 0.0003
vn 0.9999 0.0162 -0.0000
vn 0.8660 0.0162 -0.4997
vn 0.8662 -0.0162 0.4994
vn 0.8659 0.0162 0.4999
vn -0.4999 -0.0162 -0.8659
vn 0.0003 -0.0162 -0.9999
vn -0.0000 0.0162 -0.9999
vn -0.5000 0.0162 -0.8659
vn 0.4999 -0.0162 0.8659
vn -0.0001 -0.0162 0.9999
vn -0.0000 0.0162 0.9999
vn 0.5000 0.0162 0.8659
vn -0.5005 -0.0162 0.8656
vn -0.4999 0.0162 0.8659
vn -0.8659 -0.0162 0.4999
vn -0.9999 -0.0162 -0.0003
vn -0.9999 0.0162 -0.0000
vn -0.8657 0.0162 0.5002
vn -0.8656 -0.0162 -0.5005
vn -0.8659 0.0162 -0.4999
vn 0.4999 -0.0162 -0.8659
vn 0.4999 0.0162 -0.8659
vn -0.7914 -0.4062 -0.4569
vn -0.4569 -0.4062 -0.7914
vn -0.4569 -0.4062 0.7914
vn -0.7914 -0.4062 0.4569
vn 0.7914 -0.4062 0.4569
vn 0.4569 -0.4062 0.7914
vn 0.4569 -0.4062 -0.7914
vn 0.7914 -0.4062 -0.4569
vn -0.0000 0.4061 -0.9138
vn -0.4569 0.4061 -0.7914
vn -0.9138 0.4061 -0.0000
vn -0.7914 0.4061 0.4569
vn 0.4569 0.4061 0.7914
vn 0.7914 0.4061 0.4569
vn 0.9138 0.4061 -0.0000
vn 0.7914 0.4061 -0.4569
vn 0.9138 0.4062 -0.0000
vn 0.7914 0.4062 -0.4569
vn -0.0000 -0.4062 -0.9138
vn -0.0000 0.4062 0.9138
vn 0.4569 0.4062 0.7914
vn 0.7914 0.4062 0.4569
vn -0.0000 -0.4062 0.9138
vn 0.9138 -0.4062 -0.0000
vn 0.4569 0.4061 -0.7914
vn -0.4569 0.4062 0.7914
vn -0.9138 -0.4062 -0.0000
vn -0.0000 0.4061 0.9138
vn -0.7914 0.4061 -0.4569
vn -0.4569 0.4061 0.7914
vn -0.0000 0.4062 -0.9138
vn -0.4569 0.4062 -0.7914
vn -0.9138 0.4062 -0.0000
vn -0.7914 0.4062 0.4569
vn -0.7914 0.4062 -0.4569
vn 0.4569 0.4062 -0.7914
vt 0.084681 0.011852
vt 0.001576 0.011852
vt 0.001576 0.000977
vt 0.084681 0.000977
vt 0.167787 0.011852
vt 0.167787 0.000977
vt 0.250892 0.011852
vt 0.250892 0.000977
vt 0.333997 0.011852
vt 0.333997 0.000977
vt 0.417102 0.011852
vt 0.417102 0.000977
vt 0.500208 0.011852
vt 0.500208 0.000977
vt 0.583313 0.011852
vt 0.583313 0.000977
vt 0.666418 0.011852
vt 0.666418 0.000977
vt 0.749523 0.011852
vt 0.749523 0.000977
vt 0.832629 0.011852
vt 0.832629 0.000977
vt 0.915734 0.011852
vt 0.915734 0.000977
vt 0.998839 0.011852
vt 0.998839 0.000977
vt 0.001576 0.535299
vt 0.084681 0.535299
vt 0.084681 0.543307
vt 0.001576 0.543307
vt 0.167787 0.535299
vt 0.167787 0.543307
vt 0.250892 0.535299
vt 0.250892 0.543307
vt 0.333997 0.535299
vt 0.333997 0.543307
vt 0.417102 0.535299
vt 0.417102 0.543307
vt 0.500208 0.535299
vt 0.500208 0.543307
vt 0.583313 0.535299
vt 0.583313 0.543307
vt 0.666418 0.535299
vt 0.666418 0.543307
vt 0.749523 0.535299
vt 0.749523 0.543307
vt 0.832629 0.535299
vt 0.832629 0.543307
vt 0.915734 0.535299
vt 0.915734 0.543307
vt 0.998839 0.535299
vt 0.998839 0.543307
vt 0.328400 0.528231
vt 0.328400 0.993545
vt 0.274634 0.993545
vt 0.274634 0.528231
vt 0.650998 0.993545
vt 0.597232 0.993545
vt 0.597232 0.528231
vt 0.650998 0.528231
vt 0.160570 0.977690
vt 0.094383 0.977690
vt 0.096535 0.969510
vt 0.158346 0.969529
vt 0.037052 0.944616
vt 0.043003 0.938607
vt 0.435933 0.993545
vt 0.435933 0.528231
vt 0.489699 0.528231
vt 0.489699 0.993545
vt 0.003928 0.887313
vt 0.012087 0.885085
vt 0.382167 0.528231
vt 0.382167 0.993545
vt 0.217896 0.944607
vt 0.211891 0.938651
vt 0.167102 0.993545
vt 0.113335 0.993545
vt 0.113335 0.528231
vt 0.167102 0.528231
vt 0.250992 0.887287
vt 0.242813 0.885135
vt 0.220868 0.993545
vt 0.220868 0.528231
vt 0.059569 0.528231
vt 0.059569 0.993545
vt 0.005803 0.993545
vt 0.005803 0.528231
vt 0.003906 0.821125
vt 0.012086 0.823278
vt 0.037002 0.763806
vt 0.043008 0.769761
vt 0.094328 0.730723
vt 0.096552 0.738884
vt 0.250970 0.821099
vt 0.242811 0.823327
vt 0.217847 0.763796
vt 0.211895 0.769805
vt 0.543465 0.528231
vt 0.543465 0.993545
vt 0.160515 0.730723
vt 0.158363 0.738903
vt 0.832629 0.515255
vt 0.749523 0.515255
vt 0.749523 0.031895
vt 0.832629 0.031895
vt 0.666418 0.515255
vt 0.666418 0.031895
vt 0.084681 0.515255
vt 0.001576 0.515255
vt 0.001576 0.031895
vt 0.084681 0.031895
vt 0.583313 0.515255
vt 0.500208 0.515255
vt 0.500208 0.031895
vt 0.583313 0.031895
vt 0.417102 0.515255
vt 0.417102 0.031895
vt 0.333997 0.515255
vt 0.250892 0.515255
vt 0.250892 0.031895
vt 0.333997 0.031895
vt 0.167787 0.515255
vt 0.167787 0.031895
vt 0.915734 0.515255
vt 0.915734 0.031895
vt 0.998839 0.515255
vt 0.998839 0.031895
vt 0.167787 0.017808
vt 0.084681 0.017808
vt 0.417102 0.017808
vt 0.333997 0.017808
vt 0.666418 0.017808
vt 0.583313 0.017808
vt 0.915734 0.017808
vt 0.832629 0.017808
vt 0.001576 0.529342
vt 0.084681 0.529342
vt 0.250892 0.529342
vt 0.333997 0.529342
vt 0.583313 0.529342
vt 0.666418 0.529342
vt 0.749523 0.529342
vt 0.832629 0.529342
vt 0.749523 0.025939
vt 0.832629 0.025939
vt 0.084681 0.521211
vt 0.001576 0.521211
vt 0.500208 0.025939
vt 0.583313 0.025939
vt 0.666418 0.025939
vt 0.666418 0.521211
vt 0.583313 0.521211
vt 0.500208 0.521211
vt 0.832629 0.521211
vt 0.749523 0.521211
vt 0.915734 0.529342
vt 0.998839 0.529342
vt 0.417102 0.025939
vt 0.500208 0.017808
vt 0.250892 0.017808
vt 0.500208 0.529342
vt 0.167787 0.529342
vt 0.749523 0.017808
vt 0.417102 0.529342
vt 0.998839 0.017808
vt 0.001576 0.025939
vt 0.084681 0.025939
vt 0.001576 0.017808
vt 0.417102 0.521211
vt 0.333997 0.521211
vt 0.250892 0.521211
vt 0.250892 0.025939
vt 0.333997 0.025939
vt 0.167787 0.521211
vt 0.167787 0.025939
vt 0.915734 0.521211
vt 0.915734 0.025939
vt 0.998839 0.521211
vt 0.998839 0.025939
vt 0.945953 0.853171
vt 0.867724 0.898337
vt 0.777393 0.898337
vt 0.991118 0.774943
vt 0.699165 0.853171
vt 0.991118 0.684612
vt 0.653999 0.774943
vt 0.945953 0.606383
vt 0.653999 0.684612
vt 0.867724 0.561218
vt 0.699165 0.606383
vt 0.777393 0.561218
vt 0.772627 0.896432
vt 0.693167 0.850556
vt 0.647291 0.771096
vt 0.864379 0.896432
vt 0.647291 0.679344
vt 0.943839 0.850556
vt 0.693167 0.599884
vt 0.989715 0.771096
vt 0.772627 0.554008
vt 0.989715 0.679344
vt 0.864379 0.554008
vt 0.943839 0.599884
vt 0.834365 0.554386
vt 0.921322 0.586500
vt 0.980572 0.657789
vt 0.743001 0.570054
vt 0.996240 0.749153
vt 0.671711 0.629304
vt 0.964126 0.836110
vt 0.639598 0.716261
vt 0.892837 0.895361
vt 0.655265 0.807625
vt 0.801473 0.911028
vt 0.714516 0.878915
vt 0.855293 0.839679
vt 0.629067 0.970290
vt 0.367844 0.970290
vt 0.985904 0.613454
vt 0.141618 0.839679
vt 0.985904 0.352230
vt 0.011006 0.613454
vt 0.855293 0.126004
vt 0.011006 0.352230
vt 0.629067 -0.004607
vt 0.141618 0.126004
vt 0.367844 -0.004607
s 1
usemtl meat
f 88/1/1 85/2/2 11/3/3 12/4/3
f 83/5/4 88/1/1 12/4/3 13/6/3
f 82/7/5 83/5/4 13/6/3 14/8/3
f 80/9/6 82/7/5 14/8/3 15/10/3
f 1/11/7 80/9/6 15/10/3 16/12/3
f 2/13/8 1/11/7 16/12/3 17/14/3
f 3/15/9 2/13/8 17/14/3 18/16/3
f 74/17/10 3/15/9 18/16/3 19/18/3
f 4/19/11 74/17/10 19/18/3 20/20/3
f 5/21/12 4/19/11 20/20/3 21/22/3
f 6/23/13 5/21/12 21/22/3 22/24/3
f 85/25/2 6/23/13 22/24/3 11/26/3
f 91/27/14 90/28/15 24/29/16 23/30/16
f 90/28/15 7/31/17 25/32/16 24/29/16
f 7/31/17 8/33/18 26/34/16 25/32/16
f 8/33/18 96/35/19 27/36/16 26/34/16
f 96/35/19 97/37/20 28/38/16 27/36/16
f 97/37/20 99/39/21 29/40/16 28/38/16
f 99/39/21 101/41/22 30/42/16 29/40/16
f 101/41/22 104/43/23 31/44/16 30/42/16
f 104/43/23 105/45/24 32/46/16 31/44/16
f 105/45/24 9/47/25 33/48/16 32/46/16
f 9/47/25 10/49/26 34/50/16 33/48/16
f 10/49/26 91/51/14 23/52/16 34/50/16
f 35/53/27 29/54/27 30/55/28 40/56/28
f 23/57/29 24/58/30 58/59/30 55/60/29
f 18/61/28 17/62/27 36/63/27 39/64/28
f 17/62/27 16/65/31 38/66/31 36/63/27
f 27/67/32 48/68/32 43/69/33 26/70/33
f 16/65/31 15/71/32 47/72/32 38/66/31
f 35/53/27 37/73/31 28/74/31 29/54/27
f 19/75/34 18/61/28 39/64/28 42/76/34
f 32/77/35 33/78/36 50/79/36 51/80/35
f 20/81/35 19/75/34 42/76/34 52/82/35
f 30/55/28 31/83/34 41/84/34 40/56/28
f 54/85/37 34/86/37 23/87/29 55/88/29
f 15/71/32 14/89/33 44/90/33 47/72/32
f 14/89/33 13/91/38 46/92/38 44/90/33
f 50/79/36 33/78/36 34/86/37 54/85/37
f 13/91/38 12/93/30 57/94/30 46/92/38
f 21/95/36 20/81/35 52/82/35 49/96/36
f 28/74/31 37/73/31 48/68/32 27/67/32
f 22/97/37 21/95/36 49/96/36 53/98/37
f 26/70/33 43/69/33 45/99/38 25/100/38
f 11/101/29 22/97/37 53/98/37 56/102/29
f 41/84/34 31/83/34 32/77/35 51/80/35
f 12/93/30 11/101/29 56/102/29 57/94/30
f 63/103/39 111/104/40 112/105/41 62/106/42
f 111/104/40 67/107/43 117/108/44 112/105/41
f 118/109/45 59/110/46 121/111/47 124/112/48
f 126/113/49 69/114/50 70/115/51 130/116/52
f 69/114/50 132/117/53 68/118/54 70/115/51
f 67/107/43 126/113/49 130/116/52 117/108/44
f 134/119/55 65/120/56 66/121/57 139/122/58
f 65/120/56 141/123/59 64/124/60 66/121/57
f 132/117/53 134/119/55 139/122/58 68/118/54
f 61/125/61 63/103/39 62/106/42 60/126/62
f 59/127/46 61/125/61 60/126/62 121/128/47
f 141/123/59 118/109/45 124/112/48 64/124/60
f 84/129/63 87/130/64 88/1/1 83/5/4
f 78/131/65 79/132/66 80/9/6 1/11/7
f 75/133/67 76/134/68 3/15/9 74/17/10
f 71/135/69 72/136/70 5/21/12 6/23/13
f 90/28/15 91/27/14 92/137/71 89/138/72
f 96/35/19 8/33/18 94/139/73 95/140/74
f 104/43/23 101/41/22 102/141/75 103/142/76
f 9/47/25 105/45/24 106/143/77 107/144/78
f 113/145/79 114/146/80 62/106/42 112/105/41
f 119/147/64 120/148/81 59/110/46 118/109/45
f 128/149/82 129/150/83 130/116/52 70/115/51
f 129/150/83 116/151/84 117/108/44 130/116/52
f 115/152/67 125/153/68 126/113/49 67/107/43
f 125/153/68 127/154/85 69/114/50 126/113/49
f 109/155/70 110/156/86 111/104/40 63/103/39
f 91/51/14 10/49/26 108/157/87 92/158/71
f 116/151/84 113/145/79 112/105/41 117/108/44
f 10/49/26 9/47/25 107/144/78 108/157/87
f 133/159/88 128/149/82 70/115/51 68/118/54
f 76/134/68 77/160/85 2/13/8 3/15/9
f 105/45/24 104/43/23 103/142/76 106/143/77
f 79/132/66 81/161/89 82/7/5 80/9/6
f 101/41/22 99/39/21 100/162/90 102/141/75
f 8/33/18 7/31/17 93/163/91 94/139/73
f 72/136/70 73/164/86 4/19/11 5/21/12
f 99/39/21 97/37/20 98/165/92 100/162/90
f 86/166/81 71/135/69 6/23/13 85/25/2
f 7/31/17 90/28/15 89/138/72 93/163/91
f 73/164/86 75/133/67 74/17/10 4/19/11
f 77/160/85 78/131/65 1/11/7 2/13/8
f 97/37/20 96/35/19 95/140/74 98/165/92
f 110/156/86 115/152/67 67/107/43 111/104/40
f 81/161/89 84/129/63 83/5/4 82/7/5
f 122/167/93 123/168/94 124/112/48 121/111/47
f 87/130/64 86/169/81 85/2/2 88/1/1
f 127/154/85 131/170/65 132/117/53 69/114/50
f 135/171/66 136/172/89 65/120/56 134/119/55
f 137/173/95 138/174/96 139/122/58 66/121/57
f 136/172/89 140/175/63 141/123/59 65/120/56
f 142/176/97 137/173/95 66/121/57 64/124/60
f 131/170/65 135/171/66 134/119/55 132/117/53
f 138/174/96 133/159/88 68/118/54 139/122/58
f 143/177/69 109/155/70 63/103/39 61/125/61
f 114/146/80 144/178/98 60/126/62 62/106/42
f 120/179/81 143/177/69 61/125/61 59/127/46
f 144/178/98 122/180/93 121/128/47 60/126/62
f 140/175/63 119/147/64 118/109/45 141/123/59
f 123/168/94 142/176/97 64/124/60 124/112/48
f 86/166/81 122/180/93 144/178/98 71/135/69
f 71/135/69 144/178/98 114/146/80 72/136/70
f 72/136/70 114/146/80 113/145/79 73/164/86
f 73/164/86 113/145/79 116/151/84 75/133/67
f 75/133/67 116/151/84 129/150/83 76/134/68
f 76/134/68 129/150/83 128/149/82 77/160/85
f 77/160/85 128/149/82 133/159/88 78/131/65
f 78/131/65 133/159/88 138/174/96 79/132/66
f 79/132/66 138/174/96 137/173/95 81/161/89
f 81/161/89 137/173/95 142/176/97 84/129/63
f 84/129/63 142/176/97 123/168/94 87/130/64
f 87/130/64 123/168/94 122/167/93 86/169/81
f 119/147/64 89/138/72 92/137/71 120/148/81
f 140/175/63 93/163/91 89/138/72 119/147/64
f 120/179/81 92/158/71 108/157/87 143/177/69
f 136/172/89 94/139/73 93/163/91 140/175/63
f 135/171/66 95/140/74 94/139/73 136/172/89
f 131/170/65 98/165/92 95/140/74 135/171/66
f 127/154/85 100/162/90 98/165/92 131/170/65
f 125/153/68 102/141/75 100/162/90 127/154/85
f 115/152/67 103/142/76 102/141/75 125/153/68
f 110/156/86 106/143/77 103/142/76 115/152/67
f 109/155/70 107/144/78 106/143/77 110/156/86
f 143/177/69 108/157/87 107/144/78 109/155/70
f 58/59/30 24/58/30 25/100/38 45/99/38
f 35/181/16 40/182/16 41/183/16 37/184/16
f 37/184/16 41/183/16 51/185/16 48/186/16
f 48/186/16 51/185/16 50/187/16 43/188/16
f 43/188/16 50/187/16 54/189/16 45/190/16
f 45/190/16 54/189/16 55/191/16 58/192/16
f 57/193/3 56/194/3 53/195/3 46/196/3
f 46/196/3 53/195/3 49/197/3 44/198/3
f 44/198/3 49/197/3 52/199/3 47/200/3
f 47/200/3 52/199/3 42/201/3 38/202/3
f 38/202/3 42/201/3 39/203/3 36/204/3
f 145/205/16 147/206/16 148/207/16 146/208/16
f 146/208/16 148/207/16 153/209/16 151/210/16
f 151/210/16 153/209/16 152/211/16 149/212/16
f 149/212/16 152/211/16 154/213/16 150/214/16
f 150/214/16 154/213/16 155/215/16 156/216/16
usemtl food_beans
f 157/217/16 159/218/16 160/219/16 158/220/16
f 158/220/16 160/219/16 165/221/16 163/222/16
f 163/222/16 165/221/16 164/223/16 161/224/16
f 161/224/16 164/223/16 166/225/16 162/226/16
f 162/226/16 166/225/16 167/227/16 168/228/16
