# Made in Blockbench 5.2.1
mtllib piece_cooked_meat.mtl

o cube
v 0.2593752397148862 0.1359375 -0.12812499376960307
v 0.2257309052919184 0.1359375 -0.31893149591571834
v 0.2593752397148862 -0.0078125 -0.12812499376960307
v 0.2257309052919184 -0.0078125 -0.31893149591571834
v -0.22358763201990153 0.1359375 -0.23970451485518138
v -0.18994329759693382 0.1359375 -0.04889801270906611
v -0.22358763201990153 -0.0078125 -0.23970451485518138
v -0.18994329759693382 -0.0078125 -0.04889801270906611
vt 0.46875 0.9375
vt 0.578125 0.9375
vt 0.578125 0.90625
vt 0.46875 0.90625
vt 0 0.46875
vt 0.046875 0.46875
vt 0.046875 0.4375
vt 0 0.4375
vt 0.046875 0.46875
vt 0.09375 0.46875
vt 0.09375 0.4375
vt 0.046875 0.4375
vt 0.21875 0.625
vt 0.328125 0.625
vt 0.328125 0.578125
vt 0.21875 0.578125
vt 0.328125 0.625
vt 0.4375 0.625
vt 0.4375 0.578125
vt 0.328125 0.578125
vn -0.17364817766693033 0 -0.984807753012208
vn 0.984807753012208 0 -0.17364817766693033
vn -0.984807753012208 0 0.17364817766693033
vn 0 1 0
vn 0 -1 0
usemtl m_2e336524-8c7d-5753-2115-5522d90903fd
f 4/4/1 7/3/1 5/2/1 2/1/1
f 3/8/2 4/7/2 2/6/2 1/5/2
f 7/12/3 8/11/3 6/10/3 5/9/3
f 6/16/4 1/15/4 2/14/4 5/13/4
f 7/20/5 4/19/5 3/18/5 8/17/5
o cube
v 0.259375 0.134375 0.384375
v 0.259375 0.134375 -0.12812500000000004
v 0.259375 -0.009374999999999994 0.384375
v 0.259375 -0.009374999999999994 -0.12812500000000004
v -0.19687500000000002 0.134375 -0.12812500000000004
v -0.19687500000000002 0.134375 0.384375
v -0.19687500000000002 -0.009374999999999994 -0.12812500000000004
v -0.19687500000000002 -0.009374999999999994 0.384375
vt 0.4375 0.75
vt 0.5625 0.75
vt 0.5625 0.71875
vt 0.4375 0.71875
vt 0.46875 0.875
vt 0.578125 0.875
vt 0.578125 0.84375
vt 0.46875 0.84375
vt 0.4375 0.71875
vt 0.5625 0.71875
vt 0.5625 0.6875
vt 0.4375 0.6875
vt 0 0.75
vt 0.109375 0.75
vt 0.109375 0.625
vt 0 0.625
vt 0.25 1
vt 0.359375 1
vt 0.359375 0.875
vt 0.25 0.875
vn 1 0 0
vn 0 0 1
vn -1 0 0
vn 0 1 0
vn 0 -1 0
usemtl m_2e336524-8c7d-5753-2115-5522d90903fd
f 11/24/6 12/23/6 10/22/6 9/21/6
f 16/28/7 11/27/7 9/26/7 14/25/7
f 15/32/8 16/31/8 14/30/8 13/29/8
f 14/36/9 9/35/9 10/34/9 13/33/9
f 15/40/10 12/39/10 11/38/10 16/37/10
o cube
v 0.25 0.125 0.375
v 0.25 0.125 -0.125
v 0.25 0 0.375
v 0.25 0 -0.125
v -0.1875 0.125 -0.125
v -0.1875 0.125 0.375
v -0.1875 0 -0.125
v -0.1875 0 0.375
vt 0.46875 0.84375
vt 0.578125 0.84375
vt 0.578125 0.8125
vt 0.46875 0.8125
vt 0.4375 0.6875
vt 0.5625 0.6875
vt 0.5625 0.65625
vt 0.4375 0.65625
vt 0.46875 0.8125
vt 0.578125 0.8125
vt 0.578125 0.78125
vt 0.46875 0.78125
vt 0.4375 0.65625
vt 0.5625 0.65625
vt 0.5625 0.625
vt 0.4375 0.625
vt 0.109375 0.75
vt 0.21875 0.75
vt 0.21875 0.625
vt 0.109375 0.625
vt 0.25 0.875
vt 0.359375 0.875
vt 0.359375 0.75
vt 0.25 0.75
vn 0 0 -1
vn 1 0 0
vn 0 0 1
vn -1 0 0
vn 0 1 0
vn 0 -1 0
usemtl m_2e336524-8c7d-5753-2115-5522d90903fd
f 20/44/11 23/43/11 21/42/11 18/41/11
f 19/48/12 20/47/12 18/46/12 17/45/12
f 24/52/13 19/51/13 17/50/13 22/49/13
f 23/56/14 24/55/14 22/54/14 21/53/14
f 22/60/15 17/59/15 18/58/15 21/57/15
f 23/64/16 20/63/16 19/62/16 24/61/16
o cube
v 0.24999969258560584 0.12505625 -0.12500014287581246
v 0.21744065927305642 0.12505625 -0.30965159656560143
v 0.24999969258560584 0.00005625000000000768 -0.12500014287581246
v 0.21744065927305642 0.00005625000000000768 -0.30965159656560143
v -0.2134127326697846 0.12505625 -0.23368051883631943
v -0.18085369935723516 0.12505625 -0.04902906514653042
v -0.2134127326697846 0.00005625000000000768 -0.23368051883631943
v -0.18085369935723516 0.00005625000000000768 -0.04902906514653042
vt 0.46875 1
vt 0.578125 1
vt 0.578125 0.96875
vt 0.46875 0.96875
vt 0.4375 0.5
vt 0.484375 0.5
vt 0.484375 0.46875
vt 0.4375 0.46875
vt 0.46875 0.96875
vt 0.578125 0.96875
vt 0.578125 0.9375
vt 0.46875 0.9375
vt 0.484375 0.5
vt 0.53125 0.5
vt 0.53125 0.46875
vt 0.484375 0.46875
vt 0 0.625
vt 0.109375 0.625
vt 0.109375 0.578125
vt 0 0.578125
vt 0.109375 0.625
vt 0.21875 0.625
vt 0.21875 0.578125
vt 0.109375 0.578125
vn -0.17364817766693033 0 -0.984807753012208
vn 0.984807753012208 0 -0.17364817766693033
vn 0.17364817766693033 0 0.984807753012208
vn -0.984807753012208 0 0.17364817766693033
vn 0 1 0
vn 0 -1 0
usemtl m_2e336524-8c7d-5753-2115-5522d90903fd
f 28/68/17 31/67/17 29/66/17 26/65/17
f 27/72/18 28/71/18 26/70/18 25/69/18
f 32/76/19 27/75/19 25/74/19 30/73/19
f 31/80/20 32/79/20 30/78/20 29/77/20
f 30/84/21 25/83/21 26/82/21 29/81/21
f 31/88/22 28/87/22 27/86/22 32/85/22