# Blender 4.5.14 LTS
# www.blender.org
mtllib pile_rotten_guts_meat.mtl
o pile_rotten_guts_meat
v 0.268205 0.000062 -0.252925
v 0.281099 0.000062 -0.175871
v 0.281099 0.078187 -0.175871
v 0.268205 0.078187 -0.252925
v 0.453134 0.000062 -0.283871
v 0.453134 0.078187 -0.283871
v 0.466028 0.000062 -0.206818
v 0.466028 0.078187 -0.206818
v 0.625000 0.004687 -0.618750
v -0.625000 0.004687 -0.618750
v -0.625000 0.004687 -0.618750
v 0.625000 0.004687 -0.618750
v 0.625000 0.004688 0.625000
v 0.625000 0.004688 0.625000
v -0.625000 0.004688 0.625000
v -0.625000 0.004688 0.625000
v 0.062500 -0.000000 -0.250000
v -0.375000 -0.000000 -0.250000
v -0.375000 0.125000 -0.250000
v 0.062500 0.125000 -0.250000
v 0.062500 0.000000 0.250000
v 0.062500 0.125000 0.250000
v -0.375000 0.000000 0.250000
v -0.375000 0.125000 0.250000
v 0.441403 -0.033778 0.038706
v 0.074740 0.104537 -0.155801
v 0.116223 0.222322 -0.150244
v 0.482887 0.084007 0.044263
v 0.360219 -0.013099 0.206450
v 0.401703 0.104686 0.212006
v -0.006444 0.125216 0.011942
v 0.035040 0.243001 0.017499
v 0.380136 -0.014375 0.180633
v 0.051937 0.113460 -0.078885
v 0.073504 0.232521 -0.047512
v 0.401703 0.104686 0.212007
v 0.060966 -0.057344 0.563104
v 0.082533 0.061718 0.594478
v -0.267233 0.070491 0.303586
v -0.245666 0.189552 0.334959
v 0.062500 0.000056 -0.250000
v 0.029941 0.000056 -0.434652
v -0.400913 0.000056 -0.358681
v -0.400913 0.125056 -0.358681
v 0.029941 0.125056 -0.434652
v 0.062500 0.125056 -0.250000
v -0.368354 0.000056 -0.174029
v -0.368354 0.125056 -0.174029
v -0.434278 0.000062 0.001241
v -0.361842 0.000062 -0.028025
v -0.361842 0.078187 -0.028025
v -0.434278 0.078187 0.001241
v -0.504516 0.000062 -0.172606
v -0.504516 0.078187 -0.172606
v -0.432080 0.000062 -0.201872
v -0.432080 0.078187 -0.201872
v -0.416533 0.000056 0.167599
v -0.338990 0.000056 0.158078
v -0.338990 0.078181 0.158078
v -0.416533 0.078181 0.167599
v -0.439384 0.000056 -0.018503
v -0.439384 0.078181 -0.018503
v -0.361841 0.000056 -0.028025
v -0.361841 0.078181 -0.028025
v -0.438587 0.000000 0.266748
v -0.361770 0.000000 0.280985
v -0.361770 0.078125 0.280985
v -0.438587 0.078125 0.266748
v -0.415808 0.000000 0.143841
v -0.415808 0.078125 0.143841
v -0.338991 0.000000 0.158078
v -0.338991 0.078125 0.158078
v -0.407289 0.000563 0.387765
v -0.331653 0.000563 0.368205
v -0.331653 0.078688 0.368205
v -0.407289 0.078688 0.387765
v -0.438587 0.000563 0.266747
v -0.438587 0.078688 0.266747
v -0.362950 0.000563 0.247186
v -0.362950 0.078688 0.247186
v -0.294389 0.000563 0.455634
v -0.222475 0.000563 0.486160
v -0.222475 0.078688 0.486160
v -0.294389 0.078688 0.455634
v -0.272410 0.000563 0.403856
v -0.272410 0.078688 0.403856
v -0.200496 0.000563 0.434382
v -0.200496 0.078688 0.434382
v -0.272417 0.000562 0.403856
v -0.200503 0.000562 0.434382
v -0.208917 0.075661 0.454204
v -0.280831 0.075661 0.423678
v -0.251290 0.016067 0.354084
v -0.259704 0.091166 0.373906
v -0.179375 0.016067 0.384609
v -0.187790 0.091166 0.404432
v -0.253326 0.002239 0.405660
v -0.179375 0.016081 0.384610
v -0.187789 0.091180 0.404432
v -0.261741 0.077338 0.425483
v -0.284673 0.024014 0.309859
v -0.293087 0.099113 0.329681
v -0.210722 0.037856 0.288808
v -0.219136 0.112955 0.308630
v -0.276007 0.020210 0.327925
v -0.210722 0.037849 0.288807
v -0.219136 0.112948 0.308630
v -0.284421 0.095308 0.347748
v -0.365213 0.046395 0.190855
v -0.373627 0.121493 0.210677
v -0.299927 0.064035 0.151737
v -0.308342 0.139133 0.171559
v -0.365213 0.046394 0.190850
v -0.299928 0.064034 0.151733
v -0.299035 0.134679 0.185079
v -0.364320 0.117039 0.224197
v -0.413263 0.078104 0.124958
v -0.412370 0.148749 0.158304
v -0.347978 0.095744 0.085840
v -0.347085 0.166389 0.119186
v -0.437115 0.084654 0.114889
v -0.390440 0.110914 0.058008
v -0.434104 0.175414 0.051955
v -0.480779 0.149155 0.108836
v -0.469462 0.059161 0.076576
v -0.513126 0.123662 0.070524
v -0.422787 0.085421 0.019696
v -0.466452 0.149922 0.013643
v -0.394653 0.069478 0.142726
v -0.347978 0.095738 0.085845
v -0.347085 0.166383 0.119191
v -0.393760 0.140123 0.176072
v -0.439756 0.084290 0.112553
v -0.438863 0.154935 0.145900
v -0.393081 0.110550 0.055673
v -0.392188 0.181195 0.089019
v -0.415715 0.081795 0.131125
v -0.369040 0.108054 0.074244
v -0.392188 0.181195 0.089016
v -0.438863 0.154935 0.145896
v -0.457631 0.076014 0.094061
v -0.480779 0.149155 0.108833
v -0.410956 0.102274 0.037181
v -0.434104 0.175414 0.051952
v -0.469462 0.059168 0.076577
v -0.412750 0.093697 0.035406
v -0.456414 0.158198 0.029354
v -0.513126 0.123669 0.070524
v -0.542114 -0.004408 -0.076822
v -0.585779 0.060092 -0.082874
v -0.485402 0.030120 -0.117992
v -0.529067 0.094621 -0.124045
v -0.204544 0.000000 0.304363
v -0.249911 0.000000 0.367966
v -0.249911 0.078125 0.367966
v -0.204544 0.078125 0.304363
v -0.051897 0.000000 0.413245
v -0.051897 0.078125 0.413245
v -0.097264 0.000000 0.476848
v -0.097264 0.078125 0.476848
v -0.308893 0.000000 0.173593
v -0.369176 0.000000 0.223286
v -0.369176 0.078125 0.223286
v -0.308893 0.078125 0.173593
v -0.189628 0.000000 0.318272
v -0.189628 0.078125 0.318272
v -0.249911 0.000000 0.367966
v -0.249911 0.078125 0.367966
v -0.343564 0.000000 0.078123
v -0.416000 0.000000 0.107389
v -0.416000 0.078125 0.107389
v -0.343564 0.078125 0.078123
v -0.296738 0.000000 0.194021
v -0.296738 0.078125 0.194021
v -0.369174 0.000000 0.223287
v -0.369174 0.078125 0.223287
v -0.434983 -0.000000 -0.007127
v -0.488264 0.000000 0.050010
v -0.488264 0.078125 0.050010
v -0.434983 0.078125 -0.007127
v -0.343564 0.000000 0.078123
v -0.343564 0.078125 0.078123
v -0.396845 0.000000 0.135260
v -0.396845 0.078125 0.135260
v -0.614375 -0.000000 -0.046000
v -0.608246 0.000000 0.031885
v -0.608246 0.078125 0.031885
v -0.614375 0.078125 -0.046000
v -0.552068 -0.000000 -0.050903
v -0.552068 0.078125 -0.050903
v -0.545938 0.000000 0.026981
v -0.545938 0.078125 0.026981
v -0.552068 -0.000000 -0.050903
v -0.579427 0.000000 0.022274
v -0.579427 0.078125 0.022274
v -0.552068 0.078125 -0.050903
v -0.434983 -0.000000 -0.007127
v -0.434983 0.078125 -0.007127
v -0.462343 0.000000 0.066050
v -0.462343 0.078125 0.066050
v -0.263213 0.084655 0.206990
v -0.272016 0.110914 0.280041
v -0.231938 0.175415 0.261685
v -0.223135 0.149155 0.188633
v -0.215346 0.059162 0.221922
v -0.175268 0.123662 0.203565
v -0.224149 0.085421 0.294973
v -0.184071 0.149922 0.276616
v -0.215346 0.059167 0.221922
v -0.241056 0.093696 0.287116
v -0.200978 0.158197 0.268760
v -0.175268 0.123668 0.203565
v -0.071651 -0.004410 0.312261
v -0.031573 0.060091 0.293904
v -0.097360 0.030119 0.377455
v -0.057282 0.094620 0.359098
v -0.289987 0.081795 0.204785
v -0.298790 0.108055 0.277836
v -0.287204 0.181195 0.252941
v -0.278401 0.154935 0.179890
v -0.234722 0.076015 0.213523
v -0.223136 0.149155 0.188627
v -0.243524 0.102274 0.286574
v -0.231939 0.175414 0.261678
v -0.313986 0.069484 0.206274
v -0.322789 0.095744 0.279326
v -0.341459 0.166389 0.251681
v -0.332656 0.140130 0.178630
v -0.259735 0.084297 0.207487
v -0.278405 0.154942 0.179843
v -0.268538 0.110556 0.280538
v -0.287208 0.181201 0.252894
v -0.364672 0.046387 0.181553
v -0.398715 0.064027 0.249622
v -0.417385 0.134672 0.221978
v -0.383342 0.117032 0.153909
v -0.288743 0.078098 0.211309
v -0.307413 0.148743 0.183665
v -0.322785 0.095738 0.279379
v -0.341455 0.166383 0.251734
v -0.513554 0.020165 0.113879
v -0.547597 0.037804 0.181949
v -0.551151 0.112903 0.160710
v -0.517108 0.095263 0.092641
v -0.364671 0.046350 0.181553
v -0.368225 0.121448 0.160314
v -0.398713 0.063989 0.249623
v -0.402268 0.139088 0.228384
v -0.574449 0.002237 0.060504
v -0.625508 0.016079 0.117992
v -0.629063 0.091178 0.096754
v -0.578003 0.077336 0.039266
v -0.496537 0.024012 0.124460
v -0.500092 0.099111 0.103222
v -0.547597 0.037854 0.181948
v -0.551151 0.112953 0.160710
v -0.557376 0.000568 0.051769
v -0.634429 0.000568 0.064663
v -0.637983 0.075667 0.043425
v -0.560930 0.075667 0.030530
v -0.548451 0.016073 0.105099
v -0.552005 0.091171 0.083860
v -0.625505 0.016073 0.117993
v -0.629059 0.091171 0.096754
v -0.545394 0.000619 -0.009322
v -0.614375 0.000619 -0.045999
v -0.614375 0.078744 -0.045999
v -0.545394 0.078744 -0.009322
v -0.574736 0.000619 0.045863
v -0.574736 0.078744 0.045863
v -0.643717 0.000619 0.009185
v -0.643717 0.078744 0.009185
v -0.566663 0.000562 -0.003709
v -0.643717 0.000563 0.009185
v -0.643717 0.078687 0.009185
v -0.566663 0.078687 -0.003709
v -0.557379 0.000563 0.051769
v -0.557379 0.078688 0.051769
v -0.634433 0.000563 0.064664
v -0.634433 0.078688 0.064664
v -0.332063 0.000056 0.487595
v -0.269669 0.000056 0.440578
v -0.269669 0.078181 0.440578
v -0.332063 0.078181 0.487595
v -0.407289 0.000056 0.387766
v -0.407289 0.078181 0.387766
v -0.344896 0.000056 0.340749
v -0.344896 0.078181 0.340749
v -0.315349 0.000624 0.448940
v -0.276878 0.000624 0.516937
v -0.276878 0.078749 0.516937
v -0.315349 0.078749 0.448940
v -0.260952 0.000624 0.418164
v -0.260952 0.078749 0.418164
v -0.222481 0.000624 0.486161
v -0.222481 0.078749 0.486161
v -0.276878 0.000000 0.516937
v -0.240201 0.000000 0.447957
v -0.240201 0.078125 0.447957
v -0.276878 0.078125 0.516937
v -0.332063 0.000000 0.487595
v -0.332063 0.078125 0.487595
v -0.295385 0.000000 0.418615
v -0.295385 0.078125 0.418615
v 0.018000 -0.000000 -0.171012
v 0.077407 -0.000000 -0.120274
v 0.077407 0.078125 -0.120274
v 0.018000 0.078125 -0.171012
v 0.058591 -0.000000 -0.218537
v 0.058591 0.078125 -0.218537
v 0.117997 -0.000000 -0.167799
v 0.117997 0.078125 -0.167799
v 0.092711 0.000624 -0.193853
v 0.018000 0.000624 -0.171012
v 0.018000 0.078749 -0.171012
v 0.092711 0.078749 -0.193853
v 0.110984 0.000624 -0.134084
v 0.110984 0.078749 -0.134084
v 0.036273 0.000624 -0.111243
v 0.036273 0.078749 -0.111243
v 0.058590 0.000056 -0.218537
v 0.090988 0.000056 -0.147447
v 0.090988 0.078181 -0.147447
v 0.058590 0.078181 -0.218537
v 0.172336 0.000056 -0.270374
v 0.172336 0.078181 -0.270374
v 0.204733 0.000056 -0.199283
v 0.204733 0.078181 -0.199283
v 0.301692 0.000562 -0.381101
v 0.305781 0.000562 -0.459119
v 0.305781 0.078687 -0.459119
v 0.301692 0.078687 -0.381101
v 0.245519 0.000562 -0.384045
v 0.245519 0.078687 -0.384045
v 0.249608 0.000562 -0.462062
v 0.249608 0.078687 -0.462062
v 0.302568 0.000619 -0.359121
v 0.353306 0.000619 -0.418528
v 0.353306 0.078744 -0.418528
v 0.302568 0.078744 -0.359121
v 0.255042 0.000619 -0.399712
v 0.255042 0.078744 -0.399712
v 0.305781 0.000619 -0.459118
v 0.305781 0.078744 -0.459118
v 0.245523 0.000568 -0.384046
v 0.249612 0.000568 -0.462063
v 0.271117 0.075667 -0.460936
v 0.267028 0.075667 -0.382919
v 0.191526 0.016073 -0.386875
v 0.213031 0.091171 -0.385748
v 0.195615 0.016073 -0.464893
v 0.217120 0.091171 -0.463766
v 0.240685 0.002237 -0.402600
v 0.195611 0.016079 -0.464892
v 0.217116 0.091178 -0.463765
v 0.262190 0.077336 -0.401473
v 0.161382 0.024012 -0.340378
v 0.182887 0.099111 -0.339251
v 0.116308 0.037854 -0.402670
v 0.137813 0.112953 -0.401543
v 0.175395 0.020164 -0.354701
v 0.116308 0.037804 -0.402670
v 0.137813 0.112903 -0.401543
v 0.196900 0.095263 -0.353574
v 0.077102 0.046350 -0.223994
v 0.098606 0.121448 -0.222867
v 0.018014 0.063989 -0.271963
v 0.039519 0.139088 -0.270836
v 0.364436 0.046387 -0.184134
v 0.305348 0.064027 -0.232103
v 0.336378 0.134672 -0.244347
v 0.395466 0.117032 -0.196378
v 0.318951 0.078098 -0.116445
v 0.349981 0.148743 -0.128689
v 0.259863 0.095738 -0.164414
v 0.290893 0.166383 -0.176658
v 0.329273 0.069484 -0.140061
v 0.259859 0.095744 -0.164466
v 0.290889 0.166389 -0.176710
v 0.360303 0.140129 -0.152305
v 0.316347 0.084297 -0.087358
v 0.347377 0.154942 -0.099602
v 0.246933 0.110556 -0.111764
v 0.277963 0.181201 -0.124008
v 0.325583 0.081795 -0.116255
v 0.256169 0.108055 -0.140661
v 0.277967 0.181195 -0.123961
v 0.347381 0.154935 -0.099556
v 0.305091 0.076015 -0.064191
v 0.326889 0.149155 -0.047491
v 0.235677 0.102274 -0.088596
v 0.257474 0.175414 -0.071896
v 0.292704 0.059167 -0.047085
v 0.234620 0.093696 -0.086296
v 0.243867 0.158196 -0.043195
v 0.301951 0.123668 -0.003984
v 0.173405 -0.004410 0.073651
v 0.182652 0.060091 0.116752
v 0.115321 0.030119 0.034440
v 0.124568 0.094620 0.077541
v 0.317642 0.084655 -0.090586
v 0.248228 0.110914 -0.114991
v 0.257475 0.175415 -0.071890
v 0.326889 0.149155 -0.047485
v 0.292704 0.059162 -0.047086
v 0.301951 0.123662 -0.003985
v 0.223290 0.085421 -0.071491
v 0.232537 0.149922 -0.028390
v 0.344608 -0.000000 -0.356636
v 0.279087 -0.000000 -0.399186
v 0.279087 0.078125 -0.399186
v 0.344608 0.078125 -0.356636
v 0.276528 -0.000000 -0.251802
v 0.276528 0.078125 -0.251802
v 0.211007 -0.000000 -0.294352
v 0.211007 0.078125 -0.294352
v 0.353306 -0.000000 -0.418529
v 0.275942 -0.000000 -0.429401
v 0.275942 0.078125 -0.429401
v 0.353306 0.078125 -0.418529
v 0.344608 -0.000000 -0.356637
v 0.344608 0.078125 -0.356637
v 0.267243 -0.000000 -0.367510
v 0.267243 0.078125 -0.367510
v 0.276528 -0.000000 -0.251802
v 0.232277 -0.000000 -0.316187
v 0.232277 0.078125 -0.316187
v 0.276528 0.078125 -0.251802
v 0.173512 -0.000000 -0.181001
v 0.173512 0.078125 -0.181001
v 0.129262 -0.000000 -0.245386
v 0.129262 0.078125 -0.245386
v 0.173512 -0.000000 -0.181001
v 0.160618 -0.000000 -0.258055
v 0.160618 0.078125 -0.258055
v 0.173512 0.078125 -0.181001
v 0.050226 -0.000000 -0.160370
v 0.050226 0.078125 -0.160370
v 0.037332 -0.000000 -0.237424
v 0.037332 0.078125 -0.237424
v 0.360135 -0.000000 -0.127954
v 0.324667 -0.000000 -0.197564
v 0.324667 0.078125 -0.197564
v 0.360135 0.078125 -0.127954
v 0.193071 -0.000000 -0.042831
v 0.193071 0.078125 -0.042831
v 0.157603 -0.000000 -0.112441
v 0.157603 0.078125 -0.112441
v 0.209879 -0.000000 -0.054382
v 0.157603 -0.000000 -0.112441
v 0.157603 0.078125 -0.112441
v 0.209879 0.078125 -0.054382
v 0.070539 0.000000 0.071080
v 0.070539 0.078125 0.071080
v 0.018263 0.000000 0.013021
v 0.018263 0.078125 0.013021
v 0.202271 0.059168 -0.303580
v 0.230191 0.093697 -0.239302
v 0.245550 0.158198 -0.280621
v 0.217630 0.123669 -0.344900
v 0.367758 -0.004408 -0.341309
v 0.383118 0.060092 -0.382629
v 0.395678 0.030120 -0.277030
v 0.411037 0.094621 -0.318350
v 0.137379 0.081795 -0.262918
v 0.182809 0.108054 -0.205039
v 0.173398 0.181195 -0.230835
v 0.127967 0.154935 -0.288714
v 0.182636 0.076014 -0.295819
v 0.173224 0.149155 -0.321615
v 0.228066 0.102274 -0.237939
v 0.218655 0.175414 -0.263735
v 0.121498 0.069478 -0.244862
v 0.166929 0.095738 -0.186982
v 0.134179 0.166383 -0.193328
v 0.088749 0.140123 -0.251208
v 0.160717 0.084290 -0.282365
v 0.127968 0.154935 -0.288711
v 0.206148 0.110550 -0.224486
v 0.173398 0.181195 -0.230832
v 0.157866 0.084654 -0.280292
v 0.203296 0.110914 -0.222413
v 0.218656 0.175414 -0.263732
v 0.173225 0.149155 -0.321612
v 0.202271 0.059161 -0.303580
v 0.217630 0.123662 -0.344900
v 0.247701 0.085421 -0.245701
v 0.263061 0.149921 -0.287020
v 0.355471 0.046394 -0.186680
v 0.379532 0.064034 -0.114475
v 0.346782 0.134679 -0.120821
v 0.322722 0.117039 -0.193026
v 0.430202 0.078104 -0.219329
v 0.397453 0.148749 -0.225675
v 0.454263 0.095744 -0.147125
v 0.421513 0.166389 -0.153471
v 0.202343 0.020210 -0.129251
v 0.226403 0.037849 -0.057047
v 0.208872 0.112948 -0.069552
v 0.184811 0.095308 -0.141756
v 0.355472 0.046395 -0.186675
v 0.337940 0.121493 -0.199180
v 0.379532 0.064035 -0.114471
v 0.362001 0.139133 -0.126976
v 0.121541 0.002239 -0.123934
v 0.126087 0.016081 -0.047179
v 0.108556 0.091180 -0.059684
v 0.104010 0.077338 -0.136439
v 0.221857 0.024014 -0.133802
v 0.204326 0.099113 -0.146307
v 0.226403 0.037856 -0.057047
v 0.208871 0.112955 -0.069552
v 0.127435 0.000562 -0.142181
v 0.082067 0.000562 -0.078579
v 0.064536 0.075661 -0.091083
v 0.109903 0.075661 -0.154686
v 0.171455 0.016067 -0.110782
v 0.153923 0.091166 -0.123287
v 0.126087 0.016067 -0.047179
v 0.108556 0.091166 -0.059684
v 0.081647 0.000562 -0.174847
v 0.036280 0.000562 -0.111244
v 0.036280 0.078687 -0.111244
v 0.081647 0.078687 -0.174847
v 0.127441 0.000562 -0.142182
v 0.127441 0.078687 -0.142182
v 0.082074 0.000562 -0.078579
v 0.082074 0.078687 -0.078579
v 0.172336 0.000562 -0.270374
v 0.175062 0.000562 -0.192296
v 0.175062 0.078687 -0.192296
v 0.172336 0.078687 -0.270374
v 0.297259 0.000562 -0.274736
v 0.297259 0.078687 -0.274736
v 0.299986 0.000562 -0.196659
v 0.299986 0.078687 -0.196659
v 0.297259 -0.000000 -0.274737
v 0.266733 -0.000000 -0.202822
v 0.266733 0.078125 -0.202822
v 0.297259 0.078125 -0.274737
v 0.412322 -0.000000 -0.225895
v 0.412322 0.078125 -0.225895
v 0.381796 -0.000000 -0.153981
v 0.381796 0.078125 -0.153981
v 0.101950 0.000056 -0.271607
v 0.094462 0.000056 -0.193842
v 0.094462 0.078181 -0.193842
v 0.101950 0.078181 -0.271607
v 0.288587 0.000056 -0.253636
v 0.288587 0.078181 -0.253636
v 0.281099 0.000056 -0.175871
v 0.281099 0.078181 -0.175871
vn -0.9863 -0.0000 0.1650
vn -0.1650 -0.0000 -0.9863
vn 0.9863 -0.0000 -0.1650
vn 0.1650 -0.0000 0.9863
vn -0.0000 1.0000 -0.0000
vn -0.0000 -1.0000 -0.0000
vn -0.0000 -0.0000 1.0000
vn -0.0000 -0.0000 -0.0000
vn -0.0000 -0.0000 -1.0000
vn 1.0000 -0.0000 -0.0000
vn -1.0000 -0.0000 -0.0000
vn 0.4330 -0.1103 -0.8946
vn 0.8381 -0.3161 0.4446
vn -0.8381 0.3161 -0.4446
vn 0.3319 0.9423 0.0445
vn -0.3319 -0.9423 -0.0445
vn 0.6383 0.0859 -0.7649
vn 0.7502 -0.2922 0.5932
vn -0.6383 -0.0859 0.7649
vn -0.7502 0.2922 -0.5932
vn 0.1725 0.9525 0.2510
vn -0.1725 -0.9525 -0.2510
vn -0.1736 -0.0000 -0.9848
vn 0.9848 -0.0000 -0.1736
vn 0.1736 -0.0000 0.9848
vn -0.9848 -0.0000 0.1736
vn 0.3746 -0.0000 0.9272
vn -0.9272 -0.0000 0.3746
vn -0.3746 -0.0000 -0.9272
vn 0.9272 -0.0000 -0.3746
vn 0.1219 -0.0000 0.9925
vn -0.9925 -0.0000 0.1219
vn -0.1219 -0.0000 -0.9925
vn 0.9925 -0.0000 -0.1219
vn -0.1822 -0.0000 0.9833
vn -0.9833 -0.0000 -0.1822
vn 0.1822 -0.0000 -0.9833
vn 0.9833 -0.0000 0.1822
vn 0.2504 -0.0000 0.9681
vn -0.9681 -0.0000 0.2504
vn -0.2504 -0.0000 -0.9681
vn 0.9681 -0.0000 -0.2504
vn -0.3907 -0.0000 0.9205
vn -0.9205 -0.0000 -0.3907
vn 0.3907 -0.0000 -0.9205
vn 0.9205 -0.0000 0.3907
vn -0.3756 -0.2756 0.8848
vn 0.3756 0.2756 -0.8848
vn -0.1077 0.9613 0.2537
vn 0.1077 -0.9613 -0.2537
vn 0.3040 -0.2112 0.9290
vn -0.9466 -0.1772 0.2695
vn -0.3040 0.2112 -0.9290
vn 0.9466 0.1772 -0.2695
vn 0.5386 -0.1581 0.8276
vn -0.8356 -0.2258 0.5007
vn -0.5386 0.1581 -0.8276
vn 0.8356 0.2258 -0.5007
vn 0.5491 -0.3624 0.7531
vn -0.5491 0.3624 -0.7531
vn 0.0114 0.9043 0.4268
vn -0.0114 -0.9043 -0.4268
vn 0.5751 0.4532 0.6811
vn -0.5974 -0.3361 0.7281
vn -0.5751 -0.4532 -0.6811
vn 0.5974 0.3361 -0.7281
vn -0.5589 0.8256 -0.0775
vn 0.5589 -0.8256 0.0775
vn 0.8018 -0.2633 0.5364
vn -0.8018 0.2633 -0.5364
vn 0.7452 0.1028 0.6589
vn -0.7452 -0.1028 -0.6589
vn -0.2963 0.9362 0.1891
vn 0.2963 -0.9362 -0.1891
vn 0.4008 0.3508 0.8463
vn -0.7259 -0.4420 0.5270
vn -0.4008 -0.3508 -0.8463
vn 0.7259 0.4420 -0.5270
vn -0.8141 -0.0000 -0.5807
vn 0.5807 -0.0000 -0.8141
vn 0.8141 -0.0000 0.5807
vn -0.5807 -0.0000 0.8141
vn -0.6361 -0.0000 -0.7716
vn 0.7716 -0.0000 -0.6361
vn 0.6361 -0.0000 0.7716
vn -0.7716 -0.0000 0.6361
vn -0.7314 -0.0000 -0.6820
vn 0.6820 -0.0000 -0.7314
vn 0.7314 -0.0000 0.6820
vn -0.6820 -0.0000 0.7314
vn -0.9969 -0.0000 0.0785
vn -0.0785 -0.0000 -0.9969
vn 0.9969 -0.0000 -0.0785
vn 0.0785 -0.0000 0.9969
vn -0.9367 -0.0000 -0.3502
vn 0.3502 -0.0000 -0.9367
vn 0.9367 -0.0000 0.3502
vn -0.3502 -0.0000 0.9367
vn -0.8510 0.4532 -0.2655
vn 0.1127 -0.3361 -0.9351
vn 0.8510 -0.4532 0.2655
vn -0.1127 0.3361 0.9351
vn 0.5130 0.8256 -0.2350
vn -0.5130 -0.8256 0.2350
vn -0.7928 0.3508 -0.4984
vn 0.3291 -0.4420 -0.8345
vn 0.7928 -0.3508 0.4984
vn -0.3291 0.4420 0.8345
vn -0.9825 0.1028 -0.1553
vn 0.9825 -0.1028 0.1553
vn 0.1483 0.9362 -0.3187
vn -0.1483 -0.9362 0.3187
vn -0.9645 -0.2633 -0.0216
vn 0.9645 0.2633 0.0216
vn -0.2390 0.9043 -0.3538
vn 0.2390 -0.9043 0.3538
vn -0.8678 -0.3624 -0.3401
vn 0.4357 -0.2258 -0.8713
vn 0.8678 0.3624 0.3401
vn -0.4357 0.2258 0.8713
vn -0.8989 -0.1581 -0.4086
vn 0.8989 0.1581 0.4086
vn -0.0455 0.9613 -0.2719
vn 0.0455 -0.9613 0.2719
vn -0.7555 -0.2112 -0.6202
vn 0.6536 -0.1772 -0.7358
vn 0.7555 0.2111 0.6202
vn -0.6536 0.1772 0.7358
vn -0.1587 -0.2756 -0.9481
vn 0.1587 0.2756 0.9481
vn 0.4695 -0.0000 -0.8829
vn 0.8829 -0.0000 0.4695
vn -0.4695 -0.0000 0.8829
vn -0.8829 -0.0000 -0.4695
vn 0.6018 -0.0000 0.7986
vn -0.7986 -0.0000 0.6018
vn -0.6018 -0.0000 -0.7986
vn 0.7986 -0.0000 -0.6018
vn -0.8704 -0.0000 0.4924
vn -0.4924 -0.0000 -0.8704
vn 0.8704 -0.0000 -0.4924
vn 0.4924 -0.0000 0.8704
vn -0.6494 -0.0000 0.7604
vn -0.7604 -0.0000 -0.6494
vn 0.6494 -0.0000 -0.7604
vn 0.7604 -0.0000 0.6494
vn -0.2924 -0.0000 -0.9563
vn 0.9563 -0.0000 -0.2924
vn 0.2924 -0.0000 0.9563
vn -0.9563 -0.0000 0.2924
vn -0.9100 -0.0000 0.4147
vn -0.4147 -0.0000 -0.9100
vn 0.9100 -0.0000 -0.4147
vn 0.4147 -0.0000 0.9100
vn 0.9986 -0.0000 0.0523
vn -0.0523 -0.0000 0.9986
vn -0.9986 -0.0000 -0.0523
vn 0.0523 -0.0000 -0.9986
vn 0.9599 -0.2756 0.0503
vn -0.9599 0.2756 -0.0503
vn 0.2753 0.9613 0.0144
vn -0.2753 -0.9613 -0.0144
vn 0.7690 -0.2112 -0.6034
vn 0.5769 -0.1772 0.7973
vn -0.7690 0.2112 0.6034
vn -0.5769 0.1772 -0.7973
vn 0.5935 -0.1581 -0.7892
vn 0.7563 -0.2258 0.6140
vn -0.5935 0.1581 0.7892
vn -0.7563 0.2258 -0.6140
vn 0.5198 -0.3624 -0.7736
vn -0.5198 0.3624 0.7736
vn 0.3972 0.9043 -0.1567
vn -0.3972 -0.9043 0.1567
vn 0.2298 -0.2633 -0.9369
vn 0.8885 -0.3361 0.3124
vn -0.2298 0.2633 0.9369
vn -0.8885 0.3361 -0.3124
vn 0.3643 0.1028 -0.9256
vn -0.3643 -0.1028 0.9256
vn 0.2790 0.9362 0.2138
vn -0.2790 -0.9362 -0.2138
vn 0.6582 0.3508 -0.6661
vn 0.7435 -0.4420 0.5019
vn -0.6582 -0.3508 0.6661
vn -0.7435 0.4420 -0.5019
vn 0.1184 0.8256 0.5517
vn -0.1184 -0.8256 -0.5517
vn 0.4433 0.4532 -0.7733
vn -0.4433 -0.4532 0.7733
vn 0.5446 -0.0000 -0.8387
vn 0.8387 -0.0000 0.5446
vn -0.5446 -0.0000 0.8387
vn -0.8387 -0.0000 -0.5446
vn 0.1392 -0.0000 -0.9903
vn 0.9903 -0.0000 0.1392
vn -0.1392 -0.0000 0.9903
vn -0.9903 -0.0000 -0.1392
vn 0.8241 -0.0000 -0.5664
vn 0.5664 -0.0000 0.8241
vn -0.8241 -0.0000 0.5664
vn -0.5664 -0.0000 -0.8241
vn 0.8910 -0.0000 -0.4540
vn 0.4540 -0.0000 0.8910
vn -0.8910 -0.0000 0.4540
vn -0.4540 -0.0000 -0.8910
vn 0.7431 -0.0000 -0.6691
vn 0.6691 -0.0000 0.7431
vn -0.7431 -0.0000 0.6691
vn -0.6691 -0.0000 -0.7431
vn -0.9130 0.3508 0.2082
vn -0.3574 -0.4420 -0.8228
vn 0.9130 -0.3508 -0.2082
vn 0.3574 0.4420 0.8228
vn 0.1966 0.8256 -0.5289
vn -0.1966 -0.8256 0.5289
vn -0.8046 0.1028 0.5849
vn -0.5815 -0.3361 -0.7409
vn 0.8046 -0.1028 -0.5849
vn 0.5815 0.3361 0.7409
vn -0.1205 0.9362 -0.3302
vn 0.1205 -0.9362 0.3302
vn -0.6972 -0.2633 0.6667
vn 0.6972 0.2633 -0.6667
vn -0.4192 0.9043 -0.0812
vn 0.4192 -0.9043 0.0812
vn -0.7894 0.4532 0.4140
vn 0.7894 -0.4532 -0.4140
vn -0.8541 -0.3624 0.3731
vn -0.3080 -0.2258 -0.9242
vn 0.8541 0.3624 -0.3731
vn 0.3080 0.2258 0.9242
vn -0.9246 -0.1581 0.3467
vn 0.9246 0.1581 -0.3467
vn -0.2244 0.9613 -0.1601
vn 0.2244 -0.9613 0.1601
vn -0.9728 -0.2112 0.0957
vn -0.0582 -0.1772 -0.9825
vn 0.9728 0.2112 -0.0957
vn 0.0582 0.1772 0.9825
vn -0.7826 -0.2756 -0.5582
vn 0.7826 0.2756 0.5582
vn -0.9994 -0.0000 0.0349
vn -0.0349 -0.0000 -0.9994
vn 0.9994 -0.0000 -0.0349
vn 0.0349 -0.0000 0.9994
vn -0.9954 -0.0000 -0.0958
vn 0.0958 -0.0000 -0.9954
vn 0.9954 -0.0000 0.0958
vn -0.0958 -0.0000 0.9954
vt 0.234375 0.289062
vt 0.257812 0.289062
vt 0.257812 0.312500
vt 0.234375 0.312500
vt 0.562500 0.617188
vt 0.609375 0.617188
vt 0.609375 0.640625
vt 0.562500 0.640625
vt 0.296875 0.289062
vt 0.320312 0.289062
vt 0.320312 0.312500
vt 0.296875 0.312500
vt 0.562500 0.585938
vt 0.609375 0.585938
vt 0.609375 0.609375
vt 0.562500 0.609375
vt 0.562500 0.531250
vt 0.585938 0.531250
vt 0.585938 0.578125
vt 0.562500 0.578125
vt 0.437500 0.390625
vt 0.460938 0.390625
vt 0.460938 0.437500
vt 0.437500 0.437500
vt 0.000000 1.000000
vt 0.250000 1.000000
vt 0.000000 0.750000
vt 0.250000 0.750000
vt 0.468750 0.812500
vt 0.578125 0.812500
vt 0.578125 0.843750
vt 0.468750 0.843750
vt 0.437500 0.656250
vt 0.562500 0.656250
vt 0.562500 0.687500
vt 0.437500 0.687500
vt 0.468750 0.781250
vt 0.578125 0.781250
vt 0.437500 0.625000
vt 0.562500 0.625000
vt 0.109375 0.625000
vt 0.218750 0.625000
vt 0.218750 0.750000
vt 0.109375 0.750000
vt 0.359375 0.750000
vt 0.359375 0.875000
vt 0.250000 0.875000
vt 0.468750 0.750000
vt 0.578125 0.750000
vt 0.093750 0.437500
vt 0.140625 0.437500
vt 0.140625 0.468750
vt 0.093750 0.468750
vt 0.187500 0.437500
vt 0.187500 0.468750
vt 0.000000 0.531250
vt 0.109375 0.531250
vt 0.109375 0.578125
vt 0.000000 0.578125
vt 0.218750 0.531250
vt 0.218750 0.578125
vt 0.218750 0.468750
vt 0.328125 0.468750
vt 0.328125 0.500000
vt 0.218750 0.500000
vt 0.437500 0.531250
vt 0.562500 0.562500
vt 0.437500 0.562500
vt 0.437500 0.468750
vt 0.437500 0.500000
vt 0.000000 0.500000
vt 0.125000 0.500000
vt 0.125000 0.531250
vt 0.468750 0.875000
vt 0.468750 1.000000
vt 0.359375 1.000000
vt 0.468750 0.968750
vt 0.578125 0.968750
vt 0.578125 1.000000
vt 0.484375 0.468750
vt 0.484375 0.500000
vt 0.468750 0.937500
vt 0.578125 0.937500
vt 0.531250 0.468750
vt 0.531250 0.500000
vt 0.000000 0.625000
vt 0.687500 0.664062
vt 0.710938 0.664062
vt 0.710938 0.687500
vt 0.687500 0.687500
vt 0.468750 0.414062
vt 0.515625 0.414062
vt 0.515625 0.437500
vt 0.468750 0.437500
vt 0.453125 0.289062
vt 0.476562 0.289062
vt 0.476562 0.312500
vt 0.453125 0.312500
vt 0.562500 0.507812
vt 0.609375 0.507812
vt 0.609375 0.531250
vt 0.562500 0.453125
vt 0.585938 0.453125
vt 0.585938 0.500000
vt 0.562500 0.500000
vt 0.562500 0.406250
vt 0.585938 0.406250
vt 0.687500 0.523438
vt 0.710938 0.523438
vt 0.710938 0.546875
vt 0.687500 0.546875
vt 0.031250 0.335938
vt 0.062500 0.335938
vt 0.062500 0.359375
vt 0.031250 0.359375
vt 0.687500 0.492188
vt 0.710938 0.492188
vt 0.710938 0.515625
vt 0.687500 0.515625
vt 0.640625 0.851562
vt 0.671875 0.851562
vt 0.671875 0.875000
vt 0.640625 0.875000
vt 0.156250 0.328125
vt 0.179688 0.328125
vt 0.179688 0.359375
vt 0.156250 0.359375
vt 0.187500 0.328125
vt 0.210938 0.328125
vt 0.210938 0.359375
vt 0.187500 0.359375
vt 0.546875 0.289062
vt 0.570312 0.289062
vt 0.570312 0.312500
vt 0.546875 0.312500
vt 0.640625 0.742188
vt 0.671875 0.742188
vt 0.671875 0.765625
vt 0.640625 0.765625
vt 0.687500 0.414062
vt 0.710938 0.414062
vt 0.710938 0.437500
vt 0.687500 0.437500
vt 0.640625 0.710938
vt 0.671875 0.710938
vt 0.671875 0.734375
vt 0.640625 0.734375
vt 0.640625 0.671875
vt 0.664062 0.671875
vt 0.664062 0.703125
vt 0.640625 0.703125
vt 0.328125 0.328125
vt 0.351562 0.328125
vt 0.351562 0.359375
vt 0.328125 0.359375
vt 0.578125 0.289062
vt 0.601562 0.289062
vt 0.601562 0.312500
vt 0.578125 0.312500
vt 0.000000 0.226562
vt 0.015625 0.226562
vt 0.015625 0.250000
vt 0.000000 0.250000
vt 0.609375 0.289062
vt 0.632812 0.289062
vt 0.632812 0.312500
vt 0.609375 0.312500
vt 0.750000 0.976562
vt 0.765625 0.976562
vt 0.765625 1.000000
vt 0.750000 1.000000
vt 0.734375 0.265625
vt 0.757812 0.265625
vt 0.757812 0.281250
vt 0.734375 0.281250
vt 0.015625 0.234375
vt 0.039062 0.234375
vt 0.039062 0.250000
vt 0.750000 0.953125
vt 0.773438 0.953125
vt 0.773438 0.968750
vt 0.750000 0.968750
vt 0.671875 0.531250
vt 0.687500 0.531250
vt 0.671875 0.546875
vt 0.046875 0.234375
vt 0.070312 0.234375
vt 0.070312 0.250000
vt 0.046875 0.250000
vt 0.671875 0.421875
vt 0.687500 0.421875
vt 0.671875 0.437500
vt 0.750000 0.937500
vt 0.773438 0.937500
vt 0.078125 0.234375
vt 0.101562 0.234375
vt 0.101562 0.250000
vt 0.078125 0.250000
vt 0.109375 0.234375
vt 0.132812 0.234375
vt 0.132812 0.250000
vt 0.109375 0.250000
vt 0.750000 0.875000
vt 0.773438 0.875000
vt 0.773438 0.890625
vt 0.750000 0.890625
vt 0.750000 0.859375
vt 0.773438 0.859375
vt 0.750000 0.828125
vt 0.773438 0.828125
vt 0.773438 0.843750
vt 0.750000 0.843750
vt 0.000000 0.273438
vt 0.023438 0.273438
vt 0.023438 0.296875
vt 0.000000 0.296875
vt 0.031250 0.273438
vt 0.054688 0.273438
vt 0.054688 0.296875
vt 0.031250 0.296875
vt 0.703125 0.914062
vt 0.726562 0.914062
vt 0.726562 0.937500
vt 0.703125 0.937500
vt 0.546875 0.382812
vt 0.585938 0.382812
vt 0.546875 0.406250
vt 0.703125 0.882812
vt 0.726562 0.882812
vt 0.726562 0.906250
vt 0.703125 0.906250
vt 0.593750 0.429688
vt 0.632812 0.429688
vt 0.632812 0.453125
vt 0.593750 0.453125
vt 0.593750 0.382812
vt 0.617188 0.382812
vt 0.617188 0.421875
vt 0.593750 0.421875
vt 0.609375 0.835938
vt 0.632812 0.835938
vt 0.632812 0.875000
vt 0.609375 0.875000
vt 0.171875 0.234375
vt 0.195312 0.234375
vt 0.195312 0.250000
vt 0.171875 0.250000
vt 0.750000 0.812500
vt 0.773438 0.812500
vt 0.750000 0.796875
vt 0.773438 0.796875
vt 0.750000 0.781250
vt 0.773438 0.781250
vt 0.703125 0.851562
vt 0.726562 0.851562
vt 0.726562 0.875000
vt 0.703125 0.875000
vt 0.140625 0.273438
vt 0.164062 0.273438
vt 0.164062 0.296875
vt 0.140625 0.296875
vt 0.171875 0.273438
vt 0.195312 0.273438
vt 0.195312 0.296875
vt 0.171875 0.296875
vt 0.234375 0.226562
vt 0.250000 0.226562
vt 0.250000 0.250000
vt 0.234375 0.250000
vt 0.703125 0.757812
vt 0.726562 0.757812
vt 0.726562 0.781250
vt 0.703125 0.781250
vt 0.750000 0.742188
vt 0.765625 0.742188
vt 0.765625 0.765625
vt 0.750000 0.765625
vt 0.281250 0.234375
vt 0.304688 0.234375
vt 0.304688 0.250000
vt 0.281250 0.250000
vt 0.312500 0.234375
vt 0.335938 0.234375
vt 0.335938 0.250000
vt 0.312500 0.250000
vt 0.750000 0.671875
vt 0.773438 0.671875
vt 0.773438 0.687500
vt 0.750000 0.687500
vt 0.687500 0.640625
vt 0.703125 0.640625
vt 0.703125 0.656250
vt 0.687500 0.656250
vt 0.750000 0.656250
vt 0.773438 0.656250
vt 0.687500 0.468750
vt 0.703125 0.468750
vt 0.703125 0.484375
vt 0.687500 0.484375
vt 0.343750 0.234375
vt 0.367188 0.234375
vt 0.367188 0.250000
vt 0.343750 0.250000
vt 0.375000 0.234375
vt 0.398438 0.234375
vt 0.398438 0.250000
vt 0.375000 0.250000
vt 0.406250 0.234375
vt 0.429688 0.234375
vt 0.429688 0.250000
vt 0.406250 0.250000
vt 0.687500 0.390625
vt 0.703125 0.390625
vt 0.703125 0.406250
vt 0.687500 0.406250
vt 0.437500 0.234375
vt 0.460938 0.234375
vt 0.460938 0.250000
vt 0.437500 0.250000
vt 0.062500 0.281250
vt 0.078125 0.281250
vt 0.078125 0.296875
vt 0.062500 0.296875
vt 0.750000 0.531250
vt 0.773438 0.531250
vt 0.773438 0.546875
vt 0.750000 0.546875
vt 0.468750 0.234375
vt 0.492188 0.234375
vt 0.492188 0.250000
vt 0.468750 0.250000
vt 0.265625 0.226562
vt 0.265625 0.250000
vt 0.578125 0.976562
vt 0.625000 0.976562
vt 0.625000 1.000000
vt 0.750000 0.507812
vt 0.765625 0.507812
vt 0.765625 0.531250
vt 0.578125 0.945312
vt 0.625000 0.945312
vt 0.625000 0.968750
vt 0.218750 0.312500
vt 0.234375 0.359375
vt 0.218750 0.359375
vt 0.640625 0.625000
vt 0.656250 0.625000
vt 0.656250 0.671875
vt 0.703125 0.726562
vt 0.726562 0.726562
vt 0.726562 0.750000
vt 0.703125 0.750000
vt 0.578125 0.914062
vt 0.625000 0.914062
vt 0.625000 0.937500
vt 0.265625 0.273438
vt 0.289062 0.273438
vt 0.289062 0.296875
vt 0.265625 0.296875
vt 0.578125 0.882812
vt 0.625000 0.882812
vt 0.625000 0.906250
vt 0.578125 0.906250
vt 0.578125 0.828125
vt 0.601562 0.828125
vt 0.601562 0.875000
vt 0.578125 0.875000
vt 0.601562 0.781250
vt 0.703125 0.695312
vt 0.726562 0.695312
vt 0.726562 0.718750
vt 0.703125 0.718750
vt 0.578125 0.757812
vt 0.625000 0.757812
vt 0.625000 0.781250
vt 0.328125 0.273438
vt 0.351562 0.273438
vt 0.351562 0.296875
vt 0.328125 0.296875
vt 0.375000 0.398438
vt 0.421875 0.398438
vt 0.421875 0.421875
vt 0.375000 0.421875
vt 0.000000 0.359375
vt 0.023438 0.359375
vt 0.023438 0.406250
vt 0.000000 0.406250
vt 0.054688 0.359375
vt 0.054688 0.406250
vt 0.031250 0.406250
vt 0.703125 0.632812
vt 0.726562 0.632812
vt 0.726562 0.656250
vt 0.359375 0.335938
vt 0.390625 0.335938
vt 0.390625 0.359375
vt 0.359375 0.359375
vt 0.359375 0.273438
vt 0.382812 0.273438
vt 0.382812 0.296875
vt 0.359375 0.296875
vt 0.640625 0.601562
vt 0.671875 0.601562
vt 0.671875 0.625000
vt 0.390625 0.328125
vt 0.414062 0.328125
vt 0.414062 0.359375
vt 0.640625 0.562500
vt 0.664062 0.562500
vt 0.664062 0.593750
vt 0.640625 0.593750
vt 0.703125 0.601562
vt 0.726562 0.601562
vt 0.726562 0.625000
vt 0.703125 0.625000
vt 0.421875 0.335938
vt 0.453125 0.335938
vt 0.453125 0.359375
vt 0.421875 0.359375
vt 0.390625 0.273438
vt 0.414062 0.273438
vt 0.414062 0.296875
vt 0.390625 0.296875
vt 0.640625 0.539062
vt 0.671875 0.539062
vt 0.671875 0.562500
vt 0.515625 0.328125
vt 0.539062 0.328125
vt 0.539062 0.359375
vt 0.515625 0.359375
vt 0.640625 0.421875
vt 0.664062 0.421875
vt 0.664062 0.453125
vt 0.640625 0.453125
vt 0.703125 0.570312
vt 0.726562 0.570312
vt 0.726562 0.593750
vt 0.703125 0.593750
vt 0.500000 0.226562
vt 0.515625 0.226562
vt 0.515625 0.250000
vt 0.500000 0.250000
vt 0.421875 0.273438
vt 0.445312 0.273438
vt 0.445312 0.296875
vt 0.421875 0.296875
vt 0.531250 0.226562
vt 0.531250 0.250000
vt 0.750000 0.484375
vt 0.773438 0.484375
vt 0.773438 0.500000
vt 0.750000 0.500000
vt 0.546875 0.234375
vt 0.570312 0.234375
vt 0.570312 0.250000
vt 0.546875 0.250000
vt 0.484375 0.273438
vt 0.507812 0.273438
vt 0.507812 0.296875
vt 0.484375 0.296875
vt 0.640625 0.367188
vt 0.671875 0.367188
vt 0.671875 0.390625
vt 0.640625 0.390625
vt 0.515625 0.273438
vt 0.539062 0.273438
vt 0.539062 0.296875
vt 0.515625 0.296875
vt 0.640625 0.335938
vt 0.671875 0.335938
vt 0.671875 0.359375
vt 0.640625 0.359375
vt 0.656250 0.968750
vt 0.679688 0.968750
vt 0.679688 1.000000
vt 0.656250 1.000000
vt 0.656250 0.937500
vt 0.679688 0.937500
vt 0.703125 0.460938
vt 0.726562 0.460938
vt 0.726562 0.484375
vt 0.750000 0.414062
vt 0.765625 0.414062
vt 0.765625 0.437500
vt 0.750000 0.437500
vt 0.703125 0.382812
vt 0.726562 0.382812
vt 0.726562 0.406250
vt 0.578125 0.226562
vt 0.593750 0.226562
vt 0.593750 0.250000
vt 0.578125 0.250000
vt 0.593750 0.234375
vt 0.617188 0.234375
vt 0.617188 0.250000
vt 0.625000 0.234375
vt 0.648438 0.234375
vt 0.648438 0.250000
vt 0.625000 0.250000
vt 0.656250 0.226562
vt 0.671875 0.226562
vt 0.671875 0.250000
vt 0.656250 0.250000
vt 0.062500 0.382812
vt 0.109375 0.382812
vt 0.109375 0.406250
vt 0.062500 0.406250
vt 0.687500 0.226562
vt 0.687500 0.250000
vt 0.156250 0.382812
vt 0.156250 0.406250
vt 0.078125 0.343750
vt 0.062500 0.343750
vt 0.656250 0.890625
vt 0.671875 0.890625
vt 0.671875 0.937500
vt 0.718750 0.234375
vt 0.742188 0.234375
vt 0.742188 0.250000
vt 0.718750 0.250000
vt 0.765625 0.546875
vt 0.781250 0.546875
vt 0.781250 0.562500
vt 0.765625 0.562500
vt 0.750000 0.250000
vt 0.773438 0.250000
vt 0.773438 0.265625
vt 0.750000 0.265625
vt 0.468750 0.218750
vt 0.484375 0.218750
vt 0.484375 0.234375
vt 0.750000 0.234375
vt 0.773438 0.234375
vt 0.765625 0.984375
vt 0.789062 0.984375
vt 0.789062 1.000000
vt 0.015625 0.218750
vt 0.039062 0.218750
vt 0.765625 0.515625
vt 0.781250 0.515625
vt 0.781250 0.531250
vt 0.765625 0.968750
vt 0.789062 0.968750
vt 0.500000 0.218750
vt 0.500000 0.234375
vt 0.046875 0.218750
vt 0.070312 0.218750
vt 0.765625 0.921875
vt 0.789062 0.921875
vt 0.789062 0.937500
vt 0.765625 0.937500
vt 0.078125 0.218750
vt 0.101562 0.218750
vt 0.765625 0.906250
vt 0.789062 0.906250
vt 0.765625 0.890625
vt 0.789062 0.890625
vt 0.109375 0.218750
vt 0.132812 0.218750
vt 0.703125 0.351562
vt 0.726562 0.351562
vt 0.726562 0.375000
vt 0.703125 0.375000
vt 0.640625 0.273438
vt 0.664062 0.273438
vt 0.664062 0.296875
vt 0.640625 0.296875
vt 0.703125 0.320312
vt 0.726562 0.320312
vt 0.726562 0.343750
vt 0.703125 0.343750
vt 0.609375 0.804688
vt 0.648438 0.804688
vt 0.648438 0.828125
vt 0.609375 0.828125
vt 0.671875 0.273438
vt 0.695312 0.273438
vt 0.695312 0.296875
vt 0.671875 0.296875
vt 0.187500 0.367188
vt 0.226562 0.367188
vt 0.226562 0.390625
vt 0.187500 0.390625
vt 0.296875 0.351562
vt 0.320312 0.351562
vt 0.320312 0.390625
vt 0.296875 0.390625
vt 0.609375 0.648438
vt 0.632812 0.648438
vt 0.632812 0.687500
vt 0.609375 0.687500
vt 0.140625 0.218750
vt 0.164062 0.218750
vt 0.164062 0.234375
vt 0.140625 0.234375
vt 0.765625 0.843750
vt 0.789062 0.843750
vt 0.789062 0.859375
vt 0.765625 0.859375
vt 0.171875 0.218750
vt 0.195312 0.218750
vt 0.203125 0.218750
vt 0.226562 0.218750
vt 0.226562 0.234375
vt 0.203125 0.234375
vt 0.703125 0.289062
vt 0.726562 0.289062
vt 0.726562 0.312500
vt 0.703125 0.312500
vt 0.718750 0.976562
vt 0.742188 0.976562
vt 0.742188 1.000000
vt 0.718750 1.000000
vt 0.789062 0.765625
vt 0.789062 0.781250
vt 0.765625 0.781250
vt 0.765625 0.500000
vt 0.781250 0.500000
vt 0.765625 0.750000
vt 0.789062 0.750000
vt 0.765625 0.468750
vt 0.781250 0.468750
vt 0.781250 0.484375
vt 0.765625 0.484375
vt 0.765625 0.734375
vt 0.789062 0.734375
vt 0.265625 0.218750
vt 0.289062 0.218750
vt 0.289062 0.234375
vt 0.265625 0.234375
vt 0.765625 0.718750
vt 0.789062 0.718750
vt 0.531250 0.218750
vt 0.546875 0.218750
vt 0.531250 0.234375
vt 0.765625 0.703125
vt 0.789062 0.703125
vt 0.765625 0.453125
vt 0.781250 0.453125
vt 0.296875 0.218750
vt 0.320312 0.218750
vt 0.320312 0.234375
vt 0.296875 0.234375
vt 0.765625 0.687500
vt 0.789062 0.687500
vt 0.328125 0.218750
vt 0.351562 0.218750
vt 0.351562 0.234375
vt 0.328125 0.234375
vt 0.562500 0.218750
vt 0.562500 0.234375
vt 0.765625 0.640625
vt 0.789062 0.640625
vt 0.789062 0.656250
vt 0.765625 0.656250
vt 0.781250 0.437500
vt 0.359375 0.218750
vt 0.382812 0.218750
vt 0.382812 0.234375
vt 0.359375 0.234375
vt 0.765625 0.625000
vt 0.789062 0.625000
vt 0.718750 0.945312
vt 0.742188 0.945312
vt 0.742188 0.968750
vt 0.718750 0.968750
vt 0.078125 0.320312
vt 0.109375 0.320312
vt 0.109375 0.343750
vt 0.062500 0.257812
vt 0.085938 0.257812
vt 0.085938 0.281250
vt 0.140625 0.320312
vt 0.140625 0.343750
vt 0.656250 0.812500
vt 0.679688 0.812500
vt 0.679688 0.843750
vt 0.656250 0.843750
vt 0.656250 0.781250
vt 0.679688 0.781250
vt 0.765625 0.609375
vt 0.789062 0.609375
vt 0.578125 0.218750
vt 0.578125 0.234375
vt 0.390625 0.218750
vt 0.414062 0.218750
vt 0.414062 0.234375
vt 0.390625 0.234375
vt 0.765625 0.421875
vt 0.781250 0.421875
vt 0.765625 0.593750
vt 0.789062 0.593750
vt 0.765625 0.578125
vt 0.789062 0.578125
vt 0.093750 0.257812
vt 0.117188 0.257812
vt 0.117188 0.281250
vt 0.093750 0.281250
vt 0.703125 0.226562
vt 0.703125 0.250000
vt 0.718750 0.820312
vt 0.742188 0.820312
vt 0.742188 0.843750
vt 0.718750 0.843750
vt 0.421875 0.210938
vt 0.437500 0.210938
vt 0.421875 0.234375
vt 0.789062 0.562500
vt 0.437500 0.218750
vt 0.460938 0.218750
s 1
usemtl pile_rotten_guts_meat
f 1/1/1 2/2/1 3/3/1 4/4/1
f 5/5/2 1/6/2 4/7/2 6/8/2
f 7/9/3 5/10/3 6/11/3 8/12/3
f 2/13/4 7/14/4 8/15/4 3/16/4
f 8/17/5 6/18/5 4/19/5 3/20/5
f 2/21/6 1/22/6 5/23/6 7/24/6
s 0
f 9/25/7 10/26/7 11/26/7 12/25/7
f 13/25/8 9/26/8 12/26/8 14/25/8
f 15/25/7 13/26/7 14/26/7 16/25/7
f 10/25/8 15/26/8 16/26/8 11/25/8
s 1
f 16/27/5 14/28/5 12/26/5 11/25/5
f 17/29/9 18/30/9 19/31/9 20/32/9
f 21/33/10 17/34/10 20/35/10 22/36/10
f 23/37/7 21/38/7 22/30/7 24/29/7
f 18/39/11 23/40/11 24/34/11 19/33/11
f 24/41/5 22/42/5 20/43/5 19/44/5
f 18/28/6 17/45/6 21/46/6 23/47/6
f 25/48/12 26/49/12 27/38/12 28/37/12
f 29/50/13 25/51/13 28/52/13 30/53/13
f 26/51/14 31/54/14 32/55/14 27/52/14
f 32/56/15 30/57/15 28/58/15 27/59/15
f 26/57/16 25/60/16 29/61/16 31/58/16
f 33/62/17 34/63/17 35/64/17 36/65/17
f 37/66/18 33/17/18 36/67/18 38/68/18
f 39/63/19 37/69/19 38/70/19 40/64/19
f 34/71/20 39/72/20 40/73/20 35/56/20
f 40/46/21 38/74/21 36/75/21 35/76/21
f 34/45/22 33/48/22 37/74/22 39/46/22
f 42/77/23 43/78/23 44/79/23 45/75/23
f 41/69/24 42/80/24 45/81/24 46/70/24
f 47/82/25 41/83/25 46/78/25 48/77/25
f 43/80/26 47/84/26 48/85/26 44/81/26
f 48/59/5 46/58/5 45/41/5 44/86/5
f 43/58/6 42/61/6 41/42/6 47/41/6
f 49/1/27 50/2/27 51/3/27 52/4/27
f 53/5/28 49/6/28 52/7/28 54/8/28
f 55/9/29 53/10/29 54/11/29 56/12/29
f 50/13/30 55/14/30 56/15/30 51/16/30
f 56/17/5 54/18/5 52/19/5 51/20/5
f 50/21/6 49/22/6 53/23/6 55/24/6
f 57/87/31 58/88/31 59/89/31 60/90/31
f 61/91/32 57/92/32 60/93/32 62/94/32
f 63/95/33 61/96/33 62/97/33 64/98/33
f 58/99/34 63/100/34 64/101/34 59/17/34
f 64/102/5 62/103/5 60/104/5 59/105/5
f 58/106/6 57/107/6 61/103/6 63/102/6
f 65/108/35 66/109/35 67/110/35 68/111/35
f 69/112/36 65/113/36 68/114/36 70/115/36
f 71/116/37 69/117/37 70/118/37 72/119/37
f 66/120/38 71/121/38 72/122/38 67/123/38
f 72/124/5 70/125/5 68/126/5 67/127/5
f 66/128/6 65/129/6 69/130/6 71/131/6
f 73/132/39 74/133/39 75/134/39 76/135/39
f 77/136/40 73/137/40 76/138/40 78/139/40
f 79/140/41 77/141/41 78/142/41 80/143/41
f 74/144/42 79/145/42 80/146/42 75/147/42
f 80/148/5 78/149/5 76/150/5 75/151/5
f 74/152/6 73/153/6 77/154/6 79/155/6
f 81/156/43 82/157/43 83/158/43 84/159/43
f 85/160/44 81/161/44 84/162/44 86/163/44
f 87/164/45 85/165/45 86/166/45 88/167/45
f 82/168/46 87/169/46 88/170/46 83/171/46
f 88/172/5 86/173/5 84/174/5 83/175/5
f 82/176/6 81/177/6 85/178/6 87/162/6
f 89/179/47 90/180/47 91/181/47 92/182/47
f 93/183/44 89/184/44 92/111/44 94/185/44
f 95/186/48 93/187/48 94/188/48 96/189/48
f 90/190/46 95/191/46 96/143/46 91/192/46
f 96/193/49 94/194/49 92/180/49 91/179/49
f 90/195/50 89/196/50 93/197/50 95/198/50
f 97/199/51 98/200/51 99/201/51 100/202/51
f 101/203/52 97/204/52 100/205/52 102/206/52
f 103/207/53 101/208/53 102/204/53 104/203/53
f 98/209/54 103/210/54 104/211/54 99/212/54
f 104/213/49 102/214/49 100/215/49 99/216/49
f 98/217/50 97/218/50 101/219/50 103/220/50
f 105/221/55 106/222/55 107/223/55 108/224/55
f 109/225/56 105/226/56 108/107/56 110/227/56
f 111/228/57 109/229/57 110/230/57 112/231/57
f 106/232/58 111/233/58 112/234/58 107/235/58
f 112/236/49 110/237/49 108/238/49 107/239/49
f 106/240/50 105/241/50 109/242/50 111/243/50
f 113/244/59 114/245/59 115/246/59 116/247/59
f 117/248/56 113/249/56 116/210/56 118/209/56
f 119/250/60 117/251/60 118/249/60 120/248/60
f 114/252/58 119/253/58 120/251/58 115/250/58
f 120/254/61 118/255/61 116/256/61 115/257/61
f 114/258/62 113/259/62 117/260/62 119/261/62
f 121/262/63 122/263/63 123/264/63 124/265/63
f 125/266/64 121/267/64 124/268/64 126/269/64
f 127/270/65 125/271/65 126/272/65 128/273/65
f 122/274/66 127/275/66 128/276/66 123/277/66
f 128/278/67 126/279/67 124/280/67 123/281/67
f 122/282/68 121/283/68 125/284/68 127/285/68
f 129/286/69 130/287/69 131/288/69 132/289/69
f 133/290/64 129/291/64 132/292/64 134/293/64
f 135/294/70 133/295/70 134/287/70 136/286/70
f 130/296/66 135/297/66 136/298/66 131/299/66
f 136/300/61 134/301/61 132/302/61 131/303/61
f 130/304/62 129/305/62 133/306/62 135/307/62
f 137/308/71 138/309/71 139/310/71 140/311/71
f 141/312/64 137/313/64 140/314/64 142/315/64
f 143/316/72 141/317/72 142/318/72 144/319/72
f 138/320/66 143/321/66 144/322/66 139/323/66
f 144/324/73 142/325/73 140/326/73 139/327/73
f 138/328/74 137/329/74 141/330/74 143/331/74
f 145/267/75 146/332/75 147/333/75 148/268/75
f 149/334/76 145/335/76 148/336/76 150/79/76
f 151/337/77 149/338/77 150/339/77 152/324/77
f 146/340/78 151/341/78 152/342/78 147/78/78
f 152/343/67 150/4/67 148/344/67 147/345/67
f 146/346/68 145/347/68 149/348/68 151/148/68
f 153/349/79 154/350/79 155/351/79 156/352/79
f 157/353/80 153/354/80 156/355/80 158/83/80
f 159/356/81 157/357/81 158/358/81 160/359/81
f 154/360/82 159/361/82 160/362/82 155/363/82
f 160/364/5 158/365/5 156/366/5 155/367/5
f 154/38/6 153/368/6 157/365/6 159/364/6
f 161/369/83 162/370/83 163/371/83 164/372/83
f 165/373/84 161/374/84 164/375/84 166/38/84
f 167/376/85 165/377/85 166/378/85 168/379/85
f 162/380/86 167/381/86 168/382/86 163/383/86
f 168/384/5 166/385/5 164/386/5 163/387/5
f 162/115/6 161/388/6 165/389/6 167/390/6
f 169/391/29 170/392/29 171/393/29 172/292/29
f 173/394/30 169/395/30 172/396/30 174/397/30
f 175/398/27 173/399/27 174/400/27 176/401/27
f 170/402/28 175/403/28 176/404/28 171/346/28
f 176/405/5 174/406/5 172/407/5 171/396/5
f 170/408/6 169/409/6 173/410/6 175/411/6
f 177/412/87 178/413/87 179/414/87 180/415/87
f 181/416/88 177/417/88 180/418/88 182/419/88
f 183/420/89 181/421/89 182/422/89 184/423/89
f 178/424/90 183/425/90 184/426/90 179/408/90
f 184/427/5 182/428/5 180/429/5 179/430/5
f 178/431/6 177/432/6 181/433/6 183/434/6
f 185/435/91 186/436/91 187/437/91 188/438/91
f 189/439/92 185/440/92 188/441/92 190/442/92
f 191/443/93 189/444/93 190/445/93 192/446/93
f 186/440/94 191/447/94 192/448/94 187/441/94
f 192/449/5 190/450/5 188/451/5 187/452/5
f 186/453/6 185/454/6 189/455/6 191/456/6
f 193/457/95 194/458/95 195/459/95 196/460/95
f 197/461/96 193/462/96 196/463/96 198/464/96
f 199/465/97 197/466/97 198/467/97 200/468/97
f 194/469/98 199/470/98 200/471/98 195/472/98
f 200/473/5 198/474/5 196/475/5 195/476/5
f 194/477/6 193/478/6 197/474/6 199/473/6
f 201/479/99 202/480/99 203/481/99 204/298/99
f 205/482/100 201/483/100 204/484/100 206/485/100
f 207/486/101 205/487/101 206/488/101 208/314/101
f 202/489/102 207/490/102 208/491/102 203/492/102
f 208/493/103 206/494/103 204/495/103 203/491/103
f 202/496/104 201/497/104 205/498/104 207/499/104
f 209/500/105 210/501/105 211/502/105 212/503/105
f 213/504/106 209/505/106 212/506/106 214/507/106
f 215/501/107 213/508/107 214/509/107 216/502/107
f 210/505/108 215/510/108 216/511/108 211/506/108
f 216/323/103 214/322/103 212/512/103 211/513/103
f 210/514/104 209/515/104 213/516/104 215/477/104
f 217/517/109 218/518/109 219/519/109 220/520/109
f 221/521/100 217/522/100 220/523/100 222/524/100
f 223/525/110 221/526/110 222/527/110 224/528/110
f 218/529/102 223/530/102 224/531/102 219/328/102
f 224/532/111 222/533/111 220/526/111 219/525/111
f 218/534/112 217/535/112 221/536/112 223/170/112
f 225/537/113 226/538/113 227/177/113 228/176/113
f 229/539/100 225/540/100 228/541/100 230/339/100
f 231/542/114 229/543/114 230/535/114 232/534/114
f 226/530/102 231/544/102 232/545/102 227/531/102
f 232/546/115 230/547/115 228/187/115 227/186/115
f 226/548/116 225/549/116 229/550/116 231/551/116
f 233/552/117 234/553/117 235/196/117 236/195/117
f 237/554/118 233/555/118 236/549/118 238/548/118
f 239/556/119 237/557/119 238/555/119 240/554/119
f 234/558/120 239/559/120 240/200/120 235/199/120
f 240/560/115 238/561/115 236/562/115 235/563/115
f 234/564/116 233/565/116 237/566/116 239/567/116
f 241/568/121 242/569/121 243/570/121 244/571/121
f 245/572/118 241/573/118 244/574/118 246/575/118
f 247/576/122 245/577/122 246/578/122 248/579/122
f 242/580/120 247/581/120 248/582/120 243/583/120
f 248/584/123 246/585/123 244/586/123 243/587/123
f 242/588/124 241/589/124 245/590/124 247/591/124
f 249/592/125 250/593/125 251/594/125 252/595/125
f 253/596/126 249/597/126 252/598/126 254/599/126
f 255/600/127 253/601/127 254/245/127 256/244/127
f 250/602/128 255/603/128 256/604/128 251/605/128
f 256/606/123 254/607/123 252/608/123 251/609/123
f 250/610/124 249/611/124 253/612/124 255/613/124
f 257/276/129 258/614/129 259/615/129 260/616/129
f 261/617/3 257/618/3 260/540/3 262/539/3
f 263/619/130 261/620/130 262/614/130 264/276/130
f 258/621/1 263/622/1 264/623/1 259/624/1
f 264/625/123 262/626/123 260/620/123 259/619/123
f 258/627/124 257/628/124 261/629/124 263/630/124
f 265/631/131 266/632/131 267/626/131 268/625/131
f 269/633/132 265/634/132 268/453/132 270/635/132
f 271/636/133 269/637/133 270/632/133 272/631/133
f 266/638/134 271/639/134 272/622/134 267/621/134
f 272/640/5 270/641/5 268/642/5 267/643/5
f 266/644/6 265/645/6 269/637/6 271/636/6
f 273/646/2 274/647/2 275/648/2 276/649/2
f 277/634/3 273/650/3 276/651/3 278/453/3
f 279/652/4 277/653/4 278/654/4 280/655/4
f 274/484/1 279/656/1 280/639/1 275/638/1
f 280/657/5 278/658/5 276/659/5 275/660/5
f 274/661/6 273/662/6 277/653/6 279/652/6
f 281/663/135 282/664/135 283/665/135 284/666/135
f 285/667/136 281/668/136 284/669/136 286/512/136
f 287/670/137 285/671/137 286/672/137 288/320/137
f 282/668/138 287/673/138 288/674/138 283/669/138
f 288/675/5 286/676/5 284/677/5 283/678/5
f 282/679/6 281/680/6 285/676/6 287/675/6
f 289/681/139 290/682/139 291/662/139 292/661/139
f 293/650/140 289/683/140 292/684/140 294/651/140
f 295/685/141 293/686/141 294/687/141 296/688/141
f 290/689/142 295/690/142 296/656/142 291/484/142
f 296/691/5 294/692/5 292/682/5 291/681/5
f 290/693/6 289/694/6 293/692/6 295/691/6
f 297/695/132 298/696/132 299/697/132 300/698/132
f 301/508/133 297/699/133 300/700/133 302/509/133
f 303/701/134 301/702/134 302/703/134 304/704/134
f 298/705/131 303/706/131 304/316/131 299/707/131
f 304/524/5 302/708/5 300/694/5 299/693/5
f 298/709/6 297/710/6 301/317/6 303/316/6
f 305/695/143 306/696/143 307/697/143 308/698/143
f 309/508/144 305/699/144 308/700/144 310/509/144
f 311/701/145 309/702/145 310/703/145 312/704/145
f 306/705/146 311/706/146 312/316/146 307/707/146
f 312/524/5 310/708/5 308/694/5 307/693/5
f 306/709/6 305/710/6 309/317/6 311/316/6
f 313/681/147 314/682/147 315/662/147 316/661/147
f 317/650/148 313/683/148 316/684/148 318/651/148
f 319/685/149 317/686/149 318/687/149 320/688/149
f 314/689/150 319/690/150 320/656/150 315/484/150
f 320/691/5 318/692/5 316/682/5 315/681/5
f 314/693/6 313/694/6 317/692/6 319/691/6
f 321/663/151 322/664/151 323/665/151 324/666/151
f 325/667/152 321/668/152 324/669/152 326/512/152
f 327/670/153 325/671/153 326/672/153 328/320/153
f 322/668/154 327/673/154 328/674/154 323/669/154
f 328/675/5 326/676/5 324/677/5 323/678/5
f 322/679/6 321/680/6 325/676/6 327/675/6
f 329/646/155 330/647/155 331/648/155 332/649/155
f 333/634/156 329/650/156 332/651/156 334/453/156
f 335/652/157 333/653/157 334/654/157 336/655/157
f 330/484/158 335/656/158 336/639/158 331/638/158
f 336/657/5 334/658/5 332/659/5 331/660/5
f 330/661/6 329/662/6 333/653/6 335/652/6
f 337/631/146 338/632/146 339/626/146 340/625/146
f 341/633/143 337/634/143 340/453/143 342/635/143
f 343/636/144 341/637/144 342/632/144 344/631/144
f 338/638/145 343/639/145 344/622/145 339/621/145
f 344/640/5 342/641/5 340/642/5 339/643/5
f 338/644/6 337/645/6 341/637/6 343/636/6
f 345/276/159 346/614/159 347/615/159 348/616/159
f 349/617/156 345/618/156 348/540/156 350/539/156
f 351/619/160 349/620/160 350/614/160 352/276/160
f 346/621/158 351/622/158 352/623/158 347/624/158
f 352/625/161 350/626/161 348/620/161 347/619/161
f 346/627/162 345/628/162 349/629/162 351/630/162
f 353/592/163 354/593/163 355/594/163 356/595/163
f 357/596/164 353/597/164 356/598/164 358/599/164
f 359/600/165 357/601/165 358/245/165 360/244/165
f 354/602/166 359/603/166 360/604/166 355/605/166
f 360/606/161 358/607/161 356/608/161 355/609/161
f 354/610/162 353/611/162 357/612/162 359/613/162
f 361/568/167 362/569/167 363/570/167 364/571/167
f 365/572/168 361/573/168 364/574/168 366/575/168
f 367/576/169 365/577/169 366/578/169 368/579/169
f 362/580/170 367/581/170 368/582/170 363/583/170
f 368/584/161 366/585/161 364/586/161 363/587/161
f 362/588/162 361/589/162 365/590/162 367/591/162
f 369/552/171 370/553/171 371/196/171 372/195/171
f 373/554/168 369/555/168 372/549/168 374/548/168
f 375/556/172 373/557/172 374/555/172 376/554/172
f 370/558/170 375/559/170 376/200/170 371/199/170
f 376/560/173 374/561/173 372/562/173 371/563/173
f 370/564/174 369/565/174 373/566/174 375/567/174
f 377/537/175 378/538/175 379/177/175 380/176/175
f 381/539/176 377/540/176 380/541/176 382/339/176
f 383/542/177 381/543/177 382/535/177 384/534/177
f 378/530/178 383/544/178 384/545/178 379/531/178
f 384/546/173 382/547/173 380/187/173 379/186/173
f 378/548/174 377/549/174 381/550/174 383/551/174
f 385/517/179 386/518/179 387/519/179 388/520/179
f 389/521/176 385/522/176 388/523/176 390/524/176
f 391/525/180 389/526/180 390/527/180 392/528/180
f 386/529/178 391/530/178 392/531/178 387/328/178
f 392/532/181 390/533/181 388/526/181 387/525/181
f 386/534/182 385/535/182 389/536/182 391/170/182
f 393/500/183 394/501/183 395/502/183 396/503/183
f 397/504/184 393/505/184 396/506/184 398/507/184
f 399/501/185 397/508/185 398/509/185 400/502/185
f 394/505/186 399/510/186 400/511/186 395/506/186
f 400/323/187 398/322/187 396/512/187 395/513/187
f 394/514/188 393/515/188 397/516/188 399/477/188
f 401/479/189 402/480/189 403/481/189 404/298/189
f 405/482/176 401/483/176 404/484/176 406/485/176
f 407/486/190 405/487/190 406/488/190 408/314/190
f 402/489/178 407/490/178 408/491/178 403/492/178
f 408/493/187 406/494/187 404/495/187 403/491/187
f 402/496/188 401/497/188 405/498/188 407/499/188
f 409/457/191 410/458/191 411/459/191 412/460/191
f 413/461/192 409/462/192 412/463/192 414/464/192
f 415/465/193 413/466/193 414/467/193 416/468/193
f 410/469/194 415/470/194 416/471/194 411/472/194
f 416/473/5 414/474/5 412/475/5 411/476/5
f 410/477/6 409/478/6 413/474/6 415/473/6
f 417/435/195 418/436/195 419/437/195 420/438/195
f 421/439/196 417/440/196 420/441/196 422/442/196
f 423/443/197 421/444/197 422/445/197 424/446/197
f 418/440/198 423/447/198 424/448/198 419/441/198
f 424/449/5 422/450/5 420/451/5 419/452/5
f 418/453/6 417/454/6 421/455/6 423/456/6
f 425/412/199 426/413/199 427/414/199 428/415/199
f 429/416/200 425/417/200 428/418/200 430/419/200
f 431/420/201 429/421/201 430/422/201 432/423/201
f 426/424/202 431/425/202 432/426/202 427/408/202
f 432/427/5 430/428/5 428/429/5 427/430/5
f 426/431/6 425/432/6 429/433/6 431/434/6
f 433/391/3 434/392/3 435/393/3 436/292/3
f 437/394/4 433/395/4 436/396/4 438/397/4
f 439/398/1 437/399/1 438/400/1 440/401/1
f 434/402/2 439/403/2 440/404/2 435/346/2
f 440/405/5 438/406/5 436/407/5 435/396/5
f 434/408/6 433/409/6 437/410/6 439/411/6
f 441/369/203 442/370/203 443/371/203 444/372/203
f 445/373/204 441/374/204 444/375/204 446/38/204
f 447/376/205 445/377/205 446/378/205 448/379/205
f 442/380/206 447/381/206 448/382/206 443/383/206
f 448/384/5 446/385/5 444/386/5 443/387/5
f 442/115/6 441/388/6 445/389/6 447/390/6
f 449/349/207 450/350/207 451/351/207 452/352/207
f 453/353/208 449/354/208 452/355/208 454/83/208
f 455/356/209 453/357/209 454/358/209 456/359/209
f 450/360/210 455/361/210 456/362/210 451/363/210
f 456/364/5 454/365/5 452/366/5 451/367/5
f 450/38/6 449/368/6 453/365/6 455/364/6
f 457/267/211 458/332/211 459/333/211 460/268/211
f 461/334/212 457/335/212 460/336/212 462/79/212
f 463/337/213 461/338/213 462/339/213 464/324/213
f 458/340/214 463/341/214 464/342/214 459/78/214
f 464/343/215 462/4/215 460/344/215 459/345/215
f 458/346/216 457/347/216 461/348/216 463/148/216
f 465/308/217 466/309/217 467/310/217 468/311/217
f 469/312/218 465/313/218 468/314/218 470/315/218
f 471/316/219 469/317/219 470/318/219 472/319/219
f 466/320/220 471/321/220 472/322/220 467/323/220
f 472/324/221 470/325/221 468/326/221 467/327/221
f 466/328/222 465/329/222 469/330/222 471/331/222
f 473/286/223 474/287/223 475/288/223 476/289/223
f 477/290/218 473/291/218 476/292/218 478/293/218
f 479/294/224 477/295/224 478/287/224 480/286/224
f 474/296/220 479/297/220 480/298/220 475/299/220
f 480/300/225 478/301/225 476/302/225 475/303/225
f 474/304/226 473/305/226 477/306/226 479/307/226
f 481/262/227 482/263/227 483/264/227 484/265/227
f 485/266/218 481/267/218 484/268/218 486/269/218
f 487/270/228 485/271/228 486/272/228 488/273/228
f 482/274/220 487/275/220 488/276/220 483/277/220
f 488/278/215 486/279/215 484/280/215 483/281/215
f 482/282/216 481/283/216 485/284/216 487/285/216
f 489/244/229 490/245/229 491/246/229 492/247/229
f 493/248/230 489/249/230 492/210/230 494/209/230
f 495/250/231 493/251/231 494/249/231 496/248/231
f 490/252/232 495/253/232 496/251/232 491/250/232
f 496/254/225 494/255/225 492/256/225 491/257/225
f 490/258/226 489/259/226 493/260/226 495/261/226
f 497/221/233 498/222/233 499/223/233 500/224/233
f 501/225/230 497/226/230 500/107/230 502/227/230
f 503/228/234 501/229/234 502/230/234 504/231/234
f 498/232/232 503/233/232 504/234/232 499/235/232
f 504/236/235 502/237/235 500/238/235 499/239/235
f 498/240/236 497/241/236 501/242/236 503/243/236
f 505/199/237 506/200/237 507/201/237 508/202/237
f 509/203/238 505/204/238 508/205/238 510/206/238
f 511/207/239 509/208/239 510/204/239 512/203/239
f 506/209/240 511/210/240 512/211/240 507/212/240
f 512/213/235 510/214/235 508/215/235 507/216/235
f 506/217/236 505/218/236 509/219/236 511/220/236
f 513/179/241 514/180/241 515/181/241 516/182/241
f 517/183/80 513/184/80 516/111/80 518/185/80
f 519/186/242 517/187/242 518/188/242 520/189/242
f 514/190/82 519/191/82 520/143/82 515/192/82
f 520/193/235 518/194/235 516/180/235 515/179/235
f 514/195/236 513/196/236 517/197/236 519/198/236
f 521/156/79 522/157/79 523/158/79 524/159/79
f 525/160/80 521/161/80 524/162/80 526/163/80
f 527/164/81 525/165/81 526/166/81 528/167/81
f 522/168/82 527/169/82 528/170/82 523/171/82
f 528/172/5 526/173/5 524/174/5 523/175/5
f 522/176/6 521/177/6 525/178/6 527/162/6
f 529/132/243 530/133/243 531/134/243 532/135/243
f 533/136/244 529/137/244 532/138/244 534/139/244
f 535/140/245 533/141/245 534/142/245 536/143/245
f 530/144/246 535/145/246 536/146/246 531/147/246
f 536/148/5 534/149/5 532/150/5 531/151/5
f 530/152/6 529/153/6 533/154/6 535/155/6
f 537/108/44 538/109/44 539/110/44 540/111/44
f 541/112/45 537/113/45 540/114/45 542/115/45
f 543/116/46 541/117/46 542/118/46 544/119/46
f 538/120/43 543/121/43 544/122/43 539/123/43
f 544/124/5 542/125/5 540/126/5 539/127/5
f 538/128/6 537/129/6 541/130/6 543/131/6
f 545/87/247 546/88/247 547/89/247 548/90/247
f 549/91/248 545/92/248 548/93/248 550/94/248
f 551/95/249 549/96/249 550/97/249 552/98/249
f 546/99/250 551/100/250 552/101/250 547/17/250
f 552/102/5 550/103/5 548/104/5 547/105/5
f 546/106/6 545/107/6 549/103/6 551/102/6
