# Blender 4.5.10 LTS
# www.blender.org
mtllib cash.mtl
o Cash
v 0.100859 0.003451 0.099735
v 0.078608 0.039272 0.101097
v 0.100873 0.003449 -0.100265
v 0.078608 0.039272 -0.098896
v 0.047467 0.003204 0.099724
v -0.011089 0.006138 0.099694
v -0.011089 0.015590 0.100278
v 0.030057 0.012974 0.100693
v 0.047467 0.003204 -0.100275
v -0.011089 0.006113 -0.100305
v -0.011089 0.015590 -0.099715
v 0.030057 0.012974 -0.099300
v -0.042025 0.028374 0.099955
v -0.051479 0.024534 0.099771
v -0.042025 0.028324 -0.100041
v -0.051479 0.024456 -0.100225
v -0.042025 0.002104 0.099665
v -0.055395 0.015216 0.099690
v -0.051479 0.005945 0.099679
v -0.055395 0.015173 -0.100307
v -0.042025 0.002099 -0.100333
v -0.051479 0.005913 -0.100319
v 0.100838 0.007946 0.099735
v 0.081015 0.035477 0.101097
v 0.100852 0.007944 -0.100265
v 0.081015 0.035477 -0.098896
v 0.047572 0.007697 0.099724
v -0.011089 0.010630 0.099694
v -0.011089 0.011173 0.100279
v 0.031380 0.008679 0.100693
v 0.047572 0.007697 -0.100276
v -0.011089 0.010605 -0.100306
v -0.011089 0.011175 -0.099715
v 0.031367 0.008675 -0.099300
v -0.042080 0.023879 0.099956
v -0.048330 0.021326 0.099772
v -0.042046 0.023829 -0.100040
v -0.048308 0.021270 -0.100224
v -0.041439 0.006561 0.099665
v -0.050900 0.015213 0.099690
v -0.048324 0.009146 0.099678
v -0.050900 0.015182 -0.100307
v -0.041439 0.006556 -0.100334
v -0.048326 0.009116 -0.100319
vn -0.2132 0.9770 -0.0000
vn -0.2163 0.9763 -0.0000
vn -0.4763 0.8793 -0.0000
vn 0.0046 -1.0000 -0.0000
vn -0.0226 -0.9997 -0.0000
vn 0.0397 -0.9992 0.0001
vn 0.0398 -0.9992 0.0001
vn -0.1273 -0.9919 0.0001
vn 0.2264 0.9740 -0.0001
vn 0.2244 0.9745 -0.0001
vn -0.0016 1.0000 -0.0002
vn -0.7056 0.7087 -0.0002
vn -0.7006 0.7136 -0.0002
vn 0.0056 1.0000 -0.0002
vn -1.0000 -0.0020 -0.0000
vn -1.0000 0.0006 -0.0000
vn -0.7014 -0.7127 0.0001
vn -0.7020 -0.7122 0.0001
vn 0.2149 -0.9766 -0.0000
vn 0.4751 -0.8800 -0.0000
vn 0.2179 -0.9760 -0.0000
vn -0.0046 1.0000 -0.0000
vn 0.0226 0.9997 -0.0000
vn 0.0225 0.9997 -0.0000
vn -0.0416 0.9991 -0.0001
vn 0.1120 0.9937 -0.0001
vn 0.1121 0.9937 -0.0001
vn -0.2228 -0.9749 -0.0000
vn -0.2208 -0.9753 -0.0000
vn 0.0044 -1.0000 0.0002
vn -0.0051 -1.0000 0.0002
vn 0.6990 -0.7151 0.0002
vn 0.7064 -0.7078 0.0002
vn 1.0000 -0.0014 -0.0000
vn 1.0000 0.0026 -0.0000
vn 0.6918 0.7221 -0.0001
vn 0.6910 0.7228 -0.0001
vn 0.0084 0.0022 -1.0000
vn 0.0066 0.0030 -1.0000
vn 0.0082 0.0023 -1.0000
vn 0.0120 0.0086 -0.9999
vn 0.0153 0.0039 -0.9999
vn 0.0121 0.0085 -0.9999
vn 1.0000 0.0046 0.0001
vn -0.0003 0.0002 -1.0000
vn -0.0011 0.0010 -1.0000
vn -0.0004 -0.0000 1.0000
vn -0.0002 -0.0000 1.0000
vn 0.0010 -0.0009 1.0000
vn 0.0002 -0.0002 1.0000
vn -0.0007 0.0001 1.0000
vn -0.0152 -0.0038 0.9999
vn -0.0120 -0.0084 0.9999
vn -0.0153 -0.0038 0.9999
vn -0.0084 -0.0022 1.0000
vn -0.0102 -0.0005 0.9999
vn -0.0102 -0.0008 0.9999
vn -0.0082 -0.0023 1.0000
vn 0.0002 -0.0000 -1.0000
vn 0.0004 -0.0000 -1.0000
vn 0.0017 0.0052 -1.0000
vn 0.0102 0.0005 -0.9999
vn 0.0102 0.0008 -0.9999
vn 0.0007 -0.0001 -1.0000
vn -0.0017 -0.0051 1.0000
vn -0.0066 -0.0030 1.0000
vn 0.8445 0.5356 -0.0000
vt 0.000000 0.823980
vt 0.484298 0.823980
vt 0.484298 1.000000
vt 0.000000 1.000000
vt 0.000000 -0.000000
vt 0.484298 -0.000000
vt 0.484298 0.170225
vt 0.000000 0.170225
vt 0.484298 0.357119
vt 0.000000 0.357119
vt 0.484298 0.456567
vt 0.000000 0.456567
vt 0.000000 0.692547
vt 0.484298 0.692547
vt 0.000000 0.585867
vt 0.000000 0.553316
vt 0.484298 0.553316
vt 0.484298 0.585867
vt 0.000000 0.521146
vt 0.484298 0.521146
vt 0.000000 0.489080
vt 0.484298 0.489080
vt 0.972273 0.789730
vt 0.972273 0.970868
vt 0.484388 0.970868
vt 0.484388 0.789730
vt 0.972273 0.000000
vt 0.972273 0.171051
vt 0.484388 0.171051
vt 0.484388 0.000000
vt 0.972273 0.359629
vt 0.484388 0.359629
vt 0.972273 0.457944
vt 0.484388 0.457945
vt 0.972273 0.653152
vt 0.484388 0.653152
vt 0.972273 0.545685
vt 0.484388 0.545685
vt 0.484388 0.523979
vt 0.972273 0.523979
vt 0.484388 0.502707
vt 0.972273 0.502707
vt 0.484388 0.481548
vt 0.972273 0.481548
vt 0.996733 0.484268
vt 0.996733 0.591454
vt 0.988348 0.591454
vt 0.988348 0.484268
vt 0.996733 0.323308
vt 0.996733 0.339614
vt 0.988348 0.339614
vt 0.988348 0.323308
vt 0.979967 0.384235
vt 0.979967 0.000000
vt 0.988348 0.000000
vt 0.988348 0.384235
vt 0.996733 0.274461
vt 0.996733 0.291302
vt 0.988348 0.291302
vt 0.988348 0.274461
vt 0.979967 0.486691
vt 0.988348 0.486691
vt 0.979967 0.675677
vt 0.979967 0.658811
vt 0.988348 0.658811
vt 0.988348 0.675677
vt 0.979967 0.599428
vt 0.988348 0.599428
vt 0.979967 0.724048
vt 0.979967 0.707756
vt 0.988348 0.707756
vt 0.988348 0.724048
vt 0.979967 0.868852
vt 0.979967 0.788379
vt 0.988348 0.788379
vt 0.988348 0.868852
vt 0.996733 0.000000
vt 0.996733 0.102432
vt 0.988348 0.102432
vt 0.988348 0.000000
vt 0.996733 0.307281
vt 0.988348 0.307281
vt 0.996733 0.403847
vt 0.988348 0.403847
vt 0.996733 0.215111
vt 0.988348 0.215111
vt 0.979967 0.691676
vt 0.988348 0.691676
vt 0.979967 0.976078
vt 0.988348 0.976078
vt 0.996733 0.975487
vt 0.988348 0.975487
s 1
usemtl cash
f 12/1/1 8/2/2 2/3/3 4/4/3
f 3/5/4 1/6/4 5/7/5 9/8/5
f 9/8/5 5/7/5 6/9/6 10/10/7
f 10/10/7 6/9/6 17/11/8 21/12/8
f 11/13/9 7/14/10 8/2/2 12/1/1
f 15/15/11 16/16/12 14/17/13 13/18/14
f 16/16/12 20/19/15 18/20/16 14/17/13
f 20/19/15 22/21/17 19/22/18 18/20/16
f 22/21/17 21/12/8 17/11/8 19/22/18
f 7/14/10 11/13/9 15/15/11 13/18/14
f 34/23/19 26/24/20 24/25/20 30/26/21
f 25/27/22 31/28/23 27/29/24 23/30/22
f 31/28/23 32/31/25 28/32/25 27/29/24
f 32/31/25 43/33/26 39/34/27 28/32/25
f 33/35/28 34/23/19 30/26/21 29/36/29
f 37/37/30 35/38/31 36/39/32 38/40/33
f 38/40/33 36/39/32 40/41/34 42/42/35
f 42/42/35 40/41/34 41/43/36 44/44/37
f 44/44/37 41/43/36 39/34/27 43/33/26
f 29/36/29 35/38/31 37/37/30 33/35/28
f 12/45/38 4/46/39 26/47/39 34/48/40
f 16/49/41 15/50/42 37/51/42 38/52/43
s 0
f 1/53/44 3/54/44 25/55/44 23/56/44
s 1
f 21/57/45 22/58/46 44/59/46 43/60/45
f 5/61/47 1/53/48 23/56/48 27/62/47
f 19/63/49 17/64/50 39/65/50 41/66/49
f 6/67/51 5/61/47 27/62/47 28/68/51
f 13/69/52 14/70/53 36/71/53 35/72/54
f 8/73/55 7/74/56 29/75/57 30/76/58
f 7/74/56 13/69/52 35/72/54 29/75/57
f 3/77/59 9/78/60 31/79/60 25/80/59
f 22/58/46 20/81/61 42/82/61 44/59/46
f 15/50/42 11/83/62 33/84/63 37/51/42
f 9/78/60 10/85/64 32/86/64 31/79/60
f 20/81/61 16/49/41 38/52/43 42/82/61
f 10/85/64 21/57/45 43/60/45 32/86/64
f 11/83/62 12/45/38 34/48/40 33/84/63
f 18/87/65 19/63/49 41/66/49 40/88/65
f 2/89/66 8/73/55 30/76/58 24/90/66
f 14/70/53 18/87/65 40/88/65 36/71/53
f 17/64/50 6/67/51 28/68/51 39/65/50
s 0
f 4/46/67 2/91/67 24/92/67 26/47/67
