# Blender 4.5.10 LTS
# www.blender.org
mtllib ciggarete.mtl
o ciggarete
v 0.066194 1.012008 0.003014
v 0.054631 1.012008 0.007804
v 0.049842 1.012008 0.019367
v 0.054631 1.012008 0.030929
v 0.066194 1.012008 0.035719
v 0.077757 1.012008 0.030929
v 0.082546 1.012008 0.019367
v 0.077757 1.012008 0.007804
v 0.066194 1.256989 0.003014
v 0.054631 1.256989 0.007804
v 0.049842 1.256989 0.019367
v 0.054631 1.256989 0.030929
v 0.066194 1.256989 0.035719
v 0.077757 1.256989 0.030929
v 0.082546 1.256989 0.019367
v 0.077757 1.256989 0.007804
vn -0.0000 -0.0000 1.0000
vn -0.7071 -0.0000 0.7071
vn -1.0000 -0.0000 -0.0000
vn -0.7071 -0.0000 -0.7071
vn 0.7071 -0.0000 -0.7071
vn 1.0000 -0.0000 -0.0000
vn 0.7071 -0.0000 0.7071
vn -0.0000 -0.0000 -1.0000
vn -0.0000 -1.0000 -0.0000
vn -0.0000 1.0000 -0.0000
vt 0.069364 0.930693
vt 0.069364 0.610371
vt 0.085729 0.610371
vt 0.085729 0.930693
vt 0.102093 0.930693
vt 0.102093 0.610371
vt 0.118458 0.610371
vt 0.118458 0.930693
vt 0.020271 0.930693
vt 0.020271 0.610371
vt 0.036635 0.610371
vt 0.036635 0.930693
vt 0.053000 0.930693
vt 0.053000 0.610371
vt 0.134822 0.610371
vt 0.134822 0.930693
vt 0.003906 0.930693
vt 0.003906 0.610371
vt 0.164601 0.651505
vt 0.143220 0.630124
vt 0.164601 0.608743
vt 0.164601 0.698843
vt 0.143220 0.677462
vt 0.164601 0.656080
vt 0.179720 0.615005
vt 0.185983 0.630124
vt 0.179720 0.645243
vt 0.149483 0.645243
vt 0.149483 0.615005
vt 0.179720 0.662343
vt 0.185983 0.677462
vt 0.179720 0.692580
vt 0.149483 0.692580
vt 0.149483 0.662343
s 1
usemtl Ciggarete
f 5/1/1 13/2/1 12/3/2 4/4/2
f 3/5/3 11/6/3 10/7/4 2/8/4
f 8/9/5 16/10/5 15/11/6 7/12/6
f 6/13/7 14/14/7 13/2/1 5/1/1
f 4/4/2 12/3/2 11/6/3 3/5/3
f 2/8/4 10/7/4 9/15/8 1/16/8
f 1/17/8 9/18/8 16/10/5 8/9/5
f 7/12/6 15/11/6 14/14/7 6/13/7
f 7/19/9 5/20/9 3/21/9
f 13/22/10 15/23/10 9/24/10
f 3/21/9 2/25/9 1/26/9
f 1/26/9 8/27/9 7/19/9
f 7/19/9 6/28/9 5/20/9
f 5/20/9 4/29/9 3/21/9
f 3/21/9 1/26/9 7/19/9
f 9/24/10 10/30/10 11/31/10
f 11/31/10 12/32/10 13/22/10
f 13/22/10 14/33/10 15/23/10
f 15/23/10 16/34/10 9/24/10
f 9/24/10 11/31/10 13/22/10
