# Blender 4.5.10 LTS
# www.blender.org
mtllib phone.mtl
o phone
v -0.076923 0.000000 -0.010584
v -0.090795 0.005746 -0.010584
v -0.096542 0.386897 -0.010584
v -0.076923 0.406516 -0.010584
v -0.090795 0.400770 -0.010584
v 0.096542 0.386897 -0.010584
v 0.076923 0.406516 -0.010584
v -0.073815 0.015626 -0.026210
v -0.076012 0.004577 -0.021633
v -0.080916 0.022727 -0.026210
v -0.096542 0.019619 -0.010584
v -0.091965 0.020529 -0.021633
v -0.078836 0.017706 -0.026210
v -0.087292 0.009249 -0.021633
v -0.080916 0.383789 -0.026210
v -0.091965 0.385987 -0.021633
v -0.073815 0.390890 -0.026210
v -0.076012 0.401939 -0.021633
v -0.078836 0.388810 -0.026210
v -0.087292 0.397267 -0.021633
v 0.080916 0.022727 -0.026210
v 0.096542 0.019619 -0.010584
v 0.091965 0.020529 -0.021633
v 0.073815 0.015626 -0.026210
v 0.076923 0.000000 -0.010584
v 0.076012 0.004577 -0.021633
v 0.078836 0.017706 -0.026210
v 0.090795 0.005746 -0.010584
v 0.087293 0.009249 -0.021633
v 0.073815 0.390890 -0.026210
v 0.076012 0.401939 -0.021633
v 0.080916 0.383789 -0.026210
v 0.091965 0.385987 -0.021633
v 0.078836 0.388810 -0.026210
v 0.090795 0.400770 -0.010584
v 0.087292 0.397267 -0.021633
v -0.092094 0.020504 0.022752
v -0.096542 0.019619 0.018304
v -0.076038 0.004448 0.022752
v -0.076923 0.000000 0.018304
v -0.087391 0.009150 0.022752
v -0.090795 0.005746 0.018304
v -0.076038 0.402068 0.022751
v -0.076923 0.406516 0.018304
v -0.092094 0.386012 0.022751
v -0.096542 0.386897 0.018304
v -0.087391 0.397366 0.022751
v -0.090795 0.400770 0.018304
v 0.076038 0.004448 0.022752
v 0.076923 0.000000 0.018304
v 0.096542 0.019619 0.018304
v 0.087391 0.009150 0.022752
v 0.090795 0.005746 0.018304
v 0.092094 0.386012 0.022751
v 0.096542 0.386897 0.018304
v 0.076038 0.402068 0.022751
v 0.076923 0.406516 0.018304
v 0.087391 0.397366 0.022751
v 0.090795 0.400770 0.018304
v 0.092094 0.020504 0.022752
v 0.066392 0.206727 0.017397
v -0.066392 0.206727 0.017397
v 0.066392 0.206727 0.022752
v -0.066392 0.206727 0.022752
v -0.066392 0.361966 0.022751
v 0.066392 0.361966 0.022751
v 0.066392 0.361966 0.017397
v -0.066392 0.361966 0.017397
v -0.061176 0.099993 0.026210
v -0.061176 0.103646 0.026210
v -0.029064 0.099993 0.026210
v -0.029064 0.103646 0.026210
v -0.062103 0.104573 0.022752
v -0.062103 0.099066 0.022752
v -0.028137 0.104573 0.022752
v -0.028137 0.099066 0.022752
v 0.029064 0.099993 0.026210
v 0.029064 0.103646 0.026210
v 0.061176 0.099993 0.026210
v 0.061176 0.103646 0.026210
v 0.028137 0.104573 0.022752
v 0.028137 0.099066 0.022752
v 0.062103 0.104573 0.022752
v 0.062103 0.099066 0.022752
v 0.016983 0.099066 0.022752
v 0.016983 0.104573 0.022752
v -0.016983 0.099066 0.022752
v -0.016983 0.104573 0.022752
v 0.016056 0.103646 0.026210
v 0.016056 0.099993 0.026210
v -0.016056 0.103646 0.026210
v -0.016056 0.099993 0.026210
v -0.061176 0.078954 0.026210
v -0.061176 0.082607 0.026210
v -0.029064 0.078954 0.026210
v -0.029064 0.082607 0.026210
v -0.062103 0.083534 0.022752
v -0.062103 0.078027 0.022752
v -0.028137 0.083534 0.022752
v -0.028137 0.078027 0.022752
v 0.029064 0.078954 0.026210
v 0.029064 0.082607 0.026210
v 0.061176 0.078954 0.026210
v 0.061176 0.082607 0.026210
v 0.028137 0.083534 0.022752
v 0.028137 0.078027 0.022752
v 0.062103 0.083534 0.022752
v 0.062103 0.078027 0.022752
v 0.016983 0.078027 0.022752
v 0.016983 0.083534 0.022752
v -0.016983 0.078027 0.022752
v -0.016983 0.083534 0.022752
v 0.016056 0.082607 0.026210
v 0.016056 0.078954 0.026210
v -0.016056 0.082607 0.026210
v -0.016056 0.078954 0.026210
v -0.061176 0.057914 0.026210
v -0.061176 0.061567 0.026210
v -0.029064 0.057914 0.026210
v -0.029064 0.061567 0.026210
v -0.062103 0.062494 0.022752
v -0.062103 0.056987 0.022752
v -0.028137 0.062494 0.022752
v -0.028137 0.056987 0.022752
v 0.029064 0.057914 0.026210
v 0.029064 0.061567 0.026210
v 0.061176 0.057914 0.026210
v 0.061176 0.061567 0.026210
v 0.028137 0.062494 0.022752
v 0.028137 0.056987 0.022752
v 0.062103 0.062494 0.022752
v 0.062103 0.056987 0.022752
v 0.016983 0.056987 0.022752
v 0.016983 0.062494 0.022752
v -0.016983 0.056987 0.022752
v -0.016983 0.062494 0.022752
v 0.016056 0.061567 0.026210
v 0.016056 0.057914 0.026210
v -0.016056 0.061567 0.026210
v -0.016056 0.057914 0.026210
v -0.061176 0.036875 0.026210
v -0.061176 0.040528 0.026210
v -0.029064 0.036875 0.026210
v -0.029064 0.040528 0.026210
v -0.062103 0.041455 0.022752
v -0.062103 0.035948 0.022752
v -0.028137 0.041455 0.022752
v -0.028137 0.035948 0.022752
v 0.029064 0.036875 0.026210
v 0.029064 0.040528 0.026210
v 0.061176 0.036875 0.026210
v 0.061176 0.040528 0.026210
v 0.028137 0.041455 0.022752
v 0.028137 0.035948 0.022752
v 0.062103 0.041455 0.022752
v 0.062103 0.035948 0.022752
v 0.016983 0.035948 0.022752
v 0.016983 0.041455 0.022752
v -0.016983 0.035948 0.022752
v -0.016983 0.041455 0.022752
v 0.016056 0.040528 0.026210
v 0.016056 0.036875 0.026210
v -0.016056 0.040528 0.026210
v -0.016056 0.036875 0.026210
v 0.000000 0.185934 0.022752
v -0.021679 0.176955 0.022752
v -0.030658 0.155276 0.022752
v -0.021679 0.133597 0.022752
v 0.000000 0.124618 0.022752
v 0.000000 0.137083 0.026210
v -0.012864 0.142412 0.026210
v -0.091965 0.178590 0.026210
v -0.091965 0.129946 0.022752
v -0.091965 0.180606 0.022752
v -0.060844 0.136854 0.023817
v -0.053213 0.155276 0.023817
v -0.060844 0.173698 0.023817
v -0.018193 0.155276 0.026210
v 0.000000 0.173469 0.026210
v -0.012864 0.168140 0.026210
v -0.066402 0.142412 0.023817
v -0.061074 0.155276 0.023817
v -0.066402 0.168140 0.023817
v -0.060844 0.136854 0.026210
v -0.053213 0.155276 0.026210
v -0.060844 0.173698 0.026210
v -0.059013 0.135023 0.026210
v -0.050624 0.155276 0.026210
v -0.020253 0.175529 0.026210
v 0.000000 0.183919 0.026210
v -0.028643 0.155276 0.026210
v -0.020253 0.135023 0.026210
v 0.000000 0.126633 0.026210
v -0.018422 0.173698 0.026210
v 0.000000 0.181329 0.026210
v -0.026053 0.155276 0.026210
v -0.018422 0.136854 0.026210
v 0.000000 0.129223 0.026210
v -0.012864 0.168140 0.023817
v 0.000000 0.173469 0.023817
v -0.018193 0.155276 0.023817
v -0.012864 0.142412 0.023817
v 0.000000 0.137083 0.023817
v -0.018422 0.173698 0.023817
v -0.026053 0.155276 0.023817
v -0.018422 0.136854 0.023817
v 0.000000 0.129223 0.023817
v 0.000000 0.181329 0.023817
v -0.059013 0.175529 0.026210
v -0.066402 0.168140 0.026210
v -0.061074 0.155276 0.026210
v -0.066402 0.142412 0.026210
v -0.057588 0.133597 0.022752
v -0.048608 0.155276 0.022752
v -0.057588 0.176955 0.022752
v -0.079267 0.181329 0.023817
v -0.079267 0.129223 0.023817
v -0.079267 0.137083 0.023817
v -0.079267 0.173469 0.023817
v -0.079267 0.129223 0.026210
v -0.079267 0.181329 0.026210
v -0.079267 0.126633 0.026210
v -0.079267 0.183919 0.026210
v -0.091965 0.168140 0.026210
v -0.079267 0.173469 0.026210
v -0.091965 0.142412 0.026210
v -0.079267 0.137083 0.026210
v -0.079267 0.124618 0.022752
v -0.079267 0.185934 0.022752
v -0.091965 0.131962 0.026210
v -0.091965 0.134345 0.026210
v -0.091965 0.176207 0.026210
v -0.091965 0.176207 0.023817
v -0.091965 0.168140 0.023817
v -0.091965 0.134345 0.023817
v -0.091965 0.142412 0.023817
v 0.021679 0.176955 0.022752
v 0.030658 0.155276 0.022752
v 0.021679 0.133597 0.022752
v 0.012864 0.142412 0.026210
v 0.091965 0.178590 0.026210
v 0.091965 0.129946 0.022752
v 0.091965 0.180606 0.022752
v 0.060844 0.136854 0.023817
v 0.053213 0.155276 0.023817
v 0.060844 0.173698 0.023817
v 0.018193 0.155276 0.026210
v 0.012864 0.168140 0.026210
v 0.066402 0.142412 0.023817
v 0.061074 0.155276 0.023817
v 0.066402 0.168140 0.023817
v 0.060844 0.136854 0.026210
v 0.053213 0.155276 0.026210
v 0.060844 0.173698 0.026210
v 0.059013 0.135023 0.026210
v 0.050624 0.155276 0.026210
v 0.020253 0.175529 0.026210
v 0.028643 0.155276 0.026210
v 0.020253 0.135023 0.026210
v 0.018422 0.173698 0.026210
v 0.026053 0.155276 0.026210
v 0.018422 0.136854 0.026210
v 0.012864 0.168140 0.023817
v 0.018193 0.155276 0.023817
v 0.012864 0.142412 0.023817
v 0.018422 0.173698 0.023817
v 0.026053 0.155276 0.023817
v 0.018422 0.136854 0.023817
v 0.059013 0.175529 0.026210
v 0.066402 0.168140 0.026210
v 0.061074 0.155276 0.026210
v 0.066402 0.142412 0.026210
v 0.057588 0.133597 0.022752
v 0.048608 0.155276 0.022752
v 0.057588 0.176955 0.022752
v 0.079267 0.181329 0.023817
v 0.079267 0.129223 0.023817
v 0.079267 0.137083 0.023817
v 0.079267 0.173469 0.023817
v 0.079267 0.129223 0.026210
v 0.079267 0.181329 0.026210
v 0.079267 0.126633 0.026210
v 0.079267 0.183919 0.026210
v 0.091965 0.168140 0.026210
v 0.079267 0.173469 0.026210
v 0.091965 0.142412 0.026210
v 0.079267 0.137083 0.026210
v 0.079267 0.124618 0.022752
v 0.079267 0.185934 0.022752
v 0.091965 0.131962 0.026210
v 0.091965 0.134345 0.026210
v 0.091965 0.176207 0.026210
v 0.091965 0.176207 0.023817
v 0.091965 0.168140 0.023817
v 0.091965 0.134345 0.023817
v 0.091965 0.142412 0.023817
vn -0.0419 0.2105 -0.9767
vn -0.1590 0.1590 -0.9744
vn -0.5169 0.5169 -0.6824
vn -0.1414 0.7109 -0.6889
vn -0.6929 0.6929 -0.1994
vn -0.1914 0.9622 -0.1938
vn -0.2105 0.0419 -0.9767
vn -0.7109 0.1414 -0.6889
vn -0.9622 0.1914 -0.1938
vn 0.0419 -0.2105 -0.9767
vn 0.1590 -0.1590 -0.9744
vn 0.5169 -0.5169 -0.6824
vn 0.1414 -0.7109 -0.6889
vn 0.6929 -0.6929 -0.1994
vn 0.1914 -0.9622 -0.1938
vn 0.2105 -0.0419 -0.9767
vn 0.7109 -0.1414 -0.6889
vn 0.9622 -0.1914 -0.1938
vn -0.1590 -0.1590 -0.9744
vn -0.0419 -0.2105 -0.9767
vn -0.1414 -0.7109 -0.6889
vn -0.5169 -0.5169 -0.6824
vn -0.1914 -0.9622 -0.1938
vn -0.6929 -0.6929 -0.1994
vn -0.2105 -0.0419 -0.9767
vn -0.7109 -0.1414 -0.6889
vn -0.9622 -0.1914 -0.1938
vn 0.1590 0.1590 -0.9744
vn 0.0419 0.2105 -0.9767
vn 0.1414 0.7109 -0.6889
vn 0.5169 0.5169 -0.6824
vn 0.1914 0.9622 -0.1938
vn 0.6929 0.6929 -0.1994
vn 0.2105 0.0419 -0.9767
vn 0.7109 0.1414 -0.6889
vn 0.9622 0.1914 -0.1938
vn -0.0109 -0.3432 0.9392
vn -0.3818 -0.3818 0.8417
vn -0.7009 -0.7009 0.1319
vn -0.0336 -0.9907 0.1317
vn -0.0641 -0.0009 0.9979
vn -0.9911 -0.0149 0.1321
vn 0.0054 0.1711 0.9852
vn 0.3818 0.3818 0.8417
vn 0.7009 0.7009 0.1319
vn 0.0336 0.9907 0.1317
vn 0.1875 0.0026 0.9823
vn 0.9911 0.0149 0.1321
vn -0.3818 0.3818 0.8417
vn -0.0034 0.1062 0.9943
vn -0.0337 0.9907 0.1317
vn -0.7009 0.7009 0.1319
vn -0.1876 0.0026 0.9823
vn -0.9911 0.0148 0.1321
vn 0.3818 -0.3818 0.8417
vn 0.0066 -0.2064 0.9785
vn 0.0337 -0.9907 0.1317
vn 0.7010 -0.7008 0.1319
vn 0.0451 -0.0007 0.9990
vn 0.9911 -0.0148 0.1321
vn -0.0000 -0.0000 1.0000
vn -1.0000 -0.0000 -0.0000
vn -0.0000 1.0000 -0.0000
vn -0.0000 -1.0000 -0.0000
vn 1.0000 -0.0000 -0.0000
vn -0.0000 0.9659 0.2589
vn 0.9659 -0.0000 0.2589
vn -0.0000 -0.9659 0.2589
vn -0.9659 -0.0000 0.2589
vn -0.6109 0.6109 0.5035
vn -0.8640 -0.0000 0.5035
vn -0.5803 -0.0000 0.8144
vn -0.4103 0.4103 0.8144
vn -0.6109 -0.6109 0.5035
vn -0.4103 -0.4103 0.8144
vn -0.0000 0.8640 0.5035
vn -0.0000 0.5803 0.8144
vn -0.0000 -0.8640 0.5035
vn -0.0000 -0.5803 0.8144
vn 0.7071 -0.7071 -0.0000
vn -0.3869 -0.9221 -0.0000
vn -0.0023 -1.0000 -0.0000
vn 0.6109 -0.6109 0.5035
vn 0.4103 -0.4103 0.8144
vn -0.0015 -0.5807 0.8141
vn -0.0018 -0.8640 0.5035
vn 0.8640 -0.0000 0.5035
vn 0.5803 -0.0000 0.8144
vn -0.0018 0.8640 0.5035
vn -0.0015 0.5807 0.8141
vn 0.4103 0.4103 0.8144
vn 0.6109 0.6109 0.5035
vn 0.4203 -0.4203 0.8042
vn -0.0000 -0.5944 0.8042
vn 0.5944 -0.0000 0.8042
vn 0.4203 0.4203 0.8042
vn -0.0000 0.5944 0.8042
vn 0.7071 0.7071 -0.0000
vn -0.7071 -0.7071 -0.0000
vn -0.7071 0.7071 -0.0000
vn 0.2984 0.7398 0.6030
vn -0.0028 0.5960 0.8030
vn -0.0046 1.0000 -0.0000
vn 0.3741 0.9274 -0.0000
vn -0.1624 -0.3870 0.9077
vn -0.5944 -0.0000 0.8042
vn -0.4203 0.4203 0.8042
vn -0.4203 -0.4203 0.8042
vn -0.0028 -0.5960 0.8030
vn -0.0046 -1.0000 -0.0000
vn -0.3408 0.8122 0.4734
vn -0.1624 0.3870 0.9077
vn 0.2984 -0.7398 0.6030
vn -0.0023 1.0000 -0.0000
vn -0.3408 -0.8122 0.4734
vn 0.3741 -0.9274 -0.0000
vn -0.3869 0.9221 -0.0000
vn 0.3869 -0.9221 -0.0000
vn 0.0023 -1.0000 -0.0000
vn 0.0018 -0.8640 0.5035
vn 0.0015 -0.5807 0.8141
vn 0.0018 0.8640 0.5035
vn 0.0015 0.5807 0.8141
vn -0.2984 0.7398 0.6030
vn -0.3741 0.9274 -0.0000
vn 0.0046 1.0000 -0.0000
vn 0.0028 0.5960 0.8030
vn 0.1624 -0.3870 0.9077
vn 0.0028 -0.5960 0.8030
vn 0.0046 -1.0000 -0.0000
vn 0.1624 0.3870 0.9077
vn 0.3408 0.8122 0.4734
vn -0.2984 -0.7398 0.6030
vn 0.0023 1.0000 -0.0000
vn 0.3408 -0.8122 0.4734
vn -0.3741 -0.9274 -0.0000
vn 0.3869 0.9221 -0.0000
vt 0.023098 0.230743
vt 0.003906 0.230743
vt 0.003906 0.210082
vt 0.023098 0.210082
vt 0.003906 0.189609
vt 0.023098 0.189609
vt 0.963824 0.181748
vt 0.944632 0.181748
vt 0.944632 0.161086
vt 0.963824 0.161086
vt 0.944632 0.140613
vt 0.963824 0.140613
vt 0.023098 0.181748
vt 0.003906 0.181748
vt 0.003906 0.161086
vt 0.023098 0.161086
vt 0.003906 0.140613
vt 0.023098 0.140613
vt 0.963824 0.230743
vt 0.944632 0.230743
vt 0.944632 0.210082
vt 0.963824 0.210082
vt 0.944632 0.189609
vt 0.963824 0.189609
vt 0.301286 0.181748
vt 0.282094 0.181748
vt 0.282094 0.161086
vt 0.301286 0.161086
vt 0.282094 0.140613
vt 0.301286 0.140613
vt 0.320477 0.181748
vt 0.320477 0.161086
vt 0.320477 0.140613
vt 0.301285 0.230743
vt 0.282094 0.230743
vt 0.282094 0.210082
vt 0.301285 0.210082
vt 0.282094 0.189609
vt 0.301285 0.189609
vt 0.320477 0.230743
vt 0.320477 0.210082
vt 0.320477 0.189609
vt 0.016087 0.839990
vt 0.003906 0.827810
vt 0.016087 0.562402
vt 0.292054 0.003906
vt 0.316677 0.003906
vt 0.316677 0.014774
vt 0.292054 0.014774
vt 0.341301 0.003906
vt 0.341301 0.014774
vt 0.707946 0.132752
vt 0.683323 0.132752
vt 0.683323 0.121885
vt 0.707946 0.121885
vt 0.658699 0.132752
vt 0.658699 0.121885
vt 0.996094 0.132752
vt 0.971470 0.132752
vt 0.971470 0.121885
vt 0.996094 0.121885
vt 0.971470 0.003906
vt 0.996094 0.003906
vt 0.996094 0.014774
vt 0.971470 0.014774
vt 0.003906 0.003906
vt 0.028530 0.003906
vt 0.028530 0.014774
vt 0.003906 0.014774
vt 0.028530 0.132752
vt 0.003906 0.132752
vt 0.003906 0.121885
vt 0.028530 0.121885
vt 0.072693 0.282691
vt 0.072693 0.510454
vt 0.003906 0.266145
vt 0.338974 0.282691
vt 0.658403 0.238604
vt 0.658403 0.554541
vt 0.316677 0.064399
vt 0.341301 0.064399
vt 0.971470 0.064399
vt 0.292054 0.064399
vt 0.028530 0.064399
vt 0.971470 0.072260
vt 0.996094 0.072260
vt 0.707946 0.072260
vt 0.996094 0.064399
vt 0.003906 0.064399
vt 0.028530 0.072260
vt 0.658699 0.072260
vt 0.003906 0.072260
vt 0.683323 0.072260
vt 0.003906 0.847809
vt 0.270187 0.847809
vt 0.277744 0.856993
vt -0.001875 0.856993
vt 0.688119 0.238562
vt 0.967738 0.238562
vt 0.967738 0.466326
vt 0.688119 0.466326
vt 0.338974 0.510454
vt 0.031447 0.554541
vt 0.685943 0.527000
vt 0.677877 0.546474
vt 0.764232 0.847809
vt 0.991996 0.847809
vt 0.986215 0.856993
vt 0.758451 0.856993
vt 0.011973 0.546474
vt 0.003906 0.527000
vt 0.497951 0.847809
vt 0.505508 0.856993
vt 0.011973 0.246671
vt 0.031447 0.238604
vt 0.677877 0.246671
vt 0.685943 0.266145
vt 0.647595 0.574582
vt 0.647595 0.827810
vt 0.635414 0.839990
vt 0.644027 0.836423
vt 0.635414 0.562402
vt 0.007474 0.836423
vt 0.003906 0.574582
vt 0.007474 0.565970
vt 0.644027 0.565970
vt 0.065129 0.870954
vt 0.065129 0.877219
vt 0.010048 0.877219
vt 0.010048 0.870954
vt 0.008458 0.864812
vt 0.066719 0.864812
vt 0.003906 0.878810
vt 0.003906 0.869363
vt 0.066719 0.883361
vt 0.008458 0.883361
vt 0.071270 0.869363
vt 0.071270 0.878810
vt 0.160906 0.877219
vt 0.154764 0.878810
vt 0.154764 0.869363
vt 0.160906 0.870954
vt 0.159316 0.864812
vt 0.217577 0.864812
vt 0.215987 0.870954
vt 0.215987 0.877219
vt 0.217577 0.883361
vt 0.159316 0.883361
vt 0.222128 0.869363
vt 0.222128 0.878810
vt 0.140558 0.877219
vt 0.142148 0.883361
vt 0.083887 0.883361
vt 0.085477 0.877219
vt 0.085477 0.870954
vt 0.083887 0.864812
vt 0.142148 0.864812
vt 0.140558 0.870954
vt 0.079335 0.878810
vt 0.079335 0.869363
vt 0.146699 0.869363
vt 0.146699 0.878810
vt 0.366844 0.870954
vt 0.366844 0.877219
vt 0.311763 0.877219
vt 0.311763 0.870954
vt 0.310173 0.864812
vt 0.368434 0.864812
vt 0.305622 0.878810
vt 0.305622 0.869363
vt 0.368434 0.883361
vt 0.310173 0.883361
vt 0.372986 0.869363
vt 0.372986 0.878810
vt 0.894847 0.870954
vt 0.900988 0.869363
vt 0.900988 0.878810
vt 0.894847 0.877219
vt 0.896437 0.883361
vt 0.838176 0.883361
vt 0.839766 0.877219
vt 0.839766 0.870954
vt 0.838176 0.864812
vt 0.896437 0.864812
vt 0.833624 0.878810
vt 0.833624 0.869363
vt 0.668560 0.877219
vt 0.670150 0.883361
vt 0.611889 0.883361
vt 0.613479 0.877219
vt 0.613479 0.870954
vt 0.611889 0.864812
vt 0.670150 0.864812
vt 0.668560 0.870954
vt 0.607337 0.878810
vt 0.607337 0.869363
vt 0.674702 0.869363
vt 0.674702 0.878810
vt 0.442273 0.870954
vt 0.442273 0.877219
vt 0.387192 0.877219
vt 0.387192 0.870954
vt 0.385602 0.864812
vt 0.443863 0.864812
vt 0.381051 0.878810
vt 0.381051 0.869363
vt 0.443863 0.883361
vt 0.385602 0.883361
vt 0.448415 0.869363
vt 0.448415 0.878810
vt 0.819418 0.870954
vt 0.825559 0.869363
vt 0.825559 0.878810
vt 0.819418 0.877219
vt 0.821008 0.883361
vt 0.762747 0.883361
vt 0.764337 0.877219
vt 0.764337 0.870954
vt 0.762747 0.864812
vt 0.821008 0.864812
vt 0.758195 0.878810
vt 0.758195 0.869363
vt 0.593131 0.877219
vt 0.594721 0.883361
vt 0.536460 0.883361
vt 0.538050 0.877219
vt 0.538050 0.870954
vt 0.536460 0.864812
vt 0.594721 0.864812
vt 0.593131 0.870954
vt 0.531909 0.878810
vt 0.531909 0.869363
vt 0.599273 0.869363
vt 0.599273 0.878810
vt 0.291415 0.870954
vt 0.291415 0.877219
vt 0.236334 0.877219
vt 0.236334 0.870954
vt 0.234744 0.864812
vt 0.293006 0.864812
vt 0.230193 0.878810
vt 0.230193 0.869363
vt 0.293006 0.883361
vt 0.234744 0.883361
vt 0.297557 0.869363
vt 0.297557 0.878810
vt 0.688908 0.877219
vt 0.682766 0.878810
vt 0.682766 0.869363
vt 0.688908 0.870954
vt 0.687318 0.864812
vt 0.745579 0.864812
vt 0.743989 0.870954
vt 0.743989 0.877219
vt 0.745579 0.883361
vt 0.687318 0.883361
vt 0.750130 0.869363
vt 0.750130 0.878810
vt 0.517702 0.877219
vt 0.519292 0.883361
vt 0.461031 0.883361
vt 0.462621 0.877219
vt 0.462621 0.870954
vt 0.461031 0.864812
vt 0.519292 0.864812
vt 0.517702 0.870954
vt 0.456480 0.878810
vt 0.456480 0.869363
vt 0.523844 0.869363
vt 0.523844 0.878810
vt 0.809179 0.612121
vt 0.827860 0.655422
vt 0.820767 0.655679
vt 0.804323 0.617289
vt 0.810090 0.699742
vt 0.804946 0.694846
vt 0.765909 0.594682
vt 0.765915 0.601667
vt 0.765866 0.718366
vt 0.765875 0.711130
vt 0.825974 0.749423
vt 0.829827 0.749465
vt 0.838634 0.770853
vt 0.835804 0.773492
vt 0.881049 0.721822
vt 0.858941 0.714825
vt 0.859145 0.701637
vt 0.881049 0.710539
vt 0.881049 0.776744
vt 0.859466 0.784004
vt 0.860024 0.780110
vt 0.881049 0.773266
vt 0.815112 0.793794
vt 0.820226 0.788826
vt 0.859334 0.805591
vt 0.859219 0.812643
vt 0.797006 0.749508
vt 0.804138 0.749535
vt 0.859188 0.686307
vt 0.859289 0.693259
vt 0.819935 0.710080
vt 0.814879 0.705057
vt 0.786636 0.635539
vt 0.786782 0.676996
vt 0.765924 0.685639
vt 0.801188 0.620500
vt 0.765918 0.606165
vt 0.816274 0.655755
vt 0.801748 0.691679
vt 0.765881 0.706651
vt 0.765888 0.702600
vt 0.798898 0.688930
vt 0.812316 0.655864
vt 0.798445 0.623361
vt 0.765920 0.610047
vt 0.765901 0.689538
vt 0.789521 0.679633
vt 0.799142 0.656079
vt 0.789272 0.632807
vt 0.765926 0.623295
vt 0.795338 0.656176
vt 0.765924 0.626981
vt 0.881808 0.791982
vt 0.859030 0.801072
vt 0.859265 0.797015
vt 0.881049 0.788994
vt 0.882981 0.794503
vt 0.838364 0.728019
vt 0.826330 0.782865
vt 0.859308 0.718545
vt 0.881049 0.724913
vt 0.812663 0.749534
vt 0.826004 0.716058
vt 0.835602 0.725318
vt 0.808654 0.749511
vt 0.823436 0.785652
vt 0.823169 0.713238
vt 0.859011 0.697775
vt 0.887405 0.700102
vt 0.883419 0.704664
vt 0.882585 0.707911
vt 0.887462 0.798124
vt 0.722667 0.612132
vt 0.727529 0.617294
vt 0.711088 0.655653
vt 0.703995 0.655390
vt 0.726848 0.694776
vt 0.721693 0.699659
vt 0.857357 0.626473
vt 0.867219 0.602415
vt 0.870059 0.605049
vt 0.861202 0.626430
vt 0.912446 0.654108
vt 0.912446 0.666166
vt 0.890415 0.674344
vt 0.890387 0.661111
vt 0.912446 0.599207
vt 0.912446 0.602262
vt 0.891408 0.595754
vt 0.890843 0.591895
vt 0.846560 0.582094
vt 0.890669 0.563383
vt 0.890812 0.570441
vt 0.851666 0.587071
vt 0.828396 0.626368
vt 0.835528 0.626347
vt 0.890460 0.689729
vt 0.846231 0.670817
vt 0.851300 0.665803
vt 0.890533 0.682784
vt 0.745044 0.676934
vt 0.736516 0.656153
vt 0.745215 0.635544
vt 0.730665 0.620503
vt 0.715580 0.655733
vt 0.730053 0.691615
vt 0.732907 0.688869
vt 0.733410 0.623363
vt 0.719539 0.655844
vt 0.742309 0.679587
vt 0.732713 0.656071
vt 0.742588 0.632802
vt 0.914034 0.585207
vt 0.912446 0.587593
vt 0.890692 0.578993
vt 0.890521 0.574945
vt 0.914866 0.581961
vt 0.869788 0.647888
vt 0.857758 0.593037
vt 0.890753 0.657348
vt 0.912446 0.650609
vt 0.867018 0.650587
vt 0.857390 0.659832
vt 0.844052 0.626355
vt 0.840044 0.626375
vt 0.854870 0.590249
vt 0.854543 0.662650
vt 0.890240 0.678254
vt 0.914328 0.671787
vt 0.918820 0.675446
vt 0.913149 0.669269
vt 0.918838 0.577430
s 1
usemtl phone
f 17/1/1 19/2/2 20/3/3 18/4/4
f 18/4/4 20/3/3 5/5/5 4/6/6
f 19/7/2 15/8/7 16/9/8 20/10/3
f 20/10/3 16/9/8 3/11/9 5/12/5
f 24/13/10 27/14/11 29/15/12 26/16/13
f 26/16/13 29/15/12 28/17/14 25/18/15
f 27/19/11 21/20/16 23/21/17 29/22/12
f 29/22/12 23/21/17 22/23/18 28/24/14
f 13/25/19 8/26/20 9/27/21 14/28/22
f 14/28/22 9/27/21 1/29/23 2/30/24
f 10/31/25 13/25/19 14/28/22 12/32/26
f 12/32/26 14/28/22 2/30/24 11/33/27
f 34/34/28 30/35/29 31/36/30 36/37/31
f 36/37/31 31/36/30 7/38/32 35/39/33
f 32/40/34 34/34/28 36/37/31 33/41/35
f 33/41/35 36/37/31 35/39/33 6/42/36
f 25/18/15 1/29/23 9/27/21 26/16/13
f 26/16/13 9/27/21 8/26/20 24/13/10
f 11/33/27 3/11/9 16/9/8 12/32/26
f 12/32/26 16/9/8 15/8/7 10/31/25
f 4/6/6 7/38/32 31/36/30 18/4/4
f 18/4/4 31/36/30 30/35/29 17/1/1
f 6/42/36 22/23/18 23/21/17 33/41/35
f 33/41/35 23/21/17 21/20/16 32/40/34
f 15/43/7 17/44/1 32/45/34
f 39/46/37 41/47/38 42/48/39 40/49/40
f 41/47/38 37/50/41 38/51/42 42/48/39
f 56/52/43 58/53/44 59/54/45 57/55/46
f 58/53/44 54/56/47 55/57/48 59/54/45
f 47/58/49 43/59/50 44/60/51 48/61/52
f 45/62/53 47/63/49 48/64/52 46/65/54
f 52/66/55 49/67/56 50/68/57 53/69/58
f 60/70/59 52/71/55 53/72/58 51/73/60
f 65/74/61 66/75/61 43/76/50
f 40/49/40 50/68/57 49/67/56 39/46/37
f 64/77/61 37/78/41 60/79/59
f 57/55/46 44/60/51 43/59/50 56/52/43
f 2/80/24 42/48/39 38/51/42 11/81/27
f 38/51/42 46/65/54 3/82/9 11/81/27
f 1/83/23 25/84/15 50/68/57 40/49/40
f 1/83/23 40/49/40 42/48/39 2/80/24
f 44/60/51 4/85/6 5/86/5 48/61/52
f 7/87/32 4/85/6 44/60/51 57/55/46
f 48/64/52 5/88/5 3/82/9 46/65/54
f 50/68/57 25/84/15 28/89/14 53/69/58
f 22/90/18 6/91/36 55/57/48 51/73/60
f 53/72/58 28/92/14 22/90/18 51/73/60
f 35/93/33 59/54/45 55/57/48 6/91/36
f 7/87/32 57/55/46 59/54/45 35/93/33
s 0
f 63/94/62 66/95/62 67/96/62 61/97/62
f 61/98/61 67/99/61 68/100/61 62/101/61
s 1
f 45/62/53 46/65/54 38/51/42 37/50/41
f 63/102/61 54/103/47 66/75/61
f 49/104/56 52/105/55 60/79/59
s 0
f 64/106/63 63/107/63 61/108/63 62/109/63
s 1
f 54/103/47 58/110/44 56/111/43
s 0
f 66/95/64 65/112/64 68/113/64 67/96/64
s 1
f 56/111/43 43/76/50 66/75/61
f 66/75/61 54/103/47 56/111/43
s 0
f 65/112/65 64/106/65 62/109/65 68/113/65
s 1
f 55/57/48 54/56/47 60/70/59 51/73/60
f 43/76/50 47/114/49 45/115/53
f 37/78/41 41/116/38 39/117/37
f 45/115/53 65/74/61 43/76/50
f 45/115/53 37/78/41 64/77/61
f 60/79/59 37/78/41 49/104/56
f 39/117/37 49/104/56 37/78/41
f 60/79/59 63/102/61 64/77/61
f 63/102/61 60/79/59 54/103/47
f 24/118/10 8/119/20 10/120/25
f 8/119/20 13/121/19 10/120/25
f 10/120/25 15/43/7 21/122/16
f 24/118/10 10/120/25 21/122/16
f 15/43/7 19/123/2 17/44/1
f 17/44/1 30/124/29 32/45/34
f 30/124/29 34/125/28 32/45/34
f 32/45/34 21/122/16 15/43/7
f 21/122/16 27/126/11 24/118/10
f 45/115/53 64/77/61 65/74/61
s 0
f 70/127/61 69/128/61 71/129/61 72/130/61
f 72/130/66 75/131/66 73/132/66 70/127/66
f 71/129/67 76/133/67 75/134/67 72/130/67
f 69/128/68 74/135/68 76/136/68 71/129/68
f 70/127/69 73/137/69 74/138/69 69/128/69
f 79/139/67 84/140/67 83/141/67 80/142/67
f 80/142/66 83/143/66 81/144/66 78/145/66
f 77/146/68 82/147/68 84/148/68 79/139/68
f 78/145/61 77/146/61 79/139/61 80/142/61
f 78/145/69 81/149/69 82/150/69 77/146/69
f 92/151/68 87/152/68 85/153/68 90/154/68
f 89/155/66 86/156/66 88/157/66 91/158/66
f 91/158/61 92/151/61 90/154/61 89/155/61
f 90/154/67 85/159/67 86/160/67 89/155/67
f 91/158/69 88/161/69 87/162/69 92/151/69
f 94/163/61 93/164/61 95/165/61 96/166/61
f 96/166/66 99/167/66 97/168/66 94/163/66
f 95/165/67 100/169/67 99/170/67 96/166/67
f 93/164/68 98/171/68 100/172/68 95/165/68
f 94/163/69 97/173/69 98/174/69 93/164/69
f 103/175/67 108/176/67 107/177/67 104/178/67
f 104/178/66 107/179/66 105/180/66 102/181/66
f 101/182/68 106/183/68 108/184/68 103/175/68
f 102/181/61 101/182/61 103/175/61 104/178/61
f 102/181/69 105/185/69 106/186/69 101/182/69
f 116/187/68 111/188/68 109/189/68 114/190/68
f 113/191/66 110/192/66 112/193/66 115/194/66
f 115/194/61 116/187/61 114/190/61 113/191/61
f 114/190/67 109/195/67 110/196/67 113/191/67
f 115/194/69 112/197/69 111/198/69 116/187/69
f 118/199/61 117/200/61 119/201/61 120/202/61
f 120/202/66 123/203/66 121/204/66 118/199/66
f 119/201/67 124/205/67 123/206/67 120/202/67
f 117/200/68 122/207/68 124/208/68 119/201/68
f 118/199/69 121/209/69 122/210/69 117/200/69
f 127/211/67 132/212/67 131/213/67 128/214/67
f 128/214/66 131/215/66 129/216/66 126/217/66
f 125/218/68 130/219/68 132/220/68 127/211/68
f 126/217/61 125/218/61 127/211/61 128/214/61
f 126/217/69 129/221/69 130/222/69 125/218/69
f 140/223/68 135/224/68 133/225/68 138/226/68
f 137/227/66 134/228/66 136/229/66 139/230/66
f 139/230/61 140/223/61 138/226/61 137/227/61
f 138/226/67 133/231/67 134/232/67 137/227/67
f 139/230/69 136/233/69 135/234/69 140/223/69
f 142/235/61 141/236/61 143/237/61 144/238/61
f 144/238/66 147/239/66 145/240/66 142/235/66
f 143/237/67 148/241/67 147/242/67 144/238/67
f 141/236/68 146/243/68 148/244/68 143/237/68
f 142/235/69 145/245/69 146/246/69 141/236/69
f 151/247/67 156/248/67 155/249/67 152/250/67
f 152/250/66 155/251/66 153/252/66 150/253/66
f 149/254/68 154/255/68 156/256/68 151/247/68
f 150/253/61 149/254/61 151/247/61 152/250/61
f 150/253/69 153/257/69 154/258/69 149/254/69
f 164/259/68 159/260/68 157/261/68 162/262/68
f 161/263/66 158/264/66 160/265/66 163/266/66
f 163/266/61 164/259/61 162/262/61 161/263/61
f 162/262/67 157/267/67 158/268/67 161/263/67
f 163/266/69 160/269/69 159/270/69 164/259/69
s 1
f 166/271/70 167/272/71 191/273/72 189/274/73
f 167/272/71 168/275/74 192/276/75 191/273/72
f 165/277/76 166/271/70 189/274/73 190/278/77
f 168/275/74 169/279/78 193/280/79 192/276/75
f 182/281/65 211/282/65 212/283/80 181/284/80
f 234/285/61 219/286/61 216/287/61 233/288/61
f 236/289/81 218/290/82 227/291/82 226/292/81
f 213/293/83 187/294/84 222/295/85 228/296/86
f 214/297/87 188/298/88 187/294/84 213/293/83
f 229/299/89 223/300/90 209/301/91 215/302/92
f 180/303/61 171/304/61 170/305/61
f 194/306/93 195/307/94 190/278/77 189/274/73
f 196/308/95 194/306/93 189/274/73 191/273/72
f 197/309/96 196/308/95 191/273/72 192/276/75
f 198/310/97 197/309/96 192/276/75 193/280/79
f 197/309/96 198/310/97 207/311/63 206/312/98
f 194/306/93 196/308/95 205/313/65 204/314/80
f 196/308/95 197/309/96 206/312/98 205/313/65
f 195/307/94 194/306/93 204/314/80 208/315/64
f 203/316/61 202/317/61 206/312/61 207/311/61
f 202/317/61 201/318/61 205/313/61 206/312/61
f 201/318/61 199/319/61 204/314/61 205/313/61
f 199/319/61 200/320/61 208/315/61 204/314/61
f 202/317/99 203/316/64 170/305/64 171/304/99
f 199/319/100 201/318/62 178/321/62 180/303/100
f 201/318/62 202/317/99 171/304/99 178/321/62
f 200/320/63 199/319/100 180/303/100 179/322/63
f 215/302/92 209/301/91 188/298/88 214/297/87
f 231/323/101 220/324/102 217/325/103 235/326/104
f 220/324/102 231/323/101 230/327/105 222/295/85
f 212/283/61 211/282/61 210/328/61
f 218/290/61 217/325/61 175/329/61 181/284/61
f 225/330/61 224/331/61 226/292/61 227/291/61
f 181/284/80 212/283/80 227/291/82 218/290/82
f 182/281/61 176/332/61 177/333/61 183/334/61
f 181/284/61 175/329/61 176/332/61 182/281/61
f 185/335/106 176/332/62 175/329/100 184/336/107
f 184/336/107 175/329/100 217/325/103 220/324/102
f 186/337/108 177/333/99 176/332/62 185/335/106
f 185/335/106 188/298/88 209/301/91 186/337/108
f 183/334/61 177/333/61 216/287/61 219/286/61
f 221/338/109 216/287/110 177/333/99 186/337/108
f 184/336/107 187/294/84 188/298/88 185/335/106
f 186/337/108 209/301/91 223/300/90 221/338/109
f 183/334/98 210/328/98 211/282/65 182/281/65
f 220/324/102 222/295/85 187/294/84 184/336/107
f 229/299/89 174/339/111 172/340/112 223/300/90
f 172/340/112 232/341/113 221/338/109 223/300/90
f 219/286/114 225/330/114 210/328/98 183/334/98
f 230/327/105 173/342/115 228/296/86 222/295/85
f 221/338/109 232/341/113 233/288/116 216/287/110
f 219/286/114 234/285/117 224/331/117 225/330/114
f 218/290/61 236/289/61 235/326/61 217/325/61
s 0
f 174/339/62 236/289/62 234/285/62
s 1
f 237/343/92 257/344/91 258/345/88 238/346/87
f 238/346/87 258/345/88 259/347/84 239/348/83
f 165/277/76 190/278/77 257/344/91 237/343/92
f 239/348/83 259/347/84 193/280/79 169/279/78
f 250/349/62 249/350/99 272/351/99 271/352/62
f 294/353/61 293/354/61 276/355/61 279/356/61
f 296/357/118 286/358/118 287/359/119 278/360/119
f 273/361/74 288/362/120 282/363/121 255/364/75
f 274/365/71 273/361/74 255/364/75 256/366/72
f 289/367/122 275/368/70 269/369/73 283/370/123
f 240/371/61 247/372/61 248/373/61
f 260/374/108 257/344/91 190/278/77 195/307/94
f 261/375/106 258/345/88 257/344/91 260/374/108
f 262/376/107 259/347/84 258/345/88 261/375/106
f 198/310/97 193/280/79 259/347/84 262/376/107
f 262/376/107 268/377/100 207/311/63 198/310/97
f 260/374/108 266/378/99 267/379/62 261/375/106
f 261/375/106 267/379/62 268/377/100 262/376/107
f 195/307/94 208/315/64 266/378/99 260/374/108
f 203/316/61 207/311/61 268/377/61 265/380/61
f 265/380/61 268/377/61 267/379/61 264/381/61
f 264/381/61 267/379/61 266/378/61 263/382/61
f 263/382/61 266/378/61 208/315/61 200/320/61
f 265/380/80 240/371/80 170/305/64 203/316/64
f 263/382/98 248/373/98 247/372/65 264/381/65
f 264/381/65 247/372/65 240/371/80 265/380/80
f 200/320/63 179/322/63 248/373/98 263/382/98
f 275/368/70 274/365/71 256/366/72 269/369/73
f 291/383/124 295/384/125 277/385/126 280/386/127
f 280/386/127 282/363/121 290/387/128 291/383/124
f 270/388/61 272/351/61 287/359/61
f 278/360/61 249/350/61 244/389/61 277/385/61
f 285/390/61 287/359/61 286/358/61 284/391/61
f 249/350/99 278/360/119 287/359/119 272/351/99
f 250/349/61 251/392/61 246/393/61 245/394/61
f 249/350/61 250/349/61 245/394/61 244/389/61
f 253/395/95 252/396/96 244/389/98 245/394/65
f 252/396/96 280/386/127 277/385/126 244/389/98
f 254/397/93 253/395/95 245/394/65 246/393/80
f 253/395/95 254/397/93 269/369/73 256/366/72
f 251/392/61 279/356/61 276/355/61 246/393/61
f 281/398/129 254/397/93 246/393/80 276/355/130
f 252/396/96 253/395/95 256/366/72 255/364/75
f 254/397/93 281/398/129 283/370/123 269/369/73
f 251/392/100 250/349/62 271/352/62 270/388/100
f 280/386/127 252/396/96 255/364/75 282/363/121
f 289/367/122 283/370/123 241/399/131 243/400/132
f 241/399/131 283/370/123 281/398/129 292/401/133
f 279/356/134 251/392/100 270/388/100 285/390/134
f 290/387/128 282/363/121 288/362/120 242/402/135
f 281/398/129 276/355/130 293/354/136 292/401/133
f 279/356/134 285/390/134 284/391/137 294/353/137
f 278/360/61 277/385/61 295/384/61 296/357/61
s 0
f 294/353/65 296/357/65 242/402/65
s 1
f 170/305/61 179/322/61 180/303/61
f 180/303/61 178/321/61 171/304/61
f 210/328/61 225/330/61 227/291/61
f 227/291/61 212/283/61 210/328/61
s 0
f 232/341/62 172/340/62 233/288/62
f 172/340/62 174/339/62 233/288/62
f 173/342/62 230/327/62 235/326/62
f 230/327/62 231/323/62 235/326/62
f 226/292/62 224/331/62 234/285/62
f 234/285/62 233/288/62 174/339/62
f 174/339/62 173/342/62 236/289/62
f 173/342/62 235/326/62 236/289/62
f 236/289/62 226/292/62 234/285/62
s 1
f 248/373/61 179/322/61 170/305/61
f 170/305/61 240/371/61 248/373/61
f 287/359/61 285/390/61 270/388/61
f 270/388/61 271/352/61 272/351/61
s 0
f 243/400/65 241/399/65 293/354/65
f 241/399/65 292/401/65 293/354/65
f 291/383/65 290/387/65 295/384/65
f 290/387/65 242/402/65 295/384/65
f 242/402/65 243/400/65 294/353/65
f 243/400/65 293/354/65 294/353/65
f 294/353/65 284/391/65 286/358/65
f 296/357/65 295/384/65 242/402/65
f 294/353/65 286/358/65 296/357/65
