# Blender 4.5.14 LTS
# www.blender.org
mtllib fusebox_2.mtl
o fusebox
v 0.251750 0.286922 -0.080643
v 0.251750 0.286922 -0.080643
v 0.251750 -0.338078 -0.080643
v 0.251750 -0.338078 -0.080643
v -0.217000 0.286922 -0.080643
v -0.217000 0.286922 -0.080643
v -0.217000 -0.338078 -0.080643
v -0.217000 -0.338078 -0.080643
v -0.263875 0.427547 0.147482
v -0.263875 0.427547 -0.102518
v -0.263875 -0.509953 0.147482
v -0.263875 -0.509953 -0.102518
v -0.326375 0.427547 -0.102518
v -0.326375 0.427547 0.147482
v -0.326375 -0.509953 -0.102518
v -0.326375 -0.509953 0.147482
v 0.298625 0.427547 0.147482
v 0.298625 0.427547 0.084982
v 0.298625 -0.509953 0.147482
v 0.298625 -0.509953 0.084982
v -0.263875 0.427547 0.084982
v -0.263875 0.427547 0.147482
v -0.263875 -0.509953 0.084982
v -0.263875 -0.509953 0.147482
v 0.298625 0.427547 0.084982
v 0.298625 0.427547 -0.102518
v 0.298625 0.365047 0.084982
v 0.298625 0.365047 -0.102518
v -0.263875 0.427547 -0.102518
v -0.263875 0.427547 0.084982
v -0.263875 0.365047 -0.102518
v -0.263875 0.365047 0.084982
v 0.298625 -0.447453 0.084982
v 0.298625 -0.447453 -0.102518
v 0.298625 -0.509953 0.084982
v 0.298625 -0.509953 -0.102518
v -0.263875 -0.447453 -0.102518
v -0.263875 -0.447453 0.084982
v -0.263875 -0.509953 -0.102518
v -0.263875 -0.509953 0.084982
v 0.361125 0.427547 0.147482
v 0.361125 0.427547 -0.102518
v 0.361125 -0.509953 0.147482
v 0.361125 -0.509953 -0.102518
v 0.298625 0.427547 -0.102518
v 0.298625 0.427547 0.147482
v 0.298625 -0.509953 -0.102518
v 0.298625 -0.509953 0.147482
v -0.060688 0.349422 0.084982
v -0.060688 0.349422 0.004176
v -0.060688 0.055228 0.084982
v -0.060688 0.055228 0.004176
v -0.248188 0.349422 0.004176
v -0.248188 0.349422 0.084982
v -0.248188 0.055228 0.004176
v -0.248188 0.055228 0.084982
v -0.060750 0.143616 0.004176
v -0.060750 0.099422 -0.040018
v -0.060750 0.099422 0.048370
v -0.060750 0.055228 0.004176
v -0.248250 0.099422 -0.040018
v -0.248250 0.143616 0.004176
v -0.248250 0.055228 0.004176
v -0.248250 0.099422 0.048370
v 0.298625 0.224422 0.084982
v 0.298625 0.224422 0.022482
v 0.298625 -0.025578 0.084982
v 0.298625 -0.025578 0.022482
v 0.048625 0.224422 0.022482
v 0.048625 0.224422 0.084982
v 0.048625 -0.025578 0.022482
v 0.048625 -0.025578 0.084982
v 0.001750 0.005672 0.038107
v 0.001750 0.005672 -0.024393
v 0.001750 -0.369328 0.038107
v 0.001750 -0.369328 -0.024393
v -0.248250 0.005672 -0.024393
v -0.248250 0.005672 0.038107
v -0.248250 -0.369328 -0.024393
v -0.248250 -0.369328 0.038107
v 0.001750 -0.090981 0.028954
v 0.001750 -0.135175 -0.015240
v -0.248250 -0.135175 -0.015240
v -0.248250 -0.090981 0.028954
v 0.001750 -0.215981 0.028954
v 0.001750 -0.260175 -0.015240
v -0.248250 -0.260175 -0.015240
v -0.248250 -0.215981 0.028954
v 0.001750 0.005672 0.100607
v 0.001750 0.005672 0.038107
v 0.001750 -0.369328 0.100607
v 0.001750 -0.369328 0.038107
v -0.248250 0.005672 0.038107
v -0.248250 0.005672 0.100607
v -0.248250 -0.369328 0.038107
v -0.248250 -0.369328 0.100607
v -0.151375 -0.056287 0.060728
v -0.151375 -0.032369 0.002985
v -0.151375 -0.056287 0.060728
v -0.151375 -0.032369 0.002985
v -0.088875 -0.032369 0.002985
v -0.088875 -0.056287 0.060728
v -0.088875 -0.032369 0.002985
v -0.088875 -0.056287 0.060728
v -0.010750 -0.022231 0.053954
v -0.010750 -0.066425 0.009760
v -0.010750 -0.022231 0.053954
v -0.010750 -0.066425 0.009760
v -0.073250 -0.066425 0.009760
v -0.073250 -0.022231 0.053954
v -0.073250 -0.066425 0.009760
v -0.073250 -0.022231 0.053954
v -0.167000 -0.022231 0.053954
v -0.167000 -0.066425 0.009760
v -0.167000 -0.022231 0.053954
v -0.167000 -0.066425 0.009760
v -0.229500 -0.066425 0.009760
v -0.229500 -0.022231 0.053954
v -0.229500 -0.066425 0.009760
v -0.229500 -0.022231 0.053954
v -0.073250 -0.181287 0.060728
v -0.073250 -0.157369 0.002985
v -0.073250 -0.181287 0.060728
v -0.073250 -0.157369 0.002985
v -0.010750 -0.157369 0.002985
v -0.010750 -0.181287 0.060728
v -0.010750 -0.157369 0.002985
v -0.010750 -0.181287 0.060728
v -0.088875 -0.147231 0.053954
v -0.088875 -0.191425 0.009760
v -0.088875 -0.147231 0.053954
v -0.088875 -0.191425 0.009760
v -0.151375 -0.191425 0.009760
v -0.151375 -0.147231 0.053954
v -0.151375 -0.191425 0.009760
v -0.151375 -0.147231 0.053954
v -0.167000 -0.147231 0.053954
v -0.167000 -0.191425 0.009760
v -0.167000 -0.147231 0.053954
v -0.167000 -0.191425 0.009760
v -0.229500 -0.191425 0.009760
v -0.229500 -0.147231 0.053954
v -0.229500 -0.191425 0.009760
v -0.229500 -0.147231 0.053954
v -0.088875 -0.272231 0.053954
v -0.088875 -0.316425 0.009760
v -0.088875 -0.272231 0.053954
v -0.088875 -0.316425 0.009760
v -0.151375 -0.316425 0.009760
v -0.151375 -0.272231 0.053954
v -0.151375 -0.316425 0.009760
v -0.151375 -0.272231 0.053954
v -0.010750 -0.272231 0.053954
v -0.010750 -0.316425 0.009760
v -0.010750 -0.272231 0.053954
v -0.010750 -0.316425 0.009760
v -0.073250 -0.316425 0.009760
v -0.073250 -0.272231 0.053954
v -0.073250 -0.316425 0.009760
v -0.073250 -0.272231 0.053954
v -0.167000 -0.272231 0.053954
v -0.167000 -0.316425 0.009760
v -0.167000 -0.272231 0.053954
v -0.167000 -0.316425 0.009760
v -0.229500 -0.316425 0.009760
v -0.229500 -0.272231 0.053954
v -0.229500 -0.316425 0.009760
v -0.229500 -0.272231 0.053954
v 0.267375 -0.056828 0.069357
v 0.267375 -0.056828 0.069357
v 0.267375 -0.244328 0.069357
v 0.267375 -0.244328 0.069357
v -0.013875 -0.056828 0.069357
v -0.013875 -0.056828 0.069357
v -0.013875 -0.244328 0.069357
v -0.013875 -0.244328 0.069357
v 0.267375 0.130672 0.069357
v 0.267375 0.130672 0.069357
v 0.267375 -0.056828 0.069357
v 0.267375 -0.056828 0.069357
v 0.079875 0.130672 0.069357
v 0.079875 0.130672 0.069357
v 0.079875 -0.056828 0.069357
v 0.079875 -0.056828 0.069357
v -0.092000 0.130672 0.053732
v -0.092000 0.130672 0.053732
v -0.092000 -0.056828 0.053732
v -0.092000 -0.056828 0.053732
v -0.154500 0.130672 0.053732
v -0.154500 0.130672 0.053732
v -0.154500 -0.056828 0.053732
v -0.154500 -0.056828 0.053732
v -0.170125 0.130672 0.053732
v -0.170125 0.130672 0.053732
v -0.170125 -0.056828 0.053732
v -0.170125 -0.056828 0.053732
v -0.232625 0.130672 0.053732
v -0.232625 0.130672 0.053732
v -0.232625 -0.056828 0.053732
v -0.232625 -0.056828 0.053732
v -0.170125 0.277769 -0.024171
v -0.170125 0.233575 -0.068365
v -0.170125 0.277769 -0.024171
v -0.170125 0.233575 -0.068365
v -0.232625 0.233575 -0.068365
v -0.232625 0.277769 -0.024171
v -0.232625 0.233575 -0.068365
v -0.232625 0.277769 -0.024171
v 0.370500 0.436922 0.156857
v 0.370500 0.436922 -0.111893
v 0.370500 -0.519328 0.156857
v 0.370500 -0.519328 -0.111893
v -0.335750 0.436922 -0.111893
v -0.335750 0.436922 0.156857
v -0.335750 -0.519328 -0.111893
v -0.335750 -0.519328 0.156857
v -0.076375 0.259019 -0.024171
v -0.076375 0.214825 -0.068365
v -0.076375 0.259019 -0.024171
v -0.076375 0.214825 -0.068365
v -0.138875 0.214825 -0.068365
v -0.138875 0.259019 -0.024171
v -0.138875 0.214825 -0.068365
v -0.138875 0.259019 -0.024171
v 0.267375 -0.197453 0.066232
v 0.267375 -0.197453 0.003732
v 0.267375 -0.384953 0.066232
v 0.267375 -0.384953 0.003732
v 0.079875 -0.197453 0.003732
v 0.079875 -0.197453 0.066232
v 0.079875 -0.384953 0.003732
v 0.079875 -0.384953 0.066232
v 0.251750 -0.150578 0.050607
v 0.251750 -0.150578 0.050607
v 0.251750 -0.197453 0.050607
v 0.251750 -0.197453 0.050607
v 0.189250 -0.150578 0.050607
v 0.189250 -0.150578 0.050607
v 0.189250 -0.197453 0.050607
v 0.189250 -0.197453 0.050607
v 0.158000 -0.041203 0.028732
v 0.158000 -0.041203 0.028732
v 0.158000 -0.197453 0.028732
v 0.158000 -0.197453 0.028732
v 0.095500 -0.041203 0.028732
v 0.095500 -0.041203 0.028732
v 0.095500 -0.197453 0.028732
v 0.095500 -0.197453 0.028732
v 0.204875 -0.088078 0.034982
v 0.204875 -0.088078 0.034982
v 0.204875 -0.197453 0.034982
v 0.204875 -0.197453 0.034982
v 0.142375 -0.088078 0.034982
v 0.142375 -0.088078 0.034982
v 0.142375 -0.197453 0.034982
v 0.142375 -0.197453 0.034982
v 0.314250 0.346519 0.028954
v 0.314250 0.302325 -0.015240
v -0.060750 0.302325 -0.015240
v -0.060750 0.346519 0.028954
v 0.142375 0.321297 0.050607
v 0.142375 0.321297 0.050607
v 0.142375 0.211922 0.050607
v 0.142375 0.211922 0.050607
v 0.079875 0.321297 0.050607
v 0.079875 0.321297 0.050607
v 0.079875 0.211922 0.050607
v 0.079875 0.211922 0.050607
v 0.214250 0.321297 0.056857
v 0.214250 0.321297 0.056857
v 0.214250 0.211922 0.056857
v 0.214250 0.211922 0.056857
v 0.151750 0.321297 0.056857
v 0.151750 0.321297 0.056857
v 0.151750 0.211922 0.056857
v 0.151750 0.211922 0.056857
v 0.286125 0.321297 0.072482
v 0.286125 0.321297 0.072482
v 0.286125 0.211922 0.072482
v 0.286125 0.211922 0.072482
v 0.223625 0.321297 0.072482
v 0.223625 0.321297 0.072482
v 0.223625 0.211922 0.072482
v 0.223625 0.211922 0.072482
v 0.314250 0.112144 0.028954
v 0.314250 0.067950 -0.015240
v -0.060750 0.067950 -0.015240
v -0.060750 0.112144 0.028954
v 0.314250 -0.356606 0.028954
v 0.314250 -0.400800 -0.015240
v -0.310750 -0.400800 -0.015240
v -0.310750 -0.356606 0.028954
v 0.298625 0.193172 0.022482
v 0.298625 0.193172 -0.040018
v 0.298625 0.005672 0.022482
v 0.298625 0.005672 -0.040018
v 0.048625 0.193172 -0.040018
v 0.048625 0.193172 0.022482
v 0.048625 0.005672 -0.040018
v 0.048625 0.005672 0.022482
v 0.298625 0.134019 -0.024171
v 0.298625 0.089825 -0.068365
v 0.298625 0.134019 -0.024171
v 0.298625 0.089825 -0.068365
v 0.236125 0.089825 -0.068365
v 0.236125 0.134019 -0.024171
v 0.236125 0.089825 -0.068365
v 0.236125 0.134019 -0.024171
v 0.173625 0.106213 -0.014272
v 0.173625 0.130131 -0.072015
v 0.173625 0.106213 -0.014272
v 0.173625 0.130131 -0.072015
v 0.236125 0.130131 -0.072015
v 0.236125 0.106213 -0.014272
v 0.236125 0.130131 -0.072015
v 0.236125 0.106213 -0.014272
v 0.173625 0.134019 -0.024171
v 0.173625 0.089825 -0.068365
v 0.173625 0.134019 -0.024171
v 0.173625 0.089825 -0.068365
v 0.111125 0.089825 -0.068365
v 0.111125 0.134019 -0.024171
v 0.111125 0.089825 -0.068365
v 0.111125 0.134019 -0.024171
v 0.111125 0.134019 -0.024171
v 0.111125 0.089825 -0.068365
v 0.111125 0.134019 -0.024171
v 0.111125 0.089825 -0.068365
v 0.048625 0.089825 -0.068365
v 0.048625 0.134019 -0.024171
v 0.048625 0.089825 -0.068365
v 0.048625 0.134019 -0.024171
v 0.142375 0.321297 0.044357
v 0.142375 0.321297 0.044357
v 0.142375 0.274422 0.044357
v 0.142375 0.274422 0.044357
v -0.107625 0.321297 0.044357
v -0.107625 0.321297 0.044357
v -0.107625 0.274422 0.044357
v -0.107625 0.274422 0.044357
v -0.326375 0.240047 0.122482
v -0.326375 0.240047 -0.077518
v -0.326375 -0.197453 0.122482
v -0.326375 -0.197453 -0.077518
v -0.392000 0.240047 -0.077518
v -0.392000 0.240047 0.122482
v -0.392000 -0.197453 -0.077518
v -0.392000 -0.197453 0.122482
v -0.060125 0.349422 0.022482
v -0.060125 0.349422 -0.040018
v -0.060125 0.099422 0.022482
v -0.060125 0.099422 -0.040018
v -0.247625 0.349422 -0.040018
v -0.247625 0.349422 0.022482
v -0.247625 0.099422 -0.040018
v -0.247625 0.099422 0.022482
v -0.326375 0.068264 -0.009601
v -0.326375 0.321610 -0.286080
v -0.326375 0.022184 -0.051826
v -0.326375 0.275531 -0.328305
v -0.388875 0.321610 -0.286080
v -0.388875 0.068264 -0.009601
v -0.388875 0.275531 -0.328305
v -0.388875 0.022184 -0.051826
v -0.317000 0.195516 -0.134595
v -0.317000 0.377081 -0.332738
v -0.317000 0.135612 -0.189487
v -0.317000 0.317177 -0.387630
v -0.398250 0.377081 -0.332738
v -0.398250 0.195516 -0.134595
v -0.398250 0.317177 -0.387630
v -0.398250 0.135612 -0.189487
v 0.361125 0.427547 -0.102518
v 0.361125 0.427547 -0.165018
v 0.361125 -0.509953 -0.102518
v 0.361125 -0.509953 -0.165018
v -0.326375 0.427547 -0.165018
v -0.326375 0.427547 -0.102518
v -0.326375 -0.509953 -0.165018
v -0.326375 -0.509953 -0.102518
v 0.367375 0.365047 -0.102518
v 0.367375 0.365047 -0.165018
v 0.367375 0.240047 -0.102518
v 0.367375 0.240047 -0.165018
v 0.367375 0.365047 -0.165018
v 0.367375 0.365047 -0.102518
v 0.367375 0.240047 -0.165018
v 0.367375 0.240047 -0.102518
v 0.367375 -0.322453 -0.102518
v 0.367375 -0.322453 -0.165018
v 0.367375 -0.447453 -0.102518
v 0.367375 -0.447453 -0.165018
v 0.367375 -0.322453 -0.165018
v 0.367375 -0.322453 -0.102518
v 0.367375 -0.447453 -0.165018
v 0.367375 -0.447453 -0.102518
v 0.236125 0.302547 -0.086893
v 0.236125 0.302547 -0.086893
v 0.236125 -0.322453 -0.086893
v 0.236125 -0.322453 -0.086893
v -0.201375 0.302547 -0.086893
v -0.201375 0.302547 -0.086893
v -0.201375 -0.322453 -0.086893
v -0.201375 -0.322453 -0.086893
vn -0.0000 -0.0000 -1.0000
vn 1.0000 -0.0000 -0.0000
vn -0.0000 -0.0000 1.0000
vn -1.0000 -0.0000 -0.0000
vn -0.0000 1.0000 -0.0000
vn -0.0000 -1.0000 -0.0000
vn -0.0000 -0.7071 -0.7071
vn -0.0000 0.7071 -0.7071
vn -0.0000 0.3827 -0.9239
vn -0.0000 -0.3827 0.9239
vn -0.0000 -0.9239 -0.3827
vn 1.0000 -0.0000 0.0001
vn -0.0000 0.7071 0.7071
vn -1.0000 -0.0000 0.0001
vn -0.0000 0.6756 -0.7373
vn -0.0000 -0.6756 0.7373
vn -0.0000 0.7373 0.6756
vn -0.0000 -0.7373 -0.6756
vn -0.0000 -0.0000 -0.0000
vt 0.000000 0.843750
vt 0.000000 1.000000
vt 0.265625 0.609375
vt 0.382812 0.609375
vt 0.382812 0.765625
vt 0.265625 0.765625
vt 0.117188 1.000000
vt 0.250000 0.171875
vt 0.265625 0.171875
vt 0.265625 0.406250
vt 0.250000 0.406250
vt 0.390625 0.453125
vt 0.453125 0.453125
vt 0.453125 0.687500
vt 0.390625 0.687500
vt 0.281250 0.171875
vt 0.281250 0.406250
vt 0.515625 0.453125
vt 0.515625 0.687500
vt 0.515625 0.312500
vt 0.531250 0.312500
vt 0.531250 0.375000
vt 0.515625 0.375000
vt 0.546875 0.312500
vt 0.546875 0.375000
vt 0.703125 0.531250
vt 0.843750 0.531250
vt 0.843750 0.765625
vt 0.703125 0.765625
vt 0.296875 0.171875
vt 0.296875 0.406250
vt 0.000000 0.531250
vt 0.140625 0.531250
vt 0.140625 0.765625
vt 0.000000 0.765625
vt 0.312500 0.171875
vt 0.312500 0.406250
vt 0.609375 0.812500
vt 0.750000 0.812500
vt 0.750000 0.828125
vt 0.609375 0.828125
vt 0.609375 0.796875
vt 0.750000 0.796875
vt 0.609375 0.781250
vt 0.750000 0.781250
vt 0.390625 0.406250
vt 0.250000 0.453125
vt 0.562500 0.953125
vt 0.703125 0.953125
vt 0.703125 1.000000
vt 0.562500 1.000000
vt 0.609375 0.765625
vt 0.750000 0.765625
vt 0.562500 0.906250
vt 0.703125 0.906250
vt 0.562500 0.859375
vt 0.703125 0.859375
vt 0.328125 0.171875
vt 0.328125 0.406250
vt 0.000000 0.296875
vt 0.062500 0.296875
vt 0.062500 0.531250
vt 0.343750 0.171875
vt 0.343750 0.406250
vt 0.125000 0.296875
vt 0.125000 0.531250
vt 0.562500 0.312500
vt 0.562500 0.375000
vt 0.578125 0.312500
vt 0.578125 0.375000
vt 0.343750 0.335938
vt 0.367188 0.335938
vt 0.367188 0.406250
vt 0.609375 0.695312
vt 0.632812 0.695312
vt 0.632812 0.765625
vt 0.453125 0.882812
vt 0.500000 0.882812
vt 0.500000 0.906250
vt 0.453125 0.906250
vt 0.453125 0.851562
vt 0.500000 0.851562
vt 0.500000 0.875000
vt 0.453125 0.875000
vt 0.343750 0.765625
vt 0.390625 0.765625
vt 0.390625 0.781250
vt 0.343750 0.781250
vt 0.671875 0.578125
vt 0.687500 0.578125
vt 0.687500 0.593750
vt 0.671875 0.593750
vt 0.421875 0.312500
vt 0.437500 0.312500
vt 0.437500 0.328125
vt 0.421875 0.328125
vt 0.453125 0.390625
vt 0.515625 0.390625
vt 0.593750 0.312500
vt 0.593750 0.375000
vt 0.609375 0.312500
vt 0.609375 0.375000
vt 0.609375 0.359375
vt 0.671875 0.359375
vt 0.671875 0.375000
vt 0.640625 0.750000
vt 0.703125 0.750000
vt 0.640625 0.765625
vt 0.453125 0.296875
vt 0.468750 0.296875
vt 0.468750 0.390625
vt 0.484375 0.296875
vt 0.484375 0.390625
vt 0.640625 0.734375
vt 0.703125 0.734375
vt 0.640625 0.718750
vt 0.703125 0.718750
vt 0.640625 0.703125
vt 0.703125 0.703125
vt 0.640625 0.687500
vt 0.703125 0.687500
vt 0.390625 0.359375
vt 0.453125 0.359375
vt 0.500000 0.296875
vt 0.500000 0.390625
vt 0.515625 0.296875
vt 0.390625 0.343750
vt 0.453125 0.343750
vt 0.640625 0.562500
vt 0.703125 0.562500
vt 0.703125 0.578125
vt 0.640625 0.578125
vt 0.015625 1.000000
vt 0.687500 0.359375
vt 0.687500 0.375000
vt 0.671875 0.343750
vt 0.687500 0.343750
vt 0.671875 0.328125
vt 0.687500 0.328125
vt 0.671875 0.312500
vt 0.687500 0.312500
vt 0.375000 0.296875
vt 0.390625 0.296875
vt 0.390625 0.312500
vt 0.375000 0.312500
vt 0.703125 0.593750
vt 0.703125 0.609375
vt 0.687500 0.609375
vt 0.406250 0.296875
vt 0.421875 0.296875
vt 0.406250 0.312500
vt 0.437500 0.296875
vt 0.578125 0.578125
vt 0.648438 0.578125
vt 0.648438 0.625000
vt 0.578125 0.625000
vt 0.000000 0.953125
vt 0.070312 1.000000
vt 0.453125 0.953125
vt 0.500000 0.953125
vt 0.500000 1.000000
vt 0.453125 1.000000
vt 0.046875 1.000000
vt 0.359375 0.453125
vt 0.375000 0.453125
vt 0.375000 0.500000
vt 0.359375 0.500000
vt 0.390625 0.500000
vt 0.687500 0.515625
vt 0.703125 0.515625
vt 0.687500 0.531250
vt 0.500000 0.765625
vt 0.562500 0.765625
vt 0.515625 0.531250
vt 0.578125 0.531250
vt 0.578125 0.765625
vt 0.515625 0.765625
vt 0.515625 0.468750
vt 0.687500 0.468750
vt 0.515625 0.406250
vt 0.687500 0.406250
vt 0.687500 0.500000
vt 0.703125 0.500000
vt 0.187500 0.296875
vt 0.203125 0.296875
vt 0.203125 0.343750
vt 0.187500 0.343750
vt 0.218750 0.296875
vt 0.218750 0.343750
vt 0.640625 0.375000
vt 0.687500 0.390625
vt 0.640625 0.390625
vt 0.656250 0.609375
vt 0.703125 0.625000
vt 0.656250 0.625000
vt 0.687500 0.484375
vt 0.703125 0.484375
vt 0.000000 0.984375
vt 0.437500 0.304688
vt 0.453125 0.304688
vt 0.437500 0.343750
vt 0.000000 0.960938
vt 0.656250 0.312500
vt 0.656250 0.343750
vt 0.000000 0.968750
vt 0.609375 0.640625
vt 0.703125 0.640625
vt 0.703125 0.656250
vt 0.609375 0.656250
vt 0.343750 0.296875
vt 0.359375 0.296875
vt 0.359375 0.328125
vt 0.343750 0.328125
vt 0.375000 0.328125
vt 0.406250 0.328125
vt 0.390625 0.328125
vt 0.609375 0.625000
vt 0.765625 0.828125
vt 0.765625 0.843750
vt 0.609375 0.843750
vt 0.640625 0.531250
vt 0.234375 0.296875
vt 0.234375 0.343750
vt 0.250000 0.296875
vt 0.250000 0.343750
vt 0.640625 0.546875
vt 0.703125 0.546875
vt 0.531250 0.296875
vt 0.703125 0.468750
vt 0.546875 0.296875
vt 0.687500 0.453125
vt 0.703125 0.453125
vt 0.609375 0.343750
vt 0.062500 1.000000
vt 0.375000 0.609375
vt 0.359375 0.609375
vt 0.125000 0.343750
vt 0.187500 0.453125
vt 0.125000 0.453125
vt 0.390625 0.609375
vt 0.125000 0.281250
vt 0.140625 0.281250
vt 0.140625 0.343750
vt 0.156250 0.281250
vt 0.156250 0.343750
vt 0.390625 0.843750
vt 0.343750 0.843750
vt 0.171875 0.281250
vt 0.171875 0.343750
vt 0.187500 0.281250
vt 0.671875 0.609375
vt 0.609375 0.671875
vt 0.703125 0.671875
vt 0.609375 0.687500
vt 0.578125 0.859375
vt 0.375000 0.406250
vt 0.500000 0.687500
vt 0.515625 0.703125
vt 0.500000 0.703125
vt 0.578125 0.390625
vt 0.140625 0.453125
vt 0.140625 0.468750
vt 0.125000 0.468750
vt 0.171875 0.765625
vt 0.171875 1.000000
vt 0.593750 0.625000
vt 0.593750 0.859375
vt 0.343750 1.000000
vt 0.609375 0.859375
vt 0.781250 0.843750
vt 0.781250 0.859375
vt 0.625000 0.312500
vt 0.640625 0.312500
vt 0.640625 0.343750
vt 0.625000 0.343750
vt 0.656250 0.578125
vt 0.453125 0.843750
vt 0.250000 0.609375
vt 0.140625 0.609375
vt 0.109375 1.000000
s 0
usemtl fusebox
f 3/1/1 4/1/2 2/2/1 1/2/2
s 1
f 8/3/3 3/4/3 1/5/3 6/6/3
s 0
f 7/1/1 8/1/4 6/2/1 5/2/4
f 6/2/5 1/7/1 2/7/5 5/2/1
f 7/2/6 4/7/1 3/7/6 8/2/1
s 1
f 12/8/1 15/9/1 13/10/1 10/11/1
f 11/12/2 12/13/2 10/14/2 9/15/2
f 16/9/3 11/16/3 9/17/3 14/10/3
f 15/13/4 16/18/4 14/19/4 13/14/4
f 14/20/5 9/21/5 10/22/5 13/23/5
f 15/21/6 12/24/6 11/25/6 16/22/6
f 20/26/1 23/27/1 21/28/1 18/29/1
f 19/16/2 20/30/2 18/31/2 17/17/2
f 24/32/3 19/33/3 17/34/3 22/35/3
f 23/30/4 24/36/4 22/37/4 21/31/4
f 22/38/5 17/39/5 18/40/5 21/41/5
f 23/42/6 20/43/6 19/39/6 24/38/6
f 28/44/1 31/45/1 29/43/1 26/42/1
f 30/11/5 25/46/5 26/12/5 29/47/5
f 31/48/6 28/49/6 27/50/6 32/51/6
f 36/52/1 39/53/1 37/45/1 34/44/1
f 38/54/5 33/55/5 34/49/5 37/48/5
f 39/56/6 36/57/6 35/55/6 40/54/6
f 44/36/1 47/58/1 45/59/1 42/37/1
f 43/60/2 44/61/2 42/62/2 41/32/2
f 48/58/3 43/63/3 41/64/3 46/59/3
f 47/61/4 48/65/4 46/66/4 45/62/4
f 46/24/5 41/67/5 42/68/5 45/25/5
f 47/67/6 44/69/6 43/70/6 48/68/6
f 51/71/2 52/72/2 50/73/2 49/64/2
f 55/74/4 56/75/4 54/76/4 53/52/4
f 54/77/5 49/78/5 50/79/5 53/80/5
f 55/81/6 52/82/6 51/83/6 56/84/6
f 60/85/7 63/86/7 61/87/7 58/88/7
f 59/89/2 60/90/2 58/91/2 57/92/2
f 63/93/4 64/94/4 62/95/4 61/96/4
f 68/97/1 71/98/1 69/18/1 66/13/1
f 67/69/2 68/99/2 66/100/2 65/70/2
f 71/99/4 72/101/4 70/102/4 69/100/4
f 70/103/5 65/104/5 66/105/5 69/102/5
f 71/106/6 68/107/6 67/29/6 72/108/6
f 75/109/2 76/110/2 74/111/2 73/97/2
f 79/110/4 80/112/4 78/113/4 77/111/4
f 78/114/5 73/115/5 74/107/5 77/106/5
f 79/116/6 76/117/6 75/115/6 80/114/6
f 84/118/8 81/119/8 82/117/8 83/116/8
f 88/120/8 85/121/8 86/119/8 87/118/8
f 92/122/1 95/123/1 93/13/1 90/12/1
f 91/112/2 92/124/2 90/125/2 89/113/2
f 95/124/4 96/126/4 94/98/4 93/125/4
f 94/127/5 89/128/5 90/123/5 93/122/5
f 95/129/6 92/130/6 91/131/6 96/132/6
s 0
f 100/2/9 103/133/1 101/133/9 98/2/1
f 99/2/4 100/133/1 98/133/4 97/2/3
f 104/2/10 99/133/3 97/133/10 102/2/3
f 103/2/2 104/133/3 102/133/2 101/2/1
s 1
f 102/104/11 97/134/11 98/135/11 101/105/11
s 0
f 108/2/7 111/133/1 109/133/7 106/2/1
f 107/2/2 108/133/3 106/133/12 105/2/1
f 112/2/13 107/133/3 105/133/13 110/2/3
f 111/2/14 112/133/1 110/133/4 109/2/3
s 1
f 110/136/8 105/137/8 106/134/8 109/104/8
s 0
f 116/2/7 119/133/1 117/133/7 114/2/1
f 115/2/2 116/133/3 114/133/12 113/2/1
f 120/2/13 115/133/3 113/133/13 118/2/3
f 119/2/14 120/133/1 118/133/4 117/2/3
s 1
f 118/138/8 113/139/8 114/137/8 117/136/8
s 0
f 124/2/9 127/133/1 125/133/9 122/2/1
f 123/2/4 124/133/1 122/133/4 121/2/3
f 128/2/10 123/133/3 121/133/10 126/2/3
f 127/2/2 128/133/3 126/133/2 125/2/1
s 1
f 126/140/11 121/141/11 122/139/11 125/138/11
s 0
f 132/2/7 135/133/1 133/133/7 130/2/1
f 131/2/2 132/133/3 130/133/12 129/2/1
f 136/2/13 131/133/3 129/133/13 134/2/3
f 135/2/14 136/133/1 134/133/4 133/2/3
s 1
f 134/142/8 129/143/8 130/144/8 133/145/8
s 0
f 140/2/7 143/133/1 141/133/7 138/2/1
f 139/2/2 140/133/3 138/133/12 137/2/1
f 144/2/13 139/133/3 137/133/13 142/2/3
f 143/2/14 144/133/1 142/133/4 141/2/3
s 1
f 142/91/8 137/146/8 138/147/8 141/148/8
s 0
f 148/2/7 151/133/1 149/133/7 146/2/1
f 147/2/2 148/133/3 146/133/12 145/2/1
f 152/2/13 147/133/3 145/133/13 150/2/3
f 151/2/14 152/133/1 150/133/4 149/2/3
s 1
f 150/149/8 145/150/8 146/93/8 149/151/8
s 0
f 156/2/7 159/133/1 157/133/7 154/2/1
f 155/2/2 156/133/3 154/133/12 153/2/1
f 160/2/13 155/133/3 153/133/13 158/2/3
f 159/2/14 160/133/1 158/133/4 157/2/3
s 1
f 158/90/8 153/131/8 154/146/8 157/91/8
s 0
f 164/2/7 167/133/1 165/133/7 162/2/1
f 163/2/2 164/133/3 162/133/12 161/2/1
f 168/2/13 163/133/3 161/133/13 166/2/3
f 167/2/14 168/133/1 166/133/4 165/2/3
s 1
f 166/150/8 161/152/8 162/94/8 165/93/8
f 172/153/1 175/154/1 173/155/1 170/156/1
s 0
f 171/157/1 172/157/2 170/2/1 169/2/2
f 175/157/1 176/157/4 174/2/1 173/2/4
f 174/2/5 169/158/1 170/158/5 173/2/1
f 175/2/6 172/158/1 171/158/6 176/2/1
s 1
f 180/159/1 183/160/1 181/161/1 178/162/1
s 0
f 179/157/1 180/157/2 178/2/1 177/2/2
f 183/157/1 184/157/4 182/2/1 181/2/4
f 182/2/5 177/163/1 178/163/5 181/2/1
f 183/2/6 180/163/1 179/163/6 184/2/1
s 1
f 188/164/1 191/165/1 189/166/1 186/167/1
s 0
f 187/157/1 188/157/2 186/2/1 185/2/2
f 191/157/1 192/157/4 190/2/1 189/2/4
f 190/2/5 185/133/1 186/133/5 189/2/1
f 191/2/6 188/133/1 187/133/6 192/2/1
s 1
f 196/165/1 199/12/1 197/168/1 194/166/1
s 0
f 195/157/1 196/157/2 194/2/1 193/2/2
f 199/157/1 200/157/4 198/2/1 197/2/4
f 198/2/5 193/133/1 194/133/5 197/2/1
f 199/2/6 196/133/1 195/133/6 200/2/1
f 204/2/7 207/133/1 205/133/7 202/2/1
f 203/2/2 204/133/3 202/133/12 201/2/1
f 208/2/13 203/133/3 201/133/13 206/2/3
f 207/2/14 208/133/1 206/133/4 205/2/3
s 1
f 206/169/8 201/170/8 202/26/8 205/171/8
f 211/172/2 212/173/2 210/51/2 209/161/2
f 215/174/4 216/175/4 214/176/4 213/177/4
f 214/178/5 209/179/5 210/171/5 213/174/5
f 215/180/6 212/181/6 211/179/6 216/178/6
s 0
f 220/2/7 223/133/1 221/133/7 218/2/1
f 219/2/2 220/133/3 218/133/12 217/2/1
f 224/2/13 219/133/3 217/133/13 222/2/3
f 223/2/14 224/133/1 222/133/4 221/2/3
s 1
f 222/182/8 217/183/8 218/170/8 221/169/8
f 228/80/1 231/79/1 229/160/1 226/159/1
f 227/184/2 228/185/2 226/186/2 225/187/2
f 231/185/4 232/188/4 230/189/4 229/186/4
f 230/190/5 225/135/5 226/191/5 229/192/5
f 231/193/6 228/147/6 227/194/6 232/195/6
f 236/196/1 239/197/1 237/183/1 234/182/1
s 0
f 235/198/1 236/198/2 234/2/1 233/2/2
f 239/198/1 240/198/4 238/2/1 237/2/4
f 238/2/5 233/133/1 234/133/5 237/2/1
f 239/2/6 236/133/1 235/133/6 240/2/1
s 1
f 244/199/1 247/200/1 245/128/1 242/201/1
s 0
f 243/202/1 244/202/2 242/2/1 241/2/2
f 247/202/1 248/202/4 246/2/1 245/2/4
f 246/2/5 241/133/1 242/133/5 245/2/1
f 247/2/6 244/133/1 243/133/6 248/2/1
s 1
f 252/203/1 255/140/1 253/136/1 250/204/1
s 0
f 251/205/1 252/205/2 250/2/1 249/2/2
f 255/205/1 256/205/4 254/2/1 253/2/4
f 254/2/5 249/133/1 250/133/5 253/2/1
f 255/2/6 252/133/1 251/133/6 256/2/1
s 1
f 260/206/8 257/207/8 258/208/8 259/209/8
f 264/210/1 267/211/1 265/212/1 262/213/1
s 0
f 263/205/1 264/205/2 262/2/1 261/2/2
f 267/205/1 268/205/4 266/2/1 265/2/4
f 266/2/5 261/133/1 262/133/5 265/2/1
f 267/2/6 264/133/1 263/133/6 268/2/1
s 1
f 272/211/1 275/142/1 273/214/1 270/212/1
s 0
f 271/205/1 272/205/2 270/2/1 269/2/2
f 275/205/1 276/205/4 274/2/1 273/2/4
f 274/2/5 269/133/1 270/133/5 273/2/1
f 275/2/6 272/133/1 271/133/6 276/2/1
s 1
f 280/143/1 283/149/1 281/215/1 278/216/1
s 0
f 279/205/1 280/205/2 278/2/1 277/2/2
f 283/205/1 284/205/4 282/2/1 281/2/4
f 282/2/5 277/133/1 278/133/5 281/2/1
f 283/2/6 280/133/1 279/133/6 284/2/1
s 1
f 288/217/8 285/194/8 286/207/8 287/206/8
f 292/41/8 289/218/8 290/219/8 291/220/8
f 296/175/1 299/221/1 297/132/1 294/153/1
f 295/188/2 296/222/2 294/223/2 293/189/2
f 299/222/4 300/224/4 298/225/4 297/223/4
f 298/226/5 293/227/5 294/130/5 297/129/5
f 299/221/6 296/26/6 295/227/6 300/226/6
s 0
f 304/2/7 307/133/1 305/133/7 302/2/1
f 303/2/2 304/133/3 302/133/12 301/2/1
f 308/2/13 303/133/3 301/133/13 306/2/3
f 307/2/14 308/133/1 306/133/4 305/2/3
s 1
f 306/126/8 301/228/8 302/21/8 305/20/8
s 0
f 312/2/9 315/133/1 313/133/9 310/2/1
f 311/2/4 312/133/1 310/133/4 309/2/3
f 316/2/10 311/133/3 309/133/10 314/2/3
f 315/2/2 316/133/3 314/133/2 313/2/1
s 1
f 314/179/11 309/229/11 310/197/11 313/196/11
s 0
f 320/2/7 323/133/1 321/133/7 318/2/1
f 319/2/2 320/133/3 318/133/12 317/2/1
f 324/2/13 319/133/3 317/133/13 322/2/3
f 323/2/14 324/133/1 322/133/4 321/2/3
s 1
f 322/228/8 317/230/8 318/24/8 321/21/8
s 0
f 328/2/7 331/133/1 329/133/7 326/2/1
f 327/2/2 328/133/3 326/133/12 325/2/1
f 332/2/13 327/133/3 325/133/13 330/2/3
f 331/2/14 332/133/1 330/133/4 329/2/3
s 1
f 330/231/8 325/232/8 326/229/8 329/179/8
f 336/233/1 339/136/1 337/104/1 334/103/1
s 0
f 335/198/1 336/198/2 334/2/1 333/2/2
f 339/198/1 340/198/4 338/2/1 337/2/4
f 338/2/5 333/234/1 334/234/5 337/2/1
f 339/2/6 336/234/1 335/234/6 340/2/1
s 1
f 344/167/1 347/166/1 345/235/1 342/236/1
f 343/237/2 344/187/2 342/238/2 341/239/2
f 348/166/3 343/168/3 341/240/3 346/235/3
f 347/187/4 348/225/4 346/47/4 345/238/4
f 346/241/5 341/242/5 342/243/5 345/237/5
f 347/242/6 344/244/6 343/245/6 348/243/6
f 352/88/1 355/87/1 353/246/1 350/247/1
f 351/244/2 352/248/2 350/249/2 349/245/2
f 355/248/4 356/250/4 354/187/4 353/249/4
f 354/216/5 349/95/5 350/201/5 353/127/5
f 360/92/15 363/91/15 361/148/15 358/251/15
f 359/252/2 360/253/2 358/121/2 357/254/2
f 364/151/16 359/93/16 357/96/16 362/215/16
f 363/209/4 364/208/4 362/253/4 361/252/4
f 362/173/17 357/176/17 358/255/17 361/56/17
f 363/145/18 360/144/18 359/46/18 364/256/18
f 368/257/15 371/19/15 369/258/15 366/259/15
f 367/23/2 368/70/2 366/260/2 365/98/2
f 372/239/16 367/261/16 365/262/16 370/263/16
f 371/70/4 372/190/4 370/192/4 369/260/4
f 370/263/17 365/262/17 366/33/17 369/66/17
f 371/259/18 368/258/18 367/177/18 372/172/18
f 376/35/1 379/264/1 377/265/1 374/2/1
f 375/156/2 376/266/2 374/267/2 373/255/2
f 380/264/3 375/85/3 373/268/3 378/265/3
f 379/266/4 380/217/4 378/269/4 377/267/4
f 378/98/5 373/191/5 374/181/5 377/180/5
f 379/220/6 376/270/6 375/271/6 380/269/6
s 0
f 384/205/1 387/205/1 385/2/1 382/2/1
s 1
f 383/272/2 384/273/2 382/274/2 381/275/2
s 0
f 388/205/3 383/205/3 381/2/3 386/2/3
s 1
f 387/273/4 388/203/4 386/204/4 385/274/4
s 0
f 386/198/19 381/198/19 382/2/19 385/2/19
f 387/198/19 384/198/19 383/2/19 388/2/19
f 392/205/1 395/205/1 393/2/1 390/2/1
s 1
f 391/276/2 392/89/2 390/251/2 389/193/2
s 0
f 396/205/3 391/205/3 389/2/3 394/2/3
s 1
f 395/101/4 396/272/4 394/275/4 393/233/4
s 0
f 394/198/19 389/198/19 390/2/19 393/2/19
f 395/198/19 392/198/19 391/2/19 396/2/19
s 1
f 400/247/1 403/277/1 401/162/1 398/268/1
s 0
f 399/1/1 400/1/2 398/2/1 397/2/2
s 1
f 404/261/3 399/47/3 397/278/3 402/279/3
s 0
f 403/1/1 404/1/4 402/2/1 401/2/4
f 402/2/5 397/280/1 398/280/5 401/2/1
f 403/2/6 400/280/1 399/280/6 404/2/1
