# Blender 4.5.14 LTS
# www.blender.org
mtllib piece_rotten_meat.mtl
o piece_rotten_meat
v 0.250000 0.125056 -0.125000
v 0.217441 0.125056 -0.309652
v 0.250000 0.000056 -0.125000
v 0.217441 0.000056 -0.309652
v -0.213413 0.125056 -0.233681
v -0.180854 0.125056 -0.049029
v -0.213413 0.000056 -0.233681
v -0.180854 0.000056 -0.049029
v 0.250000 0.125000 0.375000
v 0.250000 0.125000 -0.125000
v 0.250000 0.000000 0.375000
v 0.250000 -0.000000 -0.125000
v -0.187500 0.125000 -0.125000
v -0.187500 0.125000 0.375000
v -0.187500 -0.000000 -0.125000
v -0.187500 0.000000 0.375000
vn -0.1736 -0.0000 -0.9848
vn 0.9848 -0.0000 -0.1736
vn 0.1736 -0.0000 0.9848
vn -0.9848 -0.0000 0.1736
vn -0.0000 1.0000 -0.0000
vn -0.0000 -1.0000 -0.0000
vn -0.0000 -0.0000 -1.0000
vn 1.0000 -0.0000 -0.0000
vn -0.0000 -0.0000 1.0000
vn -1.0000 -0.0000 -0.0000
vt 0.468750 0.968750
vt 0.578125 0.968750
vt 0.578125 1.000000
vt 0.468750 1.000000
vt 0.437500 0.468750
vt 0.484375 0.468750
vt 0.484375 0.500000
vt 0.437500 0.500000
vt 0.468750 0.937500
vt 0.578125 0.937500
vt 0.531250 0.468750
vt 0.531250 0.500000
vt 0.000000 0.578125
vt 0.109375 0.578125
vt 0.109375 0.625000
vt 0.000000 0.625000
vt 0.218750 0.578125
vt 0.218750 0.625000
vt 0.468750 0.812500
vt 0.578125 0.812500
vt 0.578125 0.843750
vt 0.468750 0.843750
vt 0.437500 0.656250
vt 0.562500 0.656250
vt 0.562500 0.687500
vt 0.437500 0.687500
vt 0.468750 0.781250
vt 0.578125 0.781250
vt 0.437500 0.625000
vt 0.562500 0.625000
vt 0.218750 0.750000
vt 0.109375 0.750000
vt 0.250000 0.750000
vt 0.359375 0.750000
vt 0.359375 0.875000
vt 0.250000 0.875000
s 1
usemtl piece_rotten_meat
f 4/1/1 7/2/1 5/3/1 2/4/1
f 3/5/2 4/6/2 2/7/2 1/8/2
f 8/9/3 3/10/3 1/2/3 6/1/3
f 7/6/4 8/11/4 6/12/4 5/7/4
f 6/13/5 1/14/5 2/15/5 5/16/5
f 7/14/6 4/17/6 3/18/6 8/15/6
f 12/19/7 15/20/7 13/21/7 10/22/7
f 11/23/8 12/24/8 10/25/8 9/26/8
f 16/27/9 11/28/9 9/20/9 14/19/9
f 15/29/10 16/30/10 14/24/10 13/23/10
f 14/15/5 9/18/5 10/31/5 13/32/5
f 15/33/6 12/34/6 11/35/6 16/36/6
