# Blender 4.5.14 LTS
# www.blender.org
mtllib pile_raw_guts_meat.mtl
o pile_raw_guts_meat
v 0.453134 0.078187 -0.283871
v 0.268205 0.078187 -0.252925
v 0.453134 0.000062 -0.283871
v 0.268205 0.000062 -0.252925
v 0.281099 0.078187 -0.175871
v 0.466028 0.078187 -0.206818
v 0.281099 0.000062 -0.175871
v 0.466028 0.000062 -0.206818
v 0.625000 0.004688 0.625000
v 0.625000 0.004687 -0.618750
v 0.625000 0.004688 0.625000
v 0.625000 0.004687 -0.618750
v -0.625000 0.004687 -0.618750
v -0.625000 0.004688 0.625000
v -0.625000 0.004687 -0.618750
v -0.625000 0.004688 0.625000
v 0.062500 0.125000 0.250000
v 0.062500 0.125000 -0.250000
v 0.062500 0.000000 0.250000
v 0.062500 -0.000000 -0.250000
v -0.375000 0.125000 -0.250000
v -0.375000 0.125000 0.250000
v -0.375000 -0.000000 -0.250000
v -0.375000 0.000000 0.250000
v 0.401703 0.104686 0.212006
v 0.482887 0.084007 0.044263
v 0.360219 -0.013099 0.206450
v 0.441403 -0.033778 0.038706
v 0.116223 0.222322 -0.150244
v 0.035040 0.243001 0.017499
v 0.074740 0.104537 -0.155801
v -0.006444 0.125216 0.011942
v 0.082533 0.061718 0.594478
v 0.401703 0.104686 0.212007
v 0.060966 -0.057344 0.563104
v 0.380136 -0.014375 0.180633
v 0.073504 0.232521 -0.047512
v -0.245666 0.189552 0.334959
v 0.051937 0.113460 -0.078885
v -0.267233 0.070491 0.303586
v 0.062500 0.125056 -0.250000
v 0.029941 0.125056 -0.434652
v 0.062500 0.000056 -0.250000
v 0.029941 0.000056 -0.434652
v -0.400913 0.125056 -0.358681
v -0.368354 0.125056 -0.174029
v -0.400913 0.000056 -0.358681
v -0.368354 0.000056 -0.174029
v 0.071875 0.135937 -0.253125
v 0.038231 0.135937 -0.443931
v 0.071875 -0.007813 -0.253125
v 0.038231 -0.007813 -0.443931
v -0.411088 0.135937 -0.364705
v -0.377443 0.135937 -0.173898
v -0.411088 -0.007813 -0.364705
v -0.377443 -0.007813 -0.173898
v 0.071875 0.134375 0.259375
v 0.071875 0.134375 -0.253125
v 0.071875 -0.009375 0.259375
v 0.071875 -0.009375 -0.253125
v -0.384375 0.134375 -0.253125
v -0.384375 0.134375 0.259375
v -0.384375 -0.009375 -0.253125
v -0.384375 -0.009375 0.259375
v 0.412348 0.111145 0.217530
v 0.496238 0.089776 0.044195
v 0.364642 -0.024308 0.211140
v 0.448532 -0.045676 0.037805
v 0.113860 0.234019 -0.158648
v 0.029971 0.255388 0.014686
v 0.066154 0.098566 -0.165038
v -0.017736 0.119935 0.008296
v 0.085199 0.067102 0.609563
v 0.412348 0.111145 0.217530
v 0.060397 -0.069818 0.573484
v 0.387546 -0.025775 0.181451
v 0.070083 0.244458 -0.053111
v -0.257066 0.200416 0.338922
v 0.045282 0.107538 -0.089190
v -0.281868 0.063495 0.302843
v -0.504516 0.078187 -0.172606
v -0.434278 0.078187 0.001241
v -0.504516 0.000062 -0.172606
v -0.434278 0.000062 0.001241
v -0.361842 0.078187 -0.028025
v -0.432080 0.078187 -0.201872
v -0.361842 0.000062 -0.028025
v -0.432080 0.000062 -0.201872
v -0.439384 0.078181 -0.018503
v -0.416533 0.078181 0.167599
v -0.439384 0.000056 -0.018503
v -0.416533 0.000056 0.167599
v -0.338990 0.078181 0.158078
v -0.361841 0.078181 -0.028025
v -0.338990 0.000056 0.158078
v -0.361841 0.000056 -0.028025
v -0.415808 0.078125 0.143841
v -0.438587 0.078125 0.266748
v -0.415808 0.000000 0.143841
v -0.438587 0.000000 0.266748
v -0.361770 0.078125 0.280985
v -0.338991 0.078125 0.158078
v -0.361770 0.000000 0.280985
v -0.338991 0.000000 0.158078
v -0.438587 0.078688 0.266747
v -0.407289 0.078688 0.387765
v -0.438587 0.000563 0.266747
v -0.407289 0.000563 0.387765
v -0.331653 0.078688 0.368205
v -0.362950 0.078688 0.247186
v -0.331653 0.000563 0.368205
v -0.362950 0.000563 0.247186
v -0.272410 0.078688 0.403856
v -0.294389 0.078688 0.455634
v -0.272410 0.000563 0.403856
v -0.294389 0.000563 0.455634
v -0.222475 0.078688 0.486160
v -0.200496 0.078688 0.434382
v -0.222475 0.000563 0.486160
v -0.200496 0.000563 0.434382
v -0.259704 0.091166 0.373906
v -0.280831 0.075661 0.423678
v -0.251290 0.016067 0.354084
v -0.272417 0.000562 0.403856
v -0.208917 0.075661 0.454204
v -0.187790 0.091166 0.404432
v -0.200503 0.000562 0.434382
v -0.179375 0.016067 0.384609
v -0.293087 0.099113 0.329681
v -0.261741 0.077338 0.425483
v -0.284673 0.024014 0.309859
v -0.253326 0.002239 0.405660
v -0.187789 0.091180 0.404432
v -0.219136 0.112955 0.308630
v -0.179375 0.016081 0.384610
v -0.210722 0.037856 0.288808
v -0.373627 0.121493 0.210677
v -0.284421 0.095308 0.347748
v -0.365213 0.046395 0.190855
v -0.276007 0.020210 0.327925
v -0.219136 0.112948 0.308630
v -0.308342 0.139133 0.171559
v -0.210722 0.037849 0.288807
v -0.299927 0.064035 0.151737
v -0.412370 0.148749 0.158304
v -0.364320 0.117039 0.224197
v -0.413263 0.078104 0.124958
v -0.365213 0.046394 0.190850
v -0.299035 0.134679 0.185079
v -0.347085 0.166389 0.119186
v -0.299928 0.064034 0.151733
v -0.347978 0.095744 0.085840
v -0.513126 0.123662 0.070524
v -0.480779 0.149155 0.108836
v -0.469462 0.059161 0.076576
v -0.437115 0.084654 0.114889
v -0.434104 0.175414 0.051955
v -0.466452 0.149922 0.013643
v -0.390440 0.110914 0.058008
v -0.422787 0.085421 0.019696
v -0.438863 0.154935 0.145900
v -0.393760 0.140123 0.176072
v -0.439756 0.084290 0.112553
v -0.394653 0.069478 0.142726
v -0.347085 0.166383 0.119191
v -0.392188 0.181195 0.089019
v -0.347978 0.095738 0.085845
v -0.393081 0.110550 0.055673
v -0.480779 0.149155 0.108833
v -0.438863 0.154935 0.145896
v -0.457631 0.076014 0.094061
v -0.415715 0.081795 0.131125
v -0.392188 0.181195 0.089016
v -0.434104 0.175414 0.051952
v -0.369040 0.108054 0.074244
v -0.410956 0.102274 0.037181
v -0.585779 0.060092 -0.082874
v -0.513126 0.123669 0.070524
v -0.542114 -0.004408 -0.076822
v -0.469462 0.059168 0.076577
v -0.456414 0.158198 0.029354
v -0.529067 0.094621 -0.124045
v -0.412750 0.093697 0.035406
v -0.485402 0.030120 -0.117992
v -0.051897 0.078125 0.413245
v -0.204544 0.078125 0.304363
v -0.051897 0.000000 0.413245
v -0.204544 0.000000 0.304363
v -0.249911 0.078125 0.367966
v -0.097264 0.078125 0.476848
v -0.249911 0.000000 0.367966
v -0.097264 0.000000 0.476848
v -0.189628 0.078125 0.318272
v -0.308893 0.078125 0.173593
v -0.189628 0.000000 0.318272
v -0.308893 0.000000 0.173593
v -0.369176 0.078125 0.223286
v -0.249911 0.078125 0.367966
v -0.369176 0.000000 0.223286
v -0.249911 0.000000 0.367966
v -0.296738 0.078125 0.194021
v -0.343564 0.078125 0.078123
v -0.296738 0.000000 0.194021
v -0.343564 0.000000 0.078123
v -0.416000 0.078125 0.107389
v -0.369174 0.078125 0.223287
v -0.416000 0.000000 0.107389
v -0.369174 0.000000 0.223287
v -0.343564 0.078125 0.078123
v -0.434983 0.078125 -0.007127
v -0.343564 0.000000 0.078123
v -0.434983 -0.000000 -0.007127
v -0.488264 0.078125 0.050010
v -0.396845 0.078125 0.135260
v -0.488264 0.000000 0.050010
v -0.396845 0.000000 0.135260
v -0.552068 0.078125 -0.050903
v -0.614375 0.078125 -0.046000
v -0.552068 -0.000000 -0.050903
v -0.614375 -0.000000 -0.046000
v -0.608246 0.078125 0.031885
v -0.545938 0.078125 0.026981
v -0.608246 0.000000 0.031885
v -0.545938 0.000000 0.026981
v -0.434983 0.078125 -0.007127
v -0.552068 0.078125 -0.050903
v -0.434983 -0.000000 -0.007127
v -0.552068 -0.000000 -0.050903
v -0.579427 0.078125 0.022274
v -0.462343 0.078125 0.066050
v -0.579427 0.000000 0.022274
v -0.462343 0.000000 0.066050
v -0.175268 0.123662 0.203565
v -0.223135 0.149155 0.188633
v -0.215346 0.059162 0.221922
v -0.263213 0.084655 0.206990
v -0.231938 0.175415 0.261685
v -0.184071 0.149922 0.276616
v -0.272016 0.110914 0.280041
v -0.224149 0.085421 0.294973
v -0.031573 0.060091 0.293904
v -0.175268 0.123668 0.203565
v -0.071651 -0.004410 0.312261
v -0.215346 0.059167 0.221922
v -0.200978 0.158197 0.268760
v -0.057282 0.094620 0.359098
v -0.241056 0.093696 0.287116
v -0.097360 0.030119 0.377455
v -0.223136 0.149155 0.188627
v -0.278401 0.154935 0.179890
v -0.234722 0.076015 0.213523
v -0.289987 0.081795 0.204785
v -0.287204 0.181195 0.252941
v -0.231939 0.175414 0.261678
v -0.298790 0.108055 0.277836
v -0.243524 0.102274 0.286574
v -0.278405 0.154942 0.179843
v -0.332656 0.140130 0.178630
v -0.259735 0.084297 0.207487
v -0.313986 0.069484 0.206274
v -0.341459 0.166389 0.251681
v -0.287208 0.181201 0.252894
v -0.322789 0.095744 0.279326
v -0.268538 0.110556 0.280538
v -0.307413 0.148743 0.183665
v -0.383342 0.117032 0.153909
v -0.288743 0.078098 0.211309
v -0.364672 0.046387 0.181553
v -0.417385 0.134672 0.221978
v -0.341455 0.166383 0.251734
v -0.398715 0.064027 0.249622
v -0.322785 0.095738 0.279379
v -0.368225 0.121448 0.160314
v -0.517108 0.095263 0.092641
v -0.364671 0.046350 0.181553
v -0.513554 0.020165 0.113879
v -0.551151 0.112903 0.160710
v -0.402268 0.139088 0.228384
v -0.547597 0.037804 0.181949
v -0.398713 0.063989 0.249623
v -0.500092 0.099111 0.103222
v -0.578003 0.077336 0.039266
v -0.496537 0.024012 0.124460
v -0.574449 0.002237 0.060504
v -0.629063 0.091178 0.096754
v -0.551151 0.112953 0.160710
v -0.625508 0.016079 0.117992
v -0.547597 0.037854 0.181948
v -0.552005 0.091171 0.083860
v -0.560930 0.075667 0.030530
v -0.548451 0.016073 0.105099
v -0.557376 0.000568 0.051769
v -0.637983 0.075667 0.043425
v -0.629059 0.091171 0.096754
v -0.634429 0.000568 0.064663
v -0.625505 0.016073 0.117993
v -0.574736 0.078744 0.045863
v -0.545394 0.078744 -0.009322
v -0.574736 0.000619 0.045863
v -0.545394 0.000619 -0.009322
v -0.614375 0.078744 -0.045999
v -0.643717 0.078744 0.009185
v -0.614375 0.000619 -0.045999
v -0.643717 0.000619 0.009185
v -0.557379 0.078688 0.051769
v -0.566663 0.078687 -0.003709
v -0.557379 0.000563 0.051769
v -0.566663 0.000562 -0.003709
v -0.643717 0.078687 0.009185
v -0.634433 0.078688 0.064664
v -0.643717 0.000563 0.009185
v -0.634433 0.000563 0.064664
v -0.407289 0.078181 0.387766
v -0.332063 0.078181 0.487595
v -0.407289 0.000056 0.387766
v -0.332063 0.000056 0.487595
v -0.269669 0.078181 0.440578
v -0.344896 0.078181 0.340749
v -0.269669 0.000056 0.440578
v -0.344896 0.000056 0.340749
v -0.260952 0.078749 0.418164
v -0.315349 0.078749 0.448940
v -0.260952 0.000624 0.418164
v -0.315349 0.000624 0.448940
v -0.276878 0.078749 0.516937
v -0.222481 0.078749 0.486161
v -0.276878 0.000624 0.516937
v -0.222481 0.000624 0.486161
v -0.332063 0.078125 0.487595
v -0.276878 0.078125 0.516937
v -0.332063 0.000000 0.487595
v -0.276878 0.000000 0.516937
v -0.240201 0.078125 0.447957
v -0.295385 0.078125 0.418615
v -0.240201 0.000000 0.447957
v -0.295385 0.000000 0.418615
v 0.058591 0.078125 -0.218537
v 0.018000 0.078125 -0.171012
v 0.058591 -0.000000 -0.218537
v 0.018000 -0.000000 -0.171012
v 0.077407 0.078125 -0.120274
v 0.117997 0.078125 -0.167799
v 0.077407 -0.000000 -0.120274
v 0.117997 -0.000000 -0.167799
v 0.110984 0.078749 -0.134084
v 0.092711 0.078749 -0.193853
v 0.110984 0.000624 -0.134084
v 0.092711 0.000624 -0.193853
v 0.018000 0.078749 -0.171012
v 0.036273 0.078749 -0.111243
v 0.018000 0.000624 -0.171012
v 0.036273 0.000624 -0.111243
v 0.172336 0.078181 -0.270374
v 0.058590 0.078181 -0.218537
v 0.172336 0.000056 -0.270374
v 0.058590 0.000056 -0.218537
v 0.090988 0.078181 -0.147447
v 0.204733 0.078181 -0.199283
v 0.090988 0.000056 -0.147447
v 0.204733 0.000056 -0.199283
v 0.245519 0.078687 -0.384045
v 0.301692 0.078687 -0.381101
v 0.245519 0.000562 -0.384045
v 0.301692 0.000562 -0.381101
v 0.305781 0.078687 -0.459119
v 0.249608 0.078687 -0.462062
v 0.305781 0.000562 -0.459119
v 0.249608 0.000562 -0.462062
v 0.255042 0.078744 -0.399712
v 0.302568 0.078744 -0.359121
v 0.255042 0.000619 -0.399712
v 0.302568 0.000619 -0.359121
v 0.353306 0.078744 -0.418528
v 0.305781 0.078744 -0.459118
v 0.353306 0.000619 -0.418528
v 0.305781 0.000619 -0.459118
v 0.213031 0.091171 -0.385748
v 0.267028 0.075667 -0.382919
v 0.191526 0.016073 -0.386875
v 0.245523 0.000568 -0.384046
v 0.271117 0.075667 -0.460936
v 0.217120 0.091171 -0.463766
v 0.249612 0.000568 -0.462063
v 0.195615 0.016073 -0.464893
v 0.182887 0.099111 -0.339251
v 0.262190 0.077336 -0.401473
v 0.161382 0.024012 -0.340378
v 0.240685 0.002237 -0.402600
v 0.217116 0.091178 -0.463765
v 0.137813 0.112953 -0.401543
v 0.195611 0.016079 -0.464892
v 0.116308 0.037854 -0.402670
v 0.098606 0.121448 -0.222867
v 0.196900 0.095263 -0.353574
v 0.077102 0.046350 -0.223994
v 0.175395 0.020164 -0.354701
v 0.137813 0.112903 -0.401543
v 0.039519 0.139088 -0.270836
v 0.116308 0.037804 -0.402670
v 0.018014 0.063989 -0.271963
v 0.349981 0.148743 -0.128689
v 0.395466 0.117032 -0.196378
v 0.318951 0.078098 -0.116445
v 0.364436 0.046387 -0.184134
v 0.336378 0.134672 -0.244347
v 0.290893 0.166383 -0.176658
v 0.305348 0.064027 -0.232103
v 0.259863 0.095738 -0.164414
v 0.347377 0.154942 -0.099602
v 0.360303 0.140129 -0.152305
v 0.316347 0.084297 -0.087358
v 0.329273 0.069484 -0.140061
v 0.290889 0.166389 -0.176710
v 0.277963 0.181201 -0.124008
v 0.259859 0.095744 -0.164466
v 0.246933 0.110556 -0.111764
v 0.326889 0.149155 -0.047491
v 0.347381 0.154935 -0.099556
v 0.305091 0.076015 -0.064191
v 0.325583 0.081795 -0.116255
v 0.277967 0.181195 -0.123961
v 0.257474 0.175414 -0.071896
v 0.256169 0.108055 -0.140661
v 0.235677 0.102274 -0.088596
v 0.182652 0.060091 0.116752
v 0.301951 0.123668 -0.003984
v 0.173405 -0.004410 0.073651
v 0.292704 0.059167 -0.047085
v 0.243867 0.158196 -0.043195
v 0.124568 0.094620 0.077541
v 0.234620 0.093696 -0.086296
v 0.115321 0.030119 0.034440
v 0.301951 0.123662 -0.003985
v 0.326889 0.149155 -0.047485
v 0.292704 0.059162 -0.047086
v 0.317642 0.084655 -0.090586
v 0.257475 0.175415 -0.071890
v 0.232537 0.149922 -0.028390
v 0.248228 0.110914 -0.114991
v 0.223290 0.085421 -0.071491
v 0.276528 0.078125 -0.251802
v 0.344608 0.078125 -0.356636
v 0.276528 -0.000000 -0.251802
v 0.344608 -0.000000 -0.356636
v 0.279087 0.078125 -0.399186
v 0.211007 0.078125 -0.294352
v 0.279087 -0.000000 -0.399186
v 0.211007 -0.000000 -0.294352
v 0.344608 0.078125 -0.356637
v 0.353306 0.078125 -0.418529
v 0.344608 -0.000000 -0.356637
v 0.353306 -0.000000 -0.418529
v 0.275942 0.078125 -0.429401
v 0.267243 0.078125 -0.367510
v 0.275942 -0.000000 -0.429401
v 0.267243 -0.000000 -0.367510
v 0.173512 0.078125 -0.181001
v 0.276528 0.078125 -0.251802
v 0.173512 -0.000000 -0.181001
v 0.276528 -0.000000 -0.251802
v 0.232277 0.078125 -0.316187
v 0.129262 0.078125 -0.245386
v 0.232277 -0.000000 -0.316187
v 0.129262 -0.000000 -0.245386
v 0.050226 0.078125 -0.160370
v 0.173512 0.078125 -0.181001
v 0.050226 -0.000000 -0.160370
v 0.173512 -0.000000 -0.181001
v 0.160618 0.078125 -0.258055
v 0.037332 0.078125 -0.237424
v 0.160618 -0.000000 -0.258055
v 0.037332 -0.000000 -0.237424
v 0.193071 0.078125 -0.042831
v 0.360135 0.078125 -0.127954
v 0.193071 -0.000000 -0.042831
v 0.360135 -0.000000 -0.127954
v 0.324667 0.078125 -0.197564
v 0.157603 0.078125 -0.112441
v 0.324667 -0.000000 -0.197564
v 0.157603 -0.000000 -0.112441
v 0.070539 0.078125 0.071080
v 0.209879 0.078125 -0.054382
v 0.070539 0.000000 0.071080
v 0.209879 -0.000000 -0.054382
v 0.157603 0.078125 -0.112441
v 0.018263 0.078125 0.013021
v 0.157603 -0.000000 -0.112441
v 0.018263 0.000000 0.013021
v 0.383118 0.060092 -0.382629
v 0.217630 0.123669 -0.344900
v 0.367758 -0.004408 -0.341309
v 0.202271 0.059168 -0.303580
v 0.245550 0.158198 -0.280621
v 0.411037 0.094621 -0.318350
v 0.230191 0.093697 -0.239302
v 0.395678 0.030120 -0.277030
v 0.173224 0.149155 -0.321615
v 0.127967 0.154935 -0.288714
v 0.182636 0.076014 -0.295819
v 0.137379 0.081795 -0.262918
v 0.173398 0.181195 -0.230835
v 0.218655 0.175414 -0.263735
v 0.182809 0.108054 -0.205039
v 0.228066 0.102274 -0.237939
v 0.127968 0.154935 -0.288711
v 0.088749 0.140123 -0.251208
v 0.160717 0.084290 -0.282365
v 0.121498 0.069478 -0.244862
v 0.134179 0.166383 -0.193328
v 0.173398 0.181195 -0.230832
v 0.166929 0.095738 -0.186982
v 0.206148 0.110550 -0.224486
v 0.217630 0.123662 -0.344900
v 0.173225 0.149155 -0.321612
v 0.202271 0.059161 -0.303580
v 0.157866 0.084654 -0.280292
v 0.218656 0.175414 -0.263732
v 0.263061 0.149921 -0.287020
v 0.203296 0.110914 -0.222413
v 0.247701 0.085421 -0.245701
v 0.397453 0.148749 -0.225675
v 0.322722 0.117039 -0.193026
v 0.430202 0.078104 -0.219329
v 0.355471 0.046394 -0.186680
v 0.346782 0.134679 -0.120821
v 0.421513 0.166389 -0.153471
v 0.379532 0.064034 -0.114475
v 0.454263 0.095744 -0.147125
v 0.337940 0.121493 -0.199180
v 0.184811 0.095308 -0.141756
v 0.355472 0.046395 -0.186675
v 0.202343 0.020210 -0.129251
v 0.208872 0.112948 -0.069552
v 0.362001 0.139133 -0.126976
v 0.226403 0.037849 -0.057047
v 0.379532 0.064035 -0.114471
v 0.204326 0.099113 -0.146307
v 0.104010 0.077338 -0.136439
v 0.221857 0.024014 -0.133802
v 0.121541 0.002239 -0.123934
v 0.108556 0.091180 -0.059684
v 0.208871 0.112955 -0.069552
v 0.126087 0.016081 -0.047179
v 0.226403 0.037856 -0.057047
v 0.153923 0.091166 -0.123287
v 0.109903 0.075661 -0.154686
v 0.171455 0.016067 -0.110782
v 0.127435 0.000562 -0.142181
v 0.064536 0.075661 -0.091083
v 0.108556 0.091166 -0.059684
v 0.082067 0.000562 -0.078579
v 0.126087 0.016067 -0.047179
v 0.127441 0.078687 -0.142182
v 0.081647 0.078687 -0.174847
v 0.127441 0.000562 -0.142182
v 0.081647 0.000562 -0.174847
v 0.036280 0.078687 -0.111244
v 0.082074 0.078687 -0.078579
v 0.036280 0.000562 -0.111244
v 0.082074 0.000562 -0.078579
v 0.297259 0.078687 -0.274736
v 0.172336 0.078687 -0.270374
v 0.297259 0.000562 -0.274736
v 0.172336 0.000562 -0.270374
v 0.175062 0.078687 -0.192296
v 0.299986 0.078687 -0.196659
v 0.175062 0.000562 -0.192296
v 0.299986 0.000562 -0.196659
v 0.412322 0.078125 -0.225895
v 0.297259 0.078125 -0.274737
v 0.412322 -0.000000 -0.225895
v 0.297259 -0.000000 -0.274737
v 0.266733 0.078125 -0.202822
v 0.381796 0.078125 -0.153981
v 0.266733 -0.000000 -0.202822
v 0.381796 -0.000000 -0.153981
v 0.288587 0.078181 -0.253636
v 0.101950 0.078181 -0.271607
v 0.288587 0.000056 -0.253636
v 0.101950 0.000056 -0.271607
v 0.094462 0.078181 -0.193842
v 0.281099 0.078181 -0.175871
v 0.094462 0.000056 -0.193842
v 0.281099 0.000056 -0.175871
vn -0.9863 -0.0000 0.1650
vn -0.1650 -0.0000 -0.9863
vn 0.9863 -0.0000 -0.1650
vn 0.1650 -0.0000 0.9863
vn -0.0000 1.0000 -0.0000
vn -0.0000 -1.0000 -0.0000
vn -0.0000 -0.0000 -1.0000
vn -0.0000 -0.0000 -0.0000
vn -0.0000 -0.0000 1.0000
vn 1.0000 -0.0000 -0.0000
vn -1.0000 -0.0000 -0.0000
vn 0.4330 -0.1103 -0.8946
vn 0.8381 -0.3161 0.4446
vn -0.8381 0.3161 -0.4446
vn 0.3319 0.9423 0.0445
vn -0.3319 -0.9423 -0.0445
vn 0.6383 0.0859 -0.7649
vn 0.7502 -0.2922 0.5932
vn -0.6383 -0.0859 0.7649
vn -0.7502 0.2922 -0.5932
vn 0.1725 0.9525 0.2510
vn -0.1725 -0.9525 -0.2510
vn -0.1736 -0.0000 -0.9848
vn 0.9848 -0.0000 -0.1736
vn 0.1736 -0.0000 0.9848
vn -0.9848 -0.0000 0.1736
vn 0.3746 -0.0000 0.9272
vn -0.9272 -0.0000 0.3746
vn -0.3746 -0.0000 -0.9272
vn 0.9272 -0.0000 -0.3746
vn 0.1219 -0.0000 0.9925
vn -0.9925 -0.0000 0.1219
vn -0.1219 -0.0000 -0.9925
vn 0.9925 -0.0000 -0.1219
vn -0.1822 -0.0000 0.9833
vn -0.9833 -0.0000 -0.1822
vn 0.1822 -0.0000 -0.9833
vn 0.9833 -0.0000 0.1822
vn 0.2504 -0.0000 0.9681
vn -0.9681 -0.0000 0.2504
vn -0.2504 -0.0000 -0.9681
vn 0.9681 -0.0000 -0.2504
vn -0.3907 -0.0000 0.9205
vn -0.9205 -0.0000 -0.3907
vn 0.3907 -0.0000 -0.9205
vn 0.9205 -0.0000 0.3907
vn -0.3756 -0.2756 0.8848
vn 0.3756 0.2756 -0.8848
vn -0.1077 0.9613 0.2537
vn 0.1077 -0.9613 -0.2537
vn 0.3040 -0.2112 0.9290
vn -0.9466 -0.1772 0.2695
vn -0.3040 0.2112 -0.9290
vn 0.9466 0.1772 -0.2695
vn 0.5386 -0.1581 0.8276
vn -0.8356 -0.2258 0.5007
vn -0.5386 0.1581 -0.8276
vn 0.8356 0.2258 -0.5007
vn 0.5491 -0.3624 0.7531
vn -0.5491 0.3624 -0.7531
vn 0.0114 0.9043 0.4268
vn -0.0114 -0.9043 -0.4268
vn 0.5751 0.4532 0.6811
vn -0.5974 -0.3361 0.7281
vn -0.5751 -0.4532 -0.6811
vn 0.5974 0.3361 -0.7281
vn -0.5589 0.8256 -0.0775
vn 0.5589 -0.8256 0.0775
vn 0.8018 -0.2633 0.5364
vn -0.8018 0.2633 -0.5364
vn 0.7452 0.1028 0.6589
vn -0.7452 -0.1028 -0.6589
vn -0.2963 0.9362 0.1891
vn 0.2963 -0.9362 -0.1891
vn 0.4008 0.3508 0.8463
vn -0.7259 -0.4420 0.5270
vn -0.4008 -0.3508 -0.8463
vn 0.7259 0.4420 -0.5270
vn -0.8141 -0.0000 -0.5807
vn 0.5807 -0.0000 -0.8141
vn 0.8141 -0.0000 0.5807
vn -0.5807 -0.0000 0.8141
vn -0.6361 -0.0000 -0.7716
vn 0.7716 -0.0000 -0.6361
vn 0.6361 -0.0000 0.7716
vn -0.7716 -0.0000 0.6361
vn -0.7314 -0.0000 -0.6820
vn 0.6820 -0.0000 -0.7314
vn 0.7314 -0.0000 0.6820
vn -0.6820 -0.0000 0.7314
vn -0.9969 -0.0000 0.0785
vn -0.0785 -0.0000 -0.9969
vn 0.9969 -0.0000 -0.0785
vn 0.0785 -0.0000 0.9969
vn -0.9367 -0.0000 -0.3502
vn 0.3502 -0.0000 -0.9367
vn 0.9367 -0.0000 0.3502
vn -0.3502 -0.0000 0.9367
vn -0.8510 0.4532 -0.2655
vn 0.1127 -0.3361 -0.9351
vn 0.8510 -0.4532 0.2655
vn -0.1127 0.3361 0.9351
vn 0.5130 0.8256 -0.2350
vn -0.5130 -0.8256 0.2350
vn -0.7928 0.3508 -0.4984
vn 0.3291 -0.4420 -0.8345
vn 0.7928 -0.3508 0.4984
vn -0.3291 0.4420 0.8345
vn -0.9825 0.1028 -0.1553
vn 0.9825 -0.1028 0.1553
vn 0.1483 0.9362 -0.3187
vn -0.1483 -0.9362 0.3187
vn -0.9645 -0.2633 -0.0216
vn 0.9645 0.2633 0.0216
vn -0.2390 0.9043 -0.3538
vn 0.2390 -0.9043 0.3538
vn -0.8678 -0.3624 -0.3401
vn 0.4357 -0.2258 -0.8713
vn 0.8678 0.3624 0.3401
vn -0.4357 0.2258 0.8713
vn -0.8989 -0.1581 -0.4086
vn 0.8989 0.1581 0.4086
vn -0.0455 0.9613 -0.2719
vn 0.0455 -0.9613 0.2719
vn -0.7555 -0.2112 -0.6202
vn 0.6536 -0.1772 -0.7358
vn 0.7555 0.2111 0.6202
vn -0.6536 0.1772 0.7358
vn -0.1587 -0.2756 -0.9481
vn 0.1587 0.2756 0.9481
vn 0.4695 -0.0000 -0.8829
vn 0.8829 -0.0000 0.4695
vn -0.4695 -0.0000 0.8829
vn -0.8829 -0.0000 -0.4695
vn 0.6018 -0.0000 0.7986
vn -0.7986 -0.0000 0.6018
vn -0.6018 -0.0000 -0.7986
vn 0.7986 -0.0000 -0.6018
vn -0.8704 -0.0000 0.4924
vn -0.4924 -0.0000 -0.8704
vn 0.8704 -0.0000 -0.4924
vn 0.4924 -0.0000 0.8704
vn -0.6494 -0.0000 0.7604
vn -0.7604 -0.0000 -0.6494
vn 0.6494 -0.0000 -0.7604
vn 0.7604 -0.0000 0.6494
vn -0.2924 -0.0000 -0.9563
vn 0.9563 -0.0000 -0.2924
vn 0.2924 -0.0000 0.9563
vn -0.9563 -0.0000 0.2924
vn -0.9100 -0.0000 0.4147
vn -0.4147 -0.0000 -0.9100
vn 0.9100 -0.0000 -0.4147
vn 0.4147 -0.0000 0.9100
vn 0.9986 -0.0000 0.0523
vn -0.0523 -0.0000 0.9986
vn -0.9986 -0.0000 -0.0523
vn 0.0523 -0.0000 -0.9986
vn 0.9599 -0.2756 0.0503
vn -0.9599 0.2756 -0.0503
vn 0.2753 0.9613 0.0144
vn -0.2753 -0.9613 -0.0144
vn 0.7690 -0.2112 -0.6034
vn 0.5769 -0.1772 0.7973
vn -0.7690 0.2112 0.6034
vn -0.5769 0.1772 -0.7973
vn 0.5935 -0.1581 -0.7892
vn 0.7563 -0.2258 0.6140
vn -0.5935 0.1581 0.7892
vn -0.7563 0.2258 -0.6140
vn 0.5198 -0.3624 -0.7736
vn -0.5198 0.3624 0.7736
vn 0.3972 0.9043 -0.1567
vn -0.3972 -0.9043 0.1567
vn 0.2298 -0.2633 -0.9369
vn 0.8885 -0.3361 0.3124
vn -0.2298 0.2633 0.9369
vn -0.8885 0.3361 -0.3124
vn 0.3643 0.1028 -0.9256
vn -0.3643 -0.1028 0.9256
vn 0.2790 0.9362 0.2138
vn -0.2790 -0.9362 -0.2138
vn 0.6582 0.3508 -0.6661
vn 0.7435 -0.4420 0.5019
vn -0.6582 -0.3508 0.6661
vn -0.7435 0.4420 -0.5019
vn 0.1184 0.8256 0.5517
vn -0.1184 -0.8256 -0.5517
vn 0.4433 0.4532 -0.7733
vn -0.4433 -0.4532 0.7733
vn 0.5446 -0.0000 -0.8387
vn 0.8387 -0.0000 0.5446
vn -0.5446 -0.0000 0.8387
vn -0.8387 -0.0000 -0.5446
vn 0.1392 -0.0000 -0.9903
vn 0.9903 -0.0000 0.1392
vn -0.1392 -0.0000 0.9903
vn -0.9903 -0.0000 -0.1392
vn 0.8241 -0.0000 -0.5664
vn 0.5664 -0.0000 0.8241
vn -0.8241 -0.0000 0.5664
vn -0.5664 -0.0000 -0.8241
vn 0.8910 -0.0000 -0.4540
vn 0.4540 -0.0000 0.8910
vn -0.8910 -0.0000 0.4540
vn -0.4540 -0.0000 -0.8910
vn 0.7431 -0.0000 -0.6691
vn 0.6691 -0.0000 0.7431
vn -0.7431 -0.0000 0.6691
vn -0.6691 -0.0000 -0.7431
vn -0.9130 0.3508 0.2082
vn -0.3574 -0.4420 -0.8228
vn 0.9130 -0.3508 -0.2082
vn 0.3574 0.4420 0.8228
vn 0.1966 0.8256 -0.5289
vn -0.1966 -0.8256 0.5289
vn -0.8046 0.1028 0.5849
vn -0.5815 -0.3361 -0.7409
vn 0.8046 -0.1028 -0.5849
vn 0.5815 0.3361 0.7409
vn -0.1205 0.9362 -0.3302
vn 0.1205 -0.9362 0.3302
vn -0.6972 -0.2633 0.6667
vn 0.6972 0.2633 -0.6667
vn -0.4192 0.9043 -0.0812
vn 0.4192 -0.9043 0.0812
vn -0.7894 0.4532 0.4140
vn 0.7894 -0.4532 -0.4140
vn -0.8541 -0.3624 0.3731
vn -0.3080 -0.2258 -0.9242
vn 0.8541 0.3624 -0.3731
vn 0.3080 0.2258 0.9242
vn -0.9246 -0.1581 0.3467
vn 0.9246 0.1581 -0.3467
vn -0.2244 0.9613 -0.1601
vn 0.2244 -0.9613 0.1601
vn -0.9728 -0.2112 0.0957
vn -0.0582 -0.1772 -0.9825
vn 0.9728 0.2112 -0.0957
vn 0.0582 0.1772 0.9825
vn -0.7826 -0.2756 -0.5582
vn 0.7826 0.2756 0.5582
vn -0.9994 -0.0000 0.0349
vn -0.0349 -0.0000 -0.9994
vn 0.9994 -0.0000 -0.0349
vn 0.0349 -0.0000 0.9994
vn -0.9954 -0.0000 -0.0958
vn 0.0958 -0.0000 -0.9954
vn 0.9954 -0.0000 0.0958
vn -0.0958 -0.0000 0.9954
vt 0.234375 0.289062
vt 0.257812 0.289062
vt 0.257812 0.312500
vt 0.234375 0.312500
vt 0.562500 0.617188
vt 0.609375 0.617188
vt 0.609375 0.640625
vt 0.562500 0.640625
vt 0.296875 0.289062
vt 0.320312 0.289062
vt 0.320312 0.312500
vt 0.296875 0.312500
vt 0.562500 0.585938
vt 0.609375 0.585938
vt 0.609375 0.609375
vt 0.562500 0.609375
vt 0.562500 0.531250
vt 0.585938 0.531250
vt 0.585938 0.578125
vt 0.562500 0.578125
vt 0.437500 0.390625
vt 0.460938 0.390625
vt 0.460938 0.437500
vt 0.437500 0.437500
vt 0.000000 1.000000
vt 0.250000 1.000000
vt 0.000000 0.750000
vt 0.250000 0.750000
vt 0.468750 0.812500
vt 0.578125 0.812500
vt 0.578125 0.843750
vt 0.468750 0.843750
vt 0.437500 0.656250
vt 0.562500 0.656250
vt 0.562500 0.687500
vt 0.437500 0.687500
vt 0.468750 0.781250
vt 0.578125 0.781250
vt 0.437500 0.625000
vt 0.562500 0.625000
vt 0.109375 0.625000
vt 0.218750 0.625000
vt 0.218750 0.750000
vt 0.109375 0.750000
vt 0.359375 0.750000
vt 0.359375 0.875000
vt 0.250000 0.875000
vt 0.468750 0.750000
vt 0.578125 0.750000
vt 0.093750 0.437500
vt 0.140625 0.437500
vt 0.140625 0.468750
vt 0.093750 0.468750
vt 0.187500 0.437500
vt 0.187500 0.468750
vt 0.000000 0.531250
vt 0.109375 0.531250
vt 0.109375 0.578125
vt 0.000000 0.578125
vt 0.218750 0.531250
vt 0.218750 0.578125
vt 0.218750 0.468750
vt 0.328125 0.468750
vt 0.328125 0.500000
vt 0.218750 0.500000
vt 0.437500 0.531250
vt 0.562500 0.562500
vt 0.437500 0.562500
vt 0.437500 0.468750
vt 0.437500 0.500000
vt 0.000000 0.500000
vt 0.125000 0.500000
vt 0.125000 0.531250
vt 0.468750 0.875000
vt 0.468750 1.000000
vt 0.359375 1.000000
vt 0.468750 0.968750
vt 0.578125 0.968750
vt 0.578125 1.000000
vt 0.484375 0.468750
vt 0.484375 0.500000
vt 0.468750 0.937500
vt 0.578125 0.937500
vt 0.531250 0.468750
vt 0.531250 0.500000
vt 0.000000 0.625000
vt 0.468750 0.906250
vt 0.578125 0.906250
vt 0.000000 0.437500
vt 0.046875 0.437500
vt 0.046875 0.468750
vt 0.000000 0.468750
vt 0.328125 0.578125
vt 0.328125 0.625000
vt 0.437500 0.578125
vt 0.437500 0.718750
vt 0.562500 0.718750
vt 0.562500 0.750000
vt 0.437500 0.750000
vt 0.578125 0.875000
vt 0.109375 0.468750
vt 0.109375 0.500000
vt 0.234375 0.437500
vt 0.234375 0.468750
vt 0.328125 0.531250
vt 0.437500 0.593750
vt 0.562500 0.593750
vt 0.453125 0.500000
vt 0.562500 0.500000
vt 0.453125 0.531250
vt 0.328125 0.750000
vt 0.687500 0.664062
vt 0.710938 0.664062
vt 0.710938 0.687500
vt 0.687500 0.687500
vt 0.468750 0.414062
vt 0.515625 0.414062
vt 0.515625 0.437500
vt 0.468750 0.437500
vt 0.453125 0.289062
vt 0.476562 0.289062
vt 0.476562 0.312500
vt 0.453125 0.312500
vt 0.562500 0.507812
vt 0.609375 0.507812
vt 0.609375 0.531250
vt 0.562500 0.453125
vt 0.585938 0.453125
vt 0.585938 0.500000
vt 0.562500 0.406250
vt 0.585938 0.406250
vt 0.687500 0.523438
vt 0.710938 0.523438
vt 0.710938 0.546875
vt 0.687500 0.546875
vt 0.031250 0.335938
vt 0.062500 0.335938
vt 0.062500 0.359375
vt 0.031250 0.359375
vt 0.687500 0.492188
vt 0.710938 0.492188
vt 0.710938 0.515625
vt 0.687500 0.515625
vt 0.640625 0.851562
vt 0.671875 0.851562
vt 0.671875 0.875000
vt 0.640625 0.875000
vt 0.156250 0.328125
vt 0.179688 0.328125
vt 0.179688 0.359375
vt 0.156250 0.359375
vt 0.187500 0.328125
vt 0.210938 0.328125
vt 0.210938 0.359375
vt 0.187500 0.359375
vt 0.546875 0.289062
vt 0.570312 0.289062
vt 0.570312 0.312500
vt 0.546875 0.312500
vt 0.640625 0.742188
vt 0.671875 0.742188
vt 0.671875 0.765625
vt 0.640625 0.765625
vt 0.687500 0.414062
vt 0.710938 0.414062
vt 0.710938 0.437500
vt 0.687500 0.437500
vt 0.640625 0.710938
vt 0.671875 0.710938
vt 0.671875 0.734375
vt 0.640625 0.734375
vt 0.640625 0.671875
vt 0.664062 0.671875
vt 0.664062 0.703125
vt 0.640625 0.703125
vt 0.328125 0.328125
vt 0.351562 0.328125
vt 0.351562 0.359375
vt 0.328125 0.359375
vt 0.578125 0.289062
vt 0.601562 0.289062
vt 0.601562 0.312500
vt 0.578125 0.312500
vt 0.000000 0.226562
vt 0.015625 0.226562
vt 0.015625 0.250000
vt 0.000000 0.250000
vt 0.609375 0.289062
vt 0.632812 0.289062
vt 0.632812 0.312500
vt 0.609375 0.312500
vt 0.750000 0.976562
vt 0.765625 0.976562
vt 0.765625 1.000000
vt 0.750000 1.000000
vt 0.734375 0.265625
vt 0.757812 0.265625
vt 0.757812 0.281250
vt 0.734375 0.281250
vt 0.015625 0.234375
vt 0.039062 0.234375
vt 0.039062 0.250000
vt 0.750000 0.953125
vt 0.773438 0.953125
vt 0.773438 0.968750
vt 0.750000 0.968750
vt 0.671875 0.531250
vt 0.687500 0.531250
vt 0.671875 0.546875
vt 0.046875 0.234375
vt 0.070312 0.234375
vt 0.070312 0.250000
vt 0.046875 0.250000
vt 0.671875 0.421875
vt 0.687500 0.421875
vt 0.671875 0.437500
vt 0.750000 0.937500
vt 0.773438 0.937500
vt 0.078125 0.234375
vt 0.101562 0.234375
vt 0.101562 0.250000
vt 0.078125 0.250000
vt 0.109375 0.234375
vt 0.132812 0.234375
vt 0.132812 0.250000
vt 0.109375 0.250000
vt 0.750000 0.875000
vt 0.773438 0.875000
vt 0.773438 0.890625
vt 0.750000 0.890625
vt 0.750000 0.859375
vt 0.773438 0.859375
vt 0.750000 0.828125
vt 0.773438 0.828125
vt 0.773438 0.843750
vt 0.750000 0.843750
vt 0.000000 0.273438
vt 0.023438 0.273438
vt 0.023438 0.296875
vt 0.000000 0.296875
vt 0.031250 0.273438
vt 0.054688 0.273438
vt 0.054688 0.296875
vt 0.031250 0.296875
vt 0.703125 0.914062
vt 0.726562 0.914062
vt 0.726562 0.937500
vt 0.703125 0.937500
vt 0.546875 0.382812
vt 0.585938 0.382812
vt 0.546875 0.406250
vt 0.703125 0.882812
vt 0.726562 0.882812
vt 0.726562 0.906250
vt 0.703125 0.906250
vt 0.593750 0.429688
vt 0.632812 0.429688
vt 0.632812 0.453125
vt 0.593750 0.453125
vt 0.593750 0.382812
vt 0.617188 0.382812
vt 0.617188 0.421875
vt 0.593750 0.421875
vt 0.609375 0.835938
vt 0.632812 0.835938
vt 0.632812 0.875000
vt 0.609375 0.875000
vt 0.171875 0.234375
vt 0.195312 0.234375
vt 0.195312 0.250000
vt 0.171875 0.250000
vt 0.750000 0.812500
vt 0.773438 0.812500
vt 0.750000 0.796875
vt 0.773438 0.796875
vt 0.750000 0.781250
vt 0.773438 0.781250
vt 0.703125 0.851562
vt 0.726562 0.851562
vt 0.726562 0.875000
vt 0.703125 0.875000
vt 0.140625 0.273438
vt 0.164062 0.273438
vt 0.164062 0.296875
vt 0.140625 0.296875
vt 0.171875 0.273438
vt 0.195312 0.273438
vt 0.195312 0.296875
vt 0.171875 0.296875
vt 0.234375 0.226562
vt 0.250000 0.226562
vt 0.250000 0.250000
vt 0.234375 0.250000
vt 0.703125 0.757812
vt 0.726562 0.757812
vt 0.726562 0.781250
vt 0.703125 0.781250
vt 0.750000 0.742188
vt 0.765625 0.742188
vt 0.765625 0.765625
vt 0.750000 0.765625
vt 0.281250 0.234375
vt 0.304688 0.234375
vt 0.304688 0.250000
vt 0.281250 0.250000
vt 0.312500 0.234375
vt 0.335938 0.234375
vt 0.335938 0.250000
vt 0.312500 0.250000
vt 0.750000 0.671875
vt 0.773438 0.671875
vt 0.773438 0.687500
vt 0.750000 0.687500
vt 0.687500 0.640625
vt 0.703125 0.640625
vt 0.703125 0.656250
vt 0.687500 0.656250
vt 0.750000 0.656250
vt 0.773438 0.656250
vt 0.687500 0.468750
vt 0.703125 0.468750
vt 0.703125 0.484375
vt 0.687500 0.484375
vt 0.343750 0.234375
vt 0.367188 0.234375
vt 0.367188 0.250000
vt 0.343750 0.250000
vt 0.375000 0.234375
vt 0.398438 0.234375
vt 0.398438 0.250000
vt 0.375000 0.250000
vt 0.406250 0.234375
vt 0.429688 0.234375
vt 0.429688 0.250000
vt 0.406250 0.250000
vt 0.687500 0.390625
vt 0.703125 0.390625
vt 0.703125 0.406250
vt 0.687500 0.406250
vt 0.437500 0.234375
vt 0.460938 0.234375
vt 0.460938 0.250000
vt 0.437500 0.250000
vt 0.062500 0.281250
vt 0.078125 0.281250
vt 0.078125 0.296875
vt 0.062500 0.296875
vt 0.750000 0.531250
vt 0.773438 0.531250
vt 0.773438 0.546875
vt 0.750000 0.546875
vt 0.468750 0.234375
vt 0.492188 0.234375
vt 0.492188 0.250000
vt 0.468750 0.250000
vt 0.265625 0.226562
vt 0.265625 0.250000
vt 0.578125 0.976562
vt 0.625000 0.976562
vt 0.625000 1.000000
vt 0.750000 0.507812
vt 0.765625 0.507812
vt 0.765625 0.531250
vt 0.578125 0.945312
vt 0.625000 0.945312
vt 0.625000 0.968750
vt 0.218750 0.312500
vt 0.234375 0.359375
vt 0.218750 0.359375
vt 0.640625 0.625000
vt 0.656250 0.625000
vt 0.656250 0.671875
vt 0.703125 0.726562
vt 0.726562 0.726562
vt 0.726562 0.750000
vt 0.703125 0.750000
vt 0.578125 0.914062
vt 0.625000 0.914062
vt 0.625000 0.937500
vt 0.265625 0.273438
vt 0.289062 0.273438
vt 0.289062 0.296875
vt 0.265625 0.296875
vt 0.578125 0.882812
vt 0.625000 0.882812
vt 0.625000 0.906250
vt 0.578125 0.828125
vt 0.601562 0.828125
vt 0.601562 0.875000
vt 0.601562 0.781250
vt 0.703125 0.695312
vt 0.726562 0.695312
vt 0.726562 0.718750
vt 0.703125 0.718750
vt 0.578125 0.757812
vt 0.625000 0.757812
vt 0.625000 0.781250
vt 0.328125 0.273438
vt 0.351562 0.273438
vt 0.351562 0.296875
vt 0.328125 0.296875
vt 0.375000 0.398438
vt 0.421875 0.398438
vt 0.421875 0.421875
vt 0.375000 0.421875
vt 0.000000 0.359375
vt 0.023438 0.359375
vt 0.023438 0.406250
vt 0.000000 0.406250
vt 0.054688 0.359375
vt 0.054688 0.406250
vt 0.031250 0.406250
vt 0.703125 0.632812
vt 0.726562 0.632812
vt 0.726562 0.656250
vt 0.359375 0.335938
vt 0.390625 0.335938
vt 0.390625 0.359375
vt 0.359375 0.359375
vt 0.359375 0.273438
vt 0.382812 0.273438
vt 0.382812 0.296875
vt 0.359375 0.296875
vt 0.640625 0.601562
vt 0.671875 0.601562
vt 0.671875 0.625000
vt 0.390625 0.328125
vt 0.414062 0.328125
vt 0.414062 0.359375
vt 0.640625 0.562500
vt 0.664062 0.562500
vt 0.664062 0.593750
vt 0.640625 0.593750
vt 0.703125 0.601562
vt 0.726562 0.601562
vt 0.726562 0.625000
vt 0.703125 0.625000
vt 0.421875 0.335938
vt 0.453125 0.335938
vt 0.453125 0.359375
vt 0.421875 0.359375
vt 0.390625 0.273438
vt 0.414062 0.273438
vt 0.414062 0.296875
vt 0.390625 0.296875
vt 0.640625 0.539062
vt 0.671875 0.539062
vt 0.671875 0.562500
vt 0.515625 0.328125
vt 0.539062 0.328125
vt 0.539062 0.359375
vt 0.515625 0.359375
vt 0.640625 0.421875
vt 0.664062 0.421875
vt 0.664062 0.453125
vt 0.640625 0.453125
vt 0.703125 0.570312
vt 0.726562 0.570312
vt 0.726562 0.593750
vt 0.703125 0.593750
vt 0.500000 0.226562
vt 0.515625 0.226562
vt 0.515625 0.250000
vt 0.500000 0.250000
vt 0.421875 0.273438
vt 0.445312 0.273438
vt 0.445312 0.296875
vt 0.421875 0.296875
vt 0.531250 0.226562
vt 0.531250 0.250000
vt 0.750000 0.484375
vt 0.773438 0.484375
vt 0.773438 0.500000
vt 0.750000 0.500000
vt 0.546875 0.234375
vt 0.570312 0.234375
vt 0.570312 0.250000
vt 0.546875 0.250000
vt 0.484375 0.273438
vt 0.507812 0.273438
vt 0.507812 0.296875
vt 0.484375 0.296875
vt 0.640625 0.367188
vt 0.671875 0.367188
vt 0.671875 0.390625
vt 0.640625 0.390625
vt 0.515625 0.273438
vt 0.539062 0.273438
vt 0.539062 0.296875
vt 0.515625 0.296875
vt 0.640625 0.335938
vt 0.671875 0.335938
vt 0.671875 0.359375
vt 0.640625 0.359375
vt 0.656250 0.968750
vt 0.679688 0.968750
vt 0.679688 1.000000
vt 0.656250 1.000000
vt 0.656250 0.937500
vt 0.679688 0.937500
vt 0.703125 0.460938
vt 0.726562 0.460938
vt 0.726562 0.484375
vt 0.750000 0.414062
vt 0.765625 0.414062
vt 0.765625 0.437500
vt 0.750000 0.437500
vt 0.703125 0.382812
vt 0.726562 0.382812
vt 0.726562 0.406250
vt 0.578125 0.226562
vt 0.593750 0.226562
vt 0.593750 0.250000
vt 0.578125 0.250000
vt 0.593750 0.234375
vt 0.617188 0.234375
vt 0.617188 0.250000
vt 0.625000 0.234375
vt 0.648438 0.234375
vt 0.648438 0.250000
vt 0.625000 0.250000
vt 0.656250 0.226562
vt 0.671875 0.226562
vt 0.671875 0.250000
vt 0.656250 0.250000
vt 0.062500 0.382812
vt 0.109375 0.382812
vt 0.109375 0.406250
vt 0.062500 0.406250
vt 0.687500 0.226562
vt 0.687500 0.250000
vt 0.156250 0.382812
vt 0.156250 0.406250
vt 0.078125 0.343750
vt 0.062500 0.343750
vt 0.656250 0.890625
vt 0.671875 0.890625
vt 0.671875 0.937500
vt 0.718750 0.234375
vt 0.742188 0.234375
vt 0.742188 0.250000
vt 0.718750 0.250000
vt 0.765625 0.546875
vt 0.781250 0.546875
vt 0.781250 0.562500
vt 0.765625 0.562500
vt 0.750000 0.250000
vt 0.773438 0.250000
vt 0.773438 0.265625
vt 0.750000 0.265625
vt 0.468750 0.218750
vt 0.484375 0.218750
vt 0.484375 0.234375
vt 0.750000 0.234375
vt 0.773438 0.234375
vt 0.765625 0.984375
vt 0.789062 0.984375
vt 0.789062 1.000000
vt 0.015625 0.218750
vt 0.039062 0.218750
vt 0.765625 0.515625
vt 0.781250 0.515625
vt 0.781250 0.531250
vt 0.765625 0.968750
vt 0.789062 0.968750
vt 0.500000 0.218750
vt 0.500000 0.234375
vt 0.046875 0.218750
vt 0.070312 0.218750
vt 0.765625 0.921875
vt 0.789062 0.921875
vt 0.789062 0.937500
vt 0.765625 0.937500
vt 0.078125 0.218750
vt 0.101562 0.218750
vt 0.765625 0.906250
vt 0.789062 0.906250
vt 0.765625 0.890625
vt 0.789062 0.890625
vt 0.109375 0.218750
vt 0.132812 0.218750
vt 0.703125 0.351562
vt 0.726562 0.351562
vt 0.726562 0.375000
vt 0.703125 0.375000
vt 0.640625 0.273438
vt 0.664062 0.273438
vt 0.664062 0.296875
vt 0.640625 0.296875
vt 0.703125 0.320312
vt 0.726562 0.320312
vt 0.726562 0.343750
vt 0.703125 0.343750
vt 0.609375 0.804688
vt 0.648438 0.804688
vt 0.648438 0.828125
vt 0.609375 0.828125
vt 0.671875 0.273438
vt 0.695312 0.273438
vt 0.695312 0.296875
vt 0.671875 0.296875
vt 0.187500 0.367188
vt 0.226562 0.367188
vt 0.226562 0.390625
vt 0.187500 0.390625
vt 0.296875 0.351562
vt 0.320312 0.351562
vt 0.320312 0.390625
vt 0.296875 0.390625
vt 0.609375 0.648438
vt 0.632812 0.648438
vt 0.632812 0.687500
vt 0.609375 0.687500
vt 0.140625 0.218750
vt 0.164062 0.218750
vt 0.164062 0.234375
vt 0.140625 0.234375
vt 0.765625 0.843750
vt 0.789062 0.843750
vt 0.789062 0.859375
vt 0.765625 0.859375
vt 0.171875 0.218750
vt 0.195312 0.218750
vt 0.203125 0.218750
vt 0.226562 0.218750
vt 0.226562 0.234375
vt 0.203125 0.234375
vt 0.703125 0.289062
vt 0.726562 0.289062
vt 0.726562 0.312500
vt 0.703125 0.312500
vt 0.718750 0.976562
vt 0.742188 0.976562
vt 0.742188 1.000000
vt 0.718750 1.000000
vt 0.789062 0.765625
vt 0.789062 0.781250
vt 0.765625 0.781250
vt 0.765625 0.500000
vt 0.781250 0.500000
vt 0.765625 0.750000
vt 0.789062 0.750000
vt 0.765625 0.468750
vt 0.781250 0.468750
vt 0.781250 0.484375
vt 0.765625 0.484375
vt 0.765625 0.734375
vt 0.789062 0.734375
vt 0.265625 0.218750
vt 0.289062 0.218750
vt 0.289062 0.234375
vt 0.265625 0.234375
vt 0.765625 0.718750
vt 0.789062 0.718750
vt 0.531250 0.218750
vt 0.546875 0.218750
vt 0.531250 0.234375
vt 0.765625 0.703125
vt 0.789062 0.703125
vt 0.765625 0.453125
vt 0.781250 0.453125
vt 0.296875 0.218750
vt 0.320312 0.218750
vt 0.320312 0.234375
vt 0.296875 0.234375
vt 0.765625 0.687500
vt 0.789062 0.687500
vt 0.328125 0.218750
vt 0.351562 0.218750
vt 0.351562 0.234375
vt 0.328125 0.234375
vt 0.562500 0.218750
vt 0.562500 0.234375
vt 0.765625 0.640625
vt 0.789062 0.640625
vt 0.789062 0.656250
vt 0.765625 0.656250
vt 0.781250 0.437500
vt 0.359375 0.218750
vt 0.382812 0.218750
vt 0.382812 0.234375
vt 0.359375 0.234375
vt 0.765625 0.625000
vt 0.789062 0.625000
vt 0.718750 0.945312
vt 0.742188 0.945312
vt 0.742188 0.968750
vt 0.718750 0.968750
vt 0.078125 0.320312
vt 0.109375 0.320312
vt 0.109375 0.343750
vt 0.062500 0.257812
vt 0.085938 0.257812
vt 0.085938 0.281250
vt 0.140625 0.320312
vt 0.140625 0.343750
vt 0.656250 0.812500
vt 0.679688 0.812500
vt 0.679688 0.843750
vt 0.656250 0.843750
vt 0.656250 0.781250
vt 0.679688 0.781250
vt 0.765625 0.609375
vt 0.789062 0.609375
vt 0.578125 0.218750
vt 0.578125 0.234375
vt 0.390625 0.218750
vt 0.414062 0.218750
vt 0.414062 0.234375
vt 0.390625 0.234375
vt 0.765625 0.421875
vt 0.781250 0.421875
vt 0.765625 0.593750
vt 0.789062 0.593750
vt 0.765625 0.578125
vt 0.789062 0.578125
vt 0.093750 0.257812
vt 0.117188 0.257812
vt 0.117188 0.281250
vt 0.093750 0.281250
vt 0.703125 0.226562
vt 0.703125 0.250000
vt 0.718750 0.820312
vt 0.742188 0.820312
vt 0.742188 0.843750
vt 0.718750 0.843750
vt 0.421875 0.210938
vt 0.437500 0.210938
vt 0.421875 0.234375
vt 0.789062 0.562500
vt 0.437500 0.218750
vt 0.460938 0.218750
s 1
usemtl pile_raw_guts_meat
f 4/1/1 7/2/1 5/3/1 2/4/1
f 3/5/2 4/6/2 2/7/2 1/8/2
f 8/9/3 3/10/3 1/11/3 6/12/3
f 7/13/4 8/14/4 6/15/4 5/16/4
f 6/17/5 1/18/5 2/19/5 5/20/5
f 7/21/6 4/22/6 3/23/6 8/24/6
s 0
f 12/25/7 15/26/7 13/26/7 10/25/7
f 11/25/8 12/26/8 10/26/8 9/25/8
f 16/25/9 11/26/9 9/26/9 14/25/9
f 15/25/8 16/26/8 14/26/8 13/25/8
s 1
f 14/27/5 9/28/5 10/26/5 13/25/5
f 20/29/7 23/30/7 21/31/7 18/32/7
f 19/33/10 20/34/10 18/35/10 17/36/10
f 24/37/9 19/38/9 17/30/9 22/29/9
f 23/39/11 24/40/11 22/34/11 21/33/11
f 22/41/5 17/42/5 18/43/5 21/44/5
f 23/28/6 20/45/6 19/46/6 24/47/6
f 28/48/12 31/49/12 29/38/12 26/37/12
f 27/50/13 28/51/13 26/52/13 25/53/13
f 31/51/14 32/54/14 30/55/14 29/52/14
f 30/56/15 25/57/15 26/58/15 29/59/15
f 31/57/16 28/60/16 27/61/16 32/58/16
f 36/62/17 39/63/17 37/64/17 34/65/17
f 35/66/18 36/17/18 34/67/18 33/68/18
f 40/63/19 35/69/19 33/70/19 38/64/19
f 39/71/20 40/72/20 38/73/20 37/56/20
f 38/46/21 33/74/21 34/75/21 37/76/21
f 39/45/22 36/48/22 35/74/22 40/46/22
f 44/77/23 47/78/23 45/79/23 42/75/23
f 43/69/24 44/80/24 42/81/24 41/70/24
f 48/82/25 43/83/25 41/78/25 46/77/25
f 47/80/26 48/84/26 46/85/26 45/81/26
f 46/59/5 41/58/5 42/41/5 45/86/5
f 47/58/6 44/61/6 43/42/6 48/41/6
f 52/87/23 55/88/23 53/83/23 50/82/23
f 51/89/24 52/90/24 50/91/24 49/92/24
f 55/90/26 56/50/26 54/53/26 53/91/26
f 54/61/5 49/93/5 50/94/5 53/42/5
f 55/93/6 52/95/6 51/39/6 56/94/6
f 59/96/10 60/97/10 58/98/10 57/99/10
f 64/32/9 59/31/9 57/100/9 62/74/9
f 63/36/11 64/35/11 62/97/11 61/96/11
f 62/86/5 57/41/5 58/44/5 61/27/5
f 63/47/6 60/46/6 59/76/6 64/26/6
f 68/92/12 71/101/12 69/102/12 66/71/12
f 67/54/13 68/103/13 66/104/13 65/55/13
f 70/60/15 65/105/15 66/93/15 69/61/15
f 71/105/16 68/66/16 67/95/16 72/93/16
f 75/106/18 76/107/18 74/40/18 73/39/18
f 80/108/19 75/109/19 73/17/19 78/110/19
f 78/42/21 73/94/21 74/111/21 77/43/21
f 79/94/22 76/39/22 75/99/22 80/111/22
f 84/1/27 87/2/27 85/3/27 82/4/27
f 83/5/28 84/6/28 82/7/28 81/8/28
f 88/9/29 83/10/29 81/11/29 86/12/29
f 87/13/30 88/14/30 86/15/30 85/16/30
f 86/17/5 81/18/5 82/19/5 85/20/5
f 87/21/6 84/22/6 83/23/6 88/24/6
f 92/112/31 95/113/31 93/114/31 90/115/31
f 91/116/32 92/117/32 90/118/32 89/119/32
f 96/120/33 91/121/33 89/122/33 94/123/33
f 95/124/34 96/125/34 94/126/34 93/17/34
f 94/127/5 89/128/5 90/129/5 93/109/5
f 95/130/6 92/131/6 91/128/6 96/127/6
f 100/132/35 103/133/35 101/134/35 98/135/35
f 99/136/36 100/137/36 98/138/36 97/139/36
f 104/140/37 99/141/37 97/142/37 102/143/37
f 103/144/38 104/145/38 102/146/38 101/147/38
f 102/148/5 97/149/5 98/150/5 101/151/5
f 103/152/6 100/153/6 99/154/6 104/155/6
f 108/156/39 111/157/39 109/158/39 106/159/39
f 107/160/40 108/161/40 106/162/40 105/163/40
f 112/164/41 107/165/41 105/166/41 110/167/41
f 111/168/42 112/169/42 110/170/42 109/171/42
f 110/172/5 105/173/5 106/174/5 109/175/5
f 111/176/6 108/177/6 107/178/6 112/179/6
f 116/180/43 119/181/43 117/182/43 114/183/43
f 115/184/44 116/185/44 114/186/44 113/187/44
f 120/188/45 115/189/45 113/190/45 118/191/45
f 119/192/46 120/193/46 118/194/46 117/195/46
f 118/196/5 113/197/5 114/198/5 117/199/5
f 119/200/6 116/201/6 115/202/6 120/186/6
f 124/203/47 127/204/47 125/205/47 122/206/47
f 123/207/44 124/208/44 122/135/44 121/209/44
f 128/210/48 123/211/48 121/212/48 126/213/48
f 127/214/46 128/215/46 126/167/46 125/216/46
f 126/217/49 121/218/49 122/204/49 125/203/49
f 127/219/50 124/220/50 123/221/50 128/222/50
f 132/223/51 135/224/51 133/225/51 130/226/51
f 131/227/52 132/228/52 130/229/52 129/230/52
f 136/231/53 131/232/53 129/228/53 134/227/53
f 135/233/54 136/234/54 134/235/54 133/236/54
f 134/237/49 129/238/49 130/239/49 133/240/49
f 135/241/50 132/242/50 131/243/50 136/244/50
f 140/245/55 143/246/55 141/247/55 138/248/55
f 139/249/56 140/250/56 138/131/56 137/251/56
f 144/252/57 139/253/57 137/254/57 142/255/57
f 143/256/58 144/257/58 142/258/58 141/259/58
f 142/260/49 137/261/49 138/262/49 141/263/49
f 143/264/50 140/265/50 139/266/50 144/267/50
f 148/268/59 151/269/59 149/270/59 146/271/59
f 147/272/56 148/273/56 146/234/56 145/233/56
f 152/274/60 147/275/60 145/273/60 150/272/60
f 151/276/58 152/277/58 150/275/58 149/274/58
f 150/278/61 145/279/61 146/280/61 149/281/61
f 151/282/62 148/283/62 147/284/62 152/285/62
f 156/286/63 159/287/63 157/288/63 154/289/63
f 155/290/64 156/291/64 154/292/64 153/293/64
f 160/294/65 155/295/65 153/296/65 158/297/65
f 159/298/66 160/299/66 158/300/66 157/301/66
f 158/302/67 153/303/67 154/304/67 157/305/67
f 159/306/68 156/307/68 155/308/68 160/309/68
f 164/310/69 167/311/69 165/312/69 162/313/69
f 163/314/64 164/315/64 162/316/64 161/317/64
f 168/318/70 163/319/70 161/311/70 166/310/70
f 167/320/66 168/321/66 166/322/66 165/323/66
f 166/324/61 161/325/61 162/326/61 165/327/61
f 167/328/62 164/329/62 163/330/62 168/331/62
f 172/332/71 175/333/71 173/334/71 170/335/71
f 171/336/64 172/337/64 170/338/64 169/339/64
f 176/340/72 171/341/72 169/342/72 174/343/72
f 175/344/66 176/345/66 174/346/66 173/347/66
f 174/348/73 169/349/73 170/350/73 173/351/73
f 175/352/74 172/353/74 171/354/74 176/355/74
f 180/291/75 183/356/75 181/357/75 178/292/75
f 179/358/76 180/359/76 178/360/76 177/79/76
f 184/361/77 179/362/77 177/363/77 182/348/77
f 183/364/78 184/365/78 182/366/78 181/78/78
f 182/367/67 177/4/67 178/368/67 181/369/67
f 183/370/68 180/371/68 179/372/68 184/172/68
f 188/373/79 191/374/79 189/375/79 186/376/79
f 187/377/80 188/378/80 186/379/80 185/83/80
f 192/380/81 187/381/81 185/382/81 190/383/81
f 191/384/82 192/385/82 190/386/82 189/88/82
f 190/387/5 185/388/5 186/389/5 189/100/5
f 191/38/6 188/390/6 187/388/6 192/387/6
f 196/391/83 199/392/83 197/393/83 194/394/83
f 195/395/84 196/396/84 194/397/84 193/38/84
f 200/398/85 195/399/85 193/400/85 198/401/85
f 199/402/86 200/403/86 198/404/86 197/405/86
f 198/406/5 193/407/5 194/408/5 197/409/5
f 199/139/6 196/410/6 195/411/6 200/412/6
f 204/413/29 207/414/29 205/415/29 202/316/29
f 203/416/30 204/417/30 202/418/30 201/419/30
f 208/420/27 203/421/27 201/422/27 206/423/27
f 207/424/28 208/425/28 206/426/28 205/370/28
f 206/427/5 201/428/5 202/429/5 205/418/5
f 207/430/6 204/431/6 203/432/6 208/433/6
f 212/434/87 215/435/87 213/436/87 210/437/87
f 211/438/88 212/439/88 210/440/88 209/441/88
f 216/442/89 211/443/89 209/444/89 214/445/89
f 215/446/90 216/447/90 214/448/90 213/430/90
f 214/449/5 209/450/5 210/451/5 213/452/5
f 215/453/6 212/454/6 211/455/6 216/456/6
f 220/457/91 223/458/91 221/459/91 218/460/91
f 219/461/92 220/462/92 218/463/92 217/464/92
f 224/465/93 219/466/93 217/467/93 222/468/93
f 223/462/94 224/469/94 222/470/94 221/463/94
f 222/471/5 217/472/5 218/473/5 221/474/5
f 223/475/6 220/476/6 219/477/6 224/478/6
f 228/479/95 231/480/95 229/481/95 226/482/95
f 227/483/96 228/484/96 226/485/96 225/486/96
f 232/487/97 227/488/97 225/489/97 230/490/97
f 231/491/98 232/492/98 230/493/98 229/494/98
f 230/495/5 225/496/5 226/497/5 229/498/5
f 231/499/6 228/500/6 227/496/6 232/495/6
f 236/501/99 239/502/99 237/503/99 234/322/99
f 235/504/100 236/505/100 234/506/100 233/507/100
f 240/508/101 235/509/101 233/510/101 238/338/101
f 239/511/102 240/512/102 238/513/102 237/514/102
f 238/515/103 233/516/103 234/517/103 237/513/103
f 239/518/104 236/519/104 235/520/104 240/521/104
f 244/522/105 247/523/105 245/524/105 242/525/105
f 243/526/106 244/527/106 242/528/106 241/529/106
f 248/523/107 243/530/107 241/531/107 246/524/107
f 247/527/108 248/532/108 246/533/108 245/528/108
f 246/347/103 241/346/103 242/534/103 245/535/103
f 247/536/104 244/537/104 243/538/104 248/499/104
f 252/539/109 255/540/109 253/541/109 250/542/109
f 251/543/100 252/544/100 250/545/100 249/546/100
f 256/547/110 251/548/110 249/549/110 254/550/110
f 255/551/102 256/552/102 254/553/102 253/352/102
f 254/554/111 249/555/111 250/548/111 253/547/111
f 255/556/112 252/557/112 251/558/112 256/194/112
f 260/559/113 263/560/113 261/201/113 258/200/113
f 259/561/100 260/562/100 258/563/100 257/363/100
f 264/564/114 259/565/114 257/557/114 262/556/114
f 263/552/102 264/566/102 262/567/102 261/553/102
f 262/568/115 257/569/115 258/211/115 261/210/115
f 263/570/116 260/571/116 259/572/116 264/573/116
f 268/574/117 271/575/117 269/220/117 266/219/117
f 267/576/118 268/577/118 266/571/118 265/570/118
f 272/578/119 267/579/119 265/577/119 270/576/119
f 271/580/120 272/581/120 270/224/120 269/223/120
f 270/582/115 265/583/115 266/584/115 269/585/115
f 271/586/116 268/587/116 267/588/116 272/589/116
f 276/590/121 279/591/121 277/592/121 274/593/121
f 275/594/118 276/595/118 274/596/118 273/597/118
f 280/598/122 275/599/122 273/600/122 278/601/122
f 279/602/120 280/603/120 278/604/120 277/605/120
f 278/606/123 273/607/123 274/608/123 277/609/123
f 279/610/124 276/611/124 275/612/124 280/613/124
f 284/614/125 287/615/125 285/616/125 282/617/125
f 283/618/126 284/619/126 282/620/126 281/621/126
f 288/622/127 283/623/127 281/269/127 286/268/127
f 287/624/128 288/625/128 286/626/128 285/627/128
f 286/628/123 281/629/123 282/630/123 285/631/123
f 287/632/124 284/633/124 283/634/124 288/635/124
f 292/300/129 295/636/129 293/637/129 290/638/129
f 291/639/3 292/640/3 290/562/3 289/561/3
f 296/641/130 291/642/130 289/636/130 294/300/130
f 295/643/1 296/644/1 294/645/1 293/646/1
f 294/647/123 289/648/123 290/642/123 293/641/123
f 295/649/124 292/650/124 291/651/124 296/652/124
f 300/653/131 303/654/131 301/648/131 298/647/131
f 299/655/132 300/656/132 298/475/132 297/657/132
f 304/658/133 299/659/133 297/654/133 302/653/133
f 303/660/134 304/661/134 302/644/134 301/643/134
f 302/662/5 297/663/5 298/664/5 301/665/5
f 303/666/6 300/667/6 299/659/6 304/658/6
f 308/668/2 311/669/2 309/670/2 306/671/2
f 307/656/3 308/672/3 306/673/3 305/475/3
f 312/674/4 307/675/4 305/676/4 310/677/4
f 311/506/1 312/678/1 310/661/1 309/660/1
f 310/679/5 305/680/5 306/681/5 309/682/5
f 311/683/6 308/684/6 307/675/6 312/674/6
f 316/685/135 319/686/135 317/687/135 314/688/135
f 315/689/136 316/690/136 314/691/136 313/534/136
f 320/692/137 315/693/137 313/694/137 318/344/137
f 319/690/138 320/695/138 318/696/138 317/691/138
f 318/697/5 313/698/5 314/699/5 317/700/5
f 319/701/6 316/702/6 315/698/6 320/697/6
f 324/703/139 327/704/139 325/684/139 322/683/139
f 323/672/140 324/705/140 322/706/140 321/673/140
f 328/707/141 323/708/141 321/709/141 326/710/141
f 327/711/142 328/712/142 326/678/142 325/506/142
f 326/713/5 321/714/5 322/704/5 325/703/5
f 327/715/6 324/716/6 323/714/6 328/713/6
f 332/717/132 335/718/132 333/719/132 330/720/132
f 331/530/133 332/721/133 330/722/133 329/531/133
f 336/723/134 331/724/134 329/725/134 334/726/134
f 335/727/131 336/728/131 334/340/131 333/729/131
f 334/546/5 329/730/5 330/716/5 333/715/5
f 335/731/6 332/732/6 331/341/6 336/340/6
f 340/717/143 343/718/143 341/719/143 338/720/143
f 339/530/144 340/721/144 338/722/144 337/531/144
f 344/723/145 339/724/145 337/725/145 342/726/145
f 343/727/146 344/728/146 342/340/146 341/729/146
f 342/546/5 337/730/5 338/716/5 341/715/5
f 343/731/6 340/732/6 339/341/6 344/340/6
f 348/703/147 351/704/147 349/684/147 346/683/147
f 347/672/148 348/705/148 346/706/148 345/673/148
f 352/707/149 347/708/149 345/709/149 350/710/149
f 351/711/150 352/712/150 350/678/150 349/506/150
f 350/713/5 345/714/5 346/704/5 349/703/5
f 351/715/6 348/716/6 347/714/6 352/713/6
f 356/685/151 359/686/151 357/687/151 354/688/151
f 355/689/152 356/690/152 354/691/152 353/534/152
f 360/692/153 355/693/153 353/694/153 358/344/153
f 359/690/154 360/695/154 358/696/154 357/691/154
f 358/697/5 353/698/5 354/699/5 357/700/5
f 359/701/6 356/702/6 355/698/6 360/697/6
f 364/668/155 367/669/155 365/670/155 362/671/155
f 363/656/156 364/672/156 362/673/156 361/475/156
f 368/674/157 363/675/157 361/676/157 366/677/157
f 367/506/158 368/678/158 366/661/158 365/660/158
f 366/679/5 361/680/5 362/681/5 365/682/5
f 367/683/6 364/684/6 363/675/6 368/674/6
f 372/653/146 375/654/146 373/648/146 370/647/146
f 371/655/143 372/656/143 370/475/143 369/657/143
f 376/658/144 371/659/144 369/654/144 374/653/144
f 375/660/145 376/661/145 374/644/145 373/643/145
f 374/662/5 369/663/5 370/664/5 373/665/5
f 375/666/6 372/667/6 371/659/6 376/658/6
f 380/300/159 383/636/159 381/637/159 378/638/159
f 379/639/156 380/640/156 378/562/156 377/561/156
f 384/641/160 379/642/160 377/636/160 382/300/160
f 383/643/158 384/644/158 382/645/158 381/646/158
f 382/647/161 377/648/161 378/642/161 381/641/161
f 383/649/162 380/650/162 379/651/162 384/652/162
f 388/614/163 391/615/163 389/616/163 386/617/163
f 387/618/164 388/619/164 386/620/164 385/621/164
f 392/622/165 387/623/165 385/269/165 390/268/165
f 391/624/166 392/625/166 390/626/166 389/627/166
f 390/628/161 385/629/161 386/630/161 389/631/161
f 391/632/162 388/633/162 387/634/162 392/635/162
f 396/590/167 399/591/167 397/592/167 394/593/167
f 395/594/168 396/595/168 394/596/168 393/597/168
f 400/598/169 395/599/169 393/600/169 398/601/169
f 399/602/170 400/603/170 398/604/170 397/605/170
f 398/606/161 393/607/161 394/608/161 397/609/161
f 399/610/162 396/611/162 395/612/162 400/613/162
f 404/574/171 407/575/171 405/220/171 402/219/171
f 403/576/168 404/577/168 402/571/168 401/570/168
f 408/578/172 403/579/172 401/577/172 406/576/172
f 407/580/170 408/581/170 406/224/170 405/223/170
f 406/582/173 401/583/173 402/584/173 405/585/173
f 407/586/174 404/587/174 403/588/174 408/589/174
f 412/559/175 415/560/175 413/201/175 410/200/175
f 411/561/176 412/562/176 410/563/176 409/363/176
f 416/564/177 411/565/177 409/557/177 414/556/177
f 415/552/178 416/566/178 414/567/178 413/553/178
f 414/568/173 409/569/173 410/211/173 413/210/173
f 415/570/174 412/571/174 411/572/174 416/573/174
f 420/539/179 423/540/179 421/541/179 418/542/179
f 419/543/176 420/544/176 418/545/176 417/546/176
f 424/547/180 419/548/180 417/549/180 422/550/180
f 423/551/178 424/552/178 422/553/178 421/352/178
f 422/554/181 417/555/181 418/548/181 421/547/181
f 423/556/182 420/557/182 419/558/182 424/194/182
f 428/522/183 431/523/183 429/524/183 426/525/183
f 427/526/184 428/527/184 426/528/184 425/529/184
f 432/523/185 427/530/185 425/531/185 430/524/185
f 431/527/186 432/532/186 430/533/186 429/528/186
f 430/347/187 425/346/187 426/534/187 429/535/187
f 431/536/188 428/537/188 427/538/188 432/499/188
f 436/501/189 439/502/189 437/503/189 434/322/189
f 435/504/176 436/505/176 434/506/176 433/507/176
f 440/508/190 435/509/190 433/510/190 438/338/190
f 439/511/178 440/512/178 438/513/178 437/514/178
f 438/515/187 433/516/187 434/517/187 437/513/187
f 439/518/188 436/519/188 435/520/188 440/521/188
f 444/479/191 447/480/191 445/481/191 442/482/191
f 443/483/192 444/484/192 442/485/192 441/486/192
f 448/487/193 443/488/193 441/489/193 446/490/193
f 447/491/194 448/492/194 446/493/194 445/494/194
f 446/495/5 441/496/5 442/497/5 445/498/5
f 447/499/6 444/500/6 443/496/6 448/495/6
f 452/457/195 455/458/195 453/459/195 450/460/195
f 451/461/196 452/462/196 450/463/196 449/464/196
f 456/465/197 451/466/197 449/467/197 454/468/197
f 455/462/198 456/469/198 454/470/198 453/463/198
f 454/471/5 449/472/5 450/473/5 453/474/5
f 455/475/6 452/476/6 451/477/6 456/478/6
f 460/434/199 463/435/199 461/436/199 458/437/199
f 459/438/200 460/439/200 458/440/200 457/441/200
f 464/442/201 459/443/201 457/444/201 462/445/201
f 463/446/202 464/447/202 462/448/202 461/430/202
f 462/449/5 457/450/5 458/451/5 461/452/5
f 463/453/6 460/454/6 459/455/6 464/456/6
f 468/413/3 471/414/3 469/415/3 466/316/3
f 467/416/4 468/417/4 466/418/4 465/419/4
f 472/420/1 467/421/1 465/422/1 470/423/1
f 471/424/2 472/425/2 470/426/2 469/370/2
f 470/427/5 465/428/5 466/429/5 469/418/5
f 471/430/6 468/431/6 467/432/6 472/433/6
f 476/391/203 479/392/203 477/393/203 474/394/203
f 475/395/204 476/396/204 474/397/204 473/38/204
f 480/398/205 475/399/205 473/400/205 478/401/205
f 479/402/206 480/403/206 478/404/206 477/405/206
f 478/406/5 473/407/5 474/408/5 477/409/5
f 479/139/6 476/410/6 475/411/6 480/412/6
f 484/373/207 487/374/207 485/375/207 482/376/207
f 483/377/208 484/378/208 482/379/208 481/83/208
f 488/380/209 483/381/209 481/382/209 486/383/209
f 487/384/210 488/385/210 486/386/210 485/88/210
f 486/387/5 481/388/5 482/389/5 485/100/5
f 487/38/6 484/390/6 483/388/6 488/387/6
f 492/291/211 495/356/211 493/357/211 490/292/211
f 491/358/212 492/359/212 490/360/212 489/79/212
f 496/361/213 491/362/213 489/363/213 494/348/213
f 495/364/214 496/365/214 494/366/214 493/78/214
f 494/367/215 489/4/215 490/368/215 493/369/215
f 495/370/216 492/371/216 491/372/216 496/172/216
f 500/332/217 503/333/217 501/334/217 498/335/217
f 499/336/218 500/337/218 498/338/218 497/339/218
f 504/340/219 499/341/219 497/342/219 502/343/219
f 503/344/220 504/345/220 502/346/220 501/347/220
f 502/348/221 497/349/221 498/350/221 501/351/221
f 503/352/222 500/353/222 499/354/222 504/355/222
f 508/310/223 511/311/223 509/312/223 506/313/223
f 507/314/218 508/315/218 506/316/218 505/317/218
f 512/318/224 507/319/224 505/311/224 510/310/224
f 511/320/220 512/321/220 510/322/220 509/323/220
f 510/324/225 505/325/225 506/326/225 509/327/225
f 511/328/226 508/329/226 507/330/226 512/331/226
f 516/286/227 519/287/227 517/288/227 514/289/227
f 515/290/218 516/291/218 514/292/218 513/293/218
f 520/294/228 515/295/228 513/296/228 518/297/228
f 519/298/220 520/299/220 518/300/220 517/301/220
f 518/302/215 513/303/215 514/304/215 517/305/215
f 519/306/216 516/307/216 515/308/216 520/309/216
f 524/268/229 527/269/229 525/270/229 522/271/229
f 523/272/230 524/273/230 522/234/230 521/233/230
f 528/274/231 523/275/231 521/273/231 526/272/231
f 527/276/232 528/277/232 526/275/232 525/274/232
f 526/278/225 521/279/225 522/280/225 525/281/225
f 527/282/226 524/283/226 523/284/226 528/285/226
f 532/245/233 535/246/233 533/247/233 530/248/233
f 531/249/230 532/250/230 530/131/230 529/251/230
f 536/252/234 531/253/234 529/254/234 534/255/234
f 535/256/232 536/257/232 534/258/232 533/259/232
f 534/260/235 529/261/235 530/262/235 533/263/235
f 535/264/236 532/265/236 531/266/236 536/267/236
f 540/223/237 543/224/237 541/225/237 538/226/237
f 539/227/238 540/228/238 538/229/238 537/230/238
f 544/231/239 539/232/239 537/228/239 542/227/239
f 543/233/240 544/234/240 542/235/240 541/236/240
f 542/237/235 537/238/235 538/239/235 541/240/235
f 543/241/236 540/242/236 539/243/236 544/244/236
f 548/203/241 551/204/241 549/205/241 546/206/241
f 547/207/80 548/208/80 546/135/80 545/209/80
f 552/210/242 547/211/242 545/212/242 550/213/242
f 551/214/82 552/215/82 550/167/82 549/216/82
f 550/217/235 545/218/235 546/204/235 549/203/235
f 551/219/236 548/220/236 547/221/236 552/222/236
f 556/180/79 559/181/79 557/182/79 554/183/79
f 555/184/80 556/185/80 554/186/80 553/187/80
f 560/188/81 555/189/81 553/190/81 558/191/81
f 559/192/82 560/193/82 558/194/82 557/195/82
f 558/196/5 553/197/5 554/198/5 557/199/5
f 559/200/6 556/201/6 555/202/6 560/186/6
f 564/156/243 567/157/243 565/158/243 562/159/243
f 563/160/244 564/161/244 562/162/244 561/163/244
f 568/164/245 563/165/245 561/166/245 566/167/245
f 567/168/246 568/169/246 566/170/246 565/171/246
f 566/172/5 561/173/5 562/174/5 565/175/5
f 567/176/6 564/177/6 563/178/6 568/179/6
f 572/132/44 575/133/44 573/134/44 570/135/44
f 571/136/45 572/137/45 570/138/45 569/139/45
f 576/140/46 571/141/46 569/142/46 574/143/46
f 575/144/43 576/145/43 574/146/43 573/147/43
f 574/148/5 569/149/5 570/150/5 573/151/5
f 575/152/6 572/153/6 571/154/6 576/155/6
f 580/112/247 583/113/247 581/114/247 578/115/247
f 579/116/248 580/117/248 578/118/248 577/119/248
f 584/120/249 579/121/249 577/122/249 582/123/249
f 583/124/250 584/125/250 582/126/250 581/17/250
f 582/127/5 577/128/5 578/129/5 581/109/5
f 583/130/6 580/131/6 579/128/6 584/127/6
