# Blender 4.5.14 LTS
# www.blender.org
mtllib fire_axe.mtl
o Axe_blade
v 0.065353 0.434648 0.018832
v 0.065353 0.541112 0.018832
v -0.017606 0.434648 0.028354
v 0.022343 0.434648 0.028713
v 0.022343 0.541112 0.028713
v -0.017605 0.541112 0.028351
v 0.065353 0.478001 0.018832
v 0.198155 0.482687 0.018832
v 0.198155 0.478001 0.018832
v 0.156474 0.512899 0.018832
v 0.131754 0.525210 0.018832
v 0.098554 0.535655 0.018832
v 0.070560 0.434648 -0.000000
v 0.070560 0.478001 -0.000000
v 0.065353 0.434648 -0.018832
v 0.065353 0.541112 -0.018832
v -0.017606 0.434648 -0.028354
v 0.022343 0.434648 -0.028713
v 0.022343 0.541112 -0.028713
v -0.017605 0.541112 -0.028351
v 0.065353 0.478001 -0.018832
v 0.198155 0.482687 -0.018832
v 0.198155 0.478001 -0.018832
v 0.156474 0.512899 -0.018832
v 0.131754 0.525210 -0.018832
v 0.098554 0.535655 -0.018832
v -0.192473 0.515807 -0.003486
v -0.192473 0.515807 0.003485
v -0.186318 0.549165 0.004360
v -0.186318 0.549165 -0.004360
v -0.195705 0.473424 -0.003028
v -0.195705 0.473424 0.003027
v -0.192473 0.431040 -0.003488
v -0.192473 0.431040 0.003488
v -0.186263 0.397382 -0.004373
v -0.186263 0.397382 0.004373
v -0.190262 0.549550 -0.000664
v -0.190262 0.549550 0.000664
v -0.190064 0.396223 0.000669
v -0.190064 0.396223 -0.000669
v -0.196388 0.430531 -0.000532
v -0.196388 0.430531 0.000532
v -0.199653 0.473424 -0.000462
v -0.199653 0.473424 0.000462
v -0.196388 0.516317 0.000532
v -0.196388 0.516317 -0.000532
v -0.137296 0.411193 0.011006
v -0.075107 0.424934 0.019848
v -0.107234 0.418559 0.015201
v -0.079741 0.541112 0.019844
v -0.141950 0.544081 0.010998
v -0.112994 0.541982 0.015196
v -0.075107 0.424934 -0.019848
v -0.137296 0.411193 -0.011006
v -0.107234 0.418559 -0.015201
v -0.141950 0.544081 -0.010998
v -0.079741 0.541112 -0.019845
v -0.112994 0.541982 -0.015196
v 0.148182 0.478001 0.018832
v 0.148182 0.478001 -0.018832
vn 0.3741 0.9274 -0.0000
vn 0.2317 0.9728 -0.0000
vn -0.0749 -0.0014 0.9972
vn 0.1082 -0.0000 0.9941
vn 0.2239 -0.0000 0.9746
vn 0.1501 -0.0000 0.9887
vn 1.0000 -0.0000 -0.0000
vn 0.0759 0.9971 -0.0000
vn -0.0000 -0.0000 1.0000
vn 0.9638 -0.0000 0.2665
vn 0.5869 0.8097 -0.0000
vn 0.5181 0.8553 -0.0000
vn -0.0000 -0.0000 -1.0000
vn -0.0000 -1.0000 -0.0000
vn 0.1082 -0.0000 -0.9941
vn -0.0749 -0.0014 -0.9972
vn 0.1501 -0.0000 -0.9887
vn 0.9638 -0.0000 -0.2665
vn -0.7149 0.0849 0.6941
vn -0.7423 0.1269 -0.6580
vn -0.7148 0.0849 -0.6941
vn -0.7444 -0.1274 -0.6555
vn -0.7163 -0.0856 0.6925
vn -0.7163 -0.0856 -0.6925
vn -0.6896 0.0001 -0.7242
vn -0.6896 0.0001 0.7242
vn -0.3930 0.0376 -0.9188
vn -0.3913 0.0512 -0.9188
vn 0.0972 0.9953 -0.0000
vn 0.1084 0.9941 -0.0000
vn -0.3930 0.0376 0.9188
vn -0.7423 0.1269 0.6580
vn -0.4171 -0.0588 0.9070
vn -0.3934 -0.0397 0.9185
vn -0.4171 -0.0588 -0.9070
vn -0.3771 -0.0010 0.9262
vn -0.3771 -0.0010 -0.9262
vn 0.2917 -0.9565 -0.0000
vn 0.2781 -0.9606 -0.0000
vn 0.2918 -0.9565 -0.0000
vn -0.1404 -0.0046 0.9901
vn -0.1403 -0.0058 0.9901
vn -0.1402 -0.0058 0.9901
vn -0.1405 -0.0037 0.9901
vn -0.1405 -0.0036 0.9901
vn -0.1405 -0.0037 -0.9901
vn -0.1402 -0.0058 -0.9901
vn -0.1405 -0.0036 -0.9901
vn -0.1403 -0.0058 -0.9901
vn -0.1404 -0.0046 -0.9901
vn 0.0119 0.9999 -0.0000
vn 0.0472 0.9989 -0.0000
vn 0.0912 0.9958 -0.0000
vn 0.1794 -0.9838 -0.0000
vn 0.2145 -0.9767 -0.0000
vn 0.2533 -0.9674 -0.0000
vn 0.0793 -0.9969 -0.0000
vn -0.0783 -0.0015 0.9969
vn -0.1404 -0.0045 0.9901
vn -0.0000 1.0000 -0.0000
vn -0.0783 -0.0015 -0.9969
vn -0.1404 -0.0045 -0.9901
vn -0.3934 -0.0397 -0.9185
vn 0.1188 -0.0000 0.9929
vn 0.1188 -0.0000 -0.9929
vn 0.2239 -0.0000 -0.9746
vn -0.7444 -0.1274 0.6555
vn -0.3913 0.0512 0.9189
vt 0.891731 0.438503
vt 0.951071 0.383667
vt 0.951071 0.438503
vt 0.645853 0.682824
vt 0.813591 0.745766
vt 0.645853 0.745766
vt 0.813591 0.815295
vt 0.745287 0.815295
vt 0.870999 0.914987
vt 0.811658 0.907604
vt 0.870999 0.907604
vt 0.891731 0.383667
vt 0.951071 0.330656
vt 0.670908 0.919912
vt 0.654451 0.867604
vt 0.535833 0.711013
vt 0.505752 0.776844
vt 0.505752 0.710266
vt 0.811658 0.996094
vt 0.811658 0.914987
vt 0.698788 0.042853
vt 0.718184 0.003906
vt 0.773167 0.016969
vt 0.851292 0.812682
vt 0.910630 0.813215
vt 0.880888 0.821152
vt 0.841470 0.216999
vt 0.673733 0.279941
vt 0.673733 0.216999
vt 0.773167 0.147470
vt 0.870999 0.828870
vt 0.878382 0.907604
vt 0.566186 0.776741
vt 0.566186 0.710163
vt 0.411653 0.903244
vt 0.409717 0.959835
vt 0.409922 0.903189
vt 0.409922 0.710422
vt 0.411653 0.765747
vt 0.409922 0.765745
vt 0.409922 0.834357
vt 0.411653 0.834358
vt 0.401776 0.902923
vt 0.401776 0.960837
vt 0.804470 0.053776
vt 0.810713 0.045861
vt 0.810713 0.059599
vt 0.419778 0.903444
vt 0.411653 0.959744
vt 0.419778 0.710899
vt 0.419778 0.765716
vt 0.401776 0.711348
vt 0.419778 0.834326
vt 0.401776 0.834384
vt 0.870976 0.022300
vt 0.864715 0.014357
vt 0.870976 0.020192
vt 0.891731 0.482012
vt 0.951071 0.482012
vt 0.828896 0.591242
vt 0.644479 0.531113
vt 0.838940 0.540098
vt 0.641171 0.485016
vt 0.850544 0.492276
vt 0.669052 0.477749
vt 0.866820 0.422667
vt 0.878424 0.470489
vt 0.672359 0.431652
vt 0.856776 0.371523
vt 0.890135 0.102056
vt 0.945342 0.049646
vt 0.952667 0.102056
vt 0.897460 0.049646
vt 0.938729 0.003906
vt 0.851690 0.590093
vt 0.907372 0.538987
vt 0.914231 0.590654
vt 0.859476 0.538557
vt 0.901201 0.490166
vt 0.926806 0.682650
vt 0.864715 0.028135
vt 0.784556 0.003906
vt 0.813591 0.682823
vt 0.645850 0.584015
vt 0.496955 0.733225
vt 0.881075 0.035402
vt 0.881075 0.070058
vt 0.876733 0.199952
vt 0.966068 0.199952
vt 0.841470 0.279942
vt 0.673730 0.378750
vt 0.401776 0.765736
vt 0.318556 0.731468
vt 0.891731 0.330656
vt 0.966639 0.262892
vt 0.876163 0.262892
vt 0.836334 0.744781
vt 0.837464 0.681848
vt 0.926806 0.745594
vt 0.566186 0.904259
vt 0.535951 0.781002
vt 0.505752 0.904358
vt 0.811658 0.828870
vt 0.804275 0.907604
vt 0.756675 0.841933
vt 0.645853 0.815295
vt 0.745287 0.945796
vt 0.690304 0.958859
vt 0.870999 0.996094
vt 0.673733 0.147470
vt 0.682331 0.095161
vt 0.841470 0.147470
vt 0.925982 0.841933
vt 0.411653 0.710346
vt 0.804470 0.051684
vt 0.419778 0.960168
vt 0.904073 0.003906
vt 0.866523 0.489854
vt 0.784556 0.038586
vt 0.496955 0.949689
vt 0.318556 0.949860
s 1
usemtl fire_axe
f 25/1/1 12/2/2 11/3/1
f 6/4/3 4/5/4 5/6/4
f 4/5/4 1/7/5 7/8/6
s 0
f 22/9/7 9/10/7 23/11/7
s 1
f 26/12/2 2/13/8 12/2/2
f 11/14/9 12/15/9 7/8/6
f 13/16/7 7/17/10 1/18/10
f 22/9/11 10/19/12 8/20/11
f 25/21/13 24/22/13 60/23/13
f 1/24/14 15/25/14 13/26/14
f 18/27/15 20/28/16 19/29/15
f 21/30/17 18/27/15 19/29/15
f 60/31/13 22/32/13 23/11/13
f 21/33/18 13/16/7 15/34/18
f 45/35/19 37/36/20 46/37/21
f 40/38/22 42/39/23 41/40/24
f 43/41/25 42/39/23 44/42/26
f 46/37/21 44/42/26 45/35/19
f 27/43/27 37/36/20 30/44/28
f 37/45/29 29/46/30 30/47/30
f 28/48/31 38/49/32 45/35/19
f 42/39/23 36/50/33 34/51/34
f 41/40/24 35/52/35 40/38/22
f 32/53/36 42/39/23 34/51/34
f 31/54/37 41/40/24 43/41/25
f 46/37/21 31/54/37 43/41/25
f 45/35/19 32/53/36 28/48/31
f 40/55/38 36/56/39 39/57/40
f 24/58/12 11/3/1 10/59/12
f 48/60/41 52/61/42 49/62/43
f 49/62/43 51/63/44 47/64/45
f 56/65/46 55/66/47 54/67/48
f 58/68/49 53/69/50 55/66/47
f 57/70/51 52/71/52 50/72/51
f 58/73/52 51/74/53 52/71/52
f 48/75/54 55/76/55 53/77/54
f 49/78/55 54/79/56 55/76/55
f 17/80/57 48/75/54 53/77/54
f 35/81/39 47/82/56 36/56/39
f 3/83/58 50/84/59 48/60/41
f 34/51/34 36/50/33 47/85/45
f 30/47/30 51/86/53 56/87/53
f 20/88/60 50/72/51 6/89/60
f 17/90/61 57/91/62 20/28/16
f 33/92/63 31/54/37 54/93/48
f 16/94/8 5/95/60 2/13/8
f 19/96/60 6/89/60 5/95/60
f 17/80/57 4/97/14 3/98/57
f 18/99/14 1/24/14 4/97/14
f 9/10/14 60/31/14 23/11/14
f 21/33/14 60/100/14 14/101/14
f 59/102/14 7/17/14 14/101/14
f 59/103/9 8/104/9 10/105/9
f 60/100/14 59/102/14 14/101/14
f 25/1/1 26/12/2 12/2/2
f 6/4/3 3/83/58 4/5/4
f 7/8/6 2/106/64 5/6/4
f 5/6/4 4/5/4 7/8/6
s 0
f 22/9/7 8/20/7 9/10/7
s 1
f 26/12/2 16/94/8 2/13/8
f 2/106/64 7/8/6 12/15/9
f 7/8/6 59/107/9 11/14/9
f 59/107/9 10/108/9 11/14/9
f 13/16/7 14/101/7 7/17/10
f 22/9/11 24/109/12 10/19/12
f 60/23/13 21/30/17 25/21/13
f 21/30/17 16/110/65 26/111/13
f 25/21/13 21/30/17 26/111/13
f 18/27/15 17/90/61 20/28/16
f 19/29/15 16/110/65 21/30/17
f 21/30/17 15/112/66 18/27/15
f 60/31/13 24/113/13 22/32/13
f 21/33/18 14/101/7 13/16/7
f 45/35/19 38/49/32 37/36/20
f 40/38/22 39/114/67 42/39/23
f 43/41/25 41/40/24 42/39/23
f 46/37/21 43/41/25 44/42/26
f 27/43/27 46/37/21 37/36/20
f 37/45/29 38/115/29 29/46/30
f 28/48/31 29/116/68 38/49/32
f 42/39/23 39/114/67 36/50/33
f 41/40/24 33/92/63 35/52/35
f 32/53/36 44/42/26 42/39/23
f 31/54/37 33/92/63 41/40/24
f 46/37/21 27/43/27 31/54/37
f 45/35/19 44/42/26 32/53/36
f 40/55/38 35/81/39 36/56/39
f 24/58/12 25/1/1 11/3/1
f 48/60/41 50/84/59 52/61/42
f 49/62/43 52/61/42 51/63/44
f 56/65/46 58/68/49 55/66/47
f 58/68/49 57/91/62 53/69/50
f 57/70/51 58/73/52 52/71/52
f 58/73/52 56/117/53 51/74/53
f 48/75/54 49/78/55 55/76/55
f 49/78/55 47/118/56 54/79/56
f 17/80/57 3/98/57 48/75/54
f 35/81/39 54/119/56 47/82/56
f 3/83/58 6/4/3 50/84/59
f 47/85/45 51/120/44 32/53/36
f 51/120/44 29/116/68 28/48/31
f 32/53/36 51/120/44 28/48/31
f 32/53/36 34/51/34 47/85/45
f 30/47/30 29/46/30 51/86/53
f 20/88/60 57/70/51 50/72/51
f 17/90/61 53/69/50 57/91/62
f 30/44/28 56/121/46 27/43/27
f 56/121/46 54/93/48 31/54/37
f 27/43/27 56/121/46 31/54/37
f 54/93/48 35/52/35 33/92/63
f 16/94/8 19/96/60 5/95/60
f 19/96/60 20/88/60 6/89/60
f 17/80/57 18/99/14 4/97/14
f 18/99/14 15/25/14 1/24/14
f 9/10/14 59/103/14 60/31/14
f 59/103/9 9/10/9 8/104/9
o Axe_grip
v -0.017995 -0.486279 0.022099
v 0.003834 -0.494714 0.022099
v 0.040861 0.367420 -0.000000
v -0.042523 0.286210 0.000000
v 0.023065 0.326815 0.000000
v -0.030168 0.097354 0.000000
v 0.015796 0.097354 0.000000
v 0.030522 -0.097031 0.000000
v 0.044021 -0.301320 0.000000
v -0.001943 -0.372785 0.000000
v -0.020898 -0.494684 0.000000
v 0.000318 -0.504876 0.000000
v 0.000409 0.286210 0.022099
v 0.001271 0.097354 0.022099
v 0.017313 -0.097031 0.022099
v 0.018957 0.367420 0.022099
v 0.034445 0.367420 0.015626
v 0.015796 0.286210 0.000000
v 0.011289 0.286210 0.015626
v 0.005422 0.326815 0.022099
v 0.017897 0.326815 0.015626
v 0.011542 0.097354 0.015626
v 0.026653 -0.097031 0.015626
v 0.030317 -0.301320 0.022099
v 0.040007 -0.301320 0.015626
v 0.027910 -0.372785 0.022099
v 0.038896 -0.372785 0.000000
v 0.035678 -0.372785 0.015626
v 0.020692 -0.445974 0.022099
v 0.031476 -0.445974 0.000000
v 0.028318 -0.445974 0.015626
v 0.027540 -0.499335 0.000000
v 0.020740 -0.496033 0.015627
v 0.019160 -0.506472 0.000000
v 0.009464 -0.372785 0.022099
v -0.032050 0.546551 -0.000000
v -0.029395 0.286210 0.022099
v -0.038678 0.286210 0.015626
v -0.019303 0.097354 0.022099
v -0.026986 0.097354 0.015626
v -0.015442 -0.097031 0.000000
v -0.001816 -0.097031 0.022099
v -0.011451 -0.097031 0.015626
v -0.001943 -0.301320 0.000000
v 0.010239 -0.301320 0.022099
v 0.001625 -0.301320 0.015626
v 0.001398 -0.372785 0.015626
v -0.020641 -0.445974 0.000000
v -0.004076 -0.445974 0.022099
v -0.015789 -0.445974 0.015626
v -0.036683 -0.476553 0.000000
v -0.029252 -0.475671 0.015627
v -0.029395 0.326815 0.022099
v -0.042523 0.326815 0.000000
v -0.038678 0.326815 0.015626
v -0.029395 0.367420 0.022099
v -0.042523 0.367420 -0.000000
v -0.038678 0.367420 0.015626
v -0.017995 -0.486279 -0.022099
v 0.003834 -0.494714 -0.022099
v 0.000409 0.286210 -0.022099
v 0.001271 0.097354 -0.022099
v 0.016746 0.546551 -0.012701
v 0.017313 -0.097031 -0.022099
v 0.018957 0.367420 -0.022099
v 0.034445 0.367420 -0.015626
v 0.026380 0.546551 -0.008674
v 0.011289 0.286210 -0.015626
v 0.005422 0.326815 -0.022099
v 0.017897 0.326815 -0.015626
v 0.011542 0.097354 -0.015626
v 0.026653 -0.097031 -0.015626
v 0.030317 -0.301320 -0.022099
v 0.040007 -0.301320 -0.015626
v 0.027910 -0.372785 -0.022099
v 0.035678 -0.372785 -0.015626
v 0.020692 -0.445974 -0.022099
v 0.028318 -0.445974 -0.015626
v 0.020740 -0.496033 -0.015626
v 0.009464 -0.372785 -0.022099
v -0.029395 0.286210 -0.022099
v -0.038678 0.286210 -0.015626
v -0.019303 0.097354 -0.022099
v -0.026986 0.097354 -0.015626
v -0.001816 -0.097031 -0.022099
v -0.011451 -0.097031 -0.015626
v 0.010239 -0.301320 -0.022099
v 0.001625 -0.301320 -0.015626
v 0.001398 -0.372785 -0.015626
v -0.004076 -0.445974 -0.022099
v -0.015789 -0.445974 -0.015626
v -0.029252 -0.475671 -0.015626
v -0.029395 0.326815 -0.022099
v -0.038678 0.326815 -0.015626
v -0.029395 0.367420 -0.022099
v -0.038678 0.367420 -0.015626
v 0.040861 0.539816 -0.000000
v 0.034445 0.539816 0.015626
v -0.042523 0.539816 -0.000000
v -0.038678 0.539816 0.015626
v 0.018957 0.539816 -0.022099
v 0.018957 0.539816 0.022099
v 0.016746 0.546551 0.012701
v 0.018310 0.544579 0.019346
v -0.025961 0.546551 0.012701
v -0.029395 0.539816 0.022099
v -0.028389 0.544579 0.019346
v 0.026380 0.546551 0.008674
v 0.032083 0.544579 0.013590
v 0.029942 0.546551 -0.000000
v 0.037663 0.544579 -0.000000
v -0.029538 0.546551 0.010207
v -0.036001 0.544579 0.014039
v -0.039456 0.544579 -0.000000
v 0.018310 0.544579 -0.019346
v -0.029395 0.539816 -0.022099
v -0.025961 0.546551 -0.012701
v -0.028389 0.544579 -0.019346
v 0.034445 0.539816 -0.015626
v 0.032083 0.544579 -0.013590
v -0.029538 0.546551 -0.010207
v -0.038678 0.539816 -0.015626
v -0.036001 0.544579 -0.014039
vn -0.5870 -0.8096 -0.0000
vn 0.0116 -0.5553 0.8316
vn -0.4357 -0.4100 0.8013
vn 0.2511 -0.0163 0.9678
vn -0.2998 -0.0000 0.9540
vn -0.3148 -0.0095 0.9491
vn 0.2201 -0.0513 0.9741
vn -0.2997 -0.0000 0.9540
vn 0.2261 -0.0470 0.9730
vn 0.7101 0.0167 0.7039
vn 0.1009 0.0155 0.9948
vn 0.7318 -0.1477 0.6654
vn 0.9999 0.0171 -0.0000
vn 0.9581 -0.2865 -0.0000
vn 0.7237 -0.2012 0.6601
vn 0.9964 -0.0852 -0.0000
vn 0.7775 -0.0610 0.6259
vn 0.8021 0.0323 0.5963
vn 0.9992 0.0390 -0.0000
vn 0.2728 0.0114 0.9620
vn 0.2922 0.0212 0.9561
vn 0.8154 0.0583 0.5759
vn 0.9975 0.0710 -0.0000
vn 0.8325 0.0019 0.5540
vn 1.0000 -0.0003 -0.0000
vn 0.3124 0.0023 0.9499
vn 0.8470 -0.0675 0.5274
vn 0.9965 -0.0831 -0.0000
vn 0.9944 -0.1054 -0.0000
vn 0.8130 -0.1013 0.5733
vn 0.3341 -0.0251 0.9422
vn 0.3025 -0.0509 0.9518
vn 0.5742 -0.5014 0.6472
vn 0.8877 -0.4604 -0.0000
vn 0.3016 -0.9534 -0.0000
vn -0.2028 -0.9792 -0.0000
vn -0.1115 0.0157 0.9936
vn -0.3207 -0.0230 0.9469
vn -0.3076 -0.0079 0.9515
vn -0.3063 -0.0223 0.9517
vn -0.2904 0.0283 0.9565
vn -0.2448 0.0676 0.9672
vn -1.0000 -0.0000 -0.0000
vn -0.8350 -0.0259 0.5497
vn -0.8244 -0.0000 0.5660
vn -0.9975 -0.0705 -0.0000
vn -0.9995 -0.0317 -0.0000
vn -0.8389 -0.0594 0.5411
vn -0.8308 -0.0601 0.5533
vn -0.9975 -0.0713 -0.0000
vn -0.9995 -0.0318 -0.0000
vn -0.8340 -0.0247 0.5512
vn -0.8163 0.0937 0.5700
vn -0.9925 0.1222 -0.0000
vn -0.7346 0.2469 0.6320
vn -0.9381 0.3463 -0.0000
vn -0.7918 -0.0553 0.6082
vn -0.8597 0.0166 0.5106
vn -0.9999 0.0166 -0.0000
vn -0.9931 -0.1169 -0.0000
vn 0.0116 -0.5553 -0.8316
vn 0.2511 -0.0163 -0.9678
vn -0.2998 -0.0000 -0.9540
vn 0.2201 -0.0513 -0.9741
vn -0.2997 -0.0000 -0.9540
vn 0.2261 -0.0470 -0.9730
vn 0.7116 0.0167 -0.7024
vn 0.1008 0.0156 -0.9948
vn 0.7318 -0.1477 -0.6654
vn 0.9816 -0.1908 -0.0000
vn 0.7237 -0.2012 -0.6601
vn 0.7775 -0.0610 -0.6259
vn 0.8021 0.0323 -0.5963
vn 0.2728 0.0114 -0.9620
vn 0.2922 0.0212 -0.9561
vn 0.8154 0.0583 -0.5759
vn 0.8325 0.0019 -0.5541
vn 0.3124 0.0023 -0.9499
vn 0.8469 -0.0675 -0.5274
vn 0.3341 -0.0251 -0.9422
vn 0.8130 -0.1013 -0.5733
vn 0.5742 -0.5014 -0.6472
vn 0.3025 -0.0509 -0.9518
vn -0.1115 0.0157 -0.9936
vn -0.3207 -0.0230 -0.9469
vn -0.3148 -0.0095 -0.9491
vn -0.3076 -0.0079 -0.9515
vn -0.3063 -0.0223 -0.9517
vn -0.2904 0.0283 -0.9565
vn -0.2448 0.0676 -0.9672
vn -0.4357 -0.4100 -0.8013
vn -0.8350 -0.0259 -0.5497
vn -0.8244 -0.0000 -0.5660
vn -0.8389 -0.0594 -0.5411
vn -0.8308 -0.0601 -0.5533
vn -0.8340 -0.0247 -0.5512
vn -0.8163 0.0937 -0.5700
vn -0.7346 0.2469 -0.6320
vn -0.7918 -0.0553 -0.6082
vn -0.8597 0.0166 -0.5106
vn 0.1103 0.9872 0.1154
vn 0.1549 0.9879 -0.0000
vn 0.1103 0.9872 -0.1154
vn -0.0466 0.9869 0.1545
vn 0.0561 0.8062 0.5890
vn 0.0302 0.9875 0.1546
vn -0.0574 0.8078 0.5867
vn 0.4065 0.8182 0.4066
vn 0.5680 0.8231 -0.0000
vn -0.1277 0.9876 0.0917
vn -0.5729 0.8196 -0.0000
vn -0.5031 0.8149 0.2878
vn -0.0574 0.8078 -0.5867
vn 0.0561 0.8062 -0.5890
vn -0.0466 0.9869 -0.1545
vn 0.0302 0.9875 -0.1546
vn 0.4065 0.8182 -0.4066
vn -0.5031 0.8149 -0.2878
vn -0.1277 0.9876 -0.0917
vn -0.1493 0.9888 -0.0000
vt 0.123511 0.956949
vt 0.076020 0.936879
vt 0.106977 0.926352
vt 0.385707 0.404451
vt 0.434009 0.340744
vt 0.432776 0.404366
vt 0.378580 0.339769
vt 0.436209 0.276363
vt 0.360484 0.275107
vt 0.333347 0.003906
vt 0.359901 0.003906
vt 0.334305 0.274740
vt 0.306607 0.003906
vt 0.330169 0.342974
vt 0.356040 0.339587
vt 0.340056 0.405995
vt 0.365703 0.404704
vt 0.371136 0.702534
vt 0.345619 0.702656
vt 0.390224 0.702443
vt 0.061932 0.311469
vt 0.060003 0.003906
vt 0.079165 0.003906
vt 0.043988 0.311645
vt 0.034448 0.003906
vt 0.018576 0.310845
vt 0.029360 0.633977
vt 0.003906 0.633747
vt 0.047728 0.633978
vt 0.033503 0.745970
vt 0.008192 0.746708
vt 0.012417 0.864536
vt 0.037823 0.861800
vt 0.049634 0.746215
vt 0.053809 0.861287
vt 0.050967 0.940655
vt 0.029780 0.955494
vt 0.047467 0.969652
vt 0.083027 0.973383
vt 0.436114 0.003906
vt 0.422581 0.702289
vt 0.079364 0.633842
vt 0.092118 0.310783
vt 0.079131 0.747417
vt 0.111628 0.003906
vt 0.093457 0.863855
vt 0.477361 0.341274
vt 0.450621 0.404373
vt 0.451947 0.340920
vt 0.463537 0.702094
vt 0.475982 0.404933
vt 0.438412 0.702214
vt 0.110437 0.310596
vt 0.127483 0.003906
vt 0.135886 0.311402
vt 0.121657 0.634345
vt 0.096353 0.633839
vt 0.095658 0.747786
vt 0.120995 0.746684
vt 0.115029 0.865891
vt 0.140840 0.864668
vt 0.127019 0.915287
vt 0.453982 0.276519
vt 0.479312 0.276692
vt 0.453954 0.003906
vt 0.479312 0.003906
vt 0.152637 0.921499
vt 0.192350 0.956951
vt 0.239841 0.936880
vt 0.232836 0.973384
vt 0.585331 0.404194
vt 0.536727 0.340719
vt 0.592150 0.339481
vt 0.534221 0.276351
vt 0.609937 0.274734
vt 0.635784 0.003906
vt 0.609231 0.003906
vt 0.662524 0.003906
vt 0.636114 0.274242
vt 0.640575 0.342455
vt 0.662524 0.275871
vt 0.614688 0.339191
vt 0.630988 0.405521
vt 0.605336 0.404352
vt 0.601322 0.702199
vt 0.626839 0.702199
vt 0.582234 0.702199
vt 0.255856 0.003906
vt 0.253928 0.311469
vt 0.236694 0.003906
vt 0.281411 0.003906
vt 0.271871 0.311645
vt 0.286499 0.633978
vt 0.297283 0.310844
vt 0.311952 0.633746
vt 0.268131 0.633979
vt 0.282355 0.745971
vt 0.266223 0.746216
vt 0.307666 0.746706
vt 0.303442 0.864533
vt 0.278035 0.861799
vt 0.264895 0.940654
vt 0.286083 0.955491
vt 0.262049 0.861287
vt 0.268397 0.969650
vt 0.533018 0.003906
vt 0.549877 0.702199
vt 0.538264 0.404333
vt 0.236495 0.633843
vt 0.223742 0.310784
vt 0.236726 0.747418
vt 0.222401 0.863856
vt 0.204231 0.003906
vt 0.208882 0.926353
vt 0.493379 0.341456
vt 0.520419 0.404425
vt 0.495062 0.405107
vt 0.518791 0.340981
vt 0.508922 0.702199
vt 0.534047 0.702199
vt 0.205422 0.310596
vt 0.179974 0.311402
vt 0.188377 0.003906
vt 0.194202 0.634343
vt 0.219506 0.633839
vt 0.220200 0.747785
vt 0.200829 0.865892
vt 0.194863 0.746682
vt 0.175018 0.864668
vt 0.188840 0.915289
vt 0.163222 0.921501
vt 0.516449 0.276592
vt 0.491121 0.276885
vt 0.515178 0.003906
vt 0.489821 0.003906
vt 0.969108 0.967471
vt 0.955530 0.972819
vt 0.942048 0.967155
vt 0.976155 0.885396
vt 0.986826 0.955443
vt 0.975856 0.952594
vt 0.986978 0.881398
vt 0.995437 0.957377
vt 0.976795 0.976778
vt 0.982806 0.983474
vt 0.955468 0.985214
vt 0.955625 0.994339
vt 0.972295 0.879812
vt 0.956443 0.863616
vt 0.978564 0.869554
vt 0.956381 0.854632
vt 0.983280 0.861905
vt 0.995437 0.878581
vt 0.915992 0.956767
vt 0.925596 0.880932
vt 0.924605 0.954895
vt 0.936403 0.885084
vt 0.935601 0.952237
vt 0.934275 0.976409
vt 0.928412 0.983343
vt 0.934251 0.869265
vt 0.929331 0.861805
vt 0.940387 0.879551
vt 0.917112 0.878167
vt 0.956357 0.875715
vt 0.307903 0.276494
vt 0.152637 0.003906
vt 0.163222 0.003906
s 1
usemtl fire_axe
f 71/122/69 62/123/70 61/124/71
f 73/125/72 113/126/73 97/127/74
f 80/128/75 116/129/76 113/126/73
f 76/130/77 158/131/78 162/132/79
f 77/133/80 157/134/81 158/131/78
f 65/135/82 77/133/80 81/136/83
f 81/136/83 76/130/77 80/128/75
f 78/137/84 81/136/83 79/138/85
f 79/138/85 80/128/75 73/125/72
f 78/137/84 82/139/86 67/140/87
f 79/138/85 74/141/88 82/139/86
f 75/142/89 82/143/86 74/144/88
f 83/145/90 67/146/87 82/143/86
f 68/147/91 85/148/92 69/149/93
f 83/145/90 84/150/94 85/148/92
f 84/150/94 88/151/95 85/148/92
f 85/148/92 87/152/96 69/149/93
f 90/153/97 88/151/95 91/154/98
f 91/154/98 86/155/99 89/156/100
f 90/153/97 93/157/101 92/158/102
f 93/157/101 89/156/100 62/123/70
f 94/159/103 92/158/102 93/157/101
f 72/160/104 93/157/101 62/123/70
f 116/129/76 162/132/79 166/161/105
f 99/162/106 73/125/72 97/127/74
f 105/163/107 75/142/89 102/164/108
f 105/163/107 86/155/99 84/150/94
f 95/165/109 89/156/100 86/155/99
f 102/164/108 74/144/88 99/166/106
f 109/167/110 62/123/70 89/156/100
f 114/168/111 98/169/112 115/170/113
f 115/170/113 97/127/74 113/126/73
f 66/171/114 98/169/112 64/172/115
f 100/173/116 97/127/74 98/169/112
f 99/166/106 103/174/117 102/164/108
f 100/175/116 101/176/118 103/174/117
f 104/177/119 103/174/117 101/176/118
f 106/178/120 102/164/108 103/174/117
f 95/165/109 106/178/120 107/179/121
f 107/179/121 104/177/119 70/180/122
f 109/167/110 107/179/121 110/181/123
f 110/181/123 70/180/122 108/182/124
f 108/182/124 112/183/125 110/181/123
f 112/183/125 109/167/110 110/181/123
f 114/168/111 118/184/113 117/185/111
f 115/170/113 116/129/76 118/184/113
f 117/185/111 160/186/126 159/187/127
f 118/184/113 166/161/105 160/186/126
f 71/122/69 112/183/125 111/188/128
f 71/189/69 120/190/129 72/191/104
f 121/192/130 153/193/131 129/194/132
f 129/194/132 155/195/133 125/196/134
f 179/197/135 125/196/134 161/198/136
f 157/199/81 126/200/137 179/197/135
f 65/201/82 126/200/137 63/202/138
f 130/203/139 125/196/134 126/200/137
f 78/204/84 130/203/139 65/201/82
f 128/205/140 129/194/132 130/203/139
f 131/206/141 78/204/84 67/207/87
f 122/208/142 128/205/140 131/206/141
f 131/209/141 124/210/143 122/211/142
f 67/212/87 132/213/144 131/209/141
f 134/214/145 68/215/91 69/216/93
f 133/217/146 132/213/144 134/214/145
f 133/217/146 136/218/147 135/219/148
f 134/214/145 87/220/96 136/218/147
f 90/221/97 136/218/147 87/220/96
f 138/222/149 135/219/148 136/218/147
f 139/223/150 90/221/97 92/224/102
f 139/223/150 137/225/151 138/222/149
f 94/226/103 139/223/150 92/224/102
f 72/191/104 139/223/150 94/226/103
f 161/198/136 155/195/133 176/227/152
f 121/192/130 143/228/153 141/229/154
f 124/210/143 147/230/155 145/231/156
f 147/230/155 135/219/148 140/232/157
f 140/232/157 137/225/151 150/233/158
f 122/211/142 145/231/156 143/234/153
f 150/233/158 120/190/129 119/235/159
f 114/236/111 142/237/160 64/238/115
f 154/239/161 141/229/154 142/237/160
f 142/237/160 66/240/114 64/238/115
f 141/229/154 144/241/162 142/237/160
f 146/242/163 143/234/153 145/231/156
f 101/243/118 144/244/162 146/242/163
f 146/242/163 104/245/119 101/243/118
f 145/231/156 148/246/164 146/242/163
f 140/232/157 148/246/164 147/230/155
f 149/247/165 104/245/119 148/246/164
f 150/233/158 149/247/165 140/232/157
f 151/248/166 70/249/122 149/247/165
f 108/250/124 152/251/167 111/252/128
f 150/233/158 152/251/167 151/248/166
f 156/253/161 114/236/111 117/254/111
f 155/195/133 154/239/161 156/253/161
f 182/255/168 117/254/111 159/256/127
f 176/227/152 156/253/161 182/255/168
f 152/251/167 71/189/69 111/252/128
f 168/257/169 170/258/170 127/259/171
f 165/260/172 164/261/173 163/262/174
f 167/263/175 162/264/79 164/261/173
f 168/257/169 164/261/173 169/265/176
f 169/265/176 162/264/79 158/266/78
f 170/258/170 169/265/176 171/267/177
f 171/267/177 158/266/78 157/268/81
f 172/269/178 174/270/179 173/271/180
f 173/271/180 159/272/127 160/273/126
f 172/269/178 167/263/175 165/260/172
f 173/271/180 166/274/105 167/263/175
f 161/275/136 178/276/181 175/277/182
f 175/277/182 177/278/183 123/279/184
f 161/275/136 180/280/185 179/281/135
f 175/277/182 127/259/171 180/280/185
f 179/281/135 171/267/177 157/268/81
f 180/280/185 170/258/170 171/267/177
f 159/272/127 183/282/186 182/283/168
f 174/270/179 181/284/187 183/282/186
f 176/285/152 183/282/186 178/276/181
f 178/276/181 181/284/187 177/278/183
f 163/262/174 127/259/171 123/279/184
f 163/262/174 177/278/183 165/260/172
f 177/278/183 172/269/178 165/260/172
f 96/286/188 172/269/178 181/284/187
f 71/122/69 72/160/104 62/123/70
f 73/125/72 80/128/75 113/126/73
f 80/128/75 76/130/77 116/129/76
f 76/130/77 77/133/80 158/131/78
f 77/133/80 63/287/138 157/134/81
f 65/135/82 63/287/138 77/133/80
f 81/136/83 77/133/80 76/130/77
f 78/137/84 65/135/82 81/136/83
f 79/138/85 81/136/83 80/128/75
f 78/137/84 79/138/85 82/139/86
f 79/138/85 73/125/72 74/141/88
f 75/142/89 83/145/90 82/143/86
f 83/145/90 68/147/91 67/146/87
f 68/147/91 83/145/90 85/148/92
f 83/145/90 75/142/89 84/150/94
f 84/150/94 86/155/99 88/151/95
f 85/148/92 88/151/95 87/152/96
f 90/153/97 87/152/96 88/151/95
f 91/154/98 88/151/95 86/155/99
f 90/153/97 91/154/98 93/157/101
f 93/157/101 91/154/98 89/156/100
f 72/160/104 94/159/103 93/157/101
f 116/129/76 76/130/77 162/132/79
f 99/162/106 74/141/88 73/125/72
f 105/163/107 84/150/94 75/142/89
f 105/163/107 95/165/109 86/155/99
f 95/165/109 109/167/110 89/156/100
f 102/164/108 75/142/89 74/144/88
f 109/167/110 61/124/71 62/123/70
f 114/168/111 64/172/115 98/169/112
f 115/170/113 98/169/112 97/127/74
f 66/171/114 100/173/116 98/169/112
f 100/173/116 99/162/106 97/127/74
f 99/166/106 100/175/116 103/174/117
f 100/175/116 66/288/114 101/176/118
f 104/177/119 106/178/120 103/174/117
f 106/178/120 105/163/107 102/164/108
f 95/165/109 105/163/107 106/178/120
f 107/179/121 106/178/120 104/177/119
f 109/167/110 95/165/109 107/179/121
f 110/181/123 107/179/121 70/180/122
f 108/182/124 111/188/128 112/183/125
f 112/183/125 61/124/71 109/167/110
f 114/168/111 115/170/113 118/184/113
f 115/170/113 113/126/73 116/129/76
f 117/185/111 118/184/113 160/186/126
f 118/184/113 116/129/76 166/161/105
f 71/122/69 61/124/71 112/183/125
f 71/189/69 119/235/159 120/190/129
f 121/192/130 141/229/154 153/193/131
f 129/194/132 153/193/131 155/195/133
f 179/197/135 126/200/137 125/196/134
f 157/199/81 63/202/138 126/200/137
f 65/201/82 130/203/139 126/200/137
f 130/203/139 129/194/132 125/196/134
f 78/204/84 128/205/140 130/203/139
f 128/205/140 121/192/130 129/194/132
f 131/206/141 128/205/140 78/204/84
f 122/208/142 121/192/130 128/205/140
f 131/209/141 132/213/144 124/210/143
f 67/212/87 68/215/91 132/213/144
f 134/214/145 132/213/144 68/215/91
f 133/217/146 124/210/143 132/213/144
f 133/217/146 134/214/145 136/218/147
f 134/214/145 69/216/93 87/220/96
f 90/221/97 138/222/149 136/218/147
f 138/222/149 137/225/151 135/219/148
f 139/223/150 138/222/149 90/221/97
f 139/223/150 120/190/129 137/225/151
f 72/191/104 120/190/129 139/223/150
f 161/198/136 125/196/134 155/195/133
f 121/192/130 122/208/142 143/228/153
f 124/210/143 133/217/146 147/230/155
f 147/230/155 133/217/146 135/219/148
f 140/232/157 135/219/148 137/225/151
f 122/211/142 124/210/143 145/231/156
f 150/233/158 137/225/151 120/190/129
f 114/236/111 154/239/161 142/237/160
f 154/239/161 153/193/131 141/229/154
f 142/237/160 144/241/162 66/240/114
f 141/229/154 143/228/153 144/241/162
f 146/242/163 144/244/162 143/234/153
f 101/243/118 66/289/114 144/244/162
f 146/242/163 148/246/164 104/245/119
f 145/231/156 147/230/155 148/246/164
f 140/232/157 149/247/165 148/246/164
f 149/247/165 70/249/122 104/245/119
f 150/233/158 151/248/166 149/247/165
f 151/248/166 108/250/124 70/249/122
f 108/250/124 151/248/166 152/251/167
f 150/233/158 119/235/159 152/251/167
f 156/253/161 154/239/161 114/236/111
f 155/195/133 153/193/131 154/239/161
f 182/255/168 156/253/161 117/254/111
f 176/227/152 155/195/133 156/253/161
f 152/251/167 119/235/159 71/189/69
f 165/260/172 167/263/175 164/261/173
f 167/263/175 166/274/105 162/264/79
f 168/257/169 163/262/174 164/261/173
f 169/265/176 164/261/173 162/264/79
f 170/258/170 168/257/169 169/265/176
f 171/267/177 169/265/176 158/266/78
f 172/269/178 96/286/188 174/270/179
f 173/271/180 174/270/179 159/272/127
f 172/269/178 173/271/180 167/263/175
f 173/271/180 160/273/126 166/274/105
f 161/275/136 176/285/152 178/276/181
f 175/277/182 178/276/181 177/278/183
f 161/275/136 175/277/182 180/280/185
f 175/277/182 123/279/184 127/259/171
f 179/281/135 180/280/185 171/267/177
f 180/280/185 127/259/171 170/258/170
f 159/272/127 174/270/179 183/282/186
f 174/270/179 96/286/188 181/284/187
f 176/285/152 182/283/168 183/282/186
f 178/276/181 183/282/186 181/284/187
f 163/262/174 168/257/169 127/259/171
f 163/262/174 123/279/184 177/278/183
f 177/278/183 181/284/187 172/269/178
