# Blender 4.5.14 LTS
# www.blender.org
mtllib modern_axe.mtl
o Axe_blade
v -0.036627 0.444211 0.018416
v -0.036627 0.471387 0.018416
v 0.027625 0.444211 0.026015
v 0.027625 0.471387 0.026015
v -0.043723 0.444211 -0.000000
v -0.043723 0.471387 -0.000000
v 0.046134 0.471387 -0.000000
v 0.040735 0.471387 0.018116
v -0.020078 0.471387 0.026068
v 0.040735 0.444211 0.018116
v -0.020078 0.444211 0.026068
v 0.046134 0.444211 -0.000000
v -0.169905 0.425850 0.011277
v -0.169905 0.570403 0.011265
v -0.072609 0.471387 0.028741
v -0.072609 0.552047 0.028734
v 0.069032 0.471387 0.028734
v -0.121791 0.452304 0.019023
v -0.121791 0.557540 0.019014
v -0.215858 0.585947 0.003863
v -0.205494 0.403592 0.005547
v -0.036627 0.444211 -0.018416
v -0.036627 0.471387 -0.018416
v 0.027625 0.444211 -0.026015
v 0.027625 0.471387 -0.026015
v 0.040735 0.471387 -0.018117
v -0.020078 0.471387 -0.026068
v 0.040735 0.444211 -0.018117
v -0.020078 0.444211 -0.026068
v -0.169905 0.425850 -0.011277
v -0.169905 0.570403 -0.011265
v -0.072609 0.471387 -0.028741
v -0.072609 0.552047 -0.028735
v 0.069032 0.471387 -0.028735
v 0.069032 0.552047 -0.028735
v -0.121791 0.452304 -0.019023
v -0.121791 0.557540 -0.019015
v -0.223262 0.545579 -0.002675
v -0.226991 0.496021 -0.002078
v -0.221067 0.447044 -0.003036
v -0.215858 0.585947 -0.003864
v -0.218867 0.587031 -0.001420
v -0.218867 0.587031 0.001419
v -0.205494 0.403592 -0.005547
v -0.208030 0.401828 0.002047
v -0.208030 0.401828 -0.002048
v -0.223262 0.545579 0.002674
v -0.226456 0.545654 0.000979
v -0.226456 0.545654 -0.000979
v -0.226991 0.496021 0.002078
v -0.230186 0.496095 0.000761
v -0.230186 0.496095 -0.000761
v -0.221067 0.447044 0.003036
v -0.224261 0.447119 -0.001111
v -0.224261 0.447119 0.001111
v 0.079891 0.471387 0.017875
v 0.076710 0.471387 0.025554
v 0.069032 0.552047 0.028734
v 0.079891 0.552047 0.017875
v 0.076710 0.552047 0.025554
v 0.079891 0.471387 -0.017875
v 0.076710 0.471387 -0.025554
v 0.079891 0.552047 -0.017875
v 0.076710 0.552047 -0.025554
vn 0.7905 -0.0000 0.6124
vn 0.2683 -0.0000 0.9633
vn -0.2143 -0.0000 0.9768
vn -0.7298 -0.0000 0.6836
vn 1.0000 -0.0000 -0.0000
vn -1.0000 -0.0000 -0.0000
vn -0.0000 -1.0000 -0.0000
vn 0.1727 -0.9850 -0.0000
vn -0.1719 0.0001 0.9851
vn -0.1590 0.0001 0.9873
vn 0.4166 -0.9091 -0.0000
vn 0.1771 0.9842 -0.0000
vn 0.0519 0.9987 -0.0000
vn 0.1951 -0.0000 0.9808
vn -0.1007 0.0001 0.9949
vn -0.1075 0.0001 0.9942
vn -0.2014 0.0068 0.9795
vn -0.1736 -0.0004 0.9848
vn -0.1745 0.0001 0.9847
vn -0.0000 1.0000 -0.0000
vn 0.2865 0.9581 -0.0000
vn 0.5041 -0.8636 -0.0000
vn 0.2683 -0.0000 -0.9633
vn 0.7905 -0.0000 -0.6124
vn -0.7298 -0.0000 -0.6836
vn -0.2143 -0.0000 -0.9768
vn -0.1719 0.0001 -0.9851
vn -0.1590 0.0001 -0.9873
vn -0.1745 0.0001 -0.9847
vn -0.1007 0.0001 -0.9949
vn 0.1951 -0.0000 -0.9808
vn -0.1075 0.0001 -0.9942
vn -0.2014 0.0068 -0.9795
vn -0.2136 0.0115 -0.9769
vn -0.1736 -0.0004 -0.9848
vn -0.8100 -0.2008 -0.5510
vn -0.7258 -0.0171 -0.6877
vn -0.7258 -0.0170 0.6877
vn -0.8100 -0.2008 0.5510
vn -0.7628 0.0928 -0.6399
vn -0.7628 0.0928 0.6399
vn -0.2188 -0.0183 -0.9756
vn -0.8465 -0.2859 -0.4491
vn -0.8465 -0.2859 0.4492
vn -0.2188 -0.0183 0.9756
vn -0.8073 0.1366 0.5741
vn -0.8073 0.1366 -0.5741
vn 0.3389 0.9408 -0.0000
vn 0.3209 0.9471 -0.0000
vn 0.3208 0.9471 -0.0000
vn 0.5709 -0.8210 -0.0000
vn 0.5316 -0.8470 -0.0000
vn 0.9808 -0.0000 0.1951
vn 0.7071 -0.0000 0.7071
vn 0.7071 -0.0000 -0.7071
vn 0.9808 -0.0000 -0.1951
vn -0.2447 -0.0340 0.9690
vn -0.2135 0.0115 0.9769
vn -0.2447 -0.0341 -0.9690
vt 0.948367 0.032750
vt 0.989831 0.056102
vt 0.948367 0.056102
vt 0.948367 0.128886
vt 0.989831 0.156706
vt 0.948367 0.156706
vt 0.948367 0.003906
vt 0.989831 0.032750
vt 0.989831 0.186818
vt 0.948367 0.186818
vt 0.989831 0.128886
vt 0.877696 0.404000
vt 0.957081 0.331127
vt 0.957081 0.403910
vt 0.373820 0.786896
vt 0.461525 0.570786
vt 0.461525 0.786900
vt 0.896382 0.078263
vt 0.716187 0.003907
vt 0.936743 0.003906
vt 0.388644 0.867388
vt 0.446694 0.867390
vt 0.487032 0.630487
vt 0.559886 0.705995
vt 0.472201 0.705995
vt 0.867267 0.370869
vt 0.744197 0.154756
vt 0.867267 0.154756
vt 0.902407 0.527231
vt 0.903632 0.601844
vt 0.822439 0.484716
vt 0.735814 0.078264
vt 0.472201 0.922108
vt 0.559886 0.922108
vt 0.533232 0.554498
vt 0.545056 0.630487
vt 0.434871 0.951165
vt 0.945377 0.305889
vt 0.889180 0.305952
vt 0.917266 0.295094
vt 0.945053 0.423927
vt 0.917420 0.432196
vt 0.889769 0.423989
vt 0.938673 0.235032
vt 0.897208 0.258385
vt 0.897208 0.235032
vt 0.938673 0.134429
vt 0.897208 0.162249
vt 0.897208 0.134429
vt 0.938673 0.258385
vt 0.897208 0.287228
vt 0.938673 0.104317
vt 0.897208 0.104317
vt 0.938673 0.162249
vt 0.833418 0.776619
vt 0.653223 0.850975
vt 0.672850 0.776618
vt 0.681233 0.700126
vt 0.804303 0.484013
vt 0.804303 0.700126
vt 0.916117 0.527219
vt 0.918303 0.465814
vt 0.996094 0.484708
vt 0.914903 0.601803
vt 0.911004 0.673499
vt 0.910288 0.601609
vt 0.908246 0.601615
vt 0.907530 0.673507
vt 0.910730 0.527639
vt 0.907799 0.527641
vt 0.916698 0.674555
vt 0.913052 0.742563
vt 0.905476 0.742547
vt 0.901845 0.674594
vt 0.906896 0.464890
vt 0.911642 0.464896
vt 0.967721 0.273585
vt 0.959660 0.268704
vt 0.971450 0.268704
vt 0.185582 0.306043
vt 0.173994 0.301330
vt 0.190922 0.301330
vt 0.165252 0.237283
vt 0.199664 0.237283
vt 0.948367 0.194688
vt 0.982743 0.194688
vt 0.744197 0.396233
vt 0.867267 0.383551
vt 0.867267 0.396232
vt 0.744197 0.383551
vt 0.681233 0.484013
vt 0.804303 0.471331
vt 0.744197 0.463461
vt 0.867267 0.450779
vt 0.867267 0.463460
vt 0.744197 0.450779
vt 0.378693 0.559066
vt 0.373840 0.570782
vt 0.477054 0.933825
vt 0.555033 0.933825
vt 0.877532 0.331216
vt 0.896968 0.741135
vt 0.822439 0.715468
vt 0.900224 0.465776
vt 0.996094 0.715457
vt 0.921562 0.741180
vt 0.488771 0.938678
vt 0.543317 0.938678
vt 0.444956 0.554216
vt 0.456672 0.559070
vt 0.989831 0.003906
vt 0.744197 0.370869
vt 0.498856 0.554498
vt 0.400459 0.951164
vt 0.938673 0.287228
vt 0.873779 0.850976
vt 0.963389 0.273585
vt 0.179334 0.306043
vt 0.681233 0.471331
vt 0.390410 0.554214
s 1
usemtl maxe
f 10/1/1 4/2/2 3/3/2
f 11/4/3 2/5/4 1/6/4
f 12/7/5 8/8/1 10/1/1
f 1/6/4 6/9/6 5/10/6
f 3/3/2 9/11/3 11/4/3
f 3/12/7 29/13/7 24/14/7
f 32/15/8 17/16/7 15/17/8
f 18/18/9 14/19/10 13/20/10
f 36/21/11 15/17/8 18/22/11
f 37/23/12 16/24/13 33/25/13
f 17/26/14 16/27/15 15/28/16
f 47/29/17 50/30/18 14/31/10
f 15/28/16 19/32/19 18/18/9
f 35/33/20 16/24/13 58/34/20
f 37/23/12 14/35/21 19/36/12
f 13/37/22 36/21/11 18/22/11
f 22/38/7 1/39/7 5/40/7
f 28/41/7 12/42/7 10/43/7
f 24/14/7 10/43/7 3/12/7
f 25/44/23 28/45/24 24/46/23
f 23/47/25 29/48/26 22/49/25
f 26/50/24 12/51/5 28/45/24
f 6/52/6 22/49/25 5/53/6
f 27/54/26 24/46/23 29/48/26
f 36/55/27 31/56/28 37/57/29
f 33/58/30 34/59/31 32/60/32
f 38/61/33 41/62/34 31/63/28
f 32/60/32 37/57/29 33/58/30
f 39/64/35 54/65/36 52/66/37
f 54/65/36 51/67/38 52/66/37
f 55/68/39 50/30/18 51/67/38
f 39/64/35 49/69/40 38/61/33
f 52/66/37 48/70/41 49/69/40
f 48/70/41 50/30/18 47/29/17
f 40/71/42 46/72/43 54/65/36
f 46/72/43 55/68/39 54/65/36
f 45/73/44 53/74/45 55/68/39
f 47/29/17 43/75/46 48/70/41
f 43/75/46 49/69/40 48/70/41
f 42/76/47 38/61/33 49/69/40
f 42/77/48 20/78/49 41/79/50
f 45/80/51 44/81/52 21/82/52
f 21/82/52 30/83/22 13/84/22
f 41/79/50 14/85/21 31/86/21
f 59/87/53 57/88/54 56/89/53
f 60/90/54 17/26/14 57/88/54
f 35/91/31 62/92/55 34/59/31
f 64/93/55 61/94/56 62/95/55
f 63/96/56 56/89/53 61/94/56
f 62/97/7 17/16/7 34/98/7
f 64/99/20 58/34/20 60/100/20
f 22/38/7 11/101/7 1/39/7
f 21/102/57 13/103/10 53/74/45
f 13/103/10 14/31/10 50/30/18
f 53/74/45 13/103/10 50/30/18
f 14/31/10 20/104/58 47/29/17
f 31/63/28 30/105/28 39/64/35
f 30/105/28 44/106/59 40/71/42
f 39/64/35 30/105/28 40/71/42
f 39/64/35 38/61/33 31/63/28
f 63/107/20 60/100/20 59/108/20
f 62/97/7 56/109/7 57/110/7
f 10/1/1 8/8/1 4/2/2
f 11/4/3 9/11/3 2/5/4
f 12/7/5 7/111/5 8/8/1
f 1/6/4 2/5/4 6/9/6
f 3/3/2 4/2/2 9/11/3
f 3/12/7 11/101/7 29/13/7
f 32/15/8 34/98/7 17/16/7
f 18/18/9 19/32/19 14/19/10
f 36/21/11 32/15/8 15/17/8
f 37/23/12 19/36/12 16/24/13
f 17/26/14 58/112/14 16/27/15
f 15/28/16 16/27/15 19/32/19
f 35/33/20 33/25/13 16/24/13
f 37/23/12 31/113/21 14/35/21
f 13/37/22 30/114/22 36/21/11
f 24/14/7 28/41/7 10/43/7
f 25/44/23 26/50/24 28/45/24
f 23/47/25 27/54/26 29/48/26
f 26/50/24 7/115/5 12/51/5
f 6/52/6 23/47/25 22/49/25
f 27/54/26 25/44/23 24/46/23
f 36/55/27 30/116/28 31/56/28
f 33/58/30 35/91/31 34/59/31
f 32/60/32 36/55/27 37/57/29
f 39/64/35 40/71/42 54/65/36
f 54/65/36 55/68/39 51/67/38
f 55/68/39 53/74/45 50/30/18
f 39/64/35 52/66/37 49/69/40
f 52/66/37 51/67/38 48/70/41
f 48/70/41 51/67/38 50/30/18
f 40/71/42 44/106/59 46/72/43
f 46/72/43 45/73/44 55/68/39
f 45/73/44 21/102/57 53/74/45
f 47/29/17 20/104/58 43/75/46
f 43/75/46 42/76/47 49/69/40
f 42/76/47 41/62/34 38/61/33
f 42/77/48 43/117/48 20/78/49
f 45/80/51 46/118/51 44/81/52
f 21/82/52 44/81/52 30/83/22
f 41/79/50 20/78/49 14/85/21
f 59/87/53 60/90/54 57/88/54
f 60/90/54 58/112/14 17/26/14
f 35/91/31 64/119/55 62/92/55
f 64/93/55 63/96/56 61/94/56
f 63/96/56 59/87/53 56/89/53
f 62/97/7 57/110/7 17/16/7
f 64/99/20 35/33/20 58/34/20
f 22/38/7 29/13/7 11/101/7
f 63/107/20 64/99/20 60/100/20
f 62/97/7 61/120/7 56/109/7
o Axe_grip
v 0.042075 0.389365 -0.000000
v -0.039664 0.389365 -0.000000
v -0.035431 0.188752 -0.000000
v -0.023181 0.188752 0.022099
v 0.005598 0.289058 0.022099
v 0.026556 0.389365 0.022099
v 0.037530 0.389365 0.015626
v 0.001320 0.188752 0.022099
v 0.013571 0.188752 -0.000000
v 0.009983 0.188752 0.015627
v 0.020826 0.289058 -0.000000
v 0.016366 0.289058 0.015626
v 0.008062 0.118923 0.022099
v 0.020645 0.121090 -0.000000
v 0.016959 0.120456 0.015627
v -0.019229 0.389365 0.022099
v -0.033679 0.389365 0.015626
v -0.031843 0.188752 0.015627
v -0.040085 0.289058 -0.000000
v -0.024857 0.289058 0.022099
v -0.035624 0.289058 0.015626
v -0.017103 0.114589 0.022099
v -0.029686 0.112422 -0.000000
v -0.026000 0.113057 0.015627
v -0.023181 0.188752 -0.022099
v 0.005598 0.289058 -0.022099
v 0.026556 0.389365 -0.022099
v 0.037530 0.389365 -0.015627
v 0.001320 0.188752 -0.022099
v 0.009983 0.188752 -0.015627
v 0.016366 0.289058 -0.015627
v 0.008062 0.118923 -0.022099
v 0.016959 0.120456 -0.015627
v -0.019229 0.389365 -0.022099
v -0.033679 0.389365 -0.015627
v -0.031843 0.188752 -0.015627
v -0.024857 0.289058 -0.022099
v -0.035624 0.289058 -0.015627
v -0.017103 0.114589 -0.022099
v -0.026000 0.113057 -0.015627
v -0.025459 -0.397725 0.000000
v -0.047151 -0.443848 0.000000
v -0.018361 0.112161 0.027089
v 0.003589 -0.145407 0.027074
v 0.000394 -0.312302 0.027052
v -0.011473 -0.408472 0.027116
v -0.028845 -0.460848 0.026019
v -0.031358 -0.468282 0.000000
v -0.009736 -0.482709 0.000000
v -0.008390 -0.474337 0.026021
v 0.017777 -0.418732 0.027098
v -0.013796 -0.145546 0.000000
v -0.015172 -0.312068 0.000000
v 0.037722 -0.419069 0.000000
v 0.029523 -0.476185 0.000000
v 0.027453 -0.312504 0.027063
v 0.034152 -0.145315 0.027040
v 0.010509 -0.483565 0.000000
v 0.009871 0.116980 0.027038
v 0.011711 -0.475176 0.026153
v 0.024699 -0.472118 0.018473
v 0.031957 -0.418983 0.018726
v 0.021412 0.118950 0.018531
v 0.025972 0.119729 -0.000000
v 0.046539 -0.145255 0.018521
v 0.038622 -0.312644 0.018599
v 0.051433 -0.145237 0.000000
v 0.043057 -0.312682 0.000000
v -0.008859 -0.145509 0.018585
v -0.010810 -0.312116 0.018492
v -0.029993 0.110175 0.018627
v -0.034616 0.109386 -0.000000
v -0.021471 -0.400889 0.018720
v -0.039803 -0.445362 0.018545
v -0.018361 0.112161 -0.027089
v 0.003589 -0.145407 -0.027074
v 0.000394 -0.312302 -0.027052
v -0.011473 -0.408472 -0.027115
v -0.028845 -0.460848 -0.026019
v -0.008390 -0.474337 -0.026021
v 0.017777 -0.418732 -0.027098
v 0.027453 -0.312504 -0.027063
v 0.034152 -0.145315 -0.027040
v 0.009871 0.116980 -0.027038
v 0.011711 -0.475176 -0.026153
v 0.024699 -0.472118 -0.018473
v 0.031957 -0.418983 -0.018726
v 0.021412 0.118950 -0.018531
v 0.046539 -0.145255 -0.018521
v 0.038622 -0.312644 -0.018599
v -0.008859 -0.145509 -0.018585
v -0.010810 -0.312116 -0.018492
v -0.029993 0.110175 -0.018627
v -0.021471 -0.400889 -0.018720
v -0.039803 -0.445362 -0.018545
v -0.019229 0.471387 -0.022099
v 0.026556 0.471387 -0.022099
v 0.037530 0.471387 0.015626
v -0.033679 0.471387 0.015626
v -0.019229 0.471387 0.022099
v 0.026556 0.471387 0.022099
v 0.042075 0.471387 -0.000000
v 0.037530 0.471387 -0.015627
v -0.033679 0.471387 -0.015627
v -0.039664 0.471387 -0.000000
vn 0.2644 -0.0324 0.9639
vn -0.2179 0.0043 0.9760
vn -0.2675 0.0007 0.9636
vn 0.2878 0.0070 0.9577
vn -0.3059 -0.0168 0.9519
vn -0.3264 -0.0260 0.9449
vn 0.2967 0.0295 0.9545
vn 0.8186 0.0171 0.5742
vn 0.7918 -0.1076 0.6012
vn 0.9998 0.0181 -0.0000
vn 0.9903 -0.1391 -0.0000
vn 0.2798 -0.0310 0.9596
vn 0.7962 -0.0828 0.5993
vn 0.9948 -0.1023 -0.0000
vn 0.8257 0.0840 0.5578
vn 0.9947 0.1028 -0.0000
vn -0.7417 0.0077 0.6707
vn -0.7903 -0.0074 0.6127
vn -1.0000 0.0060 -0.0000
vn -0.9999 -0.0153 -0.0000
vn -0.8249 -0.0471 0.5633
vn -0.9983 -0.0589 -0.0000
vn -0.8385 -0.0649 0.5411
vn 0.2644 -0.0324 -0.9639
vn -0.2179 0.0043 -0.9760
vn 0.2798 -0.0310 -0.9596
vn 0.2878 0.0070 -0.9577
vn -0.2675 0.0007 -0.9636
vn -0.3264 -0.0260 -0.9449
vn 0.2967 0.0295 -0.9545
vn 0.8186 0.0171 -0.5742
vn 0.7918 -0.1076 -0.6012
vn 0.7962 -0.0828 -0.5993
vn 0.8257 0.0840 -0.5578
vn -0.7417 0.0077 -0.6707
vn -0.7903 -0.0074 -0.6127
vn -0.8249 -0.0471 -0.5633
vn -0.3059 -0.0168 -0.9519
vn -0.2703 0.8900 -0.3671
vn -0.0353 0.9257 -0.3766
vn -0.2715 0.8898 -0.3667
vn -0.4603 0.8626 0.2098
vn -0.5307 0.8475 -0.0000
vn -0.4603 0.8626 0.2100
vn -0.2715 0.8898 0.3667
vn -0.2703 0.8900 0.3672
vn -0.0313 0.9263 -0.3755
vn 0.1714 0.9593 -0.2246
vn -0.4603 0.8626 -0.2098
vn -0.0353 0.9257 0.3766
vn -0.0313 0.9263 0.3755
vn 0.1733 0.9596 0.2218
vn 0.2535 0.9673 -0.0000
vn -0.4603 0.8626 -0.2100
vn -0.8385 -0.0649 -0.5411
vn -0.9971 -0.0761 -0.0000
vn 0.1714 0.9593 0.2246
vn 0.1733 0.9596 -0.2218
vn 0.3020 -0.0178 0.9531
vn -0.2600 0.0596 0.9638
vn 0.2757 -0.0349 0.9606
vn 0.1565 -0.9877 -0.0000
vn -0.2088 -0.6205 0.7559
vn -0.3020 -0.9533 -0.0000
vn -0.2941 -0.0098 -0.9557
vn 0.3162 0.0296 -0.9482
vn 0.3168 0.0081 -0.9484
vn -0.2941 -0.0098 0.9557
vn -0.3042 0.0211 0.9524
vn -0.7073 -0.7070 -0.0000
vn -0.5284 -0.3852 0.7565
vn 0.6870 -0.4774 0.5478
vn 0.7999 -0.0809 0.5946
vn 0.9953 -0.0972 -0.0000
vn 0.3168 0.0081 0.9484
vn 0.8188 -0.0448 0.5723
vn 0.8301 0.0197 0.5573
vn 0.9986 -0.0523 -0.0000
vn 0.9997 0.0232 -0.0000
vn 0.9955 0.0952 -0.0000
vn 0.8255 0.0784 0.5589
vn 0.2229 -0.5821 0.7820
vn -0.8206 -0.0290 0.5707
vn -0.8289 0.0559 0.5566
vn -0.9993 -0.0361 -0.0000
vn -0.9979 0.0654 -0.0000
vn -0.9966 -0.0819 -0.0000
vn -0.8132 -0.0674 0.5781
vn -0.2848 -0.0240 0.9583
vn -0.7767 0.1943 0.5991
vn -0.9673 0.2538 -0.0000
vn -0.8277 -0.0284 0.5604
vn -0.9992 -0.0389 -0.0000
vn -0.2600 0.0596 -0.9638
vn 0.3020 -0.0178 -0.9531
vn 0.2757 -0.0349 -0.9606
vn -0.2086 -0.6206 -0.7559
vn -0.5284 -0.3852 -0.7565
vn 0.6870 -0.4774 -0.5478
vn 0.2229 -0.5821 -0.7820
vn 0.7999 -0.0809 -0.5946
vn 0.8188 -0.0448 -0.5723
vn 0.8301 0.0197 -0.5573
vn 0.8255 0.0784 -0.5589
vn -0.3041 0.0211 -0.9524
vn -0.8206 -0.0290 -0.5707
vn -0.8289 0.0559 -0.5566
vn -0.8132 -0.0674 -0.5781
vn -0.7767 0.1943 -0.5991
vn -0.8277 -0.0284 -0.5604
vn 0.3162 0.0296 0.9482
vn -0.7264 -0.0000 -0.6873
vn 1.0000 -0.0000 -0.0000
vn -0.2090 -0.0000 0.9779
vn -1.0000 -0.0000 -0.0000
vn 0.7897 -0.0000 0.6135
vn 0.7897 -0.0000 -0.6135
vn 0.2633 -0.0000 -0.9647
vn -0.7264 -0.0000 0.6873
vn -0.2090 -0.0000 -0.9779
vn 0.2633 -0.0000 0.9647
vn -0.2848 -0.0240 -0.9583
vn 0.7846 -0.6200 -0.0000
vt 0.467738 0.267683
vt 0.424192 0.420989
vt 0.421108 0.266876
vt 0.462907 0.114082
vt 0.425248 0.113952
vt 0.425468 0.004199
vt 0.463764 0.004199
vt 0.479493 0.114140
vt 0.487020 0.267750
vt 0.504045 0.114225
vt 0.511927 0.267836
vt 0.493595 0.421230
vt 0.512867 0.421297
vt 0.537622 0.421383
vt 0.480590 0.004199
vt 0.505055 0.004199
vt 0.400073 0.420905
vt 0.401939 0.266810
vt 0.374537 0.420817
vt 0.377139 0.266724
vt 0.408669 0.113894
vt 0.384135 0.113809
vt 0.408641 0.004199
vt 0.635279 0.283377
vt 0.592690 0.129912
vt 0.662245 0.129118
vt 0.628882 0.436606
vt 0.588750 0.283166
vt 0.590557 0.546384
vt 0.628854 0.546384
vt 0.645472 0.436681
vt 0.654555 0.283465
vt 0.670026 0.436793
vt 0.681507 0.129205
vt 0.679459 0.283578
vt 0.645680 0.546384
vt 0.670146 0.546384
vt 0.568571 0.129802
vt 0.569571 0.283079
vt 0.543036 0.129686
vt 0.574632 0.436359
vt 0.591205 0.436435
vt 0.550101 0.436248
vt 0.128618 0.944550
vt 0.085171 0.942575
vt 0.128185 0.936290
vt 0.218148 0.942266
vt 0.188863 0.933066
vt 0.218038 0.933956
vt 0.239827 0.936492
vt 0.239199 0.944710
vt 0.086353 0.950567
vt 0.063472 0.945728
vt 0.149667 0.941802
vt 0.179135 0.932823
vt 0.175946 0.941742
vt 0.282850 0.942726
vt 0.281488 0.950722
vt 0.302850 0.953235
vt 0.333433 0.949979
vt 0.328926 0.957786
vt 0.149968 0.933731
vt 0.573730 0.546384
vt 0.549251 0.546384
vt 0.304554 0.945820
vt 0.065142 0.953403
vt 0.034601 0.949976
vt 0.307164 0.286039
vt 0.254865 0.137391
vt 0.301351 0.125265
vt 0.302481 0.004203
vt 0.268435 0.040835
vt 0.263727 0.003906
vt 0.103037 0.541615
vt 0.056222 0.541615
vt 0.264547 0.541752
vt 0.265539 0.286039
vt 0.218599 0.023600
vt 0.239772 0.058121
vt 0.315819 0.043551
vt 0.326763 0.124728
vt 0.356970 0.122642
vt 0.311357 0.541752
vt 0.328746 0.286039
vt 0.334374 0.541752
vt 0.358096 0.286039
vt 0.363671 0.541752
vt 0.295755 0.042601
vt 0.241442 0.541752
vt 0.243893 0.286039
vt 0.211955 0.541752
vt 0.214784 0.286039
vt 0.233924 0.147571
vt 0.204834 0.153567
vt 0.218052 0.074666
vt 0.188863 0.071690
vt 0.113254 0.137443
vt 0.060811 0.285900
vt 0.066985 0.124947
vt 0.098946 0.041169
vt 0.064663 0.004490
vt 0.103203 0.003906
vt 0.148789 0.022480
vt 0.128374 0.057045
vt 0.051687 0.043818
vt 0.071699 0.042853
vt 0.011287 0.122572
vt 0.041523 0.124564
vt 0.039236 0.285900
vt 0.033203 0.541615
vt 0.009893 0.285900
vt 0.003906 0.541615
vt 0.102440 0.285900
vt 0.126145 0.541615
vt 0.124086 0.285900
vt 0.155633 0.541615
vt 0.134208 0.147495
vt 0.163303 0.153445
vt 0.150006 0.073856
vt 0.179135 0.070801
vt 0.568575 0.004199
vt 0.706731 0.004199
vt 0.706258 0.129318
vt 0.423526 0.546384
vt 0.373820 0.546384
vt 0.512781 0.546384
vt 0.681880 0.004199
vt 0.662419 0.004199
vt 0.399365 0.546384
vt 0.592718 0.004199
vt 0.493343 0.546384
vt 0.384162 0.004199
vt 0.544766 0.282966
vt 0.192030 0.942266
vt 0.039209 0.958046
vt 0.338293 0.027292
vt 0.029102 0.027700
vt 0.153192 0.285900
vt 0.543036 0.004199
vt 0.537622 0.546384
s 1
usemtl maxe
f 69/121/60 80/122/61 84/123/62
f 72/124/63 84/123/62 68/125/64
f 72/124/63 86/126/65 77/127/66
f 69/121/60 74/128/67 76/129/68
f 76/129/68 73/130/69 75/131/70
f 70/132/71 76/129/68 71/133/72
f 71/133/72 75/131/70 65/134/73
f 73/130/69 79/135/74 78/136/75
f 74/128/67 77/127/66 79/135/74
f 84/123/62 81/137/76 85/138/77
f 85/138/77 66/139/78 83/140/79
f 84/123/62 82/141/80 68/125/64
f 85/138/77 67/142/81 82/141/80
f 67/142/81 88/143/82 82/141/80
f 82/141/80 86/126/65 68/125/64
f 90/144/83 98/145/84 91/146/85
f 93/147/86 101/148/87 90/144/83
f 103/149/88 93/147/86 96/150/89
f 90/144/83 94/151/90 93/147/86
f 95/152/91 73/153/69 94/151/90
f 91/146/85 95/152/91 90/144/83
f 92/154/92 75/155/70 95/152/91
f 97/156/93 73/153/69 78/157/75
f 96/150/89 94/151/90 97/156/93
f 101/148/87 99/158/94 98/145/84
f 102/159/95 66/160/78 99/158/94
f 100/161/96 101/148/87 89/162/97
f 67/163/81 102/159/95 100/161/96
f 103/164/98 148/165/99 139/166/100
f 88/167/101 136/168/102 135/169/103
f 88/167/101 107/170/104 86/171/105
f 96/172/106 152/173/107 148/165/99
f 104/174/108 136/175/102 87/176/102
f 86/171/105 123/177/109 77/178/110
f 79/179/111 128/180/112 78/181/112
f 104/174/108 139/166/100 157/182/113
f 67/163/81 104/183/114 87/184/115
f 100/161/96 103/149/88 104/183/114
f 77/178/110 127/185/116 79/179/111
f 97/186/117 128/187/112 152/173/107
f 120/188/118 110/189/119 115/190/120
f 122/191/121 114/192/122 113/193/123
f 140/194/124 148/165/125 147/195/126
f 120/188/118 108/196/127 109/197/128
f 112/198/129 114/192/122 111/199/130
f 115/190/120 111/199/130 114/192/122
f 115/190/120 125/200/131 126/201/132
f 125/200/131 118/202/133 126/201/132
f 121/203/134 130/204/135 129/205/136
f 129/205/136 132/206/137 131/207/138
f 120/188/118 126/201/132 130/204/135
f 130/204/135 118/202/133 132/206/137
f 128/180/139 129/205/136 131/207/138
f 127/185/140 121/203/134 129/205/136
f 122/191/121 125/200/131 124/208/141
f 109/197/128 133/209/142 134/210/143
f 134/210/143 116/211/144 117/212/145
f 136/168/146 133/209/142 135/169/147
f 135/169/147 108/196/127 107/170/148
f 109/197/128 137/213/149 110/189/119
f 134/210/143 105/214/150 137/213/149
f 110/189/119 138/215/151 111/199/130
f 138/215/151 105/214/150 106/216/152
f 112/198/129 138/215/151 106/216/152
f 142/217/153 146/218/154 145/219/155
f 144/220/156 122/221/121 113/222/123
f 146/218/154 140/194/124 147/195/126
f 144/220/156 112/223/129 143/224/157
f 143/224/157 142/217/153 145/219/155
f 145/219/155 150/225/158 149/226/159
f 118/227/133 150/225/158 151/228/160
f 147/195/126 154/229/161 146/218/154
f 153/230/162 132/231/137 154/229/161
f 146/218/154 151/228/160 145/219/155
f 154/229/161 118/227/133 151/228/160
f 153/230/162 128/187/139 131/232/138
f 147/195/126 152/173/163 153/230/162
f 150/225/158 122/221/121 149/226/159
f 141/233/164 155/234/165 140/194/124
f 156/235/166 116/236/144 155/234/165
f 136/175/146 155/234/165 116/236/144
f 157/182/167 140/194/124 155/234/165
f 158/237/168 141/233/164 142/217/153
f 105/238/150 156/235/166 158/237/168
f 159/239/169 142/217/153 143/224/157
f 159/239/169 105/238/150 158/237/168
f 159/239/169 112/223/129 106/240/152
f 123/177/170 108/196/127 121/203/134
f 66/160/78 168/241/171 99/158/94
f 92/154/92 166/242/172 65/243/73
f 70/132/71 164/244/173 80/122/61
f 81/137/76 169/245/174 66/139/78
f 65/134/73 162/246/175 71/133/72
f 91/146/85 167/247/176 92/154/92
f 98/145/84 161/248/177 91/146/85
f 80/122/61 163/249/178 81/137/76
f 99/158/94 160/250/179 98/145/84
f 71/133/72 165/251/180 70/132/71
f 69/121/60 70/132/71 80/122/61
f 72/124/63 69/121/60 84/123/62
f 72/124/63 68/125/64 86/126/65
f 69/121/60 72/124/63 74/128/67
f 76/129/68 74/128/67 73/130/69
f 70/132/71 69/121/60 76/129/68
f 71/133/72 76/129/68 75/131/70
f 73/130/69 74/128/67 79/135/74
f 74/128/67 72/124/63 77/127/66
f 84/123/62 80/122/61 81/137/76
f 85/138/77 81/137/76 66/139/78
f 84/123/62 85/138/77 82/141/80
f 85/138/77 83/140/79 67/142/81
f 67/142/81 87/252/115 88/143/82
f 82/141/80 88/143/82 86/126/65
f 90/144/83 101/148/87 98/145/84
f 93/147/86 89/162/97 101/148/87
f 103/149/88 89/162/97 93/147/86
f 90/144/83 95/152/91 94/151/90
f 95/152/91 75/155/70 73/153/69
f 91/146/85 92/154/92 95/152/91
f 92/154/92 65/243/73 75/155/70
f 97/156/93 94/151/90 73/153/69
f 96/150/89 93/147/86 94/151/90
f 101/148/87 102/159/95 99/158/94
f 102/159/95 83/253/79 66/160/78
f 100/161/96 102/159/95 101/148/87
f 67/163/81 83/253/79 102/159/95
f 103/164/98 96/172/106 148/165/99
f 88/167/101 87/254/102 136/168/102
f 88/167/101 135/169/103 107/170/104
f 96/172/106 97/186/117 152/173/107
f 104/174/108 157/182/113 136/175/102
f 86/171/105 107/170/104 123/177/109
f 79/179/111 127/185/116 128/180/112
f 104/174/108 103/164/98 139/166/100
f 67/163/81 100/161/96 104/183/114
f 100/161/96 89/162/97 103/149/88
f 77/178/110 123/177/109 127/185/116
f 97/186/117 78/255/112 128/187/112
f 120/188/118 109/197/128 110/189/119
f 122/191/121 124/208/141 114/192/122
f 140/194/124 139/166/181 148/165/125
f 120/188/118 121/203/134 108/196/127
f 112/198/129 113/193/123 114/192/122
f 114/192/122 124/208/141 115/190/120
f 115/190/120 110/189/119 111/199/130
f 115/190/120 124/208/141 125/200/131
f 125/200/131 119/256/182 118/202/133
f 121/203/134 120/188/118 130/204/135
f 129/205/136 130/204/135 132/206/137
f 120/188/118 115/190/120 126/201/132
f 130/204/135 126/201/132 118/202/133
f 128/180/139 127/185/140 129/205/136
f 127/185/140 123/177/170 121/203/134
f 122/191/121 119/256/182 125/200/131
f 109/197/128 108/196/127 133/209/142
f 134/210/143 133/209/142 116/211/144
f 136/168/146 116/211/144 133/209/142
f 135/169/147 133/209/142 108/196/127
f 109/197/128 134/210/143 137/213/149
f 134/210/143 117/212/145 105/214/150
f 110/189/119 137/213/149 138/215/151
f 138/215/151 137/213/149 105/214/150
f 112/198/129 111/199/130 138/215/151
f 142/217/153 141/233/164 146/218/154
f 144/220/156 149/226/159 122/221/121
f 146/218/154 141/233/164 140/194/124
f 144/220/156 113/222/123 112/223/129
f 145/219/155 149/226/159 144/220/156
f 144/220/156 143/224/157 145/219/155
f 145/219/155 151/228/160 150/225/158
f 118/227/133 119/257/182 150/225/158
f 147/195/126 153/230/162 154/229/161
f 153/230/162 131/232/138 132/231/137
f 146/218/154 154/229/161 151/228/160
f 154/229/161 132/231/137 118/227/133
f 153/230/162 152/173/163 128/187/139
f 147/195/126 148/165/125 152/173/163
f 150/225/158 119/257/182 122/221/121
f 141/233/164 156/235/166 155/234/165
f 156/235/166 117/258/145 116/236/144
f 136/175/146 157/182/167 155/234/165
f 157/182/167 139/166/181 140/194/124
f 158/237/168 156/235/166 141/233/164
f 105/238/150 117/258/145 156/235/166
f 159/239/169 158/237/168 142/217/153
f 159/239/169 106/240/152 105/238/150
f 159/239/169 143/224/157 112/223/129
f 123/177/170 107/170/148 108/196/127
f 66/160/78 169/259/174 168/241/171
f 92/154/92 167/247/176 166/242/172
f 70/132/71 165/251/180 164/244/173
f 81/137/76 163/249/178 169/245/174
f 65/134/73 166/260/172 162/246/175
f 91/146/85 161/248/177 167/247/176
f 98/145/84 160/250/179 161/248/177
f 80/122/61 164/244/173 163/249/178
f 99/158/94 168/241/171 160/250/179
f 71/133/72 162/246/175 165/251/180
