# Blender 4.5.14 LTS
# www.blender.org
mtllib splitting_axe.mtl
o Axe_blade
v 0.071197 0.415983 0.027049
v -0.083338 0.500777 0.018227
v -0.073470 0.500799 0.019280
v -0.165768 0.518764 0.009430
v -0.133175 0.509319 0.012909
v -0.133175 0.422415 0.012920
v -0.165772 0.413681 0.009444
v -0.065565 0.503263 0.020124
v 0.038255 0.503263 0.015626
v 0.044298 0.503263 -0.000000
v 0.023665 0.503263 0.022013
v -0.017652 0.503263 0.022013
v -0.032207 0.503263 0.015626
v -0.038235 0.503263 -0.000000
v 0.082577 0.415983 0.015670
v 0.079244 0.415983 0.023716
v 0.071197 0.503263 0.027049
v 0.082577 0.503263 0.015670
v 0.079244 0.503263 0.023716
v -0.000758 0.415983 0.027049
v -0.000659 0.503263 0.027049
v -0.083339 0.429877 0.018236
v -0.073472 0.424879 0.019286
v -0.065565 0.415983 0.020130
v 0.042066 0.497246 -0.000000
v -0.030576 0.497246 0.014068
v 0.036626 0.497246 0.014067
v 0.023229 0.497246 0.019931
v -0.017215 0.497246 0.019931
v -0.036004 0.497246 -0.000000
v -0.204197 0.534362 0.001290
v -0.214982 0.503888 0.001012
v -0.219829 0.464507 0.000888
v -0.216871 0.424978 0.000966
v -0.210664 0.396432 0.001127
v -0.187165 0.405461 0.007162
v -0.183400 0.525921 0.007548
v -0.194747 0.496834 0.006477
v -0.200576 0.466165 0.005196
v -0.196726 0.435220 0.006149
v 0.071197 0.415983 -0.027049
v -0.083338 0.500777 -0.018227
v -0.133175 0.509319 -0.012909
v 0.038255 0.503263 -0.015627
v 0.023665 0.503263 -0.022013
v -0.017652 0.503263 -0.022013
v -0.032207 0.503263 -0.015627
v 0.082577 0.415983 -0.015670
v 0.079244 0.415983 -0.023716
v 0.071197 0.503263 -0.027049
v 0.082577 0.503263 -0.015670
v 0.079244 0.503263 -0.023716
v -0.000758 0.415983 -0.027049
v -0.083339 0.429877 -0.018237
v -0.065565 0.415983 -0.020131
v -0.030576 0.497246 -0.014068
v 0.036626 0.497246 -0.014067
v 0.023229 0.497246 -0.019931
v -0.017215 0.497246 -0.019931
v -0.214982 0.503888 -0.001012
v -0.219829 0.464507 -0.000888
v -0.210664 0.396432 -0.001127
v -0.187165 0.405461 -0.007163
v -0.183400 0.525921 -0.007548
v -0.165768 0.501656 0.009432
v -0.189236 0.511379 0.007718
v -0.165771 0.434837 0.009441
v -0.192083 0.420342 0.007251
v -0.083338 0.484952 0.018229
v -0.133175 0.492038 0.012911
v -0.133175 0.441882 0.012918
v -0.065565 0.454537 0.020128
v -0.000680 0.484952 0.027049
v -0.000715 0.454537 0.027049
v -0.004106 0.454537 0.032669
v -0.004106 0.484952 0.032666
v -0.165667 0.501655 0.013178
v -0.165698 0.434836 0.013310
v -0.133108 0.492038 0.020711
v -0.083320 0.484951 0.032215
v -0.133130 0.441881 0.020811
v -0.065577 0.454537 0.036373
v -0.033141 0.484952 0.043795
v -0.033155 0.454538 0.043855
v 0.035269 0.484952 0.027049
v 0.035269 0.454537 0.027052
v -0.073470 0.500799 -0.019280
v -0.165768 0.518764 -0.009430
v -0.133175 0.422415 -0.012921
v -0.165772 0.413681 -0.009444
v -0.000659 0.503263 -0.027049
v -0.073472 0.424879 -0.019286
v -0.065565 0.503263 -0.020124
v -0.204197 0.534362 -0.001290
v -0.216871 0.424978 -0.000966
v -0.194747 0.496834 -0.006477
v -0.200576 0.466165 -0.005196
v -0.196726 0.435220 -0.006149
v -0.165768 0.501656 -0.009432
v -0.189236 0.511379 -0.007718
v -0.165771 0.434837 -0.009441
v -0.192083 0.420342 -0.007251
v -0.083338 0.484952 -0.018229
v -0.133175 0.492038 -0.012911
v -0.133175 0.441882 -0.012918
v -0.065565 0.454537 -0.020128
v -0.000680 0.484952 -0.027049
v -0.000715 0.454537 -0.027049
v -0.004106 0.454537 -0.032669
v -0.004106 0.484952 -0.032666
v -0.165667 0.501655 -0.013178
v -0.165698 0.434836 -0.013310
v -0.133108 0.492038 -0.020711
v -0.083320 0.484951 -0.032215
v -0.133130 0.441881 -0.020811
v -0.065577 0.454537 -0.036373
v -0.033141 0.484952 -0.043795
v -0.033155 0.454538 -0.043855
v 0.035269 0.484952 -0.027049
v 0.035269 0.454537 -0.027052
v -0.035388 0.398112 -0.017268
v -0.019623 0.398112 -0.024512
v 0.038497 0.398112 -0.017269
v 0.022696 0.398112 -0.024513
v -0.035388 0.398112 0.017268
v -0.019623 0.398112 0.024512
v -0.042087 0.398112 -0.000000
v 0.038497 0.398112 0.017269
v 0.022696 0.398112 0.024513
v 0.045211 0.398112 -0.000000
v 0.045211 0.417868 -0.000000
v 0.022696 0.417868 0.024513
v 0.038497 0.417868 0.017269
v -0.042087 0.417868 -0.000000
v -0.019623 0.417868 0.024512
v -0.035388 0.417868 0.017268
v 0.022696 0.417868 -0.024513
v 0.038497 0.417868 -0.017269
v -0.019623 0.417868 -0.024512
v -0.035388 0.417868 -0.017268
vn -0.0000 -0.0000 1.0000
vn 0.1951 -0.0000 0.9808
vn 0.2001 -0.9798 -0.0000
vn -0.1795 -0.9838 -0.0000
vn 0.3060 -0.9520 -0.0000
vn 0.3245 0.9459 -0.0000
vn 0.2204 0.9754 -0.0000
vn -0.0945 -0.0084 0.9955
vn -0.0866 -0.0142 0.9961
vn 0.1366 0.9906 -0.0000
vn -0.1422 0.9898 -0.0000
vn 0.1959 -0.9806 0.0011
vn 0.0986 -0.9951 -0.0000
vn 0.1989 -0.9800 0.0013
vn -0.0453 0.9990 -0.0000
vn -0.0000 1.0000 -0.0000
vn 0.9808 -0.0000 0.1951
vn 0.7071 -0.0000 0.7071
vn 0.3587 -0.9335 -0.0000
vn 0.9808 -0.0000 -0.1951
vn -0.1049 0.3320 -0.9374
vn 0.1050 0.3320 -0.9374
vn 0.6827 0.3510 -0.6409
vn -0.9376 0.3478 -0.0000
vn -0.6819 0.3510 -0.6417
vn 0.9376 0.3477 -0.0000
vn -0.3168 -0.0630 -0.9464
vn -0.3199 -0.0391 0.9467
vn -0.3198 -0.0390 -0.9467
vn -0.2305 0.0038 0.9731
vn -0.3403 0.0679 0.9379
vn -0.3269 0.0066 0.9450
vn -0.3169 -0.0630 0.9464
vn -0.2429 -0.0468 0.9689
vn -0.2374 -0.0316 0.9709
vn -0.2311 -0.0122 0.9729
vn -0.2504 0.0512 0.9668
vn -0.3489 0.1072 0.9310
vn -0.3270 0.0067 -0.9450
vn -0.3403 0.0679 -0.9379
vn -0.3489 0.1072 -0.9310
vn -0.1060 -0.0000 -0.9944
vn -0.1060 0.0001 -0.9944
vn -0.1061 0.0001 -0.9944
vn 0.7071 -0.0000 -0.7071
vn 0.1951 -0.0000 -0.9808
vn 0.1050 0.3320 0.9374
vn -0.1049 0.3320 0.9374
vn 0.6827 0.3510 0.6409
vn -0.6819 0.3510 0.6417
vn -0.1061 0.0001 0.9944
vn -0.1060 0.0001 0.9944
vn -0.1060 -0.0000 0.9944
vn -0.0790 0.0200 0.9967
vn -0.0897 0.0120 0.9959
vn 0.1989 -0.9800 -0.0013
vn 0.3313 -0.9435 -0.0053
vn 0.3604 -0.9328 -0.0060
vn 0.4831 -0.8755 -0.0093
vn 0.0755 0.9971 0.0001
vn 0.3761 0.9266 -0.0000
vn 0.0701 0.0015 0.9975
vn 0.2515 0.0005 0.9679
vn 0.2511 0.0001 0.9680
vn 0.1412 0.0001 0.9900
vn -0.6183 -0.7859 -0.0000
vn -0.1794 -0.9838 -0.0000
vn 0.0755 0.9971 -0.0001
vn 0.2025 0.9793 -0.0021
vn 0.0604 0.9982 -0.0001
vn 0.3376 0.9413 -0.0074
vn 0.3834 0.9235 -0.0102
vn 0.3264 0.9452 -0.0067
vn 0.2180 0.9759 -0.0020
vn -0.0000 -1.0000 -0.0000
vn -0.0000 -0.0000 -1.0000
vn -0.0945 -0.0084 -0.9955
vn -0.0866 -0.0142 -0.9961
vn -0.0988 -0.0052 -0.9951
vn -0.2305 0.0037 -0.9731
vn -0.2384 0.0252 -0.9708
vn -0.2373 -0.0316 -0.9709
vn -0.2311 -0.0121 -0.9729
vn -0.2632 0.0764 -0.9617
vn -0.2504 0.0512 -0.9668
vn -0.3867 -0.9222 -0.0000
vn -0.0790 0.0200 -0.9967
vn -0.0898 0.0120 -0.9959
vn -0.0956 0.0079 -0.9954
vn 0.3313 -0.9435 0.0051
vn 0.3604 -0.9328 0.0061
vn 0.4831 -0.8755 0.0093
vn -0.2249 0.0020 0.9744
vn -0.1062 0.0002 -0.9943
vn 0.0793 -0.9969 -0.0001
vn 0.0701 0.0015 -0.9975
vn 0.2515 0.0005 -0.9679
vn 0.0697 0.0014 -0.9976
vn 0.2511 0.0001 -0.9680
vn 0.1412 0.0001 -0.9900
vn -0.0531 0.0001 0.9986
vn 0.2024 0.9793 0.0016
vn 0.2180 0.9759 0.0020
vn 0.1959 -0.9806 -0.0011
vn 0.3376 0.9413 0.0073
vn 0.3264 0.9452 0.0068
vn 0.3834 0.9235 0.0102
vn -0.0956 0.0079 0.9954
vn -0.2249 0.0020 -0.9744
vn 0.0697 0.0014 0.9976
vn -0.2384 0.0252 0.9708
vn -0.0532 -0.0000 0.9986
vn -0.0532 0.0001 0.9986
vn -0.0532 0.0001 -0.9986
vn -0.0531 0.0001 -0.9986
vn -0.0532 -0.0000 -0.9986
vn -0.0988 -0.0052 0.9951
vn -0.1062 0.0002 0.9943
vn -0.2137 -0.0000 -0.9769
vn 0.2133 -0.0000 -0.9770
vn -0.7282 -0.0000 -0.6853
vn -0.7282 -0.0000 0.6853
vn -1.0000 -0.0000 -0.0000
vn 0.7277 -0.0000 0.6859
vn 0.2133 -0.0000 0.9770
vn 1.0000 -0.0000 -0.0000
vn 0.7277 -0.0000 -0.6859
vn -0.2137 -0.0000 0.9769
vn -0.2632 0.0764 0.9617
vn 0.0604 0.9982 0.0001
vn 0.0793 -0.9969 0.0001
vn -0.2429 -0.0469 -0.9689
vt 0.073858 0.526105
vt 0.018912 0.474901
vt 0.143300 0.474901
vt 0.863867 0.670244
vt 0.908270 0.598427
vt 0.900694 0.670244
vt 0.895740 0.718338
vt 0.868822 0.718338
vt 0.956871 0.361318
vt 0.925035 0.312958
vt 0.961829 0.312958
vt 0.015633 0.813955
vt 0.025127 0.851582
vt 0.003906 0.844611
vt 0.917455 0.240896
vt 0.970909 0.226833
vt 0.969408 0.240896
vt 0.770841 0.222856
vt 0.759478 0.320165
vt 0.759663 0.221599
vt 0.972112 0.215032
vt 0.915955 0.226833
vt 0.914752 0.215032
vt 0.912060 0.146748
vt 0.921162 0.167491
vt 0.143300 0.450076
vt 0.018912 0.462488
vt 0.018912 0.450076
vt 0.143300 0.462488
vt 0.892488 0.750999
vt 0.872073 0.750999
vt 0.018912 0.405412
vt 0.176055 0.321216
vt 0.166979 0.262838
vt 0.176055 0.262635
vt 0.166979 0.241117
vt 0.176091 0.241172
vt 0.176055 0.366042
vt 0.166979 0.342743
vt 0.176055 0.342782
vt 0.176091 0.218671
vt 0.166979 0.218671
vt 0.166979 0.321008
vt 0.508560 0.919712
vt 0.505711 0.878745
vt 0.508560 0.878748
vt 0.477891 0.821232
vt 0.505711 0.770816
vt 0.505711 0.824593
vt 0.505711 0.919728
vt 0.468663 0.913023
vt 0.471149 0.890603
vt 0.474527 0.867525
vt 0.472897 0.751442
vt 0.505711 0.726099
vt 0.508560 0.824600
vt 0.508560 0.770800
vt 0.508560 0.726128
vt 0.031592 0.173822
vt 0.038714 0.159680
vt 0.073859 0.185154
vt 0.018912 0.393000
vt 0.143300 0.405412
vt 0.018912 0.380587
vt 0.143300 0.393000
vt 0.166979 0.174505
vt 0.176091 0.116127
vt 0.176091 0.174708
vt 0.166979 0.196223
vt 0.176091 0.196174
vt 0.166979 0.094600
vt 0.176091 0.071301
vt 0.176091 0.094561
vt 0.073859 0.670334
vt 0.038714 0.695808
vt 0.031592 0.681666
vt 0.154868 0.847485
vt 0.165394 0.813950
vt 0.175613 0.839214
vt 0.974188 0.420779
vt 0.968598 0.373682
vt 0.974070 0.372995
vt 0.972545 0.330097
vt 0.959341 0.635243
vt 0.930702 0.710244
vt 0.930702 0.591775
vt 0.129659 0.025420
vt 0.097673 0.012825
vt 0.129659 0.003906
vt 0.833628 0.590219
vt 0.790282 0.545905
vt 0.833628 0.545904
vt 0.790281 0.489222
vt 0.833627 0.489220
vt 0.854794 0.582664
vt 0.856290 0.598427
vt 0.943432 0.176083
vt 0.103327 0.807630
vt 0.093609 0.878701
vt 0.083471 0.805882
vt 0.105415 0.928435
vt 0.104676 0.964712
vt 0.100109 0.927834
vt 0.104675 0.879757
vt 0.945651 0.568863
vt 0.974373 0.519345
vt 0.974373 0.612292
vt 0.073858 0.329383
vt 0.117204 0.329384
vt 0.143300 0.380587
vt 0.015633 0.041533
vt 0.025127 0.003906
vt 0.045784 0.041534
vt 0.536378 0.821234
vt 0.538890 0.774886
vt 0.543124 0.890601
vt 0.539744 0.867526
vt 0.542435 0.728863
vt 0.541380 0.751445
vt 0.910969 0.565701
vt 0.909766 0.582664
vt 0.154868 0.008003
vt 0.165394 0.041538
vt 0.141012 0.041538
vt 0.765252 0.174501
vt 0.759781 0.173815
vt 0.761306 0.130916
vt 0.857651 0.784037
vt 0.807129 0.835129
vt 0.762423 0.784145
vt 0.139758 0.159681
vt 0.139790 0.173824
vt 0.117205 0.159681
vt 0.782501 0.322605
vt 0.788200 0.369683
vt 0.841782 0.248816
vt 0.798435 0.293130
vt 0.798436 0.248768
vt 0.841782 0.293131
vt 0.798435 0.349813
vt 0.143300 0.577308
vt 0.117204 0.526105
vt 0.073212 0.733209
vt 0.941822 0.781110
vt 0.930779 0.782384
vt 0.963010 0.422037
vt 0.931001 0.831067
vt 0.936293 0.830361
vt 0.932456 0.867322
vt 0.151932 0.767237
vt 0.141012 0.813951
vt 0.127305 0.767236
vt 0.848480 0.359325
vt 0.904612 0.354575
vt 0.916079 0.359325
vt 0.981981 0.122531
vt 0.974804 0.146748
vt 0.974804 0.087865
vt 0.981981 0.020124
vt 0.943432 0.058459
vt 0.965764 0.003906
vt 0.920829 0.370793
vt 0.843730 0.370793
vt 0.920829 0.473341
vt 0.843731 0.473342
vt 0.853591 0.565701
vt 0.932675 0.388439
vt 0.929993 0.361318
vt 0.052828 0.024322
vt 0.088706 0.012507
vt 0.088706 0.015721
vt 0.833709 0.663612
vt 0.772409 0.736504
vt 0.790335 0.637689
vt 0.815283 0.003906
vt 0.858981 0.012461
vt 0.865805 0.054998
vt 0.770577 0.054889
vt 0.749963 0.016285
vt 0.771175 0.009508
vt 0.763021 0.829527
vt 0.741810 0.822750
vt 0.790282 0.590267
vt 0.871547 0.818501
vt 0.850827 0.826574
vt 0.843891 0.736425
vt 0.879701 0.020534
vt 0.798488 0.201346
vt 0.841863 0.175423
vt 0.018912 0.577449
vt 0.073858 0.577387
vt 0.780563 0.102531
vt 0.117204 0.577338
vt 0.852044 0.102610
vt 0.117204 0.278150
vt 0.143300 0.278180
vt 0.018912 0.278039
vt 0.073858 0.278101
vt 0.055824 0.767236
vt 0.143301 0.185154
vt 0.028080 0.767236
vt 0.045784 0.813954
vt 0.055824 0.088252
vt 0.018913 0.670334
vt 0.028080 0.088252
vt 0.018913 0.185154
vt 0.151932 0.088252
vt 0.127305 0.088252
vt 0.117205 0.695807
vt 0.143301 0.670334
vt 0.139758 0.695807
vt 0.139790 0.681665
vt 0.904882 0.020124
vt 0.921162 0.067072
vt 0.912060 0.087865
vt 0.904882 0.122531
vt 0.965702 0.067072
vt 0.965702 0.167491
vt 0.585134 0.850474
vt 0.560522 0.840905
vt 0.609745 0.840905
vt 0.994189 0.944971
vt 0.966035 0.884659
vt 0.994189 0.884659
vt 0.994189 0.969697
vt 0.966035 0.944971
vt 0.994189 0.697266
vt 0.966035 0.670869
vt 0.994189 0.670869
vt 0.994189 0.807075
vt 0.966035 0.782304
vt 0.994189 0.782304
vt 0.994189 0.996094
vt 0.966035 0.969697
vt 0.994189 0.833481
vt 0.966035 0.807075
vt 0.966035 0.859888
vt 0.994189 0.859888
vt 0.994189 0.721992
vt 0.966035 0.697266
vt 0.966035 0.721992
vt 0.966035 0.833481
vt 0.620068 0.818387
vt 0.620068 0.758076
vt 0.550199 0.818387
vt 0.550201 0.758076
vt 0.609744 0.735608
vt 0.585135 0.726061
vt 0.560525 0.735607
vt 0.105415 0.638142
vt 0.100987 0.689183
vt 0.092589 0.693356
vt 0.979811 0.663285
vt 0.965896 0.608336
vt 0.925266 0.540830
vt 0.939180 0.595780
vt 0.754040 0.464105
vt 0.759478 0.413112
vt 0.767955 0.409156
vt 0.166979 0.364731
vt 0.475382 0.774888
vt 0.471832 0.728858
vt 0.166979 0.116335
vt 0.166979 0.072612
vt 0.950519 0.708104
vt 0.097673 0.016501
vt 0.951349 0.521785
vt 0.003906 0.010877
vt 0.545606 0.913020
vt 0.175613 0.016274
vt 0.841781 0.349815
vt 0.859948 0.354575
vt 0.921100 0.003906
vt 0.909632 0.008656
vt 0.977231 0.008656
vt 0.954189 0.388439
vt 0.052828 0.003906
vt 0.966035 0.996094
s 1
usemtl saxe
f 86/1/1 1/2/2 17/3/2
f 89/4/3 22/5/4 6/6/3
f 89/4/3 7/7/5 90/8/5
f 88/9/6 5/10/7 43/11/7
f 7/12/8 68/13/9 36/14/9
f 2/15/10 87/16/11 42/17/10
f 115/18/12 106/19/13 105/20/14
f 93/21/15 3/22/11 8/23/15
f 12/24/16 13/25/16 8/23/15
f 18/26/17 16/27/18 15/28/17
f 19/29/18 1/2/2 16/27/18
f 90/8/5 36/30/19 63/31/19
f 48/32/20 18/26/17 15/28/17
f 11/33/21 29/34/22 12/35/22
f 12/35/22 26/36/23 13/37/23
f 10/38/24 27/39/25 9/40/25
f 14/41/26 26/36/23 30/42/26
f 11/33/21 27/39/25 28/43/21
f 62/44/27 34/45/28 95/46/29
f 42/17/10 5/10/7 2/15/10
f 39/47/30 32/48/31 33/49/32
f 35/50/33 36/51/34 68/52/35
f 33/49/32 40/53/36 39/47/30
f 66/54/37 31/55/38 32/48/31
f 61/56/39 32/48/31 60/57/40
f 94/58/41 32/48/31 31/55/38
f 92/59/42 54/60/43 106/61/44
f 49/62/45 51/63/20 48/32/20
f 41/64/46 52/65/45 49/62/45
f 59/66/47 45/67/48 46/68/47
f 56/69/49 46/68/47 47/70/49
f 57/71/50 10/72/24 44/73/50
f 14/41/26 56/69/49 47/70/49
f 45/67/48 57/71/50 44/73/50
f 95/46/29 33/49/32 61/56/39
f 72/74/51 22/75/52 23/76/53
f 66/77/54 4/78/55 37/79/54
f 71/80/56 78/81/57 67/82/58
f 68/83/59 67/82/58 78/81/57
f 117/84/16 103/85/60 107/86/16
f 64/87/61 31/88/61 37/89/61
f 83/90/62 75/91/63 76/92/64
f 76/92/64 86/93/65 85/94/65
f 92/95/66 22/5/4 54/96/67
f 14/97/16 93/21/15 8/23/15
f 69/98/68 79/99/69 80/100/70
f 65/101/71 66/102/72 77/103/73
f 70/104/74 77/103/73 79/99/69
f 84/105/75 72/106/13 74/107/75
f 120/108/76 119/109/76 50/110/46
f 90/111/77 102/112/78 101/113/79
f 97/114/80 60/57/40 96/115/81
f 102/116/82 62/44/27 95/46/29
f 61/56/39 98/117/83 95/46/29
f 94/58/41 64/118/84 100/119/85
f 92/95/66 24/120/86 23/121/66
f 100/122/87 88/123/88 99/124/89
f 112/125/90 105/20/14 101/126/91
f 102/127/92 112/125/90 101/126/91
f 77/128/93 39/129/30 78/130/93
f 42/131/44 87/132/94 103/133/44
f 106/19/13 116/134/95 118/135/75
f 117/136/96 109/137/97 118/138/98
f 110/139/99 120/140/100 109/137/97
f 17/3/2 21/141/101 85/142/1
f 69/98/68 80/100/70 83/143/16
f 103/85/60 113/144/102 104/145/103
f 72/106/13 81/146/104 71/80/56
f 99/147/105 111/148/106 100/149/107
f 104/145/103 111/148/106 99/147/105
f 5/150/51 65/151/108 70/152/51
f 49/153/75 15/154/75 16/155/75
f 91/156/16 46/157/16 45/158/16
f 50/159/16 10/160/16 51/161/16
f 1/162/75 49/153/75 16/155/75
f 41/163/75 20/164/75 53/165/75
f 55/166/86 20/164/75 24/120/86
f 88/9/6 37/167/61 4/168/6
f 63/169/19 35/170/19 62/171/19
f 80/172/93 81/173/93 82/174/93
f 97/175/80 96/176/81 111/177/109
f 112/178/109 102/179/82 98/180/83
f 98/180/83 97/175/80 112/178/109
f 40/181/36 68/182/35 78/130/93
f 83/90/62 82/174/93 84/183/110
f 77/128/93 66/184/37 38/185/111
f 112/178/109 97/175/80 111/177/109
f 39/129/30 40/181/36 78/130/93
f 77/128/93 38/185/111 39/129/30
f 79/186/93 78/130/93 81/173/93
f 96/176/81 100/187/85 111/177/109
f 117/136/96 116/188/109 114/189/109
f 86/1/1 20/190/112 1/2/2
f 86/1/1 74/191/101 20/190/112
f 115/192/109 114/189/109 116/188/109
f 21/141/101 73/193/113 85/142/1
f 113/194/109 112/178/109 111/177/109
f 17/3/2 85/142/1 86/1/1
f 119/109/76 107/195/114 91/196/115
f 41/64/46 53/197/116 120/108/76
f 53/197/116 108/198/115 120/108/76
f 119/109/76 91/196/115 50/110/46
f 41/64/46 120/108/76 50/110/46
f 72/74/51 71/199/51 22/75/52
f 87/132/94 93/200/44 103/133/44
f 22/75/52 71/199/51 6/201/51
f 93/200/44 91/196/115 107/195/114
f 67/202/117 6/201/51 71/199/51
f 105/203/44 106/61/44 54/60/43
f 23/76/53 24/204/51 72/74/51
f 20/190/112 72/74/51 24/204/51
f 101/113/79 89/205/44 90/111/77
f 103/133/44 93/200/44 107/195/114
f 55/206/44 92/59/42 106/61/44
f 54/60/43 89/205/44 105/203/44
f 53/197/116 106/61/44 108/198/115
f 99/124/89 43/207/44 104/208/44
f 104/208/44 42/131/44 103/133/44
f 69/209/51 73/193/113 8/210/51
f 2/211/51 69/209/51 3/212/118
f 73/193/113 21/141/101 8/210/51
f 8/210/51 3/212/118 69/209/51
f 70/152/51 2/211/51 5/150/51
f 17/213/16 10/160/16 9/214/16
f 17/213/16 9/214/16 11/215/16
f 8/23/15 21/216/16 12/24/16
f 21/216/16 17/213/16 11/215/16
f 12/24/16 21/216/16 11/215/16
f 13/25/16 14/97/16 8/23/15
f 44/217/16 10/160/16 50/159/16
f 50/159/16 91/156/16 45/158/16
f 91/156/16 93/21/15 46/157/16
f 93/21/15 14/97/16 47/218/16
f 93/21/15 47/218/16 46/157/16
f 45/158/16 44/217/16 50/159/16
f 130/219/75 128/220/75 123/221/75
f 122/222/119 137/223/120 124/224/120
f 121/225/121 139/226/119 122/222/119
f 125/227/122 134/228/123 127/229/123
f 128/230/124 132/231/125 129/232/125
f 127/233/123 140/234/121 121/225/121
f 130/235/126 133/236/124 128/230/124
f 124/224/120 138/237/127 123/238/127
f 126/239/128 136/240/122 125/227/122
f 129/232/125 135/241/128 126/239/128
f 123/238/127 131/242/126 130/235/126
f 128/220/75 124/243/75 123/221/75
f 122/244/75 129/245/75 126/246/75
f 126/246/75 121/247/75 122/244/75
f 127/248/75 121/247/75 125/249/75
f 85/250/16 73/251/16 76/252/16
f 86/253/75 75/254/75 74/107/75
f 119/255/16 110/256/16 107/86/16
f 120/257/75 108/258/75 109/259/75
f 89/4/3 54/96/67 22/5/4
f 89/4/3 6/6/3 7/7/5
f 88/9/6 4/168/6 5/10/7
f 7/12/8 67/202/117 68/13/9
f 2/15/10 3/22/11 87/16/11
f 115/18/12 116/134/95 106/19/13
f 93/21/15 87/16/11 3/22/11
f 18/26/17 19/29/18 16/27/18
f 19/29/18 17/3/2 1/2/2
f 90/8/5 7/7/5 36/30/19
f 48/32/20 51/63/20 18/26/17
f 11/33/21 28/43/21 29/34/22
f 12/35/22 29/34/22 26/36/23
f 10/38/24 25/260/24 27/39/25
f 14/41/26 13/37/23 26/36/23
f 11/33/21 9/40/25 27/39/25
f 62/44/27 35/50/33 34/45/28
f 42/17/10 43/11/7 5/10/7
f 39/47/30 38/261/111 32/48/31
f 68/52/35 40/53/36 34/45/28
f 34/45/28 35/50/33 68/52/35
f 33/49/32 34/45/28 40/53/36
f 32/48/31 38/261/111 66/54/37
f 66/54/37 37/262/129 31/55/38
f 61/56/39 33/49/32 32/48/31
f 94/58/41 60/57/40 32/48/31
f 49/62/45 52/65/45 51/63/20
f 41/64/46 50/110/46 52/65/45
f 59/66/47 58/263/48 45/67/48
f 56/69/49 59/66/47 46/68/47
f 57/71/50 25/264/24 10/72/24
f 14/41/26 30/42/26 56/69/49
f 45/67/48 58/263/48 57/71/50
f 95/46/29 34/45/28 33/49/32
f 66/77/54 65/151/108 4/78/55
f 71/80/56 81/146/104 78/81/57
f 107/86/16 110/256/16 117/84/16
f 117/84/16 114/265/130 103/85/60
f 64/87/61 94/266/61 31/88/61
f 83/90/62 84/183/110 75/91/63
f 76/92/64 75/91/63 86/93/65
f 92/95/66 23/121/66 22/5/4
f 69/98/68 70/104/74 79/99/69
f 70/104/74 65/101/71 77/103/73
f 74/107/75 75/254/75 84/105/75
f 84/105/75 82/267/131 72/106/13
f 90/111/77 63/268/78 102/112/78
f 97/114/80 61/56/39 60/57/40
f 95/46/29 98/117/83 102/116/82
f 102/116/82 63/269/132 62/44/27
f 61/56/39 97/114/80 98/117/83
f 100/119/85 96/115/81 60/57/40
f 60/57/40 94/58/41 100/119/85
f 92/95/66 55/166/86 24/120/86
f 100/122/87 64/270/87 88/123/88
f 112/125/90 115/18/12 105/20/14
f 109/259/75 108/258/75 118/135/75
f 108/258/75 106/19/13 118/135/75
f 117/136/96 110/139/99 109/137/97
f 110/139/99 119/271/100 120/140/100
f 76/252/16 73/251/16 83/143/16
f 73/251/16 69/98/68 83/143/16
f 103/85/60 114/265/130 113/144/102
f 72/106/13 82/267/131 81/146/104
f 104/145/103 113/144/102 111/148/106
f 5/150/51 4/78/55 65/151/108
f 49/153/75 48/272/75 15/154/75
f 10/160/16 17/213/16 18/273/16
f 17/213/16 19/274/16 18/273/16
f 18/273/16 51/161/16 10/160/16
f 51/161/16 52/275/16 50/159/16
f 1/162/75 41/163/75 49/153/75
f 41/163/75 1/162/75 20/164/75
f 55/166/86 53/165/75 20/164/75
f 88/9/6 64/276/61 37/167/61
f 63/169/19 36/277/19 35/170/19
f 80/172/93 79/186/93 81/173/93
f 83/90/62 80/172/93 82/174/93
f 79/186/93 77/128/93 78/130/93
f 117/136/96 118/138/98 116/188/109
f 115/192/109 113/194/109 114/189/109
f 113/194/109 115/192/109 112/178/109
f 67/202/117 7/12/8 6/201/51
f 20/190/112 74/191/101 72/74/51
f 101/113/79 105/203/44 89/205/44
f 53/197/116 55/206/44 106/61/44
f 99/124/89 88/123/88 43/207/44
f 104/208/44 43/207/44 42/131/44
f 70/152/51 69/209/51 2/211/51
f 122/222/119 139/226/119 137/223/120
f 121/225/121 140/234/121 139/226/119
f 125/227/122 136/240/122 134/228/123
f 128/230/124 133/236/124 132/231/125
f 127/233/123 134/278/123 140/234/121
f 130/235/126 131/242/126 133/236/124
f 124/224/120 137/223/120 138/237/127
f 126/239/128 135/241/128 136/240/122
f 129/232/125 132/231/125 135/241/128
f 123/238/127 138/237/127 131/242/126
f 128/220/75 129/245/75 124/243/75
f 122/244/75 124/243/75 129/245/75
f 126/246/75 125/249/75 121/247/75
o Axe_grip
v -0.013507 0.000000 0.022013
v -0.013507 0.294410 0.022013
v -0.013507 -0.465980 0.022013
v -0.027013 0.286482 -0.000000
v 0.027013 0.318196 -0.000000
v -0.027013 -0.000000 0.000000
v -0.003936 -0.542615 0.000000
v 0.023665 0.415983 0.022013
v 0.044298 0.415983 -0.000000
v 0.038255 0.415983 0.015626
v 0.027013 -0.465980 0.000000
v 0.013507 -0.465980 0.022013
v 0.023057 -0.465980 0.015627
v 0.013507 0.310268 0.022013
v 0.023057 0.315874 0.015626
v 0.013507 0.000000 0.022013
v 0.027013 -0.000000 0.000000
v 0.023057 0.000000 0.015626
v -0.038235 0.415983 -0.000000
v -0.017652 0.415983 0.022013
v -0.032207 0.415983 0.015626
v -0.027013 -0.465980 0.000000
v -0.023057 -0.465980 0.015627
v -0.023057 0.288804 0.015626
v -0.023057 0.000000 0.015626
v 0.018491 -0.519880 0.022013
v -0.000001 -0.501388 0.022013
v -0.003831 -0.510634 0.022013
v 0.009245 -0.497558 0.022013
v 0.018491 -0.501388 0.020077
v 0.022321 -0.510634 0.018321
v -0.000001 -0.519880 0.022013
v 0.009245 -0.523710 0.022013
v 0.032600 -0.513534 0.000000
v 0.027361 -0.511173 0.015627
v -0.003420 -0.531619 0.020639
v -0.002928 -0.529212 0.022013
v 0.034123 -0.542363 0.000000
v 0.035455 -0.540562 0.000000
v -0.042038 -0.503181 0.000000
v -0.041569 -0.505628 0.000000
v 0.028279 -0.531619 0.014794
v 0.029150 -0.529212 0.015685
v -0.025015 -0.505802 0.022013
v -0.025988 -0.507625 0.020662
v -0.035239 -0.502476 0.015182
v -0.035577 -0.499954 0.015732
v 0.009245 -0.531619 0.020639
v 0.009245 -0.529212 0.022013
v -0.013507 -0.000000 -0.022013
v -0.013507 0.294410 -0.022013
v -0.013507 -0.465980 -0.022013
v 0.023665 0.415983 -0.022013
v 0.038255 0.415983 -0.015627
v 0.013507 -0.465980 -0.022013
v 0.023057 -0.465980 -0.015626
v 0.013507 0.310268 -0.022013
v 0.023057 0.315874 -0.015627
v 0.013507 -0.000000 -0.022013
v 0.023057 -0.000000 -0.015626
v -0.017652 0.415983 -0.022013
v -0.032207 0.415983 -0.015627
v -0.023057 -0.465980 -0.015626
v -0.023057 0.288804 -0.015627
v -0.023057 -0.000000 -0.015626
v 0.018491 -0.519880 -0.022013
v -0.000001 -0.501388 -0.022013
v -0.003831 -0.510634 -0.022013
v 0.009245 -0.497558 -0.022013
v 0.018491 -0.501388 -0.020077
v 0.022321 -0.510634 -0.018321
v -0.000001 -0.519880 -0.022013
v 0.009245 -0.523710 -0.022013
v 0.027361 -0.511173 -0.015626
v -0.003420 -0.531619 -0.020639
v -0.002928 -0.529212 -0.022013
v 0.028279 -0.531619 -0.014793
v 0.029150 -0.529212 -0.015685
v -0.025015 -0.505802 -0.022013
v -0.025988 -0.507625 -0.020661
v -0.035239 -0.502476 -0.015182
v -0.035577 -0.499954 -0.015732
v 0.009245 -0.531619 -0.020639
v 0.009245 -0.529212 -0.022013
v 0.023665 0.500661 0.022013
v 0.044298 0.500661 -0.000000
v 0.038255 0.500661 0.015626
v -0.038235 0.500661 -0.000000
v -0.017652 0.500661 0.022013
v -0.032207 0.500661 0.015626
v 0.023665 0.500661 -0.022013
v 0.038255 0.500661 -0.015627
v -0.017652 0.500661 -0.022013
v -0.032207 0.500661 -0.015627
vn 0.1618 -0.0049 0.9868
vn -0.1310 -0.0042 0.9914
vn -0.1607 -0.0026 0.9870
vn 0.2904 -0.0000 0.9569
vn -0.2589 0.0062 0.9659
vn 0.2675 0.0011 0.9636
vn 0.9992 -0.0391 -0.0000
vn 0.7630 -0.0628 0.6434
vn 0.8391 -0.0307 0.5431
vn 1.0000 -0.0000 -0.0000
vn 0.8170 -0.0000 0.5767
vn 0.9986 0.0534 -0.0000
vn 0.8594 0.0880 0.5036
vn 0.9945 0.1043 -0.0000
vn 0.8525 0.0072 0.5227
vn 0.2747 0.0139 0.9614
vn 0.1215 -0.0082 0.9926
vn -0.7656 -0.0331 0.6424
vn -0.8324 -0.0183 0.5539
vn -0.2905 -0.0000 0.9569
vn -0.8170 -0.0000 0.5767
vn -0.9997 -0.0245 -0.0000
vn -1.0000 -0.0000 -0.0000
vn -0.7772 0.1369 0.6141
vn -0.9821 0.1885 -0.0000
vn -0.9989 -0.0478 -0.0000
vn -0.0000 -0.0000 1.0000
vn 0.0578 -0.0078 0.9983
vn 0.3552 -0.6321 0.6887
vn 0.9990 0.0444 0.0001
vn 0.7645 -0.0417 0.6433
vn -0.0795 -0.1170 0.9899
vn -0.5772 -0.4730 0.6657
vn -0.3198 -0.6900 0.6494
vn 0.1171 -0.7083 0.6961
vn 0.1525 -0.2452 0.9574
vn -0.7333 -0.3958 0.5528
vn -0.2134 0.0288 0.9765
vn -0.7844 0.2565 0.5647
vn -0.9441 0.3297 0.0002
vn -0.8776 -0.4794 -0.0000
vn -0.3317 -0.9434 -0.0000
vn 0.3974 -0.0765 0.9145
vn 0.4632 -0.8862 -0.0000
vn -0.6935 -0.7205 -0.0000
vn 0.0093 -1.0000 -0.0000
vn -0.6940 0.7200 -0.0000
vn -1.0000 0.0071 -0.0000
vn 0.7071 -0.7071 -0.0000
vn 0.7071 0.7071 -0.0000
vn 0.0026 1.0000 -0.0000
vn 0.1618 -0.0049 -0.9868
vn -0.1310 -0.0036 -0.9914
vn 0.1216 -0.0082 -0.9926
vn -0.2589 0.0062 -0.9659
vn 0.2904 -0.0000 -0.9569
vn 0.2675 0.0011 -0.9636
vn 0.7630 -0.0623 -0.6434
vn 0.9961 -0.0880 -0.0000
vn 0.8391 -0.0307 -0.5431
vn 0.8170 -0.0000 -0.5767
vn 0.8594 0.0880 -0.5037
vn 0.2747 0.0139 -0.9614
vn 0.8525 0.0072 -0.5227
vn -0.1607 -0.0026 -0.9870
vn -0.7656 -0.0331 -0.6424
vn -0.2905 -0.0000 -0.9569
vn -0.8324 -0.0183 -0.5539
vn -0.8170 -0.0000 -0.5767
vn -0.7772 0.1369 -0.6141
vn 0.0578 -0.0078 -0.9983
vn -0.0000 -0.0000 -1.0000
vn 0.3552 -0.6321 -0.6886
vn -0.0795 -0.1170 -0.9899
vn -0.5772 -0.4729 -0.6657
vn -0.2134 0.0288 -0.9765
vn 0.1171 -0.7083 -0.6961
vn 0.1525 -0.2452 -0.9574
vn -0.7333 -0.3958 -0.5528
vn 0.7645 -0.0417 -0.6432
vn 0.1441 -0.1423 -0.9793
vn -0.7844 0.2565 -0.5647
vn 0.3974 -0.0765 -0.9145
vn -0.3199 -0.6900 -0.6492
vn -0.7304 -0.0000 -0.6830
vn 0.7296 -0.0000 -0.6839
vn 0.1135 -0.0000 -0.9935
vn 0.7296 -0.0000 0.6839
vn -0.1136 -0.0000 -0.9935
vn -0.1136 -0.0000 0.9935
vn -0.7304 -0.0000 0.6830
vn 0.1135 -0.0000 0.9935
vn -0.0000 1.0000 -0.0000
vn 0.5226 0.0476 0.8512
vn 0.1441 -0.1423 0.9793
vn 0.5226 0.0476 -0.8512
vt 0.703060 0.446365
vt 0.657772 0.597303
vt 0.664450 0.423781
vt 0.367776 0.003906
vt 0.406735 0.668972
vt 0.367910 0.668981
vt 0.742625 0.456837
vt 0.738937 0.597372
vt 0.719532 0.454240
vt 0.740384 0.003906
vt 0.717409 0.003906
vt 0.701046 0.003906
vt 0.328364 0.668940
vt 0.345383 0.735391
vt 0.321898 0.740775
vt 0.351430 0.669021
vt 0.359510 0.719974
vt 0.328364 0.003906
vt 0.351375 0.003906
vt 0.716388 0.597388
vt 0.635195 0.597265
vt 0.648044 0.415789
vt 0.662576 0.003906
vt 0.646212 0.003906
vt 0.625097 0.412164
vt 0.623250 0.003906
vt 0.406339 0.003906
vt 0.423243 0.669047
vt 0.422739 0.003906
vt 0.446307 0.668887
vt 0.611367 0.596676
vt 0.385169 0.718356
vt 0.372705 0.713497
vt 0.348918 0.764533
vt 0.333904 0.785378
vt 0.347802 0.760802
vt 0.388871 0.755186
vt 0.420519 0.728310
vt 0.389780 0.758896
vt 0.374687 0.759508
vt 0.374389 0.755731
vt 0.436312 0.723309
vt 0.418704 0.725581
vt 0.435762 0.720070
vt 0.458845 0.728307
vt 0.457248 0.733022
vt 0.384751 0.742647
vt 0.389733 0.730796
vt 0.399192 0.792118
vt 0.361633 0.744575
vt 0.336639 0.787989
vt 0.248146 0.814806
vt 0.187363 0.800268
vt 0.248146 0.800268
vt 0.248146 0.843353
vt 0.187363 0.829080
vt 0.248146 0.829080
vt 0.187363 0.814806
vt 0.248146 0.900447
vt 0.187363 0.886173
vt 0.248146 0.886173
vt 0.187363 0.871900
vt 0.248146 0.871900
vt 0.248146 0.857626
vt 0.187363 0.843353
vt 0.187363 0.857626
vt 0.550689 0.275483
vt 0.504020 0.124957
vt 0.562651 0.124349
vt 0.227185 0.668978
vt 0.266136 0.003906
vt 0.266011 0.668976
vt 0.590157 0.264651
vt 0.585205 0.124148
vt 0.608963 0.124992
vt 0.592038 0.717946
vt 0.567089 0.267459
vt 0.569063 0.717946
vt 0.288680 0.735274
vt 0.305548 0.668938
vt 0.312170 0.740618
vt 0.274422 0.720082
vt 0.282482 0.669027
vt 0.305548 0.003906
vt 0.282537 0.003906
vt 0.512285 0.298416
vt 0.481442 0.125212
vt 0.514230 0.717946
vt 0.495954 0.306557
vt 0.497866 0.717946
vt 0.473040 0.310391
vt 0.210677 0.669057
vt 0.227574 0.003906
vt 0.187614 0.668901
vt 0.211174 0.003906
vt 0.457599 0.126025
vt 0.261232 0.713537
vt 0.248777 0.718369
vt 0.285183 0.764418
vt 0.300247 0.785229
vt 0.297518 0.787846
vt 0.245185 0.755171
vt 0.213461 0.728350
vt 0.215267 0.725618
vt 0.259390 0.759452
vt 0.259679 0.755673
vt 0.197657 0.723371
vt 0.175132 0.728402
vt 0.176741 0.733121
vt 0.286291 0.760685
vt 0.249268 0.742625
vt 0.260473 0.747993
vt 0.244251 0.730792
vt 0.198203 0.720129
vt 0.234960 0.792127
vt 0.272425 0.744483
vt 0.244287 0.758882
vt 0.552700 0.717946
vt 0.480306 0.003906
vt 0.584842 0.003906
vt 0.611352 0.717946
vt 0.562061 0.003906
vt 0.762722 0.596306
vt 0.739883 0.717946
vt 0.608810 0.003906
vt 0.503015 0.003906
vt 0.657994 0.717946
vt 0.635280 0.717946
vt 0.717088 0.717946
vt 0.640837 0.734675
vt 0.694479 0.755468
vt 0.631736 0.755468
vt 0.663107 0.726062
vt 0.685378 0.734675
vt 0.631736 0.814351
vt 0.685378 0.835094
vt 0.640837 0.835094
vt 0.663107 0.843686
vt 0.248146 0.914720
vt 0.187363 0.900447
vt 0.353459 0.733765
vt 0.445751 0.003906
vt 0.373575 0.748053
vt 0.280609 0.733651
vt 0.474904 0.717946
vt 0.188162 0.003906
vt 0.456433 0.003906
vt 0.763770 0.717946
vt 0.694479 0.814351
vt 0.187363 0.914720
s 1
usemtl saxe
f 154/279/133 160/280/134 142/281/135
f 156/282/136 143/283/137 152/284/138
f 145/285/139 150/286/140 155/287/141
f 157/288/142 155/287/141 158/289/143
f 158/289/143 154/279/133 156/290/136
f 151/291/144 175/292/145 174/293/146
f 153/294/147 152/284/138 170/295/148
f 157/296/142 153/294/147 151/291/144
f 158/297/143 152/284/138 153/294/147
f 155/287/141 148/298/149 154/279/133
f 142/281/135 161/299/150 164/300/151
f 141/301/152 164/300/151 165/302/153
f 165/302/153 144/303/154 146/304/155
f 141/305/152 163/306/156 143/283/137
f 165/307/153 162/308/157 163/306/156
f 164/300/151 159/309/158 144/303/154
f 143/283/137 167/310/159 169/311/160
f 182/312/161 179/313/162 183/314/163
f 177/315/164 185/316/165 176/317/166
f 177/315/164 188/318/167 189/319/168
f 186/320/169 184/321/170 187/322/171
f 186/320/169 180/323/172 181/324/173
f 189/319/168 182/312/161 183/314/163
f 189/319/168 172/325/159 177/315/164
f 168/326/159 177/315/164 172/325/159
f 174/293/146 183/314/163 179/313/162
f 162/308/157 187/322/171 163/306/156
f 181/324/173 147/327/174 186/320/169
f 175/292/145 166/328/175 183/314/163
f 166/328/175 189/319/168 183/314/163
f 163/306/156 184/321/170 143/283/137
f 188/318/167 176/317/166 147/327/174
f 178/329/176 182/312/161 147/327/174
f 182/312/161 188/318/167 147/327/174
f 147/327/174 176/317/166 185/316/165
f 147/327/174 185/316/165 186/320/169
f 156/290/136 142/281/135 141/301/152
f 210/330/177 169/331/178 209/332/178
f 206/333/179 171/334/180 211/335/180
f 211/335/180 170/336/177 210/330/177
f 207/337/181 168/338/142 208/339/142
f 208/339/142 172/340/182 212/341/182
f 213/342/183 166/343/179 206/333/179
f 212/341/182 173/344/183 213/342/183
f 197/345/184 201/346/185 193/347/186
f 192/348/187 199/349/188 195/350/189
f 145/351/139 194/352/190 149/353/191
f 157/354/142 198/355/192 145/351/139
f 200/356/193 197/345/184 198/355/192
f 214/357/194 151/358/144 174/359/146
f 210/360/195 195/350/189 196/361/196
f 196/361/196 157/362/142 151/358/144
f 195/350/189 200/363/193 196/361/196
f 198/355/192 193/347/186 194/352/190
f 191/364/197 202/365/198 201/346/185
f 190/366/199 204/367/200 191/364/197
f 205/368/201 144/369/154 204/367/200
f 203/370/202 190/371/199 192/348/187
f 162/372/157 205/373/201 203/370/202
f 204/367/200 159/374/158 202/365/198
f 192/348/187 209/375/203 207/376/204
f 217/377/205 179/378/162 178/379/176
f 216/380/206 220/381/207 219/382/208
f 223/383/209 216/380/206 224/384/210
f 221/385/211 219/382/208 220/381/207
f 180/386/172 221/385/211 181/387/173
f 217/377/205 224/384/210 218/388/212
f 224/384/210 212/389/204 213/390/213
f 208/391/204 216/380/206 219/382/208
f 218/388/212 174/359/146 179/378/162
f 162/372/157 222/392/214 180/386/172
f 181/387/173 221/385/211 147/393/174
f 206/394/215 214/357/194 218/388/212
f 224/384/210 206/394/215 218/388/212
f 203/370/202 219/382/208 222/392/214
f 223/383/209 147/393/174 215/395/216
f 178/379/176 147/393/174 217/377/205
f 217/377/205 147/393/174 223/383/209
f 147/393/174 220/381/207 215/395/216
f 147/393/174 221/385/211 220/381/207
f 199/396/188 191/364/197 197/345/184
f 170/295/148 152/284/138 169/311/160
f 152/284/138 143/283/137 169/311/160
f 143/283/137 184/321/170 167/310/159
f 184/321/170 168/326/159 167/310/159
f 192/348/187 195/350/189 209/375/203
f 195/350/189 210/360/195 209/375/203
f 208/391/204 219/382/208 207/376/204
f 219/382/208 192/348/187 207/376/204
f 159/374/158 234/397/217 202/365/198
f 193/347/186 232/398/218 194/352/190
f 161/299/150 228/399/155 159/309/158
f 201/346/185 231/400/219 193/347/186
f 149/401/191 227/402/220 150/286/140
f 194/352/190 226/403/142 149/353/191
f 202/365/198 233/404/221 201/346/185
f 148/298/149 229/405/222 160/280/134
f 160/280/134 230/406/223 161/299/150
f 150/286/140 225/407/224 148/298/149
f 227/408/225 231/409/225 225/410/225
f 227/408/225 226/411/225 232/412/225
f 231/409/225 229/413/225 225/410/225
f 229/413/225 234/414/225 230/415/225
f 228/416/225 230/415/225 234/414/225
f 209/417/178 167/418/181 207/337/181
f 154/279/133 148/298/149 160/280/134
f 156/282/136 141/305/152 143/283/137
f 145/285/139 149/401/191 150/286/140
f 157/288/142 145/285/139 155/287/141
f 158/289/143 155/287/141 154/279/133
f 151/291/144 153/294/147 175/292/145
f 171/419/226 175/292/145 170/295/148
f 175/292/145 153/294/147 170/295/148
f 157/296/142 158/297/143 153/294/147
f 158/297/143 156/282/136 152/284/138
f 155/287/141 150/286/140 148/298/149
f 142/281/135 160/280/134 161/299/150
f 141/301/152 142/281/135 164/300/151
f 165/302/153 164/300/151 144/303/154
f 141/305/152 165/307/153 163/306/156
f 165/307/153 146/420/155 162/308/157
f 164/300/151 161/299/150 159/309/158
f 182/312/161 178/329/176 179/313/162
f 177/315/164 184/321/170 185/316/165
f 177/315/164 176/317/166 188/318/167
f 186/320/169 185/316/165 184/321/170
f 186/320/169 187/322/171 180/323/172
f 189/319/168 188/318/167 182/312/161
f 189/319/168 173/421/227 172/325/159
f 168/326/159 184/321/170 177/315/164
f 174/293/146 175/292/145 183/314/163
f 162/308/157 180/323/172 187/322/171
f 175/292/145 171/419/226 166/328/175
f 166/328/175 173/421/227 189/319/168
f 163/306/156 187/322/171 184/321/170
f 156/290/136 154/279/133 142/281/135
f 210/330/177 170/336/177 169/331/178
f 206/333/179 166/343/179 171/334/180
f 211/335/180 171/334/180 170/336/177
f 207/337/181 167/418/181 168/338/142
f 208/339/142 168/338/142 172/340/182
f 213/342/183 173/344/183 166/343/179
f 212/341/182 172/340/182 173/344/183
f 197/345/184 191/364/197 201/346/185
f 192/348/187 190/371/199 199/349/188
f 145/351/139 198/355/192 194/352/190
f 157/354/142 200/356/193 198/355/192
f 200/356/193 199/396/188 197/345/184
f 214/357/194 196/361/196 151/358/144
f 196/361/196 214/357/194 210/360/195
f 214/357/194 211/422/228 210/360/195
f 196/361/196 200/363/193 157/362/142
f 195/350/189 199/349/188 200/363/193
f 198/355/192 197/345/184 193/347/186
f 191/364/197 204/367/200 202/365/198
f 190/366/199 205/368/201 204/367/200
f 205/368/201 146/423/155 144/369/154
f 203/370/202 205/373/201 190/371/199
f 162/372/157 146/424/155 205/373/201
f 204/367/200 144/369/154 159/374/158
f 217/377/205 218/388/212 179/378/162
f 216/380/206 215/395/216 220/381/207
f 223/383/209 215/395/216 216/380/206
f 221/385/211 222/392/214 219/382/208
f 180/386/172 222/392/214 221/385/211
f 217/377/205 223/383/209 224/384/210
f 224/384/210 216/380/206 212/389/204
f 208/391/204 212/389/204 216/380/206
f 218/388/212 214/357/194 174/359/146
f 162/372/157 203/370/202 222/392/214
f 206/394/215 211/422/228 214/357/194
f 224/384/210 213/390/213 206/394/215
f 203/370/202 192/348/187 219/382/208
f 199/396/188 190/366/199 191/364/197
f 159/374/158 228/425/155 234/397/217
f 193/347/186 231/400/219 232/398/218
f 161/299/150 230/406/223 228/399/155
f 201/346/185 233/404/221 231/400/219
f 149/401/191 226/426/142 227/402/220
f 194/352/190 232/398/218 226/403/142
f 202/365/198 234/397/217 233/404/221
f 148/298/149 225/407/224 229/405/222
f 160/280/134 229/405/222 230/406/223
f 150/286/140 227/402/220 225/407/224
f 227/408/225 232/412/225 231/409/225
f 231/409/225 233/427/225 229/413/225
f 229/413/225 233/427/225 234/414/225
f 209/417/178 169/428/178 167/418/181
