# Blender 4.5.14 LTS
# www.blender.org
mtllib crowbar.mtl
o crowbar
v 0.041327 -0.730383 0.034040
v 0.047196 -0.725177 0.031663
v -0.007725 -0.601678 0.008100
v 0.009630 -0.596223 0.018290
v 0.026482 -0.591108 0.007805
v -0.017960 -0.556330 0.008100
v 0.000072 -0.554293 0.018249
v 0.017661 -0.552356 0.007831
v -0.018068 0.553963 0.008100
v -0.000072 0.554326 0.018000
v 0.017925 0.554689 0.008100
v -0.019131 0.586394 0.008100
v -0.001516 0.590095 0.018000
v 0.016099 0.593797 0.008100
v -0.025706 0.604592 0.008100
v -0.011374 0.615221 0.018000
v 0.002959 0.625851 0.008100
v -0.037717 0.613687 0.008100
v -0.032794 0.631294 0.018000
v -0.027871 0.648900 0.008100
v -0.052626 0.610874 0.008100
v -0.061896 0.626304 0.018000
v -0.070887 0.641513 0.008101
v -0.151339 0.522165 0.032123
v -0.155026 0.524949 0.033395
v -0.160260 0.528920 0.028679
v -0.113781 0.562194 0.019239
v -0.118449 0.566862 0.020500
v -0.124778 0.573464 0.013088
v -0.090789 0.586700 0.008100
v -0.094693 0.592066 0.016283
v -0.102438 0.601593 0.007312
v -0.151310 0.522195 0.011645
v -0.160061 0.528813 0.011644
v -0.125699 0.572017 -0.000000
v -0.129313 0.567584 0.006410
v -0.126782 0.570739 0.004248
v -0.118073 0.557620 -0.000000
v -0.121964 0.553473 0.006432
v -0.119213 0.556405 0.004254
v 0.041327 -0.730383 -0.034039
v 0.047196 -0.725177 -0.031663
v -0.007725 -0.601678 -0.008100
v 0.009630 -0.596223 -0.018290
v 0.026482 -0.591108 -0.007804
v -0.017960 -0.556330 -0.008100
v 0.000072 -0.554293 -0.018248
v 0.017661 -0.552356 -0.007831
v -0.018068 0.553963 -0.008100
v -0.000072 0.554326 -0.018000
v 0.017925 0.554689 -0.008100
v -0.019131 0.586394 -0.008100
v -0.001516 0.590095 -0.018000
v 0.016099 0.593797 -0.008100
v -0.025706 0.604592 -0.008100
v -0.011374 0.615221 -0.018000
v 0.002959 0.625851 -0.008100
v -0.037717 0.613687 -0.008100
v -0.032794 0.631294 -0.018000
v -0.027871 0.648900 -0.008100
v -0.052626 0.610874 -0.008100
v -0.061896 0.626304 -0.018000
v -0.070887 0.641513 -0.008102
v -0.151339 0.522165 -0.032123
v -0.155026 0.524949 -0.033395
v -0.160260 0.528920 -0.028679
v -0.113781 0.562194 -0.019240
v -0.118449 0.566862 -0.020500
v -0.124778 0.573464 -0.013088
v -0.090789 0.586700 -0.008100
v -0.094693 0.592066 -0.016283
v -0.102438 0.601593 -0.007312
v -0.151310 0.522195 -0.011646
v -0.160061 0.528813 -0.011644
v -0.129313 0.567584 -0.006410
v -0.126782 0.570739 -0.004249
v -0.121964 0.553473 -0.006433
v -0.119213 0.556405 -0.004255
v -0.018052 0.391393 0.008100
v -0.017976 -0.391393 0.008100
v 0.000051 -0.391393 0.018212
v -0.000051 0.391393 0.018036
v 0.017886 0.391393 -0.008061
v 0.017699 -0.391393 -0.007870
v 0.000051 -0.391393 -0.018212
v -0.000051 0.391393 -0.018037
v 0.017699 -0.391393 0.007870
v 0.017886 0.391393 0.008060
v -0.017976 -0.391393 -0.008100
v -0.018052 0.391393 -0.008100
vn -0.5022 -0.0172 0.8646
vn -0.4903 -0.0638 0.8692
vn -0.4904 -0.0638 0.8692
vn 0.4828 0.1581 0.8614
vn 0.4840 0.1654 0.8593
vn 0.2440 0.2046 0.9479
vn -0.4846 -0.0540 0.8731
vn 0.5035 0.0571 0.8621
vn -0.4832 -0.0086 0.8755
vn -0.4741 -0.0958 0.8752
vn -0.4825 -0.0085 0.8759
vn 0.4836 0.0102 0.8752
vn 0.4720 0.1028 0.8756
vn 0.4835 0.0093 0.8753
vn -0.4746 -0.0968 0.8749
vn -0.3853 -0.2895 0.8762
vn 0.4728 0.1023 0.8752
vn 0.3821 0.2961 0.8754
vn -0.3856 -0.2897 0.8760
vn -0.1047 -0.4624 0.8805
vn 0.3834 0.2939 0.8756
vn 0.1059 0.4645 0.8792
vn 0.2338 -0.4901 0.8397
vn -0.1136 -0.4603 0.8805
vn -0.2637 0.4337 0.8616
vn 0.1142 0.4625 0.8792
vn 0.4389 -0.1299 0.8891
vn 0.3074 0.0212 0.9514
vn 0.4394 -0.1305 0.8888
vn -0.3585 0.5001 0.7882
vn -0.4034 0.4168 0.8145
vn -0.4092 0.4023 0.8190
vn 0.4575 -0.3791 0.8043
vn 0.4569 -0.3798 0.8044
vn 0.2182 -0.4921 0.8428
vn -0.2588 0.4360 0.8619
vn -0.6032 -0.7976 -0.0021
vn -0.6030 -0.7977 -0.0020
vn -0.6031 -0.7976 -0.0021
vn -0.8839 -0.4677 -0.0000
vn -0.7101 -0.3752 -0.5958
vn -0.8837 -0.4681 -0.0000
vn -0.6503 -0.3433 -0.6777
vn -0.3172 -0.1760 -0.9319
vn -0.2361 -0.1388 -0.9618
vn -0.0899 -0.0710 -0.9934
vn -0.3306 0.5323 0.7793
vn -0.3525 0.5074 0.7864
vn -0.7844 0.6202 -0.0133
vn -0.7843 0.6202 -0.0131
vn -0.7843 0.6202 -0.0134
vn -0.7846 0.6200 -0.0000
vn -0.7851 0.6193 -0.0014
vn 0.3668 -0.9303 -0.0000
vn -0.2288 -0.9735 -0.0000
vn 0.2080 0.2024 0.9570
vn 0.6463 -0.7631 -0.0000
vn -0.8053 -0.5929 -0.0000
vn -0.9821 -0.1886 -0.0000
vn -0.9999 -0.0164 -0.0000
vn -0.9938 -0.1108 -0.0000
vn -0.9562 -0.2927 -0.0000
vn -0.9344 -0.3561 -0.0000
vn 0.7293 -0.6842 -0.0000
vn -0.6033 -0.7975 -0.0021
vn -0.7851 0.6193 0.0014
vn 0.2338 0.9723 -0.0000
vn 0.7907 0.6123 -0.0000
vn 0.7906 0.6123 -0.0000
vn 0.9764 0.2161 -0.0000
vn 0.9997 0.0232 -0.0000
vn 0.9938 0.1115 -0.0000
vn 0.9826 0.1856 -0.0000
vn 0.9883 0.1527 -0.0000
vn 0.6635 -0.7481 -0.0000
vn 0.6636 -0.7481 -0.0000
vn -0.5091 0.8607 -0.0000
vn -0.5022 -0.0172 -0.8646
vn -0.4904 -0.0638 -0.8692
vn -0.4903 -0.0638 -0.8692
vn 0.4828 0.1581 -0.8614
vn 0.2440 0.2046 -0.9479
vn 0.4840 0.1654 -0.8593
vn -0.4847 -0.0540 -0.8730
vn 0.5035 0.0571 -0.8621
vn -0.4828 -0.0085 -0.8757
vn -0.4742 -0.0958 -0.8752
vn -0.4742 -0.0967 -0.8751
vn 0.4836 0.0102 -0.8752
vn 0.4721 0.1028 -0.8755
vn 0.4720 0.1023 -0.8756
vn -0.3853 -0.2895 -0.8762
vn -0.3856 -0.2897 -0.8760
vn 0.3821 0.2961 -0.8754
vn 0.3834 0.2939 -0.8756
vn -0.1050 -0.4632 -0.8800
vn -0.1135 -0.4603 -0.8805
vn 0.1059 0.4645 -0.8792
vn 0.1142 0.4625 -0.8792
vn 0.2338 -0.4901 -0.8397
vn -0.2637 0.4337 -0.8616
vn 0.4389 -0.1299 -0.8891
vn 0.3073 0.0212 -0.9514
vn -0.4034 0.4168 -0.8145
vn -0.3586 0.5002 -0.7882
vn -0.4092 0.4023 -0.8190
vn 0.4575 -0.3791 -0.8043
vn 0.4394 -0.1305 -0.8888
vn 0.2182 -0.4921 -0.8428
vn -0.2588 0.4360 -0.8619
vn -0.6032 -0.7976 0.0021
vn -0.6031 -0.7976 0.0021
vn -0.6030 -0.7977 0.0020
vn -0.7102 -0.3753 0.5957
vn -0.3173 -0.1760 0.9319
vn -0.6503 -0.3433 0.6777
vn -0.2361 -0.1388 0.9618
vn -0.0899 -0.0710 0.9934
vn -0.0900 -0.0710 0.9934
vn -0.3524 0.5073 -0.7864
vn -0.3306 0.5323 -0.7793
vn -0.7844 0.6202 0.0133
vn -0.7843 0.6202 0.0131
vn -0.7843 0.6202 0.0134
vn 0.2080 0.2024 -0.9570
vn -0.6033 -0.7975 0.0021
vn -0.4851 -0.0541 0.8728
vn 0.5033 0.0568 0.8622
vn 0.3073 0.0212 0.9514
vn -0.0900 -0.0710 -0.9934
vn -0.4851 -0.0541 -0.8728
vn 0.5031 0.0571 -0.8624
vn -0.4829 -0.0074 -0.8756
vn 0.4831 0.0103 -0.8755
vn 0.4569 -0.3798 -0.8044
vn -0.4844 -0.0000 0.8748
vn -0.4880 -0.0000 0.8728
vn -0.4881 -0.0000 0.8728
vn 0.4900 -0.0000 0.8717
vn 0.5017 -0.0000 0.8650
vn 0.4899 -0.0000 -0.8718
vn 0.5017 -0.0000 -0.8650
vn -0.4845 -0.0000 -0.8748
vn -0.4881 -0.0000 -0.8728
vn -0.4844 -0.0000 -0.8748
vn 1.0000 -0.0002 -0.0000
vn -1.0000 -0.0001 -0.0000
vt 0.759148 0.437016
vt 0.794425 0.264733
vt 0.820150 0.270814
vt 0.769526 0.257256
vt 0.805134 0.210841
vt 0.779234 0.208343
vt 0.217777 0.412918
vt 0.244997 0.372260
vt 0.243814 0.413377
vt 0.191739 0.412455
vt 0.219380 0.367563
vt 0.252334 0.348853
vt 0.193764 0.362867
vt 0.230375 0.335164
vt 0.266123 0.335625
vt 0.208425 0.321468
vt 0.254936 0.311747
vt 0.292228 0.309943
vt 0.299136 0.285211
vt 0.243815 0.287858
vt 0.385340 0.359410
vt 0.444404 0.400473
vt 0.381422 0.366939
vt 0.390161 0.345372
vt 0.345333 0.339248
vt 0.352254 0.321155
vt 0.339936 0.351597
vt 0.285419 0.334858
vt 0.913972 0.031382
vt 0.903061 0.007833
vt 0.907696 0.003906
vt 0.933994 0.094516
vt 0.953855 0.088782
vt 0.954644 0.094516
vt 0.933309 0.088766
vt 0.951820 0.083337
vt 0.931654 0.083210
vt 0.926589 0.025535
vt 0.452473 0.386403
vt 0.488003 0.066704
vt 0.494627 0.003962
vt 0.516227 0.003906
vt 0.496473 0.076116
vt 0.485264 0.071832
vt 0.479877 0.073957
vt 0.489160 0.121663
vt 0.528618 0.314266
vt 0.549143 0.295042
vt 0.549143 0.314266
vt 0.751204 0.430339
vt 0.528618 0.371505
vt 0.549143 0.371505
vt 0.528618 0.295042
vt 0.549143 0.275954
vt 0.528618 0.275954
vt 0.549143 0.251438
vt 0.528618 0.251438
vt 0.549143 0.210325
vt 0.717210 0.237480
vt 0.737750 0.178538
vt 0.737750 0.237480
vt 0.717210 0.178538
vt 0.770638 0.003906
vt 0.538880 0.422027
vt 0.563257 0.414080
vt 0.544271 0.424138
vt 0.917764 0.005827
vt 0.579581 0.483627
vt 0.547030 0.429233
vt 0.553635 0.483574
vt 0.470617 0.121668
vt 0.469648 0.241523
vt 0.490200 0.290325
vt 0.469659 0.290330
vt 0.490210 0.334249
vt 0.469670 0.334254
vt 0.490213 0.383844
vt 0.469691 0.383849
vt 0.612382 0.238941
vt 0.592582 0.188577
vt 0.612361 0.188582
vt 0.562393 0.016673
vt 0.642634 0.016693
vt 0.559384 0.006731
vt 0.645648 0.006752
vt 0.469632 0.186183
vt 0.490176 0.186178
vt 0.911584 0.437017
vt 0.850590 0.270813
vt 0.876315 0.264732
vt 0.901214 0.257257
vt 0.865608 0.210840
vt 0.891508 0.208343
vt 0.426426 0.131613
vt 0.399205 0.090955
vt 0.424822 0.086259
vt 0.452464 0.131151
vt 0.450438 0.081562
vt 0.391868 0.067548
vt 0.413827 0.053859
vt 0.435777 0.040164
vt 0.378079 0.054320
vt 0.389266 0.030443
vt 0.400387 0.006553
vt 0.351974 0.028638
vt 0.345066 0.003906
vt 0.258863 0.078105
vt 0.199798 0.119168
vt 0.196133 0.114337
vt 0.298869 0.057943
vt 0.254042 0.064068
vt 0.291948 0.039851
vt 0.262781 0.085635
vt 0.358783 0.053553
vt 0.913972 0.157650
vt 0.907696 0.185127
vt 0.903061 0.181200
vt 0.953855 0.100251
vt 0.951820 0.105696
vt 0.933309 0.100267
vt 0.931654 0.105823
vt 0.926589 0.163498
vt 0.191730 0.105099
vt 0.471747 0.066708
vt 0.443493 0.003924
vt 0.465093 0.003969
vt 0.463282 0.076124
vt 0.474489 0.071835
vt 0.919529 0.430341
vt 0.514504 0.414080
vt 0.533490 0.424138
vt 0.917764 0.183206
vt 0.530730 0.429233
vt 0.498180 0.483627
vt 0.524126 0.483574
vt 0.490188 0.241518
vt 0.831360 0.213380
vt 0.448069 0.395641
vt 0.528618 0.210325
vt 0.684322 0.003906
vt 0.592537 0.238936
vt 0.839382 0.213377
vt 0.400388 0.132072
vt 0.304266 0.070292
vt 0.029969 0.996094
vt 0.003906 0.003906
vt 0.030105 0.003906
vt 0.056027 0.003906
vt 0.055984 0.996094
vt 0.093416 0.996094
vt 0.067358 0.003906
vt 0.093280 0.003906
vt 0.119479 0.003906
vt 0.119479 0.996094
vt 0.182969 0.003906
vt 0.162537 0.996094
vt 0.163019 0.003906
vt 0.151344 0.003906
vt 0.130811 0.996094
vt 0.130811 0.003906
vt 0.831360 0.004782
vt 0.528617 0.003906
vt 0.217748 0.619463
vt 0.243814 0.619463
vt 0.737750 0.446154
vt 0.717210 0.446154
vt 0.805163 0.004368
vt 0.191730 0.619463
vt 0.469792 0.590710
vt 0.865588 0.004367
vt 0.891508 0.003906
vt 0.452473 0.338159
vt 0.592437 0.443324
vt 0.612382 0.443329
vt 0.839391 0.004780
vt 0.426454 0.338159
vt 0.003906 0.996094
vt 0.067402 0.996094
vt 0.182969 0.996094
vt 0.151344 0.996094
vt 0.549143 0.003906
vt 0.779243 0.003906
vt 0.490213 0.590705
vt 0.400388 0.338159
s 1
usemtl crowbar_blue
f 1/1/1 4/2/2 3/3/3
f 5/4/4 4/2/5 1/1/6
f 7/5/7 3/3/3 4/2/2
f 8/6/8 4/2/5 5/4/4
f 10/7/9 12/8/10 9/9/11
f 11/10/12 13/11/13 10/7/14
f 13/11/15 15/12/16 12/8/10
f 14/13/17 16/14/18 13/11/13
f 16/14/19 18/15/20 15/12/16
f 17/16/21 19/17/22 16/14/18
f 22/18/23 18/15/20 19/17/24
f 23/19/25 19/17/22 20/20/26
f 28/21/27 24/22/28 27/23/29
f 29/24/30 31/25/31 32/26/32
f 31/25/33 27/23/29 30/27/34
f 31/25/33 21/28/35 22/18/23
f 32/26/32 22/18/36 23/19/25
f 33/29/37 24/30/38 25/31/39
f 38/32/40 37/33/41 35/34/42
f 40/35/43 36/36/44 37/33/41
f 39/37/45 34/38/46 36/36/44
f 26/39/47 28/21/48 29/24/30
f 36/40/49 34/41/50 26/42/50
f 36/40/49 26/42/50 29/43/49
f 37/44/51 36/40/49 29/43/49
f 37/44/51 29/43/49 35/45/52
f 29/43/49 32/46/53 35/45/52
f 61/47/54 18/48/55 21/49/54
f 2/50/56 5/4/4 1/1/6
f 70/51/57 21/49/54 30/52/57
f 58/53/55 15/54/58 18/48/55
f 55/55/58 12/56/59 15/54/58
f 52/57/59 9/58/60 12/56/59
f 46/59/61 3/60/62 6/61/61
f 43/62/62 1/63/63 3/60/62
f 38/64/64 70/51/57 30/52/57
f 27/65/64 40/66/64 38/64/64
f 26/67/65 34/38/37 25/31/39
f 34/38/37 33/29/37 25/31/39
f 27/65/64 24/68/64 39/69/64
f 24/68/64 33/70/64 39/69/64
f 32/46/53 72/71/66 35/45/52
f 30/52/57 27/65/64 38/64/64
f 27/65/64 39/69/64 40/66/64
f 60/72/67 17/73/68 57/74/69
f 57/74/69 14/75/70 54/76/70
f 54/76/70 11/77/71 51/78/71
f 48/79/72 5/80/73 45/81/73
f 45/81/73 2/82/74 42/83/74
f 42/83/75 1/84/76 41/85/75
f 63/86/77 32/46/53 23/87/77
f 41/88/78 43/89/79 44/90/80
f 45/91/81 41/88/82 44/90/83
f 43/89/79 47/92/84 44/90/80
f 44/90/83 48/93/85 45/91/81
f 50/94/86 52/95/87 53/96/88
f 51/97/89 53/96/90 54/98/91
f 53/96/88 55/99/92 56/100/93
f 54/98/91 56/100/94 57/101/95
f 56/100/93 58/102/96 59/103/97
f 57/101/95 59/103/98 60/104/99
f 58/102/96 62/105/100 59/103/97
f 59/103/98 63/106/101 60/104/99
f 68/107/102 64/108/103 65/109/103
f 71/110/104 69/111/105 72/112/106
f 71/110/107 67/113/108 68/107/102
f 61/114/109 71/110/107 62/105/100
f 62/105/110 72/112/106 63/106/101
f 73/115/111 65/116/112 64/117/113
f 76/118/114 38/32/40 35/34/42
f 75/119/115 78/120/116 76/118/114
f 77/121/117 74/122/118 73/115/119
f 68/107/120 66/123/121 69/111/105
f 75/124/122 66/125/123 74/126/123
f 75/124/122 69/127/122 66/125/123
f 76/128/124 69/127/122 75/124/122
f 76/128/124 35/45/52 69/127/122
f 69/127/122 35/45/52 72/71/66
f 42/129/125 41/88/82 45/91/81
f 67/130/64 38/64/64 78/131/64
f 66/132/126 65/116/112 74/122/111
f 74/122/111 65/116/112 73/115/111
f 67/130/64 77/133/64 64/134/64
f 64/134/64 77/133/64 73/135/64
f 70/51/57 38/64/64 67/130/64
f 67/130/64 78/131/64 77/133/64
f 63/86/77 20/136/67 60/72/67
f 7/5/7 6/137/127 3/3/3
f 8/6/8 7/5/128 4/2/5
f 10/7/9 13/11/15 12/8/10
f 11/10/12 14/13/17 13/11/13
f 13/11/15 16/14/19 15/12/16
f 14/13/17 17/16/21 16/14/18
f 16/14/19 19/17/24 18/15/20
f 17/16/21 20/20/26 19/17/22
f 22/18/23 21/28/35 18/15/20
f 23/19/25 22/18/36 19/17/22
f 28/21/27 25/138/129 24/22/28
f 29/24/30 28/21/48 31/25/31
f 31/25/33 28/21/27 27/23/29
f 31/25/33 30/27/34 21/28/35
f 32/26/32 31/25/31 22/18/36
f 38/32/40 40/35/43 37/33/41
f 40/35/43 39/37/45 36/36/44
f 39/37/45 33/29/130 34/38/46
f 26/39/47 25/138/47 28/21/48
f 61/47/54 58/53/55 18/48/55
f 70/51/57 61/47/54 21/49/54
f 58/53/55 55/55/58 15/54/58
f 55/55/58 52/57/59 12/56/59
f 52/57/59 49/139/60 9/58/60
f 46/59/61 43/62/62 3/60/62
f 43/62/62 41/140/63 1/63/63
f 60/72/67 20/136/67 17/73/68
f 57/74/69 17/73/68 14/75/70
f 54/76/70 14/75/70 11/77/71
f 48/79/72 8/141/72 5/80/73
f 45/81/73 5/80/73 2/82/74
f 42/83/75 2/82/76 1/84/76
f 63/86/77 72/71/66 32/46/53
f 43/89/79 46/142/131 47/92/84
f 44/90/83 47/92/132 48/93/85
f 50/94/86 49/143/133 52/95/87
f 51/97/89 50/94/134 53/96/90
f 53/96/88 52/95/87 55/99/92
f 54/98/91 53/96/90 56/100/94
f 56/100/93 55/99/92 58/102/96
f 57/101/95 56/100/94 59/103/98
f 58/102/96 61/114/109 62/105/100
f 59/103/98 62/105/110 63/106/101
f 68/107/102 67/113/108 64/108/103
f 71/110/104 68/107/120 69/111/105
f 71/110/107 70/144/135 67/113/108
f 61/114/109 70/144/135 71/110/107
f 62/105/110 71/110/104 72/112/106
f 76/118/114 78/120/116 38/32/40
f 75/119/115 77/121/117 78/120/116
f 77/121/117 75/119/115 74/122/118
f 68/107/120 65/109/121 66/123/121
f 63/86/77 23/87/77 20/136/67
f 82/145/136 80/146/137 81/147/138
f 82/145/139 87/148/140 88/149/139
f 86/150/141 84/151/142 85/152/142
f 86/150/143 89/153/144 90/154/145
f 84/155/146 88/156/146 87/157/146
f 80/158/147 90/159/147 89/160/147
f 7/5/7 80/161/137 6/137/127
f 90/162/147 9/58/60 49/139/60
f 82/163/136 9/9/11 79/164/136
f 46/59/61 80/165/147 89/166/147
f 8/6/8 81/167/140 7/5/128
f 88/168/139 10/7/14 82/163/139
f 11/77/71 83/169/146 51/78/71
f 48/93/85 85/170/142 84/171/142
f 83/172/141 50/94/134 51/97/89
f 87/173/146 48/79/72 84/174/146
f 47/92/84 89/175/144 85/170/144
f 86/176/143 49/143/133 50/94/86
f 82/145/136 79/177/136 80/146/137
f 82/145/139 81/147/140 87/148/140
f 86/150/141 83/178/141 84/151/142
f 86/150/143 85/152/144 89/153/144
f 84/155/146 83/179/146 88/156/146
f 80/158/147 79/180/147 90/159/147
f 7/5/7 81/167/138 80/161/137
f 90/162/147 79/181/147 9/58/60
f 82/163/136 10/7/9 9/9/11
f 46/59/61 6/61/61 80/165/147
f 8/6/8 87/182/140 81/167/140
f 88/168/139 11/10/12 10/7/14
f 11/77/71 88/183/146 83/169/146
f 48/93/85 47/92/132 85/170/142
f 83/172/141 86/176/141 50/94/134
f 87/173/146 8/141/72 48/79/72
f 47/92/84 46/142/131 89/175/144
f 86/176/143 90/184/145 49/143/133
