# Blender 4.5.14 LTS
# www.blender.org
mtllib power_hammer.mtl
o Grip
v 0.000000 0.300000 -0.049394
v -0.048113 0.300000 -0.034927
v -0.068043 0.300000 0.000000
v -0.048113 0.300000 0.034927
v 0.000000 0.300000 0.049394
v 0.048113 0.300000 0.034927
v 0.068043 0.300000 0.000000
v 0.048113 0.300000 -0.034927
v 0.068043 -0.039824 0.000000
v 0.048113 -0.039824 -0.034927
v 0.000000 -0.039824 0.049394
v 0.048113 -0.039824 0.034927
v -0.068043 -0.039824 0.000000
v -0.048113 -0.039824 0.034927
v 0.000000 -0.039824 -0.049394
v -0.048113 -0.039824 -0.034927
v 0.000000 -0.184201 -0.053085
v -0.051709 -0.184201 -0.037537
v -0.073127 -0.184201 0.000000
v -0.051709 -0.184201 0.037537
v 0.000000 -0.184201 0.053085
v 0.051709 -0.184201 0.037537
v 0.073127 -0.184201 0.000000
v 0.051709 -0.184201 -0.037537
v 0.000000 -0.495065 -0.053085
v 0.000000 -0.500000 -0.047593
v -0.048182 -0.500000 -0.033105
v -0.051709 -0.495065 -0.037537
v -0.067072 -0.500000 0.000000
v -0.073127 -0.495065 0.000000
v -0.048182 -0.500000 0.033106
v -0.051709 -0.495065 0.037537
v -0.000000 -0.500000 0.047594
v 0.000000 -0.495065 0.053085
v 0.048182 -0.500000 0.033106
v 0.051709 -0.495065 0.037537
v 0.067072 -0.500000 0.000000
v 0.073127 -0.495065 0.000000
v 0.048182 -0.500000 -0.033105
v 0.051709 -0.495065 -0.037537
v 0.062193 0.130088 0.000000
v 0.000000 0.130088 0.045148
v -0.062193 0.130088 0.000000
v 0.000000 0.130088 -0.045148
v 0.043977 0.130088 -0.031924
v 0.043977 0.130088 0.031924
v -0.043977 0.130088 0.031924
v -0.043977 0.130088 -0.031924
v 0.000000 0.300000 -0.055683
v -0.054239 0.300000 -0.039374
v -0.076706 0.300000 -0.000000
v -0.054239 0.300000 0.039374
v 0.000000 0.300000 0.055683
v 0.054239 0.300000 0.039374
v 0.076706 0.300000 -0.000000
v 0.054239 0.300000 -0.039374
v 0.000000 0.260867 -0.055683
v -0.054239 0.260867 -0.039374
v -0.076706 0.260867 0.000000
v -0.054239 0.260867 0.039374
v 0.000000 0.260867 0.055683
v 0.054239 0.260867 0.039374
v 0.076706 0.260867 0.000000
v 0.054239 0.260867 -0.039374
vn -0.6224 0.0293 -0.7822
vn -1.0000 -0.0000 -0.0000
vn -0.6212 -0.0000 -0.7837
vn -0.6212 -0.0000 0.7837
vn -0.0000 0.0253 0.9997
vn -0.0000 -0.0000 1.0000
vn 0.6224 0.0293 0.7822
vn 1.0000 -0.0000 -0.0000
vn 0.6212 -0.0000 0.7837
vn 0.6212 -0.0000 -0.7837
vn -0.0000 0.0253 -0.9997
vn -0.0000 -0.0000 -1.0000
vn -0.6224 0.0293 0.7822
vn 0.6224 0.0293 -0.7822
vn -0.0000 0.0127 0.9999
vn 0.6234 0.0148 0.7818
vn 0.9994 0.0348 -0.0000
vn 0.9998 0.0175 -0.0000
vn 0.6234 0.0148 -0.7818
vn -0.0000 0.0127 -0.9999
vn -0.6234 0.0148 -0.7818
vn -0.9994 0.0348 -0.0000
vn -0.9998 0.0175 -0.0000
vn -0.6234 0.0148 0.7818
vn -0.0000 -0.0171 -0.9999
vn -0.0497 -0.9964 -0.0691
vn -0.5873 -0.0174 -0.8092
vn -0.0434 -0.9991 0.0003
vn -0.9998 -0.0183 -0.0000
vn -0.5874 -0.0174 0.8091
vn -0.0497 -0.9964 0.0691
vn -0.0000 -0.0171 0.9999
vn -0.0000 -0.9299 0.3678
vn 0.0497 -0.9964 0.0691
vn 0.5873 -0.0174 0.8092
vn 0.0434 -0.9991 -0.0002
vn 0.9998 -0.0183 -0.0000
vn 0.5874 -0.0174 -0.8091
vn 0.0497 -0.9964 -0.0691
vn -0.0000 -0.9299 -0.3678
vn 0.6239 -0.0290 -0.7810
vn 0.9994 -0.0344 -0.0000
vn -0.0000 -0.0250 0.9997
vn 0.6239 -0.0290 0.7810
vn -0.6239 -0.0290 0.7810
vn -0.9994 -0.0344 -0.0000
vn -0.0000 -0.0250 -0.9997
vn -0.6239 -0.0290 -0.7810
vn 0.6227 -0.0000 -0.7825
vn 0.6227 -0.0000 0.7825
vn -0.6227 -0.0000 0.7825
vn -0.6227 -0.0000 -0.7825
vn -0.0000 -1.0000 -0.0000
vt 0.152784 0.430787
vt 0.189779 0.590304
vt 0.154348 0.590107
vt 0.225213 0.590512
vt 0.275804 0.432190
vt 0.269324 0.590841
vt 0.323152 0.433564
vt 0.347922 0.591436
vt 0.313146 0.591181
vt 0.066426 0.589586
vt 0.105540 0.431546
vt 0.110245 0.589833
vt 0.228476 0.431075
vt 0.031649 0.589406
vt 0.058296 0.432547
vt 0.281526 0.297676
vt 0.331978 0.298658
vt 0.361052 0.435397
vt 0.372533 0.299720
vt 0.050097 0.298122
vt 0.020520 0.434061
vt 0.009469 0.299084
vt 0.100607 0.297310
vt 0.150918 0.296713
vt 0.190615 0.430523
vt 0.191099 0.296538
vt 0.231262 0.296882
vt 0.718750 0.086007
vt 0.740624 0.136346
vt 0.734762 0.141391
vt 0.773436 0.155705
vt 0.773524 0.164059
vt 0.812288 0.141260
vt 0.806370 0.136317
vt 0.828121 0.085864
vt 0.820726 0.085905
vt 0.806247 0.035525
vt 0.812109 0.030480
vt 0.773436 0.016166
vt 0.773347 0.007812
vt 0.734583 0.030612
vt 0.740501 0.035554
vt 0.726145 0.085966
vt 0.099452 0.008039
vt 0.048518 0.008328
vt 0.150449 0.007846
vt 0.191308 0.007813
vt 0.232184 0.007889
vt 0.283232 0.008118
vt 0.334228 0.008469
vt 0.374996 0.008787
vt 0.007813 0.008558
vt 0.058211 0.747327
vt 0.020414 0.745595
vt 0.272785 0.749061
vt 0.319537 0.748265
vt 0.226253 0.749744
vt 0.189069 0.749996
vt 0.105144 0.748516
vt 0.151832 0.749481
vt 0.357167 0.746987
vt 0.914059 0.914059
vt 0.867188 0.870645
vt 0.914059 0.870645
vt 0.914059 0.621093
vt 0.867188 0.566852
vt 0.914059 0.566852
vt 0.914059 0.718748
vt 0.867188 0.675334
vt 0.914059 0.675334
vt 0.914059 0.816403
vt 0.867188 0.762162
vt 0.914059 0.762162
vt 0.867188 0.816403
vt 0.867188 0.523438
vt 0.914059 0.523438
vt 0.867188 0.621093
vt 0.867188 0.718748
vt 0.507809 0.090338
vt 0.490647 0.148196
vt 0.490647 0.032189
vt 0.449217 0.007812
vt 0.449217 0.171871
vt 0.407786 0.031488
vt 0.407786 0.147495
vt 0.390625 0.089346
vt 0.867188 0.914059
s 1
usemtl pammer
f 16/1/1 43/2/2 48/3/3
f 47/4/4 11/5/5 42/6/6
f 12/7/7 41/8/8 46/9/9
f 45/10/10 15/11/11 44/12/12
f 15/11/11 48/3/3 44/12/12
f 43/2/2 14/13/13 47/4/4
f 11/5/5 46/9/9 42/6/6
f 41/14/8 10/15/14 45/10/10
f 12/7/7 21/16/15 22/17/16
f 9/18/17 22/17/16 23/19/18
f 24/20/19 9/21/17 23/22/18
f 17/23/20 10/15/14 24/20/19
f 16/1/1 17/23/20 18/24/21
f 13/25/22 18/24/21 19/26/23
f 20/27/24 13/25/22 19/26/23
f 21/16/15 14/13/13 20/27/24
f 25/28/25 27/29/26 28/30/27
f 28/30/27 29/31/28 30/32/29
f 32/33/30 29/31/28 31/34/31
f 34/35/32 31/34/31 33/36/33
f 34/35/32 35/37/34 36/38/35
f 36/38/35 37/39/36 38/40/37
f 40/41/38 37/39/36 39/42/39
f 25/28/25 39/42/39 26/43/40
f 33/36/33 31/34/31 35/37/34
f 25/44/25 24/20/19 40/45/38
f 28/46/27 17/23/20 25/44/25
f 30/47/29 18/24/21 28/46/27
f 32/48/30 19/26/23 30/47/29
f 34/49/32 20/27/24 32/48/30
f 36/50/35 21/16/15 34/49/32
f 38/51/37 22/17/16 36/50/35
f 40/45/38 23/22/18 38/52/37
f 41/14/8 8/53/41 7/54/42
f 5/55/43 46/9/9 6/56/44
f 43/2/2 4/57/45 3/58/46
f 1/59/47 48/3/3 2/60/48
f 45/10/10 1/59/47 8/53/41
f 6/56/44 41/8/8 7/61/42
f 47/4/4 5/55/43 4/57/45
f 2/60/48 43/2/2 3/58/46
f 37/39/36 31/34/31 29/31/28
f 39/42/39 29/31/28 27/29/26
f 26/43/40 39/42/39 27/29/26
f 55/62/8 64/63/49 56/64/49
f 53/65/6 62/66/50 54/67/50
f 51/68/2 60/69/51 52/70/51
f 49/71/12 58/72/52 50/73/52
f 56/64/49 57/74/12 49/71/12
f 54/67/50 63/75/8 55/76/8
f 52/70/51 61/77/6 53/65/6
f 50/73/52 59/78/2 51/68/2
f 61/79/53 60/80/53 62/81/53
f 63/82/53 60/80/53 59/83/53
f 64/84/53 59/83/53 58/85/53
f 57/86/53 64/84/53 58/85/53
f 16/1/1 13/25/22 43/2/2
f 47/4/4 14/13/13 11/5/5
f 12/7/7 9/18/17 41/8/8
f 45/10/10 10/15/14 15/11/11
f 15/11/11 16/1/1 48/3/3
f 43/2/2 13/25/22 14/13/13
f 11/5/5 12/7/7 46/9/9
f 41/14/8 9/21/17 10/15/14
f 12/7/7 11/5/5 21/16/15
f 9/18/17 12/7/7 22/17/16
f 24/20/19 10/15/14 9/21/17
f 17/23/20 15/11/11 10/15/14
f 16/1/1 15/11/11 17/23/20
f 13/25/22 16/1/1 18/24/21
f 20/27/24 14/13/13 13/25/22
f 21/16/15 11/5/5 14/13/13
f 25/28/25 26/43/40 27/29/26
f 28/30/27 27/29/26 29/31/28
f 32/33/30 30/32/29 29/31/28
f 34/35/32 32/33/30 31/34/31
f 34/35/32 33/36/33 35/37/34
f 36/38/35 35/37/34 37/39/36
f 40/41/38 38/40/37 37/39/36
f 25/28/25 40/41/38 39/42/39
f 25/44/25 17/23/20 24/20/19
f 28/46/27 18/24/21 17/23/20
f 30/47/29 19/26/23 18/24/21
f 32/48/30 20/27/24 19/26/23
f 34/49/32 21/16/15 20/27/24
f 36/50/35 22/17/16 21/16/15
f 38/51/37 23/19/18 22/17/16
f 40/45/38 24/20/19 23/22/18
f 41/14/8 45/10/10 8/53/41
f 5/55/43 42/6/6 46/9/9
f 43/2/2 47/4/4 4/57/45
f 1/59/47 44/12/12 48/3/3
f 45/10/10 44/12/12 1/59/47
f 6/56/44 46/9/9 41/8/8
f 47/4/4 42/6/6 5/55/43
f 2/60/48 48/3/3 43/2/2
f 37/39/36 35/37/34 31/34/31
f 39/42/39 37/39/36 29/31/28
f 55/62/8 63/87/8 64/63/49
f 53/65/6 61/77/6 62/66/50
f 51/68/2 59/78/2 60/69/51
f 49/71/12 57/74/12 58/72/52
f 56/64/49 64/63/49 57/74/12
f 54/67/50 62/66/50 63/75/8
f 52/70/51 60/69/51 61/77/6
f 50/73/52 58/72/52 59/78/2
f 63/82/53 62/81/53 60/80/53
f 64/84/53 63/82/53 59/83/53
o Hammer_head
v -0.080000 0.500000 -0.100000
v -0.080000 0.300000 -0.100000
v -0.080000 0.500000 0.100000
v -0.249956 0.342843 0.057157
v -0.249956 0.342843 -0.057157
v -0.249956 0.457157 0.057157
v -0.249956 0.457157 -0.057157
v -0.080050 0.300000 0.100000
v -0.230000 0.460000 -0.100000
v -0.230000 0.340000 -0.100000
v -0.230000 0.340000 0.100000
v -0.230000 0.460000 0.100000
v -0.230000 0.500000 0.060000
v -0.230000 0.500000 -0.060000
v -0.230000 0.300000 0.060000
v -0.230000 0.300000 -0.060000
v -0.240000 0.457157 -0.093137
v -0.240000 0.342843 -0.093137
v -0.240000 0.342843 0.093137
v -0.240000 0.457157 0.093137
v -0.240000 0.493137 0.057157
v -0.240000 0.493137 -0.057157
v -0.240000 0.306863 0.057157
v -0.240000 0.306863 -0.057157
v -0.107299 0.340000 -0.100000
v -0.095403 0.330425 -0.100000
v -0.095404 0.330403 0.100000
v -0.107299 0.340000 0.100000
v -0.107299 0.460000 0.100000
v -0.095403 0.469574 0.100000
v -0.095403 0.500000 0.069575
v -0.107299 0.500000 0.060000
v -0.107299 0.300000 0.060000
v -0.095404 0.300000 0.069597
v -0.095403 0.300000 -0.069574
v -0.107299 0.300000 -0.060000
v -0.095403 0.469575 -0.100000
v -0.107299 0.460000 -0.100000
v -0.107299 0.500000 -0.060000
v -0.095403 0.500000 -0.069575
v 0.080000 0.500000 -0.100000
v 0.080000 0.300000 -0.100000
v 0.080000 0.500000 0.100000
v 0.249956 0.342843 0.057157
v 0.249956 0.342843 -0.057157
v 0.249956 0.457157 0.057157
v 0.249956 0.457157 -0.057157
v 0.080050 0.300000 0.100000
v 0.230000 0.460000 -0.100000
v 0.230000 0.340000 -0.100000
v 0.230000 0.340000 0.100000
v 0.230000 0.460000 0.100000
v 0.230000 0.500000 0.060000
v 0.230000 0.500000 -0.060000
v 0.230000 0.300000 0.060000
v 0.230000 0.300000 -0.060000
v 0.240000 0.457157 -0.093137
v 0.240000 0.342843 -0.093137
v 0.240000 0.342843 0.093137
v 0.240000 0.457157 0.093137
v 0.240000 0.493137 0.057157
v 0.240000 0.493137 -0.057157
v 0.240000 0.306863 0.057157
v 0.240000 0.306863 -0.057157
v 0.107299 0.340000 -0.100000
v 0.095403 0.330425 -0.100000
v 0.095404 0.330403 0.100000
v 0.107299 0.340000 0.100000
v 0.107299 0.460000 0.100000
v 0.095403 0.469574 0.100000
v 0.095403 0.500000 0.069575
v 0.107299 0.500000 0.060000
v 0.107299 0.300000 0.060000
v 0.095404 0.300000 0.069597
v 0.095403 0.300000 -0.069574
v 0.107299 0.300000 -0.060000
v 0.095403 0.469575 -0.100000
v 0.107299 0.460000 -0.100000
v 0.107299 0.500000 -0.060000
v 0.095403 0.500000 -0.069575
vn -0.5659 -0.0000 -0.8245
vn -0.5659 -0.0000 0.8245
vn -0.5659 0.5830 0.5830
vn -0.5659 0.8245 -0.0000
vn -0.5659 0.5830 -0.5830
vn -0.5659 -0.5830 0.5830
vn -0.5659 -0.8245 -0.0000
vn -0.5659 -0.5830 -0.5830
vn -0.9824 0.1320 -0.1320
vn -0.9599 -0.0891 -0.2656
vn -0.9824 -0.1320 -0.1320
vn -0.9824 -0.1320 0.1320
vn -0.9599 0.0891 0.2656
vn -0.9824 0.1320 0.1320
vn -0.9599 0.2656 -0.0891
vn -0.9599 0.0891 -0.2656
vn -0.9599 -0.2656 0.0891
vn -0.9599 -0.0891 0.2656
vn -0.9599 0.2656 0.0891
vn -0.9600 -0.2656 -0.0891
vn -0.9599 -0.2656 -0.0892
vn -0.2118 -0.6911 -0.6911
vn -0.6034 -0.5639 -0.5639
vn -0.2118 0.6911 0.6911
vn -0.6034 0.5639 0.5639
vn -0.2118 0.6911 -0.6911
vn -0.6034 0.5639 -0.5639
vn -0.2121 -0.6910 0.6910
vn -0.6042 -0.5634 0.5634
vn -0.0000 -1.0000 -0.0000
vn -0.0000 -0.0000 -1.0000
vn -0.0000 1.0000 -0.0000
vn -0.0000 -0.0000 1.0000
vn -0.8131 -0.4116 -0.4116
vn -0.0000 -0.7071 -0.7071
vn -0.0000 -0.7071 0.7071
vn -0.8138 -0.4110 0.4110
vn -0.8131 0.4116 0.4116
vn -0.0000 0.7071 0.7071
vn -0.0000 0.7071 -0.7071
vn -0.8131 0.4116 -0.4116
vn 0.5659 -0.0000 -0.8245
vn 0.5659 -0.0000 0.8245
vn 0.5659 0.5830 0.5830
vn 0.5659 0.8245 -0.0000
vn 0.5659 0.5830 -0.5830
vn 0.5659 -0.5830 0.5830
vn 0.5659 -0.8245 -0.0000
vn 0.5659 -0.5830 -0.5830
vn 0.9599 -0.0891 -0.2656
vn 0.9824 0.1320 -0.1320
vn 0.9824 -0.1320 -0.1320
vn 0.9599 0.0891 0.2656
vn 0.9824 -0.1320 0.1320
vn 0.9824 0.1320 0.1320
vn 0.9599 0.2656 -0.0892
vn 0.9599 0.0891 -0.2656
vn 0.9599 -0.2656 0.0892
vn 0.9599 -0.0891 0.2656
vn 0.9600 0.2656 -0.0891
vn 0.9599 0.2656 0.0891
vn 0.9600 -0.2656 0.0891
vn 0.9599 -0.2656 -0.0891
vn 0.2118 -0.6911 -0.6911
vn 0.6034 -0.5639 -0.5639
vn 0.6034 0.5639 0.5639
vn 0.2118 0.6911 0.6911
vn 0.2118 0.6911 -0.6911
vn 0.6034 0.5639 -0.5639
vn 0.6042 -0.5634 0.5634
vn 0.2121 -0.6910 0.6910
vn 0.8131 -0.4116 -0.4116
vn 0.8138 -0.4110 0.4110
vn 0.8131 0.4116 0.4116
vn 0.8131 0.4116 -0.4116
vt 0.056172 0.777827
vt 0.173148 0.765625
vt 0.170330 0.777647
vt 0.170386 0.964357
vt 0.053410 0.976559
vt 0.056229 0.964536
vt 0.009536 0.934701
vt 0.020031 0.928202
vt 0.007813 0.811222
vt 0.019834 0.814036
vt 0.009348 0.807524
vt 0.049674 0.767331
vt 0.217211 0.934659
vt 0.176885 0.974852
vt 0.206528 0.813981
vt 0.218746 0.930962
vt 0.206724 0.928147
vt 0.217023 0.807482
vt 0.056830 0.814630
vt 0.169729 0.814644
vt 0.169729 0.927553
vt 0.056830 0.927539
vt 0.765625 0.949812
vt 0.820641 0.964258
vt 0.773105 0.964258
vt 0.906246 0.137312
vt 0.851230 0.151758
vt 0.843750 0.137312
vt 0.929688 0.684187
vt 0.984704 0.698634
vt 0.937168 0.698634
vt 0.929688 0.409531
vt 0.984687 0.395075
vt 0.992184 0.409531
vt 0.734374 0.307843
vt 0.860909 0.318753
vt 0.725003 0.318752
vt 0.414062 0.645278
vt 0.540597 0.634368
vt 0.531247 0.645278
vt 0.681222 0.131253
vt 0.554687 0.120343
vt 0.671872 0.120343
vt 0.593749 0.832778
vt 0.720284 0.821868
vt 0.710934 0.832778
vt 0.796873 0.992184
vt 0.531247 0.757809
vt 0.765625 0.820312
vt 0.828121 0.949812
vt 0.710934 0.945309
vt 0.992184 0.539059
vt 0.929688 0.539059
vt 0.937184 0.395075
vt 0.960936 0.367187
vt 0.898767 0.151758
vt 0.874998 0.179684
vt 0.843750 0.007812
vt 0.554687 0.007813
vt 0.671872 0.007813
vt 0.851559 0.195313
vt 0.851559 0.307843
vt 0.992184 0.684187
vt 0.929688 0.554688
vt 0.992184 0.554688
vt 0.960936 0.726559
vt 0.890621 0.332879
vt 0.860909 0.493743
vt 0.404711 0.459378
vt 0.540597 0.459378
vt 0.404711 0.634368
vt 0.710934 0.145379
vt 0.710934 0.292117
vt 0.279973 0.773438
vt 0.396949 0.785640
vt 0.282791 0.785460
vt 0.399711 0.984371
vt 0.282735 0.972169
vt 0.396892 0.972349
vt 0.443585 0.942514
vt 0.433090 0.936015
vt 0.445309 0.819034
vt 0.433287 0.821849
vt 0.443773 0.815337
vt 0.235910 0.942472
vt 0.246397 0.935960
vt 0.234375 0.938774
vt 0.246593 0.821794
vt 0.236098 0.815295
vt 0.396292 0.822443
vt 0.283392 0.822457
vt 0.283392 0.935366
vt 0.396292 0.935352
vt 0.523434 0.902937
vt 0.468417 0.917383
vt 0.460938 0.902937
vt 0.773105 0.660738
vt 0.828121 0.675184
vt 0.765625 0.675184
vt 0.992184 0.871687
vt 0.937168 0.886134
vt 0.929688 0.871687
vt 0.961249 0.323671
vt 0.906250 0.309215
vt 0.968746 0.309215
vt 0.734374 0.504653
vt 0.851559 0.504653
vt 0.414062 0.448468
vt 0.531247 0.448468
vt 0.681222 0.306243
vt 0.554687 0.317153
vt 0.545336 0.306243
vt 0.720284 0.646878
vt 0.593749 0.635968
vt 0.710934 0.635968
vt 0.515954 0.917383
vt 0.492186 0.945309
vt 0.531247 0.335938
vt 0.523434 0.773438
vt 0.710934 0.523438
vt 0.968746 0.179688
vt 0.906250 0.179688
vt 0.937498 0.351559
vt 0.913747 0.323671
vt 0.796873 0.632812
vt 0.820642 0.660738
vt 0.765625 0.804684
vt 0.554687 0.429684
vt 0.671872 0.317153
vt 0.671872 0.429684
vt 0.851559 0.617184
vt 0.992184 0.742188
vt 0.929688 0.742188
vt 0.984703 0.886134
vt 0.960936 0.914059
vt 0.584378 0.646877
vt 0.584378 0.821869
vt 0.053333 0.765812
vt 0.173226 0.976372
vt 0.049717 0.975024
vt 0.008017 0.931046
vt 0.218541 0.811137
vt 0.176841 0.767160
vt 0.545336 0.131253
vt 0.414062 0.757809
vt 0.828121 0.820312
vt 0.593749 0.945309
vt 0.906246 0.007812
vt 0.734374 0.195312
vt 0.890621 0.479617
vt 0.725003 0.493744
vt 0.695312 0.479663
vt 0.695312 0.332833
vt 0.570309 0.473504
vt 0.570309 0.620242
vt 0.375000 0.620242
vt 0.375000 0.473504
vt 0.515625 0.292117
vt 0.515625 0.145379
vt 0.399788 0.773625
vt 0.279895 0.984184
vt 0.403404 0.982836
vt 0.445104 0.938859
vt 0.403447 0.775144
vt 0.276237 0.982665
vt 0.234580 0.818950
vt 0.276280 0.774972
vt 0.414062 0.335938
vt 0.460938 0.773438
vt 0.593749 0.523438
vt 0.828121 0.804684
vt 0.734374 0.617184
vt 0.749996 0.661004
vt 0.749996 0.807742
vt 0.554688 0.807788
vt 0.554688 0.660958
s 0
usemtl pammer
f 81/88/54 74/89/54 82/90/54
f 83/91/55 76/92/55 84/93/55
f 84/93/56 77/94/56 85/95/56
f 85/95/57 78/96/57 86/97/57
f 81/88/58 78/98/58 73/99/58
f 83/91/59 79/100/59 75/101/59
s 1
f 88/102/60 79/103/60 87/104/60
s 0
f 82/90/61 80/105/61 88/102/61
s 1
f 71/106/62 82/90/63 69/107/64
f 68/108/65 84/93/66 70/109/67
f 86/97/68 81/88/69 71/106/62
f 87/104/70 83/91/71 68/108/65
f 70/109/67 69/107/64 68/108/65
f 86/97/68 70/109/67 85/95/72
f 84/93/66 85/95/72 70/109/67
f 87/104/70 69/107/64 88/102/73
f 82/90/63 88/102/74 69/107/64
f 100/110/75 90/111/76 99/112/76
f 93/113/77 95/114/78 96/115/77
f 102/116/79 104/117/80 101/118/80
f 97/119/81 91/120/82 92/121/81
f 97/122/83 99/123/83 98/124/83
f 102/125/84 90/126/84 89/127/84
f 95/128/85 103/129/85 96/130/85
f 92/131/86 94/132/86 93/133/86
f 99/112/76 90/111/76 66/134/87
f 74/135/84 102/125/84 89/127/84
f 80/136/88 89/137/75 100/110/75
f 76/138/86 92/131/86 93/133/86
f 97/119/81 75/139/89 79/140/89
f 91/120/82 98/141/82 72/142/90
f 95/114/78 94/143/78 67/144/91
f 77/145/92 93/113/77 96/115/77
f 96/130/85 78/146/85 77/147/85
f 97/122/83 80/148/83 100/149/83
f 103/150/79 73/151/93 78/152/93
f 101/118/80 104/117/80 65/153/94
f 99/123/83 66/154/83 139/155/83
f 141/156/84 130/157/84 101/158/84
f 95/128/85 67/159/85 107/160/85
s 0
f 114/161/95 121/162/95 122/163/95
f 116/164/96 123/165/96 124/166/96
f 117/167/97 124/166/97 125/168/97
s 1
f 118/169/98 125/168/98 126/170/98
s 0
f 121/162/99 118/171/99 126/170/99
f 123/165/100 119/172/100 127/173/100
s 1
f 119/174/101 128/175/101 127/173/101
s 0
f 120/176/102 122/163/102 128/175/102
s 1
f 122/163/103 111/177/104 109/178/105
f 124/166/106 108/179/107 110/180/108
f 126/170/109 111/177/104 121/162/110
f 127/173/111 108/179/107 123/165/112
f 109/178/105 110/180/108 108/179/107
f 110/180/108 126/170/113 125/168/114
f 124/166/106 110/180/108 125/168/114
f 109/178/105 127/173/115 128/175/116
f 122/163/103 109/178/105 128/175/116
f 140/181/117 130/182/118 129/183/117
f 135/184/119 133/185/120 136/186/120
f 142/187/121 144/188/122 143/189/121
f 131/190/123 137/191/124 132/192/124
f 137/193/83 139/155/83 140/194/83
f 130/157/84 142/195/84 129/196/84
f 135/197/85 143/198/85 144/199/85
f 134/200/86 132/201/86 133/202/86
f 139/203/118 106/204/125 130/182/118
f 142/195/84 114/205/84 129/196/84
f 129/183/117 120/206/88 140/181/117
f 132/201/86 116/207/86 133/202/86
f 115/208/89 137/191/124 119/209/89
f 131/190/123 112/210/126 138/211/123
f 135/184/119 107/212/127 134/213/119
f 133/185/120 117/214/92 136/186/120
f 118/215/85 136/216/85 117/217/85
f 120/218/83 137/193/83 140/194/83
f 113/219/93 143/189/121 118/220/93
f 141/221/122 105/222/128 144/188/122
f 131/223/86 134/200/86 91/224/86
s 0
f 81/88/54 73/225/54 74/89/54
f 83/91/55 75/226/55 76/92/55
f 84/93/56 76/227/56 77/94/56
f 85/95/57 77/228/57 78/96/57
f 81/88/58 86/97/58 78/98/58
f 83/91/59 87/104/59 79/100/59
s 1
f 88/102/60 80/229/60 79/103/60
s 0
f 82/90/61 74/230/61 80/105/61
s 1
f 71/106/62 81/88/69 82/90/63
f 68/108/65 83/91/71 84/93/66
f 70/109/67 71/106/62 69/107/64
f 86/97/68 71/106/62 70/109/67
f 87/104/70 68/108/65 69/107/64
f 100/110/75 89/137/75 90/111/76
f 93/113/77 94/143/78 95/114/78
f 102/116/79 103/150/79 104/117/80
f 97/119/81 98/141/82 91/120/82
f 97/122/83 100/149/83 99/123/83
f 102/125/84 101/158/84 90/126/84
f 95/128/85 104/231/85 103/129/85
f 92/131/86 91/224/86 94/132/86
f 74/135/84 73/232/84 102/125/84
f 80/136/88 74/233/88 89/137/75
f 76/138/86 75/234/86 92/131/86
f 97/119/81 92/121/81 75/139/89
f 77/145/92 76/235/92 93/113/77
f 96/130/85 103/129/85 78/146/85
f 97/122/83 79/236/83 80/148/83
f 103/150/79 102/116/79 73/151/93
f 66/154/83 106/237/83 139/155/83
f 139/155/83 138/238/83 98/124/83
f 138/238/83 112/239/83 98/124/83
f 112/239/83 72/240/83 98/124/83
f 98/124/83 99/123/83 139/155/83
f 130/157/84 106/241/84 66/242/84
f 66/242/84 90/126/84 130/157/84
f 90/126/84 101/158/84 130/157/84
f 101/158/84 65/243/84 105/244/84
f 105/244/84 141/156/84 101/158/84
f 107/160/85 135/197/85 95/128/85
f 135/197/85 144/199/85 95/128/85
f 144/199/85 105/245/85 65/246/85
f 65/246/85 104/231/85 144/199/85
f 104/231/85 95/128/85 144/199/85
s 0
f 114/161/95 113/247/95 121/162/95
f 116/164/96 115/248/96 123/165/96
f 117/167/97 116/249/97 124/166/97
s 1
f 118/169/98 117/250/98 125/168/98
s 0
f 121/162/99 113/251/99 118/171/99
f 123/165/100 115/252/100 119/172/100
s 1
f 119/174/101 120/253/101 128/175/101
s 0
f 120/176/102 114/254/102 122/163/102
s 1
f 122/163/103 121/162/110 111/177/104
f 124/166/106 123/165/112 108/179/107
f 109/178/105 111/177/104 110/180/108
f 110/180/108 111/177/104 126/170/113
f 109/178/105 108/179/107 127/173/115
f 140/181/117 139/203/118 130/182/118
f 135/184/119 134/213/119 133/185/120
f 142/187/121 141/221/122 144/188/122
f 131/190/123 138/211/123 137/191/124
f 137/193/83 138/238/83 139/155/83
f 130/157/84 141/156/84 142/195/84
f 135/197/85 136/216/85 143/198/85
f 134/200/86 131/223/86 132/201/86
f 142/195/84 113/255/84 114/205/84
f 129/183/117 114/256/88 120/206/88
f 132/201/86 115/257/86 116/207/86
f 115/208/89 132/192/124 137/191/124
f 133/185/120 116/258/92 117/214/92
f 118/215/85 143/198/85 136/216/85
f 120/218/83 119/259/83 137/193/83
f 113/219/93 142/187/121 143/189/121
f 134/200/86 107/260/86 67/261/86
f 67/261/86 94/132/86 134/200/86
f 94/132/86 91/224/86 134/200/86
f 91/224/86 72/262/86 112/263/86
f 112/263/86 131/223/86 91/224/86
