# Blender 4.5.14 LTS
# www.blender.org
mtllib handcuffs.mtl
o handcuffs
v -0.148568 0.088386 0.016104
v -0.086665 0.098333 0.016104
v -0.041348 0.132771 0.016104
v -0.024745 0.182711 0.016104
v -0.041348 0.233117 0.016104
v -0.086665 0.265609 0.016104
v -0.005738 0.118030 0.016104
v 0.016370 0.182699 0.016104
v -0.005738 0.247858 0.016104
v -0.066105 0.291142 0.016104
v -0.035921 0.082178 0.016104
v -0.148568 -0.049924 0.016104
v -0.127952 -0.054426 0.016104
v -0.035921 -0.027922 0.016104
v -0.044586 -0.038410 0.016104
v -0.210472 0.098333 0.016104
v -0.261215 0.082178 0.016104
v -0.169184 -0.054426 0.016104
v -0.261215 -0.027922 0.016104
v -0.252551 -0.038410 0.016104
v -0.024745 0.182711 -0.016104
v -0.041348 0.132771 -0.016104
v -0.041348 0.233117 -0.016104
v -0.086665 0.265609 -0.016104
v 0.016370 0.182699 -0.016104
v -0.005738 0.118030 -0.016104
v -0.005738 0.247858 -0.016104
v -0.066105 0.291142 -0.016104
v -0.086665 0.098333 -0.016104
v -0.035921 0.082178 -0.016104
v -0.148568 0.088386 -0.016104
v -0.127952 -0.054426 -0.016104
v -0.148568 -0.049924 -0.016104
v -0.035921 -0.027922 -0.016104
v -0.044586 -0.038410 -0.016104
v -0.243767 0.099064 -0.016104
v -0.243767 0.099064 0.016104
v -0.210472 0.098333 -0.016104
v -0.261215 0.082178 -0.016104
v -0.169184 -0.054426 -0.016104
v -0.261215 -0.027922 -0.016104
v -0.252551 -0.038410 -0.016104
v -0.155410 0.268458 0.016104
v -0.168416 0.275837 0.016104
v -0.150602 0.307237 0.016104
v -0.172395 0.290252 0.016104
v -0.165016 0.303258 0.016104
v -0.155410 0.268458 -0.016104
v -0.172395 0.290252 -0.016104
v -0.168416 0.275837 -0.016104
v -0.150602 0.307237 -0.016104
v -0.165016 0.303258 -0.016104
v -0.150602 0.307237 -0.006470
v -0.165016 0.303258 -0.006470
v -0.066105 0.291142 -0.006470
v -0.172395 0.290252 -0.006470
v -0.168416 0.275837 -0.006470
v -0.086665 0.265609 -0.006470
v -0.155410 0.268458 -0.006470
v -0.243767 0.099064 -0.006470
v -0.210472 0.098333 -0.006470
v -0.261215 0.082178 -0.006470
v -0.005738 0.247858 -0.006470
v -0.041348 0.233117 -0.006470
v 0.016370 0.182699 -0.006470
v -0.024745 0.182711 -0.006470
v -0.005738 0.118030 -0.006470
v -0.041348 0.132771 -0.006470
v -0.035921 0.082178 -0.006470
v -0.086665 0.098333 -0.006470
v -0.035921 0.017488 -0.006470
v -0.148568 0.088386 -0.006470
v -0.261215 0.017488 -0.006470
v -0.150602 0.307237 0.006470
v -0.165016 0.303258 0.006470
v -0.066105 0.291142 0.006470
v -0.172395 0.290252 0.006470
v -0.005738 0.247858 0.006470
v -0.168416 0.275837 0.006470
v -0.086665 0.265609 0.006470
v -0.041348 0.233117 0.006470
v -0.155410 0.268458 0.006470
v 0.016370 0.182699 0.006470
v -0.024745 0.182711 0.006470
v -0.005738 0.118030 0.006470
v -0.041348 0.132771 0.006470
v -0.035921 0.082178 0.006470
v -0.086665 0.098333 0.006470
v -0.243767 0.099064 0.006470
v -0.035921 0.017488 0.006470
v -0.148568 0.088386 0.006470
v -0.210472 0.098333 0.006470
v -0.261215 0.082178 0.006470
v -0.261215 0.017488 0.006470
v -0.150602 0.269486 0.006470
v -0.150602 0.269486 -0.006470
v -0.199018 0.260211 0.006470
v -0.199018 0.260211 -0.006470
v -0.241715 0.233117 0.006470
v -0.241715 0.233117 -0.006470
v -0.263641 0.182711 0.006470
v -0.263641 0.182711 -0.006470
v -0.254794 0.132771 0.006470
v -0.254794 0.132771 -0.006470
v -0.210472 0.101779 0.006470
v -0.210472 0.101779 -0.006470
v -0.149300 0.091431 0.006470
v -0.149300 0.091431 -0.006470
v -0.035921 0.091431 0.006470
v -0.035921 0.091431 -0.006470
v -0.156911 0.302417 0.006470
v -0.156911 0.302417 -0.006470
v -0.211373 0.291382 0.006470
v -0.211373 0.291382 -0.006470
v -0.267190 0.254917 0.006470
v -0.267190 0.254917 -0.006470
v -0.296939 0.186641 0.006470
v -0.296939 0.186641 -0.006470
v -0.283059 0.114735 0.006470
v -0.283059 0.114735 -0.006470
v -0.223185 0.070754 0.006470
v -0.223185 0.070754 -0.006470
v -0.152107 0.058019 0.006470
v -0.152107 0.058019 -0.006470
v -0.035921 0.075532 0.006470
v -0.035921 0.075532 -0.006470
v -0.150602 0.306199 0.006470
v -0.167125 0.296660 0.006470
v -0.167125 0.277580 0.006470
v -0.150602 0.268041 0.006470
v -0.134079 0.277580 0.006470
v -0.134079 0.296660 0.006470
v -0.150602 0.306199 -0.006470
v -0.167125 0.296660 -0.006470
v -0.167125 0.277580 -0.006470
v -0.150602 0.268041 -0.006470
v -0.134079 0.277580 -0.006470
v -0.134079 0.296660 -0.006470
v -0.153006 0.279079 0.019618
v -0.144237 0.287848 0.019618
v -0.153006 0.296616 0.019618
v -0.161775 0.287848 0.019618
v -0.153006 0.279079 -0.019618
v -0.144237 0.287848 -0.019618
v -0.153006 0.296616 -0.019618
v -0.161775 0.287848 -0.019618
v -0.148568 -0.049924 -0.013658
v -0.162226 -0.049924 0.000000
v -0.148568 -0.049924 0.013658
v -0.134910 -0.049924 0.000000
v -0.148568 -0.083562 -0.013658
v -0.162226 -0.083562 0.000000
v -0.148568 -0.083562 0.013658
v -0.134910 -0.083562 0.000000
v 0.039020 -0.184688 0.000000
v 0.029362 -0.175030 0.013658
v 0.019704 -0.165372 0.000000
v 0.029362 -0.175030 -0.013658
v 0.062806 -0.160902 0.000000
v 0.053148 -0.151244 0.013658
v 0.043490 -0.141586 0.000000
v 0.053148 -0.151244 -0.013658
v 0.282650 0.096935 -0.019618
v 0.295051 0.096935 -0.019618
v 0.295051 0.084534 -0.019618
v 0.282650 0.084534 -0.019618
v 0.282650 0.096935 0.019618
v 0.295051 0.096935 0.019618
v 0.295051 0.084534 0.019618
v 0.282650 0.084534 0.019618
v 0.308465 0.083582 -0.006470
v 0.294974 0.070091 -0.006470
v 0.276545 0.075029 -0.006470
v 0.271607 0.093458 -0.006470
v 0.285098 0.106949 -0.006470
v 0.303527 0.102011 -0.006470
v 0.308465 0.083582 0.006470
v 0.294974 0.070091 0.006470
v 0.276545 0.075029 0.006470
v 0.271607 0.093458 0.006470
v 0.285098 0.106949 0.006470
v 0.303527 0.102011 0.006470
v 0.221512 -0.142187 -0.006470
v 0.221512 -0.142187 0.006470
v 0.126974 -0.072414 -0.006470
v 0.126974 -0.072414 0.006470
v 0.085718 -0.013150 -0.006470
v 0.085718 -0.013150 0.006470
v 0.074480 0.060287 -0.006470
v 0.074480 0.060287 0.006470
v 0.115511 0.120947 -0.006470
v 0.115511 0.120947 0.006470
v 0.184825 0.148190 -0.006470
v 0.184825 0.148190 0.006470
v 0.250078 0.134505 -0.006470
v 0.250078 0.134505 0.006470
v 0.296392 0.103798 -0.006470
v 0.296392 0.103798 0.006470
v 0.232755 -0.130944 -0.006470
v 0.232755 -0.130944 0.006470
v 0.152584 -0.050773 -0.006470
v 0.152584 -0.050773 0.006470
v 0.116646 -0.000201 -0.006470
v 0.116646 -0.000201 0.006470
v 0.107220 0.053054 -0.006470
v 0.107220 0.053054 0.006470
v 0.136277 0.094623 -0.006470
v 0.136277 0.094623 0.006470
v 0.187424 0.114761 -0.006470
v 0.187424 0.114761 0.006470
v 0.236773 0.103728 -0.006470
v 0.236773 0.103728 0.006470
v 0.277567 0.076051 -0.006470
v 0.277567 0.076051 0.006470
v 0.021162 -0.023923 0.006470
v 0.066905 0.021819 0.006470
v 0.114209 -0.002638 0.006470
v 0.150948 -0.053444 0.006470
v 0.180469 -0.183230 0.006470
v 0.091183 0.021423 0.006470
v 0.201754 -0.090183 0.006470
v 0.226212 -0.137487 0.006470
v 0.258149 -0.097875 0.006470
v 0.272906 -0.133479 0.006470
v 0.305202 -0.074302 0.006470
v 0.334267 -0.103384 0.006470
v 0.273440 0.078724 0.006470
v 0.329105 -0.026920 0.006470
v 0.320036 0.028099 0.006470
v 0.269461 0.093139 0.006470
v 0.364709 -0.041676 0.006470
v 0.276840 0.106145 0.006470
v 0.352628 0.031616 0.006470
v 0.291255 0.110124 0.006470
v 0.304261 0.102745 0.006470
v 0.021162 -0.023923 -0.006470
v 0.150948 -0.053444 -0.006470
v 0.180469 -0.183230 -0.006470
v 0.201754 -0.090183 -0.006470
v 0.226212 -0.137487 -0.006470
v 0.258149 -0.097875 -0.006470
v 0.272906 -0.133479 -0.006470
v 0.305202 -0.074302 -0.006470
v 0.334267 -0.103384 -0.006470
v 0.329105 -0.026920 -0.006470
v 0.364709 -0.041676 -0.006470
v 0.066905 0.021819 -0.006470
v 0.114209 -0.002638 -0.006470
v 0.091183 0.021423 -0.006470
v 0.273440 0.078724 -0.006470
v 0.320036 0.028099 -0.006470
v 0.269461 0.093139 -0.006470
v 0.276840 0.106145 -0.006470
v 0.352628 0.031616 -0.006470
v 0.291255 0.110124 -0.006470
v 0.304261 0.102745 -0.006470
v 0.291255 0.110124 -0.016104
v 0.304261 0.102745 -0.016104
v 0.269461 0.093139 -0.016104
v 0.276840 0.106145 -0.016104
v 0.273440 0.078724 -0.016104
v 0.291255 0.110124 0.016104
v 0.276840 0.106145 0.016104
v 0.304261 0.102745 0.016104
v 0.269461 0.093139 0.016104
v 0.273440 0.078724 0.016104
v -0.012237 -0.069575 -0.016104
v -0.010948 -0.056033 -0.016104
v 0.035387 -0.139850 -0.016104
v 0.066905 0.021819 -0.016104
v 0.114209 -0.002638 -0.016104
v 0.091183 0.021423 0.016104
v 0.091183 0.021423 -0.016104
v 0.134817 -0.216629 -0.016104
v 0.148359 -0.215340 -0.016104
v 0.053148 -0.151244 -0.016104
v 0.064542 -0.169005 -0.016104
v 0.150948 -0.053444 -0.016104
v 0.226212 -0.137487 -0.016104
v 0.201754 -0.090183 -0.016104
v 0.352628 0.031616 -0.016104
v 0.364709 -0.041676 -0.016104
v 0.272906 -0.133479 -0.016104
v 0.334267 -0.103384 -0.016104
v 0.320036 0.028099 -0.016104
v 0.329105 -0.026920 -0.016104
v 0.258149 -0.097875 -0.016104
v 0.305202 -0.074302 -0.016104
v -0.012237 -0.069575 0.016104
v -0.010948 -0.056033 0.016104
v 0.035387 -0.139850 0.016104
v 0.066905 0.021819 0.016104
v 0.114209 -0.002638 0.016104
v 0.134817 -0.216629 0.016104
v 0.148359 -0.215340 0.016104
v 0.064542 -0.169005 0.016104
v 0.053148 -0.151244 0.016104
v 0.226212 -0.137487 0.016104
v 0.352628 0.031616 0.016104
v 0.364709 -0.041676 0.016104
v 0.334267 -0.103384 0.016104
v 0.272906 -0.133479 0.016104
v 0.320036 0.028099 0.016104
v 0.329105 -0.026920 0.016104
v 0.305202 -0.074302 0.016104
v 0.258149 -0.097875 0.016104
v 0.201754 -0.090183 0.016104
v 0.150948 -0.053444 0.016104
v -0.138857 -0.072842 0.006000
v -0.134561 -0.069090 -0.000000
v -0.138857 -0.072842 -0.006000
v -0.143153 -0.076594 0.000000
v -0.146487 -0.069531 0.006000
v -0.146681 -0.063831 0.000000
v -0.146487 -0.069531 -0.006000
v -0.146293 -0.075232 0.000000
v -0.157185 -0.072930 0.006000
v -0.161756 -0.068621 0.000000
v -0.157185 -0.072931 -0.006000
v -0.152614 -0.077240 0.000000
v -0.160072 -0.079583 0.006000
v -0.166342 -0.079189 0.000000
v -0.160072 -0.079583 -0.006000
v -0.153802 -0.079978 0.000000
v -0.135159 -0.122841 0.006000
v -0.137614 -0.128257 0.000000
v -0.135159 -0.122841 -0.006000
v -0.132589 -0.117553 0.000000
v -0.127225 -0.123069 0.006000
v -0.125010 -0.128618 0.000000
v -0.127225 -0.123069 -0.006000
v -0.129323 -0.117646 0.000000
v -0.119099 -0.115325 0.006000
v -0.113976 -0.117286 -0.000000
v -0.119099 -0.115325 -0.006000
v -0.124354 -0.113253 0.000000
v -0.118485 -0.108093 0.006000
v -0.112981 -0.105780 -0.000000
v -0.118485 -0.108093 -0.006000
v -0.124106 -0.110280 0.000000
v -0.123465 -0.110342 -0.011130
v -0.129343 -0.112615 -0.016673
v -0.132548 -0.118183 -0.011130
v -0.126482 -0.115813 -0.005587
v -0.126343 -0.106585 -0.005613
v -0.134136 -0.106178 -0.007909
v -0.135853 -0.113903 -0.005612
v -0.127990 -0.114280 -0.003316
v -0.126343 -0.106585 0.005613
v -0.134136 -0.106178 0.007909
v -0.135853 -0.113903 0.005613
v -0.127990 -0.114280 0.003316
v -0.123465 -0.110342 0.011130
v -0.129343 -0.112615 0.016673
v -0.132548 -0.118183 0.011130
v -0.126482 -0.115813 0.005587
v -0.089109 -0.139574 0.011130
v -0.090663 -0.145803 0.016673
v -0.095863 -0.149493 0.011130
v -0.094309 -0.143265 0.005587
v -0.084843 -0.142549 0.005612
v -0.083545 -0.150408 0.007909
v -0.091368 -0.152620 0.005613
v -0.092506 -0.144519 0.003316
v -0.084843 -0.142549 -0.005613
v -0.083545 -0.150408 -0.007909
v -0.091368 -0.152620 -0.005612
v -0.092506 -0.144519 -0.003316
v -0.089109 -0.139574 -0.011130
v -0.090663 -0.145803 -0.016673
v -0.095863 -0.149493 -0.011130
v -0.094309 -0.143265 -0.005587
v -0.086436 -0.135184 0.006000
v -0.085004 -0.129427 -0.000000
v -0.086436 -0.135184 -0.006000
v -0.087782 -0.141002 -0.000000
v -0.093825 -0.136767 0.006000
v -0.096746 -0.131951 -0.000000
v -0.093825 -0.136767 -0.006000
v -0.090821 -0.141652 -0.000000
v -0.100363 -0.145892 0.006000
v -0.106253 -0.144592 0.000000
v -0.100363 -0.145892 -0.006000
v -0.094560 -0.147130 0.000000
v -0.098986 -0.153570 0.006000
v -0.104065 -0.156790 0.000000
v -0.098986 -0.153570 -0.006000
v -0.093993 -0.150290 0.000000
v -0.055718 -0.177439 0.006000
v -0.055651 -0.183439 0.000000
v -0.055718 -0.177439 -0.006000
v -0.055623 -0.171357 0.000000
v -0.048476 -0.174284 0.006000
v -0.044097 -0.178314 0.000000
v -0.048476 -0.174284 -0.006000
v -0.052709 -0.170226 0.000000
v -0.044404 -0.163823 0.006000
v -0.038771 -0.163421 -0.000000
v -0.044404 -0.163823 -0.006000
v -0.050135 -0.164113 0.000000
v -0.047082 -0.156922 0.006000
v -0.043050 -0.152565 -0.000000
v -0.047082 -0.156922 -0.006000
v -0.051188 -0.161101 -0.000000
v -0.050588 -0.160929 -0.011130
v -0.054963 -0.165490 -0.016673
v -0.055327 -0.171953 -0.011130
v -0.050953 -0.167393 -0.005587
v -0.055280 -0.158701 -0.005613
v -0.062622 -0.161865 -0.007909
v -0.060275 -0.169612 -0.005612
v -0.052935 -0.166452 -0.003316
v -0.055280 -0.158701 0.005612
v -0.062622 -0.161865 0.007909
v -0.060275 -0.169612 0.005613
v -0.052935 -0.166452 0.003316
v -0.050588 -0.160929 0.011130
v -0.054963 -0.165490 0.016673
v -0.055327 -0.171953 0.011130
v -0.050953 -0.167393 0.005587
v -0.007763 -0.173127 0.011130
v -0.006288 -0.179290 0.016673
v -0.009060 -0.185057 0.011130
v -0.010536 -0.178897 0.005587
v -0.002959 -0.173585 0.005612
v 0.001817 -0.180079 0.007909
v -0.003659 -0.185564 0.005613
v -0.008435 -0.179090 0.003316
v -0.002959 -0.173585 -0.005613
v 0.001817 -0.180079 -0.007909
v -0.003659 -0.185564 -0.005612
v -0.008435 -0.179090 -0.003316
v -0.007763 -0.173127 -0.011130
v -0.006288 -0.179290 -0.016673
v -0.009060 -0.185057 -0.011130
v -0.010536 -0.178897 -0.005587
v -0.007442 -0.168006 0.006000
v -0.008609 -0.162344 -0.000000
v -0.007442 -0.168006 -0.006000
v -0.006048 -0.173701 -0.000000
v -0.012880 -0.173065 0.006000
v -0.017336 -0.169669 -0.000000
v -0.012880 -0.173065 -0.006000
v -0.008284 -0.175774 -0.000000
v -0.014677 -0.184146 0.006000
v -0.020447 -0.185177 0.000000
v -0.014677 -0.184146 -0.006000
v -0.009016 -0.182366 0.000000
v -0.009905 -0.190129 0.006000
v -0.012986 -0.195402 0.000000
v -0.009905 -0.190129 -0.006000
v -0.007053 -0.184830 0.000000
v 0.039566 -0.182692 0.006000
v 0.044341 -0.186807 0.000000
v 0.039566 -0.182692 -0.006000
v 0.034792 -0.178578 0.000000
v 0.042160 -0.175967 0.006000
v 0.048461 -0.176123 0.000000
v 0.042160 -0.175967 -0.006000
v 0.035859 -0.175810 0.000000
v 0.036868 -0.166067 0.006000
v 0.041005 -0.162174 -0.000000
v 0.036868 -0.166067 -0.006000
v 0.032732 -0.169960 0.000000
v 0.029073 -0.163061 0.006000
v 0.028621 -0.157398 -0.000000
v 0.029073 -0.163061 -0.006000
v 0.029524 -0.168723 0.000000
vn -0.0000 -0.0000 1.0000
vn -0.0000 -0.0000 -1.0000
vn -0.3257 -0.9455 -0.0000
vn -0.2751 -0.9614 -0.0000
vn -0.0000 -1.0000 -0.0000
vn -0.0126 -0.9999 -0.0000
vn 0.9410 -0.3384 -0.0000
vn 1.0000 -0.0000 -0.0000
vn -0.0000 1.0000 -0.0000
vn 0.0905 0.9959 -0.0000
vn 0.5099 -0.8602 -0.0000
vn -1.0000 0.0014 -0.0000
vn -0.8133 0.5818 -0.0000
vn 0.0126 -0.9999 -0.0000
vn -0.9410 -0.3384 -0.0000
vn -0.5099 -0.8602 -0.0000
vn -0.8060 -0.5919 -0.0000
vn -1.0000 -0.0000 -0.0000
vn 0.3941 0.9190 -0.0000
vn -0.0405 0.9992 -0.0000
vn 0.8705 -0.4922 -0.0000
vn 1.0000 -0.0012 -0.0000
vn 0.8033 0.5955 -0.0000
vn -0.3936 0.9193 -0.0000
vn -0.3649 0.9310 -0.0000
vn 0.9394 -0.3428 -0.0000
vn -0.6955 0.7186 -0.0000
vn -0.7887 -0.6147 -0.0000
vn -0.9924 0.1231 -0.0000
vn -0.6147 0.7887 -0.0000
vn 0.1881 -0.9821 -0.0000
vn 0.3685 -0.9296 -0.0000
vn 0.7598 -0.6502 -0.0000
vn 0.9931 -0.1172 -0.0000
vn 0.8430 0.5379 -0.0000
vn 0.3792 0.9253 -0.0000
vn 0.0837 0.9965 -0.0000
vn -0.1986 0.9801 -0.0000
vn -0.3795 0.9252 -0.0000
vn -0.7639 0.6454 -0.0000
vn -0.9939 0.1099 -0.0000
vn -0.8451 -0.5345 -0.0000
vn -0.3944 -0.9189 -0.0000
vn -0.0138 -0.9999 -0.0000
vn 0.1490 -0.9888 -0.0000
vn 0.8660 -0.5000 -0.0000
vn -0.8660 -0.5000 -0.0000
vn -0.8660 0.5000 -0.0000
vn 0.8660 0.5000 -0.0000
vn -0.7071 0.7071 -0.0000
vn 0.7071 0.7071 -0.0000
vn 0.9659 -0.2588 -0.0000
vn 0.7071 -0.7071 -0.0000
vn -0.7071 -0.7071 -0.0000
vn 0.3858 0.9226 -0.0000
vn -0.0838 0.9965 -0.0000
vn -0.5614 -0.8275 -0.0000
vn -0.3968 -0.9179 -0.0000
vn -0.6251 0.7805 -0.0000
vn -0.7168 -0.6973 -0.0000
vn -0.5938 -0.8046 -0.0000
vn -0.9756 0.2196 -0.0000
vn -0.9287 -0.3709 -0.0000
vn -0.9659 0.2588 -0.0000
vn 0.1230 0.9924 -0.0000
vn 0.0775 -0.9970 -0.0000
vn 0.6194 -0.7851 -0.0000
vn 0.2588 -0.9659 -0.0000
vn -0.2588 0.9659 -0.0000
vn 0.9891 -0.1469 -0.0000
vn 0.7063 -0.7079 -0.0000
vn 0.9286 0.3712 -0.0000
vn 0.6779 0.7352 -0.0000
vn 0.7682 0.6402 -0.0000
vn 0.3717 0.9284 -0.0000
vn -0.1637 0.9865 -0.0000
vn -0.8988 -0.4383 -0.0000
vn -0.8744 -0.4853 -0.0000
vn 0.9765 -0.2157 -0.0000
vn 0.9224 0.3862 -0.0000
vn 0.7638 0.6454 -0.0000
vn -0.9885 0.1513 -0.0000
vn 0.0163 0.9999 -0.0000
vn 0.4003 0.9164 -0.0000
vn 0.2675 -0.9636 -0.0000
vn 0.5526 0.8334 -0.0000
vn 0.4219 -0.9067 -0.0000
vn -0.7061 0.7081 -0.0000
vn -0.9047 0.4261 -0.0000
vn -0.9688 -0.2477 -0.0000
vn -0.6981 -0.7160 -0.0000
vn -0.7160 -0.6981 -0.0000
vn -0.2477 -0.9688 -0.0000
vn 0.4261 -0.9047 -0.0000
vn -0.4872 -0.5311 0.6932
vn -0.0292 -0.7251 0.6880
vn -0.0492 -0.7249 0.6871
vn -0.4695 -0.5497 0.6909
vn 0.4860 0.5336 0.6921
vn 0.0292 0.7251 0.6880
vn 0.0492 0.7249 0.6871
vn 0.4678 0.5525 0.6898
vn 0.4678 0.5525 -0.6898
vn 0.0492 0.7249 -0.6871
vn 0.0292 0.7251 -0.6880
vn 0.4860 0.5336 -0.6921
vn -0.4695 -0.5497 -0.6909
vn -0.0492 -0.7249 -0.6871
vn -0.0292 -0.7251 -0.6880
vn -0.4872 -0.5311 -0.6932
vn 0.4696 -0.5076 0.7224
vn 0.4531 -0.5237 0.7214
vn -0.4696 0.5076 0.7224
vn -0.4531 0.5237 0.7214
vn -0.4531 0.5237 -0.7214
vn -0.4696 0.5076 -0.7224
vn 0.4531 -0.5237 -0.7214
vn 0.4696 -0.5076 -0.7224
vn 0.6983 0.0276 0.7153
vn 0.6990 0.0652 0.7122
vn -0.6980 -0.0297 0.7155
vn -0.6986 -0.0689 0.7121
vn -0.6986 -0.0689 -0.7121
vn -0.6980 -0.0297 -0.7155
vn 0.6990 0.0652 -0.7122
vn 0.6983 0.0276 -0.7153
vn 0.3532 0.6142 0.7057
vn 0.3797 0.5993 0.7048
vn -0.3471 -0.6142 0.7087
vn -0.3805 -0.5959 0.7071
vn -0.3805 -0.5959 -0.7071
vn -0.3471 -0.6142 -0.7087
vn 0.3797 0.5993 -0.7048
vn 0.3532 0.6142 -0.7057
vn -0.2561 0.6764 0.6906
vn -0.2534 0.6773 0.6907
vn 0.2659 -0.6654 0.6975
vn 0.2653 -0.6656 0.6975
vn 0.2653 -0.6656 -0.6975
vn 0.2659 -0.6654 -0.6975
vn -0.2534 0.6773 -0.6907
vn -0.2561 0.6764 -0.6906
vn -0.6541 0.3101 0.6899
vn -0.6461 0.3273 0.6895
vn 0.6655 -0.3018 0.6827
vn 0.6587 -0.3164 0.6827
vn 0.6587 -0.3164 -0.6827
vn 0.6654 -0.3018 -0.6827
vn -0.6461 0.3273 -0.6895
vn -0.6541 0.3101 -0.6899
vn -0.6947 -0.1677 0.6994
vn -0.7028 -0.1381 0.6978
vn 0.6975 0.1729 0.6954
vn 0.7077 0.1384 0.6929
vn 0.7077 0.1384 -0.6929
vn 0.6975 0.1729 -0.6954
vn -0.7028 -0.1381 -0.6978
vn -0.6947 -0.1677 -0.6994
vn 0.6836 0.2839 0.6724
vn 0.9573 -0.1114 0.2668
vn 0.9612 -0.1184 0.2492
vn 0.7100 0.2522 0.6574
vn 0.3242 0.7078 -0.6276
vn 0.1204 0.9548 -0.2716
vn 0.1168 0.9594 -0.2569
vn -0.7022 -0.2485 -0.6672
vn -0.9576 0.1255 -0.2594
vn -0.9554 0.1217 -0.2691
vn -0.6817 -0.2734 -0.6787
vn -0.3239 -0.6976 0.6391
vn -0.1145 -0.9560 0.2702
vn -0.1156 -0.9545 0.2748
vn -0.3172 -0.7050 0.6343
vn 0.9573 -0.1114 -0.2668
vn 0.9612 -0.1184 -0.2492
vn 0.1204 0.9548 0.2716
vn 0.1168 0.9594 0.2569
vn -0.9576 0.1255 0.2594
vn -0.9554 0.1217 0.2691
vn -0.1145 -0.9560 -0.2702
vn -0.1156 -0.9545 -0.2748
vn 0.6836 0.2839 -0.6724
vn 0.7100 0.2522 -0.6575
vn 0.3242 0.7078 0.6276
vn -0.7022 -0.2485 0.6672
vn -0.6817 -0.2734 0.6787
vn -0.3239 -0.6976 -0.6391
vn -0.3172 -0.7050 -0.6343
vn 0.2079 0.7130 -0.6696
vn 0.1878 0.7270 -0.6604
vn 0.6598 0.4110 0.6291
vn 0.6543 0.4150 0.6322
vn -0.1821 -0.7222 0.6673
vn -0.1994 -0.7102 0.6752
vn -0.6517 -0.4082 -0.6392
vn -0.6596 -0.4024 -0.6348
vn -0.1607 0.9485 -0.2731
vn -0.1638 0.9504 -0.2643
vn 0.9370 0.2248 0.2675
vn 0.9384 0.2240 0.2633
vn 0.1808 -0.9462 0.2685
vn 0.1787 -0.9450 0.2739
vn -0.9411 -0.2068 -0.2676
vn -0.9408 -0.2069 -0.2684
vn -0.1607 0.9485 0.2731
vn -0.1638 0.9504 0.2643
vn 0.9370 0.2248 -0.2675
vn 0.9384 0.2240 -0.2633
vn 0.1808 -0.9462 -0.2685
vn 0.1787 -0.9450 -0.2739
vn -0.9411 -0.2068 0.2676
vn -0.9408 -0.2069 0.2684
vn 0.2079 0.7130 0.6696
vn 0.1878 0.7270 0.6604
vn 0.6598 0.4110 -0.6291
vn 0.6543 0.4150 -0.6322
vn -0.1821 -0.7222 -0.6673
vn -0.1994 -0.7102 -0.6752
vn -0.6517 -0.4082 0.6392
vn -0.6596 -0.4024 0.6348
vn -0.1114 -0.7026 0.7028
vn 0.3942 -0.6026 0.6939
vn 0.4010 -0.5981 0.6939
vn -0.0926 -0.7060 0.7021
vn 0.1125 0.7030 0.7022
vn -0.3899 0.6103 0.6896
vn -0.3955 0.6066 0.6896
vn 0.0899 0.7075 0.7010
vn 0.0899 0.7075 -0.7010
vn -0.3955 0.6066 -0.6896
vn -0.3899 0.6103 -0.6896
vn 0.1125 0.7030 -0.7022
vn -0.0926 -0.7060 -0.7021
vn 0.4010 -0.5981 -0.6939
vn 0.3942 -0.6026 -0.6939
vn -0.1114 -0.7026 -0.7028
vn 0.6973 -0.1541 0.7000
vn 0.6969 -0.1560 0.7000
vn -0.6916 0.1611 0.7041
vn -0.6910 0.1642 0.7040
vn -0.6910 0.1642 -0.7040
vn -0.6916 0.1611 -0.7041
vn 0.6969 -0.1560 -0.7000
vn 0.6973 -0.1541 -0.7000
vn 0.5776 0.4084 0.7068
vn 0.5705 0.4185 0.7066
vn -0.5782 -0.4077 0.7067
vn -0.5686 -0.4219 0.7061
vn -0.5686 -0.4219 -0.7061
vn -0.5782 -0.4077 -0.7067
vn 0.5705 0.4185 -0.7066
vn 0.5776 0.4084 -0.7068
vn 0.0331 0.7062 0.7073
vn 0.0450 0.7057 0.7071
vn -0.0247 -0.7073 0.7065
vn -0.0420 -0.7069 0.7061
vn -0.0420 -0.7069 -0.7061
vn -0.0247 -0.7073 -0.7065
vn 0.0450 0.7057 -0.7071
vn 0.0331 0.7062 -0.7073
vn -0.5122 0.5002 0.6981
vn -0.5094 0.5031 0.6982
vn 0.5223 -0.4881 0.6992
vn 0.5201 -0.4904 0.6993
vn 0.5201 -0.4904 -0.6993
vn 0.5223 -0.4881 -0.6992
vn -0.5094 0.5031 -0.6982
vn -0.5122 0.5002 -0.6981
vn -0.7221 0.0013 0.6918
vn -0.7220 0.0169 0.6917
vn 0.7236 0.0138 0.6901
vn 0.7238 -0.0010 0.6900
vn 0.7238 -0.0010 -0.6900
vn 0.7236 0.0138 -0.6901
vn -0.7220 0.0169 -0.6917
vn -0.7221 0.0013 -0.6918
vn -0.5340 -0.4714 0.7018
vn -0.5470 -0.4574 0.7011
vn 0.5291 0.4766 0.7021
vn 0.5456 0.4594 0.7009
vn 0.5456 0.4594 -0.7009
vn 0.5291 0.4766 -0.7021
vn -0.5470 -0.4574 -0.7011
vn -0.5340 -0.4714 -0.7018
vn 0.4941 0.5489 0.6743
vn 0.8978 0.3516 0.2653
vn 0.8994 0.3508 0.2609
vn 0.5165 0.5395 0.6650
vn -0.0090 0.7785 -0.6275
vn -0.3104 0.9107 -0.2724
vn -0.3130 0.9119 -0.2657
vn -0.0032 0.7763 -0.6303
vn -0.5107 -0.5409 -0.6683
vn -0.8968 -0.3535 -0.2660
vn -0.8957 -0.3541 -0.2690
vn -0.4901 -0.5495 -0.6767
vn -0.0009 -0.7738 0.6335
vn 0.3093 -0.9117 0.2705
vn 0.3073 -0.9108 0.2758
vn 0.0060 -0.7764 0.6302
vn 0.8978 0.3516 -0.2653
vn 0.8994 0.3508 -0.2609
vn -0.3104 0.9107 0.2724
vn -0.3130 0.9119 0.2657
vn -0.8968 -0.3535 0.2660
vn -0.8957 -0.3541 0.2690
vn 0.3093 -0.9117 -0.2705
vn 0.3073 -0.9108 -0.2758
vn 0.4940 0.5489 -0.6743
vn 0.5165 0.5395 -0.6650
vn -0.0090 0.7785 0.6275
vn -0.0032 0.7763 0.6303
vn -0.5107 -0.5409 0.6683
vn -0.4901 -0.5495 0.6767
vn -0.0009 -0.7738 -0.6335
vn 0.0060 -0.7764 -0.6302
vn -0.1425 0.7184 -0.6809
vn -0.1872 0.7236 -0.6644
vn 0.4195 0.6639 0.6191
vn 0.4125 0.6650 0.6226
vn 0.1747 -0.7201 0.6715
vn 0.1361 -0.7156 0.6852
vn -0.4012 -0.6649 -0.6300
vn -0.4102 -0.6635 -0.6257
vn -0.6219 0.7354 -0.2690
vn -0.6284 0.7353 -0.2538
vn 0.7345 0.6254 0.2634
vn 0.7377 0.6250 0.2553
vn 0.6201 -0.7385 0.2648
vn 0.6145 -0.7386 0.2774
vn -0.7300 -0.6294 -0.2664
vn -0.7278 -0.6297 -0.2717
vn -0.6219 0.7354 0.2690
vn -0.6284 0.7353 0.2538
vn 0.7345 0.6254 -0.2634
vn 0.7377 0.6250 -0.2553
vn 0.6201 -0.7385 -0.2648
vn 0.6145 -0.7386 -0.2774
vn -0.7300 -0.6294 0.2664
vn -0.7278 -0.6297 0.2717
vn -0.1425 0.7184 0.6809
vn -0.1872 0.7236 0.6644
vn 0.4195 0.6639 -0.6191
vn 0.4125 0.6650 -0.6226
vn 0.1747 -0.7201 -0.6715
vn 0.1361 -0.7156 -0.6852
vn -0.4012 -0.6649 0.6300
vn -0.4102 -0.6635 0.6257
vn 0.2945 -0.6610 0.6902
vn 0.6538 -0.3482 0.6718
vn 0.6590 -0.3383 0.6718
vn 0.3329 -0.6466 0.6863
vn -0.2813 0.6648 0.6920
vn -0.6303 0.3753 0.6797
vn -0.6450 0.3495 0.6796
vn -0.3209 0.6498 0.6890
vn -0.3209 0.6498 -0.6890
vn -0.6450 0.3495 -0.6796
vn -0.6303 0.3753 -0.6797
vn -0.2813 0.6648 -0.6920
vn 0.3329 -0.6466 -0.6863
vn 0.6590 -0.3383 -0.6718
vn 0.6538 -0.3482 -0.6718
vn 0.2945 -0.6610 -0.6902
vn 0.6921 0.1911 0.6961
vn 0.6952 0.1810 0.6956
vn -0.7002 -0.1562 0.6967
vn -0.6963 -0.1712 0.6970
vn -0.6963 -0.1712 -0.6970
vn -0.7002 -0.1563 -0.6967
vn 0.6952 0.1810 -0.6956
vn 0.6921 0.1911 -0.6961
vn 0.2721 0.6541 0.7058
vn 0.2330 0.6720 0.7029
vn -0.2862 -0.6499 0.7041
vn -0.2380 -0.6724 0.7009
vn -0.2380 -0.6724 -0.7009
vn -0.2862 -0.6499 -0.7041
vn 0.2330 0.6720 -0.7029
vn 0.2721 0.6541 -0.7058
vn -0.4507 0.5264 0.7210
vn -0.4019 0.5729 0.7143
vn 0.4510 -0.5274 0.7200
vn 0.4023 -0.5741 0.7131
vn 0.4023 -0.5741 -0.7131
vn 0.4510 -0.5274 -0.7200
vn -0.4019 0.5729 -0.7143
vn -0.4507 0.5264 -0.7210
vn -0.6896 -0.0334 0.7234
vn -0.6892 -0.0584 0.7222
vn 0.6896 0.0335 0.7234
vn 0.6892 0.0584 0.7222
vn 0.6892 0.0584 -0.7222
vn 0.6896 0.0335 -0.7234
vn -0.6892 -0.0584 -0.7222
vn -0.6896 -0.0334 -0.7234
vn -0.4879 -0.5393 0.6863
vn -0.4724 -0.5542 0.6853
vn 0.4879 0.5393 0.6863
vn 0.4724 0.5542 0.6853
vn 0.4724 0.5542 -0.6853
vn 0.4879 0.5393 -0.6863
vn -0.4724 -0.5542 -0.6853
vn -0.4879 -0.5393 -0.6863
vn -0.0713 -0.7254 0.6846
vn -0.1034 -0.7250 0.6810
vn 0.0724 0.7265 0.6834
vn 0.1046 0.7259 0.6798
vn 0.1046 0.7259 -0.6798
vn 0.0724 0.7265 -0.6834
vn -0.1034 -0.7250 -0.6810
vn -0.0713 -0.7254 -0.6846
vt 0.452645 0.280074
vt 0.339000 0.310790
vt 0.358718 0.242324
vt 0.577089 0.280074
vt 0.552917 0.246361
vt 0.563883 0.219869
vt 0.596084 0.264779
vt 0.515418 0.234009
vt 0.515409 0.203421
vt 0.478265 0.246361
vt 0.440626 0.242324
vt 0.467298 0.219869
vt 0.270003 0.287445
vt 0.272964 0.298169
vt 0.244115 0.294592
vt 0.117551 0.345735
vt 0.023623 0.383485
vt 0.003906 0.315019
vt 0.241995 0.345735
vt 0.260990 0.361030
vt 0.228789 0.405940
vt 0.217823 0.379448
vt 0.180314 0.422387
vt 0.180324 0.391799
vt 0.143170 0.379448
vt 0.132204 0.405940
vt 0.105532 0.383485
vt 0.473375 0.003906
vt 0.524562 0.003906
vt 0.524562 0.011074
vt 0.473375 0.011074
vt 0.339000 0.341464
vt 0.452645 0.372180
vt 0.358718 0.409930
vt 0.003906 0.284345
vt 0.015822 0.222324
vt 0.023624 0.215879
vt 0.996094 0.003906
vt 0.996094 0.027868
vt 0.980395 0.027868
vt 0.980395 0.003906
vt 0.907121 0.003906
vt 0.907121 0.027868
vt 0.873338 0.011074
vt 0.264272 0.003906
vt 0.264272 0.011074
vt 0.217628 0.011074
vt 0.217628 0.003906
vt 0.917241 0.027868
vt 0.917241 0.003906
vt 0.392411 0.003906
vt 0.392411 0.011074
vt 0.353258 0.011074
vt 0.353258 0.003906
vt 0.019605 0.003906
vt 0.019605 0.027868
vt 0.003906 0.027868
vt 0.003906 0.003906
vt 0.092879 0.003906
vt 0.092879 0.027868
vt 0.082759 0.027868
vt 0.082759 0.003906
vt 0.431892 0.003906
vt 0.431892 0.011074
vt 0.126662 0.020700
vt 0.633052 0.027867
vt 0.569061 0.027867
vt 0.569061 0.020700
vt 0.633052 0.020700
vt 0.790347 0.003906
vt 0.790347 0.011074
vt 0.739502 0.011074
vt 0.739502 0.003906
vt 0.688313 0.011074
vt 0.688313 0.003906
vt 0.633052 0.011074
vt 0.633052 0.003906
vt 0.310915 0.011074
vt 0.310915 0.003906
vt 0.192852 0.011074
vt 0.192852 0.003906
vt 0.825212 0.003906
vt 0.825212 0.011074
vt 0.174788 0.011074
vt 0.174788 0.003906
vt 0.524562 0.027867
vt 0.524562 0.020700
vt 0.535687 0.020700
vt 0.535687 0.027867
vt 0.546811 0.020700
vt 0.546811 0.027867
vt 0.569061 0.003906
vt 0.569061 0.011074
vt 0.557936 0.011074
vt 0.557936 0.003906
vt 0.546811 0.011074
vt 0.546811 0.003906
vt 0.579209 0.331217
vt 0.608058 0.327640
vt 0.400474 0.084024
vt 0.389507 0.110516
vt 0.352008 0.098164
vt 0.219464 0.274085
vt 0.219464 0.106479
vt 0.229090 0.106479
vt 0.229090 0.274085
vt 0.535687 0.011074
vt 0.535687 0.003906
vt 0.353258 0.020700
vt 0.392411 0.020700
vt 0.392411 0.027867
vt 0.353258 0.027867
vt 0.192852 0.020700
vt 0.217628 0.020700
vt 0.217628 0.027867
vt 0.192852 0.027867
vt 0.431892 0.020700
vt 0.431892 0.027867
vt 0.473375 0.020700
vt 0.473375 0.027867
vt 0.264272 0.020700
vt 0.310915 0.020700
vt 0.310915 0.027867
vt 0.264272 0.027867
vt 0.174788 0.020700
vt 0.174788 0.027867
vt 0.688313 0.020700
vt 0.688313 0.027867
vt 0.790346 0.020700
vt 0.825212 0.020700
vt 0.825212 0.027867
vt 0.790346 0.027867
vt 0.739502 0.020700
vt 0.739502 0.027867
vt 0.144666 0.084024
vt 0.133699 0.110516
vt 0.096546 0.098164
vt 0.557936 0.020700
vt 0.557936 0.027867
vt 0.784867 0.615483
vt 0.748193 0.615483
vt 0.748193 0.605857
vt 0.784867 0.605857
vt 0.710573 0.615483
vt 0.710573 0.605857
vt 0.669680 0.615483
vt 0.669680 0.605857
vt 0.631948 0.615483
vt 0.631948 0.605857
vt 0.591714 0.615483
vt 0.591714 0.605857
vt 0.545559 0.615483
vt 0.545559 0.605857
vt 0.461211 0.615483
vt 0.461211 0.605857
vt 0.692867 0.494944
vt 0.692867 0.504570
vt 0.651527 0.504570
vt 0.651527 0.494944
vt 0.601926 0.504570
vt 0.601926 0.494944
vt 0.546520 0.504570
vt 0.546520 0.494944
vt 0.492038 0.504570
vt 0.492038 0.494944
vt 0.436769 0.504570
vt 0.436769 0.494944
vt 0.383049 0.504570
vt 0.383049 0.494944
vt 0.295637 0.504570
vt 0.295637 0.494944
vt 0.914202 0.503371
vt 0.938701 0.508064
vt 0.930491 0.548581
vt 0.907302 0.539390
vt 0.296838 0.639786
vt 0.271982 0.637698
vt 0.281455 0.584819
vt 0.304536 0.594277
vt 0.327592 0.561304
vt 0.314175 0.540276
vt 0.367669 0.529950
vt 0.364746 0.554723
vt 0.283808 0.494944
vt 0.283808 0.504570
vt 0.849646 0.587465
vt 0.852570 0.612237
vt 0.799076 0.601911
vt 0.812493 0.580884
vt 0.402245 0.571034
vt 0.418463 0.552082
vt 0.445590 0.593607
vt 0.422401 0.602798
vt 0.781739 0.502402
vt 0.756882 0.504490
vt 0.769910 0.418054
vt 0.781739 0.418054
vt 0.903364 0.590106
vt 0.887146 0.571154
vt 0.296838 0.724134
vt 0.285010 0.724134
vt 0.766356 0.557368
vt 0.789437 0.547910
vt 0.453800 0.634124
vt 0.429301 0.638817
vt 0.171849 0.077224
vt 0.157655 0.077224
vt 0.157655 0.067598
vt 0.171849 0.067598
vt 0.228625 0.077224
vt 0.214431 0.077224
vt 0.214431 0.067598
vt 0.228625 0.067598
vt 0.186043 0.077224
vt 0.186043 0.067598
vt 0.242819 0.077224
vt 0.242819 0.067598
vt 0.200237 0.077224
vt 0.200237 0.067598
vt 0.913566 0.086050
vt 0.913566 0.095275
vt 0.884377 0.095275
vt 0.884377 0.086050
vt 0.913566 0.067598
vt 0.913566 0.076824
vt 0.884377 0.076824
vt 0.884377 0.067598
vt 0.913566 0.104501
vt 0.884377 0.104501
vt 0.922792 0.095275
vt 0.922792 0.086050
vt 0.875151 0.095275
vt 0.875151 0.086050
vt 0.102436 0.176271
vt 0.088066 0.176271
vt 0.088066 0.151245
vt 0.102435 0.151245
vt 0.088066 0.111850
vt 0.102435 0.111850
vt 0.102435 0.136876
vt 0.088066 0.136876
vt 0.127461 0.136876
vt 0.127461 0.151245
vt 0.063041 0.151245
vt 0.063040 0.136876
vt 0.344314 0.111643
vt 0.358684 0.111643
vt 0.358684 0.136668
vt 0.344314 0.136668
vt 0.663852 0.067598
vt 0.678046 0.067598
vt 0.678046 0.077224
vt 0.663851 0.077224
vt 0.558761 0.114447
vt 0.558761 0.123673
vt 0.529571 0.123673
vt 0.529571 0.114447
vt 0.520345 0.123673
vt 0.529571 0.132899
vt 0.520345 0.132899
vt 0.651527 0.512455
vt 0.651527 0.522081
vt 0.601926 0.522081
vt 0.601926 0.512455
vt 0.558761 0.142125
vt 0.558761 0.151351
vt 0.529571 0.151351
vt 0.529571 0.142125
vt 0.465153 0.623368
vt 0.501827 0.623368
vt 0.501827 0.632994
vt 0.465153 0.632994
vt 0.546520 0.522081
vt 0.546520 0.512455
vt 0.383049 0.522081
vt 0.295637 0.522081
vt 0.295637 0.512455
vt 0.383049 0.512455
vt 0.492038 0.512455
vt 0.492038 0.522081
vt 0.436769 0.522081
vt 0.436769 0.512455
vt 0.621270 0.067598
vt 0.635464 0.067598
vt 0.635464 0.077224
vt 0.621270 0.077224
vt 0.949325 0.390356
vt 0.974181 0.392444
vt 0.964708 0.445323
vt 0.941627 0.435865
vt 0.383709 0.136668
vt 0.383709 0.151038
vt 0.358684 0.151038
vt 0.546811 0.052546
vt 0.557936 0.052546
vt 0.557936 0.059713
vt 0.546811 0.059713
vt 0.881417 0.475420
vt 0.878494 0.500192
vt 0.827700 0.478060
vt 0.843918 0.459108
vt 0.161765 0.687773
vt 0.177984 0.706725
vt 0.127190 0.728856
vt 0.124266 0.704084
vt 0.358684 0.176063
vt 0.344314 0.176063
vt 0.344314 0.151038
vt 0.931988 0.489866
vt 0.918571 0.468838
vt 0.567987 0.123673
vt 0.567987 0.132899
vt 0.558761 0.132899
vt 0.087113 0.697502
vt 0.073696 0.718530
vt 0.040976 0.673987
vt 0.064057 0.664529
vt 0.283808 0.512455
vt 0.283808 0.522081
vt 0.056359 0.619021
vt 0.031502 0.621109
vt 0.044530 0.534673
vt 0.056359 0.534673
vt 0.539447 0.623368
vt 0.580341 0.623368
vt 0.580341 0.632994
vt 0.539447 0.632994
vt 0.692239 0.067598
vt 0.692239 0.077224
vt 0.607076 0.067598
vt 0.607076 0.077224
vt 0.319289 0.151038
vt 0.319289 0.136668
vt 0.181922 0.656008
vt 0.205111 0.665200
vt 0.649658 0.067598
vt 0.649658 0.077224
vt 0.800573 0.436535
vt 0.823762 0.427344
vt 0.949325 0.306008
vt 0.961153 0.306008
vt 0.688313 0.052546
vt 0.739502 0.052546
vt 0.739502 0.059713
vt 0.688313 0.059713
vt 0.633052 0.052546
vt 0.633052 0.059713
vt 0.569061 0.052546
vt 0.569061 0.059713
vt 0.594086 0.084024
vt 0.583120 0.110516
vt 0.545967 0.098164
vt 0.217628 0.052546
vt 0.264272 0.052546
vt 0.264272 0.059713
vt 0.217628 0.059713
vt 0.310915 0.052546
vt 0.310915 0.059713
vt 0.353259 0.052546
vt 0.353259 0.059713
vt 0.473375 0.052546
vt 0.524562 0.052546
vt 0.524562 0.059713
vt 0.473375 0.059713
vt 0.188822 0.619989
vt 0.213321 0.624683
vt 0.633052 0.042920
vt 0.569061 0.042920
vt 0.569061 0.035752
vt 0.633052 0.035752
vt 0.535687 0.042920
vt 0.524562 0.042920
vt 0.524562 0.035752
vt 0.535687 0.035752
vt 0.618072 0.623368
vt 0.618072 0.632994
vt 0.658306 0.623368
vt 0.658306 0.632994
vt 0.704461 0.623368
vt 0.704461 0.632994
vt 0.431892 0.052546
vt 0.431892 0.059713
vt 0.174788 0.052546
vt 0.192852 0.052546
vt 0.192852 0.059713
vt 0.174788 0.059713
vt 0.788809 0.623368
vt 0.788809 0.632994
vt 0.790347 0.052546
vt 0.790347 0.059713
vt 0.692867 0.512455
vt 0.692867 0.522081
vt 0.825212 0.052546
vt 0.825212 0.059713
vt 0.792363 0.396018
vt 0.816862 0.391325
vt 0.392411 0.052546
vt 0.392411 0.059713
vt 0.546811 0.042920
vt 0.546811 0.035752
vt 0.647752 0.294591
vt 0.649871 0.345734
vt 0.618902 0.298168
vt 0.535687 0.059713
vt 0.535687 0.052546
vt 0.310915 0.035752
vt 0.310915 0.042920
vt 0.264272 0.042920
vt 0.264272 0.035752
vt 0.217628 0.035752
vt 0.217628 0.042920
vt 0.192852 0.042919
vt 0.192852 0.035752
vt 0.739502 0.035752
vt 0.739502 0.042920
vt 0.688313 0.042920
vt 0.688313 0.035752
vt 0.473375 0.035752
vt 0.473375 0.042920
vt 0.431892 0.042920
vt 0.431892 0.035752
vt 0.126662 0.052546
vt 0.092879 0.059713
vt 0.092880 0.035752
vt 0.392411 0.042920
vt 0.392411 0.035752
vt 0.082759 0.059713
vt 0.082759 0.035752
vt 0.019605 0.035752
vt 0.019605 0.059713
vt 0.003906 0.059713
vt 0.003906 0.035752
vt 0.353258 0.042920
vt 0.353259 0.035752
vt 0.980395 0.035752
vt 0.980395 0.059713
vt 0.917241 0.059713
vt 0.917241 0.035752
vt 0.907121 0.059713
vt 0.907120 0.035752
vt 0.849894 0.084024
vt 0.838927 0.110516
vt 0.801428 0.098164
vt 0.790347 0.035752
vt 0.790347 0.042920
vt 0.668884 0.274085
vt 0.668884 0.106479
vt 0.678511 0.106479
vt 0.678511 0.274085
vt 0.825212 0.035752
vt 0.825212 0.042919
vt 0.174788 0.042919
vt 0.174788 0.035752
vt 0.557936 0.042920
vt 0.557936 0.035752
vt 0.887960 0.284344
vt 0.774315 0.253628
vt 0.868243 0.215878
vt 0.996094 0.035752
vt 0.996094 0.059713
vt 0.096546 0.436185
vt 0.096555 0.405597
vt 0.144666 0.422044
vt 0.133699 0.448536
vt 0.272964 0.543639
vt 0.261048 0.605659
vt 0.253246 0.612105
vt 0.873338 0.042919
vt 0.159319 0.482249
vt 0.253246 0.444499
vt 0.272964 0.512965
vt 0.171338 0.444499
vt 0.059047 0.448536
vt 0.048080 0.422044
vt 0.034875 0.482249
vt 0.015880 0.466954
vt 0.711542 0.391798
vt 0.748696 0.379447
vt 0.759662 0.405939
vt 0.711552 0.422386
vt 0.674043 0.379447
vt 0.663077 0.405939
vt 0.630876 0.361029
vt 0.016542 0.546028
vt 0.006866 0.540539
vt 0.003906 0.529815
vt 0.774315 0.345734
vt 0.786334 0.383484
vt 0.887960 0.315018
vt 0.868243 0.383484
vt 0.449361 0.424914
vt 0.454552 0.429123
vt 0.449716 0.431957
vt 0.448016 0.430849
vt 0.450701 0.418867
vt 0.459967 0.426379
vt 0.483588 0.425589
vt 0.478335 0.429715
vt 0.472790 0.427167
vt 0.481981 0.419602
vt 0.485208 0.431488
vt 0.483498 0.432389
vt 0.455850 0.437954
vt 0.450265 0.435848
vt 0.461876 0.440037
vt 0.477150 0.438582
vt 0.471223 0.441024
vt 0.482500 0.436024
vt 0.452102 0.442354
vt 0.449083 0.436632
vt 0.455096 0.448187
vt 0.480855 0.442965
vt 0.478153 0.448911
vt 0.483573 0.437150
vt 0.414576 0.441938
vt 0.417491 0.436473
vt 0.411521 0.447512
vt 0.518298 0.441202
vt 0.521615 0.446657
vt 0.515102 0.435825
vt 0.411114 0.436633
vt 0.416562 0.435106
vt 0.405018 0.437890
vt 0.521857 0.435965
vt 0.527983 0.436931
vt 0.516264 0.434806
vt 0.413244 0.427938
vt 0.417771 0.431505
vt 0.408465 0.424353
vt 0.519646 0.427297
vt 0.524272 0.423535
vt 0.515482 0.431033
vt 0.418103 0.424707
vt 0.419293 0.430860
vt 0.417105 0.418467
vt 0.514822 0.424061
vt 0.515520 0.417773
vt 0.513926 0.430252
vt 0.464684 0.462458
vt 0.468936 0.466742
vt 0.464337 0.469564
vt 0.463267 0.468439
vt 0.467040 0.456578
vt 0.474287 0.464209
vt 0.547299 0.424757
vt 0.543073 0.428933
vt 0.537589 0.426428
vt 0.545612 0.418658
vt 0.550002 0.430481
vt 0.548473 0.431370
vt 0.469027 0.475731
vt 0.464158 0.473331
vt 0.474571 0.477968
vt 0.543098 0.437800
vt 0.537663 0.440545
vt 0.548185 0.435180
vt 0.464859 0.480062
vt 0.462979 0.474171
vt 0.467557 0.485792
vt 0.547193 0.442063
vt 0.545830 0.448231
vt 0.549666 0.436262
vt 0.430481 0.481100
vt 0.432029 0.475075
vt 0.428172 0.487050
vt 0.583658 0.441448
vt 0.585526 0.447492
vt 0.581040 0.435710
vt 0.426012 0.476827
vt 0.430749 0.474009
vt 0.420497 0.479385
vt 0.587999 0.437187
vt 0.593682 0.439637
vt 0.582476 0.434782
vt 0.425877 0.467854
vt 0.430938 0.470230
vt 0.420184 0.465649
vt 0.587967 0.428320
vt 0.593567 0.425612
vt 0.582738 0.430956
vt 0.430282 0.463513
vt 0.432280 0.469433
vt 0.427597 0.457703
vt 0.583733 0.423994
vt 0.585288 0.417867
vt 0.581363 0.429794
vt 0.318014 0.424175
vt 0.322539 0.428169
vt 0.317798 0.431208
vt 0.316365 0.430189
vt 0.319550 0.418046
vt 0.327793 0.425195
vt 0.349969 0.424631
vt 0.345337 0.428528
vt 0.340000 0.425696
vt 0.348228 0.418554
vt 0.351822 0.430611
vt 0.350358 0.431394
vt 0.323393 0.437054
vt 0.317935 0.435038
vt 0.329337 0.438967
vt 0.344452 0.437408
vt 0.338568 0.439530
vt 0.349700 0.435118
vt 0.319210 0.441659
vt 0.316607 0.435925
vt 0.321873 0.447485
vt 0.348507 0.442106
vt 0.346040 0.447992
vt 0.350899 0.436336
vt 0.281871 0.441867
vt 0.284382 0.436088
vt 0.279278 0.447694
vt 0.385833 0.441411
vt 0.388619 0.447173
vt 0.383113 0.435671
vt 0.277924 0.436966
vt 0.283213 0.434896
vt 0.271982 0.438764
vt 0.389921 0.436611
vt 0.395913 0.438217
vt 0.384419 0.434809
vt 0.279069 0.428113
vt 0.283962 0.431184
vt 0.273893 0.424991
vt 0.388811 0.427754
vt 0.393898 0.424483
vt 0.384195 0.430997
vt 0.283706 0.424422
vt 0.285451 0.430377
vt 0.282118 0.418305
vt 0.384272 0.423976
vt 0.385652 0.417810
vt 0.382732 0.429962
vt 0.636549 0.460932
vt 0.641082 0.465215
vt 0.636317 0.468090
vt 0.635067 0.467034
vt 0.638874 0.455035
vt 0.646574 0.462616
vt 0.297335 0.463510
vt 0.293113 0.467793
vt 0.287398 0.465458
vt 0.295405 0.457442
vt 0.300070 0.469109
vt 0.298631 0.470115
vt 0.641275 0.474193
vt 0.636167 0.471871
vt 0.646987 0.476380
vt 0.293302 0.476652
vt 0.287754 0.479455
vt 0.298426 0.473949
vt 0.636862 0.478601
vt 0.634862 0.472616
vt 0.639599 0.484332
vt 0.297565 0.480853
vt 0.296188 0.487062
vt 0.299851 0.475093
vt 0.602858 0.479730
vt 0.604152 0.473638
vt 0.600420 0.485599
vt 0.333818 0.479486
vt 0.335527 0.485562
vt 0.331006 0.473918
vt 0.598502 0.475487
vt 0.602986 0.472619
vt 0.592970 0.478067
vt 0.337987 0.475212
vt 0.343398 0.477615
vt 0.332406 0.472888
vt 0.598345 0.466504
vt 0.603145 0.468879
vt 0.592587 0.464314
vt 0.337808 0.466343
vt 0.343089 0.463529
vt 0.332619 0.469030
vt 0.602574 0.462166
vt 0.604381 0.468151
vt 0.599738 0.456470
vt 0.333616 0.462138
vt 0.334772 0.455935
vt 0.331243 0.467875
vt 0.393166 0.462927
vt 0.397992 0.466434
vt 0.393790 0.469877
vt 0.392204 0.469010
vt 0.393890 0.456744
vt 0.402521 0.462442
vt 0.613167 0.425056
vt 0.608317 0.428546
vt 0.603632 0.424751
vt 0.612112 0.418934
vt 0.614439 0.431094
vt 0.612875 0.431885
vt 0.400246 0.475096
vt 0.394682 0.473698
vt 0.406350 0.475838
vt 0.606133 0.437275
vt 0.600069 0.438293
vt 0.611573 0.435455
vt 0.396696 0.480096
vt 0.393568 0.474595
vt 0.399959 0.485689
vt 0.609591 0.442331
vt 0.606586 0.448037
vt 0.612433 0.436743
vt 0.359314 0.479771
vt 0.362776 0.474361
vt 0.355840 0.485320
vt 0.646990 0.440657
vt 0.650753 0.446057
vt 0.643218 0.435377
vt 0.356304 0.474915
vt 0.361961 0.473118
vt 0.350080 0.476513
vt 0.650041 0.435779
vt 0.656305 0.436994
vt 0.644236 0.434487
vt 0.358861 0.466306
vt 0.363595 0.469701
vt 0.353740 0.462991
vt 0.647379 0.427228
vt 0.652344 0.423752
vt 0.642991 0.430700
vt 0.364714 0.462968
vt 0.365477 0.469004
vt 0.363986 0.456841
vt 0.641578 0.423797
vt 0.642043 0.417644
vt 0.641077 0.429834
vt 0.445245 0.326127
vt 0.342349 0.326127
vt 0.350916 0.248769
vt 0.249604 0.284916
vt 0.260328 0.281956
vt 0.015822 0.377039
vt 0.007255 0.299682
vt 0.110151 0.299682
vt 0.453189 0.396950
vt 0.440626 0.409930
vt 0.350916 0.403484
vt 0.105532 0.215879
vt 0.117551 0.253629
vt 0.118095 0.228859
vt 0.873338 0.020700
vt 0.126662 0.011074
vt 0.605098 0.338363
vt 0.595422 0.343853
vt 0.584698 0.340893
vt 0.277216 0.274085
vt 0.289235 0.236335
vt 0.281835 0.190282
vt 0.277216 0.106479
vt 0.303888 0.084024
vt 0.314855 0.110516
vt 0.351999 0.067576
vt 0.289235 0.144229
vt 0.289779 0.261105
vt 0.432674 0.128934
vt 0.444648 0.191795
vt 0.413679 0.144229
vt 0.441688 0.202518
vt 0.432012 0.208008
vt 0.421288 0.205048
vt 0.415799 0.195372
vt 0.171338 0.106479
vt 0.159319 0.144229
vt 0.166719 0.190282
vt 0.171338 0.274085
vt 0.159319 0.236335
vt 0.158775 0.261105
vt 0.048080 0.084024
vt 0.096555 0.067576
vt 0.003906 0.191795
vt 0.015880 0.128934
vt 0.034875 0.144229
vt 0.059047 0.110516
vt 0.016542 0.208008
vt 0.006866 0.202518
vt 0.032755 0.195372
vt 0.027266 0.205048
vt 0.620758 0.106479
vt 0.608739 0.144229
vt 0.616140 0.190282
vt 0.620758 0.274085
vt 0.608739 0.236335
vt 0.608196 0.261105
vt 0.497501 0.084024
vt 0.545976 0.067576
vt 0.453327 0.191795
vt 0.465300 0.128934
vt 0.484295 0.144229
vt 0.508467 0.110516
vt 0.465963 0.208008
vt 0.456287 0.202518
vt 0.482176 0.195372
vt 0.476686 0.205048
vt 0.621863 0.287444
vt 0.631538 0.281955
vt 0.642262 0.284915
vt 0.126662 0.042919
vt 0.726637 0.274085
vt 0.738655 0.236335
vt 0.731255 0.190282
vt 0.726637 0.106479
vt 0.753308 0.084024
vt 0.764275 0.110516
vt 0.801419 0.067576
vt 0.738655 0.144229
vt 0.739199 0.261105
vt 0.882094 0.128933
vt 0.894068 0.191795
vt 0.863100 0.144229
vt 0.891108 0.202518
vt 0.881432 0.208008
vt 0.870709 0.205048
vt 0.865219 0.195372
vt 0.773771 0.228858
vt 0.786334 0.215878
vt 0.876044 0.222323
vt 0.884611 0.299681
vt 0.781716 0.299681
vt 0.171338 0.612105
vt 0.159319 0.574355
vt 0.158775 0.599125
vt 0.166719 0.528302
vt 0.269614 0.528302
vt 0.873338 0.052546
vt 0.261048 0.450945
vt 0.032755 0.533392
vt 0.027266 0.543068
vt 0.876044 0.377038
s 1
usemtl handcuffs
f 2/1/1 13/2/1 14/3/1
f 6/4/1 5/5/1 9/6/1 10/7/1
f 5/5/1 4/8/1 8/9/1 9/6/1
f 3/10/1 2/1/1 11/11/1 7/12/1
f 52/13/2 51/14/2 48/15/2
f 4/8/1 3/10/1 7/12/1 8/9/1
f 29/16/2 34/17/2 32/18/2
f 24/19/2 28/20/2 27/21/2 23/22/2
f 23/22/2 27/21/2 25/23/2 21/24/2
f 22/25/2 26/26/2 30/27/2 29/16/2
f 6/28/3 43/29/4 82/30/4 80/31/3
f 21/24/2 25/23/2 26/26/2 22/25/2
f 18/32/1 16/33/1 19/34/1
f 40/35/2 42/36/2 41/37/2
f 12/38/5 33/39/5 32/40/6 13/41/6
f 14/42/7 34/43/7 90/44/8
f 1/45/9 91/46/9 92/47/10 16/48/10
f 13/41/6 32/40/6 35/49/11 15/50/11
f 4/51/12 84/52/12 86/53/13 3/54/13
f 18/55/14 40/56/14 33/57/5 12/58/5
f 19/59/15 41/60/15 42/61/16 20/62/16
f 5/63/17 81/64/17 84/52/12 4/51/12
f 73/65/18 41/60/15 19/59/15
f 6/28/3 80/31/3 81/64/17 5/63/17
f 20/62/16 42/61/16 40/56/14 18/55/14
f 28/66/19 51/67/20 53/68/20 55/69/19
f 7/70/21 85/71/21 83/72/22 8/73/22
f 8/73/22 83/72/22 78/74/23 9/75/23
f 9/75/23 78/74/23 76/76/19 10/77/19
f 3/54/13 86/53/13 88/78/24 2/79/24
f 16/48/10 92/47/10 89/80/25 37/81/25
f 11/82/26 87/83/26 85/71/21 7/70/21
f 37/81/25 89/80/25 93/84/27 17/85/27
f 2/79/24 88/78/24 91/46/9 1/45/9
f 35/49/11 34/43/7 14/42/7 15/50/11
f 48/86/4 59/87/4 57/88/28 50/89/28
f 50/89/28 57/88/28 56/90/29 49/91/29
f 45/92/20 74/93/20 75/94/30 47/95/30
f 47/95/30 75/94/30 77/96/29 46/97/29
f 43/98/1 6/4/1 45/99/1
f 63/100/1 64/101/1 66/102/1
s 0
f 94/103/9 90/104/9 71/105/9 73/106/9
s 1
f 77/96/29 79/107/28 44/108/28 46/97/29
f 68/109/13 66/110/12 21/111/12 22/112/13
f 60/113/25 61/114/10 38/115/10 36/116/25
f 66/110/12 64/117/17 23/118/17 21/111/12
f 64/117/17 58/119/3 24/120/3 23/118/17
f 72/121/9 70/122/24 29/123/24 31/124/9
f 61/114/10 72/121/9 31/124/9 38/115/10
f 62/125/27 60/113/25 36/116/25 39/126/27
f 55/69/19 63/127/23 27/128/23 28/66/19
f 67/129/21 69/130/26 30/131/26 26/132/21
f 63/127/23 65/133/22 25/134/22 27/128/23
f 85/135/2 86/136/2 84/137/2
f 54/138/30 53/68/20 51/67/20 52/139/30
f 70/122/24 68/109/13 22/112/13 29/123/24
f 65/133/22 67/129/21 26/132/21 25/134/22
f 79/107/28 82/30/4 43/29/4 44/108/28
f 58/119/3 59/87/4 48/86/4 24/120/3
f 56/90/29 54/138/30 52/139/30 49/91/29
f 76/76/19 74/93/20 45/92/20 10/77/19
f 95/140/31 97/141/32 98/142/32 96/143/31
f 97/141/32 99/144/33 100/145/33 98/142/32
f 99/144/33 101/146/34 102/147/34 100/145/33
f 101/146/34 103/148/35 104/149/35 102/147/34
f 103/148/35 105/150/36 106/151/36 104/149/35
f 106/151/36 105/150/36 107/152/37 108/153/37
f 108/153/37 107/152/37 109/154/9 110/155/9
f 111/156/38 112/157/38 114/158/39 113/159/39
f 113/159/39 114/158/39 116/160/40 115/161/40
f 115/161/40 116/160/40 118/162/41 117/163/41
f 117/163/41 118/162/41 120/164/42 119/165/42
f 119/165/42 120/164/42 122/166/43 121/167/43
f 122/166/43 124/168/44 123/169/44 121/167/43
f 124/168/44 126/170/45 125/171/45 123/169/44
f 95/172/1 111/173/1 113/174/1 97/175/1
f 108/176/2 124/177/2 122/178/2 106/179/2
f 104/180/2 120/181/2 118/182/2 102/183/2
s 0
f 109/184/8 125/171/8 126/170/8 110/185/8
s 1
f 101/186/1 117/187/1 119/188/1 103/189/1
f 100/190/2 116/191/2 114/192/2 98/193/2
f 107/194/1 123/195/1 125/196/1 109/197/1
f 97/175/1 113/174/1 115/198/1 99/199/1
f 110/200/2 126/201/2 124/177/2 108/176/2
f 106/179/2 122/178/2 120/181/2 104/180/2
f 103/189/1 119/188/1 121/202/1 105/203/1
f 102/183/2 118/182/2 116/191/2 100/190/2
f 99/199/1 115/198/1 117/187/1 101/186/1
f 98/193/2 114/192/2 112/204/2 96/205/2
f 105/203/1 121/202/1 123/195/1 107/194/1
f 131/206/46 130/207/5 136/208/5 137/209/46
f 129/210/47 128/211/48 134/212/48 135/213/47
f 132/214/49 131/206/46 137/209/46 138/215/49
f 130/216/5 129/210/47 135/213/47 136/217/5
f 128/211/48 127/218/9 133/219/9 134/212/48
f 127/218/9 132/214/49 138/215/49 133/219/9
f 142/220/18 141/221/9 145/222/9 146/223/18
f 140/224/8 139/225/5 143/226/5 144/227/8
f 139/225/5 142/220/18 146/223/18 143/226/5
f 141/221/9 140/228/8 144/229/8 145/222/9
s 0
f 140/230/1 141/221/1 142/220/1 139/231/1
f 144/232/2 143/233/2 146/223/2 145/222/2
s 1
f 150/234/8 149/235/1 153/236/1 154/237/8
f 148/238/18 147/239/2 151/240/2 152/241/18
f 147/242/2 150/243/8 154/237/8 151/240/2
f 149/244/1 148/245/18 152/241/18 153/236/1
s 0
f 152/241/5 151/240/5 154/237/5 153/236/5
s 1
f 160/246/1 161/247/50 157/248/50 156/249/1
f 182/250/51 177/251/52 171/252/52 176/253/51
f 169/254/53 170/255/54 166/256/54 165/257/53
s 0
f 165/258/2 166/256/2 163/259/2 164/260/2
s 1
f 196/261/55 195/262/55 193/263/56 194/264/56
f 168/265/51 169/266/53 165/267/53 164/268/51
f 214/269/57 212/270/58 211/271/58 213/272/57
f 194/264/56 193/263/56 191/273/59 192/274/59
f 185/275/60 183/276/61 184/277/61 186/278/60
f 190/279/62 189/280/62 187/281/63 188/282/63
f 179/283/54 180/284/64 174/285/64 173/286/54
f 201/287/2 185/288/2 187/289/2 203/290/2
f 161/291/50 162/292/2 158/293/2 157/248/50
f 253/294/30 255/295/65 257/296/65 260/297/30
f 207/298/2 191/299/2 193/300/2 209/301/2
f 210/302/1 194/303/1 192/304/1 208/305/1
f 162/306/2 159/307/53 155/308/53 158/293/2
f 203/290/2 187/289/2 189/309/2 205/310/2
s 0
f 169/311/1 168/312/1 167/313/1 170/255/1
s 1
f 206/314/1 190/315/1 188/316/1 204/317/1
s 0
f 200/318/53 184/277/53 183/276/53 199/319/53
s 1
f 170/255/54 167/313/50 163/259/50 166/256/54
f 202/320/1 186/321/1 184/322/1 200/323/1
f 167/313/50 168/265/51 164/268/51 163/259/50
f 208/305/1 192/304/1 190/315/1 206/314/1
f 210/324/66 208/325/67 207/326/67 209/327/66
f 177/251/52 178/328/68 172/329/68 171/252/52
f 178/330/68 179/283/54 173/286/54 172/331/68
f 204/317/1 188/316/1 186/321/1 202/320/1
f 159/332/53 160/333/1 156/249/1 155/308/53
f 212/334/1 196/335/1 194/303/1 210/302/1
f 180/284/64 181/336/69 175/337/69 174/285/64
f 209/301/2 193/300/2 195/338/2 211/339/2
s 0
f 157/248/54 158/293/54 155/308/54 156/249/54
s 1
f 199/340/2 183/341/2 185/288/2 201/287/2
f 246/342/70 244/343/71 284/344/71 282/345/70
f 254/346/72 246/342/70 282/345/70 281/347/72
f 255/295/65 256/348/73 258/349/73 257/296/65
f 224/350/2 223/351/2 225/352/2
f 181/336/69 182/250/51 176/253/51 175/337/69
f 248/353/74 237/354/51 278/355/51 271/356/74
f 237/354/51 239/357/75 280/358/75 278/355/51
f 239/357/75 241/359/76 287/360/76 280/358/75
f 205/310/2 189/309/2 191/299/2 207/298/2
f 251/361/77 250/362/78 261/363/78 285/364/77
f 214/365/1 198/366/1 196/335/1 212/334/1
f 192/274/59 191/273/59 189/280/62 190/279/62
f 212/270/58 210/324/66 209/327/66 211/271/58
f 233/367/72 235/368/73 264/369/73 299/370/72
f 230/371/29 227/372/78 266/373/78 265/374/29
f 208/325/67 206/375/79 205/376/79 207/326/67
f 206/375/79 204/377/80 203/378/80 205/376/79
f 203/378/80 204/377/80 202/379/81 201/380/81
f 245/381/82 251/361/77 285/364/77 286/382/82
f 247/383/83 249/384/84 273/385/84 270/386/83
f 187/281/63 185/275/60 186/278/60 188/282/63
f 201/380/81 202/379/81 200/387/51 199/388/51
f 244/343/71 242/389/85 283/390/85 284/344/71
f 198/391/86 197/392/86 195/262/55 196/261/55
f 242/389/85 240/393/87 279/394/87 283/390/85
f 211/339/2 195/338/2 197/395/2 213/396/2
f 243/397/88 245/381/82 286/382/82 288/398/88
f 232/399/30 230/371/29 265/374/29 263/400/30
f 266/401/1 303/402/1 264/403/1
f 259/404/29 252/405/29 253/294/30 260/297/30
f 307/406/75 221/407/75 218/408/51 308/409/51
f 293/410/74 217/411/74 220/412/84 272/413/84
f 301/414/71 226/415/71 231/416/70 300/417/70
f 303/418/77 229/419/77 228/420/82 304/421/82
f 236/422/50 268/423/89 290/424/89
f 304/421/82 228/420/82 225/425/88 305/426/88
f 290/424/89 268/423/89 267/427/90 289/428/90
f 291/429/91 269/430/91 276/431/54 297/432/54
f 305/426/88 225/425/88 223/433/76 306/434/76
f 296/435/92 277/436/92 274/437/93 294/438/93
f 249/384/84 248/353/74 271/356/74 273/385/84
f 300/417/70 231/416/70 233/367/72 299/370/72
f 274/437/93 275/439/94 295/440/94 294/438/93
f 289/428/90 267/427/90 269/430/91 291/429/91
f 261/363/78 250/362/78 252/405/29 259/404/29
f 246/441/1 245/442/1 243/443/1
f 302/444/85 224/445/85 226/415/71 301/414/71
s 0
f 215/446/51 219/447/51 238/448/51 236/449/51
s 1
f 281/347/72 258/349/73 256/348/73 254/346/72
f 298/450/87 222/451/87 224/445/85 302/444/85
f 272/413/84 220/412/84 216/452/83 292/453/83
f 264/369/73 235/368/73 234/454/65 262/455/65
f 262/455/65 234/454/65 232/399/30 263/400/30
f 241/359/76 243/397/88 288/398/88 287/360/76
f 306/434/76 223/433/76 221/407/75 307/406/75
f 291/456/1 293/457/1 290/458/1
f 297/459/54 276/460/54 277/436/92 296/435/92
f 288/461/2 284/462/2 283/463/2 287/464/2
f 269/465/2 267/466/2 268/467/2
f 308/409/51 218/408/51 217/411/74 293/410/74
f 295/440/94 275/439/94 219/468/53
f 280/469/2 275/470/2 277/471/2
f 287/464/2 283/463/2 279/472/2 280/469/2
f 286/473/2 282/474/2 284/462/2 288/461/2
f 285/475/2 281/476/2 282/474/2 286/473/2
f 303/418/77 266/373/78 227/372/78 229/419/77
f 305/477/1 306/478/1 302/479/1 301/480/1
f 303/402/1 304/481/1 300/482/1 299/483/1
f 260/484/2 257/485/2 258/486/2
f 306/478/1 307/487/1 298/488/1 302/479/1
f 304/481/1 305/477/1 301/480/1 300/482/1
f 307/487/1 296/489/1 295/490/1
f 309/491/95 313/492/96 316/493/97 312/494/98
f 310/495/99 314/496/100 313/492/101 309/491/102
f 311/497/103 315/498/104 314/499/105 310/500/106
f 312/501/107 316/502/108 315/498/109 311/497/110
f 313/492/96 317/503/111 320/504/112 316/493/97
f 314/496/100 318/505/113 317/503/114 313/492/101
f 315/498/104 319/506/115 318/507/116 314/499/105
f 316/502/108 320/508/117 319/506/118 315/498/109
f 317/503/111 321/509/119 324/510/120 320/504/112
f 318/505/113 322/511/121 321/509/122 317/503/114
f 319/506/115 323/512/123 322/513/124 318/507/116
f 320/508/117 324/514/125 323/512/126 319/506/118
f 321/509/119 325/515/127 328/516/128 324/510/120
f 322/511/121 326/517/129 325/515/130 321/509/122
f 323/512/123 327/518/131 326/519/132 322/513/124
f 324/514/125 328/520/133 327/518/134 323/512/126
f 325/515/127 329/521/135 332/522/136 328/516/128
f 326/517/129 330/523/137 329/521/138 325/515/130
f 327/518/131 331/524/139 330/525/140 326/519/132
f 328/520/133 332/526/141 331/524/142 327/518/134
f 329/521/135 333/527/143 336/528/144 332/522/136
f 330/523/137 334/529/145 333/527/146 329/521/138
f 331/524/139 335/530/147 334/531/148 330/525/140
f 332/526/141 336/532/149 335/530/150 331/524/142
f 333/527/143 337/533/151 340/534/152 336/528/144
f 334/529/145 338/535/153 337/533/154 333/527/146
f 335/530/147 339/536/155 338/537/156 334/531/148
f 336/532/149 340/538/157 339/536/158 335/530/150
f 337/533/151 309/491/95 312/494/98 340/534/152
f 338/535/153 310/495/99 309/491/102 337/533/154
f 339/536/155 311/497/103 310/500/106 338/537/156
f 340/538/157 312/501/107 311/497/110 339/536/158
f 341/539/159 345/540/160 348/541/161 344/542/162
f 342/543/163 346/544/164 345/540/165 341/539/163
f 343/545/166 347/546/167 346/547/168 342/548/169
f 344/549/170 348/550/171 347/546/172 343/545/173
f 345/540/160 349/551/174 352/552/175 348/541/161
f 346/544/164 350/553/176 349/551/177 345/540/165
f 347/546/167 351/554/178 350/555/179 346/547/168
f 348/550/171 352/556/180 351/554/181 347/546/172
f 349/551/174 353/557/182 356/558/183 352/552/175
f 350/553/176 354/559/184 353/557/184 349/551/177
f 351/554/178 355/560/185 354/561/186 350/555/179
f 352/556/180 356/562/187 355/560/188 351/554/181
f 353/557/182 357/563/189 360/564/190 356/558/183
f 354/559/184 358/565/191 357/563/192 353/557/184
f 355/560/185 359/566/193 358/567/194 354/561/186
f 356/562/187 360/568/195 359/566/196 355/560/188
f 357/563/189 361/569/197 364/570/198 360/564/190
f 358/565/191 362/571/199 361/569/200 357/563/192
f 359/566/193 363/572/201 362/573/202 358/567/194
f 360/568/195 364/574/203 363/572/204 359/566/196
f 361/569/197 365/575/205 368/576/206 364/570/198
f 362/571/199 366/577/207 365/575/208 361/569/200
f 363/572/201 367/578/209 366/579/210 362/573/202
f 364/574/203 368/580/211 367/578/212 363/572/204
f 365/575/205 369/581/213 372/582/214 368/576/206
f 366/577/207 370/583/215 369/581/216 365/575/208
f 367/578/209 371/584/217 370/585/218 366/579/210
f 368/580/211 372/586/219 371/584/220 367/578/212
f 369/581/213 341/539/159 344/542/162 372/582/214
f 370/583/215 342/543/163 341/539/163 369/581/216
f 371/584/217 343/545/166 342/548/169 370/585/218
f 372/586/219 344/549/170 343/545/173 371/584/220
f 373/587/221 377/588/222 380/589/223 376/590/224
f 374/591/225 378/592/226 377/588/227 373/587/228
f 375/593/229 379/594/230 378/595/231 374/596/232
f 376/597/233 380/598/234 379/594/235 375/593/236
f 377/588/222 381/599/237 384/600/238 380/589/223
f 378/592/226 382/601/239 381/599/240 377/588/227
f 379/594/230 383/602/241 382/603/242 378/595/231
f 380/598/234 384/604/243 383/602/244 379/594/235
f 381/599/237 385/605/245 388/606/246 384/600/238
f 382/601/239 386/607/247 385/605/248 381/599/240
f 383/602/241 387/608/249 386/609/250 382/603/242
f 384/604/243 388/610/251 387/608/252 383/602/244
f 385/605/245 389/611/253 392/612/254 388/606/246
f 386/607/247 390/613/255 389/611/256 385/605/248
f 387/608/249 391/614/257 390/615/258 386/609/250
f 388/610/251 392/616/259 391/614/260 387/608/252
f 389/611/253 393/617/261 396/618/262 392/612/254
f 390/613/255 394/619/263 393/617/264 389/611/256
f 391/614/257 395/620/265 394/621/266 390/615/258
f 392/616/259 396/622/267 395/620/268 391/614/260
f 393/617/261 397/623/269 400/624/270 396/618/262
f 394/619/263 398/625/271 397/623/272 393/617/264
f 395/620/265 399/626/273 398/627/274 394/621/266
f 396/622/267 400/628/275 399/626/276 395/620/268
f 397/623/269 401/629/277 404/630/278 400/624/270
f 398/625/271 402/631/279 401/629/280 397/623/272
f 399/626/273 403/632/281 402/633/282 398/627/274
f 400/628/275 404/634/283 403/632/284 399/626/276
f 401/629/277 373/587/221 376/590/224 404/630/278
f 402/631/279 374/591/225 373/587/228 401/629/280
f 403/632/281 375/593/229 374/596/232 402/633/282
f 404/634/283 376/597/233 375/593/236 403/632/284
f 405/635/285 409/636/286 412/637/287 408/638/288
f 406/639/289 410/640/290 409/636/291 405/635/292
f 407/641/293 411/642/294 410/643/295 406/644/296
f 408/645/297 412/646/298 411/642/299 407/641/300
f 409/636/286 413/647/301 416/648/302 412/637/287
f 410/640/290 414/649/303 413/647/304 409/636/291
f 411/642/294 415/650/305 414/651/306 410/643/295
f 412/646/298 416/652/307 415/650/308 411/642/299
f 413/647/301 417/653/309 420/654/310 416/648/302
f 414/649/303 418/655/311 417/653/312 413/647/304
f 415/650/305 419/656/313 418/657/314 414/651/306
f 416/652/307 420/658/315 419/656/316 415/650/308
f 417/653/309 421/659/317 424/660/318 420/654/310
f 418/655/311 422/661/319 421/659/320 417/653/312
f 419/656/313 423/662/321 422/663/322 418/657/314
f 420/658/315 424/664/323 423/662/324 419/656/316
f 421/659/317 425/665/325 428/666/326 424/660/318
f 422/661/319 426/667/327 425/665/328 421/659/320
f 423/662/321 427/668/329 426/669/330 422/663/322
f 424/664/323 428/670/331 427/668/332 423/662/324
f 425/665/325 429/671/333 432/672/334 428/666/326
f 426/667/327 430/673/335 429/671/336 425/665/328
f 427/668/329 431/674/337 430/675/338 426/669/330
f 428/670/331 432/676/339 431/674/340 427/668/332
f 429/671/333 433/677/341 436/678/342 432/672/334
f 430/673/335 434/679/343 433/677/344 429/671/336
f 431/674/337 435/680/345 434/681/346 430/675/338
f 432/676/339 436/682/347 435/680/348 431/674/340
f 433/677/341 405/635/285 408/638/288 436/678/342
f 434/679/343 406/639/289 405/635/292 433/677/344
f 435/680/345 407/641/293 406/644/296 434/681/346
f 436/682/347 408/645/297 407/641/300 435/680/348
f 437/683/349 441/684/350 444/685/351 440/686/352
f 438/687/353 442/688/354 441/684/355 437/683/356
f 439/689/357 443/690/358 442/691/359 438/692/360
f 440/693/361 444/694/362 443/690/363 439/689/364
f 441/684/350 445/695/365 448/696/366 444/685/351
f 442/688/354 446/697/367 445/695/368 441/684/355
f 443/690/358 447/698/369 446/699/370 442/691/359
f 444/694/362 448/700/371 447/698/372 443/690/363
f 445/695/365 449/701/373 452/702/374 448/696/366
f 446/697/367 450/703/375 449/701/376 445/695/368
f 447/698/369 451/704/377 450/705/378 446/699/370
f 448/700/371 452/706/379 451/704/380 447/698/372
f 449/701/373 453/707/381 456/708/382 452/702/374
f 450/703/375 454/709/383 453/707/384 449/701/376
f 451/704/377 455/710/385 454/711/386 450/705/378
f 452/706/379 456/712/387 455/710/388 451/704/380
f 453/707/381 457/713/389 460/714/390 456/708/382
f 454/709/383 458/715/391 457/713/392 453/707/384
f 455/710/385 459/716/393 458/717/394 454/711/386
f 456/712/387 460/718/395 459/716/396 455/710/388
f 457/713/389 461/719/397 464/720/398 460/714/390
f 458/715/391 462/721/399 461/719/400 457/713/392
f 459/716/393 463/722/401 462/723/402 458/717/394
f 460/718/395 464/724/403 463/722/404 459/716/396
f 461/719/397 465/725/405 468/726/406 464/720/398
f 462/721/399 466/727/407 465/725/408 461/719/400
f 463/722/401 467/728/409 466/729/410 462/723/402
f 464/724/403 468/730/411 467/728/412 463/722/404
f 465/725/405 437/683/349 440/686/352 468/726/406
f 466/727/407 438/687/353 437/683/356 465/725/408
f 467/728/409 439/689/357 438/692/360 466/729/410
f 468/730/411 440/693/361 439/689/364 467/728/412
f 14/3/1 11/11/1 2/1/1
f 2/1/1 1/731/1 13/2/1
f 1/731/1 12/732/1 13/2/1
f 13/2/1 15/733/1 14/3/1
f 28/20/2 24/19/2 51/14/2
f 24/19/2 48/15/2 51/14/2
f 48/15/2 50/734/2 49/735/2
f 49/735/2 52/13/2 48/15/2
f 29/16/2 30/27/2 34/17/2
f 34/17/2 35/736/2 32/18/2
f 32/18/2 33/737/2 31/738/2
f 31/738/2 29/16/2 32/18/2
f 37/739/1 17/740/1 16/33/1
f 17/740/1 19/34/1 16/33/1
f 19/34/1 20/741/1 18/32/1
f 18/32/1 12/732/1 1/731/1
f 1/731/1 16/33/1 18/32/1
f 41/37/2 39/742/2 38/743/2
f 39/742/2 36/744/2 38/743/2
f 38/743/2 31/738/2 40/35/2
f 41/37/2 38/743/2 40/35/2
f 31/738/2 33/737/2 40/35/2
f 34/43/7 30/131/26 71/745/8
f 30/131/26 69/130/26 71/745/8
f 87/83/26 11/82/26 90/44/8
f 11/82/26 14/42/7 90/44/8
f 34/43/7 71/745/8 90/44/8
f 19/59/15 17/85/18 94/746/18
f 17/85/18 93/84/18 94/746/18
f 62/125/18 39/126/18 73/65/18
f 39/126/18 41/60/15 73/65/18
f 19/59/15 94/746/18 73/65/18
f 6/4/1 10/7/1 45/99/1
f 45/99/1 47/747/1 46/748/1
f 46/748/1 44/749/1 45/99/1
f 44/749/1 43/98/1 45/99/1
f 62/750/1 73/106/1 61/751/1
f 73/106/1 71/105/1 72/752/1
f 69/753/1 67/754/1 68/755/1
f 67/754/1 65/756/1 66/102/1
f 73/106/1 72/752/1 61/751/1
f 71/105/1 69/753/1 70/757/1
f 72/752/1 71/105/1 70/757/1
f 61/751/1 60/758/1 62/750/1
f 67/754/1 66/102/1 68/755/1
f 65/756/1 63/100/1 66/102/1
f 63/100/1 55/759/1 64/101/1
f 55/759/1 53/760/1 58/761/1
f 53/760/1 54/762/1 56/763/1
f 56/763/1 57/764/1 59/765/1
f 56/763/1 59/765/1 53/760/1
f 59/765/1 58/761/1 53/760/1
f 55/759/1 58/761/1 64/101/1
f 68/755/1 70/757/1 69/753/1
f 87/766/2 90/104/2 88/767/2
f 90/104/2 94/103/2 91/768/2
f 88/767/2 90/104/2 91/768/2
f 94/103/2 93/769/2 92/770/2
f 93/769/2 89/771/2 92/770/2
f 92/770/2 91/768/2 94/103/2
f 85/135/2 87/766/2 86/136/2
f 78/772/2 83/773/2 84/137/2
f 83/773/2 85/135/2 84/137/2
f 74/774/2 76/775/2 80/776/2
f 76/775/2 78/772/2 81/777/2
f 80/776/2 76/775/2 81/777/2
f 77/778/2 75/779/2 74/774/2
f 82/780/2 79/781/2 77/778/2
f 80/776/2 82/780/2 74/774/2
f 82/780/2 77/778/2 74/774/2
f 87/766/2 88/767/2 86/136/2
f 84/137/2 81/777/2 78/772/2
f 222/782/2 219/447/2 221/783/2
f 219/447/2 215/446/2 218/784/2
f 221/783/2 219/447/2 218/784/2
f 215/446/2 216/785/2 217/786/2
f 216/785/2 220/787/2 217/786/2
f 217/786/2 218/784/2 215/446/2
f 224/350/2 222/782/2 223/351/2
f 231/788/2 226/789/2 225/352/2
f 226/789/2 224/350/2 225/352/2
f 235/790/2 233/791/2 229/792/2
f 233/791/2 231/788/2 228/793/2
f 229/792/2 233/791/2 228/793/2
f 232/794/2 234/795/2 235/790/2
f 227/796/2 230/797/2 232/794/2
f 229/792/2 227/796/2 235/790/2
f 227/796/2 232/794/2 235/790/2
f 222/782/2 221/783/2 223/351/2
f 225/352/2 228/793/2 231/788/2
f 303/402/1 299/483/1 264/403/1
f 264/403/1 262/798/1 263/799/1
f 263/799/1 265/800/1 264/403/1
f 265/800/1 266/401/1 264/403/1
f 290/424/89 292/453/50 215/801/50
f 292/453/50 216/452/50 215/801/50
f 247/383/50 270/386/50 236/422/50
f 270/386/50 268/423/89 236/422/50
f 290/424/89 215/801/50 236/422/50
f 247/802/1 236/449/1 248/803/1
f 236/449/1 238/448/1 237/804/1
f 240/805/1 242/806/1 241/807/1
f 242/806/1 244/808/1 243/443/1
f 236/449/1 237/804/1 248/803/1
f 238/448/1 240/805/1 239/809/1
f 237/804/1 238/448/1 239/809/1
f 248/803/1 249/810/1 247/802/1
f 242/806/1 243/443/1 241/807/1
f 244/808/1 246/441/1 243/443/1
f 246/441/1 254/811/1 245/442/1
f 254/811/1 256/812/1 251/813/1
f 256/812/1 255/814/1 253/815/1
f 253/815/1 252/816/1 250/817/1
f 253/815/1 250/817/1 256/812/1
f 250/817/1 251/813/1 256/812/1
f 254/811/1 251/813/1 245/442/1
f 241/807/1 239/809/1 240/805/1
f 272/818/1 292/819/1 293/457/1
f 292/819/1 290/458/1 293/457/1
f 290/458/1 289/820/1 291/456/1
f 291/456/1 297/821/1 308/822/1
f 308/822/1 293/457/1 291/456/1
f 268/467/2 270/823/2 271/824/2
f 270/823/2 273/825/2 271/824/2
f 271/824/2 278/826/2 269/465/2
f 268/467/2 271/824/2 269/465/2
f 278/826/2 276/827/2 269/465/2
f 275/439/94 279/394/87 238/828/53
f 279/394/87 240/393/87 238/828/53
f 222/451/87 298/450/87 219/468/53
f 298/450/87 295/440/94 219/468/53
f 275/439/94 238/828/53 219/468/53
f 280/469/2 279/472/2 275/470/2
f 275/470/2 274/829/2 277/471/2
f 277/471/2 276/827/2 278/826/2
f 278/826/2 280/469/2 277/471/2
f 281/476/2 285/475/2 258/486/2
f 285/475/2 261/830/2 258/486/2
f 261/830/2 259/831/2 258/486/2
f 259/831/2 260/484/2 258/486/2
f 295/490/1 298/488/1 307/487/1
f 307/487/1 308/822/1 296/489/1
f 308/822/1 297/821/1 296/489/1
f 296/489/1 294/832/1 295/490/1
