# Blender 4.5.14 LTS
# www.blender.org
mtllib ckm2.mtl
o Combat_knife_model2
v -0.009080 0.256813 0.006504
v -0.002348 0.295787 0.006504
v -0.010042 0.217838 0.006504
v -0.034331 0.256813 0.001379
v -0.037358 0.217838 0.001379
v -0.027963 0.295787 0.001379
v -0.034331 0.256813 -0.000056
v -0.037358 0.217838 -0.000056
v -0.009080 0.256813 -0.005180
v -0.027963 0.295787 -0.000056
v -0.015348 0.334762 -0.000056
v -0.002348 0.295787 -0.005180
v 0.008552 0.334762 -0.005180
v 0.013448 0.347142 -0.005180
v 0.008518 0.373736 -0.000056
v 0.032953 0.241918 -0.005180
v 0.036630 0.222082 -0.002152
v 0.032954 0.217838 -0.005180
v 0.015493 0.262314 -0.005180
v 0.013096 0.268103 -0.005180
v 0.015493 0.249549 -0.005180
v 0.015493 0.262314 0.006504
v 0.013096 0.268103 0.006504
v 0.015493 0.249549 0.006504
v 0.032953 0.241918 0.006504
v 0.036630 0.222082 0.003475
v 0.013448 0.347142 0.006504
v 0.032954 0.217838 0.006503
v 0.037417 0.217838 0.002827
v 0.032954 0.206194 0.006503
v 0.013096 0.243760 0.006504
v 0.007307 0.241362 0.006504
v 0.013096 0.243760 -0.005180
v 0.007307 0.241362 -0.005180
v 0.001518 0.243760 -0.005180
v -0.000880 0.249549 -0.005180
v 0.001518 0.243760 0.006504
v -0.000880 0.249549 0.006504
v -0.000880 0.262314 0.006504
v 0.001518 0.268103 0.006504
v -0.000880 0.262314 -0.005180
v 0.001518 0.268103 -0.005180
v 0.007307 0.270501 -0.005180
v 0.007307 0.270501 0.006504
v 0.037417 0.212016 0.002827
v 0.037417 0.206194 0.002827
v 0.032954 0.194550 0.006503
v 0.032954 0.206194 -0.005180
v 0.037417 0.212016 -0.001504
v 0.037417 0.206194 -0.001504
v 0.032954 0.194550 -0.005180
v 0.037417 0.200372 -0.001504
v 0.037417 0.194550 -0.001504
v 0.032954 0.182906 -0.005180
v 0.037417 0.188728 -0.001504
v 0.037417 0.182906 -0.001504
v 0.032954 0.171261 -0.005180
v 0.032954 0.182906 0.006503
v 0.037417 0.188728 0.002827
v 0.037417 0.182906 0.002827
v 0.032954 0.171261 0.006503
v 0.037417 0.177084 0.002827
v 0.037417 0.171261 0.002827
v 0.032954 0.159617 0.006503
v 0.037417 0.165439 0.002827
v 0.037417 0.159617 0.002827
v 0.032954 0.147973 0.006503
v 0.032954 0.159617 -0.005180
v 0.037417 0.165439 -0.001504
v 0.037417 0.159617 -0.001504
v 0.032954 0.147973 -0.005180
v 0.037417 0.153795 -0.001504
v 0.037417 0.147973 -0.001504
v 0.032954 0.136329 -0.005180
v 0.037417 0.142151 -0.001504
v 0.037417 0.136329 -0.001504
v 0.032954 0.124685 -0.005180
v 0.032954 0.136329 0.006503
v 0.037417 0.142151 0.002827
v 0.037417 0.136329 0.002827
v 0.032954 0.124685 0.006503
v 0.037417 0.130507 0.002827
v 0.037417 0.124685 0.002827
v 0.032954 0.113041 0.006503
v 0.037417 0.118863 0.002827
v 0.037417 0.113041 0.002827
v 0.032954 0.101397 0.006503
v 0.032954 0.113041 -0.005180
v 0.037417 0.118863 -0.001504
v 0.037417 0.113041 -0.001504
v 0.032954 0.101397 -0.005180
v 0.037417 0.107219 -0.001504
v 0.037417 0.101397 -0.001504
v 0.032954 0.089752 -0.005180
v 0.037417 0.095575 -0.001504
v 0.037417 0.089752 -0.001504
v 0.032954 0.078108 -0.005180
v 0.032954 0.089752 0.006503
v 0.037417 0.095575 0.002827
v 0.037417 0.089752 0.002827
v 0.032954 0.078108 0.006503
v 0.037417 0.083930 0.002827
v 0.037417 0.078108 0.002827
v 0.032954 0.066464 0.006503
v 0.037417 0.066464 0.002827
v 0.037417 0.072286 0.002827
v 0.032954 0.037855 0.006503
v 0.032954 0.066464 -0.005180
v 0.037417 0.066464 -0.001504
v 0.037417 0.072286 -0.001504
v 0.032954 0.037855 -0.005180
v 0.037417 0.042626 -0.001504
v 0.032953 0.008996 -0.005180
v -0.033191 0.008996 -0.005180
v 0.032953 0.008996 0.006504
v -0.033191 0.008996 0.006504
v -0.033191 0.049110 0.006504
v -0.033191 0.051707 0.002161
v -0.010042 0.049110 0.006504
v -0.033191 0.055856 0.002161
v -0.034631 0.059332 0.001891
v -0.033191 0.055856 -0.000838
v -0.033191 0.051707 -0.000838
v -0.034631 0.059332 -0.000568
v -0.037358 0.060462 -0.000056
v -0.037358 0.060462 0.001379
v -0.010042 0.049110 -0.005180
v -0.033191 0.049110 -0.005180
v -0.010042 0.217838 -0.005180
v 0.037417 0.042626 0.002827
v 0.037417 0.078108 -0.001504
v 0.037417 0.083930 -0.001504
v 0.037417 0.101397 0.002827
v 0.037417 0.107219 0.002827
v 0.037417 0.124685 -0.001504
v 0.037417 0.130507 -0.001504
v 0.037417 0.147973 0.002827
v 0.037417 0.153795 0.002827
v 0.037417 0.171261 -0.001504
v 0.037417 0.177084 -0.001504
v 0.037417 0.194550 0.002827
v 0.037417 0.200372 0.002827
v 0.037417 0.217838 -0.001504
v 0.008552 0.334762 0.006504
v 0.008518 0.373736 0.001379
v 0.004932 0.373736 0.001379
v -0.015348 0.334762 0.001379
v 0.004932 0.373736 -0.000056
v 0.020448 0.009407 0.027669
v 0.082804 0.000012 0.000662
v 0.079488 0.000012 0.013034
v 0.020448 0.000012 0.027669
v 0.070431 0.000012 0.022091
v 0.058059 0.000012 0.025406
v 0.045687 0.000012 0.022091
v 0.036630 0.000012 0.013034
v -0.014451 0.009407 0.027669
v -0.014451 0.000012 0.027669
v -0.074491 0.009407 0.000662
v 0.033315 0.009407 0.000662
v 0.082804 0.009407 0.000662
v -0.074491 0.000012 0.000662
v 0.079488 0.009407 0.013034
v 0.033315 0.000012 0.000662
v 0.070431 0.009407 0.022091
v 0.058059 0.009407 0.025406
v 0.045687 0.009407 0.022091
v 0.036630 0.009407 0.013034
v 0.088367 0.000012 0.000662
v 0.084307 0.000012 0.015816
v 0.073213 0.000012 0.026909
v 0.058059 0.000012 0.030970
v 0.042905 0.000012 0.026909
v 0.088367 0.009407 0.000662
v 0.084307 0.009407 0.015816
v 0.073213 0.009407 0.026909
v 0.058059 0.009407 0.030970
v 0.042905 0.009407 0.026909
v 0.033315 0.000012 0.019784
v 0.033315 0.009407 0.019784
v 0.020448 0.009407 -0.026346
v 0.079488 0.000012 -0.011710
v 0.020448 0.000012 -0.026346
v 0.070431 0.000012 -0.020767
v 0.058059 0.000012 -0.024083
v 0.045687 0.000012 -0.020767
v 0.036630 0.000012 -0.011710
v -0.014451 0.009407 -0.026346
v -0.014451 0.000012 -0.026346
v 0.079488 0.009407 -0.011710
v 0.070431 0.009407 -0.020767
v 0.058059 0.009407 -0.024083
v 0.045687 0.009407 -0.020767
v 0.036630 0.009407 -0.011710
v 0.084307 0.000012 -0.014492
v 0.073213 0.000012 -0.025586
v 0.058059 0.000012 -0.029646
v 0.042905 0.000012 -0.025586
v 0.084307 0.009407 -0.014492
v 0.073213 0.009407 -0.025586
v 0.058059 0.009407 -0.029646
v 0.042905 0.009407 -0.025586
v 0.033315 0.000012 -0.018460
v 0.033315 0.009407 -0.018460
v -0.074491 0.009407 0.006043
v -0.068795 0.009407 0.014569
v -0.072823 0.009407 0.011539
v -0.068795 0.000012 0.014569
v -0.074491 0.000012 0.006043
v -0.072823 0.000012 0.011539
v -0.068795 0.009407 -0.013246
v -0.074491 0.009407 -0.004719
v -0.072823 0.009407 -0.010216
v -0.074491 0.000012 -0.004719
v -0.068795 0.000012 -0.013246
v -0.072823 0.000012 -0.010216
v -0.047862 0.000012 0.000662
v -0.047862 0.009407 0.000662
v -0.050939 0.009407 0.008089
v -0.050939 0.000012 0.008089
v -0.050939 0.000012 -0.006765
v -0.050939 0.009407 -0.006765
v -0.065793 0.000012 -0.006765
v -0.065793 0.009407 -0.006765
v -0.058366 0.000012 -0.009842
v -0.058366 0.009407 -0.009842
v -0.058366 0.009407 0.011165
v -0.058366 0.000012 0.011165
v -0.068869 0.000012 0.000662
v -0.068869 0.009407 0.000662
v -0.065793 0.009407 0.008089
v -0.065793 0.000012 0.008089
v 0.022406 0.001243 0.013421
v 0.013065 0.001243 0.022762
v 0.022406 -0.014734 0.013421
v 0.019490 0.001243 0.000662
v 0.022406 0.001243 -0.012098
v 0.019490 -0.014734 0.000662
v 0.022406 -0.014734 -0.012098
v 0.025825 -0.014734 0.000662
v 0.025825 -0.030712 0.000662
v 0.022850 -0.031915 0.000662
v 0.022406 -0.030712 0.013421
v 0.022406 -0.030712 -0.012098
v 0.013065 -0.030712 -0.021438
v 0.019830 -0.031915 -0.010611
v 0.011578 -0.031915 -0.018863
v 0.019830 -0.039055 -0.010611
v 0.022406 -0.040258 -0.012098
v 0.011578 -0.039055 -0.018863
v 0.022850 -0.039055 0.000662
v 0.025825 -0.040258 0.000662
v 0.019830 -0.039055 0.011934
v 0.019830 -0.031915 0.011934
v 0.022406 -0.040258 0.013421
v 0.011578 -0.039055 0.020186
v 0.003862 -0.039055 0.022253
v 0.011578 -0.031915 0.020186
v 0.013065 -0.040258 0.022762
v 0.013065 -0.066342 0.022762
v 0.005084 -0.040258 0.024900
v 0.005084 -0.066342 0.024900
v 0.003862 -0.067545 0.022253
v 0.011578 -0.067545 0.020186
v 0.011578 -0.074685 0.020186
v 0.019830 -0.067545 0.011934
v 0.019830 -0.074685 0.011934
v 0.022406 -0.066342 0.013421
v 0.022850 -0.067545 0.000662
v 0.022850 -0.074685 0.000662
v 0.025825 -0.066342 0.000662
v 0.019830 -0.067545 -0.010611
v 0.019830 -0.074685 -0.010611
v 0.022406 -0.066342 -0.012098
v 0.011578 -0.067545 -0.018863
v 0.011578 -0.074685 -0.018863
v 0.013065 -0.066342 -0.021438
v 0.003862 -0.067545 -0.020930
v 0.005084 -0.066342 -0.023577
v 0.003862 -0.039055 -0.020930
v 0.005084 -0.040258 -0.023577
v 0.013065 -0.040258 -0.021438
v 0.013065 -0.075888 -0.021438
v 0.003862 -0.074685 -0.020930
v 0.005085 -0.075888 -0.023577
v 0.003862 -0.102006 -0.020930
v 0.005085 -0.100802 -0.023577
v 0.011578 -0.102006 -0.018863
v 0.019830 -0.102006 -0.010611
v 0.011578 -0.109145 -0.018863
v 0.013065 -0.100802 -0.021438
v 0.022406 -0.100802 -0.012098
v 0.025825 -0.100802 0.000662
v 0.022406 -0.075888 -0.012098
v 0.025825 -0.075888 0.000662
v 0.022406 -0.075888 0.013421
v 0.013065 -0.075888 0.022762
v 0.022406 -0.100802 0.013421
v 0.019830 -0.102006 0.011934
v 0.013065 -0.100802 0.022762
v 0.011578 -0.102006 0.020186
v 0.005085 -0.100802 0.024900
v 0.003862 -0.102006 0.022253
v 0.005085 -0.075888 0.024900
v 0.003862 -0.074685 0.022253
v 0.011578 -0.109145 0.020186
v 0.019830 -0.109145 0.011934
v 0.013065 -0.110349 0.022762
v 0.003862 -0.109145 0.022253
v 0.003860 -0.138055 0.022254
v 0.005085 -0.110349 0.024900
v 0.005084 -0.136851 0.024900
v 0.013065 -0.136851 0.022762
v 0.011578 -0.138055 0.020186
v 0.022406 -0.136851 0.013421
v 0.025825 -0.136851 0.000662
v 0.019830 -0.138055 0.011934
v 0.022406 -0.110349 0.013421
v 0.025825 -0.110349 0.000662
v 0.022850 -0.109145 0.000662
v 0.022406 -0.110349 -0.012098
v 0.019830 -0.109145 -0.010611
v 0.013065 -0.110349 -0.021438
v 0.022406 -0.136851 -0.012098
v 0.019830 -0.138055 -0.010611
v 0.013065 -0.136851 -0.021438
v 0.011578 -0.138055 -0.018863
v 0.005084 -0.136851 -0.023577
v 0.005085 -0.110349 -0.023577
v 0.003860 -0.138055 -0.020930
v 0.003862 -0.109145 -0.020930
v 0.011578 -0.145195 -0.018863
v 0.013065 -0.146398 -0.021438
v 0.019830 -0.145195 -0.010611
v 0.003859 -0.145195 -0.020931
v 0.003855 -0.173121 -0.020932
v 0.005082 -0.146398 -0.023578
v 0.005080 -0.171917 -0.023578
v 0.013065 -0.171917 -0.021438
v 0.022406 -0.171917 -0.012098
v 0.011578 -0.173121 -0.018863
v 0.019830 -0.173121 -0.010611
v 0.011578 -0.180261 -0.018863
v 0.019830 -0.180261 -0.010611
v 0.013065 -0.181464 -0.021438
v 0.000306 -0.180261 -0.021883
v 0.000306 -0.031915 -0.021883
v 0.000306 -0.181464 -0.024857
v -0.010967 -0.180261 -0.018863
v -0.019219 -0.180261 -0.010611
v -0.010967 -0.173121 -0.018863
v -0.012454 -0.181464 -0.021438
v -0.021794 -0.181464 -0.012098
v -0.012454 -0.195842 -0.021438
v -0.021794 -0.195842 -0.012098
v -0.014983 -0.223711 -0.025818
v 0.000306 -0.195842 -0.024857
v 0.000306 -0.223711 -0.029915
v 0.013065 -0.195842 -0.021438
v 0.022406 -0.195842 -0.012098
v 0.015594 -0.223711 -0.025818
v 0.026786 -0.223711 -0.014626
v 0.015594 -0.251399 -0.025818
v 0.026786 -0.251399 -0.014626
v 0.000306 -0.251399 -0.029915
v -0.026174 -0.251399 -0.014626
v -0.014983 -0.251399 -0.025818
v -0.030271 -0.251399 0.000662
v -0.026174 -0.223711 -0.014626
v 0.030882 -0.251399 0.000662
v 0.026786 -0.251399 0.015950
v 0.030882 -0.223711 0.000662
v 0.026786 -0.223711 0.015950
v 0.025825 -0.195842 0.000662
v 0.022406 -0.195842 0.013421
v 0.025825 -0.181464 0.000662
v 0.022850 -0.180261 0.000662
v 0.022406 -0.181464 0.013421
v 0.022406 -0.181464 -0.012098
v 0.019830 -0.180261 0.011934
v 0.013065 -0.181464 0.022762
v 0.011578 -0.180261 0.020186
v 0.013065 -0.195842 0.022762
v 0.000306 -0.181464 0.026181
v 0.000306 -0.180261 0.023206
v 0.000306 -0.195842 0.026181
v -0.012454 -0.181464 0.022762
v -0.021794 -0.181464 0.013421
v -0.010967 -0.180261 0.020186
v -0.012454 -0.195842 0.022762
v -0.021794 -0.195842 0.013421
v -0.014983 -0.223711 0.027142
v -0.026174 -0.223711 0.015950
v -0.014983 -0.251399 0.027142
v 0.000306 -0.223711 0.031238
v 0.000306 -0.251399 0.031238
v 0.015594 -0.223711 0.027142
v 0.015594 -0.251399 0.027142
v -0.026174 -0.251399 0.015950
v -0.030271 -0.223711 0.000662
v -0.025213 -0.195842 0.000662
v -0.025213 -0.181464 0.000662
v -0.022239 -0.180261 0.000662
v -0.019219 -0.180261 0.011934
v -0.022239 -0.173121 0.000662
v -0.019219 -0.173121 0.011934
v -0.025213 -0.171917 0.000662
v -0.019219 -0.173121 -0.010611
v -0.021794 -0.171917 -0.012098
v -0.021794 -0.146398 -0.012098
v -0.012454 -0.171917 -0.021438
v -0.012454 -0.146398 -0.021438
v -0.004469 -0.171917 -0.023578
v -0.004470 -0.146398 -0.023578
v -0.003243 -0.173121 -0.020932
v -0.003248 -0.145195 -0.020931
v -0.010967 -0.145195 -0.018863
v -0.019219 -0.145195 -0.010611
v -0.010967 -0.138055 -0.018863
v -0.019219 -0.138055 -0.010611
v -0.012454 -0.136851 -0.021438
v -0.003249 -0.138055 -0.020930
v -0.004473 -0.136851 -0.023577
v -0.003249 -0.109145 -0.020930
v -0.004473 -0.110349 -0.023577
v -0.010967 -0.109145 -0.018863
v -0.010967 -0.102006 -0.018863
v -0.012454 -0.110349 -0.021438
v -0.019219 -0.109145 -0.010611
v -0.019219 -0.102006 -0.010611
v -0.022239 -0.109145 0.000662
v -0.021794 -0.110349 -0.012098
v -0.025213 -0.110349 0.000662
v -0.021794 -0.136851 -0.012098
v -0.025213 -0.136851 0.000662
v -0.022239 -0.138055 0.000662
v -0.021794 -0.136851 0.013421
v -0.019219 -0.138055 0.011934
v -0.012454 -0.136851 0.022762
v -0.021794 -0.110349 0.013421
v -0.019219 -0.109145 0.011934
v -0.012454 -0.110349 0.022762
v -0.010967 -0.109145 0.020186
v -0.004473 -0.110349 0.024900
v -0.003249 -0.109145 0.022254
v -0.004473 -0.136851 0.024900
v -0.003249 -0.138055 0.022254
v -0.010967 -0.138055 0.020186
v -0.010967 -0.145195 0.020186
v -0.012454 -0.146398 0.022762
v -0.019219 -0.145195 0.011934
v -0.003248 -0.145195 0.022254
v -0.004470 -0.146398 0.024901
v -0.003243 -0.173121 0.022255
v -0.004469 -0.171917 0.024901
v -0.010967 -0.173121 0.020186
v -0.012454 -0.171917 0.022762
v -0.021794 -0.171917 0.013421
v -0.021794 -0.146398 0.013421
v -0.025213 -0.146398 0.000662
v -0.022239 -0.145195 0.000662
v -0.010967 -0.102006 0.020186
v -0.019219 -0.102006 0.011934
v -0.012454 -0.100802 0.022762
v -0.003251 -0.102006 0.022253
v -0.003251 -0.074685 0.022253
v -0.004474 -0.100802 0.024900
v -0.004474 -0.075888 0.024900
v -0.012454 -0.075888 0.022762
v -0.010967 -0.074685 0.020186
v -0.021794 -0.075888 0.013421
v -0.019219 -0.074685 0.011934
v -0.025213 -0.075888 0.000662
v -0.021794 -0.100802 0.013421
v -0.025213 -0.100802 0.000662
v -0.022239 -0.102006 0.000662
v -0.021794 -0.100802 -0.012098
v -0.012454 -0.100802 -0.021438
v -0.021794 -0.075888 -0.012098
v -0.019219 -0.074685 -0.010611
v -0.012454 -0.075888 -0.021438
v -0.010967 -0.074685 -0.018863
v -0.004474 -0.075888 -0.023577
v -0.004474 -0.100802 -0.023577
v -0.003251 -0.074685 -0.020930
v -0.003251 -0.102006 -0.020930
v -0.010967 -0.067545 -0.018863
v -0.019219 -0.067545 -0.010611
v -0.012454 -0.066342 -0.021438
v -0.003250 -0.067545 -0.020930
v -0.004473 -0.066342 -0.023577
v -0.003249 -0.039055 -0.020931
v -0.004473 -0.040258 -0.023577
v -0.010967 -0.039055 -0.018863
v -0.019219 -0.039055 -0.010611
v -0.010967 -0.031915 -0.018863
v -0.012454 -0.040258 -0.021438
v -0.021794 -0.040258 -0.012098
v -0.025213 -0.040258 0.000662
v -0.021794 -0.066342 -0.012098
v -0.025213 -0.066342 0.000662
v -0.022239 -0.067545 0.000662
v -0.021794 -0.066342 0.013421
v -0.012454 -0.066342 0.022762
v -0.019219 -0.067545 0.011934
v -0.021794 -0.040258 0.013421
v -0.019219 -0.039055 0.011934
v -0.012454 -0.040258 0.022762
v -0.010967 -0.039055 0.020186
v -0.004473 -0.040258 0.024900
v -0.003249 -0.039055 0.022254
v -0.004473 -0.066342 0.024900
v -0.003250 -0.067545 0.022253
v -0.010967 -0.067545 0.020186
v -0.010967 -0.031915 0.020186
v -0.019219 -0.031915 0.011934
v -0.012454 -0.030712 0.022762
v 0.000306 -0.031915 0.023206
v 0.000306 -0.030712 0.026181
v 0.013065 -0.030712 0.022762
v 0.000306 -0.014734 0.026181
v 0.000306 0.001243 0.026181
v -0.012454 -0.014734 0.022762
v 0.013065 -0.014734 0.022762
v -0.012454 0.001243 0.022762
v -0.021794 -0.014734 0.013421
v -0.021794 0.001243 0.013421
v -0.021794 -0.030712 0.013421
v -0.025213 -0.014734 0.000662
v -0.025213 -0.030712 0.000662
v -0.025213 0.001243 0.000662
v -0.021794 -0.014734 -0.012098
v -0.021794 0.001243 -0.012098
v -0.021794 -0.030712 -0.012098
v -0.012454 -0.014734 -0.021438
v -0.012454 -0.030712 -0.021438
v -0.012454 0.001243 -0.021438
v 0.000306 -0.014734 -0.024857
v 0.000306 0.001243 -0.024857
v 0.000306 -0.030712 -0.024857
v 0.013065 -0.014734 -0.021438
v 0.013065 0.001243 -0.021438
v -0.019219 -0.031915 -0.010611
v -0.022239 -0.031915 0.000662
v -0.022239 -0.039055 0.000662
v -0.022239 -0.074685 0.000662
v 0.011578 -0.173121 0.020186
v 0.019830 -0.173121 0.011934
v 0.013065 -0.171917 0.022762
v 0.003855 -0.173121 0.022255
v 0.003859 -0.145195 0.022254
v 0.005080 -0.171917 0.024901
v 0.005082 -0.146398 0.024901
v 0.013065 -0.146398 0.022762
v 0.011578 -0.145195 0.020186
v 0.022406 -0.146398 0.013421
v 0.019830 -0.145195 0.011934
v 0.025825 -0.146398 0.000662
v 0.022406 -0.171917 0.013421
v 0.025825 -0.171917 0.000662
v 0.022850 -0.173121 0.000662
v 0.022850 -0.145195 0.000662
v 0.022406 -0.146398 -0.012098
v 0.022850 -0.138055 0.000662
v 0.022850 -0.102006 0.000662
v 0.025241 -0.275397 0.015950
v 0.019416 -0.275397 0.021546
v 0.027529 -0.275397 0.007749
v 0.025241 -0.269150 0.015950
v 0.019416 -0.269150 0.021546
v 0.027529 -0.269150 0.007749
v 0.023217 -0.269150 0.007749
v 0.023217 -0.275397 0.007749
v 0.023217 -0.269150 0.011222
v 0.023217 -0.275397 0.011222
v 0.015551 -0.269150 0.011222
v -0.026500 -0.269150 0.011222
v 0.015551 -0.262664 0.011222
v 0.015551 -0.275397 0.011222
v 0.015551 -0.275397 -0.009898
v 0.023217 -0.275397 -0.009898
v 0.015551 -0.269150 -0.009898
v -0.026500 -0.269150 -0.009898
v 0.015551 -0.262664 -0.009898
v 0.023217 -0.269150 -0.009898
v 0.023217 -0.269150 -0.006426
v 0.023217 -0.275397 -0.006426
v 0.027529 -0.269150 -0.006426
v 0.027529 -0.275397 -0.006426
v 0.025241 -0.269150 -0.014626
v 0.019416 -0.269150 -0.020222
v 0.025241 -0.275397 -0.014626
v 0.019416 -0.275397 -0.020222
v -0.019356 -0.275397 -0.020222
v -0.025181 -0.275397 -0.014626
v -0.019356 -0.269150 -0.020222
v -0.025181 -0.269150 -0.014626
v -0.029445 -0.275397 0.000662
v -0.025181 -0.275397 0.015950
v -0.029445 -0.250729 0.000662
v -0.025181 -0.250729 0.015950
v -0.025181 -0.250729 -0.014626
v -0.019356 -0.250729 -0.020222
v -0.025181 -0.262664 -0.014626
v -0.019356 -0.262664 -0.020222
v -0.026500 -0.262664 -0.009898
v 0.019416 -0.262664 -0.020222
v 0.025241 -0.262664 -0.014626
v 0.019416 -0.250729 -0.020222
v 0.025241 -0.250729 -0.014626
v 0.027529 -0.250729 -0.006426
v 0.023217 -0.250729 -0.006426
v 0.027529 -0.262664 -0.006426
v 0.023217 -0.262664 -0.006426
v 0.023217 -0.262664 -0.009898
v 0.023217 -0.250729 -0.009898
v 0.015551 -0.250729 -0.009898
v 0.015551 -0.250729 0.011222
v 0.023217 -0.250729 0.011222
v 0.023217 -0.250729 0.007749
v 0.023217 -0.262664 0.011222
v 0.023217 -0.262664 0.007749
v 0.027529 -0.262664 0.007749
v 0.027529 -0.250729 0.007749
v 0.025241 -0.262664 0.015950
v 0.019416 -0.262664 0.021546
v 0.025241 -0.250729 0.015950
v 0.019416 -0.250729 0.021546
v -0.019356 -0.250729 0.021546
v -0.019356 -0.262664 0.021546
v -0.025181 -0.262664 0.015950
v -0.026500 -0.262664 0.011222
v -0.019356 -0.275397 0.021546
v -0.025181 -0.269150 0.015950
v -0.019356 -0.269150 0.021546
v 0.026468 -0.262664 0.015769
v 0.020535 -0.262664 0.020649
v 0.028648 -0.262664 0.007749
v 0.026468 -0.269150 0.015769
v 0.020535 -0.269150 0.020649
v 0.028648 -0.269150 0.007749
v 0.017474 -0.269150 0.007749
v 0.017474 -0.262664 0.007749
v 0.015551 -0.269150 0.011222
v -0.025736 -0.269150 0.011222
v 0.015551 -0.262664 0.011222
v -0.025736 -0.262664 0.011222
v -0.031287 -0.262664 0.015095
v -0.031287 -0.269150 0.015095
v -0.030450 -0.262664 0.021997
v -0.030450 -0.269150 0.021997
v -0.023874 -0.262664 0.024885
v -0.023874 -0.269150 0.024885
v -0.018592 -0.262664 0.020649
v -0.018592 -0.269150 0.020649
v 0.026468 -0.262664 -0.014446
v 0.020535 -0.262664 -0.019326
v 0.028648 -0.262664 -0.006426
v 0.026468 -0.269150 -0.014446
v 0.020535 -0.269150 -0.019326
v 0.028648 -0.269150 -0.006426
v 0.017474 -0.269150 -0.006426
v 0.017474 -0.262664 -0.006426
v 0.015551 -0.269150 -0.009898
v -0.025736 -0.269150 -0.009898
v 0.015551 -0.262664 -0.009898
v -0.025736 -0.262664 -0.009898
v -0.031287 -0.262664 -0.013772
v -0.031287 -0.269150 -0.013772
v -0.030450 -0.262664 -0.020674
v -0.030450 -0.269150 -0.020674
v -0.023874 -0.262664 -0.023562
v -0.023874 -0.269150 -0.023562
v -0.018592 -0.262664 -0.019326
v -0.018592 -0.269150 -0.019326
vn -0.0000 -0.0000 1.0000
vn -0.1942 0.0206 0.9808
vn -0.1946 0.0222 0.9806
vn -0.2002 0.0490 0.9785
vn -0.1995 0.0449 0.9789
vn -0.1878 0.0048 0.9822
vn -0.1881 0.0052 0.9821
vn -0.9928 0.1194 -0.0000
vn -0.9992 0.0388 -0.0000
vn -0.9719 0.2353 -0.0000
vn -0.1878 0.0048 -0.9822
vn -0.1942 0.0206 -0.9808
vn -0.1946 0.0222 -0.9806
vn -0.1881 0.0052 -0.9821
vn -0.1995 0.0449 -0.9789
vn -0.2002 0.0490 -0.9785
vn -0.2079 0.0768 -0.9751
vn -0.2063 0.0739 -0.9757
vn -0.9225 0.3861 -0.0000
vn -0.0000 -0.0000 -1.0000
vn -0.2074 0.1089 -0.9722
vn 0.9832 0.1823 -0.0000
vn 0.6357 -0.0000 -0.7719
vn -0.7071 -0.7071 -0.0000
vn -0.9808 -0.1951 -0.0000
vn -0.9808 0.1951 -0.0000
vn 0.6357 -0.0000 0.7719
vn 0.7559 -0.6547 -0.0000
vn -0.0000 1.0000 -0.0000
vn -0.7071 0.7071 -0.0000
vn 0.7071 0.7071 -0.0000
vn 0.9808 0.1951 -0.0000
vn 0.9808 -0.1951 -0.0000
vn 0.7071 -0.7071 -0.0000
vn -0.0000 -1.0000 -0.0000
vn 0.7937 -0.6084 -0.0000
vn 0.7936 -0.6084 -0.0000
vn 0.7303 -0.6832 -0.0000
vn 1.0000 -0.0000 -0.0000
vn -1.0000 -0.0000 -0.0000
vn -0.0000 0.8582 0.5132
vn -0.1844 -0.0000 0.9829
vn -0.9239 -0.3827 -0.0000
vn -0.9817 -0.1905 -0.0000
vn -0.1879 0.0049 -0.9822
vn -0.1844 -0.0000 -0.9829
vn -0.3827 -0.9239 -0.0000
vn -0.0000 0.8582 -0.5132
vn -0.2079 0.0768 0.9751
vn -0.2063 0.0739 0.9757
vn -0.2074 0.1089 0.9722
vn -0.8871 0.4616 -0.0000
vn -0.0869 0.1616 -0.9830
vn -0.0000 0.1892 -0.9819
vn -0.1879 0.0049 0.9822
vn -0.0000 0.1892 0.9819
vn -0.0869 0.1616 0.9830
vn -0.2073 0.1090 0.9722
vn -0.0870 0.1616 0.9830
vn 0.5225 -0.0000 0.8526
vn 0.8660 -0.0000 -0.5000
vn -0.5000 -0.0000 -0.8660
vn 0.5000 -0.0000 -0.8660
vn -0.8660 -0.0000 -0.5000
vn 0.5000 -0.0000 0.8660
vn -0.4353 -0.0000 0.9003
vn 0.8660 -0.0000 0.5000
vn -0.5964 -0.0000 0.8027
vn 0.5225 -0.0000 -0.8526
vn -0.5000 -0.0000 0.8660
vn -0.8660 -0.0000 0.5000
vn -0.4353 -0.0000 -0.9003
vn -0.9892 -0.0000 0.1468
vn -0.5964 -0.0000 -0.8027
vn -0.8195 -0.0000 0.5731
vn -0.4266 -0.0000 0.9044
vn -0.4266 -0.0000 -0.9044
vn -0.8195 -0.0000 -0.5731
vn -0.9892 -0.0000 -0.1468
vn -0.2343 -0.0000 0.9722
vn -0.2343 -0.0000 -0.9722
vn -0.7071 -0.0000 -0.7071
vn -0.7071 -0.0000 0.7071
vn 0.7071 -0.0000 0.7071
vn 0.7071 -0.0000 -0.7071
vn 0.8181 -0.0000 0.5751
vn 0.9749 -0.0000 -0.2228
vn 0.9749 -0.0000 0.2228
vn 0.8181 -0.0000 -0.5751
vn 0.3751 -0.9270 -0.0000
vn 0.3248 -0.9270 -0.1875
vn 0.3248 -0.9270 0.1875
vn 0.1875 -0.9270 -0.3248
vn 0.3248 0.9270 -0.1875
vn 0.3751 0.9270 -0.0000
vn 0.1875 0.9270 -0.3248
vn 0.3248 0.9270 0.1875
vn 0.1875 0.9270 0.3248
vn 0.1000 0.9224 0.3732
vn 0.2588 -0.0000 0.9659
vn 0.0002 -0.0000 1.0000
vn -0.9078 -0.0000 0.4193
vn 0.1875 -0.9270 0.3248
vn 0.1000 -0.9224 0.3732
vn 0.2588 -0.0000 -0.9659
vn 0.1000 -0.9224 -0.3732
vn -0.9078 -0.0000 -0.4193
vn 0.1000 0.9224 -0.3732
vn -0.9077 -0.0000 -0.4196
vn -0.9077 -0.0000 0.4196
vn -0.9077 0.0001 -0.4197
vn -0.0000 0.9270 -0.3751
vn -0.2588 -0.0000 -0.9659
vn -0.1875 0.9270 -0.3248
vn -0.3248 0.9270 -0.1875
vn -0.4979 0.0910 -0.8624
vn -0.8624 0.0910 -0.4979
vn -0.0000 0.0910 -0.9959
vn -0.4980 0.0883 -0.8626
vn -0.8626 0.0883 -0.4980
vn -0.0000 0.0883 -0.9961
vn 0.4979 0.0910 -0.8624
vn 0.4980 0.0883 -0.8626
vn 0.8624 0.0910 -0.4979
vn 0.8626 0.0883 -0.4980
vn -0.9961 0.0883 -0.0000
vn 0.9961 0.0883 -0.0000
vn 0.8626 0.0883 0.4980
vn 0.9959 0.0910 -0.0000
vn 0.8624 0.0910 0.4979
vn 0.4979 0.0910 0.8624
vn -0.0000 0.9270 0.3751
vn -0.0000 0.0910 0.9959
vn -0.1875 0.9270 0.3248
vn -0.4979 0.0910 0.8624
vn -0.8624 0.0910 0.4979
vn -0.3248 0.9270 0.1875
vn -0.8626 0.0883 0.4980
vn -0.4980 0.0883 0.8626
vn -0.0000 0.0883 0.9961
vn 0.4980 0.0883 0.8626
vn -0.9959 0.0910 -0.0000
vn -0.3751 0.9270 -0.0000
vn -0.3248 -0.9270 0.1875
vn -0.3751 -0.9270 -0.0000
vn -0.3248 -0.9270 -0.1875
vn -0.1875 -0.9270 -0.3248
vn -0.1000 -0.9224 -0.3732
vn 0.9077 0.0001 -0.4197
vn -0.1000 0.9224 -0.3732
vn 0.9076 -0.0000 -0.4198
vn -0.1875 -0.9270 0.3248
vn -0.1000 0.9224 0.3732
vn -0.2588 -0.0000 0.9659
vn 0.9076 -0.0000 0.4198
vn -0.1000 -0.9224 0.3732
vn 0.0001 -0.0000 1.0000
vn 0.9077 0.0001 0.4197
vn 0.9077 -0.0000 0.4196
vn 0.9077 -0.0000 -0.4196
vn -0.0000 -0.9270 0.3751
vn -0.0000 -0.9270 -0.3751
vn -0.9077 0.0001 0.4197
vn 0.0002 -0.0000 -1.0000
vn -0.0002 -0.0001 -1.0000
vn -0.0002 -0.0000 -1.0000
vn -0.0002 -0.0000 1.0000
vn 0.8583 -0.0000 0.5131
vn 0.3734 -0.0000 0.9277
vn 0.9632 -0.0000 0.2687
vn 0.8583 -0.0000 -0.5131
vn 0.9632 -0.0000 -0.2687
vn 0.3734 -0.0000 -0.9277
vn -0.3734 -0.0000 -0.9277
vn -0.8584 -0.0000 -0.5131
vn -0.8583 -0.0000 -0.5131
vn -0.9632 -0.0000 -0.2687
vn -1.0000 -0.0000 0.0002
vn -0.9632 -0.0000 0.2687
vn -0.3734 -0.0000 0.9277
vn -0.8583 -0.0000 0.5131
vn -0.8584 -0.0000 0.5131
vn -1.0000 -0.0000 -0.0002
vn 0.8398 -0.0000 0.5429
vn 0.3374 -0.0000 0.9413
vn 0.7945 -0.0000 -0.6073
vn -0.8747 -0.0000 -0.4846
vn -0.5076 -0.0000 -0.8616
vn -0.2999 -0.0000 -0.9540
vn -0.9129 -0.0000 -0.4082
vn -0.8028 -0.0000 0.5963
vn 0.1307 -0.0000 0.9914
vn 0.3315 -0.0000 0.9434
vn 0.8398 -0.0000 -0.5429
vn 0.3374 -0.0000 -0.9413
vn 0.7945 -0.0000 0.6073
vn -0.8747 -0.0000 0.4846
vn -0.5076 -0.0000 0.8616
vn -0.2999 -0.0000 0.9540
vn -0.9129 -0.0000 0.4082
vn -0.8028 -0.0000 -0.5962
vn 0.1307 -0.0000 -0.9914
vn 0.3315 -0.0000 -0.9434
vt 0.163031 0.450398
vt 0.158323 0.462973
vt 0.108665 0.442000
vt 0.237618 0.873278
vt 0.237395 0.929363
vt 0.161097 0.943350
vt 0.161327 0.886486
vt 0.313848 0.867188
vt 0.313600 0.927687
vt 0.391888 0.748491
vt 0.391888 0.743693
vt 0.468639 0.743693
vt 0.468639 0.748491
vt 0.314354 0.748491
vt 0.314354 0.743693
vt 0.313618 0.859371
vt 0.237371 0.852511
vt 0.237378 0.793118
vt 0.313618 0.795304
vt 0.161094 0.838114
vt 0.161096 0.777896
vt 0.084702 0.809594
vt 0.084745 0.753248
vt 0.233925 0.748491
vt 0.233925 0.743693
vt 0.284610 0.551622
vt 0.261743 0.645023
vt 0.261743 0.551622
vt 0.060451 0.742188
vt 0.629136 0.046868
vt 0.589787 0.036746
vt 0.589787 0.017936
vt 0.253408 0.541276
vt 0.214454 0.551624
vt 0.199469 0.589552
vt 0.210837 0.594760
vt 0.775304 0.625000
vt 0.788891 0.625000
vt 0.788891 0.664059
vt 0.775304 0.664059
vt 0.816572 0.625000
vt 0.816572 0.664059
vt 0.214454 0.518685
vt 0.174399 0.480757
vt 0.199468 0.480757
vt 0.253408 0.529032
vt 0.261743 0.518687
vt 0.578836 0.007816
vt 0.578836 0.046866
vt 0.570131 0.020102
vt 0.570131 0.034580
vt 0.261743 0.531246
vt 0.284610 0.518687
vt 0.273176 0.531246
vt 0.830159 0.625000
vt 0.843746 0.625000
vt 0.843746 0.664059
vt 0.830159 0.664059
vt 0.679688 0.625000
vt 0.693274 0.625000
vt 0.693274 0.664059
vt 0.679688 0.664059
vt 0.706861 0.625000
vt 0.706861 0.664059
vt 0.734543 0.625000
vt 0.734543 0.664059
vt 0.748130 0.625000
vt 0.748130 0.664059
vt 0.761717 0.625000
vt 0.761717 0.664059
vt 0.544467 0.007816
vt 0.558775 0.020102
vt 0.558776 0.034580
vt 0.544467 0.046866
vt 0.535763 0.020102
vt 0.535763 0.034580
vt 0.284610 0.531246
vt 0.307477 0.518687
vt 0.296043 0.531246
vt 0.261743 0.539062
vt 0.273176 0.539062
vt 0.284610 0.539063
vt 0.296043 0.539063
vt 0.307477 0.551622
vt 0.510099 0.007816
vt 0.524407 0.020102
vt 0.524407 0.034580
vt 0.510099 0.046867
vt 0.307477 0.539063
vt 0.318910 0.539063
vt 0.330344 0.551622
vt 0.501394 0.020102
vt 0.501394 0.034581
vt 0.475730 0.007816
vt 0.490038 0.020102
vt 0.490038 0.034581
vt 0.475730 0.046867
vt 0.330344 0.539063
vt 0.341777 0.539063
vt 0.353211 0.551622
vt 0.467025 0.020102
vt 0.467025 0.034581
vt 0.307477 0.531246
vt 0.330344 0.518687
vt 0.318910 0.531246
vt 0.330344 0.531246
vt 0.353211 0.518687
vt 0.341777 0.531246
vt 0.441362 0.007817
vt 0.455670 0.020102
vt 0.455670 0.034581
vt 0.441362 0.046867
vt 0.432657 0.020103
vt 0.432657 0.034581
vt 0.353211 0.531246
vt 0.376078 0.518687
vt 0.364644 0.531246
vt 0.406993 0.007817
vt 0.421301 0.020103
vt 0.421301 0.034581
vt 0.406993 0.046867
vt 0.398288 0.020103
vt 0.398288 0.034581
vt 0.376078 0.531246
vt 0.398944 0.518687
vt 0.387511 0.531246
vt 0.353211 0.539063
vt 0.364644 0.539063
vt 0.376078 0.551622
vt 0.376078 0.539063
vt 0.387511 0.539063
vt 0.398945 0.551622
vt 0.372624 0.007817
vt 0.386932 0.020103
vt 0.386933 0.034581
vt 0.372624 0.046867
vt 0.398945 0.539063
vt 0.410378 0.539063
vt 0.421811 0.551622
vt 0.363920 0.020103
vt 0.363920 0.034581
vt 0.338256 0.007817
vt 0.352564 0.020103
vt 0.352564 0.034581
vt 0.338256 0.046867
vt 0.421811 0.539063
vt 0.433245 0.539063
vt 0.444678 0.551622
vt 0.329551 0.020103
vt 0.329551 0.034581
vt 0.398944 0.531246
vt 0.421811 0.518687
vt 0.410378 0.531246
vt 0.421811 0.531246
vt 0.444678 0.518687
vt 0.433245 0.531246
vt 0.303887 0.007817
vt 0.318195 0.020103
vt 0.318195 0.034581
vt 0.303887 0.046868
vt 0.295182 0.020103
vt 0.295182 0.034582
vt 0.444678 0.531246
vt 0.467545 0.518687
vt 0.456112 0.531246
vt 0.269518 0.007817
vt 0.283827 0.020103
vt 0.283827 0.034582
vt 0.269519 0.046868
vt 0.260814 0.020103
vt 0.260814 0.034582
vt 0.467545 0.531246
vt 0.490412 0.518687
vt 0.478979 0.531246
vt 0.444678 0.539063
vt 0.456112 0.539063
vt 0.467545 0.551622
vt 0.467545 0.539063
vt 0.478979 0.539063
vt 0.490412 0.551622
vt 0.235150 0.007818
vt 0.249458 0.020103
vt 0.249458 0.034582
vt 0.235150 0.046868
vt 0.490412 0.539063
vt 0.501846 0.539063
vt 0.513279 0.551622
vt 0.226445 0.020104
vt 0.226445 0.034582
vt 0.200781 0.007818
vt 0.215090 0.020104
vt 0.215090 0.034582
vt 0.200781 0.046868
vt 0.513279 0.539063
vt 0.524713 0.539063
vt 0.536146 0.551622
vt 0.192077 0.020104
vt 0.192077 0.034582
vt 0.490412 0.531246
vt 0.513279 0.518687
vt 0.501846 0.531246
vt 0.513279 0.531246
vt 0.536146 0.518687
vt 0.524713 0.531246
vt 0.166413 0.007818
vt 0.180721 0.020104
vt 0.180721 0.034582
vt 0.166413 0.046868
vt 0.157708 0.020104
vt 0.157708 0.034582
vt 0.536146 0.531246
vt 0.559013 0.518687
vt 0.547580 0.531246
vt 0.123339 0.020104
vt 0.132044 0.007818
vt 0.132044 0.046868
vt 0.123339 0.034582
vt 0.615196 0.518687
vt 0.605827 0.531246
vt 0.559013 0.531246
vt 0.146352 0.020104
vt 0.146352 0.034582
vt 0.615196 0.551622
vt 0.559013 0.551622
vt 0.559013 0.539063
vt 0.605827 0.539063
vt 0.536146 0.539063
vt 0.547580 0.539063
vt 0.064102 0.007818
vt 0.076844 0.020104
vt 0.076844 0.034583
vt 0.064102 0.046869
vt 0.007812 0.007816
vt 0.007813 0.046871
vt 0.804051 0.765621
vt 0.798952 0.751104
vt 0.798952 0.741079
vt 0.638601 0.878068
vt 0.648434 0.879277
vt 0.643468 0.929363
vt 0.623706 0.874804
vt 0.630489 0.878027
vt 0.783418 0.741982
vt 0.790805 0.741079
vt 0.790805 0.751104
vt 0.783418 0.750201
vt 0.643671 0.795304
vt 0.623674 0.852974
vt 0.777621 0.743693
vt 0.777621 0.748491
vt 0.638591 0.849597
vt 0.648434 0.848370
vt 0.084868 0.913029
vt 0.084693 0.966238
vt 0.060370 0.976559
vt 0.140625 0.743693
vt 0.147665 0.743693
vt 0.147665 0.748491
vt 0.140625 0.748491
vt 0.261743 0.425286
vt 0.210837 0.475548
vt 0.215545 0.462973
vt 0.210837 0.450398
vt 0.199468 0.445190
vt 0.185204 0.427375
vt 0.593094 0.425286
vt 0.671871 0.518685
vt 0.593094 0.375000
vt 0.671871 0.375000
vt 0.007813 0.476313
vt 0.032126 0.465678
vt 0.163031 0.475548
vt 0.174399 0.445190
vt 0.593094 0.645023
vt 0.671871 0.551624
vt 0.671871 0.695309
vt 0.593094 0.695309
vt 0.185204 0.642933
vt 0.210837 0.619910
vt 0.108665 0.628309
vt 0.163031 0.619910
vt 0.032126 0.604631
vt 0.163031 0.594760
vt 0.158323 0.607335
vt 0.007813 0.593996
vt 0.174399 0.589552
vt 0.174399 0.625119
vt 0.199469 0.625119
vt 0.215545 0.607335
vt 0.008039 0.763819
vt 0.007812 0.755558
vt 0.629135 0.007813
vt 0.837868 0.007812
vt 0.890621 0.024941
vt 0.890621 0.029738
vt 0.837868 0.046867
vt 0.804051 0.726562
vt 0.882809 0.726562
vt 0.882809 0.765621
vt 0.621522 0.868751
vt 0.630474 0.849597
vt 0.621464 0.859371
vt 0.007813 0.963666
vt 0.008070 0.955866
vt 0.610793 0.734371
vt 0.541508 0.734371
vt 0.541508 0.703126
vt 0.610793 0.703126
vt 0.640754 0.734371
vt 0.640754 0.703126
vt 0.710936 0.335938
vt 0.736977 0.335938
vt 0.736977 0.367183
vt 0.710936 0.367183
vt 0.789060 0.367184
vt 0.789060 0.335938
vt 0.815101 0.335938
vt 0.815101 0.367184
vt 0.763018 0.367183
vt 0.763018 0.335938
vt 0.841142 0.367184
vt 0.841142 0.335938
vt 0.867184 0.335938
vt 0.867184 0.367184
vt 0.695620 0.703125
vt 0.726766 0.703125
vt 0.726766 0.734371
vt 0.695620 0.734371
vt 0.664473 0.703125
vt 0.664473 0.734371
vt 0.757912 0.703125
vt 0.789059 0.703125
vt 0.789059 0.734371
vt 0.757912 0.734371
vt 0.650835 0.063705
vt 0.644927 0.074240
vt 0.618842 0.066877
vt 0.618462 0.195312
vt 0.618497 0.207502
vt 0.592406 0.214846
vt 0.186078 0.734371
vt 0.186078 0.703125
vt 0.255363 0.703125
vt 0.255363 0.734371
vt 0.156117 0.734371
vt 0.156117 0.703125
vt 0.684894 0.367183
vt 0.684894 0.335938
vt 0.632812 0.367183
vt 0.606770 0.367183
vt 0.606770 0.335938
vt 0.632812 0.335938
vt 0.658853 0.367183
vt 0.658853 0.335938
vt 0.580729 0.367183
vt 0.554688 0.367183
vt 0.554688 0.335938
vt 0.580729 0.335938
vt 0.101251 0.703125
vt 0.101251 0.734371
vt 0.070105 0.734371
vt 0.070105 0.703125
vt 0.132398 0.703125
vt 0.132398 0.734371
vt 0.038959 0.703125
vt 0.038959 0.734371
vt 0.007812 0.734371
vt 0.007813 0.703125
vt 0.398436 0.703125
vt 0.409119 0.734371
vt 0.398436 0.734371
vt 0.618808 0.315931
vt 0.644898 0.308587
vt 0.618843 0.328121
vt 0.409119 0.703125
vt 0.420522 0.703125
vt 0.420522 0.734371
vt 0.430528 0.703125
vt 0.430528 0.734371
vt 0.366343 0.734371
vt 0.366343 0.703125
vt 0.376349 0.703125
vt 0.376349 0.734371
vt 0.387752 0.703125
vt 0.387752 0.734371
vt 0.842193 0.121940
vt 0.848629 0.138237
vt 0.771472 0.180846
vt 0.968746 0.484371
vt 0.951169 0.484371
vt 0.951169 0.453125
vt 0.968746 0.453125
vt 0.845703 0.484371
vt 0.828125 0.484371
vt 0.828125 0.453125
vt 0.845703 0.453125
vt 0.863280 0.484371
vt 0.863280 0.453125
vt 0.880858 0.484371
vt 0.880858 0.453125
vt 0.898436 0.484371
vt 0.898436 0.453125
vt 0.916013 0.484371
vt 0.916013 0.453125
vt 0.933591 0.484371
vt 0.933591 0.453125
vt 0.618460 0.175306
vt 0.644596 0.168142
vt 0.650430 0.178721
vt 0.618417 0.187496
vt 0.586467 0.178478
vt 0.563140 0.154084
vt 0.573330 0.148027
vt 0.554688 0.120849
vt 0.563374 0.087680
vt 0.573521 0.093813
vt 0.586872 0.063463
vt 0.618884 0.054688
vt 0.671020 0.079394
vt 0.698236 0.062219
vt 0.670872 0.121290
vt 0.771888 0.062498
vt 0.592375 0.167944
vt 0.886478 0.091636
vt 0.864441 0.099011
vt 0.894955 0.098307
vt 0.880091 0.105811
vt 0.898434 0.110363
vt 0.898392 0.122153
vt 0.886527 0.122108
vt 0.848743 0.105692
vt 0.566429 0.120894
vt 0.663971 0.094156
vt 0.592705 0.074042
vt 0.771516 0.202070
vt 0.886291 0.230419
vt 0.864301 0.237945
vt 0.894811 0.237031
vt 0.879995 0.244637
vt 0.898366 0.249063
vt 0.898400 0.260853
vt 0.886534 0.260889
vt 0.697862 0.202298
vt 0.670875 0.261555
vt 0.670755 0.219660
vt 0.650470 0.204110
vt 0.644629 0.214685
vt 0.848646 0.244734
vt 0.842200 0.261026
vt 0.663801 0.234470
vt 0.563162 0.228686
vt 0.586505 0.204308
vt 0.566430 0.261878
vt 0.554688 0.261914
vt 0.573348 0.234749
vt 0.663956 0.288684
vt 0.670995 0.303451
vt 0.771855 0.320418
vt 0.698201 0.320646
vt 0.848739 0.277279
vt 0.864433 0.283971
vt 0.880088 0.277182
vt 0.898434 0.272643
vt 0.894947 0.284697
vt 0.886466 0.291361
vt 0.650799 0.319126
vt 0.573504 0.288964
vt 0.586835 0.319323
vt 0.563352 0.295090
vt 0.592675 0.308749
vt 0.898351 0.133943
vt 0.894787 0.145972
vt 0.879977 0.138355
vt 0.886264 0.152578
vt 0.864279 0.145036
vt 0.697820 0.180567
vt 0.670725 0.163186
vt 0.663781 0.148371
vt 0.012016 0.182276
vt 0.043984 0.183115
vt 0.043191 0.209362
vt 0.010905 0.207938
vt 0.037513 0.234562
vt 0.007812 0.233917
vt 0.043108 0.259221
vt 0.010532 0.260844
vt 0.047894 0.234387
vt 0.076991 0.234335
vt 0.075777 0.260252
vt 0.075798 0.208395
vt 0.082931 0.234332
vt 0.081979 0.260086
vt 0.081997 0.208563
vt 0.043894 0.285505
vt 0.075970 0.285688
vt 0.082196 0.285647
vt 0.096109 0.259766
vt 0.096553 0.234332
vt 0.096082 0.284975
vt 0.102223 0.259635
vt 0.102363 0.234334
vt 0.102332 0.284667
vt 0.096127 0.208896
vt 0.102242 0.209032
vt 0.096124 0.183689
vt 0.082227 0.182985
vt 0.102377 0.184006
vt 0.098171 0.164512
vt 0.101937 0.169223
vt 0.159197 0.164060
vt 0.082814 0.157320
vt 0.154117 0.183964
vt 0.153675 0.209097
vt 0.155227 0.168925
vt 0.160007 0.183686
vt 0.173362 0.183629
vt 0.173591 0.209032
vt 0.159732 0.209103
vt 0.173735 0.234349
vt 0.159795 0.234347
vt 0.153566 0.234345
vt 0.173571 0.259665
vt 0.159711 0.259591
vt 0.153654 0.259594
vt 0.173322 0.285069
vt 0.159964 0.285008
vt 0.154073 0.284728
vt 0.233143 0.305237
vt 0.247586 0.285623
vt 0.248478 0.305363
vt 0.159135 0.304634
vt 0.155169 0.299769
vt 0.098094 0.304169
vt 0.101867 0.299457
vt 0.174510 0.304755
vt 0.179435 0.284957
vt 0.178454 0.299999
vt 0.179586 0.259664
vt 0.229239 0.300333
vt 0.228415 0.285105
vt 0.234288 0.285311
vt 0.228296 0.259759
vt 0.234316 0.259769
vt 0.248134 0.259901
vt 0.228254 0.234354
vt 0.234464 0.234355
vt 0.179583 0.234350
vt 0.179605 0.209036
vt 0.228310 0.208949
vt 0.179474 0.183742
vt 0.228444 0.183603
vt 0.234315 0.183397
vt 0.234329 0.208941
vt 0.229276 0.168373
vt 0.233181 0.163469
vt 0.178506 0.168699
vt 0.174566 0.163942
vt 0.247610 0.183087
vt 0.248146 0.208811
vt 0.253719 0.183290
vt 0.254147 0.208811
vt 0.248511 0.163345
vt 0.252501 0.168155
vt 0.306702 0.167814
vt 0.310518 0.162840
vt 0.306026 0.183187
vt 0.311918 0.182975
vt 0.306117 0.208743
vt 0.312171 0.208736
vt 0.306155 0.234359
vt 0.254221 0.234357
vt 0.312404 0.234360
vt 0.248378 0.234356
vt 0.254135 0.259902
vt 0.306109 0.259975
vt 0.253696 0.285421
vt 0.306013 0.285531
vt 0.312164 0.259983
vt 0.311906 0.285744
vt 0.310504 0.305877
vt 0.306688 0.300903
vt 0.252472 0.300554
vt 0.325264 0.286051
vt 0.326095 0.260109
vt 0.325880 0.305994
vt 0.331406 0.285853
vt 0.329956 0.301150
vt 0.332156 0.260113
vt 0.382106 0.301512
vt 0.385738 0.306493
vt 0.382168 0.286189
vt 0.388198 0.286623
vt 0.382804 0.260410
vt 0.388961 0.260539
vt 0.402014 0.287798
vt 0.403143 0.261069
vt 0.408411 0.288112
vt 0.409283 0.261254
vt 0.400913 0.314120
vt 0.407090 0.314648
vt 0.082722 0.311363
vt 0.248287 0.320167
vt 0.232956 0.320037
vt 0.406882 0.341558
vt 0.400693 0.341181
vt 0.405746 0.368226
vt 0.399743 0.367521
vt 0.385855 0.366706
vt 0.386847 0.341201
vt 0.435772 0.344176
vt 0.433996 0.370801
vt 0.436268 0.317008
vt 0.491797 0.351986
vt 0.490331 0.382552
vt 0.492845 0.322235
vt 0.437164 0.289636
vt 0.493051 0.292778
vt 0.437774 0.262060
vt 0.493131 0.263529
vt 0.546871 0.263964
vt 0.546871 0.293678
vt 0.546871 0.323608
vt 0.689107 0.410155
vt 0.714843 0.384420
vt 0.714843 0.506201
vt 0.679687 0.445311
vt 0.689107 0.480466
vt 0.546871 0.353972
vt 0.546871 0.384231
vt 0.749998 0.375000
vt 0.749998 0.515621
vt 0.546871 0.414059
vt 0.486850 0.414059
vt 0.785153 0.384420
vt 0.492906 0.234392
vt 0.493120 0.205257
vt 0.546871 0.204750
vt 0.546871 0.234361
vt 0.438168 0.234372
vt 0.437793 0.206682
vt 0.409291 0.207493
vt 0.409652 0.234371
vt 0.403647 0.234369
vt 0.403154 0.207670
vt 0.408315 0.180679
vt 0.402080 0.180932
vt 0.437232 0.179092
vt 0.407264 0.154091
vt 0.400896 0.154608
vt 0.436411 0.151729
vt 0.406819 0.127191
vt 0.400644 0.127576
vt 0.435592 0.124583
vt 0.405703 0.100524
vt 0.433935 0.097959
vt 0.399705 0.101226
vt 0.490387 0.086174
vt 0.491962 0.116708
vt 0.492653 0.146576
vt 0.546871 0.084555
vt 0.546871 0.114881
vt 0.546871 0.145081
vt 0.493006 0.176019
vt 0.546871 0.175018
vt 0.810889 0.410155
vt 0.820309 0.445311
vt 0.810889 0.480466
vt 0.785153 0.506201
vt 0.486887 0.054687
vt 0.546871 0.054687
vt 0.430238 0.072617
vt 0.430272 0.396139
vt 0.403430 0.072617
vt 0.403456 0.396139
vt 0.397732 0.392770
vt 0.397708 0.075979
vt 0.385829 0.102031
vt 0.384875 0.077760
vt 0.384891 0.390975
vt 0.379853 0.101979
vt 0.379148 0.076219
vt 0.379875 0.366754
vt 0.379161 0.392509
vt 0.380634 0.341339
vt 0.330325 0.366321
vt 0.330381 0.340878
vt 0.329736 0.392509
vt 0.385410 0.321460
vt 0.381525 0.326240
vt 0.329551 0.325737
vt 0.325645 0.320843
vt 0.324509 0.340527
vt 0.324308 0.365930
vt 0.310463 0.365675
vt 0.311166 0.340398
vt 0.305077 0.340523
vt 0.304521 0.365855
vt 0.310280 0.320708
vt 0.306298 0.325481
vt 0.252176 0.325058
vt 0.253008 0.340204
vt 0.247149 0.339851
vt 0.247030 0.365238
vt 0.233163 0.364994
vt 0.233819 0.339712
vt 0.253060 0.365626
vt 0.246533 0.389485
vt 0.233084 0.389105
vt 0.252617 0.391684
vt 0.304453 0.391684
vt 0.310335 0.389797
vt 0.304538 0.102860
vt 0.304476 0.077028
vt 0.310355 0.078920
vt 0.310477 0.103042
vt 0.252655 0.077028
vt 0.253094 0.103084
vt 0.305092 0.128193
vt 0.311178 0.128319
vt 0.253040 0.128504
vt 0.247066 0.103470
vt 0.246573 0.079223
vt 0.247183 0.128856
vt 0.252208 0.143649
vt 0.248320 0.148540
vt 0.306312 0.143234
vt 0.310292 0.148008
vt 0.232995 0.148667
vt 0.324316 0.102792
vt 0.324515 0.128193
vt 0.330384 0.127844
vt 0.329556 0.142983
vt 0.325652 0.147875
vt 0.330330 0.102404
vt 0.381507 0.142490
vt 0.385393 0.147270
vt 0.380609 0.127395
vt 0.386816 0.127537
vt 0.329747 0.076219
vt 0.323713 0.078482
vt 0.323699 0.390242
vt 0.233857 0.128991
vt 0.233202 0.103709
vt 0.227772 0.128874
vt 0.227253 0.103526
vt 0.228984 0.143919
vt 0.178267 0.144281
vt 0.174405 0.149168
vt 0.178942 0.129103
vt 0.173060 0.129372
vt 0.178831 0.103729
vt 0.172781 0.104117
vt 0.178322 0.077703
vt 0.172208 0.079904
vt 0.227220 0.077703
vt 0.233128 0.079598
vt 0.227213 0.365175
vt 0.227175 0.390996
vt 0.178271 0.390996
vt 0.178784 0.364968
vt 0.178892 0.339593
vt 0.227733 0.339828
vt 0.172157 0.388793
vt 0.172733 0.364579
vt 0.173010 0.339322
vt 0.174348 0.319527
vt 0.178213 0.324415
vt 0.228945 0.324784
vt 0.158786 0.364269
vt 0.159665 0.338934
vt 0.153548 0.339140
vt 0.152801 0.364438
vt 0.158980 0.319396
vt 0.154936 0.324148
vt 0.101728 0.323729
vt 0.098018 0.318843
vt 0.101962 0.338768
vt 0.095967 0.338347
vt 0.101632 0.364091
vt 0.095508 0.363633
vt 0.081373 0.363163
vt 0.082254 0.337395
vt 0.101161 0.390196
vt 0.095014 0.387956
vt 0.152670 0.390196
vt 0.158618 0.388350
vt 0.152847 0.104254
vt 0.152721 0.078492
vt 0.158670 0.080342
vt 0.158833 0.104424
vt 0.101210 0.078492
vt 0.101667 0.104596
vt 0.153597 0.129550
vt 0.101979 0.129921
vt 0.159715 0.129758
vt 0.095969 0.130343
vt 0.095541 0.105050
vt 0.095064 0.080725
vt 0.101782 0.144954
vt 0.098084 0.149840
vt 0.154994 0.144544
vt 0.159042 0.149297
vt 0.082199 0.131288
vt 0.081407 0.105503
vt 0.076032 0.131267
vt 0.075372 0.105335
vt 0.076508 0.157192
vt 0.075994 0.182935
vt 0.044313 0.157095
vt 0.044196 0.131131
vt 0.012426 0.131007
vt 0.012537 0.156726
vt 0.043934 0.105077
vt 0.012227 0.105051
vt 0.012168 0.078975
vt 0.043893 0.078975
vt 0.075540 0.078975
vt 0.043851 0.389674
vt 0.043895 0.363565
vt 0.075331 0.363315
vt 0.075488 0.389674
vt 0.012128 0.389674
vt 0.012188 0.363604
vt 0.012384 0.337661
vt 0.044155 0.337499
vt 0.075921 0.337373
vt 0.044350 0.311513
vt 0.076576 0.311450
vt 0.012465 0.311972
vt 0.011962 0.286467
vt 0.081423 0.387588
vt 0.081475 0.081073
vt 0.388973 0.208192
vt 0.388232 0.182102
vt 0.382816 0.208318
vt 0.382194 0.182537
vt 0.382113 0.167216
vt 0.385738 0.162235
vt 0.329966 0.167570
vt 0.325890 0.162725
vt 0.331418 0.182868
vt 0.325275 0.182670
vt 0.332164 0.208607
vt 0.326102 0.208612
vt 0.332374 0.234360
vt 0.326455 0.234360
vt 0.382973 0.234365
vt 0.389327 0.234366
vt 0.778405 0.546609
vt 0.778405 0.594012
vt 0.679688 0.570311
vt 0.959367 0.773438
vt 0.959367 0.789264
vt 0.943056 0.789264
vt 0.943056 0.773438
vt 0.976559 0.773438
vt 0.976559 0.789264
vt 0.927713 0.375000
vt 0.919329 0.401751
vt 0.843620 0.375000
vt 0.665963 0.843750
vt 0.665963 0.859577
vt 0.656250 0.859577
vt 0.656250 0.843750
vt 0.673785 0.843750
vt 0.673785 0.859577
vt 0.691054 0.843750
vt 0.691054 0.859577
vt 0.828125 0.401751
vt 0.919329 0.418557
vt 0.828125 0.418557
vt 0.738629 0.859577
vt 0.738629 0.876009
vt 0.691054 0.876009
vt 0.738629 0.843750
vt 0.755898 0.843750
vt 0.755898 0.859577
vt 0.821852 0.518939
vt 0.821852 0.527937
vt 0.812500 0.527937
vt 0.929684 0.518939
vt 0.929684 0.535745
vt 0.838479 0.535745
vt 0.838479 0.518939
vt 0.763720 0.843750
vt 0.763720 0.859577
vt 0.773434 0.843750
vt 0.773434 0.859577
vt 0.673442 0.773438
vt 0.673442 0.789264
vt 0.656250 0.789264
vt 0.656250 0.773438
vt 0.689753 0.773438
vt 0.689753 0.789264
vt 0.768044 0.773438
vt 0.768044 0.789264
vt 0.784355 0.773438
vt 0.784355 0.789264
vt 0.816404 0.773438
vt 0.794267 0.805696
vt 0.794267 0.789264
vt 0.838542 0.789264
vt 0.838542 0.805696
vt 0.784355 0.805696
vt 0.784355 0.835934
vt 0.768044 0.835933
vt 0.768044 0.805696
vt 0.821852 0.535745
vt 0.817461 0.547996
vt 0.689753 0.805696
vt 0.689753 0.835933
vt 0.673442 0.805696
vt 0.673442 0.835933
vt 0.656250 0.835933
vt 0.656250 0.805696
vt 0.763720 0.876009
vt 0.773434 0.876009
vt 0.773434 0.906246
vt 0.763720 0.906246
vt 0.755898 0.906246
vt 0.755898 0.876009
vt 0.738629 0.906246
vt 0.691054 0.906246
vt 0.673785 0.906246
vt 0.673785 0.876009
vt 0.665963 0.876009
vt 0.665963 0.906246
vt 0.843620 0.445309
vt 0.656250 0.906246
vt 0.656250 0.876009
vt 0.959367 0.805696
vt 0.976559 0.805696
vt 0.976559 0.835933
vt 0.959367 0.835933
vt 0.943056 0.835933
vt 0.943056 0.805696
vt 0.864765 0.835933
vt 0.864765 0.805696
vt 0.848454 0.805696
vt 0.848454 0.835934
vt 0.848454 0.773438
vt 0.864765 0.773438
vt 0.864765 0.789264
vt 0.848454 0.789264
vt 0.689043 0.535997
vt 0.701824 0.523438
vt 0.786885 0.523438
vt 0.799665 0.535997
vt 0.804684 0.554403
vt 0.795224 0.546609
vt 0.795224 0.554403
vt 0.701824 0.617184
vt 0.689043 0.604624
vt 0.799665 0.604624
vt 0.786885 0.617184
vt 0.795224 0.586218
vt 0.804684 0.586218
vt 0.795224 0.594012
vt 0.940347 0.389500
vt 0.945309 0.410749
vt 0.935956 0.401751
vt 0.935956 0.410749
vt 0.830986 0.389500
vt 0.817461 0.506687
vt 0.830096 0.492187
vt 0.914189 0.492187
vt 0.926823 0.506687
vt 0.816404 0.835934
vt 0.914189 0.562496
vt 0.926823 0.547996
vt 0.830096 0.562496
vt 0.812500 0.526747
vt 0.821852 0.526747
vt 0.935956 0.418557
vt 0.935956 0.409560
vt 0.945309 0.409560
vt 0.940347 0.430809
vt 0.927713 0.445309
vt 0.830986 0.430809
vt 0.032572 0.507813
vt 0.036834 0.517311
vt 0.012643 0.529749
vt 0.024601 0.656250
vt 0.040120 0.656250
vt 0.040120 0.679683
vt 0.024601 0.679683
vt 0.007812 0.656250
vt 0.007812 0.679684
vt 0.911706 0.699348
vt 0.825006 0.699348
vt 0.900662 0.673561
vt 0.289059 0.679683
vt 0.266487 0.679683
vt 0.266487 0.656250
vt 0.289059 0.656250
vt 0.258468 0.679683
vt 0.258468 0.656250
vt 0.175065 0.679684
vt 0.175065 0.656250
vt 0.161391 0.679684
vt 0.161391 0.656250
vt 0.147346 0.656250
vt 0.147346 0.679684
vt 0.132838 0.656250
vt 0.132838 0.679684
vt 0.119160 0.679684
vt 0.119160 0.656250
vt 0.128321 0.517311
vt 0.112490 0.543098
vt 0.140621 0.527906
vt 0.138767 0.546785
vt 0.124196 0.554684
vt 0.025790 0.543098
vt 0.007812 0.507813
vt 0.813300 0.710934
vt 0.798729 0.703035
vt 0.796875 0.684156
vt 0.809175 0.673561
vt 0.904924 0.664062
vt 0.924852 0.685999
vt 0.929684 0.664062
vt 0.824800 0.579811
vt 0.840631 0.605598
vt 0.814354 0.609285
vt 0.561333 0.656250
vt 0.561333 0.679683
vt 0.545814 0.679683
vt 0.545814 0.656250
vt 0.578121 0.656250
vt 0.578121 0.679683
vt 0.138767 0.874910
vt 0.124196 0.882809
vt 0.112490 0.871223
vt 0.296875 0.679684
vt 0.296875 0.656250
vt 0.319446 0.656250
vt 0.319446 0.679684
vt 0.327466 0.656250
vt 0.327466 0.679683
vt 0.410869 0.679683
vt 0.410869 0.656250
vt 0.424542 0.656250
vt 0.424542 0.679684
vt 0.438587 0.656250
vt 0.438588 0.679683
vt 0.453096 0.656250
vt 0.453096 0.679683
vt 0.466774 0.679683
vt 0.466774 0.656250
vt 0.812500 0.590406
vt 0.916287 0.579811
vt 0.920550 0.570312
vt 0.940477 0.592249
vt 0.945309 0.570312
vt 0.927332 0.605598
vt 0.828925 0.617184
vt 0.025790 0.871223
vt 0.036834 0.845436
vt 0.012644 0.857874
vt 0.007813 0.835938
vt 0.032572 0.835938
vt 0.128321 0.845436
vt 0.140621 0.856031
s 1
usemtl ckm2
f 40/1/1 44/2/1 2/3/1
f 4/4/2 1/5/3 2/6/4 6/7/5
f 5/8/6 3/9/7 1/5/3 4/4/2
f 4/10/8 7/11/8 8/12/9 5/13/9
f 6/14/10 10/15/10 7/11/8 4/10/8
f 8/16/11 7/17/12 9/18/13 129/19/14
f 7/17/12 10/20/15 12/21/16 9/18/13
f 10/20/15 11/22/17 13/23/18 12/21/16
f 147/24/19 11/25/19 10/15/10 6/14/10
f 48/26/20 129/27/20 18/28/20
f 14/29/21 13/23/18 11/22/17
f 25/30/22 26/31/22 17/32/22
s 0
f 17/33/23 18/28/23 16/34/23
s 1
f 21/35/20 16/34/20 33/36/20
f 20/37/24 19/38/25 22/39/25 23/40/24
f 22/39/25 19/38/25 21/41/26 24/42/26
f 25/43/1 22/44/1 24/45/1
s 0
f 26/46/27 25/43/27 28/47/27
f 18/48/28 17/32/28 26/31/28 28/49/28
f 143/50/29 18/48/29 28/49/29 29/51/29
f 29/52/27 28/47/27 30/53/27 45/54/27
s 1
f 33/55/30 34/56/29 32/57/29 31/58/30
f 21/41/26 33/55/30 31/58/30 24/42/26
f 34/59/29 35/60/31 37/61/31 32/62/29
f 35/60/31 36/63/32 38/64/32 37/61/31
f 36/63/32 41/65/33 39/66/33 38/64/32
f 41/65/33 42/67/34 40/68/34 39/66/33
f 42/67/34 43/69/35 44/70/35 40/68/34
f 43/69/35 20/37/24 23/40/24 44/70/35
s 0
f 48/71/36 49/72/36 45/73/36 30/74/36
f 50/75/29 48/71/29 30/74/29 46/76/29
f 46/77/27 30/53/27 47/78/27 142/79/27
f 143/80/23 49/81/23 48/26/23 18/28/23
f 50/82/23 52/83/23 51/84/23 48/26/23
f 51/85/36 52/86/36 142/87/36 47/88/36
f 53/89/23 55/90/23 54/91/23 51/84/23
f 53/92/29 51/85/29 47/88/29 141/93/29
f 54/94/36 55/95/36 59/96/36 58/97/36
f 56/98/23 140/99/23 57/100/23 54/91/23
f 56/101/29 54/94/29 58/97/29 60/102/29
f 141/103/27 47/78/27 58/104/27 59/105/27
f 60/106/27 58/104/27 61/107/27 62/108/27
f 57/109/36 140/110/36 62/111/36 61/112/36
f 139/113/29 57/109/29 61/112/29 63/114/29
f 63/115/27 61/107/27 64/116/27 65/117/27
f 68/118/36 69/119/36 65/120/36 64/121/36
f 70/122/29 68/118/29 64/121/29 66/123/29
f 66/124/27 64/116/27 67/125/27 138/126/27
f 139/127/23 69/128/23 68/129/23 57/100/23
f 70/130/23 72/131/23 71/132/23 68/129/23
f 71/133/36 72/134/36 138/135/36 67/136/36
f 73/137/23 75/138/23 74/139/23 71/132/23
f 73/140/29 71/133/29 67/136/29 137/141/29
f 74/142/36 75/143/36 79/144/36 78/145/36
f 76/146/23 136/147/23 77/148/23 74/139/23
f 76/149/29 74/142/29 78/145/29 80/150/29
f 137/151/27 67/125/27 78/152/27 79/153/27
f 80/154/27 78/152/27 81/155/27 82/156/27
f 77/157/36 136/158/36 82/159/36 81/160/36
f 135/161/29 77/157/29 81/160/29 83/162/29
f 83/163/27 81/155/27 84/164/27 85/165/27
f 88/166/36 89/167/36 85/168/36 84/169/36
f 90/170/29 88/166/29 84/169/29 86/171/29
f 86/172/27 84/164/27 87/173/27 134/174/27
f 135/175/23 89/176/23 88/177/23 77/148/23
f 90/178/23 92/179/23 91/180/23 88/177/23
f 91/181/36 92/182/36 134/183/36 87/184/36
f 93/185/23 95/186/23 94/187/23 91/180/23
f 93/188/29 91/181/29 87/184/29 133/189/29
f 94/190/36 95/191/36 99/192/36 98/193/36
f 96/194/23 132/195/23 97/196/23 94/187/23
f 96/197/29 94/190/29 98/193/29 100/198/29
f 133/199/27 87/173/27 98/200/27 99/201/27
f 100/202/27 98/200/27 101/203/27 102/204/27
f 97/205/37 132/206/37 102/207/37 101/208/37
f 131/209/29 97/205/29 101/208/29 103/210/29
f 103/211/27 101/203/27 104/212/27 106/213/27
f 109/214/29 108/215/29 104/216/29 105/217/29
f 107/218/27 130/219/27 105/220/27 104/212/27
f 108/215/37 110/221/37 106/222/37 104/216/37
f 111/223/23 108/224/23 109/225/23 112/226/23
f 131/227/23 110/228/23 108/224/23 97/196/23
f 111/229/38 112/230/38 130/231/38 107/232/38
f 113/233/39 111/229/39 107/232/39 115/234/39
s 1
f 117/235/40 118/236/40 123/237/40
s 0
f 118/238/41 117/239/41 119/240/41
s 1
f 121/241/42 120/242/42 119/240/42
f 124/243/43 122/244/44 120/245/44 121/246/43
f 129/19/45 127/247/46 124/248/46
s 0
f 125/249/47 124/243/47 121/246/47 126/250/47
s 1
f 5/13/9 8/12/9 125/249/40 126/250/40
s 0
f 123/251/48 127/247/48 128/252/48
f 112/230/39 109/214/39 105/217/39 130/231/39
f 110/221/39 131/209/39 103/210/39 106/222/39
f 132/206/39 96/197/39 100/198/39 102/207/39
f 95/191/39 93/188/39 133/189/39 99/192/39
f 92/182/39 90/170/39 86/171/39 134/183/39
f 89/167/39 135/161/39 83/162/39 85/168/39
f 136/158/39 76/149/39 80/150/39 82/159/39
f 75/143/39 73/140/39 137/141/39 79/144/39
f 72/134/39 70/122/39 66/123/39 138/135/39
f 69/119/39 139/113/39 63/114/39 65/120/39
f 140/110/39 56/101/39 60/102/39 62/111/39
f 55/95/39 53/92/39 141/93/39 59/96/39
f 52/86/39 50/75/39 46/76/39 142/87/39
f 49/72/39 143/50/39 29/51/39 45/73/39
s 1
f 147/253/49 144/254/50 27/255/51
s 0
f 15/256/29 148/257/29 146/258/29 145/259/29
s 1
f 146/258/52 148/257/52 11/25/19 147/24/19
f 6/7/5 2/6/4 144/254/50 147/253/49
f 30/53/1 28/47/1 3/260/1
f 28/47/1 31/261/1 32/262/1
f 28/47/1 32/262/1 3/260/1
f 47/78/1 30/53/1 3/260/1
f 32/262/1 37/263/1 3/260/1
f 58/104/1 47/78/1 3/260/1
f 61/107/1 58/104/1 3/260/1
f 64/116/1 61/107/1 3/260/1
f 37/263/1 38/264/1 1/265/1
f 3/260/1 37/263/1 1/265/1
f 67/125/1 64/116/1 3/260/1
f 78/152/1 67/125/1 3/260/1
f 81/155/1 78/152/1 119/266/1
f 84/164/1 81/155/1 119/266/1
f 78/152/1 3/260/1 119/266/1
f 87/173/1 84/164/1 119/266/1
f 98/200/1 87/173/1 119/266/1
f 101/203/1 98/200/1 119/266/1
f 104/212/1 101/203/1 119/266/1
f 115/267/1 107/218/1 119/266/1
f 107/218/1 104/212/1 119/266/1
f 117/268/1 116/269/1 119/266/1
f 116/269/1 115/267/1 119/266/1
f 2/3/1 1/265/1 40/1/1
f 27/270/1 144/271/1 25/43/1
f 144/271/1 2/3/1 23/272/1
f 22/44/1 25/43/1 23/272/1
f 23/272/1 25/43/1 144/271/1
f 1/265/1 38/264/1 39/273/1
f 1/265/1 39/273/1 40/1/1
f 44/2/1 23/272/1 2/3/1
f 108/224/20 111/223/20 127/274/20
f 111/223/20 113/275/20 127/274/20
f 113/275/20 114/276/20 127/274/20
f 114/276/20 128/277/20 127/274/20
f 127/274/20 129/27/20 74/139/20
f 129/27/20 9/278/20 35/279/20
f 127/274/20 91/180/20 94/187/20
f 97/196/20 108/224/20 127/274/20
f 94/187/20 97/196/20 127/274/20
f 91/180/20 127/274/20 88/177/20
f 9/278/20 12/280/20 42/281/20
f 12/280/20 13/282/20 20/283/20
f 42/281/20 12/280/20 43/284/20
f 13/282/20 14/285/20 16/34/20
f 16/34/20 19/286/20 20/283/20
f 13/282/20 16/34/20 20/283/20
f 88/177/20 127/274/20 77/148/20
f 20/283/20 43/284/20 12/280/20
f 77/148/20 127/274/20 74/139/20
f 74/139/20 129/27/20 71/132/20
f 9/278/20 42/281/20 41/287/20
f 71/132/20 129/27/20 68/129/20
f 68/129/20 129/27/20 57/100/20
f 9/278/20 41/287/20 36/288/20
f 9/278/20 36/288/20 35/279/20
f 57/100/20 129/27/20 54/91/20
f 129/27/20 35/279/20 34/289/20
f 54/91/20 129/27/20 51/84/20
f 34/289/20 33/36/20 18/28/20
f 129/27/20 34/289/20 18/28/20
f 51/84/20 129/27/20 48/26/20
f 11/22/17 148/290/53 14/29/21
f 148/290/53 15/291/54 14/29/21
f 17/32/22 16/292/22 25/30/22
f 16/292/22 14/293/22 25/30/22
f 14/293/22 15/294/22 145/295/22
f 145/295/22 27/296/22 14/293/22
f 27/296/22 25/30/22 14/293/22
f 21/35/20 19/286/20 16/34/20
f 16/34/20 18/28/20 33/36/20
f 24/45/1 31/261/1 25/43/1
f 31/261/1 28/47/1 25/43/1
f 118/236/40 120/245/44 122/244/44
f 123/237/40 128/297/40 117/235/40
f 128/297/40 114/298/40 116/299/40
f 118/236/40 122/244/44 123/237/40
f 116/299/40 117/235/40 128/297/40
f 120/242/42 118/238/42 119/240/42
f 119/240/42 3/9/55 121/241/42
f 3/9/7 5/8/6 126/300/42
f 121/241/42 3/9/7 126/300/42
f 127/247/46 123/251/46 122/301/46
f 124/248/46 125/302/46 129/19/45
f 125/302/46 8/16/11 129/19/14
f 127/247/46 122/301/46 124/248/46
s 0
f 145/303/56 146/304/57 27/255/58
s 1
f 146/304/59 147/253/49 27/255/51
s 0
f 149/305/1 157/306/1 158/307/1 152/308/1
f 180/309/60 149/305/60 152/308/60 179/310/60
s 1
f 160/311/39 168/312/61 156/313/61 164/314/39
f 154/315/20 166/316/20 165/317/62 153/318/62
f 155/319/63 167/320/63 166/316/20 154/315/20
f 151/321/64 163/322/64 161/323/40 150/324/40
f 156/313/61 168/312/61 167/320/63 155/319/63
f 153/318/62 165/317/62 163/322/64 151/321/64
f 172/325/1 171/326/65 176/327/65 177/328/1
f 173/329/66 172/325/1 177/328/1 178/330/66
f 170/331/67 169/332/39 174/333/39 175/334/67
f 171/326/65 170/331/67 175/334/67 176/327/65
f 202/335/29 193/336/29 192/337/29
f 172/338/35 154/339/35 153/340/35
f 173/329/66 178/330/66 180/309/68 179/310/68
s 0
f 181/341/20 183/342/20 189/343/20 188/344/20
f 204/345/69 203/346/69 183/342/69 181/341/69
s 1
f 160/311/39 164/314/39 187/347/67 194/348/67
f 185/349/1 184/350/70 191/351/70 192/352/1
f 186/353/65 185/349/1 192/352/1 193/354/65
f 182/355/71 150/356/40 161/357/40 190/358/71
f 187/347/67 186/353/65 193/354/65 194/348/67
f 184/350/70 182/355/71 190/358/71 191/351/70
f 197/359/20 201/360/20 200/361/63 196/362/63
f 198/363/72 202/364/72 201/360/20 197/359/20
f 195/365/61 199/366/61 174/367/39 169/368/39
f 196/362/63 200/361/63 199/366/61 195/365/61
f 162/369/40 205/370/73 159/371/40
f 198/363/72 203/346/74 204/345/74 202/364/72
f 185/372/35 186/373/35 197/374/35
f 205/370/73 209/375/73 210/376/75 207/377/75
f 207/377/75 210/376/75 208/378/76 206/379/76
f 211/380/77 215/381/77 216/382/78 213/383/78
f 213/383/78 216/382/78 214/384/79 212/385/79
f 157/306/80 206/379/76 208/378/76 158/307/80
f 218/386/29 219/387/29 157/388/29
f 188/344/81 189/343/81 215/381/77 211/380/77
f 217/389/40 220/390/82 219/391/82 218/392/40
f 221/393/83 217/394/40 218/395/40 222/396/83
f 225/397/1 221/393/83 222/396/83 226/398/1
f 223/399/84 225/397/1 226/398/1 224/400/84
f 229/401/39 223/399/84 224/400/84 230/402/39
f 232/403/85 229/401/39 230/402/39 231/404/85
f 228/405/20 232/403/85 231/404/85 227/406/20
f 220/390/82 228/405/20 227/406/20 219/391/82
f 166/407/29 167/408/29 178/409/29
f 178/409/29 177/410/29 166/407/29
f 177/410/29 176/411/29 166/407/29
f 176/411/29 175/412/29 163/413/29
f 175/412/29 174/414/29 163/413/29
f 174/414/29 199/415/29 190/416/29
f 199/415/29 200/417/29 190/416/29
f 200/417/29 201/418/29 192/337/29
f 201/418/29 202/335/29 192/337/29
f 204/419/29 181/420/29 160/421/29
f 181/420/29 188/422/29 160/421/29
f 165/423/29 166/407/29 176/411/29
f 188/422/29 211/424/29 226/425/29
f 211/424/29 213/426/29 224/427/29
f 213/426/29 212/428/29 224/427/29
f 212/428/29 159/429/29 230/430/29
f 212/428/29 230/430/29 224/427/29
f 163/413/29 165/423/29 176/411/29
f 211/424/29 224/427/29 226/425/29
f 188/422/29 226/425/29 222/431/29
f 222/431/29 218/386/29 188/422/29
f 218/386/29 160/421/29 188/422/29
f 161/432/29 163/413/29 174/414/29
f 190/416/29 161/432/29 174/414/29
f 204/419/29 160/421/29 194/433/29
f 191/434/29 190/416/29 200/417/29
f 202/335/29 204/419/29 193/336/29
f 204/419/29 194/433/29 193/336/29
f 192/337/29 191/434/29 200/417/29
f 158/435/35 208/436/35 228/437/35
f 208/436/35 210/438/35 232/439/35
f 228/437/35 208/436/35 232/439/35
f 210/438/35 209/440/35 232/439/35
f 209/440/35 162/441/35 229/442/35
f 232/439/35 209/440/35 229/442/35
f 152/443/35 158/435/35 164/444/35
f 152/443/35 164/444/35 179/445/35
f 172/338/35 173/446/35 155/447/35
f 173/446/35 179/445/35 155/447/35
f 220/448/35 217/449/35 158/435/35
f 217/449/35 164/444/35 158/435/35
f 158/435/35 228/437/35 220/448/35
f 164/444/35 156/450/35 179/445/35
f 179/445/35 156/450/35 155/447/35
f 170/451/35 171/452/35 153/340/35
f 171/452/35 172/338/35 153/340/35
f 150/453/35 169/454/35 170/451/35
f 151/455/35 150/453/35 170/451/35
f 172/338/35 155/447/35 154/339/35
f 153/340/35 151/455/35 170/451/35
f 187/456/35 164/444/35 203/457/35
f 164/444/35 217/449/35 189/458/35
f 164/444/35 189/458/35 183/459/35
f 217/449/35 221/460/35 189/458/35
f 221/460/35 225/461/35 189/458/35
f 223/462/35 229/442/35 214/463/35
f 229/442/35 162/441/35 214/463/35
f 214/463/35 216/464/35 223/462/35
f 216/464/35 215/465/35 223/462/35
f 215/465/35 189/458/35 225/461/35
f 164/444/35 183/459/35 203/457/35
f 203/457/35 198/466/35 186/373/35
f 198/466/35 197/374/35 186/373/35
f 225/461/35 223/462/35 215/465/35
f 169/454/35 150/453/35 182/467/35
f 196/468/35 195/469/35 182/467/35
f 195/469/35 169/454/35 182/467/35
f 186/373/35 187/456/35 203/457/35
f 196/468/35 182/467/35 184/470/35
f 196/468/35 184/470/35 197/374/35
f 184/470/35 185/372/35 197/374/35
f 159/429/29 205/471/29 230/430/29
f 205/471/29 207/472/29 231/473/29
f 230/430/29 205/471/29 231/473/29
f 207/472/29 206/474/29 231/473/29
f 206/474/29 157/388/29 227/475/29
f 157/388/29 149/476/29 160/421/29
f 149/476/29 180/477/29 160/421/29
f 180/477/29 178/409/29 167/408/29
f 168/478/29 160/421/29 180/477/29
f 160/421/29 218/386/29 157/388/29
f 180/477/29 167/408/29 168/478/29
f 206/474/29 227/475/29 231/473/29
f 227/475/29 157/388/29 219/387/29
f 159/371/40 212/385/79 214/384/79
f 162/369/40 209/375/73 205/370/73
f 159/371/40 214/384/79 162/369/40
f 234/479/65 524/480/65 235/481/86 233/482/84
f 238/483/39 236/484/39 233/482/87 235/481/87
f 239/485/88 237/486/88 236/484/39 238/483/39
f 239/485/29 238/483/29 240/487/29
f 238/483/29 235/481/29 240/487/29
f 239/485/89 240/487/39 241/488/39 244/489/61
f 235/481/86 243/490/67 241/488/39 240/487/39
f 241/488/90 242/491/90 246/492/91 244/489/91
f 241/488/90 243/490/92 254/493/92 242/491/90
f 541/494/63 239/485/89 244/489/61 245/495/63
f 244/489/91 246/492/91 247/496/93 245/495/93
f 248/497/61 246/492/61 242/491/39 251/498/39
f 250/499/63 247/496/63 246/492/61 248/497/61
f 249/500/94 248/497/94 251/498/95 252/501/95
f 282/502/96 250/499/96 248/497/94 249/500/94
f 253/503/67 251/498/39 242/491/39 254/493/67
f 255/504/97 252/501/95 251/498/95 253/503/97
f 256/505/65 253/503/67 254/493/67 258/506/65
f 259/507/98 255/504/97 253/503/97 256/505/98
f 257/508/99 261/509/99 259/507/98 256/505/98
f 263/510/100 257/508/100 518/511/101
f 259/507/65 260/512/65 268/513/67 255/504/67
f 261/509/100 262/514/100 260/512/65 259/507/65
s 0
f 262/514/102 261/509/102 257/508/102 263/510/102
s 1
f 260/512/103 262/514/104 263/510/104 264/515/103
f 265/516/65 267/517/67 266/518/67 264/515/65
f 268/513/92 260/512/103 264/515/103 266/518/92
f 267/517/67 270/519/39 269/520/39 266/518/67
f 271/521/90 268/513/92 266/518/92 269/520/90
f 273/522/61 272/523/61 269/520/39 270/519/39
f 271/521/90 269/520/90 272/523/91 274/524/91
f 276/525/63 275/526/63 272/523/61 273/522/61
f 274/524/91 272/523/91 275/526/93 277/527/93
f 286/528/105 290/529/63 331/530/105
f 277/527/93 275/526/93 278/531/106 279/532/106
s 0
f 279/532/107 278/531/107 280/533/107 281/534/107
s 1
f 280/533/108 250/499/96 282/502/96 281/534/108
f 281/534/105 282/502/63 277/527/63 279/532/105
f 282/502/63 249/500/61 274/524/61 277/527/63
f 284/535/108 276/525/96 283/536/96 285/537/108
f 283/536/96 276/525/96 273/522/94 294/538/94
s 0
f 287/539/109 286/528/109 284/535/109 285/537/109
s 1
f 291/540/93 288/541/93 286/528/106 287/539/106
f 292/542/91 289/543/91 288/541/93 291/540/93
f 290/529/63 288/541/63 289/543/61 322/544/61
f 283/536/63 294/538/61 292/542/61 291/540/63
f 285/537/105 283/536/63 291/540/63 287/539/105
f 293/545/90 565/546/90 289/543/91 292/542/91
f 294/538/61 295/547/39 293/545/39 292/542/61
f 294/538/94 273/522/94 270/519/95 295/547/95
f 296/548/67 298/549/67 293/545/39 295/547/39
f 296/548/97 295/547/95 270/519/95 267/517/97
f 297/550/98 296/548/97 267/517/97 265/516/98
f 297/550/65 300/551/65 298/549/67 296/548/67
f 298/549/92 300/551/103 301/552/103 299/553/92
f 293/545/90 298/549/92 299/553/92 565/546/90
f 300/551/103 302/554/104 303/555/104 301/552/103
f 304/556/100 302/554/100 300/551/65 297/550/65
s 0
f 302/554/110 304/556/110 305/557/110 303/555/110
s 1
f 305/557/99 304/556/99 297/550/98 265/516/98
f 306/558/65 307/559/67 299/553/67 301/552/65
f 308/560/98 318/561/97 307/559/97 306/558/98
f 309/562/99 311/563/99 308/560/98 306/558/98
s 0
f 312/564/110 311/563/110 309/562/110 310/565/110
s 1
f 311/563/100 312/564/100 313/566/65 308/560/65
f 313/566/103 312/564/104 310/565/104 314/567/103
f 315/568/92 313/566/103 314/567/103 317/569/92
f 308/560/65 313/566/65 315/568/67 318/561/67
f 318/561/67 315/568/67 316/570/39 319/571/39
f 316/570/90 315/568/92 317/569/92 564/572/90
f 318/561/97 319/571/95 320/573/95 307/559/97
f 321/574/94 322/544/94 320/573/95 319/571/95
f 321/574/61 319/571/39 316/570/39 324/575/61
f 323/576/96 290/529/96 322/544/94 321/574/94
f 323/576/63 321/574/61 324/575/61 326/577/63
f 316/570/90 564/572/90 325/578/91 324/575/91
f 324/575/91 325/578/91 327/579/93 326/577/93
f 326/577/93 327/579/93 330/580/106 328/581/106
f 329/582/105 323/576/63 326/577/63 328/581/105
s 0
f 328/581/109 330/580/109 331/530/109 329/582/109
s 1
f 331/530/108 290/529/96 323/576/96 329/582/108
f 332/583/63 327/579/63 325/578/61 334/584/61
f 335/585/108 332/583/96 333/586/96 337/587/108
f 333/586/96 332/583/96 334/584/94 563/588/94
s 0
f 338/589/111 336/590/111 335/585/111 337/587/111
s 1
f 337/587/105 333/586/63 339/591/63 338/589/105
f 339/591/93 341/592/93 336/590/106 338/589/106
f 333/586/63 563/588/61 340/593/61 339/591/63
f 340/593/91 342/594/91 341/592/93 339/591/93
f 343/595/63 341/592/63 342/594/61 344/596/61
f 345/597/96 343/595/96 344/596/94 379/598/94
f 346/599/112 343/595/96 345/597/96 348/600/112
f 347/601/20 424/602/113 486/603/113
f 352/604/114 349/605/114 346/599/112 348/600/112
f 353/606/115 350/607/115 349/605/114 352/604/114
f 350/607/64 408/608/64 351/609/62 349/605/62
f 353/606/64 352/604/62 354/610/116 355/611/117
f 352/604/62 348/600/20 357/612/118 354/610/116
f 354/610/116 356/613/119 369/614/120 355/611/117
f 358/615/121 356/613/119 354/610/116 357/612/118
f 359/616/122 361/617/123 358/615/121 357/612/118
f 348/600/20 345/597/63 359/616/122 357/612/118
f 345/597/63 379/598/61 360/618/124 359/616/122
f 360/618/124 362/619/125 361/617/123 359/616/122
f 362/619/125 364/620/61 363/621/63 361/617/123
f 361/617/123 363/621/63 365/622/20 358/615/121
f 363/623/35 364/624/35 366/625/35
f 365/626/35 363/623/35 366/625/35
f 366/625/35 367/627/35 365/626/35
f 356/613/119 367/628/62 366/629/64 369/614/120
f 370/630/35 368/631/35 366/625/35
f 369/614/120 366/629/64 368/632/40 400/633/126
f 364/624/35 370/630/35 366/625/35
f 368/631/35 370/630/35 371/634/35
f 372/635/127 373/636/128 371/637/67 370/638/39
f 372/635/127 370/638/39 364/620/61 362/619/125
f 374/639/129 375/640/130 373/636/128 372/635/127
f 374/639/129 372/635/127 362/619/125 360/618/124
f 378/641/67 375/640/130 374/639/129 376/642/39
f 379/598/61 376/642/39 374/639/129 360/618/124
f 379/598/94 344/596/94 377/643/95 376/642/95
f 378/641/97 376/642/95 377/643/95 380/644/97
f 381/645/98 378/641/97 380/644/97 382/646/98
f 381/645/65 383/647/131 375/640/130 378/641/67
f 384/648/132 381/645/98 382/646/98 385/649/132
f 386/650/133 383/647/131 381/645/65 384/648/1
f 387/651/134 384/648/132 385/649/132 389/652/134
f 387/651/70 390/653/135 386/650/133 384/648/1
f 388/654/71 391/655/136 390/653/135 387/651/70
f 388/654/137 387/651/134 389/652/134 404/656/137
f 390/653/135 391/655/136 393/657/138 392/658/139
f 386/650/133 390/653/135 392/658/139 395/659/140
f 392/658/139 393/657/138 399/660/71 394/661/70
f 395/659/140 392/658/139 394/661/70 396/662/1
f 383/647/131 386/650/133 395/659/140 397/663/141
f 397/663/141 395/659/140 396/662/1 398/664/65
f 373/636/128 397/663/141 398/664/65 371/637/67
f 375/640/130 383/647/131 397/663/141 373/636/128
f 371/634/35 398/665/35 368/631/35
f 398/665/35 396/666/35 368/631/35
f 394/667/35 399/668/35 396/666/35
f 399/668/35 368/631/35 396/666/35
f 393/657/138 400/669/126 368/670/40 399/660/71
f 391/655/136 401/671/142 400/669/126 393/657/138
f 355/611/117 369/614/120 400/633/126 401/672/142
f 402/673/40 401/671/142 391/655/136 388/654/71
f 402/674/40 353/606/64 355/611/117 401/672/142
f 402/674/143 403/675/143 350/607/115 353/606/115
f 402/673/143 388/654/137 404/656/137 403/676/143
f 403/676/40 404/656/71 406/677/71 405/678/40
f 403/675/40 405/679/40 408/608/64 350/607/64
f 458/680/144 407/681/145 405/678/145 406/677/144
f 409/682/146 408/608/146 405/679/145 407/683/145
f 411/684/147 351/609/147 408/608/146 409/682/146
f 410/685/64 412/686/62 411/684/62 409/682/64
f 460/687/40 410/685/64 409/682/64 407/683/40
f 415/688/148 351/609/147 411/684/147 413/689/148
f 412/686/62 414/690/113 413/689/113 411/684/62
s 0
f 414/690/149 416/691/149 415/688/149 413/689/149
s 1
f 412/686/114 417/692/114 416/691/150 414/690/150
f 410/685/115 418/693/115 417/692/114 412/686/114
f 418/693/64 420/694/64 419/695/62 417/692/62
f 421/696/147 419/695/147 420/694/146 434/697/146
f 422/698/148 419/695/147 421/696/147 423/699/148
s 0
f 425/700/151 424/602/151 422/698/151 423/699/151
s 1
f 428/701/114 426/702/114 424/602/150 425/700/150
f 429/703/64 430/704/64 427/705/62 426/702/62
f 432/706/115 429/703/115 426/702/114 428/701/114
f 431/707/40 476/708/40 430/704/64 429/703/64
f 433/709/143 431/707/143 429/703/115 432/706/115
f 432/706/64 428/701/62 421/696/62 434/697/64
f 433/709/40 432/706/64 434/697/64 435/710/40
f 434/697/146 420/694/146 436/711/145 435/710/145
f 437/712/144 435/713/145 436/714/145 438/715/144
f 433/716/40 435/713/40 437/712/71 440/717/71
f 439/718/152 437/712/144 438/715/144 448/719/152
f 440/717/71 437/712/71 439/718/70 442/720/70
f 433/716/143 440/717/137 441/721/137 431/722/143
f 440/717/137 442/720/134 443/723/134 441/721/137
f 442/720/134 444/724/153 445/725/153 443/723/134
f 442/720/70 439/718/70 446/726/154 444/724/154
s 0
f 444/724/155 446/726/155 447/727/155 445/725/155
s 1
f 447/727/156 446/726/156 439/718/152 448/719/152
f 518/511/157 465/728/154 445/725/154
f 451/729/71 449/730/70 448/719/70 438/715/71
f 450/731/134 453/732/153 452/733/153 449/730/134
f 459/734/137 450/731/134 449/730/134 451/729/137
s 0
f 453/732/158 455/735/158 454/736/158 452/733/158
s 1
f 454/736/156 455/735/156 457/737/152 456/738/152
f 457/737/152 458/680/144 406/677/144 456/738/152
f 404/656/71 389/652/70 456/738/70 406/677/71
f 459/734/71 458/680/71 457/737/70 450/731/70
f 450/731/70 457/737/70 455/735/154 453/732/154
f 460/739/40 407/681/40 458/680/71 459/734/71
f 460/739/143 459/734/137 451/729/137 461/740/143
f 460/687/143 461/741/143 418/693/115 410/685/115
f 461/741/40 436/711/40 420/694/64 418/693/64
f 461/740/40 451/729/71 438/715/71 436/714/40
f 441/721/71 443/723/70 462/742/70 463/743/71
f 464/744/152 474/745/144 463/743/144 462/742/152
f 465/728/156 467/746/156 464/744/152 462/742/152
s 0
f 468/747/159 467/746/159 465/728/159 466/748/159
s 1
f 469/749/70 464/744/70 467/746/154 468/747/154
f 469/749/134 468/747/153 466/748/153 470/750/134
f 471/751/137 469/749/134 470/750/134 472/752/137
f 471/751/71 474/745/71 464/744/70 469/749/70
f 473/753/143 471/751/137 472/752/137 546/754/143
f 473/753/40 475/755/40 474/745/71 471/751/71
f 474/745/144 475/755/145 476/756/145 463/743/144
f 477/757/146 430/704/146 476/708/145 475/758/145
f 473/759/40 479/760/64 477/757/64 475/758/40
f 479/760/64 481/761/62 478/762/62 477/757/64
f 478/762/147 427/705/147 430/704/146 477/757/146
f 473/759/143 546/763/143 480/764/115 479/760/115
f 479/760/115 480/764/115 482/765/114 481/761/114
f 481/761/114 482/765/114 485/766/150 483/767/150
f 481/761/62 483/767/113 484/768/113 478/762/62
s 0
f 483/767/160 485/766/160 486/603/160 484/768/160
s 1
f 486/603/148 427/705/147 478/762/147 484/768/148
f 480/764/64 488/769/64 487/770/62 482/765/62
f 489/771/147 487/770/147 488/769/146 500/772/146
f 490/773/148 487/770/147 489/771/147 491/774/148
s 0
f 493/775/160 492/776/160 490/773/160 491/774/160
s 1
f 497/777/114 494/778/114 492/776/150 493/775/150
f 498/779/115 495/780/115 494/778/114 497/777/114
f 495/780/64 543/781/64 496/782/62 494/778/62
f 498/779/64 497/777/62 489/771/62 500/772/64
f 497/777/62 493/775/113 491/774/113 489/771/62
f 499/783/143 545/784/143 495/780/115 498/779/115
f 499/783/40 498/779/64 500/772/64 501/785/40
f 500/772/146 488/769/146 502/786/145 501/785/145
f 503/787/144 501/788/145 502/789/145 505/790/144
f 499/791/40 501/788/40 503/787/71 506/792/71
f 506/792/71 503/787/71 504/793/70 508/794/70
f 504/793/152 503/787/144 505/790/144 514/795/152
f 506/792/137 508/794/134 509/796/134 507/797/137
f 499/791/143 506/792/137 507/797/137 545/798/143
f 508/794/134 510/799/153 511/800/153 509/796/134
f 508/794/70 504/793/70 512/801/154 510/799/154
s 0
f 510/799/159 512/801/159 513/802/159 511/800/159
s 1
f 513/802/156 512/801/156 504/793/152 514/795/152
f 472/752/71 470/750/70 514/795/70 505/790/71
f 507/797/71 509/796/70 515/803/70 516/804/71
f 517/805/152 528/806/144 516/804/144 515/803/152
f 519/807/161 517/805/152 515/803/152 518/511/161
f 520/808/103 519/807/161 518/511/161 258/506/103
f 519/807/1 520/808/65 524/480/65 521/809/1
f 523/810/70 517/805/70 519/807/1 521/809/1
f 525/811/70 523/810/70 521/809/1 522/812/1
f 521/809/1 524/480/65 234/479/65 522/812/1
f 524/480/65 520/808/65 243/490/67 235/481/86
f 526/813/71 528/806/71 517/805/70 523/810/70
f 527/814/71 526/813/71 523/810/70 525/811/70
f 531/815/40 529/816/40 526/813/71 527/814/71
f 529/816/40 530/817/40 528/806/71 526/813/71
f 529/818/40 532/819/64 534/820/64 530/821/40
f 531/822/40 533/823/64 532/819/64 529/818/40
f 533/823/64 537/824/62 535/825/62 532/819/64
f 532/819/64 535/825/62 536/826/62 534/820/64
f 535/825/62 538/827/20 540/828/20 536/826/62
f 537/824/62 539/829/20 538/827/20 535/825/62
f 539/829/20 542/830/63 541/494/63 538/827/20
f 538/827/20 541/494/63 245/495/63 540/828/20
f 542/830/63 237/486/85 239/485/89 541/494/63
f 347/601/162 496/782/147 536/826/147 540/828/162
f 245/495/93 247/496/93 347/601/162 540/828/162
f 536/826/147 496/782/147 543/781/146 534/820/146
f 534/820/146 543/781/146 544/831/145 530/821/145
f 545/784/40 544/831/40 543/781/64 495/780/64
f 545/798/40 507/797/71 516/804/71 544/832/40
f 528/806/144 530/817/145 544/832/145 516/804/144
f 243/490/92 520/808/103 258/506/103 254/493/92
f 546/754/40 472/752/71 505/790/71 502/789/40
f 546/763/40 502/786/40 488/769/64 480/764/64
f 431/722/40 441/721/71 463/743/71 476/756/40
f 428/701/62 425/700/113 423/699/113 421/696/62
f 382/646/65 380/644/67 548/833/67 547/834/65
f 559/835/92 549/836/103 547/834/103 548/833/92
f 549/836/103 552/837/104 550/838/104 547/834/103
s 0
f 552/837/163 553/839/163 551/840/163 550/838/163
s 1
f 553/839/100 552/837/100 549/836/65 554/841/65
f 551/840/99 553/839/99 554/841/98 555/842/98
f 554/841/65 549/836/65 559/835/67 556/843/67
f 554/841/98 556/843/97 557/844/97 555/842/98
f 556/843/97 558/845/95 562/846/95 557/844/97
f 556/843/67 559/835/67 560/847/39 558/845/39
f 560/847/90 559/835/92 548/833/92 561/848/90
f 563/588/61 558/845/39 560/847/39 340/593/61
f 560/847/90 561/848/90 342/594/91 340/593/91
f 380/644/67 377/643/39 561/848/39 548/833/67
f 344/596/61 342/594/61 561/848/39 377/643/39
f 563/588/94 334/584/94 562/846/95 558/845/95
f 334/584/61 325/578/61 564/572/39 562/846/39
f 557/844/67 562/846/39 564/572/39 317/569/67
f 555/842/65 557/844/67 317/569/67 314/567/65
f 365/622/20 367/628/62 356/613/119 358/615/121
f 322/544/61 289/543/61 565/546/39 320/573/39
f 307/559/67 320/573/39 565/546/39 299/553/67
f 249/500/61 252/501/39 271/521/39 274/524/61
f 255/504/67 268/513/67 271/521/39 252/501/39
f 309/562/100 306/558/65 303/555/100
f 306/558/65 301/552/65 303/555/100
f 555/842/65 314/567/65 310/565/100
f 310/565/100 309/562/100 385/649/101
f 309/562/100 303/555/100 518/511/157
f 385/649/1 309/562/100 518/511/157
f 305/557/100 265/516/65 264/515/65
f 303/555/100 305/557/100 518/511/157
f 551/840/100 555/842/65 310/565/100
f 382/646/65 547/834/65 550/838/100
f 550/838/100 551/840/100 385/649/101
f 551/840/100 310/565/100 385/649/101
f 305/557/100 264/515/65 263/510/100
f 385/649/101 382/646/65 550/838/100
f 256/505/65 258/506/65 257/508/100
f 258/506/65 518/511/101 257/508/100
f 518/511/101 305/557/100 263/510/100
f 347/601/164 247/496/63 280/533/105
f 247/496/63 250/499/63 280/533/105
f 341/592/63 343/595/63 336/590/105
f 343/595/63 346/599/164 336/590/105
f 346/599/20 347/601/20 331/530/105
f 347/601/164 280/533/105 278/531/105
f 278/531/105 275/526/63 284/535/105
f 275/526/63 276/525/63 284/535/105
f 347/601/164 278/531/105 284/535/105
f 331/530/105 347/601/20 286/528/105
f 335/585/105 336/590/105 346/599/164
f 327/579/63 332/583/63 330/580/105
f 332/583/63 335/585/105 330/580/105
f 335/585/105 346/599/164 330/580/105
f 330/580/105 346/599/20 331/530/105
f 286/528/105 288/541/63 290/529/63
f 284/535/105 286/528/105 347/601/164
f 492/776/113 494/778/62 496/782/62
f 346/599/165 349/605/62 415/688/113
f 349/605/62 351/609/62 415/688/113
f 492/776/113 496/782/62 347/601/166
f 482/765/62 487/770/62 485/766/113
f 487/770/62 490/773/113 485/766/113
f 490/773/113 492/776/113 347/601/166
f 347/601/20 346/599/20 424/602/113
f 346/599/165 415/688/113 416/691/113
f 416/691/113 417/692/62 422/698/113
f 417/692/62 419/695/62 422/698/113
f 346/599/166 416/691/113 422/698/113
f 424/602/113 346/599/166 422/698/113
f 424/602/113 426/702/62 486/603/113
f 426/702/62 427/705/62 486/603/113
f 485/766/113 490/773/113 347/601/166
f 486/603/113 485/766/113 347/601/20
f 518/511/167 515/803/70 511/800/154
f 515/803/70 509/796/70 511/800/154
f 456/738/70 389/652/70 454/736/154
f 389/652/70 385/649/167 454/736/154
f 385/649/1 518/511/157 445/725/154
f 518/511/167 511/800/154 513/802/154
f 513/802/154 514/795/70 466/748/154
f 514/795/70 470/750/70 466/748/154
f 518/511/167 513/802/154 466/748/154
f 465/728/154 518/511/167 466/748/154
f 452/733/154 454/736/154 385/649/167
f 448/719/70 449/730/70 447/727/154
f 449/730/70 452/733/154 447/727/154
f 465/728/154 462/742/70 443/723/70
f 447/727/154 452/733/154 385/649/167
f 465/728/154 443/723/70 445/725/154
f 445/725/154 447/727/154 385/649/1
f 580/849/35 579/850/35 598/851/35
f 566/852/168 569/853/168 570/854/169 567/855/169
f 566/852/168 568/856/170 571/857/170 569/853/168
f 570/858/29 576/859/29 635/860/29
s 0
f 573/861/20 572/862/20 571/863/20 568/864/20
f 573/861/40 575/865/40 574/866/40 572/862/40
f 579/867/20 576/868/20 574/866/20 575/865/20
f 577/869/1 576/859/1 578/870/1 632/871/1
s 1
f 582/872/39 584/873/39 578/874/39
s 0
f 580/875/1 581/876/1 585/877/1 582/872/1
f 585/878/29 586/879/29 588/880/29
f 583/881/20 606/882/20 584/883/20 582/884/20
f 587/885/40 586/886/40 585/877/40 581/876/40
f 587/885/1 589/887/1 588/888/1 586/886/1
s 1
f 592/889/171 590/890/171 588/891/172 589/892/172
f 592/889/171 593/893/173 591/894/173 590/890/171
f 593/893/173 594/895/174 596/896/174 591/894/173
f 595/897/175 597/898/176 596/896/174 594/895/174
f 598/899/40 606/900/177 583/901/177
f 598/899/178 577/902/179 632/903/179
f 604/904/176 602/905/176 603/906/174 605/907/174
f 615/908/35 584/883/35 608/909/35
f 607/910/173 605/907/174 603/906/174 609/911/173
f 608/912/171 607/910/173 609/911/173 610/913/171
f 608/912/171 610/913/171 611/914/172 613/915/172
s 0
f 614/916/1 613/917/1 611/918/1 612/919/1
f 614/916/40 612/919/40 616/920/40 615/921/40
f 584/873/1 615/921/1 616/920/1 617/922/1
f 578/874/20 618/923/20 619/924/20 621/925/20
f 622/926/40 621/925/40 619/924/40 620/927/40
s 1
f 578/870/35 630/928/35 632/871/35
s 0
f 622/926/20 620/927/20 624/929/20 623/930/20
s 1
f 625/931/168 623/932/170 624/933/170 627/934/168
f 625/931/168 627/934/168 628/935/169 626/936/169
f 626/936/169 628/935/169 629/937/180 630/938/180
f 631/939/181 630/938/180 629/937/180 601/940/181
f 599/941/182 633/942/180 635/943/180 634/944/181
f 567/855/169 570/854/169 635/943/180 633/942/180
f 598/851/35 595/945/35 594/946/35
f 594/946/35 593/947/35 580/849/35
f 593/947/35 592/948/35 580/849/35
f 592/948/35 589/949/35 581/950/35
f 589/949/35 587/951/35 581/950/35
f 598/851/35 594/946/35 580/849/35
f 633/952/35 599/953/35 598/851/35
f 566/954/35 567/955/35 579/850/35
f 567/955/35 633/952/35 579/850/35
s 0
f 573/956/35 568/957/35 575/958/35
s 1
f 568/957/35 566/954/35 575/958/35
f 633/952/35 598/851/35 579/850/35
f 592/948/35 581/950/35 580/849/35
f 579/850/35 575/958/35 566/954/35
f 570/858/29 569/959/29 576/859/29
f 569/959/29 571/960/29 574/961/29
f 571/960/29 572/962/29 574/961/29
s 0
f 576/859/29 577/869/29 635/860/29
f 577/869/29 634/963/29 635/860/29
s 1
f 569/959/29 574/961/29 576/859/29
f 576/868/39 579/867/39 580/875/39
f 576/868/39 580/875/39 582/872/39
f 617/922/39 618/923/39 578/874/39
f 578/874/39 576/868/39 582/872/39
f 584/873/39 617/922/39 578/874/39
f 588/880/29 590/964/29 585/878/29
f 590/964/29 591/965/29 582/884/29
f 585/878/29 590/964/29 582/884/29
f 591/965/29 596/966/29 582/884/29
f 596/966/29 597/967/29 583/881/29
f 582/884/29 596/966/29 583/881/29
f 598/899/40 600/968/40 606/900/177
f 600/968/40 602/905/176 606/900/177
f 602/905/176 604/904/176 606/900/177
f 583/901/177 597/898/176 595/897/175
f 583/901/177 595/897/175 598/899/183
f 598/899/178 599/941/182 577/902/179
f 599/941/182 634/944/181 577/902/179
f 601/940/181 600/968/40 632/903/179
f 600/968/40 598/899/40 632/903/179
f 632/903/179 631/939/181 601/940/181
s 0
f 584/883/35 606/882/35 605/969/35
f 606/882/35 604/970/35 605/969/35
s 1
f 605/969/35 607/971/35 584/883/35
f 607/971/35 608/909/35 584/883/35
f 608/909/35 613/972/35 615/908/35
f 613/972/35 614/973/35 615/908/35
s 0
f 621/974/35 622/975/35 623/976/35
s 1
f 623/976/35 625/977/35 621/974/35
f 625/977/35 626/978/35 578/870/35
f 621/974/35 625/977/35 578/870/35
f 626/978/35 630/928/35 578/870/35
f 630/928/35 631/979/35 632/871/35
f 643/980/29 646/981/29 636/982/29
f 636/983/184 637/984/185 640/985/185 639/986/184
f 638/987/186 636/983/184 639/986/184 641/988/186
f 640/989/35 655/990/35 644/991/35
f 641/992/186 642/993/20 643/994/20 638/995/186
f 642/993/187 644/996/188 646/997/188 643/994/187
f 645/998/189 647/999/189 646/997/188 644/996/188
f 647/999/189 645/998/189 649/1000/190 648/1001/190
f 650/1002/191 648/1001/190 649/1000/190 651/1003/191
f 652/1004/192 650/1002/191 651/1003/191 653/1005/192
f 655/1006/193 654/1007/193 652/1004/192 653/1005/192
f 637/984/185 654/1007/193 655/1006/193 640/985/185
f 646/981/29 647/1008/29 654/1009/29
f 647/1008/29 648/1010/29 650/1011/29
f 654/1009/29 647/1008/29 650/1011/29
f 650/1011/29 652/1012/29 654/1009/29
f 654/1009/29 637/1013/29 646/981/29
f 637/1013/29 636/982/29 646/981/29
f 638/1014/29 643/980/29 636/982/29
f 655/990/35 653/1015/35 651/1016/35
f 651/1016/35 649/1017/35 645/1018/35
f 644/991/35 642/1019/35 639/1020/35
f 642/1019/35 641/1021/35 639/1020/35
f 651/1016/35 645/1018/35 655/990/35
f 645/1018/35 644/991/35 655/990/35
f 639/1020/35 640/989/35 644/991/35
f 667/1022/29 674/1023/29 670/1024/29
f 656/1025/194 659/1026/194 660/1027/195 657/1028/195
f 658/1029/196 661/1030/196 659/1026/194 656/1025/194
f 671/1031/35 673/1032/35 675/1033/35
f 661/1034/196 658/1035/196 663/1036/1 662/1037/1
f 662/1037/197 663/1036/197 666/1038/198 664/1039/198
f 665/1040/199 664/1039/198 666/1038/198 667/1041/199
f 667/1041/199 668/1042/200 669/1043/200 665/1040/199
f 670/1044/201 671/1045/201 669/1043/200 668/1042/200
f 672/1046/202 673/1047/202 671/1045/201 670/1044/201
f 675/1048/203 673/1047/202 672/1046/202 674/1049/203
f 657/1028/195 660/1027/195 675/1048/203 674/1049/203
f 668/1050/29 667/1022/29 670/1024/29
f 667/1022/29 666/1051/29 674/1023/29
f 666/1051/29 663/1052/29 656/1053/29
f 663/1052/29 658/1054/29 656/1053/29
f 656/1053/29 657/1055/29 666/1051/29
f 674/1023/29 672/1056/29 670/1024/29
f 657/1055/29 674/1023/29 666/1051/29
f 675/1033/35 660/1057/35 664/1058/35
f 660/1057/35 659/1059/35 664/1058/35
f 659/1059/35 661/1060/35 662/1061/35
f 664/1058/35 665/1062/35 675/1033/35
f 665/1062/35 669/1063/35 671/1031/35
f 675/1033/35 665/1062/35 671/1031/35
f 659/1059/35 662/1061/35 664/1058/35
