# Blender 4.5.14 LTS
# www.blender.org
mtllib rack_2.mtl
o 2_rack
v 0.450000 0.899999 -0.950000
v 0.450000 0.950000 -0.950000
v 0.450000 0.950000 0.950000
v 0.450000 1.400000 0.950000
v 0.450000 1.400000 -0.950000
v 0.450000 1.450000 -0.950000
v 0.450000 1.450000 0.950000
v 0.450000 -0.550000 -0.950000
v 0.450000 -0.550000 0.950000
v 0.450000 0.400000 0.950000
v 0.450000 0.450000 -0.950000
v 0.450000 -1.075000 -0.950000
v 0.450000 -1.025000 0.950000
v 0.450000 -0.100000 0.950000
v 0.450000 -0.100000 -0.950000
v -0.350000 0.900000 0.950000
v -0.350000 0.899999 -0.950000
v -0.350000 0.950000 -0.950000
v -0.350000 0.950000 0.950000
v -0.350000 1.400000 0.950000
v -0.350000 1.400000 -0.950000
v -0.350000 1.450000 -0.950000
v -0.350000 1.450000 0.950000
v -0.350000 -0.600000 0.950000
v -0.350000 -0.600000 -0.950000
v -0.350000 -0.550000 -0.950000
v -0.350000 -0.550000 0.950000
v -0.350000 0.450000 0.950000
v -0.350000 -1.075000 0.950000
v -0.350000 -1.075000 -0.950000
v -0.350000 -1.025000 -0.950000
v -0.350000 -1.025000 0.950000
v -0.350000 -0.100000 0.950000
v -0.350000 -0.100000 -0.950000
v 0.450000 0.900000 0.950000
v 0.450000 0.400000 -0.950000
v 0.450000 0.450000 0.950000
v -0.350000 0.400000 0.950000
v -0.350000 0.400000 -0.950000
v -0.350000 0.450000 -0.950000
v 0.450000 -0.050001 -0.950000
v 0.450000 -0.050000 0.950000
v -0.350000 -0.050001 -0.950000
v -0.350000 -0.050000 0.950000
v 0.450000 -0.600000 0.950000
v 0.450000 -0.600000 -0.950000
v 0.450000 -1.075000 0.950000
v 0.450000 -1.025000 -0.950000
v 0.300000 -1.550000 1.000000
v 0.300000 1.550000 1.000000
v 0.500000 -1.550000 1.000000
v 0.500000 1.550000 1.000000
v 0.300000 -1.550000 0.950000
v 0.300000 1.550000 0.950000
v 0.500000 -1.550000 0.950000
v 0.500000 1.550000 0.950000
v -0.300000 -1.550000 1.000000
v -0.300000 1.550000 1.000000
v -0.500000 -1.550000 1.000000
v -0.500000 1.550000 1.000000
v -0.300000 -1.550000 0.950000
v -0.300000 1.550000 0.950000
v -0.500000 -1.550000 0.950000
v -0.500000 1.550000 0.950000
v 0.300000 -1.550000 -1.000000
v 0.300000 1.550000 -1.000000
v 0.500000 -1.550000 -1.000000
v 0.500000 1.550000 -1.000000
v 0.300000 -1.550000 -0.950000
v 0.300000 1.550000 -0.950000
v 0.500000 -1.550000 -0.950000
v 0.500000 1.550000 -0.950000
v -0.300000 -1.550000 -1.000000
v -0.300000 1.550000 -1.000000
v -0.500000 -1.550000 -1.000000
v -0.500000 1.550000 -1.000000
v -0.300000 -1.550000 -0.950000
v -0.300000 1.550000 -0.950000
v -0.500000 -1.550000 -0.950000
v -0.500000 1.550000 -0.950000
v -0.400000 1.500000 0.950000
v -0.350000 1.500000 0.950000
v -0.350000 1.500000 -0.950000
v -0.400000 1.500000 -0.950000
v -0.400000 1.350000 0.950000
v -0.350000 1.350000 0.950000
v -0.350000 1.350000 -0.950000
v -0.400000 1.350000 -0.950000
v -0.400000 -0.975000 0.950000
v -0.350000 -0.975000 0.950000
v -0.350000 -0.975000 -0.950000
v -0.400000 -0.975000 -0.950000
v -0.400000 -1.125000 0.950000
v -0.350000 -1.125000 0.950000
v -0.350000 -1.125000 -0.950000
v -0.400000 -1.125000 -0.950000
v -0.400000 1.001001 0.950000
v -0.350000 1.001001 0.950000
v -0.350000 1.001001 -0.950000
v -0.400000 1.001001 -0.950000
v -0.400000 0.851000 0.950000
v -0.350000 0.851000 0.950000
v -0.350000 0.851000 -0.950000
v -0.400000 0.851000 -0.950000
v -0.400000 0.498967 0.950000
v -0.350000 0.498967 0.950000
v -0.350000 0.498967 -0.950000
v -0.400000 0.498967 -0.950000
v -0.400000 0.348967 0.950000
v -0.350000 0.348967 0.950000
v -0.350000 0.348966 -0.950000
v -0.400000 0.348966 -0.950000
v -0.400000 -0.501033 0.950000
v -0.350000 -0.501033 0.950000
v -0.350000 -0.501033 -0.950000
v -0.400000 -0.501033 -0.950000
v -0.400000 -0.651033 0.950000
v -0.350000 -0.651033 0.950000
v -0.350000 -0.651034 -0.950000
v -0.400000 -0.651034 -0.950000
v -0.400000 -0.000033 0.950000
v -0.350000 -0.000033 0.950000
v -0.350000 -0.000033 -0.950000
v -0.400000 -0.000033 -0.950000
v -0.400000 -0.150033 0.950000
v -0.350000 -0.150033 0.950000
v -0.350000 -0.150033 -0.950000
v -0.400000 -0.150033 -0.950000
v -0.450000 1.400000 -0.950000
v -0.450000 1.550000 -0.950000
v -0.450000 -1.550000 0.950000
v -0.450000 -1.400000 0.950000
v -0.400000 1.400000 -0.950000
v -0.400000 1.550000 -0.950000
v -0.400000 -1.550000 0.950000
v -0.400000 -1.400000 0.950000
v -0.500000 1.400000 0.950000
v -0.500000 1.550000 0.950000
v -0.500000 -1.550000 -0.950000
v -0.500000 -1.400001 -0.950000
v -0.450000 1.400000 0.950000
v -0.450000 1.550000 0.950000
v -0.450000 -1.550000 -0.950000
v -0.450000 -1.400001 -0.950000
vn -0.0000 -0.0000 -1.0000
vn 1.0000 -0.0000 -0.0000
vn -0.0000 1.0000 -0.0000
vn -0.0000 -0.0000 1.0000
vn -0.0000 -1.0000 -0.0000
vn -1.0000 -0.0000 -0.0000
vn -0.0000 -0.5415 -0.8407
vn -0.0000 0.5415 0.8407
vn -0.0000 -0.5415 0.8407
vn -0.0000 0.5415 -0.8407
vt 0.726559 0.585934
vt 0.601562 0.585934
vt 0.601562 0.578522
vt 0.726559 0.578522
vt 0.726559 0.007813
vt 0.734371 0.007813
vt 0.734371 0.289461
vt 0.726559 0.289461
vt 0.601562 0.296873
vt 0.726559 0.296873
vt 0.601562 0.289461
vt 0.601562 0.007813
vt 0.593750 0.289461
vt 0.593750 0.007813
vt 0.578122 0.476561
vt 0.578122 0.015253
vt 0.585934 0.015253
vt 0.585934 0.476561
vt 0.539063 0.476561
vt 0.539062 0.015253
vt 0.546874 0.015253
vt 0.546874 0.476561
vt 0.273437 0.476560
vt 0.273437 0.469120
vt 0.304684 0.469120
vt 0.304684 0.476560
vt 0.578122 0.945309
vt 0.546874 0.945309
vt 0.546874 0.484001
vt 0.578122 0.484001
vt 0.312496 0.476560
vt 0.312496 0.937868
vt 0.304684 0.937868
vt 0.265625 0.476560
vt 0.273437 0.937868
vt 0.265625 0.937868
vt 0.304684 0.007812
vt 0.273437 0.007812
vt 0.546874 0.007812
vt 0.578122 0.007812
vt 0.273437 0.945309
vt 0.304684 0.945309
vt 0.359372 0.476561
vt 0.367184 0.476561
vt 0.367183 0.937868
vt 0.359372 0.937868
vt 0.320313 0.476561
vt 0.328124 0.476561
vt 0.328124 0.937868
vt 0.320312 0.937868
vt 0.164062 0.476560
vt 0.195309 0.476560
vt 0.195309 0.484001
vt 0.164062 0.484001
vt 0.359372 0.007812
vt 0.359372 0.469120
vt 0.328124 0.469120
vt 0.328125 0.007812
vt 0.195309 0.015253
vt 0.203121 0.015253
vt 0.203121 0.476560
vt 0.156250 0.476560
vt 0.156250 0.015253
vt 0.164062 0.015253
vt 0.195309 0.945308
vt 0.164062 0.945308
vt 0.359372 0.945309
vt 0.328124 0.945309
vt 0.164062 0.007812
vt 0.195309 0.007812
vt 0.624998 0.874996
vt 0.617186 0.874996
vt 0.617186 0.593750
vt 0.624998 0.593750
vt 0.593749 0.874996
vt 0.593749 0.593750
vt 0.648434 0.593750
vt 0.648434 0.874996
vt 0.585938 0.874996
vt 0.585938 0.593750
vt 0.910154 0.528170
vt 0.910154 0.007813
vt 0.922242 0.026513
vt 0.922242 0.546871
vt 0.902713 0.007812
vt 0.902713 0.528170
vt 0.890625 0.546871
vt 0.890625 0.026514
vt 0.929684 0.026514
vt 0.929684 0.546871
vt 0.863279 0.528170
vt 0.851191 0.546871
vt 0.851191 0.026514
vt 0.863279 0.007812
vt 0.870721 0.007812
vt 0.882809 0.026513
vt 0.882809 0.546871
vt 0.870721 0.528170
vt 0.843750 0.026514
vt 0.843750 0.546871
s 0
usemtl rack
f 1/1/1 17/2/1 18/3/1 2/4/1
f 1/5/2 2/6/2 3/7/2 35/8/2
f 5/1/1 21/2/1 22/3/1 6/4/1
f 5/5/2 6/6/2 7/7/2 4/8/2
f 19/9/3 3/10/3 2/4/3 18/3/3
f 46/1/1 25/2/1 26/3/1 8/4/1
f 46/5/2 8/6/2 9/7/2 45/8/2
f 23/9/3 7/10/3 6/4/3 22/3/3
f 36/1/1 39/2/1 40/3/1 11/4/1
f 36/5/2 11/6/2 37/7/2 10/8/2
f 27/9/3 9/10/3 8/4/3 26/3/3
f 12/1/1 30/2/1 31/3/1 48/4/1
f 12/5/2 48/6/2 13/7/2 47/8/2
f 28/9/3 37/10/3 11/4/3 40/3/3
f 15/1/1 34/2/1 43/3/1 41/4/1
f 15/5/2 41/6/2 42/7/2 14/8/2
f 32/9/3 13/10/3 48/4/3 31/3/3
f 33/11/4 14/8/4 42/10/4 44/9/4
f 14/8/5 33/11/5 34/12/5 15/5/5
f 29/11/4 47/8/4 13/10/4 32/9/4
f 47/8/5 29/11/5 30/12/5 12/5/5
f 38/11/4 10/8/4 37/10/4 28/9/4
f 10/8/5 38/11/5 39/12/5 36/5/5
f 24/11/4 45/8/4 9/10/4 27/9/4
f 45/8/5 24/11/5 25/12/5 46/5/5
f 20/11/4 4/8/4 7/10/4 23/9/4
f 4/8/5 20/11/5 21/12/5 5/5/5
f 16/11/4 35/8/4 3/10/4 19/9/4
f 35/8/5 16/11/5 17/12/5 1/5/5
f 17/12/6 16/11/6 19/13/6 18/14/6
f 21/12/6 20/11/6 23/13/6 22/14/6
f 25/12/6 24/11/6 27/13/6 26/14/6
f 39/12/6 38/11/6 28/13/6 40/14/6
f 30/12/6 29/11/6 32/13/6 31/14/6
f 34/12/6 33/11/6 44/13/6 43/14/6
f 44/9/3 42/10/3 41/4/3 43/3/3
f 55/15/2 56/16/2 52/17/2 51/18/2
f 49/19/6 50/20/6 54/21/6 53/22/6
f 61/23/5 57/24/5 59/25/5 63/26/5
f 52/27/4 50/28/4 49/29/4 51/30/4
f 63/26/6 59/31/6 60/32/6 64/33/6
f 57/34/2 61/23/2 62/35/2 58/36/2
f 60/37/4 59/25/4 57/24/4 58/38/4
f 56/16/3 54/21/3 50/39/3 52/40/3
f 63/26/1 64/33/1 62/35/1 61/23/1
f 58/41/3 62/35/3 64/33/3 60/42/3
f 56/16/1 55/15/1 53/22/1 54/21/1
f 53/22/5 55/15/5 51/30/5 49/29/5
f 71/43/2 67/44/2 68/45/2 72/46/2
f 65/47/6 69/48/6 70/49/6 66/50/6
f 77/51/5 79/52/5 75/53/5 73/54/5
f 68/55/1 67/56/1 65/57/1 66/58/1
f 79/52/6 80/59/6 76/60/6 75/61/6
f 73/62/2 74/63/2 78/64/2 77/51/2
f 76/65/1 74/66/1 73/54/1 75/53/1
f 72/46/3 68/67/3 66/68/3 70/49/3
f 79/52/4 77/51/4 78/64/4 80/59/4
f 74/69/3 76/70/3 80/59/3 78/64/3
f 72/46/4 70/49/4 69/48/4 71/43/4
f 69/48/5 65/57/5 67/56/5 71/43/5
f 86/71/5 85/72/5 88/73/5 87/74/5
f 81/75/6 84/76/6 88/73/6 85/72/6
f 86/71/2 87/74/2 83/77/2 82/78/2
f 82/79/3 83/80/3 84/76/3 81/75/3
f 94/71/5 93/72/5 96/73/5 95/74/5
f 89/75/6 92/76/6 96/73/6 93/72/6
f 94/71/2 95/74/2 91/77/2 90/78/2
f 90/79/3 91/80/3 92/76/3 89/75/3
f 102/71/5 101/72/5 104/73/5 103/74/5
f 97/75/6 100/76/6 104/73/6 101/72/6
f 102/71/2 103/74/2 99/77/2 98/78/2
f 98/79/3 99/80/3 100/76/3 97/75/3
f 110/71/5 109/72/5 112/73/5 111/74/5
f 105/75/6 108/76/6 112/73/6 109/72/6
f 110/71/2 111/74/2 107/77/2 106/78/2
f 106/79/3 107/80/3 108/76/3 105/75/3
f 118/71/5 117/72/5 120/73/5 119/74/5
f 113/75/6 116/76/6 120/73/6 117/72/6
f 118/71/2 119/74/2 115/77/2 114/78/2
f 114/79/3 115/80/3 116/76/3 113/75/3
f 126/71/5 125/72/5 128/73/5 127/74/5
f 121/75/6 124/76/6 128/73/6 125/72/6
f 126/71/2 127/74/2 123/77/2 122/78/2
f 122/79/3 123/80/3 124/76/3 121/75/3
f 129/81/6 131/82/6 132/83/6 130/84/6
f 135/85/2 133/86/2 134/87/2 136/88/2
f 131/82/7 129/81/7 133/86/7 135/85/7
f 136/89/8 134/90/8 130/84/8 132/83/8
f 137/91/6 138/92/6 140/93/6 139/94/6
f 143/95/2 144/96/2 142/97/2 141/98/2
f 139/94/9 143/95/9 141/98/9 137/91/9
f 144/99/10 140/93/10 138/92/10 142/100/10
