# Blender 4.5.14 LTS
# www.blender.org
mtllib shelf_3.mtl
o 3_shelfs
v 0.450000 1.005556 1.450000
v -0.450000 1.005556 1.450000
v 0.450000 1.005555 -1.450000
v -0.450000 1.005555 -1.450000
v 0.450000 1.105556 1.450000
v -0.450000 1.105556 1.450000
v 0.450000 1.105555 -1.450000
v -0.450000 1.105555 -1.450000
v 0.450000 -1.044444 1.450000
v 0.450000 -1.044445 -1.450000
v -0.450000 -1.044445 -1.450000
v 0.450000 -0.944444 1.450000
v 0.450000 0.005556 1.450000
v 0.450000 0.005555 -1.450000
v -0.450000 0.105556 1.450000
v -0.450000 0.105555 -1.450000
v -0.450000 0.005556 1.450000
v -0.450000 0.005555 -1.450000
v 0.450000 0.105556 1.450000
v 0.450000 0.105555 -1.450000
v -0.450000 -1.044444 1.450000
v -0.450000 -0.944444 1.450000
v 0.450000 -0.944445 -1.450000
v -0.450000 -0.944445 -1.450000
v 0.300000 -1.144444 1.500000
v 0.300000 1.105556 1.500000
v 0.500000 -1.144444 1.500000
v 0.500000 1.105556 1.500000
v 0.500000 -1.144444 1.300000
v 0.500000 1.105556 1.300000
v 0.300000 -1.144444 1.450000
v 0.300000 1.105556 1.450000
v 0.450000 -1.144444 1.300000
v 0.450000 1.105556 1.300000
v 0.450000 1.105556 1.450000
v 0.450000 -1.144444 1.450000
v -0.300000 -1.144444 1.500000
v -0.300000 1.105556 1.500000
v -0.500000 -1.144444 1.500000
v -0.500000 1.105556 1.500000
v -0.500000 -1.144444 1.300000
v -0.500000 1.105556 1.300000
v -0.300000 -1.144444 1.450000
v -0.300000 1.105556 1.450000
v -0.450000 -1.144444 1.300000
v -0.450000 1.105556 1.300000
v -0.450000 1.105556 1.450000
v -0.450000 -1.144444 1.450000
v 0.300000 -1.144445 -1.500000
v 0.300000 1.105555 -1.500000
v 0.500000 -1.144445 -1.500000
v 0.500000 1.105555 -1.500000
v 0.500000 -1.144445 -1.300000
v 0.500000 1.105555 -1.300000
v 0.300000 -1.144445 -1.450000
v 0.300000 1.105555 -1.450000
v 0.450000 -1.144445 -1.300000
v 0.450000 1.105555 -1.300000
v 0.450000 1.105555 -1.450000
v 0.450000 -1.144445 -1.450000
v -0.300000 -1.144445 -1.500000
v -0.300000 1.105555 -1.500000
v -0.500000 -1.144445 -1.500000
v -0.500000 1.105555 -1.500000
v -0.500000 -1.144445 -1.300000
v -0.500000 1.105555 -1.300000
v -0.300000 -1.144445 -1.450000
v -0.300000 1.105555 -1.450000
v -0.450000 -1.144445 -1.300000
v -0.450000 1.105555 -1.300000
v -0.450000 1.105555 -1.450000
v -0.450000 -1.144445 -1.450000
vn -0.0000 -1.0000 -0.0000
vn -0.0000 1.0000 -0.0000
vn 1.0000 -0.0000 -0.0000
vn -0.0000 -0.0000 1.0000
vn -1.0000 -0.0000 -0.0000
vn -0.0000 -0.0000 -1.0000
vt 0.024088 0.178264
vt 0.496092 0.024858
vt 0.496092 0.178263
vt 0.512368 0.024858
vt 0.984371 0.178263
vt 0.512368 0.178263
vt 0.024088 0.024858
vt 0.496092 0.007812
vt 0.024088 0.195309
vt 0.007813 0.024858
vt 0.413123 0.429688
vt 0.413123 0.437832
vt 0.386929 0.437832
vt 0.386929 0.804351
vt 0.413123 0.812496
vt 0.378198 0.812496
vt 0.413123 0.804351
vt 0.421854 0.437832
vt 0.421854 0.804351
vt 0.456780 0.437832
vt 0.456780 0.804351
vt 0.491705 0.804351
vt 0.500437 0.437832
vt 0.500437 0.804351
vt 0.526631 0.804351
vt 0.526631 0.437832
vt 0.386929 0.462267
vt 0.378198 0.462267
vt 0.378198 0.429688
vt 0.491706 0.437832
vt 0.378197 0.779917
vt 0.386929 0.779917
vt 0.045936 0.828121
vt 0.019741 0.819976
vt 0.045936 0.819976
vt 0.019741 0.453457
vt 0.011010 0.445312
vt 0.045936 0.445312
vt 0.054667 0.819976
vt 0.045936 0.453457
vt 0.054667 0.453457
vt 0.089593 0.819976
vt 0.089592 0.453457
vt 0.133249 0.819976
vt 0.124518 0.453457
vt 0.133249 0.453457
vt 0.159443 0.453457
vt 0.159444 0.819976
vt 0.019741 0.795542
vt 0.011010 0.795542
vt 0.011010 0.828121
vt 0.124518 0.819976
vt 0.011010 0.477892
vt 0.019741 0.477892
vt 0.984371 0.024858
vt 0.024088 0.007813
vt 0.496092 0.195309
vt 0.007813 0.178264
s 0
usemtl shelf
f 4/1/1 1/2/1 2/3/1
f 5/4/2 8/5/2 6/6/2
f 3/7/3 5/8/3 1/2/3
f 1/2/4 6/6/4 2/3/4
f 2/3/5 8/9/5 4/1/5
f 4/1/6 7/10/6 3/7/6
f 11/1/1 9/2/1 21/3/1
f 12/4/2 24/5/2 22/6/2
f 10/7/3 12/8/3 9/2/3
f 9/2/4 22/6/4 21/3/4
f 21/3/5 24/9/5 11/1/5
f 11/1/6 23/10/6 10/7/6
f 18/1/1 13/2/1 17/3/1
f 19/4/2 16/5/2 15/6/2
f 14/7/3 19/8/3 13/2/3
f 13/2/4 15/6/4 17/3/4
f 17/3/5 16/9/5 18/1/5
f 18/1/6 20/10/6 14/7/6
s 1
f 30/11/2 34/12/2 35/13/2
f 36/14/1 29/15/1 27/16/1
s 0
f 33/17/6 30/18/6 29/19/6
f 29/19/3 28/20/3 27/21/3
f 25/22/5 32/23/5 31/24/5
f 36/25/6 32/23/6 35/26/6
s 1
f 32/27/2 26/28/2 35/13/2
f 26/28/2 28/29/2 35/13/2
f 28/29/2 30/11/2 35/13/2
s 0
f 27/21/4 26/30/4 25/22/4
f 36/14/5 34/12/5 33/17/5
s 1
f 36/14/1 33/17/1 29/15/1
f 27/16/1 25/31/1 36/14/1
f 25/31/1 31/32/1 36/14/1
f 42/28/2 47/13/2 46/27/2
f 48/14/1 39/16/1 41/31/1
s 0
f 42/30/6 45/24/6 41/22/6
f 40/20/5 41/22/5 39/21/5
f 44/12/3 37/19/3 43/17/3
f 44/12/6 48/14/6 47/13/6
s 1
f 44/12/2 47/13/2 38/11/2
f 38/11/2 47/13/2 40/29/2
f 40/29/2 47/13/2 42/28/2
s 0
f 38/18/4 39/21/4 37/19/4
f 46/23/3 48/25/3 45/24/3
s 1
f 48/14/1 41/31/1 45/32/1
f 39/16/1 48/14/1 37/15/1
f 37/15/1 48/14/1 43/17/1
f 54/33/2 59/34/2 58/35/2
f 60/36/1 51/37/1 53/38/1
s 0
f 54/39/4 57/40/4 53/41/4
f 52/42/3 53/41/3 51/43/3
f 56/44/5 49/45/5 55/46/5
f 56/44/4 60/47/4 59/48/4
s 1
f 56/49/2 59/34/2 50/50/2
f 50/50/2 59/34/2 52/51/2
f 52/51/2 59/34/2 54/33/2
s 0
f 50/52/6 51/43/6 49/45/6
f 58/35/5 60/36/5 57/40/5
s 1
f 60/36/1 53/38/1 57/40/1
f 51/37/1 60/36/1 49/53/1
f 49/53/1 60/36/1 55/54/1
f 66/50/2 70/49/2 71/34/2
f 72/36/1 65/53/1 63/37/1
s 0
f 69/46/4 66/52/4 65/45/4
f 65/45/5 64/42/5 63/43/5
f 61/41/3 68/35/3 67/40/3
f 72/36/4 68/35/4 71/34/4
s 1
f 68/35/2 62/33/2 71/34/2
f 62/33/2 64/51/2 71/34/2
f 64/51/2 66/50/2 71/34/2
s 0
f 63/43/6 62/39/6 61/41/6
f 72/47/3 70/44/3 69/46/3
s 1
f 72/36/1 69/54/1 65/53/1
f 63/37/1 61/38/1 72/36/1
f 61/38/1 67/40/1 72/36/1
s 0
f 4/1/1 3/7/1 1/2/1
f 5/4/2 7/55/2 8/5/2
f 3/7/3 7/56/3 5/8/3
f 1/2/4 5/4/4 6/6/4
f 2/3/5 6/57/5 8/9/5
f 4/1/6 8/58/6 7/10/6
f 11/1/1 10/7/1 9/2/1
f 12/4/2 23/55/2 24/5/2
f 10/7/3 23/56/3 12/8/3
f 9/2/4 12/4/4 22/6/4
f 21/3/5 22/57/5 24/9/5
f 11/1/6 24/58/6 23/10/6
f 18/1/1 14/7/1 13/2/1
f 19/4/2 20/55/2 16/5/2
f 14/7/3 20/56/3 19/8/3
f 13/2/4 19/4/4 15/6/4
f 17/3/5 15/57/5 16/9/5
f 18/1/6 16/58/6 20/10/6
f 33/17/6 34/12/6 30/18/6
f 29/19/3 30/18/3 28/20/3
f 25/22/5 26/30/5 32/23/5
f 36/25/6 31/24/6 32/23/6
f 27/21/4 28/20/4 26/30/4
f 36/14/5 35/13/5 34/12/5
f 42/30/6 46/23/6 45/24/6
f 40/20/5 42/30/5 41/22/5
f 44/12/3 38/18/3 37/19/3
f 44/12/6 43/17/6 48/14/6
f 38/18/4 40/20/4 39/21/4
f 46/23/3 47/26/3 48/25/3
f 54/39/4 58/35/4 57/40/4
f 52/42/3 54/39/3 53/41/3
f 56/44/5 50/52/5 49/45/5
f 56/44/4 55/46/4 60/47/4
f 50/52/6 52/42/6 51/43/6
f 58/35/5 59/34/5 60/36/5
f 69/46/4 70/44/4 66/52/4
f 65/45/5 66/52/5 64/42/5
f 61/41/3 62/39/3 68/35/3
f 72/36/4 67/40/4 68/35/4
f 63/43/6 64/42/6 62/39/6
f 72/47/3 71/48/3 70/44/3
