# Blender 4.5.14 LTS
# www.blender.org
mtllib lying_2_torso.mtl
o Body
v 0.250000 0.036945 0.194114
v 0.250000 0.286945 0.194114
v 0.250000 0.036945 -0.555886
v 0.250000 0.286945 -0.555886
v -0.250000 0.286945 0.194114
v -0.250000 0.036945 0.194114
v -0.250000 0.286945 -0.555886
v -0.250000 0.036945 -0.555886
v -0.002348 0.177916 0.512865
v -0.002348 0.177916 0.200365
v -0.002348 -0.072084 0.512865
v -0.002348 -0.072084 0.200365
v -0.186723 0.177916 0.200365
v -0.186723 0.177916 0.512865
v -0.186723 -0.072084 0.200365
v -0.186723 -0.072084 0.512865
v 0.178666 0.137271 0.599087
v 0.200124 0.133487 0.350038
v 0.156960 0.014170 0.599087
v 0.178418 0.010386 0.350038
v 0.016175 0.165923 0.333696
v -0.005282 0.169706 0.582745
v -0.005531 0.042822 0.333696
v -0.026989 0.046605 0.582745
v 0.444853 0.011203 0.228176
v 0.439440 0.012832 0.165932
v 0.073240 -0.028171 0.259458
v 0.067827 -0.026542 0.197215
v 0.420242 0.199232 0.172480
v 0.425654 0.197603 0.234724
v 0.048629 0.159858 0.203762
v 0.054041 0.158229 0.266006
v 0.207176 0.166766 0.613120
v 0.220015 0.185694 0.506163
v 0.185508 0.030416 0.586390
v 0.198348 0.049344 0.479433
v 0.128041 0.201912 0.497992
v 0.115201 0.182984 0.604949
v 0.106373 0.065562 0.471262
v 0.093534 0.046634 0.578219
v 0.149008 0.175009 0.506992
v 0.212024 0.173376 0.216887
v 0.116810 0.070677 0.500585
v 0.179825 0.069044 0.210480
v 0.037308 0.229646 0.178619
v -0.025707 0.231279 0.468724
v 0.005110 0.125315 0.172212
v -0.057906 0.126947 0.462317
v 0.122653 0.177916 0.531615
v 0.122653 0.177916 0.344115
v 0.122653 -0.072084 0.531615
v 0.122653 -0.072084 0.344115
v -0.002348 0.177916 0.344115
v -0.002348 0.177916 0.531615
v -0.002348 -0.072084 0.344115
v -0.002348 -0.072084 0.531615
v -0.068556 0.045236 0.567273
v -0.053299 0.231464 0.582840
v -0.056390 0.238219 0.505069
v -0.071647 0.051990 0.489501
v 0.358713 0.094423 0.587369
v 0.466594 0.109926 0.578189
v 0.376332 -0.007995 0.621472
v 0.484213 0.007508 0.612292
v 0.462831 0.074810 0.474673
v 0.354950 0.059308 0.483853
v 0.480451 -0.027608 0.508776
v 0.372570 -0.043110 0.517956
v -0.029239 0.090322 0.697388
v -0.075778 0.096275 0.738678
v -0.043577 0.097319 0.680218
v -0.090116 0.103272 0.721509
v 0.003731 0.094153 0.658591
v -0.053079 0.106129 0.681733
v -0.003774 0.099965 0.637162
v -0.060583 0.111940 0.660303
v 0.102595 0.205670 0.393373
v 0.044742 0.208726 0.416823
v 0.094351 0.211635 0.372259
v 0.036498 0.214691 0.395710
v 0.027842 0.237577 0.304471
v 0.038382 0.222547 0.364215
v 0.050712 0.235314 0.299868
v 0.061251 0.220284 0.359611
v 0.117877 0.201231 0.409268
v 0.094251 0.197896 0.467035
v 0.097101 0.208468 0.401189
v 0.073475 0.205133 0.458955
v -0.069030 0.181397 0.424513
v -0.115600 0.171913 0.465104
v -0.084531 0.188288 0.408340
v -0.131100 0.178804 0.448930
v -0.014216 0.183746 0.385922
v -0.036438 0.166848 0.441840
v -0.036028 0.188216 0.378604
v -0.058250 0.171318 0.434523
v -0.030159 0.187778 0.370575
v -0.087417 0.176260 0.392827
v -0.039504 0.195430 0.350490
v -0.096762 0.183913 0.372741
v -0.105459 0.197342 0.281094
v -0.091922 0.175111 0.337916
v -0.082599 0.200121 0.276735
v -0.069062 0.177891 0.333558
v 0.124422 0.192786 0.510009
v 0.064532 0.210267 0.506294
v 0.126821 0.196098 0.486931
v 0.066930 0.213579 0.483216
v 0.000943 0.211724 0.513848
v -0.015676 0.265761 0.540496
v -0.000724 0.221650 0.492682
v -0.017343 0.275686 0.519330
v 0.003581 0.250513 0.568158
v -0.002743 0.295463 0.611119
v 0.001058 0.266426 0.551136
v -0.005267 0.311376 0.594098
v 0.009318 0.117281 0.689469
v 0.018551 0.055508 0.691731
v 0.018473 0.054639 0.668309
v 0.009240 0.116412 0.666047
v 0.003421 0.216276 0.650708
v 0.005923 0.195999 0.591641
v 0.002589 0.217898 0.583983
v 0.000087 0.238175 0.643049
v 0.182797 0.201117 0.514141
v 0.154332 0.173011 0.562163
v 0.162020 0.208354 0.506061
v 0.133556 0.180248 0.554083
v 0.454108 0.089976 0.512163
v 0.468028 0.127479 0.464141
v 0.446139 0.125257 0.456062
v 0.432220 0.087755 0.504083
v 0.397694 0.106419 0.575881
v 0.415289 0.066063 0.531518
v 0.392819 0.062348 0.525986
v 0.375224 0.102704 0.570349
v 0.134940 0.193688 0.362665
v 0.102053 0.193755 0.415813
v 0.116018 0.201033 0.350947
v 0.083130 0.201099 0.404094
v 0.323801 0.198951 0.232991
v 0.265156 0.189800 0.252567
v 0.316171 0.200567 0.210889
v 0.257526 0.191415 0.230466
v 0.396539 0.195931 0.217762
v 0.335252 0.187667 0.226806
v 0.392844 0.198118 0.194721
v 0.331557 0.189854 0.203766
v 0.159750 0.194757 -0.206040
v 0.159750 0.257257 -0.206040
v 0.200333 0.194757 -0.389096
v 0.200333 0.257257 -0.389096
v -0.197208 0.257257 -0.285176
v -0.197208 0.194757 -0.285176
v -0.156626 0.257257 -0.468231
v -0.156626 0.194757 -0.468231
v 0.231564 0.131259 0.125232
v 0.236990 0.193521 0.124757
v 0.209775 0.131259 -0.123816
v 0.215201 0.193521 -0.124291
v 0.050915 0.209862 0.141037
v 0.045488 0.147600 0.141512
v 0.029126 0.209862 -0.108012
v 0.023699 0.147600 -0.107537
v 0.226054 0.318045 -0.125241
v 0.247843 0.318045 0.123808
v 0.236990 0.193521 0.124757
v 0.215201 0.193521 -0.124291
v 0.252232 0.317660 0.123386
v 0.226117 0.318040 -0.125246
v 0.068946 0.486555 0.142896
v 0.042831 0.486935 -0.105736
v 0.221826 0.201067 -0.126255
v 0.216601 0.325908 -0.129786
v 0.232669 0.323075 -0.253717
v 0.237894 0.198234 -0.250185
v 0.219432 0.324433 -0.129385
v 0.243534 0.320183 -0.315281
v 0.114981 0.391424 -0.144459
v 0.139083 0.387174 -0.330355
v 0.224438 0.138647 -0.124489
v 0.221826 0.201067 -0.126255
v 0.240506 0.135813 -0.248420
v 0.237894 0.198234 -0.250185
v 0.036047 0.192616 -0.150148
v 0.038659 0.130196 -0.148383
v 0.052114 0.189783 -0.274079
v 0.054727 0.127363 -0.272313
v -0.062756 0.424920 -0.151996
v -0.086857 0.420670 -0.337892
v -0.219432 0.324433 -0.129385
v -0.243534 0.320183 -0.315281
v -0.038659 0.130196 -0.148383
v -0.036047 0.192616 -0.150148
v -0.054727 0.127363 -0.272313
v -0.052114 0.189783 -0.274079
v -0.221826 0.201067 -0.126255
v -0.224438 0.138647 -0.124489
v -0.237894 0.198234 -0.250185
v -0.240506 0.135813 -0.248420
v -0.232669 0.323075 -0.253717
v -0.216601 0.325908 -0.129786
v -0.221826 0.201067 -0.126255
v -0.237894 0.198234 -0.250185
v -0.114768 0.444331 0.138018
v -0.088652 0.444711 -0.110614
v -0.252232 0.317660 0.123386
v -0.226117 0.318040 -0.125246
v -0.236990 0.193521 0.124757
v -0.247843 0.318045 0.123808
v -0.226054 0.318045 -0.125241
v -0.215201 0.193521 -0.124291
v -0.045488 0.147600 0.141512
v -0.050915 0.209862 0.141037
v -0.023699 0.147600 -0.107537
v -0.029126 0.209862 -0.108012
v -0.236990 0.193521 0.124757
v -0.231564 0.131259 0.125232
v -0.215201 0.193521 -0.124291
v -0.209775 0.131259 -0.123816
v -0.243750 0.286945 0.131614
v -0.243750 0.099445 0.131614
v -0.243750 0.286945 -0.430886
v -0.243750 0.099445 -0.430886
v 0.059375 0.101007 0.131614
v 0.059375 0.163507 0.131614
v 0.059375 0.101007 -0.430886
v 0.059375 0.163507 -0.430886
v -0.056250 0.163507 0.131614
v -0.056250 0.101007 0.131614
v -0.056250 0.163507 -0.430886
v -0.056250 0.101007 -0.430886
v 0.158659 0.223533 -0.182370
v 0.162614 0.283302 -0.200210
v 0.171596 0.205259 -0.240722
v 0.175551 0.265029 -0.258562
v -0.194344 0.283302 -0.279345
v -0.198299 0.223533 -0.261505
v -0.181408 0.265029 -0.337698
v -0.185363 0.205259 -0.319858
v 0.181569 0.215053 -0.327214
v 0.185555 0.277267 -0.331667
v 0.181861 0.210572 -0.389552
v 0.185847 0.272786 -0.394005
v -0.179322 0.300404 -0.335043
v -0.183308 0.238190 -0.330589
v -0.179029 0.295923 -0.397381
v -0.183015 0.233709 -0.392928
v 0.158659 0.223533 -0.307370
v 0.162614 0.283302 -0.325210
v 0.171596 0.205259 -0.365722
v 0.175551 0.265029 -0.383562
v -0.194344 0.283302 -0.404345
v -0.198299 0.223533 -0.386505
v -0.181408 0.265029 -0.462698
v -0.185363 0.205259 -0.444858
v 0.162704 0.208719 -0.244557
v 0.168381 0.269369 -0.258544
v 0.173063 0.193950 -0.304397
v 0.178739 0.254600 -0.318384
v -0.190655 0.287603 -0.325194
v -0.196332 0.226953 -0.311208
v -0.180297 0.272833 -0.385034
v -0.185973 0.212184 -0.371048
v -0.029982 0.211462 0.142868
v -0.035408 0.273724 0.142394
v -0.008193 0.211462 -0.106180
v -0.013619 0.273724 -0.106655
v -0.174965 0.261468 0.130184
v -0.169539 0.199206 0.130659
v -0.153176 0.261468 -0.118865
v -0.147750 0.199206 -0.118390
v 0.034375 0.199445 0.256614
v 0.034375 0.261945 0.256614
v 0.034375 0.199445 0.069114
v 0.034375 0.261945 0.069114
v -0.028125 0.261945 0.256614
v -0.028125 0.199445 0.256614
v -0.028125 0.261945 0.069114
v -0.028125 0.199445 0.069114
v -0.054712 0.207377 -0.110250
v -0.060138 0.269639 -0.110725
v -0.050626 0.207377 -0.156947
v -0.056053 0.269639 -0.157422
v -0.153176 0.261468 -0.118865
v -0.147750 0.199206 -0.118390
v -0.149091 0.261468 -0.165561
v -0.143664 0.199206 -0.165087
v 0.050000 0.199445 0.131614
v 0.050000 0.261945 0.131614
v 0.050000 0.199445 0.069114
v 0.050000 0.261945 0.069114
v 0.034375 0.261945 0.131614
v 0.034375 0.199445 0.131614
v 0.034375 0.261945 0.069114
v 0.034375 0.199445 0.069114
v 0.246875 0.099445 -0.430886
v 0.246875 0.286945 -0.430886
v -0.243750 0.286945 -0.430886
v -0.243750 0.099445 -0.430886
v 0.246875 0.099445 0.131614
v 0.246875 0.286945 0.131614
v -0.243750 0.286945 0.131614
v -0.243750 0.099445 0.131614
v 0.246875 0.099445 0.131614
v 0.246875 0.099445 -0.430886
v -0.243750 0.099445 0.131614
v -0.243750 0.099445 -0.430886
v 0.246875 0.286945 0.131614
v 0.246875 0.099445 0.131614
v 0.246875 0.286945 -0.430886
v 0.246875 0.099445 -0.430886
v 0.383995 0.011302 0.231974
v 0.367662 0.012594 0.205363
v 0.264352 0.016765 0.305671
v 0.248019 0.018058 0.279060
v 0.347153 0.012437 0.291339
v 0.330820 0.013730 0.264728
v 0.240803 0.017294 0.356847
v 0.224471 0.018587 0.330236
v 0.392161 0.010655 0.245280
v 0.367662 0.012594 0.205364
v 0.425205 0.137529 0.176115
v 0.449703 0.135590 0.216031
v 0.401910 0.020272 0.260699
v 0.380114 0.026898 0.219732
v 0.411045 0.082499 0.212267
v 0.432842 0.075874 0.253234
v 0.409306 0.078548 0.208733
v 0.432920 0.077418 0.249209
v 0.445077 0.107246 0.242949
v 0.421462 0.108376 0.202473
v 0.445382 0.124644 0.240757
v 0.423358 0.102775 0.205629
v 0.440402 0.153486 0.225923
v 0.418378 0.131617 0.190795
v 0.322650 0.160021 0.379915
v 0.307731 0.148818 0.422917
v 0.310660 0.190335 0.383652
v 0.295741 0.179132 0.426654
v 0.306444 0.052710 0.391843
v 0.290337 0.062125 0.434845
v 0.320007 0.114740 0.383341
v 0.303899 0.124155 0.426343
v 0.297592 -0.005716 0.418355
v 0.180761 0.006250 0.707948
v 0.312686 0.182736 0.416658
v 0.195856 0.194701 0.706251
v 0.297592 -0.005716 0.418355
v 0.124334 0.007527 0.347911
v 0.180761 0.006250 0.707948
v 0.007503 0.019493 0.637503
v 0.274226 -0.003323 0.476274
v 0.216473 0.001092 0.452792
v 0.289320 0.185129 0.474577
v 0.231567 0.189543 0.451095
v -0.415031 0.219149 0.202218
v -0.403804 0.197462 0.144687
v -0.059733 0.147627 0.298513
v -0.048506 0.125940 0.240981
v -0.453429 0.025286 0.199905
v -0.464656 0.046973 0.257437
v -0.098130 -0.046236 0.296200
v -0.109357 -0.024549 0.353731
v -0.301075 0.029080 0.605315
v -0.361659 0.081422 0.303246
v 0.005264 0.027440 0.543590
v -0.055320 0.079782 0.241521
v -0.365713 -0.023325 0.285908
v -0.305129 -0.075668 0.587978
v -0.059374 -0.024965 0.224183
v 0.001210 -0.077308 0.526253
v -0.052391 0.126780 0.767842
v -0.043761 0.221124 0.536488
v 0.109325 0.036958 0.737247
v 0.117956 0.131302 0.505893
v -0.169985 0.022991 0.450983
v -0.178615 -0.071353 0.682337
v -0.008268 -0.066830 0.420388
v -0.016899 -0.161174 0.651742
v -0.311795 0.202843 0.632263
v -0.400094 0.149060 0.667950
v -0.349812 0.197308 0.529857
v -0.438111 0.143525 0.565544
v -0.347933 0.053983 0.653724
v -0.259633 0.107766 0.618037
v -0.385949 0.048448 0.551318
v -0.297650 0.102230 0.515631
v -0.266261 0.175007 0.669352
v -0.300229 0.172517 0.536137
v -0.085162 0.159053 0.623472
v -0.119130 0.156562 0.490257
v -0.309980 0.047991 0.540951
v -0.276012 0.050481 0.674166
v -0.128881 0.032036 0.495072
v -0.094913 0.034527 0.628287
v -0.434323 0.121003 0.277228
v -0.424116 0.107032 0.251205
v -0.343398 0.021792 0.328626
v -0.353606 0.035762 0.354649
v -0.408656 0.097088 0.337661
v -0.398449 0.083118 0.311638
v -0.326700 0.007348 0.380457
v -0.336907 0.021319 0.406480
v -0.372682 0.240847 0.237067
v -0.357371 0.219892 0.198032
v -0.418959 0.100029 0.238222
v -0.434270 0.120985 0.277257
v -0.407910 0.193605 0.279038
v -0.390624 0.177577 0.238522
v -0.414932 0.119648 0.251068
v -0.432219 0.135677 0.291584
v -0.391177 0.221751 0.266096
v -0.377067 0.200952 0.226529
v -0.392772 0.173524 0.235345
v -0.406882 0.194323 0.274913
v -0.357300 0.211965 0.213337
v -0.352543 0.245264 0.245985
v -0.382530 0.199227 0.230006
v -0.377773 0.232525 0.262653
v -0.322989 0.215090 0.488410
v -0.324259 0.229410 0.443794
v -0.347921 0.207578 0.437460
v -0.346651 0.193258 0.482076
v -0.342106 0.193298 0.491151
v -0.349227 0.201984 0.445642
v -0.363719 0.172733 0.442326
v -0.356599 0.164046 0.487836
v -0.366643 0.166217 0.440274
v -0.354994 0.169740 0.485542
v -0.384162 0.105294 0.449524
v -0.372513 0.108817 0.494791
v -0.272170 0.199489 0.780929
v -0.334659 0.225373 0.475836
v -0.407010 0.050702 0.475836
v -0.344521 0.024818 0.780929
v -0.344521 0.024818 0.780929
v -0.407010 0.050702 0.475836
v -0.181515 -0.042701 0.421726
v -0.119026 -0.068585 0.726819
v -0.323398 0.220708 0.481615
v -0.150170 0.148955 0.481615
v -0.395749 0.046037 0.481615
v -0.222521 -0.025716 0.481615
v 0.085959 0.290955 -0.216807
v 0.098567 0.281371 -0.277267
v 0.075948 0.284591 -0.282495
v 0.063340 0.294175 -0.222035
v 0.027507 0.284556 -0.257207
v 0.080315 0.280351 -0.290373
v 0.067833 0.280044 -0.310208
v 0.015025 0.284250 -0.277042
v 0.108104 0.263615 -0.323243
v 0.085214 0.274545 -0.266122
v 0.086650 0.266162 -0.332328
v 0.063759 0.277092 -0.275207
v -0.012212 0.282340 -0.367473
v 0.010385 0.283945 -0.309223
v 0.032206 0.282456 -0.317646
v 0.009609 0.280851 -0.375896
v -0.076541 0.284705 0.033193
v -0.063933 0.275121 -0.027267
v -0.086552 0.278341 -0.032495
v -0.099160 0.287925 0.027965
v -0.134993 0.278306 -0.007207
v -0.082185 0.274101 -0.040373
v -0.094667 0.273794 -0.060208
v -0.147475 0.278000 -0.027042
v -0.054396 0.257365 -0.073243
v -0.077286 0.268295 -0.016122
v -0.075850 0.259912 -0.082328
v -0.098741 0.270842 -0.025207
v -0.174711 0.276090 -0.117473
v -0.152115 0.277696 -0.059223
v -0.130294 0.276206 -0.067646
v -0.152891 0.274601 -0.125896
v 0.069540 0.197243 -0.006935
v 0.128387 0.217856 -0.002636
v 0.131763 0.212944 -0.025303
v 0.072917 0.192331 -0.029602
v 0.140695 0.214324 -0.021129
v 0.108860 0.182758 -0.064676
v 0.158802 0.216395 -0.035866
v 0.126967 0.184828 -0.079413
v 0.121170 0.202338 -0.010134
v 0.177558 0.224912 0.004596
v 0.184716 0.221417 -0.017446
v 0.128327 0.198842 -0.032176
v 0.156260 0.194944 -0.089250
v 0.209730 0.206387 -0.119518
v 0.217994 0.217611 -0.100676
v 0.164524 0.206169 -0.070408
v -0.055460 0.197243 -0.131935
v 0.003387 0.217856 -0.127636
v 0.006763 0.212944 -0.150303
v -0.052083 0.192331 -0.154602
v 0.015695 0.214324 -0.146129
v -0.016140 0.182758 -0.189676
v 0.033802 0.216395 -0.160866
v 0.001967 0.184828 -0.204413
v -0.003830 0.202337 -0.135134
v 0.052558 0.224912 -0.120404
v 0.059716 0.221417 -0.142446
v 0.003327 0.198842 -0.157176
v 0.031260 0.194944 -0.214250
v 0.084730 0.206387 -0.244518
v 0.092994 0.217611 -0.225676
v 0.039524 0.206169 -0.195408
vn -0.0000 1.0000 -0.0000
vn 1.0000 -0.0000 -0.0000
vn -0.0000 -1.0000 -0.0000
vn -1.0000 -0.0000 -0.0000
vn -0.0000 -0.0000 1.0000
vn -0.0000 -0.0000 -1.0000
vn 0.0858 -0.0151 -0.9962
vn 0.9811 -0.1730 0.0872
vn -0.0858 0.0151 0.9962
vn -0.9811 0.1730 -0.0872
vn 0.1736 0.9848 -0.0000
vn -0.1736 -0.9848 -0.0000
vn -0.0866 0.0261 -0.9959
vn 0.1024 -0.9941 -0.0349
vn 0.0866 -0.0261 0.9959
vn -0.1024 0.9941 0.0349
vn 0.9910 0.1050 -0.0834
vn -0.9910 -0.1050 0.0834
vn 0.1174 0.1731 -0.9779
vn -0.1174 -0.1731 0.9779
vn 0.1541 0.9696 0.1901
vn -0.1541 -0.9696 -0.1901
vn 0.2123 -0.0055 -0.9772
vn 0.9318 -0.3001 0.2041
vn -0.2123 0.0055 0.9772
vn -0.9318 0.3001 -0.2041
vn 0.2944 0.9539 0.0586
vn -0.2944 -0.9539 -0.0586
vn -0.9959 0.0777 0.0463
vn 0.9863 0.1417 -0.0839
vn 0.0344 0.3211 0.9464
vn -0.9863 -0.1417 0.0839
vn -0.0344 -0.3211 -0.9464
vn -0.1611 0.9364 -0.3118
vn 0.1611 -0.9364 0.3118
vn -0.2670 -0.9496 -0.1640
vn -0.1395 -0.9658 -0.2184
vn -0.0862 -0.9437 -0.3194
vn 0.0417 -0.9271 -0.3726
vn 0.2670 0.9496 0.1640
vn 0.9614 0.2705 0.0511
vn 0.9890 0.1475 -0.0087
vn -0.0822 -0.8381 -0.5393
vn -0.2797 0.7943 0.5393
vn -0.0399 -0.7470 0.6637
vn -0.1165 0.9868 0.1123
vn 0.1165 -0.9868 -0.1123
vn 0.9763 -0.0000 0.2164
vn -0.9763 -0.0000 -0.2164
vn -0.2164 -0.0000 0.9763
vn 0.2164 -0.0000 -0.9763
vn 0.0868 0.9962 -0.0076
vn 0.9924 -0.0872 -0.0868
vn -0.0868 -0.9962 0.0076
vn -0.9924 0.0872 0.0868
vn 0.0872 -0.0000 0.9962
vn -0.0872 -0.0000 -0.9962
vn -0.6720 -0.7373 0.0695
vn -0.9908 -0.0451 -0.1274
vn -0.5341 -0.8440 -0.0500
vn -0.0418 0.9987 -0.0283
vn 0.9908 0.0451 0.1274
vn 0.0418 -0.9987 0.0283
vn -0.1285 0.0227 0.9914
vn 0.1285 -0.0227 -0.9914
vn -0.5341 0.8440 0.0500
vn 0.0418 0.9987 -0.0283
vn 0.9908 -0.0451 -0.1274
vn -0.0418 -0.9987 0.0283
vn -0.9908 0.0451 0.1274
vn 0.1285 0.0227 0.9914
vn -0.1285 -0.0227 -0.9914
vn 0.6720 -0.7373 0.0695
vn -0.9924 -0.0872 -0.0868
vn -0.0868 0.9962 -0.0076
vn 0.9924 0.0872 0.0868
vn 0.0868 -0.9962 0.0076
vn -0.0872 -0.0000 0.9962
vn 0.0872 -0.0000 -0.9962
vn 0.0633 0.9563 -0.2854
vn -0.0633 -0.9563 0.2854
vn -0.2070 0.2924 0.9336
vn 0.2070 -0.2924 -0.9336
vn 0.0638 0.9954 -0.0713
vn 0.9980 -0.0633 0.0092
vn -0.0638 -0.9954 0.0712
vn -0.9980 0.0633 -0.0092
vn -0.0047 0.0717 0.9974
vn 0.0047 -0.0717 -0.9974
vn 0.0908 0.9704 -0.2238
vn 0.9820 -0.0499 0.1823
vn -0.0908 -0.9704 0.2238
vn -0.9820 0.0499 -0.1823
vn -0.1657 0.2363 0.9574
vn 0.1657 -0.2363 -0.9574
vn -0.0548 -0.9984 -0.0149
vn 0.0548 0.9984 0.0149
vn -0.7479 0.4572 0.4813
vn 0.7421 -0.4762 -0.4718
vn 0.7804 -0.4160 -0.4669
vn 0.8696 -0.0987 -0.4838
vn 0.8747 0.2990 0.3814
vn -0.9149 0.1486 -0.3753
vn -0.9240 0.0706 -0.3757
vn -0.0798 -0.9968 0.0090
vn -0.3739 0.0383 0.9267
vn 0.1796 -0.3470 -0.9205
vn 0.2647 0.9183 -0.2945
vn -0.1796 0.3470 0.9205
vn -0.2647 -0.9183 0.2945
vn -0.9475 0.1907 -0.2568
vn 0.9475 -0.1907 0.2568
vn -0.1939 0.1675 -0.9666
vn 0.0382 0.9859 0.1632
vn 0.1939 -0.1675 0.9666
vn -0.0382 -0.9859 -0.1632
vn -0.9803 0.0052 0.1975
vn 0.9803 -0.0052 -0.1975
vn 0.0345 0.3774 -0.9254
vn 0.5049 0.7925 0.3420
vn -0.0345 -0.3774 0.9254
vn -0.5049 -0.7925 -0.3420
vn -0.8625 0.4790 0.1632
vn 0.8625 -0.4790 -0.1632
vn -0.8073 -0.4917 0.3263
vn -0.4769 0.8693 0.1301
vn 0.8073 0.4917 -0.3263
vn 0.4769 -0.8693 -0.1301
vn 0.3476 0.0506 0.9363
vn -0.3476 -0.0506 -0.9363
vn -0.2470 -0.0181 -0.9688
vn 0.0780 0.9962 -0.0385
vn 0.2470 0.0181 0.9688
vn -0.0780 -0.9962 0.0385
vn -0.9659 0.0851 0.2447
vn 0.9659 -0.0851 -0.2447
vn -0.7509 -0.6578 0.0586
vn 0.7509 0.6578 -0.0586
vn 0.8376 -0.2714 0.4742
vn -0.8485 0.2557 -0.4632
vn 0.8248 -0.3231 0.4640
vn 0.6312 -0.5871 0.5068
vn -0.6922 0.6812 0.2383
vn -0.8842 0.4135 0.2173
vn 0.9292 -0.3000 -0.2158
vn 0.9020 -0.3736 -0.2164
vn 0.3827 0.9239 -0.0000
vn 0.1671 0.9786 -0.1203
vn -0.0500 -0.9976 0.0469
vn -0.1671 -0.9786 0.1203
vn 0.3046 -0.9205 0.2448
vn -0.3791 0.8586 -0.3452
vn 0.3791 -0.8586 0.3452
vn -0.3046 0.9205 -0.2448
vt 0.382812 0.539062
vt 0.445312 0.539062
vt 0.445312 0.632812
vt 0.382812 0.632812
vt 0.351562 0.539062
vt 0.351562 0.632812
vt 0.476562 0.539062
vt 0.539062 0.539062
vt 0.539062 0.632812
vt 0.476562 0.632812
vt 0.445312 0.664062
vt 0.382812 0.664062
vt 0.507812 0.632812
vt 0.507812 0.664062
vt 0.492188 0.968750
vt 0.515625 0.968750
vt 0.515625 1.000000
vt 0.492188 1.000000
vt 0.421875 0.664062
vt 0.460938 0.664062
vt 0.460938 0.695312
vt 0.421875 0.695312
vt 0.492188 0.937500
vt 0.515625 0.937500
vt 0.312500 0.546875
vt 0.351562 0.546875
vt 0.351562 0.578125
vt 0.312500 0.578125
vt 0.453125 0.500000
vt 0.476562 0.500000
vt 0.453125 0.539062
vt 0.500000 0.500000
vt 0.500000 0.539062
vt 0.343750 0.476562
vt 0.367188 0.476562
vt 0.367188 0.492188
vt 0.343750 0.492188
vt 0.492188 0.664062
vt 0.492188 0.679688
vt 0.460938 0.679688
vt 0.515625 0.984375
vt 0.539062 0.984375
vt 0.539062 1.000000
vt 0.523438 0.664062
vt 0.523438 0.679688
vt 0.492188 0.906250
vt 0.515625 0.906250
vt 0.492188 0.875000
vt 0.515625 0.875000
vt 0.000000 0.492188
vt 0.023438 0.492188
vt 0.023438 0.539062
vt 0.000000 0.539062
vt 0.523438 0.937500
vt 0.523438 0.984375
vt 0.367188 0.539062
vt 0.343750 0.539062
vt 0.515625 0.890625
vt 0.523438 0.890625
vt 0.320312 0.468750
vt 0.343750 0.468750
vt 0.320312 0.476562
vt 0.523438 0.671875
vt 0.546875 0.671875
vt 0.546875 0.679688
vt 0.515625 0.484375
vt 0.531250 0.484375
vt 0.531250 0.500000
vt 0.515625 0.500000
vt 0.507812 0.468750
vt 0.523438 0.468750
vt 0.523438 0.484375
vt 0.507812 0.484375
vt 0.000000 0.460938
vt 0.015625 0.460938
vt 0.015625 0.476562
vt 0.000000 0.476562
vt 0.523438 0.968750
vt 0.539062 0.968750
vt 0.523438 0.953125
vt 0.539062 0.953125
vt 0.539062 0.937500
vt 0.539062 0.875000
vt 0.539062 0.890625
vt 0.085938 0.625000
vt 0.125000 0.625000
vt 0.125000 0.640625
vt 0.085938 0.640625
vt 0.515625 0.789062
vt 0.539062 0.789062
vt 0.539062 0.804688
vt 0.515625 0.804688
vt 0.367188 0.664062
vt 0.406250 0.664062
vt 0.406250 0.679688
vt 0.367188 0.679688
vt 0.164062 0.476562
vt 0.187500 0.476562
vt 0.187500 0.515625
vt 0.164062 0.515625
vt 0.210938 0.476562
vt 0.210938 0.515625
vt 0.382812 0.468750
vt 0.398438 0.468750
vt 0.398438 0.500000
vt 0.382812 0.500000
vt 0.023438 0.468750
vt 0.046875 0.468750
vt 0.046875 0.500000
vt 0.023438 0.500000
vt 0.414062 0.468750
vt 0.414062 0.500000
vt 0.070312 0.468750
vt 0.070312 0.500000
vt 0.210938 0.460938
vt 0.226562 0.460938
vt 0.226562 0.484375
vt 0.210938 0.484375
vt 0.515625 0.765625
vt 0.531250 0.765625
vt 0.531250 0.789062
vt 0.000000 1.000000
vt 0.031250 0.984375
vt 0.046875 0.984375
vt 0.046875 1.000000
vt 0.031250 1.000000
vt 0.000000 0.617188
vt 0.015625 0.617188
vt 0.015625 0.632812
vt 0.000000 0.632812
vt 0.421875 0.679688
vt 0.226562 0.468750
vt 0.242188 0.468750
vt 0.242188 0.484375
vt 0.515625 0.750000
vt 0.531250 0.750000
vt 0.257812 0.468750
vt 0.257812 0.484375
vt 0.039062 0.953125
vt 0.039062 0.960938
vt 0.046875 0.960938
vt 0.046875 0.953125
vt 0.460938 0.703125
vt 0.507812 0.703125
vt 0.507812 0.726562
vt 0.460938 0.726562
vt 0.015625 0.453125
vt 0.023438 0.453125
vt 0.023438 0.476562
vt 0.507812 0.679688
vt 0.523438 0.914062
vt 0.531250 0.914062
vt 0.531250 0.937500
vt 0.093750 0.804688
vt 0.140625 0.804688
vt 0.140625 0.812500
vt 0.093750 0.812500
vt 0.039062 0.625000
vt 0.085938 0.632812
vt 0.039062 0.632812
vt 0.234375 0.484375
vt 0.234375 0.515625
vt 0.367188 0.843750
vt 0.375000 0.843750
vt 0.375000 0.875000
vt 0.367188 0.875000
vt 0.257812 0.515625
vt 0.289062 0.453125
vt 0.296875 0.453125
vt 0.296875 0.484375
vt 0.289062 0.484375
vt 0.148438 0.625000
vt 0.148438 0.632812
vt 0.125000 0.632812
vt 0.515625 0.515625
vt 0.539062 0.515625
vt 0.539062 0.523438
vt 0.515625 0.523438
vt 0.132812 0.468750
vt 0.132812 0.500000
vt 0.148438 0.500000
vt 0.148438 0.468750
vt 0.203125 0.968750
vt 0.203125 1.000000
vt 0.234375 1.000000
vt 0.234375 0.968750
vt 0.414062 0.484375
vt 0.429688 0.484375
vt 0.429688 0.468750
vt 0.476562 0.476562
vt 0.492188 0.500000
vt 0.492188 0.476562
vt 0.523438 0.500000
vt 0.523438 0.515625
vt 0.500000 0.515625
vt 0.476562 0.460938
vt 0.484375 0.460938
vt 0.484375 0.476562
vt 0.492188 0.484375
vt 0.492188 0.460938
vt 0.085938 0.468750
vt 0.109375 0.468750
vt 0.109375 0.476562
vt 0.085938 0.476562
vt 0.523438 0.906250
vt 0.546875 0.906250
vt 0.546875 0.914062
vt 0.132812 0.476562
vt 0.109375 0.500000
vt 0.531250 0.515625
vt 0.507812 0.859375
vt 0.531250 0.859375
vt 0.531250 0.875000
vt 0.507812 0.875000
vt 0.531250 0.468750
vt 0.523438 0.898438
vt 0.546875 0.898438
vt 0.546875 0.890625
vt 0.515625 0.539062
vt 0.531250 0.539062
vt 0.531250 0.523438
vt 0.281250 0.515625
vt 0.281250 0.484375
vt 0.164062 0.468750
vt 0.164062 0.500000
vt 0.304688 0.484375
vt 0.304688 0.515625
vt 0.304688 0.453125
vt 0.437500 0.484375
vt 0.437500 0.515625
vt 0.414062 0.515625
vt 0.429688 0.453125
vt 0.437500 0.453125
vt 0.187500 0.468750
vt 0.335938 0.578125
vt 0.335938 0.648438
vt 0.312500 0.648438
vt 0.312500 0.476562
vt 0.328125 0.476562
vt 0.328125 0.546875
vt 0.304688 0.445312
vt 0.312500 0.445312
vt 0.312500 0.515625
vt 0.343750 0.546875
vt 0.500000 0.804688
vt 0.507812 0.804688
vt 0.500000 0.875000
vt 0.023438 0.460938
vt 0.039062 0.460938
vt 0.039062 0.468750
vt 0.054688 0.460938
vt 0.054688 0.468750
vt 0.507812 0.851562
vt 0.554688 0.851562
vt 0.554688 0.859375
vt 0.132812 0.460938
vt 0.140625 0.460938
vt 0.140625 0.468750
vt 0.507812 0.843750
vt 0.554688 0.843750
vt 0.539062 0.859375
vt 0.539062 0.867188
vt 0.531250 0.867188
vt 0.507812 0.835938
vt 0.554688 0.835938
vt 0.507812 0.828125
vt 0.554688 0.828125
vt 0.507812 0.820312
vt 0.554688 0.820312
vt 0.148438 0.460938
vt 0.507812 0.812500
vt 0.554688 0.812500
vt 0.156250 0.460938
vt 0.156250 0.468750
vt 0.554688 0.804688
vt 0.507812 0.742188
vt 0.554688 0.742188
vt 0.554688 0.750000
vt 0.507812 0.750000
vt 0.507812 0.734375
vt 0.554688 0.734375
vt 0.164062 0.460938
vt 0.554688 0.726562
vt 0.171875 0.460938
vt 0.171875 0.468750
vt 0.507812 0.718750
vt 0.554688 0.718750
vt 0.507812 0.710938
vt 0.554688 0.710938
vt 0.554688 0.703125
vt 0.179688 0.460938
vt 0.179688 0.468750
vt 0.507812 0.695312
vt 0.554688 0.695312
vt 0.187500 0.460938
vt 0.507812 0.687500
vt 0.554688 0.687500
vt 0.554688 0.679688
vt 0.500000 0.773438
vt 0.515625 0.773438
vt 0.492188 0.453125
vt 0.500000 0.453125
vt 0.500000 0.484375
vt 0.367188 0.468750
vt 0.367188 0.500000
vt 0.507812 0.453125
vt 0.070312 0.460938
vt 0.531250 0.929688
vt 0.546875 0.929688
vt 0.546875 0.937500
vt 0.187500 0.453125
vt 0.195312 0.453125
vt 0.195312 0.476562
vt 0.203125 0.453125
vt 0.203125 0.476562
vt 0.210938 0.453125
vt 0.312500 0.453125
vt 0.320312 0.453125
vt 0.531250 0.781250
vt 0.539062 0.781250
vt 0.531250 0.773438
vt 0.539062 0.773438
vt 0.531250 0.921875
vt 0.546875 0.921875
vt 0.234375 0.460938
vt 0.234375 0.468750
vt 0.539062 0.765625
vt 0.085938 0.460938
vt 0.101562 0.460938
vt 0.101562 0.468750
vt 0.117188 0.460938
vt 0.117188 0.468750
vt 0.242188 0.460938
vt 0.531250 0.757812
vt 0.539062 0.757812
vt 0.250000 0.460938
vt 0.250000 0.468750
vt 0.539062 0.750000
vt 0.257812 0.460938
vt 0.265625 0.460938
vt 0.265625 0.468750
vt 0.093750 0.835938
vt 0.156250 0.835938
vt 0.156250 0.812500
vt 0.421875 0.726562
vt 0.484375 0.726562
vt 0.484375 0.750000
vt 0.421875 0.750000
vt 0.359375 0.679688
vt 0.359375 0.750000
vt 0.164062 0.562500
vt 0.187500 0.562500
vt 0.187500 0.632812
vt 0.164062 0.632812
vt 0.437500 0.460938
vt 0.445312 0.460938
vt 0.445312 0.476562
vt 0.437500 0.476562
vt 0.453125 0.476562
vt 0.453125 0.460938
vt 0.125000 0.460938
vt 0.125000 0.468750
vt 0.390625 0.500000
vt 0.390625 0.539062
vt 0.414062 0.539062
vt 0.453125 0.515625
vt 0.296875 0.968750
vt 0.296875 0.976562
vt 0.320312 0.976562
vt 0.320312 0.968750
vt 0.000000 0.953125
vt 0.023438 0.953125
vt 0.023438 1.000000
vt 0.031250 0.953125
vt 0.453125 0.453125
vt 0.460938 0.453125
vt 0.460938 0.500000
vt 0.218750 0.804688
vt 0.242188 0.804688
vt 0.242188 0.812500
vt 0.218750 0.812500
vt 0.250000 0.843750
vt 0.273438 0.843750
vt 0.273438 0.851562
vt 0.250000 0.851562
vt 0.335938 0.601562
vt 0.351562 0.601562
vt 0.351562 0.640625
vt 0.335938 0.640625
vt 0.000000 0.578125
vt 0.039062 0.578125
vt 0.039062 0.617188
vt 0.039062 0.500000
vt 0.039062 0.539062
vt 0.085938 0.500000
vt 0.015625 0.929688
vt 0.046875 0.929688
vt 0.015625 0.953125
vt 0.250000 0.812500
vt 0.250000 0.835938
vt 0.218750 0.835938
vt 0.281250 0.851562
vt 0.281250 0.875000
vt 0.250000 0.875000
vt 0.328125 0.976562
vt 0.328125 1.000000
vt 0.296875 1.000000
vt 0.000000 0.804688
vt 0.031250 0.804688
vt 0.031250 0.835938
vt 0.000000 0.835938
vt 0.171875 0.929688
vt 0.203125 0.929688
vt 0.203125 0.960938
vt 0.171875 0.960938
vt 0.500000 0.750000
vt 0.460938 0.476562
vt 0.273438 0.468750
vt 0.273438 0.484375
vt 0.289062 0.468750
vt 0.156250 0.804688
vt 0.250000 0.804688
vt 0.281250 0.843750
vt 0.328125 0.968750
vt 0.132812 0.632812
vt 0.132812 0.640625
vt 0.171875 0.632812
vt 0.179688 0.632812
vt 0.179688 0.640625
vt 0.171875 0.640625
vt 0.359375 0.671875
vt 0.367188 0.671875
s 1
usemtl m_0e5101a4-f8b5-16c1-4082-e6d95e8df925
f 4/1/1 7/2/1 5/3/1 2/4/1
f 3/5/2 4/1/2 2/4/2 1/6/2
f 8/7/3 3/8/3 1/9/3 6/10/3
f 7/2/4 8/7/4 6/10/4 5/3/4
f 6/11/5 1/12/5 2/4/5 5/3/5
f 7/13/6 4/3/6 3/11/6 8/14/6
f 12/15/6 15/16/6 13/17/6 10/18/6
f 11/19/2 12/20/2 10/21/2 9/22/2
f 16/23/5 11/24/5 9/16/5 14/15/5
f 15/25/4 16/26/4 14/27/4 13/28/4
f 14/29/1 9/30/1 10/7/1 13/31/1
f 15/30/3 12/32/3 11/33/3 16/7/3
f 20/34/7 23/35/7 21/36/7 18/37/7
f 19/20/8 20/38/8 18/39/8 17/40/8
f 24/41/9 19/42/9 17/43/9 22/17/9
f 23/38/10 24/44/10 22/45/10 21/39/10
f 22/46/11 17/47/11 18/24/11 21/23/11
f 23/48/12 20/49/12 19/47/12 24/46/12
f 28/50/13 31/51/13 29/52/13 26/53/13
f 27/24/14 28/54/14 26/55/14 25/41/14
f 32/37/15 27/36/15 25/56/15 30/57/15
f 31/58/16 32/59/16 30/54/16 29/24/16
f 30/60/17 25/61/17 26/34/17 29/62/17
f 31/63/18 28/64/18 27/65/18 32/45/18
f 36/66/19 39/67/19 37/68/19 34/69/19
f 35/70/8 36/71/8 34/72/8 33/73/8
f 40/74/20 35/75/20 33/76/20 38/77/20
f 39/78/10 40/79/10 38/42/10 37/55/10
f 38/80/21 33/81/21 34/79/21 37/78/21
f 39/54/22 36/82/22 35/81/22 40/80/22
f 44/49/23 47/83/23 45/84/23 42/58/23
f 43/85/24 44/86/24 42/87/24 41/88/24
f 48/89/25 43/90/25 41/91/25 46/92/25
f 47/93/26 48/94/26 46/95/26 45/96/26
f 46/97/27 41/98/27 42/99/27 45/100/27
f 47/98/28 44/101/28 43/102/28 48/99/28
f 52/103/6 55/104/6 53/105/6 50/106/6
f 51/107/2 52/108/2 50/109/2 49/110/2
f 56/104/5 51/111/5 49/112/5 54/105/5
f 55/108/4 56/113/4 54/114/4 53/109/4
f 54/115/1 49/116/1 50/117/1 53/118/1
f 55/119/3 52/120/3 51/121/3 56/89/3
f 60/122/29 57/122/29 58/122/29 59/122/29
f 64/123/30 67/124/30 65/125/30 62/126/30
f 63/127/31 64/128/31 62/129/31 61/130/31
f 68/94/32 63/19/32 61/131/32 66/95/32
f 67/132/33 68/133/33 66/134/33 65/117/33
f 66/135/34 61/136/34 62/120/34 65/119/34
f 67/133/35 64/137/35 63/138/35 68/134/35
f 72/139/36 71/140/36 69/141/36 70/142/36
f 76/139/36 75/140/36 73/141/36 74/142/36
f 80/139/37 79/140/37 77/141/37 78/142/37
f 83/139/37 84/140/37 82/141/37 81/142/37
f 88/139/36 87/140/36 85/141/36 86/142/36
f 92/139/38 91/140/38 89/141/38 90/142/38
f 96/139/38 95/140/38 93/141/38 94/142/38
f 100/139/39 99/140/39 97/141/39 98/142/39
f 103/139/39 104/140/39 102/141/39 101/142/39
f 108/139/40 106/142/40 105/141/40 107/140/40
f 112/139/41 110/142/41 109/141/41 111/140/41
f 116/139/42 114/142/42 113/141/42 115/140/42
f 119/122/42 120/122/42 117/122/42 118/122/42
f 124/139/42 121/142/42 122/141/42 123/140/42
f 128/139/43 127/140/43 125/141/43 126/142/43
f 132/139/44 129/142/44 130/141/44 131/140/44
f 136/139/45 135/140/45 134/141/45 133/142/45
f 140/139/40 138/142/40 137/141/40 139/140/40
f 144/139/46 142/142/46 141/141/46 143/140/46
f 148/139/47 147/140/47 145/141/47 146/142/47
f 152/143/1 155/144/1 153/145/1 150/146/1
f 151/147/48 152/148/48 150/149/48 149/76/48
f 156/40/3 151/150/3 149/144/3 154/143/3
f 155/151/49 156/152/49 154/153/49 153/54/49
f 154/154/50 149/155/50 150/156/50 153/157/50
f 155/158/51 152/85/51 151/159/51 156/160/51
f 160/118/52 163/161/52 161/162/52 158/102/52
f 159/163/53 160/164/53 158/165/53 157/166/53
f 164/161/54 159/138/54 157/167/54 162/162/54
f 163/168/55 164/169/55 162/170/55 161/171/55
f 162/86/56 157/172/56 158/173/56 161/174/56
f 163/175/57 160/176/57 159/177/57 164/178/57
f 168/179/55 167/180/55 166/181/55 165/182/55
f 170/183/58 169/184/58 171/185/58 172/186/58
f 176/111/59 173/187/59 174/188/59 175/189/59
f 178/190/60 177/30/60 179/191/60 180/192/60
f 184/32/61 187/193/61 185/194/61 182/195/61
f 183/196/62 184/197/62 182/198/62 181/190/62
f 188/199/63 183/66/63 181/69/63 186/191/63
f 187/197/59 188/200/59 186/192/59 185/198/59
f 186/201/64 181/202/64 182/203/64 185/204/64
f 187/205/65 184/206/65 183/207/65 188/151/65
f 190/203/66 192/208/66 191/180/66 189/209/66
f 196/77/67 199/149/67 197/51/67 194/50/67
f 195/193/68 196/68/68 194/210/68 193/194/68
f 200/211/69 195/212/69 193/213/69 198/214/69
f 199/71/70 200/215/70 198/67/70 197/72/70
f 198/216/71 193/217/71 194/206/71 197/205/71
f 199/59/72 196/218/72 195/217/72 200/216/72
f 201/178/68 202/219/68 203/220/68 204/221/68
f 206/138/73 205/167/73 207/222/73 208/223/73
f 211/182/74 212/224/74 209/225/74 210/181/74
f 216/223/75 219/226/75 217/227/75 214/222/75
f 215/169/76 216/228/76 214/226/76 213/170/76
f 220/187/77 215/229/77 213/230/77 218/231/77
f 219/232/74 220/233/74 218/229/74 217/188/74
f 218/202/78 213/179/78 214/208/78 217/203/78
f 219/224/79 216/234/79 215/98/79 220/97/79
f 224/28/2 223/235/2 221/236/2 222/237/2
f 228/238/1 231/239/1 229/240/1 226/25/1
f 227/241/2 228/242/2 226/243/2 225/227/2
f 232/239/3 227/34/3 225/244/3 230/240/3
f 231/245/4 232/246/4 230/214/4 229/247/4
f 230/248/5 225/249/5 226/250/5 229/107/5
f 231/249/6 228/251/6 227/252/6 232/250/6
f 236/253/80 239/254/80 237/255/80 234/211/80
f 235/256/48 236/257/48 234/258/48 233/179/48
f 240/259/81 235/260/81 233/254/81 238/253/81
f 239/212/49 240/261/49 238/262/49 237/263/49
f 238/264/82 233/265/82 234/260/82 237/259/82
f 239/266/83 236/267/83 235/265/83 240/264/83
f 244/268/84 247/269/84 245/267/84 242/266/84
f 243/257/85 244/270/85 242/182/85 241/258/85
f 248/271/86 243/272/86 241/269/86 246/268/86
f 247/270/87 248/273/87 246/274/87 245/182/87
f 246/246/88 241/275/88 242/272/88 245/271/88
f 247/276/89 244/277/89 243/278/89 248/279/89
f 252/280/80 255/281/80 253/277/80 250/276/80
f 251/273/48 252/282/48 250/224/48 249/274/48
f 256/145/81 251/283/81 249/281/81 254/280/81
f 255/282/49 256/284/49 254/285/49 253/224/49
f 254/286/82 249/287/82 250/283/82 253/145/82
f 255/288/83 252/289/83 251/287/83 256/286/83
f 260/144/90 263/290/90 261/289/90 258/288/90
f 259/284/91 260/291/91 258/292/91 257/285/91
f 264/293/92 259/294/92 257/290/92 262/144/92
f 263/291/93 264/295/93 262/234/93 261/292/93
f 262/296/94 257/297/94 258/294/94 261/293/94
f 263/150/95 260/298/95 259/297/95 264/296/95
f 268/299/75 271/300/75 269/92/75 266/245/75
f 267/301/76 268/302/76 266/303/76 265/199/76
f 272/304/77 267/103/77 265/106/77 270/305/77
f 271/302/74 272/306/74 270/73/74 269/303/74
f 270/251/78 265/307/78 266/113/78 269/252/78
f 271/308/79 268/309/79 267/310/79 272/153/79
f 276/311/1 279/312/1 277/313/1 274/98/1
f 275/312/2 276/314/2 274/315/2 273/313/2
f 280/314/3 275/316/3 273/101/3 278/315/3
f 279/317/4 280/318/4 278/62/4 277/238/4
f 278/319/5 273/320/5 274/90/5 277/121/5
f 279/321/6 276/322/6 275/320/6 280/319/6
f 284/323/75 287/324/75 285/309/75 282/308/75
f 283/116/76 284/325/76 282/326/76 281/132/76
f 288/152/77 283/207/77 281/324/77 286/323/77
f 287/120/74 288/327/74 286/322/74 285/321/74
f 286/328/78 281/329/78 282/330/78 285/201/78
f 287/329/79 284/331/79 283/332/79 288/330/79
f 292/325/1 295/333/1 293/133/1 290/326/1
f 291/334/2 292/335/2 290/327/2 289/120/2
f 296/333/3 291/336/3 289/337/3 294/133/3
f 295/136/4 296/338/4 294/335/4 293/334/4
f 294/336/5 289/339/5 290/137/5 293/337/5
f 295/339/6 292/340/6 291/341/6 296/137/6
f 300/157/6 299/342/6 298/343/6 297/344/6
f 303/345/6 302/346/6 301/347/6 304/348/6
f 306/349/1 308/131/1 307/348/1 305/350/1
f 311/351/4 312/352/4 310/353/4 309/354/4
f 315/355/96 316/356/96 314/357/96 313/358/96
f 319/356/97 317/357/97 318/359/97 320/360/97
f 323/122/98 322/122/98 321/122/98 324/122/98
f 327/122/99 328/122/99 325/122/99 326/122/99
f 331/57/100 330/5/100 329/26/100 332/244/100
f 335/331/101 333/361/101 334/362/101 336/332/101
f 340/361/102 338/256/102 337/179/102 339/362/102
f 344/263/103 343/213/103 341/83/103 342/262/103
f 348/363/104 347/364/104 345/365/104 346/112/104
f 352/231/105 350/366/105 349/31/105 351/365/105
f 354/367/106 353/368/106 355/369/106 356/370/106
f 360/371/107 363/372/107 361/373/107 358/122/107
f 359/372/108 360/374/108 358/126/108 357/373/108
f 364/100/109 359/99/109 357/352/109 362/351/109
f 363/375/110 364/376/110 362/377/110 361/29/110
f 362/378/111 357/379/111 358/380/111 361/381/111
f 363/382/112 360/383/112 359/384/112 364/385/112
f 368/386/113 371/387/113 369/388/113 366/389/113
f 367/390/114 368/391/114 366/392/114 365/127/114
f 372/110/115 367/393/115 365/394/115 370/52/115
f 371/53/116 372/394/116 370/391/116 369/390/116
f 370/358/117 365/359/117 366/366/117 369/230/117
f 371/307/118 368/328/118 367/395/118 372/114/118
f 376/396/119 379/397/119 377/142/119 374/398/119
f 375/381/120 376/399/120 374/400/120 373/401/120
f 380/385/121 375/402/121 373/403/121 378/404/121
f 379/368/122 380/405/122 378/406/122 377/407/122
f 378/408/123 373/409/123 374/410/123 377/411/123
f 379/412/124 376/413/124 375/414/124 380/415/124
f 384/123/125 387/124/125 385/125/125 382/126/125
f 383/127/126 384/128/126 382/129/126 381/130/126
f 388/94/127 383/19/127 381/131/127 386/95/127
f 387/132/128 388/133/128 386/134/128 385/117/128
f 386/135/129 381/136/129 382/120/129 385/119/129
f 387/133/130 384/137/130 383/138/130 388/134/130
f 392/235/131 395/27/131 393/387/131 390/386/131
f 391/416/132 392/135/132 390/300/132 389/299/132
f 396/417/133 391/190/133 389/30/133 394/377/133
f 395/195/134 396/175/134 394/219/134 393/33/134
f 394/137/135 389/418/135 390/419/135 393/138/135
f 395/418/136 392/420/136 391/171/136 396/419/136
f 400/122/137 397/122/137 398/122/137 399/122/137
f 404/122/138 403/122/138 402/122/138 401/122/138
f 408/155/139 407/156/139 406/344/139 405/421/139
f 412/379/140 409/422/140 410/399/140 411/380/140
f 416/383/141 415/384/141 414/402/141 413/423/141
f 420/370/142 419/369/142 417/405/142 418/424/142
f 424/174/143 421/425/143 422/426/143 423/87/143
f 428/427/144 425/428/144 426/429/144 427/430/144
f 432/431/145 431/349/145 429/96/145 430/432/145
f 436/305/146 435/56/146 434/364/146 433/363/146
f 440/122/147 439/122/147 438/122/147 437/122/147
f 442/346/6 444/145/6 443/279/6 441/347/6
f 448/139/148 445/142/148 446/141/148 447/140/148
f 451/122/149 450/122/149 449/122/149 452/122/149
f 456/139/150 455/140/150 453/141/150 454/142/150
f 460/139/149 459/140/149 458/141/149 457/142/149
f 464/139/148 461/142/148 462/141/148 463/140/148
f 467/122/149 466/122/149 465/122/149 468/122/149
f 472/139/148 470/142/148 469/141/148 471/140/148
f 476/139/149 475/140/149 474/141/149 473/142/149
f 480/139/151 479/140/151 478/141/151 477/142/151
f 484/139/152 482/142/152 481/141/152 483/140/152
f 488/139/151 487/140/151 486/141/151 485/142/151
f 491/139/153 492/140/153 489/141/153 490/142/153
f 496/139/151 495/140/151 494/141/151 493/142/151
f 500/139/153 499/140/153 497/141/153 498/142/153
f 504/139/154 501/142/154 502/141/154 503/140/154
f 507/139/153 508/140/153 505/141/153 506/142/153
