# Blender 4.5.14 LTS
# www.blender.org
mtllib lying_3.mtl
o Body
v 0.250000 0.036945 0.319114
v 0.250000 0.286945 0.319114
v 0.250000 0.036945 -0.430886
v 0.250000 0.286945 -0.430886
v -0.250000 0.286945 0.319114
v -0.250000 0.036945 0.319114
v -0.250000 0.286945 -0.430886
v -0.250000 0.036945 -0.430886
v 0.265625 0.021320 0.334739
v 0.265625 0.302570 0.334739
v 0.265625 0.021320 -0.446511
v 0.265625 0.302570 -0.446511
v -0.265625 0.302570 0.334739
v -0.265625 0.021320 0.334739
v -0.265625 0.302570 -0.446511
v -0.265625 0.021320 -0.446511
v 0.444853 0.011203 0.353176
v 0.439440 0.012832 0.290932
v 0.073240 -0.028171 0.384458
v 0.067827 -0.026542 0.322215
v 0.420242 0.199232 0.297480
v 0.425654 0.197603 0.359724
v 0.048629 0.159858 0.328762
v 0.054041 0.158229 0.391006
v 0.178666 0.137271 0.724087
v 0.200124 0.133487 0.475038
v 0.156960 0.014170 0.724087
v 0.178418 0.010386 0.475038
v 0.016175 0.165923 0.458696
v -0.005282 0.169706 0.707745
v -0.005531 0.042822 0.458696
v -0.026989 0.046605 0.707745
v 0.149008 0.175009 0.631992
v 0.212024 0.173376 0.341887
v 0.116810 0.070677 0.625585
v 0.179825 0.069044 0.335480
v 0.037308 0.229646 0.303619
v -0.025707 0.231279 0.593724
v 0.005110 0.125315 0.297212
v -0.057906 0.126947 0.587317
v 0.122653 0.177916 0.656615
v 0.122653 0.177916 0.469115
v 0.122653 -0.072084 0.656615
v 0.122653 -0.072084 0.469115
v -0.002348 0.177916 0.469115
v -0.002348 0.177916 0.656615
v -0.002348 -0.072084 0.469115
v -0.002348 -0.072084 0.656615
v -0.029238 0.090322 0.822387
v -0.075778 0.096275 0.863678
v -0.043577 0.097319 0.805218
v -0.090116 0.103271 0.846509
v 0.003730 0.094153 0.783591
v -0.053079 0.106129 0.806733
v -0.003774 0.099965 0.762162
v -0.060583 0.111940 0.785303
v 0.102595 0.205670 0.518373
v 0.044741 0.208726 0.541823
v 0.094351 0.211635 0.497259
v 0.036498 0.214691 0.520709
v 0.027842 0.237577 0.429472
v 0.038382 0.222547 0.489215
v 0.050712 0.235314 0.424868
v 0.061251 0.220284 0.484611
v 0.117877 0.201231 0.534269
v 0.094251 0.197896 0.592035
v 0.097101 0.208468 0.526189
v 0.073475 0.205133 0.583955
v -0.069030 0.181397 0.549514
v -0.115600 0.171913 0.590104
v -0.084531 0.188288 0.533340
v -0.131100 0.178804 0.573931
v -0.002348 0.177916 0.637865
v -0.002348 0.177916 0.325365
v -0.002348 -0.072084 0.637865
v -0.002348 -0.072084 0.325365
v -0.186723 0.177916 0.325365
v -0.186723 0.177916 0.637865
v -0.186723 -0.072084 0.325365
v -0.186723 -0.072084 0.637865
v -0.030159 0.187778 0.495575
v -0.087417 0.176260 0.517827
v -0.039505 0.195431 0.475490
v -0.096762 0.183913 0.497742
v -0.105459 0.197342 0.406094
v -0.091922 0.175112 0.462917
v -0.082599 0.200121 0.401735
v -0.069062 0.177891 0.458558
v 0.009318 0.117281 0.814469
v 0.018551 0.055508 0.816731
v 0.018474 0.054639 0.793309
v 0.009241 0.116412 0.791047
v 0.182797 0.201117 0.639141
v 0.154332 0.173011 0.687163
v 0.162021 0.208354 0.631061
v 0.133556 0.180248 0.679083
v 0.134940 0.193688 0.487665
v 0.102053 0.193755 0.540812
v 0.116018 0.201032 0.475946
v 0.083130 0.201099 0.529094
v 0.323801 0.198952 0.357990
v 0.265156 0.189800 0.377567
v 0.316171 0.200567 0.335888
v 0.257526 0.191415 0.355465
v 0.396539 0.195932 0.342762
v 0.335252 0.187667 0.351807
v 0.392844 0.198118 0.319721
v 0.331557 0.189854 0.328766
v -0.014216 0.183746 0.510922
v -0.036438 0.166848 0.566841
v -0.036029 0.188216 0.503604
v -0.058250 0.171318 0.559523
v -0.003830 0.202338 -0.010134
v 0.052558 0.224913 0.004596
v 0.059716 0.221417 -0.017446
v 0.003327 0.198842 -0.032176
v 0.031260 0.194944 -0.089250
v 0.084730 0.206387 -0.119518
v 0.092994 0.217611 -0.100676
v 0.039524 0.206169 -0.070407
v 0.159750 0.194757 -0.081040
v 0.159750 0.257257 -0.081040
v 0.200333 0.194757 -0.264096
v 0.200333 0.257257 -0.264096
v -0.197208 0.257257 -0.160176
v -0.197208 0.194757 -0.160176
v -0.156625 0.257257 -0.343231
v -0.156625 0.194757 -0.343231
v 0.231564 0.131259 0.250232
v 0.236990 0.193521 0.249758
v 0.209775 0.131259 0.001184
v 0.215201 0.193521 0.000709
v 0.050915 0.209863 0.266037
v 0.045488 0.147601 0.266512
v 0.029126 0.209863 0.016989
v 0.023699 0.147601 0.017463
v 0.226054 0.318045 -0.000240
v 0.247843 0.318045 0.248808
v 0.236990 0.193521 0.249758
v 0.215201 0.193521 0.000709
v 0.252232 0.317660 0.248386
v 0.226117 0.318040 -0.000246
v 0.068946 0.486555 0.267896
v 0.042830 0.486935 0.019264
v 0.221826 0.201067 -0.001255
v 0.216602 0.325908 -0.004786
v 0.232669 0.323075 -0.128717
v 0.237894 0.198234 -0.125185
v 0.219432 0.324433 -0.004385
v 0.243534 0.320183 -0.190281
v 0.114981 0.391424 -0.019459
v 0.139083 0.387174 -0.205355
v 0.224438 0.138647 0.000511
v 0.221826 0.201067 -0.001255
v 0.240506 0.135814 -0.123420
v 0.237894 0.198234 -0.125185
v 0.036047 0.192617 -0.025148
v 0.038659 0.130196 -0.023382
v 0.052115 0.189783 -0.149079
v 0.054727 0.127363 -0.147313
v -0.062756 0.424919 -0.026996
v -0.086858 0.420669 -0.212892
v -0.219432 0.324433 -0.004385
v -0.243534 0.320183 -0.190281
v -0.038659 0.130196 -0.023382
v -0.036047 0.192617 -0.025148
v -0.054727 0.127363 -0.147313
v -0.052115 0.189783 -0.149079
v -0.221826 0.201067 -0.001255
v -0.224438 0.138647 0.000511
v -0.237894 0.198234 -0.125185
v -0.240506 0.135814 -0.123420
v -0.232669 0.323075 -0.128717
v -0.216602 0.325908 -0.004786
v -0.221826 0.201067 -0.001255
v -0.237894 0.198234 -0.125185
v -0.114767 0.444331 0.263018
v -0.088652 0.444711 0.014386
v -0.252232 0.317660 0.248386
v -0.226117 0.318040 -0.000246
v -0.236990 0.193521 0.249758
v -0.247843 0.318045 0.248808
v -0.226054 0.318045 -0.000240
v -0.215201 0.193521 0.000709
v -0.045488 0.147601 0.266512
v -0.050915 0.209863 0.266037
v -0.023699 0.147601 0.017463
v -0.029126 0.209863 0.016989
v -0.236990 0.193521 0.249758
v -0.231564 0.131259 0.250232
v -0.215201 0.193521 0.000709
v -0.209775 0.131259 0.001184
v -0.243750 0.286945 0.256614
v -0.243750 0.099445 0.256614
v -0.243750 0.286945 -0.305886
v -0.243750 0.099445 -0.305886
v 0.059375 0.101007 0.256614
v 0.059375 0.163507 0.256614
v 0.059375 0.101007 -0.305886
v 0.059375 0.163507 -0.305886
v -0.056250 0.163507 0.256614
v -0.056250 0.101007 0.256614
v -0.056250 0.163507 -0.305886
v -0.056250 0.101007 -0.305886
v 0.158660 0.223533 -0.057369
v 0.162615 0.283302 -0.075209
v 0.171596 0.205259 -0.115722
v 0.175551 0.265028 -0.133562
v -0.194344 0.283302 -0.154345
v -0.198299 0.223532 -0.136505
v -0.181407 0.265028 -0.212697
v -0.185362 0.205259 -0.194857
v 0.181569 0.215053 -0.202214
v 0.185555 0.277267 -0.206667
v 0.181861 0.210572 -0.264552
v 0.185848 0.272786 -0.269005
v -0.179322 0.300404 -0.210043
v -0.183308 0.238190 -0.205589
v -0.179029 0.295923 -0.272381
v -0.183015 0.233709 -0.267928
v 0.158660 0.223532 -0.182369
v 0.162615 0.283302 -0.200209
v 0.171596 0.205259 -0.240722
v 0.175551 0.265028 -0.258562
v -0.194344 0.283302 -0.279345
v -0.198299 0.223532 -0.261505
v -0.181407 0.265028 -0.337698
v -0.185362 0.205259 -0.319857
v 0.162704 0.208719 -0.119557
v 0.168381 0.269369 -0.133544
v 0.173063 0.193950 -0.179397
v 0.178740 0.254600 -0.193384
v -0.190655 0.287603 -0.200194
v -0.196332 0.226953 -0.186208
v -0.180297 0.272834 -0.260034
v -0.185973 0.212184 -0.246048
v -0.029982 0.211462 0.267869
v -0.035408 0.273725 0.267394
v -0.008193 0.211462 0.018820
v -0.013619 0.273724 0.018345
v -0.174965 0.261468 0.255184
v -0.169539 0.199206 0.255659
v -0.153176 0.261468 0.006136
v -0.147750 0.199206 0.006610
v 0.034375 0.199445 0.381614
v 0.034375 0.261945 0.381614
v 0.034375 0.199445 0.194114
v 0.034375 0.261945 0.194114
v -0.028125 0.261945 0.381614
v -0.028125 0.199445 0.381614
v -0.028125 0.261945 0.194114
v -0.028125 0.199445 0.194114
v -0.054712 0.207377 0.014750
v -0.060138 0.269639 0.014275
v -0.050626 0.207377 -0.031947
v -0.056053 0.269639 -0.032421
v -0.153176 0.261468 0.006136
v -0.147750 0.199206 0.006610
v -0.149091 0.261468 -0.040561
v -0.143664 0.199206 -0.040086
v 0.050000 0.199445 0.256614
v 0.050000 0.261945 0.256614
v 0.050000 0.199445 0.194114
v 0.050000 0.261945 0.194114
v 0.034375 0.261945 0.256614
v 0.034375 0.199445 0.256614
v 0.034375 0.261945 0.194114
v 0.034375 0.199445 0.194114
v 0.246875 0.099445 -0.305886
v 0.246875 0.286945 -0.305886
v -0.243750 0.286945 -0.305886
v -0.243750 0.099445 -0.305886
v 0.246875 0.099445 0.256614
v 0.246875 0.286945 0.256614
v -0.243750 0.286945 0.256614
v -0.243750 0.099445 0.256614
v 0.246875 0.099445 0.256614
v 0.246875 0.099445 -0.305886
v -0.243750 0.099445 0.256614
v -0.243750 0.099445 -0.305886
v 0.246875 0.286945 0.256614
v 0.246875 0.099445 0.256614
v 0.246875 0.286945 -0.305886
v 0.246875 0.099445 -0.305886
v 0.383995 0.011301 0.356974
v 0.367662 0.012594 0.330363
v 0.264352 0.016765 0.430670
v 0.248019 0.018058 0.404059
v 0.347153 0.012437 0.416339
v 0.330820 0.013730 0.389728
v 0.240803 0.017294 0.481847
v 0.224471 0.018586 0.455236
v 0.392161 0.010655 0.370280
v 0.367662 0.012593 0.330364
v 0.425204 0.137529 0.301115
v 0.449703 0.135590 0.341031
v 0.401910 0.020272 0.385699
v 0.380113 0.026897 0.344732
v 0.411045 0.082499 0.337267
v 0.432841 0.075874 0.378234
v 0.409305 0.078548 0.333733
v 0.432920 0.077419 0.374209
v 0.445077 0.107246 0.367950
v 0.421462 0.108376 0.327473
v 0.445382 0.124644 0.365756
v 0.423357 0.102775 0.330629
v 0.440402 0.153486 0.350923
v 0.418378 0.131617 0.315795
v -0.415031 0.219149 0.327218
v -0.403804 0.197462 0.269686
v -0.059733 0.147627 0.423512
v -0.048506 0.125940 0.365980
v -0.453429 0.025286 0.324905
v -0.464656 0.046973 0.382437
v -0.098131 -0.046236 0.421199
v -0.109357 -0.024549 0.478731
v -0.301074 0.029080 0.730315
v -0.361659 0.081422 0.428245
v 0.005265 0.027440 0.668590
v -0.055320 0.079782 0.366521
v -0.365713 -0.023325 0.410908
v -0.305129 -0.075668 0.712978
v -0.059374 -0.024965 0.349183
v 0.001211 -0.077308 0.651253
v -0.052391 0.126779 0.892842
v -0.043761 0.221123 0.661488
v 0.109325 0.036958 0.862247
v 0.117956 0.131302 0.630893
v -0.169985 0.022991 0.575983
v -0.178615 -0.071353 0.807337
v -0.008268 -0.066830 0.545388
v -0.016899 -0.161174 0.776742
v -0.266261 0.175007 0.794352
v -0.300229 0.172517 0.661137
v -0.085162 0.159053 0.748472
v -0.119130 0.156563 0.615257
v -0.309980 0.047991 0.665951
v -0.276012 0.050481 0.799166
v -0.128881 0.032037 0.620071
v -0.094913 0.034527 0.753286
v -0.434323 0.121003 0.402228
v -0.424116 0.107032 0.376205
v -0.343398 0.021791 0.453626
v -0.353606 0.035762 0.479649
v -0.408656 0.097088 0.462660
v -0.398449 0.083118 0.436637
v -0.326700 0.007348 0.505456
v -0.336907 0.021319 0.531479
v -0.372682 0.240848 0.362067
v -0.357371 0.219892 0.323033
v -0.418960 0.100030 0.363222
v -0.434271 0.120985 0.402257
v -0.407911 0.193605 0.404038
v -0.390624 0.177577 0.363523
v -0.414932 0.119648 0.376069
v -0.432219 0.135677 0.416584
v -0.391176 0.221751 0.391096
v -0.377066 0.200952 0.351529
v -0.392772 0.173524 0.360346
v -0.406882 0.194323 0.399913
v -0.357300 0.211965 0.338337
v -0.352543 0.245263 0.370985
v -0.382530 0.199227 0.355006
v -0.377773 0.232525 0.387653
v -0.322988 0.215090 0.613410
v -0.324258 0.229410 0.568793
v -0.347921 0.207578 0.562460
v -0.346651 0.193258 0.607076
v -0.342106 0.193298 0.616152
v -0.349226 0.201984 0.570642
v -0.363719 0.172733 0.567326
v -0.356598 0.164047 0.612836
v -0.366643 0.166217 0.565274
v -0.354994 0.169740 0.610541
v -0.384162 0.105294 0.574524
v -0.372513 0.108817 0.619791
v -0.323398 0.220708 0.606615
v -0.150170 0.148955 0.606615
v -0.395749 0.046037 0.606615
v -0.222521 -0.025716 0.606615
v 0.085959 0.290955 -0.091807
v 0.098567 0.281371 -0.152267
v 0.075948 0.284591 -0.157495
v 0.063340 0.294175 -0.097035
v 0.027507 0.284556 -0.132207
v 0.080314 0.280351 -0.165373
v 0.067833 0.280044 -0.185208
v 0.015025 0.284250 -0.152043
v 0.108104 0.263615 -0.198243
v 0.085214 0.274545 -0.141122
v 0.086650 0.266162 -0.207328
v 0.063759 0.277092 -0.150207
v -0.012211 0.282341 -0.242472
v 0.010385 0.283946 -0.184222
v 0.032206 0.282456 -0.192646
v 0.009609 0.280851 -0.250896
v -0.076541 0.284705 0.158193
v -0.063933 0.275121 0.097733
v -0.086552 0.278341 0.092505
v -0.099160 0.287925 0.152965
v -0.134993 0.278306 0.117793
v -0.082186 0.274101 0.084627
v -0.094667 0.273794 0.064792
v -0.147475 0.278000 0.097957
v -0.054396 0.257365 0.051757
v -0.077286 0.268295 0.108878
v -0.075850 0.259912 0.042672
v -0.098741 0.270842 0.099793
v -0.174711 0.276091 0.007528
v -0.152115 0.277696 0.065777
v -0.130294 0.276206 0.057354
v -0.152891 0.274601 -0.000896
v 0.069541 0.197243 0.118064
v 0.128387 0.217857 0.122364
v 0.131763 0.212944 0.099697
v 0.072917 0.192331 0.095398
v 0.140695 0.214324 0.103871
v 0.108860 0.182758 0.060324
v 0.158801 0.216395 0.089134
v 0.126966 0.184829 0.045587
v 0.121170 0.202338 0.114866
v 0.177558 0.224913 0.129596
v 0.184716 0.221417 0.107554
v 0.128327 0.198842 0.092824
v 0.156260 0.194944 0.035750
v 0.209730 0.206387 0.005482
v 0.217994 0.217611 0.024324
v 0.164524 0.206169 0.054593
v -0.055459 0.197243 -0.006936
v 0.003387 0.217856 -0.002636
v 0.006763 0.212944 -0.025303
v -0.052083 0.192331 -0.029602
v 0.015695 0.214324 -0.021129
v -0.016140 0.182758 -0.064676
v 0.033801 0.216395 -0.035866
v 0.001966 0.184829 -0.079413
v 0.065127 0.111368 -0.483412
v -0.027766 0.343117 -0.470634
v -0.168803 0.056773 -1.193902
v -0.261696 0.288522 -1.181125
v -0.246377 0.251132 -0.391588
v -0.153483 0.019383 -0.404366
v -0.480307 0.196537 -1.102079
v -0.387413 -0.035212 -1.114856
v 0.357459 -0.008619 0.284915
v 0.540216 0.160494 0.307288
v 0.550418 -0.122451 -0.430843
v 0.733175 0.046662 -0.408470
v 0.382220 0.340663 0.236041
v 0.199463 0.171550 0.213667
v 0.575178 0.226831 -0.479717
v 0.392421 0.057718 -0.502090
vn -0.0000 1.0000 -0.0000
vn 1.0000 -0.0000 -0.0000
vn -0.0000 -1.0000 -0.0000
vn -1.0000 -0.0000 -0.0000
vn -0.0000 -0.0000 1.0000
vn -0.0000 -0.0000 -1.0000
vn -0.0866 0.0261 -0.9959
vn 0.1024 -0.9941 -0.0349
vn 0.0866 -0.0261 0.9959
vn -0.1024 0.9941 0.0349
vn 0.9910 0.1050 -0.0834
vn -0.9910 -0.1050 0.0834
vn 0.0858 -0.0151 -0.9962
vn 0.9811 -0.1730 0.0872
vn -0.0858 0.0151 0.9962
vn -0.9811 0.1730 -0.0872
vn 0.1736 0.9848 -0.0000
vn -0.1736 -0.9848 -0.0000
vn 0.2123 -0.0055 -0.9772
vn 0.9318 -0.3001 0.2041
vn -0.2123 0.0055 0.9772
vn -0.9318 0.3001 -0.2041
vn 0.2944 0.9539 0.0586
vn -0.2944 -0.9539 -0.0586
vn 0.2670 0.9496 0.1640
vn 0.1395 0.9658 0.2184
vn 0.0862 0.9437 0.3194
vn -0.0417 0.9271 0.3726
vn -0.9890 -0.1475 0.0087
vn 0.0822 0.8381 0.5393
vn -0.1165 0.9868 0.1123
vn -0.3046 0.9205 -0.2448
vn -0.3791 0.8586 -0.3452
vn 0.9763 -0.0000 0.2164
vn -0.9763 -0.0000 -0.2164
vn -0.2164 -0.0000 0.9763
vn 0.2164 -0.0000 -0.9763
vn 0.0868 0.9962 -0.0076
vn 0.9924 -0.0872 -0.0868
vn -0.0868 -0.9962 0.0076
vn -0.9924 0.0872 0.0868
vn 0.0872 -0.0000 0.9962
vn -0.0872 -0.0000 -0.9962
vn 0.6720 0.7373 -0.0695
vn 0.9908 0.0451 0.1274
vn 0.5341 0.8440 0.0500
vn -0.0418 0.9987 -0.0283
vn 0.0418 -0.9987 0.0283
vn -0.9908 -0.0451 -0.1274
vn -0.1285 0.0227 0.9914
vn 0.1285 -0.0227 -0.9914
vn -0.5341 0.8440 0.0500
vn 0.0418 0.9987 -0.0283
vn 0.9908 -0.0451 -0.1274
vn -0.0418 -0.9987 0.0283
vn -0.9908 0.0451 0.1274
vn 0.1285 0.0227 0.9914
vn -0.1285 -0.0227 -0.9914
vn -0.6720 0.7373 -0.0695
vn -0.9924 -0.0872 -0.0868
vn -0.0868 0.9962 -0.0076
vn 0.9924 0.0872 0.0868
vn 0.0868 -0.9962 0.0076
vn -0.0872 -0.0000 0.9962
vn 0.0872 -0.0000 -0.9962
vn 0.0633 0.9563 -0.2854
vn -0.0633 -0.9563 0.2854
vn -0.2070 0.2924 0.9336
vn 0.2070 -0.2924 -0.9336
vn 0.0638 0.9954 -0.0712
vn 0.9980 -0.0633 0.0092
vn -0.0638 -0.9954 0.0712
vn -0.9980 0.0633 -0.0092
vn -0.0047 0.0717 0.9974
vn 0.0047 -0.0717 -0.9974
vn 0.0908 0.9704 -0.2238
vn 0.9820 -0.0499 0.1823
vn -0.0908 -0.9704 0.2238
vn -0.9820 0.0499 -0.1823
vn -0.1657 0.2363 0.9574
vn 0.1657 -0.2363 -0.9574
vn -0.0548 -0.9984 -0.0149
vn -0.7479 0.4572 0.4813
vn -0.7421 0.4762 0.4718
vn 0.7804 -0.4160 -0.4669
vn 0.8696 -0.0987 -0.4838
vn 0.1796 -0.3470 -0.9205
vn 0.2647 0.9183 -0.2945
vn -0.1796 0.3470 0.9205
vn -0.2647 -0.9183 0.2945
vn -0.9475 0.1907 -0.2568
vn 0.9475 -0.1907 0.2568
vn -0.1939 0.1675 -0.9666
vn 0.0382 0.9859 0.1632
vn 0.1939 -0.1675 0.9666
vn -0.0382 -0.9859 -0.1632
vn -0.9803 0.0052 0.1975
vn 0.9803 -0.0052 -0.1975
vn 0.0345 0.3774 -0.9254
vn 0.5049 0.7925 0.3420
vn -0.0345 -0.3774 0.9254
vn -0.5049 -0.7925 -0.3420
vn -0.8625 0.4790 0.1632
vn 0.8625 -0.4790 -0.1632
vn -0.2470 -0.0181 -0.9688
vn 0.0780 0.9962 -0.0385
vn 0.2470 0.0181 0.9688
vn -0.0780 -0.9962 0.0385
vn -0.9659 0.0851 0.2447
vn 0.9659 -0.0851 -0.2447
vn 0.7509 0.6578 -0.0586
vn -0.8376 0.2714 -0.4742
vn -0.8485 0.2557 -0.4632
vn -0.8248 0.3231 -0.4640
vn -0.6312 0.5871 -0.5068
vn -0.6922 0.6812 0.2383
vn -0.8842 0.4135 0.2173
vn -0.9292 0.3000 0.2158
vn 0.1671 0.9786 -0.1203
vn -0.0500 -0.9976 0.0469
vn 0.0500 0.9976 -0.0469
vn -0.3716 0.9270 0.0511
vn 0.8744 0.3679 -0.3162
vn 0.3716 -0.9270 -0.0511
vn -0.8744 -0.3679 0.3162
vn 0.3119 0.0728 0.9473
vn -0.3119 -0.0728 -0.9473
vn 0.7310 0.6765 0.0895
vn 0.6320 -0.7207 0.2850
vn -0.7310 -0.6765 -0.0895
vn -0.6320 0.7207 -0.2850
vn -0.2573 0.1518 0.9543
vn 0.2573 -0.1518 -0.9543
vt 0.382812 0.539062
vt 0.445312 0.539062
vt 0.445312 0.632812
vt 0.382812 0.632812
vt 0.351562 0.539062
vt 0.351562 0.632812
vt 0.476562 0.539062
vt 0.539062 0.539062
vt 0.539062 0.632812
vt 0.476562 0.632812
vt 0.445312 0.664062
vt 0.382812 0.664062
vt 0.507812 0.632812
vt 0.507812 0.664062
vt 0.031250 0.875000
vt 0.093750 0.875000
vt 0.093750 0.968750
vt 0.031250 0.968750
vt 0.000000 0.875000
vt 0.000000 0.968750
vt 0.125000 0.875000
vt 0.187500 0.875000
vt 0.187500 0.968750
vt 0.125000 0.968750
vt 0.093750 1.000000
vt 0.031250 1.000000
vt 0.156250 0.968750
vt 0.156250 1.000000
vt 0.000000 0.492188
vt 0.023438 0.492188
vt 0.023438 0.539062
vt 0.000000 0.539062
vt 0.515625 0.937500
vt 0.523438 0.937500
vt 0.523438 0.984375
vt 0.515625 0.984375
vt 0.343750 0.492188
vt 0.367188 0.492188
vt 0.367188 0.539062
vt 0.343750 0.539062
vt 0.515625 0.890625
vt 0.523438 0.890625
vt 0.320312 0.468750
vt 0.343750 0.468750
vt 0.343750 0.476562
vt 0.320312 0.476562
vt 0.523438 0.671875
vt 0.546875 0.671875
vt 0.546875 0.679688
vt 0.523438 0.679688
vt 0.367188 0.476562
vt 0.460938 0.664062
vt 0.492188 0.664062
vt 0.492188 0.679688
vt 0.460938 0.679688
vt 0.539062 0.984375
vt 0.539062 1.000000
vt 0.515625 1.000000
vt 0.523438 0.664062
vt 0.492188 0.906250
vt 0.515625 0.906250
vt 0.492188 0.937500
vt 0.492188 0.875000
vt 0.515625 0.875000
vt 0.539062 0.875000
vt 0.539062 0.890625
vt 0.085938 0.625000
vt 0.125000 0.625000
vt 0.125000 0.640625
vt 0.085938 0.640625
vt 0.515625 0.789062
vt 0.539062 0.789062
vt 0.539062 0.804688
vt 0.515625 0.804688
vt 0.367188 0.664062
vt 0.406250 0.664062
vt 0.406250 0.679688
vt 0.367188 0.679688
vt 0.164062 0.476562
vt 0.187500 0.476562
vt 0.187500 0.515625
vt 0.164062 0.515625
vt 0.210938 0.476562
vt 0.210938 0.515625
vt 0.382812 0.468750
vt 0.398438 0.468750
vt 0.398438 0.500000
vt 0.382812 0.500000
vt 0.023438 0.468750
vt 0.046875 0.468750
vt 0.046875 0.500000
vt 0.023438 0.500000
vt 0.414062 0.468750
vt 0.414062 0.500000
vt 0.070312 0.468750
vt 0.070312 0.500000
vt 0.210938 0.460938
vt 0.226562 0.460938
vt 0.226562 0.484375
vt 0.210938 0.484375
vt 0.515625 0.765625
vt 0.531250 0.765625
vt 0.531250 0.789062
vt 0.039062 0.953125
vt 0.046875 0.953125
vt 0.046875 0.960938
vt 0.039062 0.960938
vt 0.492188 0.968750
vt 0.515625 0.968750
vt 0.492188 1.000000
vt 0.421875 0.664062
vt 0.460938 0.695312
vt 0.421875 0.695312
vt 0.312500 0.546875
vt 0.351562 0.546875
vt 0.351562 0.578125
vt 0.312500 0.578125
vt 0.453125 0.500000
vt 0.476562 0.500000
vt 0.453125 0.539062
vt 0.500000 0.500000
vt 0.500000 0.539062
vt 0.000000 1.000000
vt 0.460938 0.703125
vt 0.507812 0.703125
vt 0.507812 0.726562
vt 0.460938 0.726562
vt 0.015625 0.453125
vt 0.023438 0.453125
vt 0.023438 0.476562
vt 0.015625 0.476562
vt 0.507812 0.679688
vt 0.523438 0.914062
vt 0.531250 0.914062
vt 0.531250 0.937500
vt 0.093750 0.804688
vt 0.140625 0.804688
vt 0.140625 0.812500
vt 0.093750 0.812500
vt 0.039062 0.625000
vt 0.085938 0.632812
vt 0.039062 0.632812
vt 0.234375 0.484375
vt 0.234375 0.515625
vt 0.367188 0.843750
vt 0.375000 0.843750
vt 0.375000 0.875000
vt 0.367188 0.875000
vt 0.257812 0.484375
vt 0.257812 0.515625
vt 0.289062 0.453125
vt 0.296875 0.453125
vt 0.296875 0.484375
vt 0.289062 0.484375
vt 0.148438 0.625000
vt 0.148438 0.632812
vt 0.125000 0.632812
vt 0.515625 0.515625
vt 0.539062 0.515625
vt 0.539062 0.523438
vt 0.515625 0.523438
vt 0.132812 0.468750
vt 0.148438 0.468750
vt 0.148438 0.500000
vt 0.132812 0.500000
vt 0.203125 0.968750
vt 0.234375 0.968750
vt 0.234375 1.000000
vt 0.203125 1.000000
vt 0.429688 0.468750
vt 0.429688 0.484375
vt 0.414062 0.484375
vt 0.476562 0.476562
vt 0.492188 0.476562
vt 0.492188 0.500000
vt 0.523438 0.500000
vt 0.523438 0.515625
vt 0.500000 0.515625
vt 0.476562 0.460938
vt 0.484375 0.460938
vt 0.484375 0.476562
vt 0.492188 0.484375
vt 0.515625 0.484375
vt 0.515625 0.500000
vt 0.492188 0.460938
vt 0.085938 0.468750
vt 0.109375 0.468750
vt 0.109375 0.476562
vt 0.085938 0.476562
vt 0.523438 0.906250
vt 0.546875 0.906250
vt 0.546875 0.914062
vt 0.132812 0.476562
vt 0.109375 0.500000
vt 0.000000 0.476562
vt 0.531250 0.500000
vt 0.531250 0.515625
vt 0.507812 0.859375
vt 0.531250 0.859375
vt 0.531250 0.875000
vt 0.507812 0.875000
vt 0.523438 0.468750
vt 0.531250 0.468750
vt 0.531250 0.484375
vt 0.523438 0.484375
vt 0.523438 0.898438
vt 0.546875 0.898438
vt 0.546875 0.890625
vt 0.531250 0.523438
vt 0.531250 0.539062
vt 0.515625 0.539062
vt 0.281250 0.484375
vt 0.281250 0.515625
vt 0.164062 0.468750
vt 0.164062 0.500000
vt 0.304688 0.484375
vt 0.304688 0.515625
vt 0.304688 0.453125
vt 0.437500 0.484375
vt 0.437500 0.515625
vt 0.414062 0.515625
vt 0.429688 0.453125
vt 0.437500 0.453125
vt 0.187500 0.468750
vt 0.335938 0.578125
vt 0.335938 0.648438
vt 0.312500 0.648438
vt 0.312500 0.476562
vt 0.328125 0.476562
vt 0.328125 0.546875
vt 0.304688 0.445312
vt 0.312500 0.445312
vt 0.312500 0.515625
vt 0.343750 0.546875
vt 0.500000 0.804688
vt 0.507812 0.804688
vt 0.500000 0.875000
vt 0.023438 0.460938
vt 0.039062 0.460938
vt 0.039062 0.468750
vt 0.054688 0.460938
vt 0.054688 0.468750
vt 0.507812 0.851562
vt 0.554688 0.851562
vt 0.554688 0.859375
vt 0.132812 0.460938
vt 0.140625 0.460938
vt 0.140625 0.468750
vt 0.507812 0.843750
vt 0.554688 0.843750
vt 0.539062 0.859375
vt 0.539062 0.867188
vt 0.531250 0.867188
vt 0.507812 0.835938
vt 0.554688 0.835938
vt 0.507812 0.828125
vt 0.554688 0.828125
vt 0.507812 0.820312
vt 0.554688 0.820312
vt 0.148438 0.460938
vt 0.507812 0.812500
vt 0.554688 0.812500
vt 0.156250 0.460938
vt 0.156250 0.468750
vt 0.554688 0.804688
vt 0.507812 0.742188
vt 0.554688 0.742188
vt 0.554688 0.750000
vt 0.507812 0.750000
vt 0.507812 0.734375
vt 0.554688 0.734375
vt 0.164062 0.460938
vt 0.554688 0.726562
vt 0.171875 0.460938
vt 0.171875 0.468750
vt 0.507812 0.718750
vt 0.554688 0.718750
vt 0.507812 0.710938
vt 0.554688 0.710938
vt 0.554688 0.703125
vt 0.179688 0.460938
vt 0.179688 0.468750
vt 0.507812 0.695312
vt 0.554688 0.695312
vt 0.187500 0.460938
vt 0.507812 0.687500
vt 0.554688 0.687500
vt 0.554688 0.679688
vt 0.500000 0.773438
vt 0.515625 0.773438
vt 0.492188 0.453125
vt 0.500000 0.453125
vt 0.500000 0.484375
vt 0.367188 0.468750
vt 0.367188 0.500000
vt 0.507812 0.453125
vt 0.507812 0.484375
vt 0.070312 0.460938
vt 0.531250 0.929688
vt 0.546875 0.929688
vt 0.546875 0.937500
vt 0.187500 0.453125
vt 0.195312 0.453125
vt 0.195312 0.476562
vt 0.203125 0.453125
vt 0.203125 0.476562
vt 0.210938 0.453125
vt 0.312500 0.453125
vt 0.320312 0.453125
vt 0.531250 0.781250
vt 0.539062 0.781250
vt 0.531250 0.773438
vt 0.539062 0.773438
vt 0.531250 0.921875
vt 0.546875 0.921875
vt 0.234375 0.460938
vt 0.234375 0.468750
vt 0.226562 0.468750
vt 0.539062 0.765625
vt 0.085938 0.460938
vt 0.101562 0.460938
vt 0.101562 0.468750
vt 0.117188 0.460938
vt 0.117188 0.468750
vt 0.242188 0.460938
vt 0.242188 0.468750
vt 0.531250 0.757812
vt 0.539062 0.757812
vt 0.250000 0.460938
vt 0.250000 0.468750
vt 0.531250 0.750000
vt 0.539062 0.750000
vt 0.257812 0.460938
vt 0.257812 0.468750
vt 0.265625 0.460938
vt 0.265625 0.468750
vt 0.156250 0.812500
vt 0.156250 0.835938
vt 0.093750 0.835938
vt 0.421875 0.726562
vt 0.484375 0.726562
vt 0.484375 0.750000
vt 0.421875 0.750000
vt 0.359375 0.679688
vt 0.421875 0.679688
vt 0.359375 0.750000
vt 0.164062 0.562500
vt 0.187500 0.562500
vt 0.187500 0.632812
vt 0.164062 0.632812
vt 0.437500 0.460938
vt 0.445312 0.460938
vt 0.445312 0.476562
vt 0.437500 0.476562
vt 0.453125 0.460938
vt 0.453125 0.476562
vt 0.125000 0.460938
vt 0.125000 0.468750
vt 0.000000 0.953125
vt 0.023438 0.953125
vt 0.023438 1.000000
vt 0.031250 0.953125
vt 0.453125 0.453125
vt 0.460938 0.453125
vt 0.460938 0.500000
vt 0.218750 0.804688
vt 0.242188 0.804688
vt 0.242188 0.812500
vt 0.218750 0.812500
vt 0.250000 0.843750
vt 0.273438 0.843750
vt 0.273438 0.851562
vt 0.250000 0.851562
vt 0.335938 0.601562
vt 0.351562 0.601562
vt 0.351562 0.640625
vt 0.335938 0.640625
vt 0.000000 0.578125
vt 0.039062 0.578125
vt 0.039062 0.617188
vt 0.000000 0.617188
vt 0.039062 0.500000
vt 0.039062 0.539062
vt 0.453125 0.515625
vt 0.085938 0.500000
vt 0.015625 0.929688
vt 0.046875 0.929688
vt 0.015625 0.953125
vt 0.250000 0.812500
vt 0.250000 0.835938
vt 0.218750 0.835938
vt 0.281250 0.851562
vt 0.281250 0.875000
vt 0.250000 0.875000
vt 0.296875 0.976562
vt 0.328125 0.976562
vt 0.328125 1.000000
vt 0.296875 1.000000
vt 0.000000 0.804688
vt 0.031250 0.804688
vt 0.031250 0.835938
vt 0.000000 0.835938
vt 0.171875 0.929688
vt 0.203125 0.929688
vt 0.203125 0.960938
vt 0.171875 0.960938
vt 0.500000 0.750000
vt 0.515625 0.750000
vt 0.460938 0.476562
vt 0.273438 0.468750
vt 0.273438 0.484375
vt 0.289062 0.468750
vt 0.156250 0.804688
vt 0.250000 0.804688
vt 0.281250 0.843750
vt 0.320312 0.968750
vt 0.328125 0.968750
vt 0.320312 0.976562
vt 0.132812 0.632812
vt 0.132812 0.640625
vt 0.171875 0.632812
vt 0.179688 0.632812
vt 0.179688 0.640625
vt 0.171875 0.640625
vt 0.359375 0.671875
vt 0.367188 0.671875
vt 0.406250 0.750000
vt 0.437500 0.750000
vt 0.437500 0.843750
vt 0.406250 0.843750
vt 0.375000 0.750000
vt 0.468750 0.750000
vt 0.500000 0.843750
vt 0.468750 0.843750
vt 0.437500 0.875000
vt 0.406250 0.875000
vt 0.468750 0.875000
vt 0.218750 0.515625
vt 0.250000 0.515625
vt 0.250000 0.609375
vt 0.218750 0.609375
vt 0.187500 0.609375
vt 0.312500 0.609375
vt 0.281250 0.609375
vt 0.250000 0.640625
vt 0.218750 0.640625
vt 0.281250 0.640625
s 1
usemtl m_0e5101a4-f8b5-16c1-4082-e6d95e8df925
f 4/1/1 7/2/1 5/3/1 2/4/1
f 3/5/2 4/1/2 2/4/2 1/6/2
f 8/7/3 3/8/3 1/9/3 6/10/3
f 7/2/4 8/7/4 6/10/4 5/3/4
f 6/11/5 1/12/5 2/4/5 5/3/5
f 7/13/6 4/3/6 3/11/6 8/14/6
f 12/15/1 15/16/1 13/17/1 10/18/1
f 11/19/2 12/15/2 10/18/2 9/20/2
f 16/21/3 11/22/3 9/23/3 14/24/3
f 15/16/4 16/21/4 14/24/4 13/17/4
f 14/25/5 9/26/5 10/18/5 13/17/5
f 15/27/6 12/17/6 11/25/6 16/28/6
f 20/29/7 23/30/7 21/31/7 18/32/7
f 19/33/8 20/34/8 18/35/8 17/36/8
f 24/37/9 19/38/9 17/39/9 22/40/9
f 23/41/10 24/42/10 22/34/10 21/33/10
f 22/43/11 17/44/11 18/45/11 21/46/11
f 23/47/12 20/48/12 19/49/12 24/50/12
f 28/45/13 31/51/13 29/38/13 26/37/13
f 27/52/14 28/53/14 26/54/14 25/55/14
f 32/36/15 27/56/15 25/57/15 30/58/15
f 31/53/16 32/59/16 30/50/16 29/54/16
f 30/60/17 25/61/17 26/33/17 29/62/17
f 31/63/18 28/64/18 27/61/18 32/60/18
f 36/64/19 39/65/19 37/66/19 34/41/19
f 35/67/20 36/68/20 34/69/20 33/70/20
f 40/71/21 35/72/21 33/73/21 38/74/21
f 39/75/22 40/76/22 38/77/22 37/78/22
f 38/79/23 33/80/23 34/81/23 37/82/23
f 39/80/24 36/83/24 35/84/24 40/81/24
f 44/85/6 47/86/6 45/87/6 42/88/6
f 43/89/2 44/90/2 42/91/2 41/92/2
f 48/86/5 43/93/5 41/94/5 46/87/5
f 47/90/4 48/95/4 46/96/4 45/91/4
f 46/97/1 41/98/1 42/99/1 45/100/1
f 47/101/3 44/102/3 43/103/3 48/71/3
f 52/104/25 50/105/25 49/106/25 51/107/25
f 56/104/25 54/105/25 53/106/25 55/107/25
f 60/104/26 58/105/26 57/106/26 59/107/26
f 63/104/26 61/105/26 62/106/26 64/107/26
f 68/104/25 66/105/25 65/106/25 67/107/25
f 72/104/27 70/105/27 69/106/27 71/107/27
f 76/108/6 79/109/6 77/58/6 74/110/6
f 75/111/2 76/52/2 74/112/2 73/113/2
f 80/62/5 75/33/5 73/109/5 78/108/5
f 79/114/4 80/115/4 78/116/4 77/117/4
f 78/118/1 73/119/1 74/7/1 77/120/1
f 79/119/3 76/121/3 75/122/3 80/7/3
f 84/104/28 82/105/28 81/106/28 83/107/28
f 87/104/28 85/105/28 86/106/28 88/107/28
f 91/123/29 90/123/29 89/123/29 92/123/29
f 96/104/30 94/105/30 93/106/30 95/107/30
f 100/104/25 98/105/25 97/106/25 99/107/25
f 104/104/31 102/105/31 101/106/31 103/107/31
f 108/104/31 106/105/31 105/106/31 107/107/31
f 112/104/27 110/105/27 109/106/27 111/107/27
f 116/104/32 113/105/32 114/106/32 115/107/32
f 119/104/33 118/105/33 117/106/33 120/107/33
f 124/124/1 127/125/1 125/126/1 122/127/1
f 123/128/34 124/129/34 122/130/34 121/131/34
f 128/55/3 123/132/3 121/125/3 126/124/3
f 127/133/35 128/134/35 126/135/35 125/34/35
f 126/136/36 121/137/36 122/138/36 125/139/36
f 127/140/37 124/67/37 123/141/37 128/142/37
f 132/100/38 135/143/38 133/144/38 130/84/38
f 131/145/39 132/146/39 130/147/39 129/148/39
f 136/143/40 131/149/40 129/150/40 134/144/40
f 135/151/41 136/152/41 134/153/41 133/154/41
f 134/68/42 129/155/42 130/156/42 133/157/42
f 135/158/43 132/159/43 131/160/43 136/161/43
f 140/162/39 137/163/39 138/164/39 139/165/39
f 142/166/44 144/167/44 143/168/44 141/169/44
f 148/93/45 147/170/45 146/171/45 145/172/45
f 150/173/46 152/174/46 151/175/46 149/119/46
f 156/121/47 159/176/47 157/177/47 154/178/47
f 155/179/45 156/180/45 154/181/45 153/173/45
f 160/182/48 155/183/48 153/184/48 158/175/48
f 159/180/49 160/185/49 158/174/49 157/181/49
f 158/186/50 153/187/50 154/188/50 157/189/50
f 159/190/51 156/191/51 155/192/51 160/133/51
f 162/188/52 164/193/52 163/165/52 161/194/52
f 168/195/53 171/130/53 169/30/53 166/29/53
f 167/176/54 168/196/54 166/197/54 165/177/54
f 172/198/55 167/199/55 165/200/55 170/201/55
f 171/202/56 172/203/56 170/204/56 169/205/56
f 170/206/57 165/207/57 166/191/57 169/190/57
f 171/42/58 168/208/58 167/207/58 172/206/58
f 173/161/56 176/209/56 175/210/56 174/211/56
f 178/149/59 180/212/59 179/213/59 177/150/59
f 183/163/60 184/214/60 181/215/60 182/164/60
f 188/212/61 191/216/61 189/217/61 186/213/61
f 187/152/62 188/218/62 186/216/62 185/153/62
f 192/172/63 187/219/63 185/220/63 190/221/63
f 191/222/60 192/223/60 190/219/60 189/171/60
f 190/187/64 185/162/64 186/193/64 189/188/64
f 191/214/65 188/224/65 187/80/65 192/79/65
f 196/117/2 195/225/2 193/226/2 194/227/2
f 200/228/1 203/229/1 201/230/1 198/114/1
f 199/231/2 200/232/2 198/233/2 197/217/2
f 204/229/3 199/45/3 197/234/3 202/230/3
f 203/235/4 204/236/4 202/201/4 201/237/4
f 202/238/5 197/239/5 198/240/5 201/89/5
f 203/239/6 200/241/6 199/242/6 204/240/6
f 208/243/66 211/244/66 209/245/66 206/198/66
f 207/246/34 208/247/34 206/248/34 205/162/34
f 212/249/67 207/250/67 205/244/67 210/243/67
f 211/199/35 212/251/35 210/252/35 209/253/35
f 210/254/68 205/255/68 206/250/68 209/249/68
f 211/256/69 208/257/69 207/255/69 212/254/69
f 216/258/70 219/259/70 217/257/70 214/256/70
f 215/247/71 216/260/71 214/163/71 213/248/71
f 220/261/72 215/262/72 213/259/72 218/258/72
f 219/260/73 220/263/73 218/264/73 217/163/73
f 218/236/74 213/265/74 214/262/74 217/261/74
f 219/266/75 216/267/75 215/268/75 220/269/75
f 224/270/66 227/271/66 225/267/66 222/266/66
f 223/263/34 224/272/34 222/214/34 221/264/34
f 228/126/67 223/273/67 221/271/67 226/270/67
f 227/272/35 228/274/35 226/275/35 225/214/35
f 226/276/68 221/277/68 222/273/68 225/126/68
f 227/278/69 224/279/69 223/277/69 228/276/69
f 232/125/76 235/280/76 233/279/76 230/278/76
f 231/274/77 232/281/77 230/282/77 229/275/77
f 236/283/78 231/284/78 229/280/78 234/125/78
f 235/281/79 236/285/79 234/224/79 233/282/79
f 234/286/80 229/287/80 230/284/80 233/283/80
f 235/132/81 232/288/81 231/287/81 236/286/81
f 240/289/61 243/290/61 241/74/61 238/235/61
f 239/291/62 240/292/62 238/293/62 237/182/62
f 244/294/63 239/85/63 237/88/63 242/295/63
f 243/292/60 244/296/60 242/297/60 241/293/60
f 242/241/64 237/298/64 238/95/64 241/242/64
f 243/299/65 240/300/65 239/301/65 244/135/65
f 248/302/1 251/303/1 249/304/1 246/80/1
f 247/303/2 248/305/2 246/306/2 245/304/2
f 252/305/3 247/307/3 245/83/3 250/306/3
f 251/308/4 252/309/4 250/46/4 249/228/4
f 250/310/5 245/311/5 246/72/5 249/103/5
f 251/312/6 248/313/6 247/311/6 252/310/6
f 256/314/61 259/315/61 257/300/61 254/299/61
f 255/98/62 256/316/62 254/317/62 253/318/62
f 260/134/63 255/192/63 253/315/63 258/314/63
f 259/102/60 260/319/60 258/313/60 257/312/60
f 258/320/64 253/321/64 254/322/64 257/186/64
f 259/321/65 256/323/65 255/324/65 260/322/65
f 264/316/1 267/325/1 265/326/1 262/317/1
f 263/327/2 264/328/2 262/319/2 261/102/2
f 268/325/3 263/329/3 261/330/3 266/326/3
f 267/331/4 268/332/4 266/328/4 265/327/4
f 266/329/5 261/333/5 262/334/5 265/330/5
f 267/333/6 264/335/6 263/336/6 268/334/6
f 272/139/5 269/337/5 270/338/5 271/339/5
f 275/340/6 274/341/6 273/342/6 276/343/6
f 278/344/1 280/345/1 279/343/1 277/346/1
f 283/347/4 284/348/4 282/349/4 281/350/4
f 287/351/82 288/352/82 286/353/82 285/354/82
f 291/352/82 292/355/82 290/356/82 289/353/82
f 295/123/83 294/123/83 293/123/83 296/123/83
f 299/123/84 298/123/84 297/123/84 300/123/84
f 303/40/85 302/5/85 301/115/85 304/234/85
f 307/323/86 305/357/86 306/358/86 308/324/86
f 312/359/87 315/360/87 313/361/87 310/123/87
f 311/360/88 312/362/88 310/26/88 309/361/88
f 316/82/89 311/81/89 309/348/89 314/347/89
f 315/363/90 316/364/90 314/365/90 313/118/90
f 314/366/91 309/367/91 310/368/91 313/369/91
f 315/370/92 312/371/92 311/372/92 316/373/92
f 320/374/93 323/375/93 321/376/93 318/377/93
f 319/378/94 320/379/94 318/380/94 317/381/94
f 324/92/95 319/382/95 317/383/95 322/31/95
f 323/32/96 324/383/96 322/379/96 321/378/96
f 322/354/97 317/356/97 318/384/97 321/220/97
f 323/298/98 320/320/98 319/385/98 324/96/98
f 328/386/99 331/387/99 329/105/99 326/388/99
f 327/369/100 328/389/100 326/390/100 325/391/100
f 332/373/101 327/392/101 325/393/101 330/394/101
f 331/395/102 332/396/102 330/397/102 329/398/102
f 330/399/103 325/400/103 326/401/103 329/402/103
f 331/403/104 328/404/104 327/405/104 332/406/104
f 336/225/105 339/116/105 337/375/105 334/374/105
f 335/407/106 336/408/106 334/290/106 333/289/106
f 340/409/107 335/173/107 333/119/107 338/365/107
f 339/178/108 340/158/108 338/211/108 337/122/108
f 338/334/109 333/410/109 334/411/109 337/149/109
f 339/410/110 336/412/110 335/154/110 340/411/110
f 344/123/111 343/123/111 342/123/111 341/123/111
f 348/123/111 347/123/111 346/123/111 345/123/111
f 352/137/112 349/413/112 350/337/112 351/138/112
f 356/367/113 353/414/113 354/389/113 355/368/113
f 360/371/114 357/415/114 358/392/114 359/372/114
f 364/416/115 362/417/115 361/396/115 363/418/115
f 368/157/116 365/419/116 366/420/116 367/69/116
f 372/421/117 369/422/117 370/423/117 371/424/117
f 376/425/118 374/426/118 373/78/118 375/344/118
f 378/341/6 380/126/6 379/269/6 377/342/6
f 384/104/119 381/105/119 382/106/119 383/107/119
f 387/123/120 386/123/120 385/123/120 388/123/120
f 392/104/119 390/105/119 389/106/119 391/107/119
f 396/104/121 393/105/121 394/106/121 395/107/121
f 400/104/119 397/105/119 398/106/119 399/107/119
f 403/123/120 402/123/120 401/123/120 404/123/120
f 408/104/119 406/105/119 405/106/119 407/107/119
f 412/104/121 409/105/121 410/106/121 411/107/121
f 416/104/32 413/105/32 414/106/32 415/107/32
f 420/104/33 418/105/33 417/106/33 419/107/33
f 424/104/32 421/105/32 422/106/32 423/107/32
f 427/104/33 426/105/33 425/106/33 428/107/33
f 432/104/32 429/105/32 430/106/32 431/107/32
f 436/104/33 434/105/33 433/106/33 435/107/33
f 440/427/122 443/428/122 441/429/122 438/430/122
f 439/431/123 440/427/123 438/430/123 437/146/123
f 444/432/124 439/407/124 437/433/124 442/434/124
f 443/428/125 444/432/125 442/434/125 441/429/125
f 442/435/126 437/436/126 438/430/126 441/429/126
f 443/434/127 440/429/127 439/435/127 444/437/127
f 448/438/128 451/439/128 449/440/128 446/441/128
f 447/81/129 448/438/129 446/441/129 445/442/129
f 452/213/130 447/233/130 445/443/130 450/444/130
f 451/439/131 452/213/131 450/444/131 449/440/131
f 450/445/132 445/446/132 446/441/132 449/440/132
f 451/444/133 448/440/133 447/445/133 452/447/133
