# Blender 4.5.14 LTS
# www.blender.org
mtllib lying_1.mtl
o Body
v 0.250000 0.036945 0.444114
v 0.250000 0.286945 0.444114
v 0.250000 0.036945 -0.305886
v 0.250000 0.286945 -0.305886
v -0.250000 0.286945 0.444114
v -0.250000 0.036945 0.444114
v -0.250000 0.286945 -0.305886
v -0.250000 0.036945 -0.305886
v -0.225534 0.271459 0.855315
v -0.200360 0.347462 0.553245
v -0.109818 -0.012189 0.793590
v -0.084645 0.063814 0.491521
v -0.298686 0.311122 0.535908
v -0.323859 0.235119 0.837978
v -0.182970 0.027474 0.474183
v -0.208143 -0.048529 0.776253
v 0.016146 0.079094 1.017842
v 0.106611 0.107224 0.786488
v -0.004952 -0.104686 0.987247
v 0.085513 -0.076556 0.755893
v -0.124743 0.148018 0.700983
v -0.215208 0.119887 0.932337
v -0.145841 -0.035762 0.670388
v -0.236306 -0.063892 0.901742
v 0.178666 0.137271 0.849087
v 0.200124 0.133487 0.600038
v 0.156960 0.014170 0.849087
v 0.178418 0.010386 0.600038
v 0.016175 0.165923 0.583696
v -0.005282 0.169706 0.832745
v -0.005531 0.042822 0.583696
v -0.026989 0.046605 0.832745
v -0.021142 0.295140 0.919352
v -0.036441 0.325569 0.786137
v 0.033422 0.121721 0.873472
v 0.018122 0.152150 0.740257
v -0.155220 0.286923 0.790951
v -0.139920 0.256494 0.924166
v -0.100657 0.113504 0.745071
v -0.085357 0.083075 0.878286
v 0.444853 0.011203 0.478176
v 0.439440 0.012832 0.415932
v 0.073240 -0.028171 0.509458
v 0.067827 -0.026542 0.447215
v 0.420242 0.199232 0.422480
v 0.425654 0.197603 0.484724
v 0.048629 0.159858 0.453762
v 0.054041 0.158229 0.516006
v 0.207176 0.166766 0.863120
v 0.220015 0.185694 0.756163
v 0.185508 0.030416 0.836390
v 0.198348 0.049344 0.729433
v 0.128041 0.201912 0.747992
v 0.115201 0.182984 0.854949
v 0.106373 0.065562 0.721262
v 0.093534 0.046634 0.828219
v 0.149008 0.175009 0.756992
v 0.212024 0.173376 0.466887
v 0.116810 0.070677 0.750585
v 0.179825 0.069044 0.460480
v 0.037308 0.229646 0.428619
v -0.025707 0.231279 0.718724
v 0.005110 0.125315 0.422212
v -0.057906 0.126947 0.712317
v 0.122653 0.177916 0.781615
v 0.122653 0.177916 0.594115
v 0.122653 -0.072084 0.781615
v 0.122653 -0.072084 0.594115
v -0.002348 0.177916 0.594115
v -0.002348 0.177916 0.781615
v -0.002348 -0.072084 0.594115
v -0.002348 -0.072084 0.781615
v -0.019478 0.267836 0.884076
v -0.027329 0.374898 0.905029
v -0.022850 0.288596 0.776742
v -0.030701 0.395658 0.797695
v -0.136370 0.366547 0.906840
v -0.128519 0.259486 0.885886
v -0.139742 0.387307 0.799506
v -0.131891 0.280246 0.778553
v -0.068556 0.045236 0.817273
v -0.053299 0.231464 0.832840
v -0.071647 0.051990 0.739501
v -0.056390 0.238219 0.755069
v -0.053299 0.231464 0.832840
v -0.068556 0.045236 0.817273
v -0.056390 0.238219 0.755069
v -0.071647 0.051990 0.739501
v 0.180853 0.097063 0.738180
v 0.358731 0.074382 0.792966
v 0.169850 0.019807 0.741921
v 0.347727 -0.002874 0.796706
v 0.358731 0.074382 0.792966
v 0.180853 0.097063 0.738180
v 0.347727 -0.002874 0.796706
v 0.169850 0.019807 0.741921
v 0.358713 0.094423 0.837369
v 0.466594 0.109926 0.828189
v 0.376332 -0.007995 0.871472
v 0.484213 0.007508 0.862292
v 0.462831 0.074810 0.724673
v 0.354950 0.059308 0.733853
v 0.480451 -0.027608 0.758776
v 0.372570 -0.043110 0.767956
v -0.075778 0.096275 0.988678
v -0.029238 0.090322 0.947387
v -0.043577 0.097319 0.930218
v -0.090116 0.103271 0.971509
v 0.094251 0.197896 0.717035
v 0.117877 0.201231 0.659269
v 0.097101 0.208468 0.651189
v 0.073475 0.205133 0.708955
v 0.102053 0.193755 0.665812
v 0.134940 0.193688 0.612665
v 0.116018 0.201033 0.600946
v 0.083130 0.201099 0.654094
v 0.154332 0.173011 0.812163
v 0.182797 0.201117 0.764141
v 0.162021 0.208354 0.756061
v 0.133556 0.180248 0.804083
v 0.454108 0.089977 0.762163
v 0.468028 0.127479 0.714141
v 0.446139 0.125257 0.706062
v 0.432220 0.087755 0.754083
v 0.397694 0.106419 0.825881
v 0.415289 0.066063 0.781518
v 0.392819 0.062347 0.775986
v 0.375224 0.102704 0.820349
v 0.044741 0.208726 0.666823
v 0.102595 0.205670 0.643373
v 0.094351 0.211635 0.622259
v 0.036498 0.214691 0.645709
v 0.027842 0.237577 0.554472
v 0.038382 0.222547 0.614215
v 0.061251 0.220284 0.609611
v 0.050712 0.235314 0.549868
v 0.064532 0.210266 0.756294
v 0.124422 0.192786 0.760009
v 0.126821 0.196098 0.736931
v 0.066930 0.213578 0.733216
v -0.015676 0.265761 0.790496
v 0.000943 0.211724 0.763848
v -0.000724 0.221649 0.742682
v -0.017343 0.275686 0.769329
v -0.002743 0.295463 0.861119
v 0.003582 0.250513 0.818158
v 0.001058 0.266426 0.801136
v -0.005267 0.311376 0.844098
v 0.009318 0.117281 0.939469
v 0.018551 0.055508 0.941731
v 0.018474 0.054639 0.918309
v 0.009241 0.116412 0.916047
v 0.003421 0.216276 0.900708
v 0.005923 0.195999 0.841641
v 0.002590 0.217898 0.833983
v 0.000087 0.238175 0.893049
v -0.115600 0.171913 0.715104
v -0.069030 0.181397 0.674514
v -0.084531 0.188288 0.658340
v -0.131100 0.178804 0.698931
v -0.036438 0.166848 0.691841
v -0.014216 0.183746 0.635922
v -0.036029 0.188216 0.628604
v -0.058250 0.171318 0.684523
v -0.087417 0.176260 0.642827
v -0.030159 0.187778 0.620575
v -0.039505 0.195431 0.600490
v -0.096762 0.183913 0.622742
v -0.105459 0.197342 0.531094
v -0.091922 0.175112 0.587917
v -0.069062 0.177891 0.583558
v -0.082599 0.200121 0.526735
v -0.053079 0.106129 0.931733
v 0.003730 0.094153 0.908591
v -0.003774 0.099965 0.887162
v -0.060583 0.111940 0.910303
v 0.265156 0.189800 0.502567
v 0.323801 0.198952 0.482990
v 0.316171 0.200567 0.460888
v 0.257526 0.191415 0.480465
v 0.335252 0.187667 0.476807
v 0.396539 0.195932 0.467762
v 0.392844 0.198118 0.444721
v 0.331557 0.189854 0.453766
v 0.401910 0.020272 0.510699
v 0.380113 0.026898 0.469732
v 0.401910 0.020272 0.510699
v 0.380113 0.026898 0.469732
v 0.411045 0.082499 0.462267
v 0.432841 0.075874 0.503234
v 0.411045 0.082499 0.462267
v 0.432841 0.075874 0.503234
v -0.037292 0.449477 0.452218
v -0.053032 0.430806 0.394686
v 0.032597 0.093854 0.548512
v 0.016857 0.075183 0.490980
v -0.231092 0.410764 0.449905
v -0.215352 0.429436 0.507437
v -0.161203 0.055141 0.546199
v -0.145463 0.073812 0.603731
v -0.002348 0.177916 0.762865
v -0.002348 0.177916 0.450365
v -0.002348 -0.072084 0.762865
v -0.002348 -0.072084 0.450365
v -0.186723 0.177916 0.450365
v -0.186723 0.177916 0.762865
v -0.186723 -0.072084 0.450365
v -0.186723 -0.072084 0.762865
v -0.189847 0.309968 1.030929
v -0.189847 0.377605 0.725836
v -0.189847 0.065894 0.976819
v -0.189847 0.133531 0.671726
v -0.189847 0.377605 0.725836
v -0.189847 0.309968 1.030929
v -0.189847 0.133531 0.671726
v -0.189847 0.065894 0.976819
v -0.000785 0.310042 1.030881
v -0.000785 0.310042 1.030881
v -0.000785 0.065968 0.976772
v -0.000785 0.065968 0.976772
v -0.189847 0.310042 1.030881
v -0.189847 0.310042 1.030881
v -0.189847 0.065968 0.976772
v -0.189847 0.065968 0.976772
v -0.000785 0.309968 1.030929
v -0.000785 0.377605 0.725836
v -0.000785 0.309968 1.030929
v -0.000785 0.377605 0.725836
v -0.189847 0.377605 0.725836
v -0.189847 0.309968 1.030929
v -0.189847 0.377605 0.725836
v -0.189847 0.309968 1.030929
v -0.135350 0.429742 0.527228
v -0.144351 0.414965 0.501205
v -0.183213 0.322548 0.604649
v -0.192214 0.307772 0.578626
v -0.144351 0.414965 0.501205
v -0.135350 0.429742 0.527228
v -0.192214 0.307772 0.578626
v -0.183213 0.322548 0.604649
v -0.001039 0.418655 0.487067
v -0.014540 0.396491 0.448033
v -0.001039 0.418655 0.487067
v -0.014540 0.396491 0.448033
v -0.148847 0.407522 0.488222
v -0.135346 0.429687 0.527257
v -0.148847 0.407522 0.488222
v -0.135346 0.429687 0.527257
v -0.059965 0.375102 0.735541
v -0.067678 0.384516 0.690274
v -0.059965 0.375102 0.735541
v -0.067678 0.384516 0.690274
v -0.130667 0.377388 0.699524
v -0.122954 0.367974 0.744791
v -0.130667 0.377388 0.699524
v -0.122954 0.367974 0.744791
v -0.005819 0.362888 0.738410
v 0.006925 0.369541 0.693793
v -0.005819 0.362888 0.738410
v 0.006925 0.369541 0.693793
v -0.022300 0.383048 0.687460
v -0.035044 0.376395 0.732076
v -0.022300 0.383048 0.687460
v -0.035044 0.376395 0.732076
v -0.058166 0.433124 0.529038
v -0.066360 0.411019 0.488523
v -0.058166 0.433124 0.529038
v -0.066360 0.411019 0.488523
v -0.129181 0.411309 0.501068
v -0.120988 0.433414 0.541584
v -0.129181 0.411309 0.501068
v -0.120988 0.433414 0.541584
v -0.025760 0.428434 0.516096
v -0.039576 0.407439 0.476529
v -0.025760 0.428434 0.516096
v -0.039576 0.407439 0.476529
v -0.070926 0.411453 0.485346
v -0.057110 0.432448 0.524913
v -0.070926 0.411453 0.485346
v -0.057110 0.432448 0.524913
v 0.010748 0.401739 0.495985
v -0.021836 0.393391 0.463337
v 0.010748 0.401739 0.495985
v -0.021836 0.393391 0.463337
v -0.043260 0.411826 0.480006
v -0.010676 0.420174 0.512653
v -0.043260 0.411826 0.480006
v -0.010676 0.420174 0.512653
v -0.033268 0.372210 0.741152
v -0.027968 0.382113 0.695642
v -0.033268 0.372210 0.741152
v -0.027968 0.382113 0.695642
v -0.060538 0.384309 0.692326
v -0.065839 0.374406 0.737836
v -0.060538 0.384309 0.692326
v -0.065839 0.374406 0.737836
v -0.147622 0.396877 0.587660
v -0.156623 0.382100 0.561637
v -0.190167 0.301594 0.656479
v -0.199168 0.286817 0.630456
v -0.156623 0.382100 0.561637
v -0.147622 0.396877 0.587660
v -0.199168 0.286817 0.630456
v -0.190167 0.301594 0.656479
v -0.000785 0.365416 0.731615
v -0.000785 0.365416 0.731615
v -0.000785 0.177916 0.731615
v -0.000785 0.177916 0.731615
v -0.189847 0.365416 0.731615
v -0.189847 0.365416 0.731615
v -0.189847 0.177916 0.731615
v -0.189847 0.177916 0.731615
v 0.383995 0.011301 0.481974
v 0.367662 0.012594 0.455363
v 0.264352 0.016765 0.555670
v 0.248019 0.018058 0.529059
v 0.367662 0.012594 0.455363
v 0.383995 0.011301 0.481974
v 0.248019 0.018058 0.529059
v 0.264352 0.016765 0.555670
v 0.347153 0.012437 0.541339
v 0.330820 0.013730 0.514728
v 0.240803 0.017294 0.606847
v 0.224471 0.018586 0.580236
v 0.330820 0.013730 0.514728
v 0.347153 0.012437 0.541339
v 0.224471 0.018586 0.580236
v 0.240803 0.017294 0.606847
v 0.392161 0.010655 0.495280
v 0.367662 0.012593 0.455364
v 0.392161 0.010655 0.495280
v 0.367662 0.012593 0.455364
v 0.425204 0.137529 0.426115
v 0.449703 0.135590 0.466031
v 0.425204 0.137529 0.426115
v 0.449703 0.135590 0.466031
v 0.432920 0.077419 0.499209
v 0.409305 0.078548 0.458733
v 0.432920 0.077419 0.499209
v 0.409305 0.078548 0.458733
v 0.421462 0.108376 0.452473
v 0.445077 0.107246 0.492950
v 0.421462 0.108376 0.452473
v 0.445077 0.107246 0.492950
v 0.445382 0.124644 0.490756
v 0.423357 0.102775 0.455629
v 0.445382 0.124644 0.490756
v 0.423357 0.102775 0.455629
v 0.418378 0.131617 0.440795
v 0.440402 0.153486 0.475923
v 0.418378 0.131617 0.440795
v 0.440402 0.153486 0.475923
v 0.307731 0.148819 0.672917
v 0.322650 0.160022 0.629915
v 0.307731 0.148819 0.672917
v 0.322650 0.160022 0.629915
v 0.310660 0.190336 0.633653
v 0.295741 0.179133 0.676654
v 0.310660 0.190336 0.633653
v 0.295741 0.179133 0.676654
v 0.290336 0.062124 0.684844
v 0.306444 0.052709 0.641842
v 0.290336 0.062124 0.684844
v 0.306444 0.052709 0.641842
v 0.320007 0.114740 0.633341
v 0.303899 0.124155 0.676343
v 0.320007 0.114740 0.633341
v 0.303899 0.124155 0.676343
v 0.180761 0.006250 0.957948
v 0.297591 -0.005716 0.668355
v 0.180761 0.006250 0.957948
v 0.297591 -0.005716 0.668355
v 0.312686 0.182736 0.666658
v 0.195855 0.194701 0.956251
v 0.312686 0.182736 0.666658
v 0.195855 0.194701 0.956251
v 0.180761 0.006250 0.957948
v 0.297591 -0.005716 0.668355
v 0.007503 0.019493 0.887503
v 0.124333 0.007528 0.597911
v 0.297591 -0.005716 0.668355
v 0.180761 0.006250 0.957948
v 0.124333 0.007528 0.597911
v 0.007503 0.019493 0.887503
v 0.180785 0.006247 0.957890
v 0.180785 0.006247 0.957890
v 0.007526 0.019490 0.887445
v 0.007526 0.019490 0.887445
v 0.195879 0.194699 0.956193
v 0.195879 0.194699 0.956193
v 0.022621 0.207942 0.885748
v 0.022621 0.207942 0.885748
v 0.274225 -0.003322 0.726274
v 0.274225 -0.003322 0.726274
v 0.216473 0.001092 0.702792
v 0.216473 0.001092 0.702792
v 0.289320 0.185129 0.724577
v 0.289320 0.185129 0.724577
v 0.231567 0.189543 0.701095
v 0.231567 0.189543 0.701095
v -0.127906 0.219443 0.180123
v -0.289011 0.284219 0.359981
v -0.685879 0.223199 -0.321027
v -0.846985 0.287975 -0.141169
v -0.333195 0.042760 0.407366
v -0.172090 -0.022016 0.227507
v -0.891169 0.046516 -0.093785
v -0.730063 -0.018260 -0.273643
v 0.065127 0.111368 -0.358412
v -0.027766 0.343117 -0.345634
v -0.168803 0.056773 -1.068902
v -0.261696 0.288522 -1.056125
v -0.246377 0.251132 -0.266588
v -0.153483 0.019383 -0.279366
v -0.480307 0.196537 -0.977079
v -0.387413 -0.035212 -0.989856
v 0.190246 -0.034702 0.243404
v 0.301630 0.038411 0.454941
v 0.840524 0.036173 -0.123495
v 0.951909 0.109286 0.088042
v 0.245873 0.276311 0.402075
v 0.134489 0.203198 0.190538
v 0.896152 0.347185 0.035176
v 0.784768 0.274072 -0.176361
v 0.199035 0.064598 -0.163316
v 0.293832 0.294329 -0.190469
v 0.262302 -0.048815 -0.901987
v 0.357098 0.180916 -0.929140
v 0.063465 0.385403 -0.224183
v -0.031332 0.155672 -0.197030
v 0.126731 0.271990 -0.962854
v 0.031935 0.042259 -0.935701
vn -0.0000 1.0000 -0.0000
vn 1.0000 -0.0000 -0.0000
vn -0.0000 -1.0000 -0.0000
vn -1.0000 -0.0000 -0.0000
vn -0.0000 -0.0000 1.0000
vn -0.0000 -0.0000 -1.0000
vn 0.0806 0.2432 -0.9666
vn 0.9254 0.3420 0.1632
vn -0.0806 -0.2432 0.9666
vn -0.9254 -0.3420 -0.1632
vn -0.3703 0.9077 0.1975
vn 0.3703 -0.9077 -0.1975
vn 0.3619 0.1125 -0.9254
vn 0.9254 -0.1632 0.3420
vn -0.3619 -0.1125 0.9254
vn -0.9254 0.1632 -0.3420
vn 0.1125 0.9802 0.1632
vn -0.1125 -0.9802 -0.1632
vn 0.0858 -0.0151 -0.9962
vn 0.9811 -0.1730 0.0872
vn -0.0858 0.0151 0.9962
vn -0.9811 0.1730 -0.0872
vn 0.1736 0.9848 -0.0000
vn -0.1736 -0.9848 -0.0000
vn -0.1113 0.2213 -0.9688
vn 0.9502 0.3092 -0.0385
vn 0.1113 -0.2213 0.9688
vn -0.9502 -0.3092 0.0385
vn -0.2910 0.9249 0.2447
vn 0.2910 -0.9249 -0.2447
vn -0.0866 0.0261 -0.9959
vn 0.1024 -0.9941 -0.0349
vn 0.0866 -0.0261 0.9959
vn -0.1024 0.9941 0.0349
vn 0.9910 0.1050 -0.0834
vn -0.9910 -0.1050 0.0834
vn 0.1174 0.1731 -0.9779
vn -0.1174 -0.1731 0.9779
vn 0.1541 0.9696 0.1901
vn -0.1541 -0.9696 -0.1901
vn 0.2123 -0.0055 -0.9772
vn 0.9318 -0.3001 0.2041
vn -0.2123 0.0055 0.9772
vn -0.9318 0.3001 -0.2041
vn 0.2944 0.9539 0.0586
vn -0.2944 -0.9539 -0.0586
vn -0.0718 0.9788 0.1916
vn 0.9969 0.0763 -0.0166
vn 0.0718 -0.9788 -0.1916
vn -0.9969 -0.0763 0.0166
vn 0.0308 -0.1898 0.9813
vn -0.0308 0.1898 -0.9813
vn 0.0814 0.9932 0.0830
vn -0.0814 -0.9932 -0.0830
vn -0.9959 0.0777 0.0463
vn 0.0395 -0.0864 0.9955
vn 0.0396 -0.0865 0.9955
vn -0.0396 0.0865 -0.9955
vn -0.0395 0.0864 -0.9955
vn 0.9487 -0.1210 0.2922
vn 0.9487 -0.1209 0.2922
vn -0.9487 0.1209 -0.2922
vn -0.9487 0.1210 -0.2922
vn 0.2831 -0.0866 -0.9552
vn 0.1408 0.9889 -0.0478
vn -0.1408 -0.9889 0.0478
vn 0.9863 0.1417 -0.0839
vn 0.0344 0.3211 0.9464
vn -0.9863 -0.1417 0.0839
vn -0.0344 -0.3211 -0.9464
vn -0.1611 0.9364 -0.3118
vn 0.1611 -0.9364 0.3118
vn 0.2670 0.9496 0.1640
vn 0.0822 0.8381 0.5393
vn -0.2797 0.7943 0.5393
vn 0.0399 0.7470 -0.6637
vn 0.1395 0.9658 0.2184
vn 0.9614 0.2705 0.0511
vn 0.9890 0.1475 -0.0087
vn 0.0862 0.9437 0.3194
vn -0.0417 0.9271 0.3726
vn -0.1165 0.9868 0.1123
vn -0.4650 0.1414 -0.8739
vn -0.4650 0.1413 -0.8740
vn -0.4829 -0.8679 0.1165
vn -0.4829 -0.8679 0.1166
vn 0.4650 -0.1413 0.8740
vn 0.4829 0.8679 -0.1164
vn 0.4829 0.8679 -0.1165
vn 0.7421 -0.4762 -0.4718
vn -0.2518 -0.2987 -0.9205
vn 0.9497 0.1069 -0.2945
vn 0.2518 0.2987 0.9205
vn -0.9497 -0.1069 0.2945
vn -0.1864 0.9483 -0.2568
vn 0.1864 -0.9483 0.2568
vn -0.0000 0.2164 -0.9763
vn -0.0000 -0.2164 0.9763
vn -0.0000 0.9763 0.2164
vn -0.0000 -0.9763 -0.2164
vn 1.0000 -0.0000 0.0001
vn -1.0000 -0.0000 0.0001
vn -0.0000 0.2163 -0.9763
vn 1.0000 -0.0000 -0.0001
vn -1.0000 -0.0000 -0.0001
vn -0.2880 -0.4728 -0.8327
vn -0.2880 -0.4728 -0.8328
vn 0.2880 0.4729 0.8327
vn 0.2880 0.4728 0.8327
vn -0.8951 0.4420 0.0586
vn 0.3404 0.7622 -0.5506
vn 0.3404 0.7623 -0.5505
vn -0.3404 -0.7622 0.5505
vn -0.3404 -0.7622 0.5506
vn 0.9551 -0.0784 -0.2858
vn 0.9551 -0.0784 -0.2859
vn -0.9551 0.0784 0.2858
vn -0.0698 0.8776 -0.4742
vn -0.1645 0.2008 -0.9657
vn 0.9833 0.1112 -0.1443
vn 0.9833 0.1113 -0.1443
vn 0.1645 -0.2008 0.9657
vn -0.9832 -0.1112 0.1444
vn -0.9832 -0.1113 0.1444
vn -0.0785 0.9733 0.2158
vn 0.2718 0.1419 -0.9518
vn 0.8907 -0.4116 0.1930
vn 0.8906 -0.4117 0.1931
vn -0.2718 -0.1419 0.9518
vn -0.8907 0.4116 -0.1930
vn -0.8907 0.4117 -0.1930
vn 0.3644 0.9002 0.2383
vn -0.1748 -0.4715 -0.8644
vn -0.1748 -0.4716 -0.8643
vn 0.9806 -0.0045 -0.1958
vn 0.1748 0.4716 0.8643
vn -0.9806 0.0045 0.1959
vn -0.9806 0.0045 0.1958
vn -0.0884 0.8818 -0.4632
vn -0.2947 -0.4479 -0.8441
vn -0.2948 -0.4479 -0.8441
vn 0.9554 -0.1223 -0.2687
vn 0.9554 -0.1224 -0.2688
vn 0.2948 0.4479 0.8441
vn -0.9554 0.1223 0.2688
vn -0.9554 0.1224 0.2687
vn -0.0171 0.8857 -0.4640
vn -0.6951 -0.1781 -0.6965
vn 0.6529 -0.5618 -0.5080
vn 0.6529 -0.5619 -0.5080
vn 0.6951 0.1781 0.6965
vn 0.6952 0.1781 0.6964
vn -0.6529 0.5618 0.5080
vn 0.3008 0.8079 -0.5068
vn 0.1131 0.2112 -0.9709
vn 0.9926 -0.0669 0.1010
vn 0.9926 -0.0669 0.1009
vn -0.1131 -0.2112 0.9709
vn -0.9926 0.0669 -0.1011
vn -0.9926 0.0669 -0.1010
vn 0.0436 0.9751 0.2173
vn -0.5227 0.0413 -0.8515
vn -0.5226 0.0414 -0.8515
vn -0.0548 -0.9984 -0.0149
vn 0.5227 -0.0414 0.8515
vn 0.5227 -0.0413 0.8515
vn 0.8508 -0.0389 -0.5241
vn 0.8508 -0.0389 -0.5240
vn -0.8508 0.0389 0.5241
vn -0.5227 0.0414 -0.8515
vn -0.4092 -0.8884 0.2080
vn -0.4093 -0.8884 0.2080
vn 0.5226 -0.0413 0.8516
vn 0.4092 0.8884 -0.2081
vn 0.4093 0.8884 -0.2080
vn 0.7479 -0.4572 -0.4813
vn -0.5038 0.0241 -0.8635
vn -0.3705 -0.9090 0.1908
vn -0.3705 -0.9090 0.1907
vn 0.5038 -0.0241 0.8635
vn 0.3705 0.9090 -0.1907
vn 0.7804 -0.4160 -0.4669
vn -0.4699 -0.4666 -0.7493
vn -0.4699 -0.4665 -0.7494
vn 0.1518 -0.8790 0.4521
vn 0.4699 0.4666 0.7493
vn 0.4699 0.4665 0.7494
vn -0.1518 0.8790 -0.4521
vn 0.8696 -0.0987 -0.4838
vn 0.3183 0.2390 -0.9174
vn 0.3654 -0.9239 -0.1139
vn 0.3654 -0.9239 -0.1138
vn -0.3183 -0.2390 0.9174
vn -0.3654 0.9239 0.1138
vn -0.3654 0.9239 0.1139
vn 0.8747 0.2990 0.3814
vn 0.3435 -0.2008 -0.9174
vn 0.3436 -0.2009 -0.9174
vn -0.2117 -0.9683 0.1327
vn -0.2116 -0.9683 0.1327
vn -0.3436 0.2009 0.9174
vn 0.2117 0.9683 -0.1327
vn 0.2116 0.9683 -0.1327
vn 0.9149 -0.1486 0.3753
vn 0.3739 -0.0383 -0.9267
vn 0.3738 -0.0383 -0.9267
vn -0.0799 -0.9968 0.0089
vn -0.0798 -0.9968 0.0089
vn -0.3738 0.0383 0.9267
vn 0.0799 0.9968 -0.0090
vn 0.0798 0.9968 -0.0089
vn 0.9240 -0.0706 0.3757
vn -0.0798 -0.9968 0.0090
vn 0.9240 -0.0707 0.3757
vn 0.9240 -0.0707 0.3758
vn -0.9241 0.0707 -0.3757
vn -0.9240 0.0707 -0.3757
vn -0.3739 0.0383 0.9267
vn 0.0798 0.9968 -0.0090
vn 0.9240 -0.0706 0.3758
vn -0.9240 0.0706 -0.3757
vn -0.9240 0.0707 -0.3758
vn -0.6444 0.2591 0.7194
vn 0.1767 0.9658 -0.1895
vn 0.6444 -0.2591 -0.7194
vn -0.1767 -0.9658 0.1895
vn 0.7440 -0.0050 0.6682
vn -0.7440 0.0050 -0.6682
vn -0.3716 0.9270 0.0511
vn 0.8744 0.3679 -0.3162
vn 0.3716 -0.9270 -0.0511
vn -0.8744 -0.3679 0.3162
vn 0.3119 0.0728 0.9473
vn -0.3119 -0.0728 -0.9473
vn 0.4455 0.2925 0.8461
vn 0.2230 -0.9516 0.2115
vn -0.4455 -0.2925 -0.8461
vn -0.2230 0.9516 -0.2115
vn -0.8670 -0.0945 0.4892
vn 0.8670 0.0945 -0.4892
vn 0.3792 0.9189 -0.1086
vn 0.9215 -0.3643 0.1349
vn -0.3792 -0.9189 0.1086
vn -0.9215 0.3643 -0.1349
vn -0.0844 0.1512 0.9849
vn 0.0844 -0.1512 -0.9849
vt 0.093750 0.671875
vt 0.218750 0.671875
vt 0.218750 0.859375
vt 0.093750 0.859375
vt 0.031250 0.671875
vt 0.031250 0.859375
vt 0.281250 0.671875
vt 0.406250 0.671875
vt 0.406250 0.859375
vt 0.281250 0.859375
vt 0.218750 0.921875
vt 0.093750 0.921875
vt 0.343750 0.859375
vt 0.343750 0.921875
vt 0.000000 0.828125
vt 0.031250 0.828125
vt 0.031250 0.906250
vt 0.000000 0.906250
vt 0.171875 0.921875
vt 0.171875 1.000000
vt 0.093750 1.000000
vt 0.000000 0.750000
vt 0.031250 0.750000
vt 0.250000 0.921875
vt 0.250000 1.000000
vt 0.000000 0.671875
vt 0.359375 0.296875
vt 0.390625 0.296875
vt 0.390625 0.375000
vt 0.359375 0.375000
vt 0.625000 0.375000
vt 0.687500 0.375000
vt 0.687500 0.421875
vt 0.625000 0.421875
vt 0.625000 0.328125
vt 0.687500 0.328125
vt 0.093750 0.312500
vt 0.156250 0.312500
vt 0.156250 0.359375
vt 0.093750 0.359375
vt 0.218750 0.312500
vt 0.218750 0.359375
vt 0.156250 0.421875
vt 0.093750 0.421875
vt 0.218750 0.421875
vt 0.484375 0.296875
vt 0.531250 0.296875
vt 0.531250 0.328125
vt 0.484375 0.328125
vt 0.656250 0.750000
vt 0.718750 0.750000
vt 0.718750 0.781250
vt 0.656250 0.781250
vt 0.625000 0.296875
vt 0.671875 0.296875
vt 0.671875 0.328125
vt 0.531250 0.312500
vt 0.593750 0.312500
vt 0.593750 0.343750
vt 0.531250 0.343750
vt 0.640625 0.437500
vt 0.687500 0.437500
vt 0.687500 0.500000
vt 0.640625 0.500000
vt 0.656250 0.937500
vt 0.703125 0.937500
vt 0.703125 1.000000
vt 0.656250 1.000000
vt 0.671875 0.281250
vt 0.703125 0.281250
vt 0.703125 0.328125
vt 0.078125 0.265625
vt 0.109375 0.265625
vt 0.109375 0.312500
vt 0.078125 0.312500
vt 0.140625 0.265625
vt 0.140625 0.312500
vt 0.171875 0.265625
vt 0.171875 0.312500
vt 0.062500 0.937500
vt 0.093750 0.937500
vt 0.093750 0.968750
vt 0.062500 0.968750
vt 0.687500 0.468750
vt 0.718750 0.468750
vt 0.718750 0.500000
vt 0.500000 0.406250
vt 0.546875 0.406250
vt 0.546875 0.500000
vt 0.500000 0.500000
vt 0.296875 0.250000
vt 0.312500 0.250000
vt 0.312500 0.343750
vt 0.296875 0.343750
vt 0.593750 0.406250
vt 0.593750 0.500000
vt 0.031250 0.234375
vt 0.046875 0.234375
vt 0.046875 0.328125
vt 0.031250 0.328125
vt 0.296875 0.921875
vt 0.296875 0.937500
vt 0.250000 0.937500
vt 0.343750 0.937500
vt 0.531250 0.281250
vt 0.562500 0.281250
vt 0.562500 0.312500
vt 0.718750 0.437500
vt 0.593750 0.281250
vt 0.687500 0.406250
vt 0.718750 0.406250
vt 0.718750 0.375000
vt 0.687500 0.343750
vt 0.718750 0.343750
vt 0.171875 0.281250
vt 0.218750 0.281250
vt 0.734375 0.781250
vt 0.734375 0.812500
vt 0.656250 0.812500
vt 0.265625 0.281250
vt 0.265625 0.312500
vt 0.296875 0.312500
vt 0.218750 0.343750
vt 0.531250 0.406250
vt 0.484375 0.406250
vt 0.593750 0.421875
vt 0.640625 0.421875
vt 0.625000 0.281250
vt 0.625000 0.343750
vt 0.656250 0.875000
vt 0.703125 0.875000
vt 0.000000 0.265625
vt 0.031250 0.265625
vt 0.000000 0.328125
vt 0.703125 0.812500
vt 0.265625 0.265625
vt 0.296875 0.265625
vt 0.312500 0.265625
vt 0.343750 0.265625
vt 0.343750 0.312500
vt 0.312500 0.312500
vt 0.703125 0.968750
vt 0.734375 0.968750
vt 0.734375 1.000000
vt 0.734375 0.937500
vt 0.703125 0.906250
vt 0.734375 0.906250
vt 0.734375 0.875000
vt 0.703125 0.843750
vt 0.734375 0.843750
vt 0.000000 0.984375
vt 0.000000 1.000000
vt 0.000000 0.953125
vt 0.734375 0.328125
vt 0.734375 0.343750
vt 0.515625 0.281250
vt 0.515625 0.296875
vt 0.015625 1.000000
vt 0.437500 0.281250
vt 0.453125 0.281250
vt 0.453125 0.296875
vt 0.437500 0.296875
vt 0.046875 0.421875
vt 0.000000 0.421875
vt 0.062500 0.234375
vt 0.062500 0.328125
vt 0.093750 0.328125
vt 0.078125 0.234375
vt 0.078125 0.328125
vt 0.453125 0.671875
vt 0.453125 0.687500
vt 0.406250 0.687500
vt 0.500000 0.671875
vt 0.500000 0.687500
vt 0.578125 0.343750
vt 0.625000 0.406250
vt 0.578125 0.406250
vt 0.328125 0.937500
vt 0.406250 0.937500
vt 0.406250 1.000000
vt 0.328125 1.000000
vt 0.359375 0.312500
vt 0.312500 0.375000
vt 0.484375 0.687500
vt 0.484375 0.750000
vt 0.406250 0.750000
vt 0.390625 0.343750
vt 0.437500 0.343750
vt 0.437500 0.421875
vt 0.390625 0.421875
vt 0.484375 0.343750
vt 0.484375 0.421875
vt 0.000000 0.937500
vt 0.046875 1.000000
vt 0.078125 1.000000
vt 0.265625 0.343750
vt 0.265625 0.421875
vt 0.000000 0.968750
vt 0.484375 0.718750
vt 0.500000 0.718750
vt 0.500000 0.750000
vt 0.031250 1.000000
vt 0.421875 0.281250
vt 0.421875 0.296875
vt 0.078125 0.921875
vt 0.078125 0.937500
vt 0.390625 0.921875
vt 0.406250 0.921875
vt 0.390625 0.937500
vt 0.500000 0.421875
vt 0.406250 0.281250
vt 0.406250 0.296875
vt 0.343750 0.281250
vt 0.359375 0.281250
vt 0.359375 0.265625
vt 0.375000 0.265625
vt 0.375000 0.296875
vt 0.375000 0.281250
vt 0.468750 0.281250
vt 0.468750 0.296875
vt 0.484375 0.281250
vt 0.500000 0.281250
vt 0.500000 0.296875
vt 0.312500 0.421875
vt 0.375000 0.421875
vt 0.375000 0.609375
vt 0.312500 0.609375
vt 0.250000 0.421875
vt 0.250000 0.609375
vt 0.500000 0.609375
vt 0.437500 0.609375
vt 0.375000 0.671875
vt 0.312500 0.671875
vt 0.437500 0.671875
vt 0.562500 0.500000
vt 0.625000 0.500000
vt 0.625000 0.687500
vt 0.562500 0.687500
vt 0.750000 0.500000
vt 0.750000 0.687500
vt 0.687500 0.687500
vt 0.625000 0.750000
vt 0.562500 0.750000
vt 0.687500 0.750000
vt 0.062500 0.421875
vt 0.125000 0.421875
vt 0.125000 0.609375
vt 0.062500 0.609375
vt 0.000000 0.609375
vt 0.187500 0.421875
vt 0.187500 0.609375
vt 0.125000 0.671875
vt 0.062500 0.671875
vt 0.187500 0.671875
vt 0.468750 0.750000
vt 0.531250 0.750000
vt 0.531250 0.937500
vt 0.468750 0.937500
vt 0.593750 0.750000
vt 0.593750 0.937500
vt 0.531250 1.000000
vt 0.468750 1.000000
vt 0.593750 1.000000
s 1
usemtl m_9d958383-c28a-c326-34bf-7082e23cf131
f 4/1/1 7/2/1 5/3/1 2/4/1
f 3/5/2 4/1/2 2/4/2 1/6/2
f 8/7/3 3/8/3 1/9/3 6/10/3
f 7/2/4 8/7/4 6/10/4 5/3/4
f 6/11/5 1/12/5 2/4/5 5/3/5
f 7/13/6 4/3/6 3/11/6 8/14/6
f 12/15/7 15/16/7 13/17/7 10/18/7
f 11/12/8 12/19/8 10/20/8 9/21/8
f 16/22/9 11/23/9 9/16/9 14/15/9
f 15/19/10 16/24/10 14/25/10 13/20/10
f 14/26/11 9/5/11 10/23/11 13/22/11
f 15/27/12 12/28/12 11/29/12 16/30/12
f 20/31/13 23/32/13 21/33/13 18/34/13
f 19/35/14 20/36/14 18/32/14 17/31/14
f 24/37/15 19/38/15 17/39/15 22/40/15
f 23/38/16 24/41/16 22/42/16 21/39/16
f 22/40/17 17/39/17 18/43/17 21/44/17
f 23/39/18 20/42/18 19/45/18 24/43/18
f 28/46/19 31/47/19 29/48/19 26/49/19
f 27/50/20 28/51/20 26/52/20 25/53/20
f 32/54/21 27/55/21 25/56/21 30/35/21
f 31/57/22 32/58/22 30/59/22 29/60/22
f 30/61/23 25/62/23 26/63/23 29/64/23
f 31/65/24 28/66/24 27/67/24 32/68/24
f 36/69/25 39/70/25 37/71/25 34/56/25
f 35/72/26 36/73/26 34/74/26 33/75/26
f 40/73/27 35/76/27 33/77/27 38/74/27
f 39/76/28 40/78/28 38/79/28 37/77/28
f 38/80/29 33/81/29 34/82/29 37/83/29
f 39/84/30 36/85/30 35/86/30 40/63/30
f 44/87/31 47/88/31 45/89/31 42/90/31
f 43/91/32 44/92/32 42/93/32 41/94/32
f 48/88/33 43/95/33 41/96/33 46/89/33
f 47/97/34 48/98/34 46/99/34 45/100/34
f 46/24/35 41/101/35 42/102/35 45/103/35
f 47/101/36 44/14/36 43/104/36 48/102/36
f 52/105/37 55/106/37 53/107/37 50/57/37
f 51/62/20 52/108/20 50/85/20 49/84/20
f 56/106/38 51/109/38 49/58/38 54/107/38
f 55/110/22 56/111/22 54/108/22 53/62/22
f 54/32/39 49/112/39 50/111/39 53/110/39
f 55/113/40 52/114/40 51/112/40 56/32/40
f 60/115/41 63/116/41 61/41/41 58/79/41
f 59/53/42 60/117/42 58/118/42 57/119/42
f 64/116/43 59/120/43 57/121/43 62/41/43
f 63/41/44 64/122/44 62/94/44 61/123/44
f 62/49/45 57/48/45 58/124/45 61/125/45
f 63/126/46 60/127/46 59/64/46 64/96/46
f 68/109/6 71/128/6 69/129/6 66/59/6
f 67/130/2 68/131/2 66/66/2 65/65/2
f 72/132/5 67/133/5 65/100/5 70/134/5
f 71/119/4 72/135/4 70/131/4 69/130/4
f 70/136/1 65/137/1 66/122/1 69/121/1
f 71/138/3 68/139/3 67/140/3 72/141/3
f 76/142/47 79/143/47 77/144/47 74/67/47
f 75/66/48 76/145/48 74/143/48 73/142/48
f 80/146/49 75/147/49 73/145/49 78/66/49
f 79/131/50 80/148/50 78/147/50 77/146/50
f 78/149/51 73/150/51 74/148/51 77/131/51
f 79/135/52 76/118/52 75/150/52 80/149/52
s 0
f 84/151/5 87/151/53 85/152/5 82/152/53
f 88/151/6 83/151/54 81/152/6 86/152/54
s 1
f 87/127/55 88/33/55 86/62/55 85/61/55
s 0
f 86/153/5 81/153/56 82/152/5 85/152/57
f 87/153/6 84/153/58 83/152/6 88/152/59
f 92/151/5 95/151/60 93/152/5 90/152/61
f 96/151/6 91/151/62 89/152/6 94/152/63
s 1
f 95/36/64 96/154/64 94/155/64 93/113/64
s 0
f 94/153/6 89/153/65 90/152/6 93/152/65
f 95/153/5 92/153/66 91/152/5 96/152/66
s 1
f 100/142/67 103/143/67 101/144/67 98/67/67
f 99/66/68 100/145/68 98/143/68 97/142/68
f 104/146/69 99/147/69 97/145/69 102/66/69
f 103/131/70 104/148/70 102/147/70 101/146/70
f 102/149/71 97/150/71 98/148/71 101/131/71
f 103/135/72 100/118/72 99/150/72 104/149/72
f 108/156/73 105/105/73 106/47/73 107/157/73
f 112/156/73 109/105/73 110/47/73 111/157/73
f 116/156/73 113/105/73 114/47/73 115/157/73
f 120/156/74 117/105/74 118/47/74 119/157/74
f 124/156/75 121/105/75 122/47/75 123/157/75
f 128/156/76 125/105/76 126/47/76 127/157/76
f 132/156/77 129/105/77 130/47/77 131/157/77
f 136/156/77 133/105/77 134/47/77 135/157/77
f 140/156/73 137/105/73 138/47/73 139/157/73
f 144/156/78 141/105/78 142/47/78 143/157/78
f 148/156/79 145/105/79 146/47/79 147/157/79
f 152/156/79 149/105/79 150/47/79 151/157/79
f 156/156/79 153/105/79 154/47/79 155/157/79
f 160/156/80 157/105/80 158/47/80 159/157/80
f 164/156/80 161/105/80 162/47/80 163/157/80
f 168/156/81 165/105/81 166/47/81 167/157/81
f 172/156/81 169/105/81 170/47/81 171/157/81
f 176/156/73 173/105/73 174/47/73 175/157/73
f 180/156/82 177/105/82 178/47/82 179/157/82
f 184/156/82 181/105/82 182/47/82 183/157/82
s 0
f 188/152/83 191/158/6 189/158/84 186/152/6
f 187/152/85 188/158/5 186/158/86 185/152/5
f 192/152/87 187/158/5 185/158/87 190/152/5
f 191/152/88 192/158/6 190/158/89 189/152/6
s 1
f 190/159/90 185/160/90 186/161/90 189/162/90
f 196/134/91 199/99/91 197/163/91 194/164/91
f 195/98/92 196/165/92 194/166/92 193/99/92
f 200/99/93 195/167/93 193/44/93 198/163/93
f 199/165/94 200/168/94 198/169/94 197/166/94
f 198/8/95 193/170/95 194/171/95 197/172/95
f 199/170/96 196/173/96 195/174/96 200/171/96
f 204/175/6 207/129/6 205/176/6 202/177/6
f 203/178/2 204/179/2 202/180/2 201/181/2
f 208/141/5 203/182/5 201/30/5 206/183/5
f 207/172/4 208/184/4 206/185/4 205/186/4
f 206/187/1 201/188/1 202/189/1 205/190/1
f 207/188/3 204/191/3 203/192/3 208/189/3
s 0
f 212/193/6 215/193/97 213/152/6 210/152/97
f 216/193/5 211/193/98 209/152/5 214/152/98
s 1
f 215/103/4 216/178/4 214/181/4 213/25/4
s 0
f 214/193/5 209/193/99 210/152/5 213/152/99
f 215/193/6 212/193/100 211/152/6 216/152/100
f 219/193/5 220/193/101 218/152/5 217/152/2
s 1
f 224/60/98 219/175/98 217/177/98 222/124/98
s 0
f 223/193/5 224/193/102 222/152/5 221/152/4
f 222/152/99 217/194/5 218/194/99 221/152/5
f 223/152/100 220/194/6 219/194/100 224/152/6
f 228/152/103 231/194/6 229/194/103 226/152/6
f 227/152/2 228/195/6 226/195/104 225/152/6
f 232/152/98 227/194/5 225/194/98 230/152/5
f 231/152/105 232/195/6 230/195/4 229/152/6
s 1
f 230/123/99 225/196/99 226/197/99 229/45/99
s 0
f 236/198/6 239/198/106 237/152/6 234/152/107
f 240/198/5 235/198/108 233/152/5 238/152/109
s 1
f 239/199/110 240/200/110 238/201/110 237/185/110
s 0
f 238/151/6 233/151/111 234/152/6 237/152/112
f 239/151/5 236/151/113 235/152/5 240/152/114
f 244/152/106 247/202/6 245/202/107 242/152/6
f 243/152/115 244/158/6 242/158/116 241/152/6
f 248/152/109 243/202/5 241/202/109 246/152/5
f 247/152/117 248/158/5 246/158/117 245/152/5
s 1
f 246/95/118 241/176/118 242/34/118 245/126/118
s 0
f 252/152/119 255/158/6 253/158/119 250/152/6
f 251/152/120 252/158/6 250/158/121 249/152/6
f 256/152/122 251/158/5 249/158/122 254/152/5
f 255/152/123 256/158/5 254/158/124 253/152/5
s 1
f 254/203/125 249/159/125 250/162/125 253/204/125
s 0
f 260/152/126 263/158/6 261/158/126 258/152/6
f 259/152/127 260/158/5 258/158/128 257/152/5
f 264/152/129 259/158/5 257/158/129 262/152/5
f 263/152/130 264/158/6 262/158/131 261/152/6
s 1
f 262/75/132 257/37/132 258/167/132 261/169/132
s 0
f 268/152/133 271/158/6 269/158/134 266/152/6
f 267/152/135 268/158/6 266/158/135 265/152/6
f 272/152/136 267/158/5 265/158/136 270/152/5
f 271/152/137 272/158/5 270/158/138 269/152/5
s 1
f 270/205/139 265/12/139 266/81/139 269/206/139
s 0
f 276/152/140 279/158/6 277/158/141 274/152/6
f 275/152/142 276/158/6 274/158/143 273/152/6
f 280/152/144 275/158/5 273/158/144 278/152/5
f 279/152/145 280/158/5 278/158/146 277/152/5
s 1
f 278/207/147 273/208/147 274/179/147 277/209/147
s 0
f 284/152/148 287/158/6 285/158/148 282/152/6
f 283/152/149 284/158/6 282/158/150 281/152/6
f 288/152/151 283/158/5 281/158/152 286/152/5
f 287/152/153 288/158/5 286/158/153 285/152/5
s 1
f 286/125/154 281/87/154 282/210/154 285/192/154
s 0
f 292/152/155 295/158/6 293/158/155 290/152/6
f 291/152/156 292/158/5 290/158/157 289/152/5
f 296/152/158 291/158/5 289/158/158 294/152/5
f 295/152/159 296/158/6 294/158/160 293/152/6
s 1
f 294/211/161 289/203/161 290/204/161 293/212/161
s 0
f 300/198/6 303/198/106 301/152/6 298/152/107
f 304/198/5 299/198/108 297/152/5 302/152/109
s 1
f 303/184/110 304/174/110 302/200/110 301/199/110
s 0
f 302/151/6 297/151/111 298/152/6 301/152/112
f 303/151/5 300/151/113 299/152/5 304/152/114
s 1
f 308/28/6 311/162/6 309/188/6 306/187/6
s 0
f 307/153/6 308/153/2 306/152/6 305/152/2
f 311/153/6 312/153/4 310/152/6 309/152/4
f 310/152/1 305/194/6 306/194/1 309/152/6
f 311/152/3 308/194/6 307/194/3 312/152/6
f 316/198/6 319/198/162 317/152/6 314/152/163
s 1
f 315/213/164 316/214/164 314/182/164 313/140/164
s 0
f 320/198/5 315/198/165 313/152/5 318/152/166
f 318/151/6 313/151/167 314/152/6 317/152/168
f 319/151/5 316/151/169 315/152/5 320/152/169
f 324/198/6 327/198/162 325/152/6 322/152/163
s 1
f 323/215/164 324/216/164 322/217/164 321/27/164
s 0
f 328/198/5 323/198/165 321/152/5 326/152/166
f 326/151/6 321/151/167 322/152/6 325/152/168
f 327/151/5 324/151/169 323/152/5 328/152/169
f 332/152/170 335/202/6 333/202/162 330/152/6
f 331/152/171 332/158/5 330/158/172 329/152/5
f 336/152/165 331/202/5 329/202/173 334/152/5
f 335/152/174 336/158/6 334/158/175 333/152/6
s 1
f 334/218/176 329/211/176 330/212/176 333/217/176
s 0
f 340/152/177 343/158/6 341/158/177 338/152/6
f 339/152/178 340/158/5 338/158/179 337/152/5
f 344/152/180 339/158/5 337/158/180 342/152/5
f 343/152/181 344/158/6 342/158/181 341/152/6
s 1
f 342/160/182 337/219/182 338/220/182 341/161/182
s 0
f 348/152/183 351/158/6 349/158/184 346/152/6
f 347/152/185 348/158/5 346/158/185 345/152/5
f 352/152/186 347/158/5 345/158/187 350/152/5
f 351/152/188 352/158/6 350/158/188 349/152/6
s 1
f 350/219/189 345/221/189 346/46/189 349/220/189
s 0
f 356/152/190 359/158/6 357/158/190 354/152/6
f 355/152/191 356/158/6 354/158/192 353/152/6
f 360/152/193 355/158/5 353/158/193 358/152/5
f 359/152/194 360/158/5 358/158/195 357/152/5
s 1
f 358/221/196 353/222/196 354/223/196 357/46/196
s 0
f 364/152/197 367/158/6 365/158/198 362/152/6
f 363/152/199 364/158/5 362/158/200 361/152/5
f 368/152/201 363/158/5 361/158/201 366/152/5
f 367/152/202 368/158/6 366/158/203 365/152/6
s 1
f 366/222/204 361/156/204 362/157/204 365/223/204
s 0
f 372/152/205 375/194/6 373/194/206 370/152/6
f 371/152/207 372/195/5 370/195/208 369/152/5
f 376/152/209 371/194/5 369/194/209 374/152/5
f 375/152/210 376/195/6 374/195/211 373/152/6
s 1
f 374/196/212 369/93/212 370/224/212 373/197/212
s 0
f 380/153/6 383/153/206 381/152/6 378/152/206
s 1
f 379/183/213 380/29/213 378/190/213 377/224/213
s 0
f 384/153/5 379/153/209 377/152/5 382/152/209
f 382/193/5 377/193/214 378/152/5 381/152/215
f 383/193/6 380/193/216 379/152/6 384/152/217
f 387/153/5 388/153/207 386/152/5 385/152/208
s 1
f 392/162/218 387/46/218 385/191/218 390/188/218
s 0
f 391/153/6 392/153/219 390/152/6 389/152/210
f 390/152/215 385/194/5 386/194/220 389/152/5
f 391/152/221 388/194/6 387/194/222 392/152/6
s 1
f 396/14/205 399/207/205 397/209/205 394/104/205
s 0
f 395/151/5 396/151/207 394/152/5 393/152/208
f 399/151/6 400/151/219 398/152/6 397/152/210
f 398/152/215 393/194/5 394/194/220 397/152/5
f 399/152/221 396/194/6 395/194/222 400/152/6
s 1
f 404/224/223 407/225/223 405/226/223 402/227/223
f 403/228/224 404/224/224 402/227/224 401/229/224
f 408/189/225 403/210/225 401/230/225 406/231/225
f 407/225/226 408/189/226 406/231/226 405/226/226
f 406/232/227 401/233/227 402/227/227 405/226/227
f 407/231/228 404/226/228 403/232/228 408/234/228
f 412/235/229 415/236/229 413/237/229 410/238/229
f 411/90/230 412/235/230 410/238/230 409/174/230
f 416/63/231 411/239/231 409/240/231 414/241/231
f 415/236/232 416/63/232 414/241/232 413/237/232
f 414/242/233 409/243/233 410/238/233 413/237/233
f 415/241/234 412/237/234 411/242/234 416/244/234
f 420/245/235 423/246/235 421/247/235 418/248/235
f 419/164/236 420/245/236 418/248/236 417/249/236
f 424/250/237 419/228/237 417/229/237 422/251/237
f 423/246/238 424/250/238 422/251/238 421/247/238
f 422/252/239 417/253/239 418/248/239 421/247/239
f 423/251/240 420/247/240 419/252/240 424/254/240
f 428/255/241 431/256/241 429/257/241 426/258/241
f 427/186/242 428/255/242 426/258/242 425/179/242
f 432/259/243 427/50/243 425/65/243 430/260/243
f 431/256/244 432/259/244 430/260/244 429/257/244
f 430/261/245 425/262/245 426/258/245 429/257/245
f 431/260/246 428/257/246 427/261/246 432/263/246
