# Blender 4.5.14 LTS
# www.blender.org
mtllib lying_2.mtl
o Body
v 0.250000 0.036945 0.381614
v 0.250000 0.286945 0.381614
v 0.250000 0.036945 -0.368386
v 0.250000 0.286945 -0.368386
v -0.250000 0.286945 0.381614
v -0.250000 0.036945 0.381614
v -0.250000 0.286945 -0.368386
v -0.250000 0.036945 -0.368386
v -0.002348 0.177916 0.700365
v -0.002348 0.177916 0.387865
v -0.002348 -0.072084 0.700365
v -0.002348 -0.072084 0.387865
v -0.186723 0.177916 0.387865
v -0.186723 0.177916 0.700365
v -0.186723 -0.072084 0.387865
v -0.186723 -0.072084 0.700365
v 0.178666 0.137271 0.786587
v 0.200124 0.133487 0.537538
v 0.156960 0.014170 0.786587
v 0.178418 0.010386 0.537538
v 0.016175 0.165923 0.521196
v -0.005282 0.169706 0.770245
v -0.005531 0.042822 0.521196
v -0.026989 0.046605 0.770245
v 0.444853 0.011203 0.415676
v 0.439440 0.012832 0.353432
v 0.073240 -0.028171 0.446958
v 0.067827 -0.026542 0.384715
v 0.420242 0.199232 0.359980
v 0.425654 0.197603 0.422224
v 0.048629 0.159858 0.391262
v 0.054041 0.158229 0.453506
v 0.207176 0.166766 0.800620
v 0.220015 0.185694 0.693663
v 0.185508 0.030416 0.773890
v 0.198348 0.049344 0.666933
v 0.128041 0.201912 0.685492
v 0.115201 0.182984 0.792449
v 0.106373 0.065562 0.658762
v 0.093534 0.046634 0.765719
v 0.149008 0.175009 0.694492
v 0.212024 0.173376 0.404387
v 0.116810 0.070677 0.688085
v 0.179825 0.069044 0.397980
v 0.037308 0.229646 0.366119
v -0.025707 0.231279 0.656224
v 0.005110 0.125315 0.359712
v -0.057906 0.126947 0.649817
v 0.122653 0.177916 0.719115
v 0.122653 0.177916 0.531615
v 0.122653 -0.072084 0.719115
v 0.122653 -0.072084 0.531615
v -0.002348 0.177916 0.531615
v -0.002348 0.177916 0.719115
v -0.002348 -0.072084 0.531615
v -0.002348 -0.072084 0.719115
v -0.068556 0.045236 0.754773
v -0.053299 0.231464 0.770340
v -0.056390 0.238219 0.692569
v -0.071647 0.051990 0.677001
v 0.180853 0.097063 0.675680
v 0.347727 -0.002874 0.734206
v 0.358731 0.074382 0.730466
v 0.169850 0.019807 0.679421
v 0.358713 0.094423 0.774869
v 0.466594 0.109926 0.765689
v 0.376332 -0.007995 0.808972
v 0.484213 0.007508 0.799792
v 0.462831 0.074810 0.662173
v 0.354950 0.059308 0.671353
v 0.480451 -0.027608 0.696276
v 0.372570 -0.043110 0.705456
v -0.029238 0.090322 0.884887
v -0.075778 0.096275 0.926178
v -0.043577 0.097319 0.867718
v -0.090116 0.103271 0.909009
v 0.003730 0.094153 0.846091
v -0.053079 0.106129 0.869233
v -0.003774 0.099965 0.824662
v -0.060583 0.111940 0.847803
v 0.102595 0.205670 0.580873
v 0.044741 0.208726 0.604323
v 0.094351 0.211635 0.559759
v 0.036498 0.214691 0.583209
v 0.027842 0.237577 0.491972
v 0.038382 0.222547 0.551715
v 0.050712 0.235314 0.487368
v 0.061251 0.220284 0.547111
v 0.117877 0.201231 0.596769
v 0.094251 0.197896 0.654535
v 0.097101 0.208468 0.588689
v 0.073475 0.205133 0.646455
v -0.069030 0.181397 0.612014
v -0.115600 0.171913 0.652604
v -0.084531 0.188288 0.595840
v -0.131100 0.178804 0.636431
v -0.014216 0.183746 0.573422
v -0.036438 0.166848 0.629341
v -0.036029 0.188216 0.566104
v -0.058250 0.171318 0.622023
v -0.030159 0.187778 0.558075
v -0.087417 0.176260 0.580327
v -0.039505 0.195431 0.537990
v -0.096762 0.183913 0.560242
v -0.105459 0.197342 0.468594
v -0.091922 0.175112 0.525417
v -0.082599 0.200121 0.464235
v -0.069062 0.177891 0.521058
v 0.124422 0.192786 0.697509
v 0.064532 0.210266 0.693794
v 0.126821 0.196098 0.674431
v 0.066930 0.213578 0.670716
v 0.009318 0.117281 0.876969
v 0.018551 0.055508 0.879231
v 0.018474 0.054639 0.855809
v 0.009241 0.116412 0.853547
v 0.182797 0.201117 0.701641
v 0.154332 0.173011 0.749663
v 0.162021 0.208354 0.693561
v 0.133556 0.180248 0.741583
v 0.454108 0.089977 0.699663
v 0.468028 0.127479 0.651641
v 0.446139 0.125257 0.643562
v 0.432220 0.087755 0.691583
v 0.397694 0.106419 0.763381
v 0.415289 0.066063 0.719018
v 0.392819 0.062347 0.713486
v 0.375224 0.102704 0.757849
v 0.134940 0.193688 0.550165
v 0.102053 0.193755 0.603312
v 0.116018 0.201033 0.538446
v 0.083130 0.201099 0.591594
v 0.323801 0.198952 0.420490
v 0.265156 0.189800 0.440067
v 0.316171 0.200567 0.398388
v 0.257526 0.191415 0.417965
v 0.396539 0.195932 0.405262
v 0.335252 0.187667 0.414307
v 0.392844 0.198118 0.382221
v 0.331557 0.189854 0.391266
v -0.055459 0.197243 0.055564
v 0.003387 0.217856 0.059864
v 0.006763 0.212944 0.037197
v -0.052083 0.192331 0.032898
v 0.015695 0.214324 0.041371
v -0.016140 0.182758 -0.002176
v 0.033801 0.216395 0.026634
v 0.001966 0.184829 -0.016913
v -0.003830 0.202338 0.052366
v 0.052558 0.224913 0.067096
v 0.059716 0.221417 0.045054
v 0.003327 0.198842 0.030324
v 0.031260 0.194944 -0.026750
v 0.084730 0.206387 -0.057018
v 0.092994 0.217611 -0.038176
v 0.039524 0.206169 -0.007907
v 0.159750 0.194757 -0.018540
v 0.159750 0.257257 -0.018540
v 0.200333 0.194757 -0.201596
v 0.200333 0.257257 -0.201596
v -0.197208 0.257257 -0.097676
v -0.197208 0.194757 -0.097676
v -0.156625 0.257257 -0.280731
v -0.156625 0.194757 -0.280731
v 0.231564 0.131259 0.312732
v 0.236990 0.193521 0.312258
v 0.209775 0.131259 0.063684
v 0.215201 0.193521 0.063209
v 0.050915 0.209863 0.328537
v 0.045488 0.147601 0.329012
v 0.029126 0.209863 0.079489
v 0.023699 0.147601 0.079963
v 0.226054 0.318045 0.062260
v 0.247843 0.318045 0.311308
v 0.236990 0.193521 0.312258
v 0.215201 0.193521 0.063209
v 0.252232 0.317660 0.310886
v 0.226117 0.318040 0.062254
v 0.068946 0.486555 0.330396
v 0.042830 0.486935 0.081764
v 0.221826 0.201067 0.061245
v 0.216602 0.325908 0.057714
v 0.232669 0.323075 -0.066217
v 0.237894 0.198234 -0.062685
v 0.219432 0.324433 0.058115
v 0.243534 0.320183 -0.127781
v 0.114981 0.391424 0.043041
v 0.139083 0.387174 -0.142855
v 0.224438 0.138647 0.063011
v 0.221826 0.201067 0.061245
v 0.240506 0.135814 -0.060920
v 0.237894 0.198234 -0.062685
v 0.036047 0.192617 0.037352
v 0.038659 0.130196 0.039118
v 0.052115 0.189783 -0.086579
v 0.054727 0.127363 -0.084813
v -0.062756 0.424919 0.035504
v -0.086858 0.420669 -0.150392
v -0.219432 0.324433 0.058115
v -0.243534 0.320183 -0.127781
v -0.038659 0.130196 0.039118
v -0.036047 0.192617 0.037352
v -0.054727 0.127363 -0.084813
v -0.052115 0.189783 -0.086579
v -0.221826 0.201067 0.061245
v -0.224438 0.138647 0.063011
v -0.237894 0.198234 -0.062685
v -0.240506 0.135814 -0.060920
v -0.232669 0.323075 -0.066217
v -0.216602 0.325908 0.057714
v -0.221826 0.201067 0.061245
v -0.237894 0.198234 -0.062685
v -0.114767 0.444331 0.325518
v -0.088652 0.444711 0.076886
v -0.252232 0.317660 0.310886
v -0.226117 0.318040 0.062254
v -0.236990 0.193521 0.312258
v -0.247843 0.318045 0.311308
v -0.226054 0.318045 0.062260
v -0.215201 0.193521 0.063209
v -0.045488 0.147601 0.329012
v -0.050915 0.209863 0.328537
v -0.023699 0.147601 0.079963
v -0.029126 0.209863 0.079489
v -0.236990 0.193521 0.312258
v -0.231564 0.131259 0.312732
v -0.215201 0.193521 0.063209
v -0.209775 0.131259 0.063684
v -0.243750 0.286945 0.319114
v -0.243750 0.099445 0.319114
v -0.243750 0.286945 -0.243386
v -0.243750 0.099445 -0.243386
v 0.059375 0.101007 0.319114
v 0.059375 0.163507 0.319114
v 0.059375 0.101007 -0.243386
v 0.059375 0.163507 -0.243386
v -0.056250 0.163507 0.319114
v -0.056250 0.101007 0.319114
v -0.056250 0.163507 -0.243386
v -0.056250 0.101007 -0.243386
v 0.158660 0.223533 0.005131
v 0.162615 0.283302 -0.012709
v 0.171596 0.205259 -0.053222
v 0.175551 0.265028 -0.071062
v -0.194344 0.283302 -0.091845
v -0.198299 0.223533 -0.074005
v -0.181407 0.265028 -0.150197
v -0.185362 0.205259 -0.132357
v 0.181569 0.215053 -0.139714
v 0.185555 0.277267 -0.144167
v 0.181861 0.210572 -0.202052
v 0.185848 0.272786 -0.206505
v -0.179322 0.300404 -0.147543
v -0.183308 0.238190 -0.143089
v -0.179029 0.295923 -0.209881
v -0.183015 0.233709 -0.205428
v 0.158660 0.223532 -0.119869
v 0.162615 0.283302 -0.137709
v 0.171596 0.205259 -0.178222
v 0.175551 0.265028 -0.196062
v -0.194344 0.283302 -0.216845
v -0.198299 0.223532 -0.199005
v -0.181407 0.265028 -0.275198
v -0.185362 0.205259 -0.257357
v 0.162704 0.208719 -0.057057
v 0.168381 0.269369 -0.071044
v 0.173063 0.193950 -0.116897
v 0.178740 0.254600 -0.130884
v -0.190655 0.287603 -0.137694
v -0.196332 0.226953 -0.123708
v -0.180297 0.272834 -0.197534
v -0.185973 0.212184 -0.183548
v -0.029982 0.211462 0.330369
v -0.035408 0.273725 0.329894
v -0.008193 0.211462 0.081320
v -0.013619 0.273724 0.080845
v -0.174965 0.261468 0.317684
v -0.169539 0.199206 0.318159
v -0.153176 0.261468 0.068636
v -0.147750 0.199206 0.069110
v 0.034375 0.199445 0.444114
v 0.034375 0.261945 0.444114
v 0.034375 0.199445 0.256614
v 0.034375 0.261945 0.256614
v -0.028125 0.261945 0.444114
v -0.028125 0.199445 0.444114
v -0.028125 0.261945 0.256614
v -0.028125 0.199445 0.256614
v -0.054712 0.207377 0.077250
v -0.060138 0.269639 0.076775
v -0.050626 0.207377 0.030553
v -0.056053 0.269639 0.030079
v -0.153176 0.261468 0.068636
v -0.147750 0.199206 0.069110
v -0.149091 0.261468 0.021939
v -0.143664 0.199206 0.022414
v 0.050000 0.199445 0.319114
v 0.050000 0.261945 0.319114
v 0.050000 0.199445 0.256614
v 0.050000 0.261945 0.256614
v 0.034375 0.261945 0.319114
v 0.034375 0.199445 0.319114
v 0.034375 0.261945 0.256614
v 0.034375 0.199445 0.256614
v 0.246875 0.099445 -0.243386
v 0.246875 0.286945 -0.243386
v -0.243750 0.286945 -0.243386
v -0.243750 0.099445 -0.243386
v 0.246875 0.099445 0.319114
v 0.246875 0.286945 0.319114
v -0.243750 0.286945 0.319114
v -0.243750 0.099445 0.319114
v 0.246875 0.099445 0.319114
v 0.246875 0.099445 -0.243386
v -0.243750 0.099445 0.319114
v -0.243750 0.099445 -0.243386
v 0.246875 0.286945 0.319114
v 0.246875 0.099445 0.319114
v 0.246875 0.286945 -0.243386
v 0.246875 0.099445 -0.243386
v 0.383995 0.011301 0.419474
v 0.367662 0.012594 0.392863
v 0.264352 0.016765 0.493170
v 0.248019 0.018058 0.466559
v 0.347153 0.012437 0.478839
v 0.330820 0.013730 0.452228
v 0.240803 0.017294 0.544347
v 0.224471 0.018586 0.517736
v 0.392161 0.010655 0.432780
v 0.367662 0.012593 0.392864
v 0.425204 0.137529 0.363615
v 0.449703 0.135590 0.403531
v 0.401910 0.020272 0.448199
v 0.380113 0.026897 0.407232
v 0.411045 0.082499 0.399767
v 0.432841 0.075874 0.440734
v 0.409305 0.078548 0.396233
v 0.432920 0.077419 0.436709
v 0.445077 0.107246 0.430450
v 0.421462 0.108376 0.389973
v 0.445382 0.124644 0.428256
v 0.423357 0.102775 0.393129
v 0.440402 0.153486 0.413423
v 0.418378 0.131617 0.378295
v 0.322650 0.160022 0.567415
v 0.307731 0.148819 0.610417
v 0.310660 0.190336 0.571153
v 0.295741 0.179133 0.614154
v 0.306444 0.052709 0.579342
v 0.290336 0.062124 0.622344
v 0.320007 0.114740 0.570841
v 0.303899 0.124155 0.613843
v 0.297591 -0.005716 0.605855
v 0.180761 0.006250 0.895448
v 0.312686 0.182736 0.604158
v 0.195855 0.194701 0.893751
v 0.297591 -0.005716 0.605855
v 0.124333 0.007528 0.535411
v 0.180761 0.006250 0.895448
v 0.007503 0.019493 0.825003
v 0.274225 -0.003323 0.663774
v 0.216473 0.001092 0.640292
v 0.289320 0.185129 0.662077
v 0.231567 0.189543 0.638595
v -0.415031 0.219149 0.389718
v -0.403804 0.197462 0.332186
v -0.059733 0.147627 0.486012
v -0.048506 0.125940 0.428480
v -0.453429 0.025286 0.387405
v -0.464656 0.046973 0.444937
v -0.098131 -0.046236 0.483699
v -0.109357 -0.024549 0.541231
v -0.301074 0.029080 0.792815
v -0.361659 0.081422 0.490745
v 0.005265 0.027440 0.731090
v -0.055320 0.079782 0.429021
v -0.365713 -0.023325 0.473408
v -0.305129 -0.075668 0.775478
v -0.059374 -0.024965 0.411683
v 0.001211 -0.077308 0.713753
v -0.052391 0.126779 0.955342
v -0.043761 0.221123 0.723988
v 0.109325 0.036958 0.924747
v 0.117956 0.131302 0.693393
v -0.169985 0.022991 0.638483
v -0.178615 -0.071353 0.869837
v -0.008268 -0.066830 0.607888
v -0.016899 -0.161174 0.839242
v -0.311795 0.202843 0.819763
v -0.400094 0.149060 0.855450
v -0.349811 0.197308 0.717357
v -0.438111 0.143525 0.753044
v -0.347932 0.053983 0.841224
v -0.259633 0.107766 0.805538
v -0.385949 0.048448 0.738818
v -0.297650 0.102231 0.703132
v -0.266261 0.175007 0.856852
v -0.300229 0.172517 0.723637
v -0.085162 0.159053 0.810972
v -0.119130 0.156563 0.677757
v -0.309980 0.047991 0.728451
v -0.276012 0.050481 0.861666
v -0.128881 0.032037 0.682571
v -0.094913 0.034527 0.815786
v -0.434323 0.121003 0.464728
v -0.424116 0.107032 0.438705
v -0.343398 0.021791 0.516126
v -0.353606 0.035762 0.542149
v -0.408656 0.097088 0.525160
v -0.398449 0.083118 0.499137
v -0.326700 0.007348 0.567956
v -0.336907 0.021319 0.593979
v -0.372682 0.240848 0.424567
v -0.357371 0.219892 0.385533
v -0.418960 0.100030 0.425722
v -0.434271 0.120985 0.464757
v -0.407911 0.193605 0.466538
v -0.390624 0.177577 0.426023
v -0.414932 0.119648 0.438569
v -0.432219 0.135677 0.479084
v -0.391176 0.221751 0.453596
v -0.377066 0.200952 0.414029
v -0.392772 0.173524 0.422846
v -0.406882 0.194323 0.462413
v -0.357300 0.211965 0.400837
v -0.352543 0.245263 0.433485
v -0.382530 0.199227 0.417506
v -0.377773 0.232525 0.450153
v -0.322988 0.215090 0.675910
v -0.324258 0.229410 0.631293
v -0.347921 0.207578 0.624960
v -0.346651 0.193258 0.669576
v -0.342106 0.193298 0.678652
v -0.349226 0.201984 0.633142
v -0.363719 0.172733 0.629826
v -0.356598 0.164047 0.675336
v -0.366643 0.166217 0.627774
v -0.354994 0.169740 0.673041
v -0.384162 0.105294 0.637024
v -0.372513 0.108817 0.682291
v -0.272170 0.199489 0.968429
v -0.334659 0.225373 0.663336
v -0.407010 0.050702 0.663336
v -0.344521 0.024818 0.968429
v -0.323398 0.220708 0.669115
v -0.150170 0.148955 0.669115
v -0.395749 0.046037 0.669115
v -0.222521 -0.025716 0.669115
v 0.085959 0.290955 -0.029307
v 0.098567 0.281371 -0.089767
v 0.075948 0.284591 -0.094995
v 0.063340 0.294175 -0.034535
v 0.027507 0.284556 -0.069707
v 0.080314 0.280351 -0.102873
v 0.067833 0.280044 -0.122708
v 0.015025 0.284250 -0.089543
v 0.108104 0.263615 -0.135743
v 0.085214 0.274545 -0.078622
v 0.086650 0.266162 -0.144828
v 0.063759 0.277092 -0.087707
v -0.012211 0.282341 -0.179972
v 0.010385 0.283946 -0.121723
v 0.032206 0.282456 -0.130146
v 0.009609 0.280851 -0.188396
v -0.076541 0.284705 0.220693
v -0.063933 0.275121 0.160233
v -0.086552 0.278341 0.155005
v -0.099160 0.287925 0.215465
v -0.134993 0.278306 0.180293
v -0.082186 0.274101 0.147127
v -0.094667 0.273794 0.127292
v -0.147475 0.278000 0.160457
v -0.054396 0.257365 0.114257
v -0.077286 0.268295 0.171378
v -0.075850 0.259912 0.105172
v -0.098741 0.270842 0.162293
v -0.174711 0.276091 0.070028
v -0.152115 0.277696 0.128278
v -0.130294 0.276206 0.119854
v -0.152891 0.274601 0.061604
v 0.069541 0.197243 0.180564
v 0.128387 0.217857 0.184864
v 0.131763 0.212944 0.162197
v 0.072917 0.192331 0.157898
v 0.140695 0.214324 0.166371
v 0.108860 0.182758 0.122824
v 0.158801 0.216395 0.151634
v 0.126966 0.184829 0.108087
v 0.121170 0.202338 0.177366
v 0.177558 0.224913 0.192096
v 0.184716 0.221417 0.170054
v 0.128327 0.198843 0.155324
v 0.156260 0.194944 0.098250
v 0.209730 0.206387 0.067982
v 0.217994 0.217611 0.086824
v 0.164524 0.206169 0.117093
v -0.277674 0.324214 0.344371
v -0.483786 0.203075 0.417468
v -0.469987 0.218661 -0.372827
v -0.676100 0.097522 -0.299731
v -0.357658 -0.012766 0.415414
v -0.151545 0.108373 0.342317
v -0.549971 -0.118320 -0.301785
v -0.343859 0.002819 -0.374882
v 0.065127 0.111368 -0.420912
v -0.027766 0.343117 -0.408134
v -0.168803 0.056773 -1.131402
v -0.261696 0.288522 -1.118625
v -0.246377 0.251132 -0.329088
v -0.153483 0.019383 -0.341866
v -0.480307 0.196537 -1.039579
v -0.387413 -0.035212 -1.052356
v 0.357459 -0.008619 0.347415
v 0.540216 0.160494 0.369788
v 0.550418 -0.122451 -0.368343
v 0.733175 0.046662 -0.345970
v 0.382220 0.340663 0.298541
v 0.199463 0.171550 0.276167
v 0.575178 0.226831 -0.417217
v 0.392421 0.057718 -0.439590
v 0.199035 0.044552 -0.295892
v 0.293832 0.274283 -0.323045
v 0.262302 -0.068861 -1.034563
v 0.357098 0.160870 -1.061716
v 0.063465 0.365357 -0.356759
v -0.031332 0.135626 -0.329606
v 0.126731 0.251944 -1.095430
v 0.031935 0.022213 -1.068277
vn -0.0000 1.0000 -0.0000
vn 1.0000 -0.0000 -0.0000
vn -0.0000 -1.0000 -0.0000
vn -1.0000 -0.0000 -0.0000
vn -0.0000 -0.0000 1.0000
vn -0.0000 -0.0000 -1.0000
vn 0.0858 -0.0151 -0.9962
vn 0.9811 -0.1730 0.0872
vn -0.0858 0.0151 0.9962
vn -0.9811 0.1730 -0.0872
vn 0.1736 0.9848 -0.0000
vn -0.1736 -0.9848 -0.0000
vn -0.0866 0.0261 -0.9959
vn 0.1024 -0.9941 -0.0349
vn 0.0866 -0.0261 0.9959
vn -0.1024 0.9941 0.0349
vn 0.9910 0.1050 -0.0834
vn -0.9910 -0.1050 0.0834
vn 0.1174 0.1731 -0.9779
vn -0.1174 -0.1731 0.9779
vn 0.1541 0.9696 0.1901
vn -0.1541 -0.9696 -0.1901
vn 0.2123 -0.0055 -0.9772
vn 0.9318 -0.3001 0.2041
vn -0.2123 0.0055 0.9772
vn -0.9318 0.3001 -0.2041
vn 0.2944 0.9539 0.0586
vn -0.2944 -0.9539 -0.0586
vn 0.9959 -0.0777 -0.0463
vn -0.2831 0.0866 0.9552
vn 0.9863 0.1417 -0.0839
vn 0.0344 0.3211 0.9464
vn -0.9863 -0.1417 0.0839
vn -0.0344 -0.3211 -0.9464
vn -0.1611 0.9364 -0.3118
vn 0.1611 -0.9364 0.3118
vn 0.2670 0.9496 0.1640
vn 0.1395 0.9658 0.2184
vn 0.0862 0.9437 0.3194
vn -0.0417 0.9271 0.3726
vn -0.9890 -0.1475 0.0087
vn 0.0822 0.8381 0.5393
vn -0.2797 0.7943 0.5393
vn 0.0399 0.7470 -0.6637
vn -0.1165 0.9868 0.1123
vn -0.3046 0.9205 -0.2448
vn -0.3791 0.8586 -0.3452
vn 0.9763 -0.0000 0.2164
vn -0.9763 -0.0000 -0.2164
vn -0.2164 -0.0000 0.9763
vn 0.2164 -0.0000 -0.9763
vn 0.0868 0.9962 -0.0076
vn 0.9924 -0.0872 -0.0868
vn -0.0868 -0.9962 0.0076
vn -0.9924 0.0872 0.0868
vn 0.0872 -0.0000 0.9962
vn -0.0872 -0.0000 -0.9962
vn 0.6720 0.7373 -0.0695
vn 0.9908 0.0451 0.1274
vn 0.5341 0.8440 0.0500
vn -0.0418 0.9987 -0.0283
vn 0.0418 -0.9987 0.0283
vn -0.9908 -0.0451 -0.1274
vn -0.1285 0.0227 0.9914
vn 0.1285 -0.0227 -0.9914
vn -0.5341 0.8440 0.0500
vn 0.0418 0.9987 -0.0283
vn 0.9908 -0.0451 -0.1274
vn -0.0418 -0.9987 0.0283
vn -0.9908 0.0451 0.1274
vn 0.1285 0.0227 0.9914
vn -0.1285 -0.0227 -0.9914
vn -0.6720 0.7373 -0.0695
vn -0.9924 -0.0872 -0.0868
vn -0.0868 0.9962 -0.0076
vn 0.9924 0.0872 0.0868
vn 0.0868 -0.9962 0.0076
vn -0.0872 -0.0000 0.9962
vn 0.0872 -0.0000 -0.9962
vn 0.0633 0.9563 -0.2854
vn -0.0633 -0.9563 0.2854
vn -0.2070 0.2924 0.9336
vn 0.2070 -0.2924 -0.9336
vn 0.0638 0.9954 -0.0712
vn 0.9980 -0.0633 0.0092
vn -0.0638 -0.9954 0.0712
vn -0.9980 0.0633 -0.0092
vn -0.0047 0.0717 0.9974
vn 0.0047 -0.0717 -0.9974
vn 0.0908 0.9704 -0.2238
vn 0.9820 -0.0499 0.1823
vn -0.0908 -0.9704 0.2238
vn -0.9820 0.0499 -0.1823
vn -0.1657 0.2363 0.9574
vn 0.1657 -0.2363 -0.9574
vn -0.0548 -0.9984 -0.0149
vn -0.7479 0.4572 0.4813
vn -0.7421 0.4762 0.4718
vn 0.7804 -0.4160 -0.4669
vn 0.8696 -0.0987 -0.4838
vn 0.8747 0.2990 0.3814
vn 0.9149 -0.1486 0.3753
vn 0.9240 -0.0706 0.3757
vn -0.0798 -0.9968 0.0090
vn 0.3739 -0.0383 -0.9267
vn 0.1796 -0.3470 -0.9205
vn 0.2647 0.9183 -0.2945
vn -0.1796 0.3470 0.9205
vn -0.2647 -0.9183 0.2945
vn -0.9475 0.1907 -0.2568
vn 0.9475 -0.1907 0.2568
vn -0.1939 0.1675 -0.9666
vn 0.0382 0.9859 0.1632
vn 0.1939 -0.1675 0.9666
vn -0.0382 -0.9859 -0.1632
vn -0.9803 0.0052 0.1975
vn 0.9803 -0.0052 -0.1975
vn 0.0345 0.3774 -0.9254
vn 0.5049 0.7925 0.3420
vn -0.0345 -0.3774 0.9254
vn -0.5049 -0.7925 -0.3420
vn -0.8625 0.4790 0.1632
vn 0.8625 -0.4790 -0.1632
vn -0.8073 -0.4917 0.3263
vn -0.4769 0.8693 0.1301
vn 0.8073 0.4917 -0.3263
vn 0.4769 -0.8693 -0.1301
vn 0.3476 0.0506 0.9363
vn -0.3476 -0.0506 -0.9363
vn -0.2470 -0.0181 -0.9688
vn 0.0780 0.9962 -0.0385
vn 0.2470 0.0181 0.9688
vn -0.0780 -0.9962 0.0385
vn -0.9659 0.0851 0.2447
vn 0.9659 -0.0851 -0.2447
vn 0.7509 0.6578 -0.0586
vn -0.8376 0.2714 -0.4742
vn -0.8485 0.2557 -0.4632
vn -0.8248 0.3231 -0.4640
vn -0.6312 0.5871 -0.5068
vn -0.6922 0.6812 0.2383
vn -0.8842 0.4135 0.2173
vn -0.9292 0.3000 0.2158
vn -0.9020 0.3736 0.2164
vn 0.1671 0.9786 -0.1203
vn -0.0500 -0.9976 0.0469
vn 0.0500 0.9976 -0.0469
vn -0.8244 -0.4846 0.2924
vn -0.5045 0.8634 0.0082
vn 0.8244 0.4846 -0.2924
vn 0.5045 -0.8634 -0.0082
vn 0.2564 0.1407 0.9563
vn -0.2564 -0.1407 -0.9563
vn -0.3716 0.9270 0.0511
vn 0.8744 0.3679 -0.3162
vn 0.3716 -0.9270 -0.0511
vn -0.8744 -0.3679 0.3162
vn 0.3119 0.0728 0.9473
vn -0.3119 -0.0728 -0.9473
vn 0.7310 0.6765 0.0895
vn 0.6320 -0.7207 0.2850
vn -0.7310 -0.6765 -0.0895
vn -0.6320 0.7207 -0.2850
vn -0.2573 0.1518 0.9543
vn 0.2573 -0.1518 -0.9543
vn 0.3792 0.9189 -0.1086
vn 0.9215 -0.3643 0.1349
vn -0.3792 -0.9189 0.1086
vn -0.9215 0.3643 -0.1349
vn -0.0844 0.1512 0.9849
vn 0.0844 -0.1512 -0.9849
vt 0.382812 0.539062
vt 0.445312 0.539062
vt 0.445312 0.632812
vt 0.382812 0.632812
vt 0.351562 0.539062
vt 0.351562 0.632812
vt 0.476562 0.539062
vt 0.539062 0.539062
vt 0.539062 0.632812
vt 0.476562 0.632812
vt 0.445312 0.664062
vt 0.382812 0.664062
vt 0.507812 0.632812
vt 0.507812 0.664062
vt 0.492188 0.968750
vt 0.515625 0.968750
vt 0.515625 1.000000
vt 0.492188 1.000000
vt 0.421875 0.664062
vt 0.460938 0.664062
vt 0.460938 0.695312
vt 0.421875 0.695312
vt 0.492188 0.937500
vt 0.515625 0.937500
vt 0.312500 0.546875
vt 0.351562 0.546875
vt 0.351562 0.578125
vt 0.312500 0.578125
vt 0.453125 0.500000
vt 0.476562 0.500000
vt 0.453125 0.539062
vt 0.500000 0.500000
vt 0.500000 0.539062
vt 0.343750 0.476562
vt 0.367188 0.476562
vt 0.367188 0.492188
vt 0.343750 0.492188
vt 0.492188 0.664062
vt 0.492188 0.679688
vt 0.460938 0.679688
vt 0.515625 0.984375
vt 0.539062 0.984375
vt 0.539062 1.000000
vt 0.523438 0.664062
vt 0.523438 0.679688
vt 0.492188 0.906250
vt 0.515625 0.906250
vt 0.492188 0.875000
vt 0.515625 0.875000
vt 0.000000 0.492188
vt 0.023438 0.492188
vt 0.023438 0.539062
vt 0.000000 0.539062
vt 0.523438 0.937500
vt 0.523438 0.984375
vt 0.367188 0.539062
vt 0.343750 0.539062
vt 0.515625 0.890625
vt 0.523438 0.890625
vt 0.320312 0.468750
vt 0.343750 0.468750
vt 0.320312 0.476562
vt 0.523438 0.671875
vt 0.546875 0.671875
vt 0.546875 0.679688
vt 0.515625 0.484375
vt 0.531250 0.484375
vt 0.531250 0.500000
vt 0.515625 0.500000
vt 0.507812 0.468750
vt 0.523438 0.468750
vt 0.523438 0.484375
vt 0.507812 0.484375
vt 0.000000 0.460938
vt 0.015625 0.460938
vt 0.015625 0.476562
vt 0.000000 0.476562
vt 0.523438 0.968750
vt 0.539062 0.968750
vt 0.523438 0.953125
vt 0.539062 0.953125
vt 0.539062 0.937500
vt 0.539062 0.875000
vt 0.539062 0.890625
vt 0.085938 0.625000
vt 0.125000 0.625000
vt 0.125000 0.640625
vt 0.085938 0.640625
vt 0.515625 0.789062
vt 0.539062 0.789062
vt 0.539062 0.804688
vt 0.515625 0.804688
vt 0.367188 0.664062
vt 0.406250 0.664062
vt 0.406250 0.679688
vt 0.367188 0.679688
vt 0.164062 0.476562
vt 0.187500 0.476562
vt 0.187500 0.515625
vt 0.164062 0.515625
vt 0.210938 0.476562
vt 0.210938 0.515625
vt 0.382812 0.468750
vt 0.398438 0.468750
vt 0.398438 0.500000
vt 0.382812 0.500000
vt 0.023438 0.468750
vt 0.046875 0.468750
vt 0.046875 0.500000
vt 0.023438 0.500000
vt 0.414062 0.468750
vt 0.414062 0.500000
vt 0.070312 0.468750
vt 0.070312 0.500000
vt 0.210938 0.460938
vt 0.226562 0.460938
vt 0.226562 0.484375
vt 0.210938 0.484375
vt 0.515625 0.765625
vt 0.531250 0.765625
vt 0.531250 0.789062
vt 0.000000 1.000000
vt 0.031250 0.984375
vt 0.046875 0.984375
vt 0.046875 1.000000
vt 0.031250 1.000000
vt 0.000000 0.617188
vt 0.015625 0.617188
vt 0.015625 0.632812
vt 0.000000 0.632812
vt 0.421875 0.679688
vt 0.226562 0.468750
vt 0.242188 0.468750
vt 0.242188 0.484375
vt 0.515625 0.750000
vt 0.531250 0.750000
vt 0.257812 0.468750
vt 0.257812 0.484375
vt 0.039062 0.953125
vt 0.046875 0.953125
vt 0.046875 0.960938
vt 0.039062 0.960938
vt 0.460938 0.703125
vt 0.507812 0.703125
vt 0.507812 0.726562
vt 0.460938 0.726562
vt 0.015625 0.453125
vt 0.023438 0.453125
vt 0.023438 0.476562
vt 0.507812 0.679688
vt 0.523438 0.914062
vt 0.531250 0.914062
vt 0.531250 0.937500
vt 0.093750 0.804688
vt 0.140625 0.804688
vt 0.140625 0.812500
vt 0.093750 0.812500
vt 0.039062 0.625000
vt 0.085938 0.632812
vt 0.039062 0.632812
vt 0.234375 0.484375
vt 0.234375 0.515625
vt 0.367188 0.843750
vt 0.375000 0.843750
vt 0.375000 0.875000
vt 0.367188 0.875000
vt 0.257812 0.515625
vt 0.289062 0.453125
vt 0.296875 0.453125
vt 0.296875 0.484375
vt 0.289062 0.484375
vt 0.148438 0.625000
vt 0.148438 0.632812
vt 0.125000 0.632812
vt 0.515625 0.515625
vt 0.539062 0.515625
vt 0.539062 0.523438
vt 0.515625 0.523438
vt 0.132812 0.468750
vt 0.148438 0.468750
vt 0.148438 0.500000
vt 0.132812 0.500000
vt 0.203125 0.968750
vt 0.234375 0.968750
vt 0.234375 1.000000
vt 0.203125 1.000000
vt 0.429688 0.468750
vt 0.429688 0.484375
vt 0.414062 0.484375
vt 0.476562 0.476562
vt 0.492188 0.476562
vt 0.492188 0.500000
vt 0.523438 0.500000
vt 0.523438 0.515625
vt 0.500000 0.515625
vt 0.476562 0.460938
vt 0.484375 0.460938
vt 0.484375 0.476562
vt 0.492188 0.484375
vt 0.492188 0.460938
vt 0.085938 0.468750
vt 0.109375 0.468750
vt 0.109375 0.476562
vt 0.085938 0.476562
vt 0.523438 0.906250
vt 0.546875 0.906250
vt 0.546875 0.914062
vt 0.132812 0.476562
vt 0.109375 0.500000
vt 0.531250 0.515625
vt 0.507812 0.859375
vt 0.531250 0.859375
vt 0.531250 0.875000
vt 0.507812 0.875000
vt 0.531250 0.468750
vt 0.523438 0.898438
vt 0.546875 0.898438
vt 0.546875 0.890625
vt 0.531250 0.523438
vt 0.531250 0.539062
vt 0.515625 0.539062
vt 0.281250 0.484375
vt 0.281250 0.515625
vt 0.164062 0.468750
vt 0.164062 0.500000
vt 0.304688 0.484375
vt 0.304688 0.515625
vt 0.304688 0.453125
vt 0.437500 0.484375
vt 0.437500 0.515625
vt 0.414062 0.515625
vt 0.429688 0.453125
vt 0.437500 0.453125
vt 0.187500 0.468750
vt 0.335938 0.578125
vt 0.335938 0.648438
vt 0.312500 0.648438
vt 0.312500 0.476562
vt 0.328125 0.476562
vt 0.328125 0.546875
vt 0.304688 0.445312
vt 0.312500 0.445312
vt 0.312500 0.515625
vt 0.343750 0.546875
vt 0.500000 0.804688
vt 0.507812 0.804688
vt 0.500000 0.875000
vt 0.023438 0.460938
vt 0.039062 0.460938
vt 0.039062 0.468750
vt 0.054688 0.460938
vt 0.054688 0.468750
vt 0.507812 0.851562
vt 0.554688 0.851562
vt 0.554688 0.859375
vt 0.132812 0.460938
vt 0.140625 0.460938
vt 0.140625 0.468750
vt 0.507812 0.843750
vt 0.554688 0.843750
vt 0.539062 0.859375
vt 0.539062 0.867188
vt 0.531250 0.867188
vt 0.507812 0.835938
vt 0.554688 0.835938
vt 0.507812 0.828125
vt 0.554688 0.828125
vt 0.507812 0.820312
vt 0.554688 0.820312
vt 0.148438 0.460938
vt 0.507812 0.812500
vt 0.554688 0.812500
vt 0.156250 0.460938
vt 0.156250 0.468750
vt 0.554688 0.804688
vt 0.507812 0.742188
vt 0.554688 0.742188
vt 0.554688 0.750000
vt 0.507812 0.750000
vt 0.507812 0.734375
vt 0.554688 0.734375
vt 0.164062 0.460938
vt 0.554688 0.726562
vt 0.171875 0.460938
vt 0.171875 0.468750
vt 0.507812 0.718750
vt 0.554688 0.718750
vt 0.507812 0.710938
vt 0.554688 0.710938
vt 0.554688 0.703125
vt 0.179688 0.460938
vt 0.179688 0.468750
vt 0.507812 0.695312
vt 0.554688 0.695312
vt 0.187500 0.460938
vt 0.507812 0.687500
vt 0.554688 0.687500
vt 0.554688 0.679688
vt 0.500000 0.773438
vt 0.515625 0.773438
vt 0.492188 0.453125
vt 0.500000 0.453125
vt 0.500000 0.484375
vt 0.367188 0.468750
vt 0.367188 0.500000
vt 0.507812 0.453125
vt 0.070312 0.460938
vt 0.531250 0.929688
vt 0.546875 0.929688
vt 0.546875 0.937500
vt 0.187500 0.453125
vt 0.195312 0.453125
vt 0.195312 0.476562
vt 0.203125 0.453125
vt 0.203125 0.476562
vt 0.210938 0.453125
vt 0.312500 0.453125
vt 0.320312 0.453125
vt 0.531250 0.781250
vt 0.539062 0.781250
vt 0.531250 0.773438
vt 0.539062 0.773438
vt 0.531250 0.921875
vt 0.546875 0.921875
vt 0.234375 0.460938
vt 0.234375 0.468750
vt 0.539062 0.765625
vt 0.085938 0.460938
vt 0.101562 0.460938
vt 0.101562 0.468750
vt 0.117188 0.460938
vt 0.117188 0.468750
vt 0.242188 0.460938
vt 0.531250 0.757812
vt 0.539062 0.757812
vt 0.250000 0.460938
vt 0.250000 0.468750
vt 0.539062 0.750000
vt 0.257812 0.460938
vt 0.265625 0.460938
vt 0.265625 0.468750
vt 0.156250 0.812500
vt 0.156250 0.835938
vt 0.093750 0.835938
vt 0.421875 0.726562
vt 0.484375 0.726562
vt 0.484375 0.750000
vt 0.421875 0.750000
vt 0.359375 0.679688
vt 0.359375 0.750000
vt 0.164062 0.562500
vt 0.187500 0.562500
vt 0.187500 0.632812
vt 0.164062 0.632812
vt 0.437500 0.460938
vt 0.445312 0.460938
vt 0.445312 0.476562
vt 0.437500 0.476562
vt 0.453125 0.460938
vt 0.453125 0.476562
vt 0.125000 0.460938
vt 0.125000 0.468750
vt 0.390625 0.500000
vt 0.414062 0.539062
vt 0.390625 0.539062
vt 0.453125 0.515625
vt 0.296875 0.968750
vt 0.320312 0.968750
vt 0.320312 0.976562
vt 0.296875 0.976562
vt 0.000000 0.953125
vt 0.023438 0.953125
vt 0.023438 1.000000
vt 0.031250 0.953125
vt 0.453125 0.453125
vt 0.460938 0.453125
vt 0.460938 0.500000
vt 0.218750 0.804688
vt 0.242188 0.804688
vt 0.242188 0.812500
vt 0.218750 0.812500
vt 0.250000 0.843750
vt 0.273438 0.843750
vt 0.273438 0.851562
vt 0.250000 0.851562
vt 0.335938 0.601562
vt 0.351562 0.601562
vt 0.351562 0.640625
vt 0.335938 0.640625
vt 0.000000 0.578125
vt 0.039062 0.578125
vt 0.039062 0.617188
vt 0.039062 0.500000
vt 0.039062 0.539062
vt 0.085938 0.500000
vt 0.015625 0.929688
vt 0.046875 0.929688
vt 0.015625 0.953125
vt 0.250000 0.812500
vt 0.250000 0.835938
vt 0.218750 0.835938
vt 0.281250 0.851562
vt 0.281250 0.875000
vt 0.250000 0.875000
vt 0.328125 0.976562
vt 0.328125 1.000000
vt 0.296875 1.000000
vt 0.000000 0.804688
vt 0.031250 0.804688
vt 0.031250 0.835938
vt 0.000000 0.835938
vt 0.171875 0.929688
vt 0.203125 0.929688
vt 0.203125 0.960938
vt 0.171875 0.960938
vt 0.500000 0.750000
vt 0.460938 0.476562
vt 0.273438 0.468750
vt 0.273438 0.484375
vt 0.289062 0.468750
vt 0.156250 0.804688
vt 0.250000 0.804688
vt 0.281250 0.843750
vt 0.328125 0.968750
vt 0.132812 0.632812
vt 0.132812 0.640625
vt 0.171875 0.632812
vt 0.179688 0.632812
vt 0.179688 0.640625
vt 0.171875 0.640625
vt 0.359375 0.671875
vt 0.367188 0.671875
vt 0.398438 0.875000
vt 0.429688 0.875000
vt 0.429688 0.968750
vt 0.398438 0.968750
vt 0.367188 0.968750
vt 0.460938 0.875000
vt 0.460938 0.968750
vt 0.429688 1.000000
vt 0.398438 1.000000
vt 0.460938 1.000000
vt 0.406250 0.750000
vt 0.437500 0.750000
vt 0.437500 0.843750
vt 0.406250 0.843750
vt 0.375000 0.750000
vt 0.468750 0.750000
vt 0.500000 0.843750
vt 0.468750 0.843750
vt 0.437500 0.875000
vt 0.406250 0.875000
vt 0.468750 0.875000
vt 0.218750 0.515625
vt 0.250000 0.515625
vt 0.250000 0.609375
vt 0.218750 0.609375
vt 0.187500 0.609375
vt 0.312500 0.609375
vt 0.281250 0.609375
vt 0.250000 0.640625
vt 0.218750 0.640625
vt 0.281250 0.640625
vt 0.101562 0.500000
vt 0.101562 0.593750
vt 0.070312 0.593750
vt 0.039062 0.593750
vt 0.164062 0.593750
vt 0.132812 0.593750
vt 0.101562 0.625000
vt 0.070312 0.625000
vt 0.132812 0.625000
s 1
usemtl m_0e5101a4-f8b5-16c1-4082-e6d95e8df925.001
f 4/1/1 7/2/1 5/3/1 2/4/1
f 3/5/2 4/1/2 2/4/2 1/6/2
f 8/7/3 3/8/3 1/9/3 6/10/3
f 7/2/4 8/7/4 6/10/4 5/3/4
f 6/11/5 1/12/5 2/4/5 5/3/5
f 7/13/6 4/3/6 3/11/6 8/14/6
f 12/15/6 15/16/6 13/17/6 10/18/6
f 11/19/2 12/20/2 10/21/2 9/22/2
f 16/23/5 11/24/5 9/16/5 14/15/5
f 15/25/4 16/26/4 14/27/4 13/28/4
f 14/29/1 9/30/1 10/7/1 13/31/1
f 15/30/3 12/32/3 11/33/3 16/7/3
f 20/34/7 23/35/7 21/36/7 18/37/7
f 19/20/8 20/38/8 18/39/8 17/40/8
f 24/41/9 19/42/9 17/43/9 22/17/9
f 23/38/10 24/44/10 22/45/10 21/39/10
f 22/46/11 17/47/11 18/24/11 21/23/11
f 23/48/12 20/49/12 19/47/12 24/46/12
f 28/50/13 31/51/13 29/52/13 26/53/13
f 27/24/14 28/54/14 26/55/14 25/41/14
f 32/37/15 27/36/15 25/56/15 30/57/15
f 31/58/16 32/59/16 30/54/16 29/24/16
f 30/60/17 25/61/17 26/34/17 29/62/17
f 31/63/18 28/64/18 27/65/18 32/45/18
f 36/66/19 39/67/19 37/68/19 34/69/19
f 35/70/8 36/71/8 34/72/8 33/73/8
f 40/74/20 35/75/20 33/76/20 38/77/20
f 39/78/10 40/79/10 38/42/10 37/55/10
f 38/80/21 33/81/21 34/79/21 37/78/21
f 39/54/22 36/82/22 35/81/22 40/80/22
f 44/49/23 47/83/23 45/84/23 42/58/23
f 43/85/24 44/86/24 42/87/24 41/88/24
f 48/89/25 43/90/25 41/91/25 46/92/25
f 47/93/26 48/94/26 46/95/26 45/96/26
f 46/97/27 41/98/27 42/99/27 45/100/27
f 47/98/28 44/101/28 43/102/28 48/99/28
f 52/103/6 55/104/6 53/105/6 50/106/6
f 51/107/2 52/108/2 50/109/2 49/110/2
f 56/104/5 51/111/5 49/112/5 54/105/5
f 55/108/4 56/113/4 54/114/4 53/109/4
f 54/115/1 49/116/1 50/117/1 53/118/1
f 55/119/3 52/120/3 51/121/3 56/89/3
f 60/122/29 59/122/29 58/122/29 57/122/29
f 64/122/30 62/122/30 63/122/30 61/122/30
f 68/123/31 71/124/31 69/125/31 66/126/31
f 67/127/32 68/128/32 66/129/32 65/130/32
f 72/94/33 67/19/33 65/131/33 70/95/33
f 71/132/34 72/133/34 70/134/34 69/117/34
f 70/135/35 65/136/35 66/120/35 69/119/35
f 71/133/36 68/137/36 67/138/36 72/134/36
f 76/139/37 74/140/37 73/141/37 75/142/37
f 80/139/37 78/140/37 77/141/37 79/142/37
f 84/139/38 82/140/38 81/141/38 83/142/38
f 87/139/38 85/140/38 86/141/38 88/142/38
f 92/139/37 90/140/37 89/141/37 91/142/37
f 96/139/39 94/140/39 93/141/39 95/142/39
f 100/139/39 98/140/39 97/141/39 99/142/39
f 104/139/40 102/140/40 101/141/40 103/142/40
f 107/139/40 105/140/40 106/141/40 108/142/40
f 112/139/37 110/140/37 109/141/37 111/142/37
f 115/122/41 114/122/41 113/122/41 116/122/41
f 120/139/42 118/140/42 117/141/42 119/142/42
f 124/139/43 121/140/43 122/141/43 123/142/43
f 128/139/44 125/140/44 126/141/44 127/142/44
f 132/139/37 130/140/37 129/141/37 131/142/37
f 136/139/45 134/140/45 133/141/45 135/142/45
f 140/139/45 138/140/45 137/141/45 139/142/45
f 144/139/46 141/140/46 142/141/46 143/142/46
f 148/139/47 146/140/47 145/141/47 147/142/47
f 152/139/46 149/140/46 150/141/46 151/142/46
f 155/139/47 154/140/47 153/141/47 156/142/47
f 160/143/1 163/144/1 161/145/1 158/146/1
f 159/147/48 160/148/48 158/149/48 157/76/48
f 164/40/3 159/150/3 157/144/3 162/143/3
f 163/151/49 164/152/49 162/153/49 161/54/49
f 162/154/50 157/155/50 158/156/50 161/157/50
f 163/158/51 160/85/51 159/159/51 164/160/51
f 168/118/52 171/161/52 169/162/52 166/102/52
f 167/163/53 168/164/53 166/165/53 165/166/53
f 172/161/54 167/138/54 165/167/54 170/162/54
f 171/168/55 172/169/55 170/170/55 169/171/55
f 170/86/56 165/172/56 166/173/56 169/174/56
f 171/175/57 168/176/57 167/177/57 172/178/57
f 176/179/53 173/180/53 174/181/53 175/182/53
f 178/183/58 180/184/58 179/185/58 177/186/58
f 184/111/59 183/187/59 182/188/59 181/189/59
f 186/190/60 188/191/60 187/192/60 185/30/60
f 192/32/61 195/193/61 193/194/61 190/195/61
f 191/196/59 192/197/59 190/198/59 189/190/59
f 196/199/62 191/66/62 189/69/62 194/192/62
f 195/197/63 196/200/63 194/191/63 193/198/63
f 194/201/64 189/202/64 190/203/64 193/204/64
f 195/205/65 192/206/65 191/207/65 196/151/65
f 198/203/66 200/208/66 199/182/66 197/209/66
f 204/77/67 207/149/67 205/51/67 202/50/67
f 203/193/68 204/68/68 202/210/68 201/194/68
f 208/211/69 203/212/69 201/213/69 206/214/69
f 207/71/70 208/215/70 206/67/70 205/72/70
f 206/216/71 201/217/71 202/206/71 205/205/71
f 207/59/72 204/218/72 203/217/72 208/216/72
f 209/178/70 212/219/70 211/220/70 210/221/70
f 214/138/73 216/222/73 215/223/73 213/167/73
f 219/180/74 220/224/74 217/225/74 218/181/74
f 224/222/75 227/226/75 225/227/75 222/223/75
f 223/169/76 224/228/76 222/226/76 221/170/76
f 228/189/77 223/229/77 221/230/77 226/231/77
f 227/232/74 228/233/74 226/229/74 225/188/74
f 226/202/78 221/179/78 222/208/78 225/203/78
f 227/224/79 224/234/79 223/98/79 228/97/79
f 232/28/2 231/235/2 229/236/2 230/237/2
f 236/238/1 239/239/1 237/240/1 234/25/1
f 235/241/2 236/242/2 234/243/2 233/227/2
f 240/239/3 235/34/3 233/244/3 238/240/3
f 239/245/4 240/246/4 238/214/4 237/247/4
f 238/248/5 233/249/5 234/250/5 237/107/5
f 239/249/6 236/251/6 235/252/6 240/250/6
f 244/253/80 247/254/80 245/255/80 242/211/80
f 243/256/48 244/257/48 242/258/48 241/179/48
f 248/259/81 243/260/81 241/254/81 246/253/81
f 247/212/49 248/261/49 246/262/49 245/263/49
f 246/264/82 241/265/82 242/260/82 245/259/82
f 247/266/83 244/267/83 243/265/83 248/264/83
f 252/268/84 255/269/84 253/267/84 250/266/84
f 251/257/85 252/270/85 250/180/85 249/258/85
f 256/271/86 251/272/86 249/269/86 254/268/86
f 255/270/87 256/273/87 254/274/87 253/180/87
f 254/246/88 249/275/88 250/272/88 253/271/88
f 255/276/89 252/277/89 251/278/89 256/279/89
f 260/280/80 263/281/80 261/277/80 258/276/80
f 259/273/48 260/282/48 258/224/48 257/274/48
f 264/145/81 259/283/81 257/281/81 262/280/81
f 263/282/49 264/284/49 262/285/49 261/224/49
f 262/286/82 257/287/82 258/283/82 261/145/82
f 263/288/83 260/289/83 259/287/83 264/286/83
f 268/144/90 271/290/90 269/289/90 266/288/90
f 267/284/91 268/291/91 266/292/91 265/285/91
f 272/293/92 267/294/92 265/290/92 270/144/92
f 271/291/93 272/295/93 270/234/93 269/292/93
f 270/296/94 265/297/94 266/294/94 269/293/94
f 271/150/95 268/298/95 267/297/95 272/296/95
f 276/299/75 279/300/75 277/92/75 274/245/75
f 275/301/76 276/302/76 274/303/76 273/199/76
f 280/304/77 275/103/77 273/106/77 278/305/77
f 279/302/74 280/306/74 278/73/74 277/303/74
f 278/251/78 273/307/78 274/113/78 277/252/78
f 279/308/79 276/309/79 275/310/79 280/153/79
f 284/311/1 287/312/1 285/313/1 282/98/1
f 283/312/2 284/314/2 282/315/2 281/313/2
f 288/314/3 283/316/3 281/101/3 286/315/3
f 287/317/4 288/318/4 286/62/4 285/238/4
f 286/319/5 281/320/5 282/90/5 285/121/5
f 287/321/6 284/322/6 283/320/6 288/319/6
f 292/323/75 295/324/75 293/309/75 290/308/75
f 291/116/76 292/325/76 290/326/76 289/132/76
f 296/152/77 291/207/77 289/324/77 294/323/77
f 295/120/74 296/327/74 294/322/74 293/321/74
f 294/328/78 289/329/78 290/330/78 293/201/78
f 295/329/79 292/331/79 291/332/79 296/330/79
f 300/325/1 303/333/1 301/133/1 298/326/1
f 299/334/2 300/335/2 298/327/2 297/120/2
f 304/333/3 299/336/3 297/337/3 302/133/3
f 303/136/4 304/338/4 302/335/4 301/334/4
f 302/336/5 297/339/5 298/137/5 301/337/5
f 303/339/6 300/340/6 299/341/6 304/137/6
f 308/157/5 305/342/5 306/343/5 307/344/5
f 311/345/6 310/346/6 309/347/6 312/348/6
f 314/349/1 316/131/1 315/348/1 313/350/1
f 319/351/4 320/352/4 318/353/4 317/354/4
f 323/355/96 324/356/96 322/357/96 321/358/96
f 327/356/96 328/359/96 326/360/96 325/357/96
f 331/122/97 330/122/97 329/122/97 332/122/97
f 335/122/98 334/122/98 333/122/98 336/122/98
f 339/57/99 338/5/99 337/26/99 340/244/99
f 343/331/100 341/361/100 342/362/100 344/332/100
f 348/361/101 346/256/101 345/179/101 347/362/101
f 352/263/102 350/262/102 349/83/102 351/213/102
f 356/363/103 354/112/103 353/364/103 355/365/103
f 360/231/104 358/366/104 357/31/104 359/364/104
f 362/367/105 364/368/105 363/369/105 361/370/105
f 368/371/106 371/372/106 369/373/106 366/122/106
f 367/372/107 368/374/107 366/126/107 365/373/107
f 372/100/108 367/99/108 365/352/108 370/351/108
f 371/375/109 372/376/109 370/377/109 369/29/109
f 370/378/110 365/379/110 366/380/110 369/381/110
f 371/382/111 368/383/111 367/384/111 372/385/111
f 376/386/112 379/387/112 377/388/112 374/389/112
f 375/390/113 376/391/113 374/392/113 373/127/113
f 380/110/114 375/393/114 373/394/114 378/52/114
f 379/53/115 380/394/115 378/391/115 377/390/115
f 378/358/116 373/360/116 374/366/116 377/230/116
f 379/307/117 376/328/117 375/395/117 380/114/117
f 384/396/118 387/397/118 385/140/118 382/398/118
f 383/381/119 384/399/119 382/400/119 381/401/119
f 388/385/120 383/402/120 381/403/120 386/404/120
f 387/370/121 388/405/121 386/406/121 385/407/121
f 386/408/122 381/409/122 382/410/122 385/411/122
f 387/412/123 384/413/123 383/414/123 388/415/123
f 392/123/124 395/124/124 393/125/124 390/126/124
f 391/127/125 392/128/125 390/129/125 389/130/125
f 396/94/126 391/19/126 389/131/126 394/95/126
f 395/132/127 396/133/127 394/134/127 393/117/127
f 394/135/128 389/136/128 390/120/128 393/119/128
f 395/133/129 392/137/129 391/138/129 396/134/129
f 400/235/130 403/27/130 401/387/130 398/386/130
f 399/416/131 400/135/131 398/300/131 397/299/131
f 404/417/132 399/190/132 397/30/132 402/377/132
f 403/195/133 404/175/133 402/221/133 401/33/133
f 402/137/134 397/418/134 398/419/134 401/138/134
f 403/418/135 400/420/135 399/171/135 404/419/135
f 408/122/136 407/122/136 406/122/136 405/122/136
f 412/122/136 411/122/136 410/122/136 409/122/136
f 416/155/137 413/421/137 414/342/137 415/156/137
f 420/379/138 417/422/138 418/399/138 419/380/138
f 424/383/139 421/423/139 422/402/139 423/384/139
f 428/368/140 426/424/140 425/405/140 427/369/140
f 432/174/141 429/425/141 430/426/141 431/87/141
f 436/427/142 433/428/142 434/429/142 435/430/142
f 440/431/143 438/432/143 437/96/143 439/349/143
f 444/305/144 441/363/144 442/365/144 443/56/144
f 446/346/6 448/145/6 447/279/6 445/347/6
f 452/139/145 449/140/145 450/141/145 451/142/145
f 455/122/146 454/122/146 453/122/146 456/122/146
f 460/139/145 458/140/145 457/141/145 459/142/145
f 464/139/147 461/140/147 462/141/147 463/142/147
f 468/139/145 465/140/145 466/141/145 467/142/145
f 471/122/146 470/122/146 469/122/146 472/122/146
f 476/139/145 474/140/145 473/141/145 475/142/145
f 480/139/147 477/140/147 478/141/147 479/142/147
f 484/139/46 481/140/46 482/141/46 483/142/46
f 488/139/47 486/140/47 485/141/47 487/142/47
f 492/139/46 489/140/46 490/141/46 491/142/46
f 495/139/47 494/140/47 493/141/47 496/142/47
f 500/433/148 503/434/148 501/435/148 498/436/148
f 499/166/149 500/433/149 498/436/149 497/437/149
f 504/438/150 499/48/150 497/15/150 502/439/150
f 503/434/151 504/438/151 502/439/151 501/435/151
f 502/440/152 497/441/152 498/436/152 501/435/152
f 503/439/153 500/435/153 499/440/153 504/442/153
f 508/443/154 511/444/154 509/445/154 506/446/154
f 507/447/155 508/443/155 506/446/155 505/164/155
f 512/448/156 507/416/156 505/449/156 510/450/156
f 511/444/157 512/448/157 510/450/157 509/445/157
f 510/451/158 505/452/158 506/446/158 509/445/158
f 511/450/159 508/445/159 507/451/159 512/453/159
f 516/454/160 519/455/160 517/456/160 514/457/160
f 515/99/161 516/454/161 514/457/161 513/458/161
f 520/223/162 515/243/162 513/459/162 518/460/162
f 519/455/163 520/223/163 518/460/163 517/456/163
f 518/461/164 513/462/164 514/457/164 517/456/164
f 519/460/165 516/456/165 515/461/165 520/463/165
f 524/114/166 527/464/166 525/465/166 522/466/166
f 523/393/167 524/114/167 522/466/167 521/467/167
f 528/182/168 523/225/168 521/468/168 526/469/168
f 527/464/169 528/182/169 526/469/169 525/465/169
f 526/470/170 521/471/170 522/466/170 525/465/170
f 527/469/171 524/465/171 523/470/171 528/472/171
