# Blender 4.5.14 LTS
# www.blender.org
mtllib sitting_1.mtl
o Body
v 0.250000 0.801609 0.477990
v 0.250000 0.823397 0.228941
v 0.250000 0.054463 0.412623
v 0.250000 0.076251 0.163575
v -0.250000 0.823397 0.228941
v -0.250000 0.801609 0.477990
v -0.250000 0.076251 0.163575
v -0.250000 0.054463 0.412623
v 0.096897 1.218700 0.335446
v 0.100680 0.972469 0.292363
v 0.219998 1.216808 0.357069
v 0.223781 0.970578 0.313987
v 0.068245 0.940158 0.474188
v 0.064461 1.186388 0.517270
v 0.191346 0.938266 0.495811
v 0.187562 1.184497 0.538894
v 0.207176 1.229385 0.374329
v 0.220015 1.124485 0.346151
v 0.185509 1.190873 0.507830
v 0.198348 1.085973 0.479653
v 0.128041 1.117759 0.329283
v 0.115202 1.222659 0.357461
v 0.106373 1.079246 0.462785
v 0.093534 1.184147 0.490962
v 0.149008 1.124380 0.356868
v 0.212023 0.835236 0.333210
v 0.116809 1.108904 0.460245
v 0.179825 0.819760 0.436586
v 0.037308 0.802018 0.273819
v -0.025708 1.091162 0.297477
v 0.005109 0.786542 0.377195
v -0.057906 1.075686 0.400853
v 0.122653 1.149162 0.356119
v 0.122653 0.962376 0.339777
v 0.122653 1.127373 0.605167
v 0.122653 0.940587 0.588826
v -0.002348 0.962376 0.339777
v -0.002348 1.149162 0.356119
v -0.002348 0.940587 0.588826
v -0.002348 1.127373 0.605167
v 0.266160 0.864071 0.133153
v 0.263398 0.801635 0.132641
v 0.224169 0.862871 0.505793
v 0.221407 0.800434 0.505280
v 0.077262 0.810040 0.111693
v 0.080024 0.872477 0.112205
v 0.035271 0.808840 0.484332
v 0.038032 0.871277 0.484845
v 0.094252 1.087519 0.341438
v 0.117877 1.030263 0.333081
v 0.097101 1.022845 0.325168
v 0.073475 1.080101 0.333525
v 0.102053 1.036130 0.341099
v 0.134940 0.983179 0.336534
v 0.116018 0.972145 0.328196
v 0.083130 1.025096 0.332762
v 0.061157 1.180745 0.367322
v 0.033051 1.135387 0.334780
v 0.025814 1.125528 0.354774
v 0.053920 1.170886 0.387315
v 0.044741 1.038441 0.326273
v 0.102595 1.014814 0.327274
v 0.094351 0.994300 0.319492
v 0.036498 1.017928 0.318491
v 0.027843 0.929032 0.287740
v 0.038382 0.987238 0.307920
v 0.061251 0.982455 0.309773
v 0.050712 0.924249 0.289593
v 0.064532 1.127706 0.332537
v 0.124423 1.129883 0.350274
v 0.126821 1.107182 0.344964
v 0.066930 1.105005 0.327226
v -0.115599 1.083330 0.367155
v -0.069030 1.043721 0.354168
v -0.084530 1.028210 0.345894
v -0.131100 1.067819 0.358880
v -0.036438 1.059714 0.370172
v -0.014216 1.005481 0.348465
v -0.036029 0.998581 0.343374
v -0.058250 1.052814 0.365082
v -0.087417 1.011707 0.356525
v -0.030159 0.990544 0.343111
v -0.039504 0.971202 0.333737
v -0.096762 0.992365 0.347150
v -0.105458 0.902237 0.325785
v -0.091921 0.956906 0.352883
v -0.069061 0.952806 0.349734
v -0.082598 0.898137 0.322636
v 0.052904 0.882844 0.220131
v 0.056662 0.868505 0.159414
v 0.053434 0.845868 0.164560
v 0.049675 0.860208 0.225277
v 0.070158 0.863106 0.150171
v 0.075354 0.859467 0.087994
v 0.072420 0.836240 0.089108
v 0.067223 0.839880 0.151286
v 0.159750 0.416731 0.285902
v 0.159750 0.422179 0.223640
v 0.200333 0.234372 0.269948
v 0.200333 0.239820 0.207686
v -0.197208 0.343344 0.216743
v -0.197208 0.337897 0.279005
v -0.156625 0.160985 0.200789
v -0.156625 0.155538 0.263051
v 0.231564 0.741209 0.378031
v 0.236990 0.746163 0.315965
v 0.209775 0.493108 0.356326
v 0.215201 0.498062 0.294259
v 0.050914 0.763805 0.301104
v 0.045488 0.758851 0.363171
v 0.029125 0.515704 0.279398
v 0.023699 0.510750 0.341465
v 0.236990 0.746163 0.315965
v 0.247843 0.756070 0.191832
v 0.215201 0.498062 0.294259
v 0.226054 0.507969 0.170126
v 0.247843 0.756070 0.191832
v 0.236990 0.746163 0.315965
v 0.226054 0.507969 0.170126
v 0.215201 0.498062 0.294259
v 0.252232 0.755616 0.192179
v 0.252232 0.755616 0.192179
v 0.226117 0.507963 0.170131
v 0.226117 0.507963 0.170131
v 0.068946 0.789772 0.025627
v 0.068946 0.789772 0.025627
v 0.042831 0.542119 0.003579
v 0.042831 0.542119 0.003579
v 0.221826 0.496763 0.286570
v 0.216602 0.504126 0.161896
v 0.237894 0.373057 0.278591
v 0.232670 0.380420 0.153918
v 0.216602 0.504126 0.161896
v 0.221826 0.496763 0.286570
v 0.232670 0.380420 0.153918
v 0.237894 0.373057 0.278591
v 0.219432 0.504397 0.163401
v 0.219432 0.504397 0.163401
v 0.243534 0.318838 0.151433
v 0.243534 0.318838 0.151433
v 0.114981 0.495219 0.095351
v 0.114981 0.495219 0.095351
v 0.139083 0.309660 0.083383
v 0.139083 0.309660 0.083383
v 0.224438 0.493082 0.348907
v 0.221826 0.496763 0.286570
v 0.240506 0.369376 0.340928
v 0.237894 0.373057 0.278591
v 0.036047 0.472224 0.292906
v 0.038659 0.468543 0.355243
v 0.052115 0.348518 0.284927
v 0.054727 0.344837 0.347264
v -0.062756 0.490630 0.061327
v -0.062756 0.490630 0.061327
v -0.086857 0.305071 0.049358
v -0.086857 0.305071 0.049358
v -0.219432 0.504396 0.163401
v -0.219432 0.504396 0.163401
v -0.243534 0.318837 0.151433
v -0.243534 0.318837 0.151433
v -0.038659 0.468543 0.355243
v -0.036047 0.472224 0.292906
v -0.054727 0.344837 0.347264
v -0.052115 0.348518 0.284927
v -0.221826 0.496763 0.286570
v -0.224438 0.493082 0.348907
v -0.237894 0.373057 0.278591
v -0.240506 0.369376 0.340928
v -0.221826 0.496763 0.286570
v -0.216602 0.504126 0.161896
v -0.237894 0.373057 0.278591
v -0.232669 0.380420 0.153918
v -0.216602 0.504126 0.161896
v -0.221826 0.496763 0.286570
v -0.232669 0.380420 0.153918
v -0.237894 0.373057 0.278591
v -0.114767 0.781232 0.067265
v -0.114767 0.781232 0.067265
v -0.088652 0.533580 0.045217
v -0.088652 0.533580 0.045217
v -0.252232 0.755615 0.192179
v -0.252232 0.755615 0.192179
v -0.226116 0.507963 0.170130
v -0.226116 0.507963 0.170130
v -0.236990 0.746163 0.315965
v -0.247843 0.756070 0.191832
v -0.215201 0.498062 0.294259
v -0.226054 0.507969 0.170126
v -0.247843 0.756070 0.191832
v -0.236990 0.746163 0.315965
v -0.226054 0.507969 0.170126
v -0.215201 0.498062 0.294259
v -0.045488 0.758851 0.363171
v -0.050914 0.763805 0.301104
v -0.023699 0.510750 0.341465
v -0.029125 0.515704 0.279398
v -0.236990 0.746163 0.315965
v -0.231564 0.741209 0.378032
v -0.215201 0.498062 0.294259
v -0.209775 0.493108 0.356326
v -0.243750 0.744794 0.410281
v -0.243750 0.761135 0.223494
v -0.243750 0.184434 0.361256
v -0.243750 0.200776 0.174469
v -0.243750 0.761135 0.223494
v -0.243750 0.744794 0.410281
v -0.243750 0.200776 0.174469
v -0.243750 0.184434 0.361256
v 0.059375 0.744930 0.408724
v 0.059375 0.750377 0.346462
v 0.059375 0.184570 0.359699
v 0.059375 0.190018 0.297437
v -0.056250 0.750377 0.346462
v -0.056250 0.744930 0.408724
v -0.056250 0.190018 0.297437
v -0.056250 0.184570 0.359699
v 0.158659 0.442820 0.259300
v 0.162614 0.430257 0.198203
v 0.171596 0.383097 0.272418
v 0.175551 0.370534 0.211321
v -0.194344 0.351422 0.191306
v -0.198299 0.363985 0.252403
v -0.181407 0.291699 0.204424
v -0.185363 0.304262 0.265521
v 0.181569 0.297788 0.255123
v 0.185555 0.298774 0.192758
v 0.181861 0.235296 0.254153
v 0.185847 0.236283 0.191788
v -0.179322 0.297428 0.169415
v -0.183308 0.296442 0.231780
v -0.179029 0.234936 0.168445
v -0.183015 0.233950 0.230810
v 0.158659 0.318296 0.248406
v 0.162614 0.305733 0.187309
v 0.171596 0.258573 0.261524
v 0.175551 0.246010 0.200427
v -0.194344 0.226898 0.180412
v -0.198299 0.239461 0.241508
v -0.181408 0.167175 0.193530
v -0.185363 0.179738 0.254626
v 0.162705 0.379578 0.268637
v 0.168381 0.370930 0.206999
v 0.173063 0.318678 0.278134
v 0.178740 0.310031 0.216496
v -0.190655 0.306123 0.183025
v -0.196331 0.314770 0.244663
v -0.180296 0.245223 0.192523
v -0.185973 0.253870 0.254161
v -0.029982 0.765768 0.299671
v -0.035408 0.770722 0.237604
v -0.008193 0.517668 0.277965
v -0.013619 0.522621 0.215898
v -0.174965 0.757491 0.248750
v -0.169539 0.752537 0.310816
v -0.153176 0.509390 0.227044
v -0.147750 0.504436 0.289110
v 0.034375 0.878034 0.321556
v 0.034375 0.883481 0.259293
v 0.034375 0.691247 0.305214
v 0.034375 0.696694 0.242952
v -0.028125 0.883481 0.259293
v -0.028125 0.878034 0.321556
v -0.028125 0.696694 0.242952
v -0.028125 0.691247 0.305214
v -0.054712 0.513257 0.281680
v -0.060138 0.518211 0.219613
v -0.050626 0.466738 0.277610
v -0.056053 0.471692 0.215543
v -0.153176 0.509390 0.227044
v -0.147750 0.504436 0.289110
v -0.149091 0.462871 0.222974
v -0.143664 0.457917 0.285040
v 0.050000 0.753509 0.310661
v 0.050000 0.758956 0.248399
v 0.050000 0.691247 0.305214
v 0.050000 0.696694 0.242952
v 0.034375 0.758956 0.248399
v 0.034375 0.753509 0.310661
v 0.034375 0.696694 0.242952
v 0.034375 0.691247 0.305214
v 0.246875 0.242170 0.374758
v 0.246875 0.290699 0.193647
v 0.246875 0.242170 0.374758
v 0.246875 0.290699 0.193647
v -0.243750 0.290699 0.193647
v -0.243750 0.242170 0.374758
v -0.243750 0.290699 0.193647
v -0.243750 0.242170 0.374758
v 0.246875 0.744794 0.410281
v 0.246875 0.761135 0.223494
v 0.246875 0.744794 0.410281
v 0.246875 0.761135 0.223494
v -0.243750 0.761135 0.223494
v -0.243750 0.744794 0.410281
v -0.243750 0.761135 0.223494
v -0.243750 0.744794 0.410281
v 0.246875 0.744794 0.410281
v 0.246875 0.744794 0.410281
v 0.246875 0.184434 0.361256
v 0.246875 0.184434 0.361256
v -0.243750 0.744794 0.410281
v -0.243750 0.744794 0.410281
v -0.243750 0.184434 0.361256
v -0.243750 0.184434 0.361256
v 0.246875 0.744794 0.410281
v 0.246875 0.761135 0.223494
v 0.246875 0.184434 0.361256
v 0.246875 0.200776 0.174469
v 0.246875 0.761135 0.223494
v 0.246875 0.744794 0.410281
v 0.246875 0.200776 0.174469
v 0.246875 0.184434 0.361256
v -0.002348 1.130484 0.354484
v -0.002348 0.819173 0.327248
v -0.002348 1.108695 0.603533
v -0.002348 0.797384 0.576297
v -0.186723 0.819173 0.327248
v -0.186723 1.130484 0.354484
v -0.186723 0.797384 0.576297
v -0.186723 1.108695 0.603533
v 0.252893 0.869075 0.141243
v 0.248096 0.841200 0.154529
v 0.221663 0.932413 0.262850
v 0.216866 0.904538 0.276137
v 0.248096 0.841200 0.154529
v 0.252893 0.869075 0.141243
v 0.216866 0.904538 0.276137
v 0.221663 0.932413 0.262850
v 0.243810 0.925100 0.182004
v 0.239013 0.897225 0.195290
v 0.216050 0.981401 0.290099
v 0.211253 0.953526 0.303386
v 0.239013 0.897225 0.195290
v 0.243810 0.925100 0.182004
v 0.211253 0.953526 0.303386
v 0.216050 0.981401 0.290099
v 0.255291 0.883013 0.134599
v 0.248096 0.841200 0.154529
v 0.255291 0.883013 0.134599
v 0.248096 0.841200 0.154529
v 0.138577 0.819316 0.069078
v 0.145772 0.861128 0.049148
v 0.138577 0.819316 0.069078
v 0.145772 0.861128 0.049148
v 0.248012 0.899384 0.124388
v 0.236826 0.856844 0.140588
v 0.248012 0.899384 0.124388
v 0.236826 0.856844 0.140588
v 0.189237 0.853088 0.097865
v 0.200423 0.895629 0.081665
v 0.189237 0.853088 0.097865
v 0.200423 0.895629 0.081665
v 0.198932 0.891654 0.080905
v 0.192718 0.849344 0.100101
v 0.198932 0.891654 0.080905
v 0.192718 0.849344 0.100101
v 0.166229 0.844705 0.081301
v 0.172443 0.887016 0.062105
v 0.166229 0.844705 0.081301
v 0.172443 0.887016 0.062105
v 0.155523 0.885185 0.057866
v 0.172107 0.847904 0.080940
v 0.155523 0.885185 0.057866
v 0.172107 0.847904 0.080940
v 0.142871 0.833248 0.078271
v 0.126287 0.870528 0.055197
v 0.142871 0.833248 0.078271
v 0.126287 0.870528 0.055197
v 0.085349 1.055398 0.202372
v 0.074146 1.013860 0.183761
v 0.085349 1.055398 0.202372
v 0.074146 1.013860 0.183761
v 0.043832 1.016539 0.196031
v 0.055035 1.058077 0.214642
v 0.043832 1.016539 0.196031
v 0.055035 1.058077 0.214642
v 0.172043 1.065765 0.220739
v 0.181458 1.024330 0.200945
v 0.172043 1.065765 0.220739
v 0.181458 1.024330 0.200945
v 0.119427 1.017043 0.186693
v 0.110012 1.058478 0.206487
v 0.119427 1.017043 0.186693
v 0.110012 1.058478 0.206487
v 0.227918 1.328278 0.353700
v 0.239883 1.049970 0.212075
v 0.214675 1.243001 0.520159
v 0.226640 0.964693 0.378534
v 0.239883 1.049970 0.212075
v 0.227918 1.328278 0.353700
v 0.226640 0.964693 0.378534
v 0.214675 1.243001 0.520159
v 0.227920 1.328223 0.353672
v 0.227920 1.328223 0.353672
v 0.214677 1.242946 0.520131
v 0.214677 1.242946 0.520131
v 0.039469 1.327848 0.338487
v 0.039469 1.327848 0.338487
v 0.026226 1.242571 0.504946
v 0.026226 1.242571 0.504946
v 0.237490 1.105632 0.240400
v 0.237490 1.105632 0.240400
v 0.233076 1.077206 0.295886
v 0.233076 1.077206 0.295886
v 0.049039 1.105257 0.225215
v 0.049039 1.105257 0.225215
v 0.044624 1.076831 0.280702
v 0.044624 1.076831 0.280702
v 0.227918 1.328278 0.353700
v 0.239883 1.049970 0.212075
v 0.227918 1.328278 0.353700
v 0.239883 1.049970 0.212075
v 0.051432 1.049596 0.196890
v 0.039467 1.327904 0.338515
v 0.051432 1.049596 0.196890
v 0.039467 1.327904 0.338515
v 0.085959 0.414389 0.189133
v 0.098567 0.353324 0.193411
v 0.075948 0.348397 0.189748
v 0.063340 0.409463 0.185470
v 0.027507 0.373585 0.191986
v 0.080314 0.340180 0.193285
v 0.067833 0.320394 0.191862
v 0.015025 0.353799 0.190563
v 0.085214 0.363833 0.201182
v 0.108104 0.305977 0.207092
v 0.086650 0.297148 0.203763
v 0.063759 0.355004 0.197853
v -0.012212 0.263547 0.184583
v 0.010385 0.321715 0.188061
v 0.032206 0.313194 0.188811
v 0.009609 0.255026 0.185333
v -0.076541 0.662893 0.217147
v -0.063933 0.601828 0.221426
v -0.086552 0.596901 0.217763
v -0.099160 0.657966 0.213484
v -0.134993 0.622089 0.220002
v -0.082186 0.588684 0.221301
v -0.094667 0.568897 0.219877
v -0.147475 0.602303 0.218578
v -0.077286 0.612336 0.229197
v -0.054396 0.554480 0.235107
v -0.075850 0.545651 0.231778
v -0.098741 0.603508 0.225868
v -0.174711 0.512051 0.212599
v -0.152114 0.570219 0.216076
v -0.130294 0.561698 0.216826
v -0.152890 0.503529 0.213348
v 0.069541 0.615295 0.300779
v 0.128387 0.621374 0.280619
v 0.131763 0.598366 0.283537
v 0.072917 0.592286 0.303697
v 0.108860 0.556512 0.310177
v 0.140696 0.602645 0.282526
v 0.158802 0.588144 0.279179
v 0.126967 0.542011 0.306830
v 0.121170 0.612553 0.295426
v 0.177558 0.629195 0.274220
v 0.184716 0.606931 0.275781
v 0.128327 0.590290 0.296986
v 0.209730 0.503938 0.281859
v 0.156260 0.533094 0.295896
v 0.164524 0.552843 0.286356
v 0.217994 0.523687 0.272319
v -0.055459 0.490771 0.289885
v 0.003387 0.496850 0.269725
v 0.006763 0.473841 0.272642
v -0.052083 0.467762 0.292803
v -0.016140 0.431987 0.299282
v 0.015695 0.478120 0.271632
v 0.033801 0.463619 0.268285
v 0.001966 0.417486 0.295935
v -0.003830 0.488029 0.284531
v 0.052558 0.504670 0.263326
v 0.059716 0.482407 0.264887
v 0.003327 0.465766 0.286092
v 0.084730 0.379413 0.270964
v 0.031259 0.408569 0.285001
v 0.039523 0.428318 0.275462
v 0.092994 0.399162 0.261424
v 0.014304 0.079024 0.233734
v -0.078589 0.310773 0.246511
v -0.219626 0.024429 -0.476757
v -0.312519 0.256178 -0.463979
v -0.297199 0.218788 0.325557
v -0.204306 -0.012961 0.312780
v -0.531129 0.164193 -0.384933
v -0.438236 -0.067556 -0.397711
v 0.303674 0.017917 0.281576
v 0.398471 0.247648 0.254423
v 0.366941 -0.095496 -0.457095
v 0.461737 0.134235 -0.484248
v 0.168104 0.338722 0.220709
v 0.073307 0.108991 0.247862
v 0.231370 0.225309 -0.517961
v 0.136574 -0.004422 -0.490809
vn -0.0000 0.0872 -0.9962
vn 1.0000 -0.0000 -0.0000
vn -0.0000 -0.0872 0.9962
vn -1.0000 -0.0000 -0.0000
vn -0.0000 0.9962 0.0872
vn -0.0000 -0.9962 -0.0872
vn 0.0151 -0.9849 -0.1723
vn 0.1730 0.1723 -0.9697
vn -0.0151 0.9849 0.1723
vn -0.1730 -0.1723 0.9697
vn -0.9848 0.0151 -0.1730
vn 0.9848 -0.0151 0.1730
vn 0.1174 -0.9591 -0.2576
vn 0.9811 0.0717 0.1799
vn -0.1174 0.9591 0.2576
vn -0.9811 -0.0717 -0.1799
vn 0.1541 0.2739 -0.9493
vn -0.1541 -0.2739 0.9493
vn 0.2123 -0.9740 -0.0797
vn 0.9318 0.1772 0.3168
vn -0.2123 0.9740 0.0797
vn -0.9318 -0.1772 -0.3168
vn 0.2944 0.1415 -0.9452
vn -0.2944 -0.1415 0.9452
vn -0.0442 -0.9990 -0.0082
vn 0.9927 -0.0448 0.1117
vn 0.0442 0.9990 0.0082
vn -0.9927 0.0448 -0.1117
vn 0.1120 0.0032 -0.9937
vn -0.1120 -0.0032 0.9937
vn 0.2670 0.2462 -0.9317
vn -0.8381 0.5444 -0.0349
vn 0.1395 0.3017 -0.9431
vn 0.0862 0.4005 -0.9122
vn -0.0417 0.4520 -0.8910
vn -0.9886 0.1206 -0.0897
vn 0.9763 0.2156 0.0189
vn -0.9763 -0.2156 -0.0189
vn -0.2164 0.9726 0.0851
vn 0.2164 -0.9726 -0.0851
vn 0.0868 0.0793 -0.9931
vn 0.9924 -0.0941 0.0793
vn -0.0868 -0.0793 0.9931
vn -0.9924 0.0941 -0.0793
vn 0.0872 0.9924 0.0868
vn -0.0872 -0.9924 -0.0868
vn -0.0000 -0.0000 -1.0000
vn -0.0000 -0.0000 1.0000
vn -0.0868 -0.0792 0.9931
vn 0.0871 0.9924 0.0868
vn -0.0871 -0.9924 -0.0867
vn 0.6720 -0.0049 -0.7405
vn 0.7332 -0.1366 0.6662
vn -0.7332 0.1366 -0.6661
vn -0.7331 0.1366 -0.6662
vn 0.1045 0.9906 0.0882
vn 0.1045 0.9906 0.0881
vn -0.1045 -0.9906 -0.0881
vn -0.0418 0.0589 -0.9974
vn 0.9908 0.1309 -0.0338
vn 0.0418 -0.0589 0.9974
vn -0.1285 0.9896 0.0638
vn -0.1285 0.9897 0.0638
vn 0.1285 -0.9897 -0.0638
vn 0.5341 0.1233 -0.8364
vn 0.8356 0.0734 0.5444
vn 0.8356 0.0735 0.5444
vn -0.8356 -0.0735 -0.5444
vn -0.8356 -0.0734 -0.5444
vn -0.1284 0.9897 0.0638
vn 0.1285 -0.9897 -0.0639
vn 0.1284 -0.9897 -0.0638
vn -0.9908 -0.1309 0.0338
vn 0.1285 -0.9896 -0.0638
vn -0.5341 0.1233 -0.8364
vn 0.8356 -0.0735 -0.5444
vn -0.8356 0.0735 0.5444
vn 0.1285 0.9897 0.0638
vn -0.1285 -0.9897 -0.0638
vn -0.1285 -0.9897 -0.0639
vn 0.0418 0.0589 -0.9974
vn 0.9908 -0.1309 0.0338
vn -0.0418 -0.0589 0.9974
vn -0.9908 0.1309 -0.0338
vn 0.1285 0.9896 0.0638
vn -0.1285 -0.9896 -0.0638
vn 0.1286 0.9896 0.0638
vn -0.1286 -0.9897 -0.0638
vn -0.1286 -0.9896 -0.0638
vn -0.6720 -0.0049 -0.7405
vn 0.7332 0.1366 -0.6661
vn 0.7332 0.1366 -0.6662
vn -0.7332 -0.1366 0.6662
vn -0.1045 0.9906 0.0881
vn -0.1044 0.9906 0.0882
vn 0.1044 -0.9906 -0.0881
vn 0.1045 -0.9906 -0.0881
vn -0.0868 0.0793 -0.9931
vn 0.0868 -0.0792 0.9931
vn -0.9924 -0.0941 0.0793
vn -0.0871 0.9924 0.0868
vn 0.0871 -0.9924 -0.0867
vn 0.0871 -0.9924 -0.0868
vn 0.9924 0.0941 -0.0793
vn 0.0868 -0.0793 0.9931
vn -0.0872 0.9924 0.0868
vn 0.0872 -0.9924 -0.0868
vn -0.0000 0.0871 -0.9962
vn -0.0000 -0.0871 0.9962
vn -0.0000 0.9962 0.0871
vn -0.0000 -0.9962 -0.0870
vn -0.0000 -0.9962 -0.0871
vn 0.0633 -0.2010 -0.9775
vn -0.0633 0.2010 0.9775
vn -0.2070 0.9556 -0.2099
vn 0.2070 -0.9556 0.2099
vn 0.0638 0.0158 -0.9978
vn 0.9980 0.0037 0.0638
vn -0.0638 -0.0158 0.9978
vn -0.9980 -0.0037 -0.0638
vn -0.0047 0.9999 0.0155
vn 0.0047 -0.9999 -0.0155
vn 0.0908 -0.1384 -0.9862
vn 0.9820 0.1773 0.0656
vn -0.0908 0.1384 0.9862
vn -0.9820 -0.1773 -0.0656
vn -0.1657 0.9744 -0.1520
vn 0.1657 -0.9744 0.1520
vn -0.0000 0.2588 -0.9659
vn -0.0000 -0.2588 0.9659
vn -0.0000 0.9659 0.2588
vn 1.0000 -0.0000 0.0001
vn -1.0000 -0.0000 0.0001
vn -0.1535 -0.8920 0.4252
vn -0.1535 -0.8920 0.4253
vn 0.9629 -0.0383 0.2672
vn 0.1535 0.8920 -0.4252
vn 0.2221 -0.4503 -0.8648
vn -0.2221 0.4504 0.8648
vn 0.7788 0.1557 0.6076
vn 0.7788 0.1556 0.6076
vn 0.1535 0.8920 -0.4253
vn -0.7788 -0.1557 -0.6077
vn -0.7788 -0.1556 -0.6077
vn 0.6082 -0.4244 -0.6708
vn -0.2386 -0.9075 0.3456
vn 0.7429 0.0587 0.6669
vn 0.7429 0.0586 0.6669
vn 0.2386 0.9075 -0.3456
vn 0.2386 0.9075 -0.3457
vn -0.7428 -0.0587 -0.6669
vn -0.7429 -0.0586 -0.6668
vn 0.6255 -0.4159 -0.6602
vn -0.1326 -0.9026 0.4095
vn 0.8073 0.1414 0.5730
vn 0.1326 0.9026 -0.4096
vn 0.1326 0.9026 -0.4095
vn -0.8073 -0.1414 -0.5729
vn -0.8073 -0.1414 -0.5730
vn 0.5751 -0.4065 -0.7099
vn 0.3538 -0.7953 0.4923
vn 0.8910 0.4467 0.0813
vn 0.8910 0.4466 0.0813
vn -0.3538 0.7953 -0.4923
vn -0.8910 -0.4467 -0.0813
vn -0.8910 -0.4466 -0.0812
vn 0.2846 -0.4098 -0.8666
vn -0.2390 -0.8861 -0.3971
vn -0.2390 -0.8862 -0.3970
vn 0.9238 -0.0816 -0.3740
vn 0.9239 -0.0816 -0.3740
vn 0.2390 0.8861 0.3970
vn 0.2389 0.8861 0.3971
vn -0.9238 0.0816 0.3740
vn -0.2990 0.4562 -0.8382
vn 0.2008 -0.8839 -0.4224
vn 0.2008 -0.8839 -0.4223
vn 0.9683 0.1138 0.2225
vn 0.9683 0.1137 0.2225
vn -0.2008 0.8839 0.4223
vn -0.9683 -0.1138 -0.2225
vn -0.9683 -0.1137 -0.2224
vn 0.1486 0.4536 -0.8787
vn 0.0382 -0.8906 -0.4532
vn 0.0382 -0.8906 -0.4533
vn 0.9968 0.0020 0.0803
vn -0.0382 0.8906 0.4532
vn 0.0706 0.4549 -0.8878
vn 0.0706 0.4548 -0.8878
vn -0.0706 -0.4548 0.8878
vn -0.0383 0.8906 0.4532
vn -0.9968 -0.0020 -0.0803
vn -0.9968 -0.0020 -0.0802
vn 0.0383 -0.8906 -0.4532
vn 0.1671 -0.0345 -0.9853
vn 0.0500 0.0402 -0.9979
vn -0.3046 -0.1637 -0.9383
vn -0.3791 -0.2690 -0.8854
vn -0.3716 0.9270 0.0511
vn 0.8744 0.3679 -0.3162
vn 0.3716 -0.9270 -0.0511
vn -0.8744 -0.3679 0.3162
vn 0.3119 0.0728 0.9473
vn -0.3119 -0.0728 -0.9473
vn 0.3792 0.9189 -0.1086
vn 0.9215 -0.3643 0.1349
vn -0.3792 -0.9189 0.1086
vn -0.9215 0.3643 -0.1349
vn -0.0844 0.1512 0.9849
vn 0.0844 -0.1512 -0.9849
vt 0.382812 0.539062
vt 0.445312 0.539062
vt 0.445312 0.632812
vt 0.382812 0.632812
vt 0.351562 0.539062
vt 0.351562 0.632812
vt 0.476562 0.539062
vt 0.539062 0.539062
vt 0.539062 0.632812
vt 0.476562 0.632812
vt 0.445312 0.664062
vt 0.382812 0.664062
vt 0.507812 0.632812
vt 0.507812 0.664062
vt 0.343750 0.476562
vt 0.367188 0.476562
vt 0.367188 0.492188
vt 0.343750 0.492188
vt 0.460938 0.664062
vt 0.492188 0.664062
vt 0.492188 0.679688
vt 0.460938 0.679688
vt 0.515625 0.984375
vt 0.539062 0.984375
vt 0.539062 1.000000
vt 0.515625 1.000000
vt 0.523438 0.664062
vt 0.523438 0.679688
vt 0.492188 0.906250
vt 0.515625 0.906250
vt 0.515625 0.937500
vt 0.492188 0.937500
vt 0.492188 0.875000
vt 0.515625 0.875000
vt 0.515625 0.484375
vt 0.531250 0.484375
vt 0.531250 0.500000
vt 0.515625 0.500000
vt 0.507812 0.468750
vt 0.523438 0.468750
vt 0.523438 0.484375
vt 0.507812 0.484375
vt 0.000000 0.460938
vt 0.015625 0.460938
vt 0.015625 0.476562
vt 0.000000 0.476562
vt 0.523438 0.968750
vt 0.539062 0.968750
vt 0.523438 0.984375
vt 0.523438 0.953125
vt 0.539062 0.953125
vt 0.523438 0.937500
vt 0.539062 0.937500
vt 0.539062 0.875000
vt 0.539062 0.890625
vt 0.515625 0.890625
vt 0.085938 0.625000
vt 0.125000 0.625000
vt 0.125000 0.640625
vt 0.085938 0.640625
vt 0.515625 0.789062
vt 0.539062 0.789062
vt 0.539062 0.804688
vt 0.515625 0.804688
vt 0.367188 0.664062
vt 0.406250 0.664062
vt 0.406250 0.679688
vt 0.367188 0.679688
vt 0.164062 0.476562
vt 0.187500 0.476562
vt 0.187500 0.515625
vt 0.164062 0.515625
vt 0.210938 0.476562
vt 0.210938 0.515625
vt 0.382812 0.468750
vt 0.398438 0.468750
vt 0.398438 0.500000
vt 0.382812 0.500000
vt 0.023438 0.468750
vt 0.046875 0.468750
vt 0.046875 0.500000
vt 0.023438 0.500000
vt 0.414062 0.468750
vt 0.414062 0.500000
vt 0.070312 0.468750
vt 0.070312 0.500000
vt 0.210938 0.460938
vt 0.226562 0.460938
vt 0.226562 0.484375
vt 0.210938 0.484375
vt 0.515625 0.765625
vt 0.531250 0.765625
vt 0.531250 0.789062
vt 0.000000 0.492188
vt 0.023438 0.492188
vt 0.023438 0.539062
vt 0.000000 0.539062
vt 0.367188 0.539062
vt 0.343750 0.539062
vt 0.523438 0.890625
vt 0.320312 0.468750
vt 0.343750 0.468750
vt 0.320312 0.476562
vt 0.523438 0.671875
vt 0.546875 0.671875
vt 0.546875 0.679688
vt 0.039062 0.953125
vt 0.046875 0.953125
vt 0.046875 0.960938
vt 0.039062 0.960938
vt 0.460938 0.703125
vt 0.507812 0.703125
vt 0.507812 0.726562
vt 0.460938 0.726562
vt 0.015625 0.453125
vt 0.023438 0.453125
vt 0.023438 0.476562
vt 0.507812 0.679688
vt 0.523438 0.914062
vt 0.531250 0.914062
vt 0.531250 0.937500
vt 0.093750 0.804688
vt 0.140625 0.804688
vt 0.140625 0.812500
vt 0.093750 0.812500
vt 0.039062 0.625000
vt 0.085938 0.632812
vt 0.039062 0.632812
vt 0.234375 0.484375
vt 0.234375 0.515625
vt 0.367188 0.843750
vt 0.375000 0.843750
vt 0.375000 0.875000
vt 0.367188 0.875000
vt 0.257812 0.484375
vt 0.257812 0.515625
vt 0.289062 0.453125
vt 0.296875 0.453125
vt 0.296875 0.484375
vt 0.289062 0.484375
vt 0.148438 0.625000
vt 0.148438 0.632812
vt 0.125000 0.632812
vt 0.515625 0.515625
vt 0.539062 0.515625
vt 0.539062 0.523438
vt 0.515625 0.523438
vt 0.000000 0.968750
vt 0.000000 1.000000
vt 0.132812 0.468750
vt 0.148438 0.468750
vt 0.148438 0.500000
vt 0.132812 0.500000
vt 0.000000 0.984375
vt 0.203125 0.968750
vt 0.234375 0.968750
vt 0.234375 1.000000
vt 0.203125 1.000000
vt 0.031250 1.000000
vt 0.429688 0.468750
vt 0.429688 0.484375
vt 0.414062 0.484375
vt 0.476562 0.476562
vt 0.492188 0.476562
vt 0.492188 0.500000
vt 0.476562 0.500000
vt 0.000000 0.976562
vt 0.015625 1.000000
vt 0.500000 0.500000
vt 0.523438 0.500000
vt 0.523438 0.515625
vt 0.500000 0.515625
vt 0.476562 0.460938
vt 0.484375 0.460938
vt 0.484375 0.476562
vt 0.492188 0.484375
vt 0.492188 0.460938
vt 0.085938 0.468750
vt 0.109375 0.468750
vt 0.109375 0.476562
vt 0.085938 0.476562
vt 0.523438 0.906250
vt 0.546875 0.906250
vt 0.546875 0.914062
vt 0.132812 0.476562
vt 0.109375 0.500000
vt 0.023438 1.000000
vt 0.531250 0.515625
vt 0.507812 0.859375
vt 0.531250 0.859375
vt 0.531250 0.875000
vt 0.507812 0.875000
vt 0.531250 0.468750
vt 0.523438 0.898438
vt 0.546875 0.898438
vt 0.546875 0.890625
vt 0.531250 0.523438
vt 0.531250 0.539062
vt 0.515625 0.539062
vt 0.281250 0.484375
vt 0.281250 0.515625
vt 0.164062 0.468750
vt 0.164062 0.500000
vt 0.304688 0.484375
vt 0.304688 0.515625
vt 0.304688 0.453125
vt 0.437500 0.484375
vt 0.437500 0.515625
vt 0.414062 0.515625
vt 0.429688 0.453125
vt 0.437500 0.453125
vt 0.187500 0.468750
vt 0.000000 0.929688
vt 0.312500 0.578125
vt 0.335938 0.578125
vt 0.335938 0.648438
vt 0.312500 0.648438
vt 0.312500 0.476562
vt 0.328125 0.476562
vt 0.328125 0.546875
vt 0.312500 0.546875
vt 0.304688 0.445312
vt 0.312500 0.445312
vt 0.312500 0.515625
vt 0.343750 0.546875
vt 0.500000 0.804688
vt 0.507812 0.804688
vt 0.500000 0.875000
vt 0.023438 0.460938
vt 0.039062 0.460938
vt 0.039062 0.468750
vt 0.054688 0.460938
vt 0.054688 0.468750
vt 0.507812 0.851562
vt 0.554688 0.851562
vt 0.554688 0.859375
vt 0.132812 0.460938
vt 0.140625 0.460938
vt 0.140625 0.468750
vt 0.507812 0.843750
vt 0.554688 0.843750
vt 0.539062 0.859375
vt 0.539062 0.867188
vt 0.531250 0.867188
vt 0.507812 0.835938
vt 0.554688 0.835938
vt 0.507812 0.828125
vt 0.554688 0.828125
vt 0.507812 0.820312
vt 0.554688 0.820312
vt 0.148438 0.460938
vt 0.507812 0.812500
vt 0.554688 0.812500
vt 0.156250 0.460938
vt 0.156250 0.468750
vt 0.554688 0.804688
vt 0.507812 0.742188
vt 0.554688 0.742188
vt 0.554688 0.750000
vt 0.507812 0.750000
vt 0.507812 0.734375
vt 0.554688 0.734375
vt 0.164062 0.460938
vt 0.554688 0.726562
vt 0.171875 0.460938
vt 0.171875 0.468750
vt 0.507812 0.718750
vt 0.554688 0.718750
vt 0.507812 0.710938
vt 0.554688 0.710938
vt 0.554688 0.703125
vt 0.179688 0.460938
vt 0.179688 0.468750
vt 0.507812 0.695312
vt 0.554688 0.695312
vt 0.187500 0.460938
vt 0.507812 0.687500
vt 0.554688 0.687500
vt 0.554688 0.679688
vt 0.500000 0.773438
vt 0.515625 0.773438
vt 0.492188 0.453125
vt 0.500000 0.453125
vt 0.500000 0.484375
vt 0.367188 0.468750
vt 0.367188 0.500000
vt 0.507812 0.453125
vt 0.070312 0.460938
vt 0.531250 0.929688
vt 0.546875 0.929688
vt 0.546875 0.937500
vt 0.187500 0.453125
vt 0.195312 0.453125
vt 0.195312 0.476562
vt 0.203125 0.453125
vt 0.203125 0.476562
vt 0.210938 0.453125
vt 0.312500 0.453125
vt 0.320312 0.453125
vt 0.531250 0.781250
vt 0.539062 0.781250
vt 0.531250 0.773438
vt 0.539062 0.773438
vt 0.531250 0.921875
vt 0.546875 0.921875
vt 0.234375 0.460938
vt 0.234375 0.468750
vt 0.226562 0.468750
vt 0.539062 0.765625
vt 0.085938 0.460938
vt 0.101562 0.460938
vt 0.101562 0.468750
vt 0.117188 0.460938
vt 0.117188 0.468750
vt 0.242188 0.460938
vt 0.242188 0.468750
vt 0.531250 0.757812
vt 0.539062 0.757812
vt 0.250000 0.460938
vt 0.250000 0.468750
vt 0.531250 0.750000
vt 0.539062 0.750000
vt 0.257812 0.460938
vt 0.257812 0.468750
vt 0.265625 0.460938
vt 0.265625 0.468750
vt 0.062500 1.000000
vt 0.156250 0.812500
vt 0.156250 0.835938
vt 0.093750 0.835938
vt 0.421875 0.726562
vt 0.484375 0.726562
vt 0.484375 0.750000
vt 0.421875 0.750000
vt 0.359375 0.679688
vt 0.421875 0.679688
vt 0.359375 0.750000
vt 0.164062 0.562500
vt 0.187500 0.562500
vt 0.187500 0.632812
vt 0.164062 0.632812
vt 0.492188 0.968750
vt 0.515625 0.968750
vt 0.492188 1.000000
vt 0.421875 0.664062
vt 0.460938 0.695312
vt 0.421875 0.695312
vt 0.351562 0.546875
vt 0.351562 0.578125
vt 0.453125 0.500000
vt 0.453125 0.539062
vt 0.500000 0.539062
vt 0.437500 0.460938
vt 0.445312 0.460938
vt 0.445312 0.476562
vt 0.437500 0.476562
vt 0.000000 0.992188
vt 0.453125 0.460938
vt 0.453125 0.476562
vt 0.007812 1.000000
vt 0.460938 0.468750
vt 0.476562 0.468750
vt 0.460938 0.476562
vt 0.156250 0.625000
vt 0.164062 0.625000
vt 0.156250 0.632812
vt 0.125000 0.460938
vt 0.125000 0.468750
vt 0.453125 0.515625
vt 0.414062 0.539062
vt 0.085938 0.500000
vt 0.296875 0.968750
vt 0.320312 0.968750
vt 0.320312 0.976562
vt 0.296875 0.976562
vt 0.039062 1.000000
vt 0.390625 0.500000
vt 0.390625 0.539062
vt 0.406250 0.750000
vt 0.437500 0.750000
vt 0.437500 0.843750
vt 0.406250 0.843750
vt 0.375000 0.750000
vt 0.468750 0.750000
vt 0.500000 0.750000
vt 0.500000 0.843750
vt 0.468750 0.843750
vt 0.437500 0.875000
vt 0.406250 0.875000
vt 0.468750 0.875000
vt 0.101562 0.500000
vt 0.101562 0.593750
vt 0.070312 0.593750
vt 0.039062 0.500000
vt 0.039062 0.593750
vt 0.164062 0.593750
vt 0.132812 0.593750
vt 0.101562 0.625000
vt 0.070312 0.625000
vt 0.132812 0.625000
s 1
usemtl m_9d958383-c28a-c326-34bf-7082e23cf131.001
f 4/1/1 7/2/1 5/3/1 2/4/1
f 3/5/2 4/1/2 2/4/2 1/6/2
f 8/7/3 3/8/3 1/9/3 6/10/3
f 7/2/4 8/7/4 6/10/4 5/3/4
f 6/11/5 1/12/5 2/4/5 5/3/5
f 7/13/6 4/3/6 3/11/6 8/14/6
f 12/15/7 15/16/7 13/17/7 10/18/7
f 11/19/8 12/20/8 10/21/8 9/22/8
f 16/23/9 11/24/9 9/25/9 14/26/9
f 15/20/10 16/27/10 14/28/10 13/21/10
f 14/29/11 9/30/11 10/31/11 13/32/11
f 15/33/12 12/34/12 11/30/12 16/29/12
f 20/35/13 23/36/13 21/37/13 18/38/13
f 19/39/14 20/40/14 18/41/14 17/42/14
f 24/43/15 19/44/15 17/45/15 22/46/15
f 23/47/16 24/48/16 22/24/16 21/49/16
f 22/50/17 17/51/17 18/48/17 21/47/17
f 23/52/18 20/53/18 19/51/18 24/50/18
f 28/34/19 31/54/19 29/55/19 26/56/19
f 27/57/20 28/58/20 26/59/20 25/60/20
f 32/61/21 27/62/21 25/63/21 30/64/21
f 31/65/22 32/66/22 30/67/22 29/68/22
f 30/69/23 25/70/23 26/71/23 29/72/23
f 31/70/24 28/73/24 27/74/24 32/71/24
f 36/75/6 39/76/6 37/77/6 34/78/6
f 35/79/2 36/80/2 34/81/2 33/82/2
f 40/76/5 35/83/5 33/84/5 38/77/5
f 39/80/4 40/85/4 38/86/4 37/81/4
f 38/87/1 33/88/1 34/89/1 37/90/1
f 39/91/3 36/92/3 35/93/3 40/61/3
f 44/94/25 47/95/25 45/96/25 42/97/25
f 43/31/26 44/52/26 42/49/26 41/23/26
f 48/18/27 43/17/27 41/98/27 46/99/27
f 47/56/28 48/100/28 46/52/28 45/31/28
f 46/101/29 41/102/29 42/15/29 45/103/29
f 47/104/30 44/105/30 43/106/30 48/28/30
f 52/107/31 49/108/31 50/109/31 51/110/31
f 56/107/31 53/108/31 54/109/31 55/110/31
f 60/107/32 57/108/32 58/109/32 59/110/32
f 64/107/33 61/108/33 62/109/33 63/110/33
f 68/107/33 65/108/33 66/109/33 67/110/33
f 72/107/31 69/108/31 70/109/31 71/110/31
f 76/107/34 73/108/34 74/109/34 75/110/34
f 80/107/34 77/108/34 78/109/34 79/110/34
f 84/107/35 81/108/35 82/109/35 83/110/35
f 88/107/35 85/108/35 86/109/35 87/110/35
f 92/107/36 89/108/36 90/109/36 91/110/36
f 96/107/36 93/108/36 94/109/36 95/110/36
f 100/111/1 103/112/1 101/113/1 98/114/1
f 99/115/37 100/116/37 98/117/37 97/45/37
f 104/22/3 99/118/3 97/112/3 102/111/3
f 103/119/38 104/120/38 102/121/38 101/52/38
f 102/122/39 97/123/39 98/124/39 101/125/39
f 103/126/40 100/57/40 99/127/40 104/128/40
f 108/90/41 111/129/41 109/130/41 106/74/41
f 107/131/42 108/132/42 106/133/42 105/134/42
f 112/129/43 107/135/43 105/136/43 110/130/43
f 111/137/44 112/138/44 110/139/44 109/140/44
f 110/58/45 105/141/45 106/142/45 109/143/45
f 111/144/46 108/145/46 107/146/46 112/147/46
s 0
f 116/148/47 119/148/41 117/149/47 114/149/41
s 1
f 115/150/42 116/151/42 114/152/42 113/153/42
s 0
f 120/148/48 115/148/49 113/149/48 118/149/49
f 118/154/48 113/154/50 114/149/48 117/149/45
f 119/154/47 116/154/51 115/149/47 120/149/46
s 1
f 124/155/52 127/156/52 125/157/52 122/158/52
s 0
f 123/148/48 124/148/53 122/149/48 121/149/53
f 127/148/47 128/148/54 126/149/47 125/149/55
f 126/149/56 121/159/48 122/159/57 125/149/48
f 127/149/58 124/159/47 123/159/58 128/149/47
f 132/154/47 135/154/59 133/149/47 130/149/59
s 1
f 131/83/60 132/160/60 130/161/60 129/162/60
s 0
f 136/154/48 131/154/61 129/149/48 134/149/61
f 134/154/48 129/154/62 130/149/48 133/149/63
f 135/154/47 132/154/64 131/149/47 136/149/64
s 1
f 140/163/65 143/164/65 141/165/65 138/166/65
s 0
f 139/167/48 140/167/66 138/149/48 137/149/67
f 143/167/47 144/167/68 142/149/47 141/149/69
f 142/149/70 137/168/48 138/168/63 141/149/48
f 143/149/71 140/168/47 139/168/72 144/149/47
s 1
f 148/169/59 151/170/59 149/171/59 146/172/59
f 147/173/60 148/174/60 146/175/60 145/163/60
f 152/176/61 147/35/61 145/38/61 150/165/61
f 151/174/73 152/177/73 150/164/73 149/175/73
f 150/178/62 145/179/62 146/180/62 149/181/62
f 151/182/74 148/183/74 147/184/74 152/119/74
f 156/180/75 159/185/75 157/153/75 154/186/75
s 0
f 155/167/47 156/167/76 154/149/47 153/149/76
f 159/167/48 160/167/77 158/149/48 157/149/77
f 158/149/78 153/187/48 154/187/78 157/149/48
f 159/149/79 156/187/47 155/187/80 160/149/47
s 1
f 164/46/81 167/117/81 165/95/81 162/94/81
f 163/170/82 164/37/82 162/188/82 161/171/82
f 168/189/83 163/190/83 161/191/83 166/192/83
f 167/40/84 168/193/84 166/36/84 165/41/84
f 166/194/85 161/195/85 162/183/85 165/182/85
f 167/100/86 164/196/86 163/195/86 168/194/86
s 0
f 172/154/47 175/154/81 173/149/47 170/149/81
f 176/154/48 171/154/83 169/149/48 174/149/83
s 1
f 175/147/84 176/197/84 174/198/84 173/199/84
s 0
f 174/154/48 169/154/85 170/149/48 173/149/87
f 175/154/47 172/154/88 171/149/47 176/149/89
s 1
f 180/135/90 183/200/90 181/201/90 178/136/90
s 0
f 179/148/47 180/148/91 178/149/47 177/149/92
f 183/148/48 184/148/93 182/149/48 181/149/93
f 182/149/94 177/187/48 178/187/95 181/149/48
f 183/149/96 180/187/47 179/187/97 184/149/47
f 188/148/47 191/148/98 189/149/47 186/149/98
f 192/148/48 187/148/99 185/149/48 190/149/99
s 1
f 191/151/100 192/202/100 190/203/100 189/152/100
s 0
f 190/154/48 185/154/101 186/149/48 189/149/101
f 191/154/47 188/154/102 187/149/47 192/149/103
s 1
f 196/200/98 199/204/98 197/205/98 194/201/98
f 195/138/104 196/206/104 194/204/104 193/139/104
f 200/162/105 195/207/105 193/208/105 198/209/105
f 199/210/100 200/211/100 198/207/100 197/161/100
f 198/179/106 193/150/106 194/185/106 197/180/106
f 199/202/107 196/212/107 195/70/107 200/69/107
s 0
f 204/213/47 207/213/108 205/149/47 202/149/108
s 1
f 203/214/2 204/215/2 202/216/2 201/217/2
s 0
f 208/213/48 203/213/109 201/149/48 206/149/109
f 206/167/48 201/167/110 202/149/48 205/149/5
f 207/167/47 204/167/111 203/149/47 208/149/112
s 1
f 212/218/1 215/219/1 213/220/1 210/221/1
f 211/222/2 212/223/2 210/224/2 209/205/2
f 216/219/3 211/15/3 209/225/3 214/220/3
f 215/226/4 216/227/4 214/192/4 213/228/4
f 214/229/5 209/230/5 210/231/5 213/79/5
f 215/230/6 212/232/6 211/233/6 216/231/6
f 220/234/113 223/235/113 221/236/113 218/189/113
f 219/237/37 220/238/37 218/239/37 217/150/37
f 224/240/114 219/241/114 217/235/114 222/234/114
f 223/190/38 224/242/38 222/243/38 221/244/38
f 222/245/115 217/246/115 218/241/115 221/240/115
f 223/247/116 220/248/116 219/246/116 224/245/116
f 228/249/117 231/250/117 229/248/117 226/247/117
f 227/238/118 228/251/118 226/151/118 225/239/118
f 232/252/119 227/253/119 225/250/119 230/249/119
f 231/251/120 232/254/120 230/255/120 229/151/120
f 230/227/121 225/256/121 226/253/121 229/252/121
f 231/257/122 228/258/122 227/259/122 232/260/122
f 236/261/113 239/262/113 237/258/113 234/257/113
f 235/254/37 236/263/37 234/202/37 233/255/37
f 240/113/114 235/264/114 233/262/114 238/261/114
f 239/263/38 240/265/38 238/266/38 237/202/38
f 238/267/115 233/268/115 234/264/115 237/113/115
f 239/269/116 236/270/116 235/268/116 240/267/116
f 244/112/123 247/271/123 245/270/123 242/269/123
f 243/265/124 244/272/124 242/273/124 241/266/124
f 248/274/125 243/275/125 241/271/125 246/112/125
f 247/272/126 248/276/126 246/212/126 245/273/126
f 246/277/127 241/278/127 242/275/127 245/274/127
f 247/118/128 244/279/128 243/278/128 248/277/128
f 252/280/98 255/281/98 253/64/98 250/226/98
f 251/282/104 252/283/104 250/284/104 249/176/104
f 256/285/105 251/75/105 249/78/105 254/286/105
f 255/283/100 256/287/100 254/42/100 253/284/100
f 254/232/106 249/288/106 250/85/106 253/233/106
f 255/289/107 252/290/107 251/291/107 256/121/107
f 260/292/1 263/293/1 261/294/1 258/70/1
f 259/293/2 260/295/2 258/296/2 257/294/2
f 264/295/3 259/297/3 257/73/3 262/296/3
f 263/298/4 264/299/4 262/103/4 261/218/4
f 262/300/5 257/301/5 258/62/5 261/93/5
f 263/302/6 260/303/6 259/301/6 264/300/6
f 268/304/98 271/305/98 269/290/98 266/289/98
f 267/88/104 268/306/104 266/307/104 265/308/104
f 272/120/105 267/184/105 265/305/105 270/304/105
f 271/92/100 272/309/100 270/303/100 269/302/100
f 270/310/106 265/311/106 266/312/106 269/178/106
f 271/311/107 268/313/107 267/314/107 272/312/107
f 276/306/1 279/315/1 277/316/1 274/307/1
f 275/317/2 276/318/2 274/309/2 273/92/2
f 280/315/3 275/319/3 273/320/3 278/316/3
f 279/321/4 280/322/4 278/318/4 277/317/4
f 278/319/5 273/323/5 274/324/5 277/320/5
f 279/323/6 276/325/6 275/326/6 280/324/6
s 0
f 284/149/129 287/327/47 285/327/129 282/149/47
f 283/149/2 284/187/48 282/187/2 281/149/48
f 288/149/130 283/327/48 281/327/130 286/149/48
f 287/149/4 288/187/48 286/187/4 285/149/48
s 1
f 286/125/131 281/328/131 282/329/131 285/330/131
s 0
f 292/149/108 295/327/47 293/327/108 290/149/47
f 291/149/2 292/187/48 290/187/132 289/149/47
f 296/149/109 291/327/48 289/327/109 294/149/48
f 295/149/133 296/187/47 294/187/4 293/149/48
s 1
f 295/331/6 292/332/6 291/333/6 296/334/6
f 300/335/1 303/336/1 301/334/1 298/337/1
s 0
f 299/213/48 300/213/132 298/149/47 297/149/2
f 303/213/48 304/213/133 302/149/47 301/149/4
f 302/149/110 297/327/48 298/327/110 301/149/48
f 303/149/111 300/327/47 299/327/111 304/149/47
f 308/213/47 311/213/108 309/149/47 306/149/108
f 312/213/48 307/213/109 305/149/48 310/149/109
s 1
f 311/338/4 312/339/4 310/340/4 309/341/4
s 0
f 310/167/48 305/167/110 306/149/48 309/149/5
f 311/167/47 308/167/111 307/149/47 312/149/112
s 1
f 316/342/6 319/343/6 317/26/6 314/344/6
f 315/345/2 316/19/2 314/346/2 313/347/2
f 320/32/5 315/31/5 313/343/5 318/342/5
f 319/221/4 320/348/4 318/349/4 317/214/4
f 318/350/1 313/166/1 314/7/1 317/351/1
f 319/166/3 316/169/3 315/352/3 320/7/3
s 0
f 324/154/48 327/154/134 325/149/48 322/149/135
s 1
f 323/353/136 324/354/136 322/355/136 321/356/136
s 0
f 328/154/47 323/154/137 321/149/47 326/149/137
f 326/357/47 321/357/138 322/149/47 325/149/138
f 327/357/48 324/357/139 323/149/48 328/149/139
f 332/154/48 335/154/134 333/149/48 330/149/135
s 1
f 331/354/136 332/358/136 330/359/136 329/355/136
s 0
f 336/154/47 331/154/137 329/149/47 334/149/137
f 334/357/47 329/357/138 330/149/47 333/149/138
f 335/357/48 332/357/139 331/149/48 336/149/139
f 340/149/134 343/168/48 341/168/134 338/149/48
f 339/149/140 340/360/48 338/360/141 337/149/48
f 344/149/137 339/168/47 337/168/142 342/149/47
f 343/149/143 344/360/47 342/360/144 341/149/47
s 1
f 342/361/145 337/362/145 338/163/145 341/363/145
s 0
f 348/149/146 351/360/48 349/360/146 346/149/48
f 347/149/147 348/360/48 346/360/148 345/149/48
f 352/149/149 347/360/47 345/360/150 350/149/47
f 351/149/151 352/360/47 350/360/152 349/149/47
s 1
f 350/364/153 345/365/153 346/341/153 349/366/153
s 0
f 356/149/154 359/360/48 357/360/154 354/149/48
f 355/149/155 356/360/48 354/360/155 353/149/48
f 360/149/156 355/360/47 353/360/157 358/149/47
f 359/149/158 360/360/47 358/360/159 357/149/47
s 1
f 358/99/160 353/5/160 354/348/160 357/225/160
s 0
f 364/149/161 367/360/48 365/360/161 362/149/48
f 363/149/162 364/360/48 362/360/163 361/149/48
f 368/149/164 363/360/47 361/360/164 366/149/47
f 367/149/165 368/360/47 366/360/166 365/149/47
s 1
f 366/313/167 361/367/167 362/368/167 365/314/167
s 0
f 372/149/168 375/360/47 373/360/169 370/149/47
f 371/149/170 372/360/47 370/360/171 369/149/47
f 376/149/172 371/360/48 369/360/173 374/149/48
f 375/149/174 376/360/48 374/360/174 373/149/48
s 1
f 374/367/175 369/237/175 370/150/175 373/368/175
s 0
f 380/149/176 383/360/47 381/360/177 378/149/47
f 379/149/178 380/360/48 378/360/179 377/149/48
f 384/149/180 379/360/48 377/360/180 382/149/48
f 383/149/181 384/360/47 382/360/182 381/149/47
s 1
f 382/244/183 377/243/183 378/54/183 381/191/183
s 0
f 388/167/47 391/167/184 389/149/47 386/149/185
s 1
f 387/209/186 388/369/186 386/351/186 385/370/186
s 0
f 392/167/48 387/167/187 385/149/48 390/149/187
f 390/148/47 385/148/188 386/149/47 389/149/189
f 391/148/48 388/148/190 387/149/48 392/149/190
f 395/167/48 396/167/186 394/149/48 393/149/186
s 1
f 400/181/191 395/180/191 393/186/191 398/371/191
s 0
f 399/167/47 400/167/192 398/149/47 397/149/193
f 398/149/188 393/187/47 394/187/189 397/149/47
f 399/149/190 396/187/48 395/187/190 400/149/48
s 1
f 404/372/194 407/373/194 405/374/194 402/375/194
s 0
f 403/357/48 404/357/186 402/149/48 401/149/186
f 407/357/47 408/357/192 406/149/47 405/149/193
f 406/149/188 401/187/47 402/187/189 405/149/47
f 407/149/190 404/187/48 403/187/190 408/149/48
f 412/149/194 415/187/47 413/187/184 410/149/47
f 411/149/186 412/376/48 410/376/186 409/149/48
f 416/149/191 411/187/48 409/187/187 414/149/48
f 415/149/192 416/376/47 414/376/192 413/149/47
s 1
f 414/377/189 409/84/189 410/370/189 413/378/189
f 420/107/195 417/108/195 418/109/195 419/110/195
f 424/107/196 421/108/196 422/109/196 423/110/196
f 428/107/195 425/108/195 426/109/195 427/110/195
f 432/107/196 429/108/196 430/109/196 431/110/196
f 436/107/195 433/108/195 434/109/195 435/110/195
f 440/107/196 437/108/196 438/109/196 439/110/196
f 444/107/195 441/108/195 442/109/195 443/110/195
f 448/107/196 445/108/196 446/109/196 447/110/196
f 452/107/197 449/108/197 450/109/197 451/110/197
f 456/107/198 453/108/198 454/109/198 455/110/198
f 460/107/197 457/108/197 458/109/197 459/110/197
f 464/107/198 461/108/198 462/109/198 463/110/198
f 468/107/197 465/108/197 466/109/197 467/110/197
f 472/107/198 469/108/198 470/109/198 471/110/198
f 476/107/197 473/108/197 474/109/197 475/110/197
f 480/107/198 477/108/198 478/109/198 479/110/198
f 484/379/199 487/380/199 485/381/199 482/382/199
f 483/383/200 484/379/200 482/382/200 481/132/200
f 488/384/201 483/385/201 481/386/201 486/387/201
f 487/380/202 488/384/202 486/387/202 485/381/202
f 486/388/203 481/389/203 482/382/203 485/381/203
f 487/387/204 484/381/204 483/388/204 488/390/204
f 492/86/205 495/391/205 493/392/205 490/393/205
f 491/394/206 492/86/206 490/393/206 489/395/206
f 496/153/207 491/203/207 489/396/207 494/397/207
f 495/391/208 496/153/208 494/397/208 493/392/208
f 494/398/209 489/399/209 490/393/209 493/392/209
f 495/397/210 492/392/210 491/398/210 496/400/210
