# Blender 4.5.10 LTS
# www.blender.org
mtllib handcuffs.mtl
o handcuffs
v -0.172803 1.345583 0.016104
v -0.110900 1.355531 0.016104
v -0.065583 1.389968 0.016104
v -0.048980 1.439909 0.016104
v -0.065583 1.490314 0.016104
v -0.110900 1.522806 0.016104
v -0.029973 1.375227 0.016104
v -0.007865 1.439896 0.016104
v -0.029973 1.505056 0.016104
v -0.090340 1.548339 0.016104
v -0.060156 1.339375 0.016104
v -0.172803 1.207273 0.016104
v -0.152187 1.202771 0.016104
v -0.060156 1.229275 0.016104
v -0.068821 1.218788 0.016104
v -0.234707 1.355531 0.016104
v -0.285450 1.339375 0.016104
v -0.193419 1.202771 0.016104
v -0.285450 1.229275 0.016104
v -0.276786 1.218788 0.016104
v -0.048980 1.439909 -0.016104
v -0.065583 1.389968 -0.016104
v -0.065583 1.490314 -0.016104
v -0.110900 1.522806 -0.016104
v -0.007865 1.439896 -0.016104
v -0.029973 1.375227 -0.016104
v -0.029973 1.505056 -0.016104
v -0.090340 1.548339 -0.016104
v -0.110900 1.355531 -0.016104
v -0.060156 1.339375 -0.016104
v -0.172803 1.345583 -0.016104
v -0.152187 1.202771 -0.016104
v -0.172803 1.207273 -0.016104
v -0.060156 1.229275 -0.016104
v -0.068821 1.218788 -0.016104
v -0.268002 1.356261 -0.016104
v -0.268002 1.356261 0.016104
v -0.234707 1.355531 -0.016104
v -0.285450 1.339375 -0.016104
v -0.193419 1.202771 -0.016104
v -0.285450 1.229275 -0.016104
v -0.276786 1.218788 -0.016104
v -0.179645 1.525656 0.016104
v -0.192651 1.533034 0.016104
v -0.174837 1.564434 0.016104
v -0.196630 1.547449 0.016104
v -0.189251 1.560455 0.016104
v -0.179645 1.525656 -0.016104
v -0.196630 1.547449 -0.016104
v -0.192651 1.533034 -0.016104
v -0.174837 1.564434 -0.016104
v -0.189251 1.560455 -0.016104
v -0.174837 1.564434 -0.006470
v -0.189251 1.560455 -0.006470
v -0.090340 1.548339 -0.006470
v -0.196630 1.547449 -0.006470
v -0.192651 1.533034 -0.006470
v -0.110900 1.522806 -0.006470
v -0.179645 1.525656 -0.006470
v -0.268002 1.356261 -0.006470
v -0.234707 1.355531 -0.006470
v -0.285450 1.339375 -0.006470
v -0.029973 1.505056 -0.006470
v -0.065583 1.490314 -0.006470
v -0.007865 1.439896 -0.006470
v -0.048980 1.439909 -0.006470
v -0.029973 1.375227 -0.006470
v -0.065583 1.389968 -0.006470
v -0.060156 1.339375 -0.006470
v -0.110900 1.355531 -0.006470
v -0.060156 1.274685 -0.006470
v -0.172803 1.345583 -0.006470
v -0.285450 1.274685 -0.006470
v -0.174837 1.564434 0.006470
v -0.189251 1.560455 0.006470
v -0.090340 1.548339 0.006470
v -0.196630 1.547449 0.006470
v -0.029973 1.505056 0.006470
v -0.192651 1.533034 0.006470
v -0.110900 1.522806 0.006470
v -0.065583 1.490314 0.006470
v -0.179645 1.525656 0.006470
v -0.007865 1.439896 0.006470
v -0.048980 1.439909 0.006470
v -0.029973 1.375227 0.006470
v -0.065583 1.389968 0.006470
v -0.060156 1.339375 0.006470
v -0.110900 1.355531 0.006470
v -0.268002 1.356261 0.006470
v -0.060156 1.274685 0.006470
v -0.172803 1.345583 0.006470
v -0.234707 1.355531 0.006470
v -0.285450 1.339375 0.006470
v -0.285450 1.274685 0.006470
v -0.174837 1.526684 0.006470
v -0.174837 1.526684 -0.006470
v -0.223253 1.517408 0.006470
v -0.223253 1.517408 -0.006470
v -0.265950 1.490314 0.006470
v -0.265950 1.490314 -0.006470
v -0.287876 1.439909 0.006470
v -0.287876 1.439909 -0.006470
v -0.279029 1.389968 0.006470
v -0.279029 1.389968 -0.006470
v -0.234707 1.358976 0.006470
v -0.234707 1.358976 -0.006470
v -0.173535 1.348628 0.006470
v -0.173535 1.348628 -0.006470
v -0.060156 1.348628 0.006470
v -0.060156 1.348628 -0.006470
v -0.181146 1.559614 0.006470
v -0.181146 1.559614 -0.006470
v -0.235608 1.548579 0.006470
v -0.235608 1.548579 -0.006470
v -0.291425 1.512115 0.006470
v -0.291425 1.512115 -0.006470
v -0.321174 1.443839 0.006470
v -0.321174 1.443839 -0.006470
v -0.307294 1.371932 0.006470
v -0.307294 1.371932 -0.006470
v -0.247420 1.327951 0.006470
v -0.247420 1.327951 -0.006470
v -0.176342 1.315217 0.006470
v -0.176342 1.315217 -0.006470
v -0.060156 1.332729 0.006470
v -0.060156 1.332729 -0.006470
v -0.174837 1.563397 0.006470
v -0.191360 1.553857 0.006470
v -0.191360 1.534778 0.006470
v -0.174837 1.525238 0.006470
v -0.158314 1.534778 0.006470
v -0.158314 1.553857 0.006470
v -0.174837 1.563397 -0.006470
v -0.191360 1.553857 -0.006470
v -0.191360 1.534778 -0.006470
v -0.174837 1.525238 -0.006470
v -0.158314 1.534778 -0.006470
v -0.158314 1.553857 -0.006470
v -0.177241 1.536276 0.019618
v -0.168472 1.545045 0.019618
v -0.177241 1.553814 0.019618
v -0.186010 1.545045 0.019618
v -0.177241 1.536276 -0.019618
v -0.168472 1.545045 -0.019618
v -0.177241 1.553814 -0.019618
v -0.186010 1.545045 -0.019618
v -0.172803 1.207273 -0.013658
v -0.186461 1.207273 0.000000
v -0.172803 1.207273 0.013658
v -0.159145 1.207273 0.000000
v -0.172803 1.173635 -0.013658
v -0.186461 1.173635 0.000000
v -0.172803 1.173635 0.013658
v -0.159145 1.173635 0.000000
v 0.014785 1.072509 0.000000
v 0.005127 1.082167 0.013658
v -0.004531 1.091825 0.000000
v 0.005127 1.082167 -0.013658
v 0.038571 1.096295 0.000000
v 0.028913 1.105953 0.013658
v 0.019255 1.115611 0.000000
v 0.028913 1.105953 -0.013658
v 0.258415 1.354133 -0.019618
v 0.270816 1.354133 -0.019618
v 0.270816 1.341731 -0.019618
v 0.258415 1.341731 -0.019618
v 0.258415 1.354133 0.019618
v 0.270816 1.354133 0.019618
v 0.270816 1.341731 0.019618
v 0.258415 1.341731 0.019618
v 0.284230 1.340779 -0.006470
v 0.270739 1.327288 -0.006470
v 0.252310 1.332226 -0.006470
v 0.247372 1.350656 -0.006470
v 0.260863 1.364147 -0.006470
v 0.279292 1.359209 -0.006470
v 0.284230 1.340779 0.006470
v 0.270739 1.327288 0.006470
v 0.252310 1.332226 0.006470
v 0.247372 1.350656 0.006470
v 0.260863 1.364147 0.006470
v 0.279292 1.359209 0.006470
v 0.197277 1.115010 -0.006470
v 0.197277 1.115010 0.006470
v 0.102739 1.184783 -0.006470
v 0.102739 1.184783 0.006470
v 0.061483 1.244047 -0.006470
v 0.061483 1.244047 0.006470
v 0.050245 1.317484 -0.006470
v 0.050245 1.317484 0.006470
v 0.091276 1.378144 -0.006470
v 0.091276 1.378144 0.006470
v 0.160590 1.405387 -0.006470
v 0.160590 1.405387 0.006470
v 0.225843 1.391702 -0.006470
v 0.225843 1.391702 0.006470
v 0.272157 1.360995 -0.006470
v 0.272157 1.360995 0.006470
v 0.208520 1.126253 -0.006470
v 0.208520 1.126253 0.006470
v 0.128349 1.206424 -0.006470
v 0.128349 1.206424 0.006470
v 0.092411 1.256996 -0.006470
v 0.092411 1.256996 0.006470
v 0.082985 1.310251 -0.006470
v 0.082985 1.310251 0.006470
v 0.112043 1.351820 -0.006470
v 0.112043 1.351820 0.006470
v 0.163189 1.371959 -0.006470
v 0.163189 1.371959 0.006470
v 0.212538 1.360926 -0.006470
v 0.212538 1.360926 0.006470
v 0.253332 1.333249 -0.006470
v 0.253332 1.333249 0.006470
v -0.003073 1.233274 0.006470
v 0.042670 1.279017 0.006470
v 0.089974 1.254560 0.006470
v 0.126713 1.203753 0.006470
v 0.156234 1.073967 0.006470
v 0.066948 1.278620 0.006470
v 0.177519 1.167015 0.006470
v 0.201977 1.119710 0.006470
v 0.233914 1.159322 0.006470
v 0.248671 1.123718 0.006470
v 0.280967 1.182896 0.006470
v 0.310032 1.153814 0.006470
v 0.249205 1.335922 0.006470
v 0.304870 1.230277 0.006470
v 0.295801 1.285296 0.006470
v 0.245226 1.350336 0.006470
v 0.340474 1.215521 0.006470
v 0.252605 1.363342 0.006470
v 0.328393 1.288813 0.006470
v 0.267020 1.367321 0.006470
v 0.280026 1.359942 0.006470
v -0.003073 1.233274 -0.006470
v 0.126713 1.203753 -0.006470
v 0.156234 1.073967 -0.006470
v 0.177519 1.167015 -0.006470
v 0.201977 1.119710 -0.006470
v 0.233914 1.159322 -0.006470
v 0.248671 1.123718 -0.006470
v 0.280967 1.182896 -0.006470
v 0.310032 1.153814 -0.006470
v 0.304870 1.230277 -0.006470
v 0.340474 1.215521 -0.006470
v 0.042670 1.279017 -0.006470
v 0.089974 1.254560 -0.006470
v 0.066948 1.278620 -0.006470
v 0.249205 1.335922 -0.006470
v 0.295801 1.285296 -0.006470
v 0.245226 1.350336 -0.006470
v 0.252605 1.363342 -0.006470
v 0.328393 1.288813 -0.006470
v 0.267020 1.367321 -0.006470
v 0.280026 1.359942 -0.006470
v 0.267020 1.367321 -0.016104
v 0.280026 1.359942 -0.016104
v 0.245226 1.350336 -0.016104
v 0.252605 1.363342 -0.016104
v 0.249205 1.335922 -0.016104
v 0.267020 1.367321 0.016104
v 0.252605 1.363342 0.016104
v 0.280026 1.359942 0.016104
v 0.245226 1.350336 0.016104
v 0.249205 1.335922 0.016104
v -0.036472 1.187622 -0.016104
v -0.035183 1.201164 -0.016104
v 0.011152 1.117347 -0.016104
v 0.042670 1.279017 -0.016104
v 0.089974 1.254560 -0.016104
v 0.066948 1.278620 0.016104
v 0.066948 1.278620 -0.016104
v 0.110582 1.040568 -0.016104
v 0.124124 1.041857 -0.016104
v 0.028913 1.105953 -0.016104
v 0.040307 1.088192 -0.016104
v 0.126713 1.203753 -0.016104
v 0.201977 1.119710 -0.016104
v 0.177519 1.167015 -0.016104
v 0.328393 1.288813 -0.016104
v 0.340474 1.215521 -0.016104
v 0.248671 1.123718 -0.016104
v 0.310032 1.153813 -0.016104
v 0.295801 1.285296 -0.016104
v 0.304870 1.230277 -0.016104
v 0.233914 1.159322 -0.016104
v 0.280967 1.182896 -0.016104
v -0.036472 1.187622 0.016104
v -0.035183 1.201164 0.016104
v 0.011152 1.117347 0.016104
v 0.042670 1.279017 0.016104
v 0.089974 1.254560 0.016104
v 0.110582 1.040568 0.016104
v 0.124124 1.041857 0.016104
v 0.040307 1.088192 0.016104
v 0.028913 1.105953 0.016104
v 0.201977 1.119710 0.016104
v 0.328393 1.288813 0.016104
v 0.340474 1.215521 0.016104
v 0.310032 1.153814 0.016104
v 0.248671 1.123718 0.016104
v 0.295801 1.285296 0.016104
v 0.304870 1.230277 0.016104
v 0.280967 1.182896 0.016104
v 0.233914 1.159322 0.016104
v 0.177519 1.167015 0.016104
v 0.126713 1.203753 0.016104
v -0.163092 1.184355 0.006000
v -0.158796 1.188107 0.000000
v -0.163092 1.184355 -0.006000
v -0.167388 1.180603 0.000000
v -0.170722 1.187666 0.006000
v -0.170916 1.193367 0.000000
v -0.170722 1.187666 -0.006000
v -0.170528 1.181966 0.000000
v -0.181420 1.184267 0.006000
v -0.185991 1.188577 0.000000
v -0.181420 1.184267 -0.006000
v -0.176849 1.179957 0.000000
v -0.184307 1.177614 0.006000
v -0.190577 1.178008 0.000000
v -0.184307 1.177614 -0.006000
v -0.178037 1.177219 0.000000
v -0.159394 1.134356 0.006000
v -0.161849 1.128940 0.000000
v -0.159394 1.134356 -0.006000
v -0.156824 1.139644 0.000000
v -0.151460 1.134128 0.006000
v -0.149245 1.128579 0.000000
v -0.151460 1.134128 -0.006000
v -0.153558 1.139551 0.000000
v -0.143334 1.141872 0.006000
v -0.138211 1.139911 -0.000000
v -0.143334 1.141872 -0.006000
v -0.148589 1.143945 0.000000
v -0.142720 1.149105 0.006000
v -0.137216 1.151418 -0.000000
v -0.142720 1.149105 -0.006000
v -0.148341 1.146917 0.000000
v -0.147700 1.146856 -0.011130
v -0.153578 1.144582 -0.016673
v -0.156783 1.139014 -0.011130
v -0.150717 1.141384 -0.005587
v -0.150578 1.150612 -0.005612
v -0.158371 1.151019 -0.007909
v -0.160088 1.143294 -0.005612
v -0.152225 1.142918 -0.003316
v -0.150578 1.150612 0.005613
v -0.158371 1.151019 0.007909
v -0.160088 1.143294 0.005613
v -0.152225 1.142918 0.003316
v -0.147700 1.146856 0.011130
v -0.153578 1.144582 0.016673
v -0.156783 1.139014 0.011130
v -0.150717 1.141384 0.005587
v -0.113344 1.117623 0.011130
v -0.114898 1.111395 0.016673
v -0.120098 1.107704 0.011130
v -0.118544 1.113932 0.005587
v -0.109078 1.114648 0.005613
v -0.107780 1.106789 0.007909
v -0.115603 1.104577 0.005613
v -0.116741 1.112678 0.003316
v -0.109078 1.114648 -0.005613
v -0.107780 1.106789 -0.007909
v -0.115603 1.104577 -0.005612
v -0.116741 1.112678 -0.003316
v -0.113344 1.117623 -0.011130
v -0.114898 1.111395 -0.016673
v -0.120098 1.107704 -0.011130
v -0.118544 1.113932 -0.005587
v -0.110671 1.122013 0.006000
v -0.109239 1.127770 -0.000000
v -0.110671 1.122013 -0.006000
v -0.112017 1.116196 0.000000
v -0.118060 1.120430 0.006000
v -0.120981 1.125247 -0.000000
v -0.118060 1.120430 -0.006000
v -0.115056 1.115546 0.000000
v -0.124598 1.111306 0.006000
v -0.130488 1.112605 0.000000
v -0.124598 1.111306 -0.006000
v -0.118795 1.110067 0.000000
v -0.123221 1.103628 0.006000
v -0.128300 1.100408 0.000000
v -0.123221 1.103628 -0.006000
v -0.118228 1.106907 0.000000
v -0.079953 1.079758 0.006000
v -0.079886 1.073758 0.000000
v -0.079953 1.079758 -0.006000
v -0.079858 1.085841 0.000000
v -0.072711 1.082914 0.006000
v -0.068332 1.078883 0.000000
v -0.072711 1.082914 -0.006000
v -0.076944 1.086971 0.000000
v -0.068639 1.093374 0.006000
v -0.063006 1.093777 -0.000000
v -0.068639 1.093374 -0.006000
v -0.074370 1.093084 0.000000
v -0.071317 1.100275 0.006000
v -0.067285 1.104632 -0.000000
v -0.071317 1.100275 -0.006000
v -0.075423 1.096097 0.000000
v -0.074823 1.096269 -0.011130
v -0.079198 1.091707 -0.016673
v -0.079562 1.085244 -0.011130
v -0.075188 1.089804 -0.005587
v -0.079515 1.098496 -0.005613
v -0.086857 1.095332 -0.007909
v -0.084510 1.087585 -0.005612
v -0.077170 1.090746 -0.003316
v -0.079515 1.098496 0.005613
v -0.086857 1.095332 0.007909
v -0.084510 1.087585 0.005613
v -0.077170 1.090746 0.003316
v -0.074823 1.096269 0.011130
v -0.079198 1.091707 0.016673
v -0.079562 1.085244 0.011130
v -0.075188 1.089804 0.005587
v -0.031998 1.084070 0.011130
v -0.030523 1.077907 0.016673
v -0.033295 1.072140 0.011130
v -0.034771 1.078300 0.005587
v -0.027194 1.083612 0.005613
v -0.022418 1.077118 0.007909
v -0.027894 1.071633 0.005613
v -0.032670 1.078107 0.003316
v -0.027194 1.083612 -0.005612
v -0.022418 1.077118 -0.007909
v -0.027894 1.071633 -0.005612
v -0.032670 1.078107 -0.003316
v -0.031998 1.084070 -0.011130
v -0.030523 1.077907 -0.016673
v -0.033295 1.072140 -0.011130
v -0.034771 1.078300 -0.005587
v -0.031677 1.089191 0.006000
v -0.032844 1.094854 -0.000000
v -0.031677 1.089191 -0.006000
v -0.030283 1.083496 0.000000
v -0.037115 1.084132 0.006000
v -0.041571 1.087529 -0.000000
v -0.037115 1.084132 -0.006000
v -0.032519 1.081424 0.000000
v -0.038912 1.073052 0.006000
v -0.044682 1.072020 0.000000
v -0.038912 1.073052 -0.006000
v -0.033251 1.074831 0.000000
v -0.034140 1.067068 0.006000
v -0.037221 1.061795 0.000000
v -0.034140 1.067068 -0.006000
v -0.031288 1.072367 0.000000
v 0.015331 1.074505 0.006000
v 0.020106 1.070390 0.000000
v 0.015331 1.074505 -0.006000
v 0.010557 1.078620 0.000000
v 0.017925 1.081231 0.006000
v 0.024226 1.081074 0.000000
v 0.017925 1.081231 -0.006000
v 0.011624 1.081387 0.000000
v 0.012634 1.091130 0.006000
v 0.016770 1.095023 0.000000
v 0.012634 1.091130 -0.006000
v 0.008497 1.087237 0.000000
v 0.004838 1.094136 0.006000
v 0.004386 1.099799 -0.000000
v 0.004838 1.094136 -0.006000
v 0.005289 1.088474 0.000000
vn -0.0000 -0.0000 1.0000
vn -0.0000 -0.0000 -1.0000
vn -0.3257 -0.9455 -0.0000
vn -0.2751 -0.9614 -0.0000
vn -0.0000 -1.0000 -0.0000
vn -0.0126 -0.9999 -0.0000
vn 0.9410 -0.3384 -0.0000
vn 1.0000 -0.0000 -0.0000
vn -0.0000 1.0000 -0.0000
vn 0.0905 0.9959 -0.0000
vn 0.5099 -0.8602 -0.0000
vn -1.0000 0.0014 -0.0000
vn -0.8133 0.5818 -0.0000
vn 0.0126 -0.9999 -0.0000
vn -0.9410 -0.3384 -0.0000
vn -0.5099 -0.8602 -0.0000
vn -0.8060 -0.5919 -0.0000
vn -1.0000 -0.0000 -0.0000
vn 0.3941 0.9190 -0.0000
vn -0.0405 0.9992 -0.0000
vn 0.8705 -0.4922 -0.0000
vn 1.0000 -0.0012 -0.0000
vn 0.8033 0.5955 -0.0000
vn -0.3936 0.9193 -0.0000
vn -0.3649 0.9310 -0.0000
vn 0.9394 -0.3428 -0.0000
vn -0.6955 0.7186 -0.0000
vn -0.7887 -0.6147 -0.0000
vn -0.9924 0.1231 -0.0000
vn -0.6147 0.7887 -0.0000
vn 0.1881 -0.9821 -0.0000
vn 0.3685 -0.9296 -0.0000
vn 0.7598 -0.6502 -0.0000
vn 0.9931 -0.1172 -0.0000
vn 0.8430 0.5379 -0.0000
vn 0.3792 0.9253 -0.0000
vn 0.0837 0.9965 -0.0000
vn -0.1986 0.9801 -0.0000
vn -0.3795 0.9252 -0.0000
vn -0.7639 0.6454 -0.0000
vn -0.9939 0.1099 -0.0000
vn -0.8451 -0.5345 -0.0000
vn -0.3944 -0.9189 -0.0000
vn -0.0138 -0.9999 -0.0000
vn 0.1490 -0.9888 -0.0000
vn 0.8660 -0.5000 -0.0000
vn -0.8660 -0.5000 -0.0000
vn -0.8660 0.5000 -0.0000
vn 0.8660 0.5000 -0.0000
vn -0.7071 0.7071 -0.0000
vn 0.7071 0.7071 -0.0000
vn 0.9659 -0.2588 -0.0000
vn 0.7071 -0.7071 -0.0000
vn -0.7071 -0.7071 -0.0000
vn 0.3858 0.9226 -0.0000
vn -0.0838 0.9965 -0.0000
vn -0.5614 -0.8275 -0.0000
vn -0.3968 -0.9179 -0.0000
vn -0.6251 0.7805 -0.0000
vn -0.7168 -0.6973 -0.0000
vn -0.5938 -0.8046 -0.0000
vn -0.9756 0.2196 -0.0000
vn -0.9287 -0.3709 -0.0000
vn -0.9659 0.2588 -0.0000
vn 0.1231 0.9924 -0.0000
vn 0.0775 -0.9970 -0.0000
vn 0.6194 -0.7851 -0.0000
vn 0.2588 -0.9659 -0.0000
vn -0.2588 0.9659 -0.0000
vn 0.9891 -0.1469 -0.0000
vn 0.7063 -0.7079 -0.0000
vn 0.9286 0.3712 -0.0000
vn 0.6779 0.7352 -0.0000
vn 0.7682 0.6402 -0.0000
vn 0.3717 0.9284 -0.0000
vn -0.1637 0.9865 -0.0000
vn -0.8988 -0.4383 -0.0000
vn -0.8744 -0.4853 -0.0000
vn 0.9765 -0.2157 -0.0000
vn 0.9224 0.3862 -0.0000
vn 0.7638 0.6454 -0.0000
vn -0.9885 0.1513 -0.0000
vn 0.0163 0.9999 -0.0000
vn 0.4003 0.9164 -0.0000
vn 0.2675 -0.9636 -0.0000
vn 0.5526 0.8334 -0.0000
vn 0.4219 -0.9067 -0.0000
vn -0.7061 0.7081 -0.0000
vn -0.9924 0.1230 -0.0000
vn -0.9047 0.4261 -0.0000
vn -0.9688 -0.2477 -0.0000
vn -0.6981 -0.7160 -0.0000
vn -0.7160 -0.6981 -0.0000
vn -0.2477 -0.9688 -0.0000
vn 0.4261 -0.9047 -0.0000
vn -0.4872 -0.5311 0.6932
vn -0.0292 -0.7251 0.6880
vn -0.0492 -0.7249 0.6871
vn -0.4695 -0.5497 0.6909
vn 0.4860 0.5336 0.6921
vn 0.0292 0.7251 0.6880
vn 0.0492 0.7249 0.6871
vn 0.4678 0.5525 0.6898
vn 0.4678 0.5525 -0.6898
vn 0.0492 0.7249 -0.6871
vn 0.0292 0.7251 -0.6880
vn 0.4860 0.5336 -0.6921
vn -0.4695 -0.5497 -0.6909
vn -0.0492 -0.7249 -0.6871
vn -0.0292 -0.7251 -0.6880
vn -0.4872 -0.5311 -0.6932
vn 0.4696 -0.5076 0.7224
vn 0.4531 -0.5237 0.7214
vn -0.4696 0.5076 0.7224
vn -0.4531 0.5237 0.7214
vn -0.4531 0.5237 -0.7214
vn -0.4696 0.5076 -0.7224
vn 0.4531 -0.5237 -0.7214
vn 0.4696 -0.5076 -0.7224
vn 0.6983 0.0276 0.7153
vn 0.6990 0.0652 0.7122
vn -0.6980 -0.0297 0.7155
vn -0.6986 -0.0689 0.7121
vn -0.6986 -0.0689 -0.7121
vn -0.6980 -0.0297 -0.7155
vn 0.6990 0.0652 -0.7122
vn 0.6983 0.0276 -0.7153
vn 0.3532 0.6142 0.7057
vn 0.3797 0.5993 0.7048
vn -0.3471 -0.6142 0.7087
vn -0.3805 -0.5959 0.7071
vn -0.3805 -0.5960 -0.7071
vn -0.3471 -0.6142 -0.7087
vn 0.3797 0.5992 -0.7048
vn 0.3532 0.6142 -0.7057
vn -0.2561 0.6764 0.6906
vn -0.2534 0.6773 0.6907
vn 0.2659 -0.6654 0.6975
vn 0.2653 -0.6656 0.6975
vn 0.2653 -0.6656 -0.6975
vn 0.2659 -0.6654 -0.6975
vn -0.2534 0.6773 -0.6907
vn -0.2561 0.6764 -0.6906
vn -0.6541 0.3101 0.6899
vn -0.6461 0.3273 0.6895
vn 0.6655 -0.3018 0.6827
vn 0.6587 -0.3164 0.6827
vn 0.6587 -0.3164 -0.6827
vn 0.6655 -0.3018 -0.6827
vn -0.6461 0.3273 -0.6895
vn -0.6541 0.3101 -0.6899
vn -0.6947 -0.1677 0.6994
vn -0.7028 -0.1381 0.6978
vn 0.6975 0.1729 0.6954
vn 0.7077 0.1384 0.6929
vn 0.7077 0.1384 -0.6929
vn 0.6975 0.1729 -0.6954
vn -0.7028 -0.1381 -0.6978
vn -0.6947 -0.1677 -0.6994
vn 0.6836 0.2839 0.6724
vn 0.9573 -0.1114 0.2668
vn 0.9612 -0.1184 0.2492
vn 0.7100 0.2522 0.6574
vn 0.3242 0.7078 -0.6276
vn 0.1204 0.9548 -0.2716
vn 0.1168 0.9594 -0.2569
vn -0.7022 -0.2485 -0.6672
vn -0.9576 0.1255 -0.2594
vn -0.9554 0.1217 -0.2691
vn -0.6817 -0.2734 -0.6787
vn -0.3239 -0.6976 0.6391
vn -0.1145 -0.9560 0.2702
vn -0.1156 -0.9545 0.2748
vn -0.3172 -0.7050 0.6343
vn 0.9573 -0.1114 -0.2668
vn 0.9612 -0.1184 -0.2492
vn 0.1204 0.9548 0.2716
vn 0.1168 0.9594 0.2569
vn -0.9576 0.1255 0.2594
vn -0.9554 0.1217 0.2691
vn -0.1145 -0.9560 -0.2702
vn -0.1156 -0.9545 -0.2748
vn 0.6836 0.2839 -0.6724
vn 0.7100 0.2522 -0.6575
vn 0.3242 0.7078 0.6276
vn -0.7022 -0.2485 0.6672
vn -0.6817 -0.2734 0.6787
vn -0.3239 -0.6976 -0.6391
vn -0.3172 -0.7050 -0.6343
vn 0.2079 0.7130 -0.6696
vn 0.1878 0.7270 -0.6604
vn 0.6598 0.4110 0.6291
vn 0.6543 0.4150 0.6322
vn -0.1821 -0.7222 0.6673
vn -0.1994 -0.7102 0.6751
vn -0.6517 -0.4082 -0.6392
vn -0.6596 -0.4024 -0.6348
vn -0.1607 0.9485 -0.2731
vn -0.1638 0.9504 -0.2643
vn 0.9370 0.2248 0.2675
vn 0.9384 0.2240 0.2633
vn 0.1808 -0.9462 0.2685
vn 0.1787 -0.9450 0.2739
vn -0.9411 -0.2068 -0.2676
vn -0.9408 -0.2069 -0.2684
vn -0.1607 0.9485 0.2731
vn -0.1638 0.9504 0.2643
vn 0.9370 0.2248 -0.2675
vn 0.9384 0.2240 -0.2633
vn 0.1808 -0.9462 -0.2685
vn 0.1787 -0.9450 -0.2739
vn -0.9411 -0.2068 0.2676
vn -0.9408 -0.2069 0.2684
vn 0.2079 0.7130 0.6696
vn 0.1878 0.7270 0.6604
vn 0.6598 0.4110 -0.6291
vn 0.6543 0.4150 -0.6322
vn -0.1821 -0.7222 -0.6673
vn -0.1994 -0.7102 -0.6751
vn -0.6517 -0.4082 0.6392
vn -0.6596 -0.4024 0.6348
vn -0.1114 -0.7026 0.7028
vn 0.3942 -0.6026 0.6939
vn 0.4010 -0.5981 0.6939
vn -0.0926 -0.7060 0.7021
vn 0.1125 0.7030 0.7022
vn -0.3899 0.6103 0.6896
vn -0.3955 0.6066 0.6896
vn 0.0899 0.7075 0.7010
vn 0.0899 0.7075 -0.7010
vn -0.3955 0.6066 -0.6896
vn -0.3899 0.6103 -0.6896
vn 0.1125 0.7030 -0.7022
vn -0.0926 -0.7060 -0.7021
vn 0.4010 -0.5981 -0.6939
vn 0.3942 -0.6026 -0.6939
vn -0.1114 -0.7026 -0.7028
vn 0.6973 -0.1541 0.7000
vn 0.6969 -0.1560 0.7000
vn -0.6916 0.1611 0.7041
vn -0.6910 0.1642 0.7040
vn -0.6910 0.1642 -0.7040
vn -0.6916 0.1611 -0.7041
vn 0.6969 -0.1560 -0.7000
vn 0.6973 -0.1541 -0.7000
vn 0.5776 0.4084 0.7068
vn 0.5705 0.4185 0.7066
vn -0.5782 -0.4077 0.7067
vn -0.5686 -0.4219 0.7061
vn -0.5686 -0.4219 -0.7061
vn -0.5782 -0.4077 -0.7067
vn 0.5705 0.4185 -0.7066
vn 0.5776 0.4084 -0.7068
vn 0.0331 0.7062 0.7073
vn 0.0450 0.7057 0.7071
vn -0.0247 -0.7073 0.7065
vn -0.0420 -0.7069 0.7061
vn -0.0420 -0.7069 -0.7061
vn -0.0247 -0.7073 -0.7065
vn 0.0450 0.7057 -0.7071
vn 0.0331 0.7062 -0.7073
vn -0.5122 0.5002 0.6981
vn -0.5094 0.5031 0.6982
vn 0.5223 -0.4881 0.6992
vn 0.5201 -0.4904 0.6993
vn 0.5201 -0.4904 -0.6993
vn 0.5223 -0.4881 -0.6992
vn -0.5094 0.5031 -0.6982
vn -0.5122 0.5002 -0.6981
vn -0.7221 0.0013 0.6918
vn -0.7220 0.0169 0.6917
vn 0.7236 0.0138 0.6901
vn 0.7238 -0.0010 0.6900
vn 0.7238 -0.0010 -0.6900
vn 0.7236 0.0138 -0.6901
vn -0.7220 0.0169 -0.6917
vn -0.7221 0.0013 -0.6918
vn -0.5340 -0.4714 0.7018
vn -0.5470 -0.4574 0.7011
vn 0.5291 0.4766 0.7021
vn 0.5456 0.4594 0.7009
vn 0.5456 0.4594 -0.7009
vn 0.5291 0.4766 -0.7021
vn -0.5470 -0.4574 -0.7011
vn -0.5340 -0.4714 -0.7018
vn 0.4941 0.5489 0.6743
vn 0.8978 0.3516 0.2653
vn 0.8994 0.3508 0.2609
vn 0.5165 0.5395 0.6650
vn -0.0090 0.7785 -0.6275
vn -0.3104 0.9107 -0.2724
vn -0.3130 0.9119 -0.2657
vn -0.0032 0.7763 -0.6303
vn -0.5107 -0.5409 -0.6683
vn -0.8968 -0.3535 -0.2660
vn -0.8957 -0.3541 -0.2690
vn -0.4901 -0.5495 -0.6767
vn -0.0009 -0.7738 0.6335
vn 0.3093 -0.9117 0.2705
vn 0.3073 -0.9108 0.2758
vn 0.0060 -0.7764 0.6302
vn 0.8978 0.3516 -0.2653
vn 0.8994 0.3508 -0.2609
vn -0.3104 0.9107 0.2724
vn -0.3130 0.9119 0.2657
vn -0.8968 -0.3535 0.2660
vn -0.8957 -0.3541 0.2690
vn 0.3093 -0.9117 -0.2705
vn 0.3073 -0.9108 -0.2758
vn 0.4941 0.5489 -0.6743
vn 0.5165 0.5395 -0.6650
vn -0.0090 0.7785 0.6275
vn -0.0032 0.7763 0.6303
vn -0.5107 -0.5409 0.6683
vn -0.4901 -0.5495 0.6767
vn -0.0009 -0.7738 -0.6335
vn 0.0060 -0.7764 -0.6302
vn -0.1425 0.7184 -0.6809
vn -0.1872 0.7236 -0.6644
vn 0.4195 0.6639 0.6191
vn 0.4125 0.6650 0.6226
vn 0.1747 -0.7201 0.6715
vn 0.1361 -0.7156 0.6852
vn -0.4012 -0.6649 -0.6300
vn -0.4102 -0.6635 -0.6257
vn -0.6219 0.7354 -0.2690
vn -0.6284 0.7353 -0.2538
vn 0.7345 0.6254 0.2634
vn 0.7377 0.6250 0.2553
vn 0.6201 -0.7385 0.2648
vn 0.6145 -0.7386 0.2774
vn -0.7300 -0.6294 -0.2664
vn -0.7278 -0.6297 -0.2717
vn -0.6219 0.7354 0.2690
vn -0.6284 0.7353 0.2538
vn 0.7345 0.6254 -0.2634
vn 0.7377 0.6250 -0.2553
vn 0.6201 -0.7385 -0.2648
vn 0.6145 -0.7386 -0.2774
vn -0.7300 -0.6294 0.2664
vn -0.7278 -0.6297 0.2717
vn -0.1425 0.7184 0.6809
vn -0.1872 0.7236 0.6644
vn 0.4195 0.6639 -0.6191
vn 0.4125 0.6650 -0.6226
vn 0.1747 -0.7201 -0.6715
vn 0.1361 -0.7156 -0.6852
vn -0.4012 -0.6649 0.6300
vn -0.4102 -0.6635 0.6257
vn 0.2945 -0.6610 0.6902
vn 0.6538 -0.3482 0.6718
vn 0.6590 -0.3383 0.6718
vn 0.3329 -0.6466 0.6863
vn -0.2813 0.6648 0.6920
vn -0.6303 0.3753 0.6797
vn -0.6450 0.3495 0.6796
vn -0.3209 0.6498 0.6890
vn -0.3209 0.6498 -0.6890
vn -0.6450 0.3495 -0.6796
vn -0.6303 0.3753 -0.6797
vn -0.2813 0.6648 -0.6920
vn 0.3329 -0.6466 -0.6863
vn 0.6590 -0.3383 -0.6718
vn 0.6538 -0.3482 -0.6718
vn 0.2945 -0.6610 -0.6902
vn 0.6921 0.1911 0.6961
vn 0.6952 0.1810 0.6956
vn -0.7002 -0.1562 0.6967
vn -0.6963 -0.1712 0.6970
vn -0.6963 -0.1712 -0.6970
vn -0.7002 -0.1563 -0.6967
vn 0.6952 0.1810 -0.6956
vn 0.6921 0.1911 -0.6961
vn 0.2721 0.6541 0.7058
vn 0.2330 0.6720 0.7029
vn -0.2862 -0.6499 0.7041
vn -0.2380 -0.6724 0.7009
vn -0.2380 -0.6724 -0.7009
vn -0.2862 -0.6499 -0.7041
vn 0.2330 0.6720 -0.7029
vn 0.2721 0.6541 -0.7058
vn -0.4507 0.5264 0.7210
vn -0.4019 0.5729 0.7143
vn 0.4510 -0.5274 0.7200
vn 0.4023 -0.5741 0.7131
vn 0.4023 -0.5741 -0.7131
vn 0.4510 -0.5274 -0.7200
vn -0.4019 0.5729 -0.7143
vn -0.4507 0.5264 -0.7210
vn -0.6896 -0.0335 0.7234
vn -0.6892 -0.0584 0.7222
vn 0.6896 0.0335 0.7234
vn 0.6892 0.0584 0.7222
vn 0.6892 0.0584 -0.7222
vn 0.6896 0.0334 -0.7234
vn -0.6892 -0.0584 -0.7222
vn -0.6896 -0.0335 -0.7234
vn -0.4879 -0.5393 0.6863
vn -0.4724 -0.5542 0.6853
vn 0.4879 0.5393 0.6863
vn 0.4724 0.5542 0.6853
vn 0.4724 0.5542 -0.6853
vn 0.4879 0.5393 -0.6863
vn -0.4724 -0.5542 -0.6853
vn -0.4879 -0.5393 -0.6863
vn -0.0713 -0.7254 0.6846
vn -0.1034 -0.7250 0.6810
vn 0.0724 0.7265 0.6834
vn 0.1046 0.7259 0.6798
vn 0.1046 0.7259 -0.6799
vn 0.0724 0.7265 -0.6834
vn -0.1034 -0.7250 -0.6810
vn -0.0713 -0.7254 -0.6846
vt 0.452645 0.280074
vt 0.339000 0.310790
vt 0.358718 0.242324
vt 0.577089 0.280074
vt 0.552917 0.246361
vt 0.563883 0.219869
vt 0.596084 0.264779
vt 0.515418 0.234009
vt 0.515409 0.203421
vt 0.478265 0.246361
vt 0.440626 0.242324
vt 0.467298 0.219869
vt 0.270003 0.287445
vt 0.272964 0.298169
vt 0.244115 0.294592
vt 0.117551 0.345735
vt 0.023623 0.383485
vt 0.003906 0.315019
vt 0.241995 0.345735
vt 0.260990 0.361030
vt 0.228789 0.405940
vt 0.217823 0.379448
vt 0.180314 0.422387
vt 0.180324 0.391799
vt 0.143170 0.379448
vt 0.132204 0.405940
vt 0.105532 0.383485
vt 0.473375 0.003906
vt 0.524562 0.003906
vt 0.524562 0.011074
vt 0.473375 0.011074
vt 0.339000 0.341464
vt 0.452645 0.372180
vt 0.358718 0.409930
vt 0.003906 0.284345
vt 0.015822 0.222324
vt 0.023624 0.215879
vt 0.996094 0.003906
vt 0.996094 0.027868
vt 0.980395 0.027868
vt 0.980395 0.003906
vt 0.907121 0.003906
vt 0.907121 0.027868
vt 0.873338 0.011074
vt 0.264272 0.003906
vt 0.264272 0.011074
vt 0.217628 0.011074
vt 0.217628 0.003906
vt 0.917241 0.027868
vt 0.917241 0.003906
vt 0.392411 0.003906
vt 0.392411 0.011074
vt 0.353258 0.011074
vt 0.353258 0.003906
vt 0.019605 0.003906
vt 0.019605 0.027868
vt 0.003906 0.027868
vt 0.003906 0.003906
vt 0.092879 0.003906
vt 0.092879 0.027868
vt 0.082759 0.027868
vt 0.082759 0.003906
vt 0.431892 0.003906
vt 0.431892 0.011074
vt 0.126662 0.020700
vt 0.633052 0.027867
vt 0.569061 0.027867
vt 0.569061 0.020700
vt 0.633052 0.020700
vt 0.790347 0.003906
vt 0.790347 0.011074
vt 0.739502 0.011074
vt 0.739502 0.003906
vt 0.688313 0.011074
vt 0.688313 0.003906
vt 0.633052 0.011074
vt 0.633052 0.003906
vt 0.310915 0.011074
vt 0.310915 0.003906
vt 0.192852 0.011074
vt 0.192852 0.003906
vt 0.825212 0.003906
vt 0.825212 0.011074
vt 0.174788 0.011074
vt 0.174788 0.003906
vt 0.524562 0.027867
vt 0.524562 0.020700
vt 0.535687 0.020700
vt 0.535687 0.027867
vt 0.546811 0.020700
vt 0.546811 0.027867
vt 0.569061 0.003906
vt 0.569061 0.011074
vt 0.557936 0.011074
vt 0.557936 0.003906
vt 0.546811 0.011074
vt 0.546811 0.003906
vt 0.579209 0.331217
vt 0.608058 0.327640
vt 0.400474 0.084024
vt 0.389507 0.110516
vt 0.352008 0.098164
vt 0.219464 0.274085
vt 0.219464 0.106479
vt 0.229090 0.106479
vt 0.229090 0.274085
vt 0.535687 0.011074
vt 0.535687 0.003906
vt 0.353258 0.020700
vt 0.392411 0.020700
vt 0.392411 0.027867
vt 0.353258 0.027867
vt 0.192852 0.020700
vt 0.217628 0.020700
vt 0.217628 0.027867
vt 0.192852 0.027867
vt 0.431892 0.020700
vt 0.431892 0.027867
vt 0.473375 0.020700
vt 0.473375 0.027867
vt 0.264272 0.020700
vt 0.310915 0.020700
vt 0.310915 0.027867
vt 0.264272 0.027867
vt 0.174788 0.020700
vt 0.174788 0.027867
vt 0.688313 0.020700
vt 0.688313 0.027867
vt 0.790346 0.020700
vt 0.825212 0.020700
vt 0.825212 0.027867
vt 0.790346 0.027867
vt 0.739502 0.020700
vt 0.739502 0.027867
vt 0.144666 0.084024
vt 0.133699 0.110516
vt 0.096546 0.098164
vt 0.557936 0.020700
vt 0.557936 0.027867
vt 0.784867 0.615483
vt 0.748193 0.615483
vt 0.748193 0.605857
vt 0.784867 0.605857
vt 0.710573 0.615483
vt 0.710573 0.605857
vt 0.669680 0.615483
vt 0.669680 0.605857
vt 0.631948 0.615483
vt 0.631948 0.605857
vt 0.591714 0.615483
vt 0.591714 0.605857
vt 0.545559 0.615483
vt 0.545559 0.605857
vt 0.461211 0.615483
vt 0.461211 0.605857
vt 0.692867 0.494944
vt 0.692867 0.504570
vt 0.651527 0.504570
vt 0.651527 0.494944
vt 0.601926 0.504570
vt 0.601926 0.494944
vt 0.546520 0.504570
vt 0.546520 0.494944
vt 0.492038 0.504570
vt 0.492038 0.494944
vt 0.436769 0.504570
vt 0.436769 0.494944
vt 0.383049 0.504570
vt 0.383049 0.494944
vt 0.295637 0.504570
vt 0.295637 0.494944
vt 0.914202 0.503371
vt 0.938701 0.508064
vt 0.930491 0.548581
vt 0.907302 0.539390
vt 0.296838 0.639786
vt 0.271982 0.637698
vt 0.281455 0.584819
vt 0.304536 0.594277
vt 0.327592 0.561304
vt 0.314175 0.540276
vt 0.367669 0.529950
vt 0.364746 0.554723
vt 0.283808 0.494944
vt 0.283808 0.504570
vt 0.849646 0.587465
vt 0.852570 0.612237
vt 0.799076 0.601911
vt 0.812493 0.580884
vt 0.402245 0.571034
vt 0.418463 0.552082
vt 0.445590 0.593607
vt 0.422401 0.602798
vt 0.781739 0.502402
vt 0.756882 0.504490
vt 0.769910 0.418054
vt 0.781739 0.418054
vt 0.903364 0.590106
vt 0.887146 0.571154
vt 0.296838 0.724134
vt 0.285010 0.724134
vt 0.766356 0.557368
vt 0.789437 0.547910
vt 0.453800 0.634124
vt 0.429301 0.638817
vt 0.171849 0.077224
vt 0.157655 0.077224
vt 0.157655 0.067598
vt 0.171849 0.067598
vt 0.228625 0.077224
vt 0.214431 0.077224
vt 0.214431 0.067598
vt 0.228625 0.067598
vt 0.186043 0.077224
vt 0.186043 0.067598
vt 0.242819 0.077224
vt 0.242819 0.067598
vt 0.200237 0.077224
vt 0.200237 0.067598
vt 0.913566 0.086050
vt 0.913566 0.095275
vt 0.884377 0.095275
vt 0.884377 0.086050
vt 0.913566 0.067598
vt 0.913566 0.076824
vt 0.884377 0.076824
vt 0.884377 0.067598
vt 0.913566 0.104501
vt 0.884377 0.104501
vt 0.922792 0.095275
vt 0.922792 0.086050
vt 0.875151 0.095275
vt 0.875151 0.086050
vt 0.102436 0.176271
vt 0.088066 0.176271
vt 0.088066 0.151245
vt 0.102435 0.151245
vt 0.088066 0.111850
vt 0.102435 0.111850
vt 0.102435 0.136876
vt 0.088066 0.136876
vt 0.127461 0.136876
vt 0.127461 0.151245
vt 0.063041 0.151245
vt 0.063040 0.136876
vt 0.344314 0.111643
vt 0.358684 0.111643
vt 0.358684 0.136668
vt 0.344314 0.136668
vt 0.663852 0.067598
vt 0.678046 0.067598
vt 0.678046 0.077224
vt 0.663851 0.077224
vt 0.558761 0.114447
vt 0.558761 0.123673
vt 0.529571 0.123673
vt 0.529571 0.114447
vt 0.520345 0.123673
vt 0.529571 0.132899
vt 0.520345 0.132899
vt 0.651527 0.512455
vt 0.651527 0.522081
vt 0.601926 0.522081
vt 0.601926 0.512455
vt 0.558761 0.142125
vt 0.558761 0.151351
vt 0.529571 0.151351
vt 0.529571 0.142125
vt 0.465153 0.623368
vt 0.501827 0.623368
vt 0.501827 0.632994
vt 0.465153 0.632994
vt 0.546520 0.522081
vt 0.546520 0.512455
vt 0.383049 0.522081
vt 0.295637 0.522081
vt 0.295637 0.512455
vt 0.383049 0.512455
vt 0.492038 0.512455
vt 0.492038 0.522081
vt 0.436769 0.522081
vt 0.436769 0.512455
vt 0.621270 0.067598
vt 0.635464 0.067598
vt 0.635464 0.077224
vt 0.621270 0.077224
vt 0.949325 0.390356
vt 0.974181 0.392444
vt 0.964708 0.445323
vt 0.941627 0.435865
vt 0.383709 0.136668
vt 0.383709 0.151038
vt 0.358684 0.151038
vt 0.546811 0.052546
vt 0.557936 0.052546
vt 0.557936 0.059713
vt 0.546811 0.059713
vt 0.881417 0.475420
vt 0.878494 0.500192
vt 0.827700 0.478060
vt 0.843918 0.459108
vt 0.161765 0.687773
vt 0.177984 0.706725
vt 0.127190 0.728856
vt 0.124266 0.704084
vt 0.358684 0.176063
vt 0.344314 0.176063
vt 0.344314 0.151038
vt 0.931988 0.489866
vt 0.918571 0.468838
vt 0.567987 0.123673
vt 0.567987 0.132899
vt 0.558761 0.132899
vt 0.087113 0.697502
vt 0.073696 0.718530
vt 0.040976 0.673987
vt 0.064057 0.664529
vt 0.283808 0.512455
vt 0.283808 0.522081
vt 0.056359 0.619021
vt 0.031502 0.621109
vt 0.044530 0.534673
vt 0.056359 0.534673
vt 0.539447 0.623368
vt 0.580341 0.623368
vt 0.580341 0.632994
vt 0.539447 0.632994
vt 0.692239 0.067598
vt 0.692239 0.077224
vt 0.607076 0.067598
vt 0.607076 0.077224
vt 0.319289 0.151038
vt 0.319289 0.136668
vt 0.181922 0.656008
vt 0.205111 0.665200
vt 0.649658 0.067598
vt 0.649658 0.077224
vt 0.800573 0.436535
vt 0.823762 0.427344
vt 0.949325 0.306008
vt 0.961153 0.306008
vt 0.688313 0.052546
vt 0.739502 0.052546
vt 0.739502 0.059713
vt 0.688313 0.059713
vt 0.633052 0.052546
vt 0.633052 0.059713
vt 0.569061 0.052546
vt 0.569061 0.059713
vt 0.594086 0.084024
vt 0.583120 0.110516
vt 0.545967 0.098164
vt 0.217628 0.052546
vt 0.264272 0.052546
vt 0.264272 0.059713
vt 0.217628 0.059713
vt 0.310915 0.052546
vt 0.310915 0.059713
vt 0.353259 0.052546
vt 0.353259 0.059713
vt 0.473375 0.052546
vt 0.524562 0.052546
vt 0.524562 0.059713
vt 0.473375 0.059713
vt 0.188822 0.619989
vt 0.213321 0.624683
vt 0.633052 0.042920
vt 0.569061 0.042920
vt 0.569061 0.035752
vt 0.633052 0.035752
vt 0.535687 0.042920
vt 0.524562 0.042920
vt 0.524562 0.035752
vt 0.535687 0.035752
vt 0.618072 0.623368
vt 0.618072 0.632994
vt 0.658306 0.623368
vt 0.658306 0.632994
vt 0.704461 0.623368
vt 0.704461 0.632994
vt 0.431892 0.052546
vt 0.431892 0.059713
vt 0.174788 0.052546
vt 0.192852 0.052546
vt 0.192852 0.059713
vt 0.174788 0.059713
vt 0.788809 0.623368
vt 0.788809 0.632994
vt 0.790347 0.052546
vt 0.790347 0.059713
vt 0.692867 0.512455
vt 0.692867 0.522081
vt 0.825212 0.052546
vt 0.825212 0.059713
vt 0.792363 0.396018
vt 0.816862 0.391325
vt 0.392411 0.052546
vt 0.392411 0.059713
vt 0.546811 0.042920
vt 0.546811 0.035752
vt 0.647752 0.294591
vt 0.649871 0.345734
vt 0.618902 0.298168
vt 0.535687 0.059713
vt 0.535687 0.052546
vt 0.310915 0.035752
vt 0.310915 0.042920
vt 0.264272 0.042920
vt 0.264272 0.035752
vt 0.217628 0.035752
vt 0.217628 0.042920
vt 0.192852 0.042919
vt 0.192852 0.035752
vt 0.739502 0.035752
vt 0.739502 0.042920
vt 0.688313 0.042920
vt 0.688313 0.035752
vt 0.473375 0.035752
vt 0.473375 0.042920
vt 0.431892 0.042920
vt 0.431892 0.035752
vt 0.126662 0.052546
vt 0.092879 0.059713
vt 0.092880 0.035752
vt 0.392411 0.042920
vt 0.392411 0.035752
vt 0.082759 0.059713
vt 0.082759 0.035752
vt 0.019605 0.035752
vt 0.019605 0.059713
vt 0.003906 0.059713
vt 0.003906 0.035752
vt 0.353258 0.042920
vt 0.353259 0.035752
vt 0.980395 0.035752
vt 0.980395 0.059713
vt 0.917241 0.059713
vt 0.917241 0.035752
vt 0.907121 0.059713
vt 0.907120 0.035752
vt 0.849894 0.084024
vt 0.838927 0.110516
vt 0.801428 0.098164
vt 0.790347 0.035752
vt 0.790347 0.042920
vt 0.668884 0.274085
vt 0.668884 0.106479
vt 0.678511 0.106479
vt 0.678511 0.274085
vt 0.825212 0.035752
vt 0.825212 0.042919
vt 0.174788 0.042919
vt 0.174788 0.035752
vt 0.557936 0.042920
vt 0.557936 0.035752
vt 0.887960 0.284344
vt 0.774315 0.253628
vt 0.868243 0.215878
vt 0.996094 0.035752
vt 0.996094 0.059713
vt 0.096546 0.436185
vt 0.096555 0.405597
vt 0.144666 0.422044
vt 0.133699 0.448536
vt 0.272964 0.543639
vt 0.261048 0.605659
vt 0.253246 0.612105
vt 0.873338 0.042919
vt 0.159319 0.482249
vt 0.253246 0.444499
vt 0.272964 0.512965
vt 0.171338 0.444499
vt 0.059047 0.448536
vt 0.048080 0.422044
vt 0.034875 0.482249
vt 0.015880 0.466954
vt 0.711542 0.391798
vt 0.748696 0.379447
vt 0.759662 0.405939
vt 0.711552 0.422386
vt 0.674043 0.379447
vt 0.663077 0.405939
vt 0.630876 0.361029
vt 0.016542 0.546028
vt 0.006866 0.540539
vt 0.003906 0.529815
vt 0.774315 0.345734
vt 0.786334 0.383484
vt 0.887960 0.315018
vt 0.868243 0.383484
vt 0.449361 0.424914
vt 0.454552 0.429123
vt 0.449716 0.431957
vt 0.448016 0.430849
vt 0.450701 0.418867
vt 0.459967 0.426379
vt 0.483588 0.425589
vt 0.478335 0.429715
vt 0.472790 0.427167
vt 0.481981 0.419602
vt 0.485208 0.431488
vt 0.483498 0.432389
vt 0.455850 0.437954
vt 0.450265 0.435848
vt 0.461876 0.440037
vt 0.477150 0.438582
vt 0.471223 0.441024
vt 0.482500 0.436024
vt 0.452102 0.442354
vt 0.449083 0.436632
vt 0.455096 0.448187
vt 0.480855 0.442965
vt 0.478153 0.448911
vt 0.483573 0.437150
vt 0.414576 0.441938
vt 0.417491 0.436473
vt 0.411521 0.447512
vt 0.518298 0.441202
vt 0.521615 0.446657
vt 0.515102 0.435825
vt 0.411114 0.436633
vt 0.416562 0.435106
vt 0.405018 0.437890
vt 0.521857 0.435965
vt 0.527983 0.436931
vt 0.516264 0.434806
vt 0.413244 0.427938
vt 0.417771 0.431505
vt 0.408465 0.424353
vt 0.519646 0.427297
vt 0.524272 0.423535
vt 0.515482 0.431033
vt 0.418103 0.424707
vt 0.419293 0.430860
vt 0.417105 0.418467
vt 0.514822 0.424061
vt 0.515520 0.417773
vt 0.513926 0.430252
vt 0.464684 0.462458
vt 0.468936 0.466742
vt 0.464337 0.469564
vt 0.463267 0.468439
vt 0.467040 0.456578
vt 0.474287 0.464209
vt 0.547299 0.424757
vt 0.543073 0.428933
vt 0.537589 0.426428
vt 0.545612 0.418658
vt 0.550002 0.430481
vt 0.548473 0.431370
vt 0.469027 0.475731
vt 0.464158 0.473331
vt 0.474571 0.477968
vt 0.543098 0.437800
vt 0.537663 0.440545
vt 0.548185 0.435180
vt 0.464859 0.480062
vt 0.462979 0.474171
vt 0.467557 0.485792
vt 0.547193 0.442063
vt 0.545830 0.448231
vt 0.549666 0.436262
vt 0.430481 0.481100
vt 0.432029 0.475075
vt 0.428172 0.487050
vt 0.583658 0.441448
vt 0.585526 0.447492
vt 0.581040 0.435710
vt 0.426012 0.476827
vt 0.430749 0.474009
vt 0.420497 0.479385
vt 0.587999 0.437187
vt 0.593682 0.439637
vt 0.582476 0.434782
vt 0.425877 0.467854
vt 0.430938 0.470230
vt 0.420184 0.465649
vt 0.587967 0.428320
vt 0.593567 0.425612
vt 0.582738 0.430956
vt 0.430282 0.463513
vt 0.432280 0.469433
vt 0.427597 0.457703
vt 0.583733 0.423994
vt 0.585288 0.417867
vt 0.581363 0.429794
vt 0.318014 0.424175
vt 0.322539 0.428169
vt 0.317798 0.431208
vt 0.316365 0.430189
vt 0.319550 0.418046
vt 0.327793 0.425195
vt 0.349969 0.424631
vt 0.345337 0.428528
vt 0.340000 0.425696
vt 0.348228 0.418554
vt 0.351822 0.430611
vt 0.350358 0.431394
vt 0.323393 0.437054
vt 0.317935 0.435038
vt 0.329337 0.438967
vt 0.344452 0.437408
vt 0.338568 0.439530
vt 0.349700 0.435118
vt 0.319210 0.441659
vt 0.316607 0.435925
vt 0.321873 0.447485
vt 0.348507 0.442106
vt 0.346040 0.447992
vt 0.350899 0.436336
vt 0.281871 0.441867
vt 0.284382 0.436088
vt 0.279278 0.447694
vt 0.385833 0.441411
vt 0.388619 0.447173
vt 0.383113 0.435671
vt 0.277924 0.436966
vt 0.283213 0.434896
vt 0.271982 0.438764
vt 0.389921 0.436611
vt 0.395913 0.438217
vt 0.384419 0.434809
vt 0.279069 0.428113
vt 0.283962 0.431184
vt 0.273893 0.424991
vt 0.388811 0.427754
vt 0.393898 0.424483
vt 0.384195 0.430997
vt 0.283706 0.424422
vt 0.285451 0.430377
vt 0.282118 0.418305
vt 0.384272 0.423976
vt 0.385652 0.417810
vt 0.382732 0.429962
vt 0.636549 0.460932
vt 0.641082 0.465215
vt 0.636317 0.468090
vt 0.635067 0.467034
vt 0.638874 0.455035
vt 0.646574 0.462616
vt 0.297335 0.463510
vt 0.293113 0.467793
vt 0.287398 0.465458
vt 0.295405 0.457442
vt 0.300070 0.469109
vt 0.298631 0.470115
vt 0.641275 0.474193
vt 0.636167 0.471871
vt 0.646987 0.476380
vt 0.293302 0.476652
vt 0.287754 0.479455
vt 0.298426 0.473949
vt 0.636862 0.478601
vt 0.634862 0.472616
vt 0.639599 0.484332
vt 0.297565 0.480853
vt 0.296188 0.487062
vt 0.299851 0.475093
vt 0.602858 0.479730
vt 0.604152 0.473638
vt 0.600420 0.485599
vt 0.333818 0.479486
vt 0.335527 0.485562
vt 0.331006 0.473918
vt 0.598502 0.475487
vt 0.602986 0.472619
vt 0.592970 0.478067
vt 0.337987 0.475212
vt 0.343398 0.477615
vt 0.332406 0.472888
vt 0.598345 0.466504
vt 0.603145 0.468879
vt 0.592587 0.464314
vt 0.337808 0.466343
vt 0.343089 0.463529
vt 0.332619 0.469030
vt 0.602574 0.462166
vt 0.604381 0.468151
vt 0.599738 0.456470
vt 0.333616 0.462138
vt 0.334772 0.455935
vt 0.331243 0.467875
vt 0.393166 0.462927
vt 0.397992 0.466434
vt 0.393790 0.469877
vt 0.392204 0.469010
vt 0.393890 0.456744
vt 0.402521 0.462442
vt 0.613167 0.425056
vt 0.608317 0.428546
vt 0.603632 0.424751
vt 0.612112 0.418934
vt 0.614439 0.431094
vt 0.612875 0.431885
vt 0.400246 0.475096
vt 0.394682 0.473698
vt 0.406350 0.475838
vt 0.606133 0.437275
vt 0.600069 0.438293
vt 0.611573 0.435455
vt 0.396696 0.480096
vt 0.393568 0.474595
vt 0.399959 0.485689
vt 0.609591 0.442331
vt 0.606586 0.448037
vt 0.612433 0.436743
vt 0.359314 0.479771
vt 0.362776 0.474361
vt 0.355840 0.485320
vt 0.646990 0.440657
vt 0.650753 0.446057
vt 0.643218 0.435377
vt 0.356304 0.474915
vt 0.361961 0.473118
vt 0.350080 0.476513
vt 0.650041 0.435779
vt 0.656305 0.436994
vt 0.644236 0.434487
vt 0.358861 0.466306
vt 0.363595 0.469701
vt 0.353740 0.462991
vt 0.647379 0.427228
vt 0.652344 0.423752
vt 0.642991 0.430700
vt 0.364714 0.462968
vt 0.365477 0.469004
vt 0.363986 0.456841
vt 0.641578 0.423797
vt 0.642043 0.417644
vt 0.641077 0.429834
vt 0.445245 0.326127
vt 0.342349 0.326127
vt 0.350916 0.248769
vt 0.249604 0.284916
vt 0.260328 0.281956
vt 0.015822 0.377039
vt 0.007255 0.299682
vt 0.110151 0.299682
vt 0.453189 0.396950
vt 0.440626 0.409930
vt 0.350916 0.403484
vt 0.105532 0.215879
vt 0.117551 0.253629
vt 0.118095 0.228859
vt 0.873338 0.020700
vt 0.126662 0.011074
vt 0.605098 0.338363
vt 0.595422 0.343853
vt 0.584698 0.340893
vt 0.277216 0.274085
vt 0.289235 0.236335
vt 0.281835 0.190282
vt 0.277216 0.106479
vt 0.303888 0.084024
vt 0.314855 0.110516
vt 0.351999 0.067576
vt 0.289235 0.144229
vt 0.289779 0.261105
vt 0.432674 0.128934
vt 0.444648 0.191795
vt 0.413679 0.144229
vt 0.441688 0.202518
vt 0.432012 0.208008
vt 0.421288 0.205048
vt 0.415799 0.195372
vt 0.171338 0.106479
vt 0.159319 0.144229
vt 0.166719 0.190282
vt 0.171338 0.274085
vt 0.159319 0.236335
vt 0.158775 0.261105
vt 0.048080 0.084024
vt 0.096555 0.067576
vt 0.003906 0.191795
vt 0.015880 0.128934
vt 0.034875 0.144229
vt 0.059047 0.110516
vt 0.016542 0.208008
vt 0.006866 0.202518
vt 0.032755 0.195372
vt 0.027266 0.205048
vt 0.620758 0.106479
vt 0.608739 0.144229
vt 0.616140 0.190282
vt 0.620758 0.274085
vt 0.608739 0.236335
vt 0.608196 0.261105
vt 0.497501 0.084024
vt 0.545976 0.067576
vt 0.453327 0.191795
vt 0.465300 0.128934
vt 0.484295 0.144229
vt 0.508467 0.110516
vt 0.465963 0.208008
vt 0.456287 0.202518
vt 0.482176 0.195372
vt 0.476686 0.205048
vt 0.621863 0.287444
vt 0.631538 0.281955
vt 0.642262 0.284915
vt 0.126662 0.042919
vt 0.726637 0.274085
vt 0.738655 0.236335
vt 0.731255 0.190282
vt 0.726637 0.106479
vt 0.753308 0.084024
vt 0.764275 0.110516
vt 0.801419 0.067576
vt 0.738655 0.144229
vt 0.739199 0.261105
vt 0.882094 0.128933
vt 0.894068 0.191795
vt 0.863100 0.144229
vt 0.891108 0.202518
vt 0.881432 0.208008
vt 0.870709 0.205048
vt 0.865219 0.195372
vt 0.773771 0.228858
vt 0.786334 0.215878
vt 0.876044 0.222323
vt 0.884611 0.299681
vt 0.781716 0.299681
vt 0.171338 0.612105
vt 0.159319 0.574355
vt 0.158775 0.599125
vt 0.166719 0.528302
vt 0.269614 0.528302
vt 0.873338 0.052546
vt 0.261048 0.450945
vt 0.032755 0.533392
vt 0.027266 0.543068
vt 0.876044 0.377038
s 1
usemtl handcuffs
f 2/1/1 13/2/1 14/3/1
f 6/4/1 5/5/1 9/6/1 10/7/1
f 5/5/1 4/8/1 8/9/1 9/6/1
f 3/10/1 2/1/1 11/11/1 7/12/1
f 52/13/2 51/14/2 48/15/2
f 4/8/1 3/10/1 7/12/1 8/9/1
f 29/16/2 34/17/2 32/18/2
f 24/19/2 28/20/2 27/21/2 23/22/2
f 23/22/2 27/21/2 25/23/2 21/24/2
f 22/25/2 26/26/2 30/27/2 29/16/2
f 6/28/3 43/29/4 82/30/4 80/31/3
f 21/24/2 25/23/2 26/26/2 22/25/2
f 18/32/1 16/33/1 19/34/1
f 40/35/2 42/36/2 41/37/2
f 12/38/5 33/39/5 32/40/6 13/41/6
f 14/42/7 34/43/7 90/44/8
f 1/45/9 91/46/9 92/47/10 16/48/10
f 13/41/6 32/40/6 35/49/11 15/50/11
f 4/51/12 84/52/12 86/53/13 3/54/13
f 18/55/14 40/56/14 33/57/5 12/58/5
f 19/59/15 41/60/15 42/61/16 20/62/16
f 5/63/17 81/64/17 84/52/12 4/51/12
f 73/65/18 41/60/15 19/59/15
f 6/28/3 80/31/3 81/64/17 5/63/17
f 20/62/16 42/61/16 40/56/14 18/55/14
f 28/66/19 51/67/20 53/68/20 55/69/19
f 7/70/21 85/71/21 83/72/22 8/73/22
f 8/73/22 83/72/22 78/74/23 9/75/23
f 9/75/23 78/74/23 76/76/19 10/77/19
f 3/54/13 86/53/13 88/78/24 2/79/24
f 16/48/10 92/47/10 89/80/25 37/81/25
f 11/82/26 87/83/26 85/71/21 7/70/21
f 37/81/25 89/80/25 93/84/27 17/85/27
f 2/79/24 88/78/24 91/46/9 1/45/9
f 35/49/11 34/43/7 14/42/7 15/50/11
f 48/86/4 59/87/4 57/88/28 50/89/28
f 50/89/28 57/88/28 56/90/29 49/91/29
f 45/92/20 74/93/20 75/94/30 47/95/30
f 47/95/30 75/94/30 77/96/29 46/97/29
f 43/98/1 6/4/1 45/99/1
f 63/100/1 64/101/1 66/102/1
s 0
f 94/103/9 90/104/9 71/105/9 73/106/9
s 1
f 77/96/29 79/107/28 44/108/28 46/97/29
f 68/109/13 66/110/12 21/111/12 22/112/13
f 60/113/25 61/114/10 38/115/10 36/116/25
f 66/110/12 64/117/17 23/118/17 21/111/12
f 64/117/17 58/119/3 24/120/3 23/118/17
f 72/121/9 70/122/24 29/123/24 31/124/9
f 61/114/10 72/121/9 31/124/9 38/115/10
f 62/125/27 60/113/25 36/116/25 39/126/27
f 55/69/19 63/127/23 27/128/23 28/66/19
f 67/129/21 69/130/26 30/131/26 26/132/21
f 63/127/23 65/133/22 25/134/22 27/128/23
f 85/135/2 86/136/2 84/137/2
f 54/138/30 53/68/20 51/67/20 52/139/30
f 70/122/24 68/109/13 22/112/13 29/123/24
f 65/133/22 67/129/21 26/132/21 25/134/22
f 79/107/28 82/30/4 43/29/4 44/108/28
f 58/119/3 59/87/4 48/86/4 24/120/3
f 56/90/29 54/138/30 52/139/30 49/91/29
f 76/76/19 74/93/20 45/92/20 10/77/19
f 95/140/31 97/141/32 98/142/32 96/143/31
f 97/141/32 99/144/33 100/145/33 98/142/32
f 99/144/33 101/146/34 102/147/34 100/145/33
f 101/146/34 103/148/35 104/149/35 102/147/34
f 103/148/35 105/150/36 106/151/36 104/149/35
f 106/151/36 105/150/36 107/152/37 108/153/37
f 108/153/37 107/152/37 109/154/9 110/155/9
f 111/156/38 112/157/38 114/158/39 113/159/39
f 113/159/39 114/158/39 116/160/40 115/161/40
f 115/161/40 116/160/40 118/162/41 117/163/41
f 117/163/41 118/162/41 120/164/42 119/165/42
f 119/165/42 120/164/42 122/166/43 121/167/43
f 122/166/43 124/168/44 123/169/44 121/167/43
f 124/168/44 126/170/45 125/171/45 123/169/44
f 95/172/1 111/173/1 113/174/1 97/175/1
f 108/176/2 124/177/2 122/178/2 106/179/2
f 104/180/2 120/181/2 118/182/2 102/183/2
s 0
f 109/184/8 125/171/8 126/170/8 110/185/8
s 1
f 101/186/1 117/187/1 119/188/1 103/189/1
f 100/190/2 116/191/2 114/192/2 98/193/2
f 107/194/1 123/195/1 125/196/1 109/197/1
f 97/175/1 113/174/1 115/198/1 99/199/1
f 110/200/2 126/201/2 124/177/2 108/176/2
f 106/179/2 122/178/2 120/181/2 104/180/2
f 103/189/1 119/188/1 121/202/1 105/203/1
f 102/183/2 118/182/2 116/191/2 100/190/2
f 99/199/1 115/198/1 117/187/1 101/186/1
f 98/193/2 114/192/2 112/204/2 96/205/2
f 105/203/1 121/202/1 123/195/1 107/194/1
f 131/206/46 130/207/5 136/208/5 137/209/46
f 129/210/47 128/211/48 134/212/48 135/213/47
f 132/214/49 131/206/46 137/209/46 138/215/49
f 130/216/5 129/210/47 135/213/47 136/217/5
f 128/211/48 127/218/9 133/219/9 134/212/48
f 127/218/9 132/214/49 138/215/49 133/219/9
f 142/220/18 141/221/9 145/222/9 146/223/18
f 140/224/8 139/225/5 143/226/5 144/227/8
f 139/225/5 142/220/18 146/223/18 143/226/5
f 141/221/9 140/228/8 144/229/8 145/222/9
s 0
f 140/230/1 141/221/1 142/220/1 139/231/1
f 144/232/2 143/233/2 146/223/2 145/222/2
s 1
f 150/234/8 149/235/1 153/236/1 154/237/8
f 148/238/18 147/239/2 151/240/2 152/241/18
f 147/242/2 150/243/8 154/237/8 151/240/2
f 149/244/1 148/245/18 152/241/18 153/236/1
s 0
f 152/241/5 151/240/5 154/237/5 153/236/5
s 1
f 160/246/1 161/247/50 157/248/50 156/249/1
f 182/250/51 177/251/52 171/252/52 176/253/51
f 169/254/53 170/255/54 166/256/54 165/257/53
s 0
f 165/258/2 166/256/2 163/259/2 164/260/2
s 1
f 196/261/55 195/262/55 193/263/56 194/264/56
f 168/265/51 169/266/53 165/267/53 164/268/51
f 214/269/57 212/270/58 211/271/58 213/272/57
f 194/264/56 193/263/56 191/273/59 192/274/59
f 185/275/60 183/276/61 184/277/61 186/278/60
f 190/279/62 189/280/62 187/281/63 188/282/63
f 179/283/54 180/284/64 174/285/64 173/286/54
f 201/287/2 185/288/2 187/289/2 203/290/2
f 161/291/50 162/292/2 158/293/2 157/248/50
f 253/294/30 255/295/65 257/296/65 260/297/30
f 207/298/2 191/299/2 193/300/2 209/301/2
f 210/302/1 194/303/1 192/304/1 208/305/1
f 162/306/2 159/307/53 155/308/53 158/293/2
f 203/290/2 187/289/2 189/309/2 205/310/2
s 0
f 169/311/1 168/312/1 167/313/1 170/255/1
s 1
f 206/314/1 190/315/1 188/316/1 204/317/1
s 0
f 200/318/53 184/277/53 183/276/53 199/319/53
s 1
f 170/255/54 167/313/50 163/259/50 166/256/54
f 202/320/1 186/321/1 184/322/1 200/323/1
f 167/313/50 168/265/51 164/268/51 163/259/50
f 208/305/1 192/304/1 190/315/1 206/314/1
f 210/324/66 208/325/67 207/326/67 209/327/66
f 177/251/52 178/328/68 172/329/68 171/252/52
f 178/330/68 179/283/54 173/286/54 172/331/68
f 204/317/1 188/316/1 186/321/1 202/320/1
f 159/332/53 160/333/1 156/249/1 155/308/53
f 212/334/1 196/335/1 194/303/1 210/302/1
f 180/284/64 181/336/69 175/337/69 174/285/64
f 209/301/2 193/300/2 195/338/2 211/339/2
s 0
f 157/248/54 158/293/54 155/308/54 156/249/54
s 1
f 199/340/2 183/341/2 185/288/2 201/287/2
f 246/342/70 244/343/71 284/344/71 282/345/70
f 254/346/72 246/342/70 282/345/70 281/347/72
f 255/295/65 256/348/73 258/349/73 257/296/65
f 224/350/2 223/351/2 225/352/2
f 181/336/69 182/250/51 176/253/51 175/337/69
f 248/353/74 237/354/51 278/355/51 271/356/74
f 237/354/51 239/357/75 280/358/75 278/355/51
f 239/357/75 241/359/76 287/360/76 280/358/75
f 205/310/2 189/309/2 191/299/2 207/298/2
f 251/361/77 250/362/78 261/363/78 285/364/77
f 214/365/1 198/366/1 196/335/1 212/334/1
f 192/274/59 191/273/59 189/280/62 190/279/62
f 212/270/58 210/324/66 209/327/66 211/271/58
f 233/367/72 235/368/73 264/369/73 299/370/72
f 230/371/29 227/372/78 266/373/78 265/374/29
f 208/325/67 206/375/79 205/376/79 207/326/67
f 206/375/79 204/377/80 203/378/80 205/376/79
f 203/378/80 204/377/80 202/379/81 201/380/81
f 245/381/82 251/361/77 285/364/77 286/382/82
f 247/383/83 249/384/84 273/385/84 270/386/83
f 187/281/63 185/275/60 186/278/60 188/282/63
f 201/380/81 202/379/81 200/387/51 199/388/51
f 244/343/71 242/389/85 283/390/85 284/344/71
f 198/391/86 197/392/86 195/262/55 196/261/55
f 242/389/85 240/393/87 279/394/87 283/390/85
f 211/339/2 195/338/2 197/395/2 213/396/2
f 243/397/88 245/381/82 286/382/82 288/398/88
f 232/399/30 230/371/29 265/374/29 263/400/30
f 266/401/1 303/402/1 264/403/1
f 259/404/89 252/405/89 253/294/30 260/297/30
f 307/406/75 221/407/75 218/408/51 308/409/51
f 293/410/74 217/411/74 220/412/84 272/413/84
f 301/414/71 226/415/71 231/416/70 300/417/70
f 303/418/77 229/419/77 228/420/82 304/421/82
f 236/422/50 268/423/90 290/424/90
f 304/421/82 228/420/82 225/425/88 305/426/88
f 290/424/90 268/423/90 267/427/91 289/428/91
f 291/429/92 269/430/92 276/431/54 297/432/54
f 305/426/88 225/425/88 223/433/76 306/434/76
f 296/435/93 277/436/93 274/437/94 294/438/94
f 249/384/84 248/353/74 271/356/74 273/385/84
f 300/417/70 231/416/70 233/367/72 299/370/72
f 274/437/94 275/439/95 295/440/95 294/438/94
f 289/428/91 267/427/91 269/430/92 291/429/92
f 261/363/78 250/362/78 252/405/89 259/404/89
f 246/441/1 245/442/1 243/443/1
f 302/444/85 224/445/85 226/415/71 301/414/71
s 0
f 215/446/51 219/447/51 238/448/51 236/449/51
s 1
f 281/347/72 258/349/73 256/348/73 254/346/72
f 298/450/87 222/451/87 224/445/85 302/444/85
f 272/413/84 220/412/84 216/452/83 292/453/83
f 264/369/73 235/368/73 234/454/65 262/455/65
f 262/455/65 234/454/65 232/399/30 263/400/30
f 241/359/76 243/397/88 288/398/88 287/360/76
f 306/434/76 223/433/76 221/407/75 307/406/75
f 291/456/1 293/457/1 290/458/1
f 297/459/54 276/460/54 277/436/93 296/435/93
f 288/461/2 284/462/2 283/463/2 287/464/2
f 269/465/2 267/466/2 268/467/2
f 308/409/51 218/408/51 217/411/74 293/410/74
f 295/440/95 275/439/95 219/468/53
f 280/469/2 275/470/2 277/471/2
f 287/464/2 283/463/2 279/472/2 280/469/2
f 286/473/2 282/474/2 284/462/2 288/461/2
f 285/475/2 281/476/2 282/474/2 286/473/2
f 303/418/77 266/373/78 227/372/78 229/419/77
f 305/477/1 306/478/1 302/479/1 301/480/1
f 303/402/1 304/481/1 300/482/1 299/483/1
f 260/484/2 257/485/2 258/486/2
f 306/478/1 307/487/1 298/488/1 302/479/1
f 304/481/1 305/477/1 301/480/1 300/482/1
f 307/487/1 296/489/1 295/490/1
f 309/491/96 313/492/97 316/493/98 312/494/99
f 310/495/100 314/496/101 313/492/102 309/491/103
f 311/497/104 315/498/105 314/499/106 310/500/107
f 312/501/108 316/502/109 315/498/110 311/497/111
f 313/492/97 317/503/112 320/504/113 316/493/98
f 314/496/101 318/505/114 317/503/115 313/492/102
f 315/498/105 319/506/116 318/507/117 314/499/106
f 316/502/109 320/508/118 319/506/119 315/498/110
f 317/503/112 321/509/120 324/510/121 320/504/113
f 318/505/114 322/511/122 321/509/123 317/503/115
f 319/506/116 323/512/124 322/513/125 318/507/117
f 320/508/118 324/514/126 323/512/127 319/506/119
f 321/509/120 325/515/128 328/516/129 324/510/121
f 322/511/122 326/517/130 325/515/131 321/509/123
f 323/512/124 327/518/132 326/519/133 322/513/125
f 324/514/126 328/520/134 327/518/135 323/512/127
f 325/515/128 329/521/136 332/522/137 328/516/129
f 326/517/130 330/523/138 329/521/139 325/515/131
f 327/518/132 331/524/140 330/525/141 326/519/133
f 328/520/134 332/526/142 331/524/143 327/518/135
f 329/521/136 333/527/144 336/528/145 332/522/137
f 330/523/138 334/529/146 333/527/147 329/521/139
f 331/524/140 335/530/148 334/531/149 330/525/141
f 332/526/142 336/532/150 335/530/151 331/524/143
f 333/527/144 337/533/152 340/534/153 336/528/145
f 334/529/146 338/535/154 337/533/155 333/527/147
f 335/530/148 339/536/156 338/537/157 334/531/149
f 336/532/150 340/538/158 339/536/159 335/530/151
f 337/533/152 309/491/96 312/494/99 340/534/153
f 338/535/154 310/495/100 309/491/103 337/533/155
f 339/536/156 311/497/104 310/500/107 338/537/157
f 340/538/158 312/501/108 311/497/111 339/536/159
f 341/539/160 345/540/161 348/541/162 344/542/163
f 342/543/164 346/544/165 345/540/166 341/539/164
f 343/545/167 347/546/168 346/547/169 342/548/170
f 344/549/171 348/550/172 347/546/173 343/545/174
f 345/540/161 349/551/175 352/552/176 348/541/162
f 346/544/165 350/553/177 349/551/178 345/540/166
f 347/546/168 351/554/179 350/555/180 346/547/169
f 348/550/172 352/556/181 351/554/182 347/546/173
f 349/551/175 353/557/183 356/558/184 352/552/176
f 350/553/177 354/559/185 353/557/185 349/551/178
f 351/554/179 355/560/186 354/561/187 350/555/180
f 352/556/181 356/562/188 355/560/189 351/554/182
f 353/557/183 357/563/190 360/564/191 356/558/184
f 354/559/185 358/565/192 357/563/193 353/557/185
f 355/560/186 359/566/194 358/567/195 354/561/187
f 356/562/188 360/568/196 359/566/197 355/560/189
f 357/563/190 361/569/198 364/570/199 360/564/191
f 358/565/192 362/571/200 361/569/201 357/563/193
f 359/566/194 363/572/202 362/573/203 358/567/195
f 360/568/196 364/574/204 363/572/205 359/566/197
f 361/569/198 365/575/206 368/576/207 364/570/199
f 362/571/200 366/577/208 365/575/209 361/569/201
f 363/572/202 367/578/210 366/579/211 362/573/203
f 364/574/204 368/580/212 367/578/213 363/572/205
f 365/575/206 369/581/214 372/582/215 368/576/207
f 366/577/208 370/583/216 369/581/217 365/575/209
f 367/578/210 371/584/218 370/585/219 366/579/211
f 368/580/212 372/586/220 371/584/221 367/578/213
f 369/581/214 341/539/160 344/542/163 372/582/215
f 370/583/216 342/543/164 341/539/164 369/581/217
f 371/584/218 343/545/167 342/548/170 370/585/219
f 372/586/220 344/549/171 343/545/174 371/584/221
f 373/587/222 377/588/223 380/589/224 376/590/225
f 374/591/226 378/592/227 377/588/228 373/587/229
f 375/593/230 379/594/231 378/595/232 374/596/233
f 376/597/234 380/598/235 379/594/236 375/593/237
f 377/588/223 381/599/238 384/600/239 380/589/224
f 378/592/227 382/601/240 381/599/241 377/588/228
f 379/594/231 383/602/242 382/603/243 378/595/232
f 380/598/235 384/604/244 383/602/245 379/594/236
f 381/599/238 385/605/246 388/606/247 384/600/239
f 382/601/240 386/607/248 385/605/249 381/599/241
f 383/602/242 387/608/250 386/609/251 382/603/243
f 384/604/244 388/610/252 387/608/253 383/602/245
f 385/605/246 389/611/254 392/612/255 388/606/247
f 386/607/248 390/613/256 389/611/257 385/605/249
f 387/608/250 391/614/258 390/615/259 386/609/251
f 388/610/252 392/616/260 391/614/261 387/608/253
f 389/611/254 393/617/262 396/618/263 392/612/255
f 390/613/256 394/619/264 393/617/265 389/611/257
f 391/614/258 395/620/266 394/621/267 390/615/259
f 392/616/260 396/622/268 395/620/269 391/614/261
f 393/617/262 397/623/270 400/624/271 396/618/263
f 394/619/264 398/625/272 397/623/273 393/617/265
f 395/620/266 399/626/274 398/627/275 394/621/267
f 396/622/268 400/628/276 399/626/277 395/620/269
f 397/623/270 401/629/278 404/630/279 400/624/271
f 398/625/272 402/631/280 401/629/281 397/623/273
f 399/626/274 403/632/282 402/633/283 398/627/275
f 400/628/276 404/634/284 403/632/285 399/626/277
f 401/629/278 373/587/222 376/590/225 404/630/279
f 402/631/280 374/591/226 373/587/229 401/629/281
f 403/632/282 375/593/230 374/596/233 402/633/283
f 404/634/284 376/597/234 375/593/237 403/632/285
f 405/635/286 409/636/287 412/637/288 408/638/289
f 406/639/290 410/640/291 409/636/292 405/635/293
f 407/641/294 411/642/295 410/643/296 406/644/297
f 408/645/298 412/646/299 411/642/300 407/641/301
f 409/636/287 413/647/302 416/648/303 412/637/288
f 410/640/291 414/649/304 413/647/305 409/636/292
f 411/642/295 415/650/306 414/651/307 410/643/296
f 412/646/299 416/652/308 415/650/309 411/642/300
f 413/647/302 417/653/310 420/654/311 416/648/303
f 414/649/304 418/655/312 417/653/313 413/647/305
f 415/650/306 419/656/314 418/657/315 414/651/307
f 416/652/308 420/658/316 419/656/317 415/650/309
f 417/653/310 421/659/318 424/660/319 420/654/311
f 418/655/312 422/661/320 421/659/321 417/653/313
f 419/656/314 423/662/322 422/663/323 418/657/315
f 420/658/316 424/664/324 423/662/325 419/656/317
f 421/659/318 425/665/326 428/666/327 424/660/319
f 422/661/320 426/667/328 425/665/329 421/659/321
f 423/662/322 427/668/330 426/669/331 422/663/323
f 424/664/324 428/670/332 427/668/333 423/662/325
f 425/665/326 429/671/334 432/672/335 428/666/327
f 426/667/328 430/673/336 429/671/337 425/665/329
f 427/668/330 431/674/338 430/675/339 426/669/331
f 428/670/332 432/676/340 431/674/341 427/668/333
f 429/671/334 433/677/342 436/678/343 432/672/335
f 430/673/336 434/679/344 433/677/345 429/671/337
f 431/674/338 435/680/346 434/681/347 430/675/339
f 432/676/340 436/682/348 435/680/349 431/674/341
f 433/677/342 405/635/286 408/638/289 436/678/343
f 434/679/344 406/639/290 405/635/293 433/677/345
f 435/680/346 407/641/294 406/644/297 434/681/347
f 436/682/348 408/645/298 407/641/301 435/680/349
f 437/683/350 441/684/351 444/685/352 440/686/353
f 438/687/354 442/688/355 441/684/356 437/683/357
f 439/689/358 443/690/359 442/691/360 438/692/361
f 440/693/362 444/694/363 443/690/364 439/689/365
f 441/684/351 445/695/366 448/696/367 444/685/352
f 442/688/355 446/697/368 445/695/369 441/684/356
f 443/690/359 447/698/370 446/699/371 442/691/360
f 444/694/363 448/700/372 447/698/373 443/690/364
f 445/695/366 449/701/374 452/702/375 448/696/367
f 446/697/368 450/703/376 449/701/377 445/695/369
f 447/698/370 451/704/378 450/705/379 446/699/371
f 448/700/372 452/706/380 451/704/381 447/698/373
f 449/701/374 453/707/382 456/708/383 452/702/375
f 450/703/376 454/709/384 453/707/385 449/701/377
f 451/704/378 455/710/386 454/711/387 450/705/379
f 452/706/380 456/712/388 455/710/389 451/704/381
f 453/707/382 457/713/390 460/714/391 456/708/383
f 454/709/384 458/715/392 457/713/393 453/707/385
f 455/710/386 459/716/394 458/717/395 454/711/387
f 456/712/388 460/718/396 459/716/397 455/710/389
f 457/713/390 461/719/398 464/720/399 460/714/391
f 458/715/392 462/721/400 461/719/401 457/713/393
f 459/716/394 463/722/402 462/723/403 458/717/395
f 460/718/396 464/724/404 463/722/405 459/716/397
f 461/719/398 465/725/406 468/726/407 464/720/399
f 462/721/400 466/727/408 465/725/409 461/719/401
f 463/722/402 467/728/410 466/729/411 462/723/403
f 464/724/404 468/730/412 467/728/413 463/722/405
f 465/725/406 437/683/350 440/686/353 468/726/407
f 466/727/408 438/687/354 437/683/357 465/725/409
f 467/728/410 439/689/358 438/692/361 466/729/411
f 468/730/412 440/693/362 439/689/365 467/728/413
f 14/3/1 11/11/1 2/1/1
f 2/1/1 1/731/1 13/2/1
f 1/731/1 12/732/1 13/2/1
f 13/2/1 15/733/1 14/3/1
f 28/20/2 24/19/2 51/14/2
f 24/19/2 48/15/2 51/14/2
f 48/15/2 50/734/2 49/735/2
f 49/735/2 52/13/2 48/15/2
f 29/16/2 30/27/2 34/17/2
f 34/17/2 35/736/2 32/18/2
f 32/18/2 33/737/2 31/738/2
f 31/738/2 29/16/2 32/18/2
f 37/739/1 17/740/1 16/33/1
f 17/740/1 19/34/1 16/33/1
f 19/34/1 20/741/1 18/32/1
f 18/32/1 12/732/1 1/731/1
f 1/731/1 16/33/1 18/32/1
f 41/37/2 39/742/2 38/743/2
f 39/742/2 36/744/2 38/743/2
f 38/743/2 31/738/2 40/35/2
f 41/37/2 38/743/2 40/35/2
f 31/738/2 33/737/2 40/35/2
f 34/43/7 30/131/26 71/745/8
f 30/131/26 69/130/26 71/745/8
f 87/83/26 11/82/26 90/44/8
f 11/82/26 14/42/7 90/44/8
f 34/43/7 71/745/8 90/44/8
f 19/59/15 17/85/18 94/746/18
f 17/85/18 93/84/18 94/746/18
f 62/125/18 39/126/18 73/65/18
f 39/126/18 41/60/15 73/65/18
f 19/59/15 94/746/18 73/65/18
f 6/4/1 10/7/1 45/99/1
f 45/99/1 47/747/1 46/748/1
f 46/748/1 44/749/1 45/99/1
f 44/749/1 43/98/1 45/99/1
f 62/750/1 73/106/1 61/751/1
f 73/106/1 71/105/1 72/752/1
f 69/753/1 67/754/1 68/755/1
f 67/754/1 65/756/1 66/102/1
f 73/106/1 72/752/1 61/751/1
f 71/105/1 69/753/1 70/757/1
f 72/752/1 71/105/1 70/757/1
f 61/751/1 60/758/1 62/750/1
f 67/754/1 66/102/1 68/755/1
f 65/756/1 63/100/1 66/102/1
f 63/100/1 55/759/1 64/101/1
f 55/759/1 53/760/1 58/761/1
f 53/760/1 54/762/1 56/763/1
f 56/763/1 57/764/1 59/765/1
f 56/763/1 59/765/1 53/760/1
f 59/765/1 58/761/1 53/760/1
f 55/759/1 58/761/1 64/101/1
f 68/755/1 70/757/1 69/753/1
f 87/766/2 90/104/2 88/767/2
f 90/104/2 94/103/2 91/768/2
f 88/767/2 90/104/2 91/768/2
f 94/103/2 93/769/2 92/770/2
f 93/769/2 89/771/2 92/770/2
f 92/770/2 91/768/2 94/103/2
f 85/135/2 87/766/2 86/136/2
f 78/772/2 83/773/2 84/137/2
f 83/773/2 85/135/2 84/137/2
f 74/774/2 76/775/2 80/776/2
f 76/775/2 78/772/2 81/777/2
f 80/776/2 76/775/2 81/777/2
f 77/778/2 75/779/2 74/774/2
f 82/780/2 79/781/2 77/778/2
f 80/776/2 82/780/2 74/774/2
f 82/780/2 77/778/2 74/774/2
f 87/766/2 88/767/2 86/136/2
f 84/137/2 81/777/2 78/772/2
f 222/782/2 219/447/2 221/783/2
f 219/447/2 215/446/2 218/784/2
f 221/783/2 219/447/2 218/784/2
f 215/446/2 216/785/2 217/786/2
f 216/785/2 220/787/2 217/786/2
f 217/786/2 218/784/2 215/446/2
f 224/350/2 222/782/2 223/351/2
f 231/788/2 226/789/2 225/352/2
f 226/789/2 224/350/2 225/352/2
f 235/790/2 233/791/2 229/792/2
f 233/791/2 231/788/2 228/793/2
f 229/792/2 233/791/2 228/793/2
f 232/794/2 234/795/2 235/790/2
f 227/796/2 230/797/2 232/794/2
f 229/792/2 227/796/2 235/790/2
f 227/796/2 232/794/2 235/790/2
f 222/782/2 221/783/2 223/351/2
f 225/352/2 228/793/2 231/788/2
f 303/402/1 299/483/1 264/403/1
f 264/403/1 262/798/1 263/799/1
f 263/799/1 265/800/1 264/403/1
f 265/800/1 266/401/1 264/403/1
f 290/424/90 292/453/50 215/801/50
f 292/453/50 216/452/50 215/801/50
f 247/383/50 270/386/50 236/422/50
f 270/386/50 268/423/90 236/422/50
f 290/424/90 215/801/50 236/422/50
f 247/802/1 236/449/1 248/803/1
f 236/449/1 238/448/1 237/804/1
f 240/805/1 242/806/1 241/807/1
f 242/806/1 244/808/1 243/443/1
f 236/449/1 237/804/1 248/803/1
f 238/448/1 240/805/1 239/809/1
f 237/804/1 238/448/1 239/809/1
f 248/803/1 249/810/1 247/802/1
f 242/806/1 243/443/1 241/807/1
f 244/808/1 246/441/1 243/443/1
f 246/441/1 254/811/1 245/442/1
f 254/811/1 256/812/1 251/813/1
f 256/812/1 255/814/1 253/815/1
f 253/815/1 252/816/1 250/817/1
f 253/815/1 250/817/1 256/812/1
f 250/817/1 251/813/1 256/812/1
f 254/811/1 251/813/1 245/442/1
f 241/807/1 239/809/1 240/805/1
f 272/818/1 292/819/1 293/457/1
f 292/819/1 290/458/1 293/457/1
f 290/458/1 289/820/1 291/456/1
f 291/456/1 297/821/1 308/822/1
f 308/822/1 293/457/1 291/456/1
f 268/467/2 270/823/2 271/824/2
f 270/823/2 273/825/2 271/824/2
f 271/824/2 278/826/2 269/465/2
f 268/467/2 271/824/2 269/465/2
f 278/826/2 276/827/2 269/465/2
f 275/439/95 279/394/87 238/828/53
f 279/394/87 240/393/87 238/828/53
f 222/451/87 298/450/87 219/468/53
f 298/450/87 295/440/95 219/468/53
f 275/439/95 238/828/53 219/468/53
f 280/469/2 279/472/2 275/470/2
f 275/470/2 274/829/2 277/471/2
f 277/471/2 276/827/2 278/826/2
f 278/826/2 280/469/2 277/471/2
f 281/476/2 285/475/2 258/486/2
f 285/475/2 261/830/2 258/486/2
f 261/830/2 259/831/2 258/486/2
f 259/831/2 260/484/2 258/486/2
f 295/490/1 298/488/1 307/487/1
f 307/487/1 308/822/1 296/489/1
f 308/822/1 297/821/1 296/489/1
f 296/489/1 294/832/1 295/490/1
