# Blender 4.5.11 LTS
# www.blender.org
mtllib flag_holder.mtl
o flag_holder
v 0.000000 1.000000 -0.410829
v 0.027787 1.000000 -0.426872
v 0.027787 1.000000 -0.458957
v 0.000000 1.000000 -0.475000
v -0.027787 1.000000 -0.458957
v -0.027787 1.000000 -0.426872
v 0.000000 2.000000 -0.475000
v -0.027787 2.000000 -0.426872
v -0.027787 2.000000 -0.458957
v 0.027787 2.000000 -0.458957
v 0.027787 2.000000 -0.426872
v -0.000000 1.935829 -0.410829
v 0.027787 1.951872 -0.410829
v 0.027787 1.983957 -0.410829
v -0.000000 2.000000 -0.410829
v -0.027787 1.983957 -0.410829
v -0.027787 1.951872 -0.410829
v -0.000000 2.000000 0.500000
v -0.027787 1.951872 0.500000
v -0.027787 1.983957 0.500000
v -0.000000 1.935829 0.500000
v 0.027787 1.983957 0.500000
v 0.027787 1.951872 0.500000
v 0.027787 1.935829 -0.458957
v -0.027787 1.935829 -0.426872
v 0.000000 1.935829 -0.475000
v -0.027787 1.935829 -0.458957
v 0.027787 1.935829 -0.426872
v 0.100000 1.700000 -0.475000
v -0.100000 1.300000 -0.475000
v -0.119925 1.280074 -0.500000
v -0.119925 1.719925 -0.500000
v 0.100000 1.300000 -0.475000
v -0.100000 1.700000 -0.475000
v 0.119925 1.280074 -0.500000
v 0.119925 1.719925 -0.500000
v 0.027787 1.598571 -0.475000
v -0.027787 1.598571 -0.426872
v -0.000000 1.598571 -0.410829
v -0.027787 1.598571 -0.475000
v 0.027787 1.598571 -0.426872
v 0.027787 1.401429 -0.475000
v -0.027787 1.401429 -0.426872
v -0.000000 1.401429 -0.410829
v -0.027787 1.401428 -0.475000
v 0.027787 1.401428 -0.426872
v 0.039474 1.598571 -0.475000
v -0.039474 1.598571 -0.421028
v -0.000000 1.598571 -0.399142
v -0.039474 1.598571 -0.475000
v 0.039474 1.598571 -0.421028
v 0.039474 1.401429 -0.475000
v -0.039474 1.401429 -0.421028
v 0.000000 1.401429 -0.399142
v -0.039474 1.401428 -0.475000
v 0.039474 1.401428 -0.421028
v 0.002035 1.935828 0.500000
v 0.002035 -0.000000 0.500000
v 0.002035 1.935828 -0.410829
v 0.002035 -0.000000 -0.410829
v -0.002035 1.935828 0.500000
v -0.002035 -0.000000 0.500000
v -0.002035 1.935828 -0.410829
v -0.002035 -0.000000 -0.410829
vn -1.0000 -0.0000 -0.0000
vn 1.0000 -0.0000 -0.0000
vn -0.5000 -0.0000 -0.8660
vn 0.5000 -0.0000 -0.8660
vn -0.5000 -0.8660 -0.0000
vn -0.5000 0.8660 -0.0000
vn 0.5000 0.8660 -0.0000
vn 0.5000 -0.8660 -0.0000
vn 0.5000 -0.0000 0.8660
vn -0.5000 -0.0000 0.8660
vn 0.3780 -0.6547 0.6547
vn -0.3780 -0.6547 0.6547
vn -0.3780 0.6547 0.6547
vn 0.3780 0.6547 0.6547
vn -0.0000 1.0000 -0.0000
vn -0.0000 -0.0000 1.0000
vn -0.0000 -1.0000 -0.0000
vn -0.7820 -0.0000 0.6233
vn -0.0000 0.7820 0.6233
vn -0.0000 -0.7820 0.6233
vn 0.7820 -0.0000 0.6233
vn -0.4849 -0.0000 0.8746
vn 0.4849 -0.0000 0.8746
vt 0.963794 0.436246
vt 0.963794 0.504281
vt 0.929777 0.504281
vt 0.929777 0.436246
vt 0.818248 0.442349
vt 0.818248 0.510385
vt 0.784230 0.510385
vt 0.784230 0.442349
vt 0.767221 0.459358
vt 0.767221 0.493376
vt 0.895759 0.504281
vt 0.895759 0.436246
vt 0.852266 0.442349
vt 0.852266 0.510385
vt 0.980803 0.453254
vt 0.980803 0.487272
vt 0.969588 0.284194
vt 0.003906 0.284194
vt 0.003906 0.250176
vt 0.969588 0.250176
vt 0.969588 0.386248
vt 0.003906 0.386248
vt 0.003906 0.352230
vt 0.969588 0.352230
vt 0.969588 0.318212
vt 0.003906 0.318212
vt 0.003906 0.216158
vt 0.969588 0.216158
vt 0.969588 0.420265
vt 0.003906 0.420265
vt 0.996094 0.139978
vt 0.003906 0.139978
vt 0.003906 0.105960
vt 0.996094 0.105960
vt 0.996094 0.208013
vt 0.003906 0.208013
vt 0.003906 0.173996
vt 0.996094 0.173996
vt 0.996094 0.037924
vt 0.003906 0.037924
vt 0.003906 0.003906
vt 0.996094 0.003906
vt 0.003906 0.071942
vt 0.996094 0.071942
vt 0.753225 0.428353
vt 0.994799 0.422249
vt 0.994800 0.518278
vt 0.753225 0.524381
vt 0.798975 0.518493
vt 0.828435 0.535502
vt 0.828435 0.569520
vt 0.798975 0.586529
vt 0.880423 0.508501
vt 0.880423 0.576537
vt 0.850962 0.559528
vt 0.850962 0.525510
vt 0.949653 0.580425
vt 0.920193 0.563417
vt 0.920193 0.529399
vt 0.949653 0.512390
vt 0.037801 0.674349
vt 0.461890 0.674349
vt 0.483015 0.708243
vt 0.016675 0.708243
vt 0.495784 0.441179
vt 0.495784 0.695474
vt 0.461890 0.462305
vt 0.003906 0.695474
vt 0.003906 0.441179
vt 0.037801 0.462305
vt 0.016675 0.428410
vt 0.483015 0.428410
vt 0.731944 0.485102
vt 0.517113 0.485102
vt 0.517113 0.428410
vt 0.731944 0.428410
vt 0.731944 0.630681
vt 0.517113 0.630681
vt 0.517113 0.573989
vt 0.731944 0.573989
vt 0.731944 0.529546
vt 0.517113 0.529546
vt 0.504810 0.573989
vt 0.504810 0.529546
vt 0.744247 0.428410
vt 0.744247 0.485102
vt 0.504810 0.485102
vt 0.504810 0.428410
vt 0.744247 0.529546
vt 0.744247 0.573989
vt 0.504810 0.630681
vt 0.744247 0.630681
vt 0.769515 0.535502
vt 0.769515 0.569520
vt 0.979114 0.563417
vt 0.979114 0.529399
vt 0.909883 0.525510
vt 0.909883 0.559528
vt 1.000000 1.000000
vt 0.000000 1.000000
vt 0.000000 0.000000
vt 1.000000 0.000000
vt 1.000000 1.000000
vt 1.000000 0.000000
vt 0.000000 0.000000
s 1
usemtl flag_holder
f 25/1/1 8/2/1 9/3/1 27/4/1
f 24/5/2 10/6/2 11/7/2 28/8/2
f 13/9/2 28/8/2 11/7/2 14/10/2
f 27/4/3 9/3/3 7/11/3 26/12/3
f 26/13/4 7/14/4 10/6/4 24/5/4
f 17/15/1 16/16/1 8/2/1 25/1/1
f 17/17/1 19/18/1 20/19/1 16/20/1
f 14/21/2 22/22/2 23/23/2 13/24/2
s 0
f 12/25/5 21/26/5 19/18/5 17/17/5
f 16/20/6 20/19/6 18/27/6 15/28/6
f 15/29/7 18/30/7 22/22/7 14/21/7
f 13/24/8 23/23/8 21/26/8 12/25/8
f 2/31/9 28/32/9 12/33/9 1/34/9
s 1
f 4/35/4 26/36/4 24/37/4 3/38/4
f 5/39/3 27/40/3 26/41/3 4/42/3
s 0
f 1/34/10 12/33/10 25/43/10 6/44/10
s 1
f 3/38/2 24/37/2 28/32/2 2/31/2
s 0
f 13/9/11 12/45/11 28/8/11
f 25/1/12 12/46/12 17/15/12
f 15/47/13 8/2/13 16/16/13
f 14/10/14 11/7/14 15/48/14
f 15/49/15 11/50/15 10/51/15 7/52/15
s 1
f 18/53/16 21/54/16 23/55/16 22/56/16
s 0
f 1/57/17 6/58/17 5/59/17 4/60/17
s 1
f 6/44/1 25/43/1 27/40/1 5/39/1
s 0
f 30/61/18 34/62/18 32/63/18 31/64/18
f 36/65/19 32/66/19 34/62/19 29/67/19
f 31/68/20 35/69/20 33/70/20 30/61/20
f 35/71/21 36/72/21 29/67/21 33/70/21
f 30/61/16 33/70/16 29/67/16 34/62/16
f 53/73/1 48/74/1 50/75/1 55/76/1
f 52/77/2 47/78/2 51/79/2 56/80/2
f 54/81/22 49/82/22 48/74/22 53/73/22
f 56/80/23 51/79/23 49/82/23 54/81/23
s 1
f 41/83/15 39/84/15 49/82/15 51/79/15
f 45/85/17 43/86/17 53/73/17 55/76/17
s 0
f 38/87/15 40/88/15 50/75/15 48/74/15
s 1
f 44/89/17 46/90/17 56/80/17 54/81/17
s 0
f 37/91/15 41/83/15 51/79/15 47/78/15
s 1
f 43/86/17 44/89/17 54/81/17 53/73/17
f 39/84/15 38/87/15 48/74/15 49/82/15
s 0
f 46/90/17 42/92/17 52/77/17 56/80/17
f 8/93/15 15/49/15 7/52/15 9/94/15
f 2/95/17 1/57/17 4/60/17 3/96/17
s 1
f 20/97/16 19/98/16 21/54/16 18/53/16
s 0
usemtl flag
f 57/99/2 58/100/2 60/101/2 59/102/2
f 61/103/1 63/104/1 64/105/1 62/100/1
